<?xml version="1.0" standalone="no"?>
<!DOCTYPE svg PUBLIC "-//W3C//DTD SVG 1.1//EN" "http://www.w3.org/Graphics/SVG/1.1/DTD/svg11.dtd">
<svg xmlns="http://www.w3.org/2000/svg"><metadata>This SVG WebFont was generated by YouWorkForThem.
Â©2020 Typekiln.</metadata><defs><font horiz-adv-x="1124" id="ywftsvg"><font-face ascent="1638" bbox="-436 -481 2384 1944" cap-height="1434" descent="-410" font-family="" font-stretch="normal" font-weight="200" panose-1="0 0 0 0 0 0 0 0 0 0" underline-position="0" underline-thickness="0" unicode-range="U+000D-FB02" units-per-em="2048" x-height="1016"/><missing-glyph d="M70 -147l305 1728h827l-305 -1728h-827zM496 1434l-13 -76h381l-6 -39h-90l-14 -76h241l15 76h-76l6 39h76l12 76h-532zM477 1319l-35 -191h533l14 78h-276l20 113h-256zM539 1243h104l-6 -37h-105zM893 1094l-39 -228h-457l-14 -75h532l54 303h-76zM436 1094l-14 -78 h229l-6 -37h-229l-13 -78h308l18 115h35l-19 -115h78l33 193h-420zM662 756l-15 -78h172l-6 -37h-381l6 37h172l15 78h-248l-35 -193h532l15 78l-21 37l35 39l6 39h-247zM317 416l-34 -191h532l35 191h-533zM379 340h381l-6 -39h-381zM276 190l-32 -190h532l15 76h-457l6 39 h457l12 75h-533z" horiz-adv-x="1021"/><glyph d="M231 948l13 68h164l28 166q27 143 88.5 227t194.5 84l80 -4l-13 -74l-4 2q-6 0 -15 1t-20.5 2t-23.5 1t-26.5 -1t-28 -4t-25.5 -7q-94 -37 -123 -195l-35 -198h447l-178 -1016h-80l166 948h-367l-166 -948h-80l168 948h-164zM950.5 1339q-28.5 0 -43 18.5t-10.5 45.5 q4 29 25.5 47t50 18t43 -18t10.5 -47q-4 -27 -25.5 -45.5t-50 -18.5z" glyph-name="uniFB01" horiz-adv-x="919" unicode="fi"/><glyph d="M231 948l13 68h164l30 174q23 141 85.5 223t195.5 82h305l-264 -1495h-80l250 1421h-230q-143 0 -178 -198l-37 -207h220l-13 -68h-219l-166 -948h-80l168 948h-164z" glyph-name="uniFB02" horiz-adv-x="921" unicode="fl"/><glyph d="M70 -147l305 1728h827l-305 -1728h-827zM496 1434l-13 -76h381l-6 -39h-90l-14 -76h241l15 76h-76l6 39h76l12 76h-532zM477 1319l-35 -191h533l14 78h-276l20 113h-256zM539 1243h104l-6 -37h-105zM893 1094l-39 -228h-457l-14 -75h532l54 303h-76zM436 1094l-14 -78 h229l-6 -37h-229l-13 -78h308l18 115h35l-19 -115h78l33 193h-420zM662 756l-15 -78h172l-6 -37h-381l6 37h172l15 78h-248l-35 -193h532l15 78l-21 37l35 39l6 39h-247zM317 416l-34 -191h532l35 191h-533zM379 340h381l-6 -39h-381zM276 190l-32 -190h532l15 76h-457l6 39 h457l12 75h-533z" glyph-name=".notdef" horiz-adv-x="1021"/><glyph glyph-name="glyph1" horiz-adv-x="0"/><glyph glyph-name="glyph1" horiz-adv-x="0"/><glyph glyph-name="space" horiz-adv-x="546" unicode=" "/><glyph d="M379 309h-78l195 1125h86zM282.5 -25q-34.5 0 -55 25t-14.5 59.5t34.5 59t63.5 24.5t54.5 -24.5t13.5 -59t-34 -59.5t-62.5 -25z" glyph-name="exclam" horiz-adv-x="573" unicode="!"/><glyph d="M348 979l78 475h84l-86 -475h-76zM748 1454h83l-86 -475h-75z" glyph-name="quotedbl" horiz-adv-x="747" unicode="&quot;"/><glyph d="M350 -4l103 373h-332l22 80h330l121 454h-330l23 80h329l97 367h82l-97 -367h420l99 367h83l-98 -367h326l-19 -80h-327l-123 -454h330l-21 -80h-330l-100 -373h-84l102 373h-421l-101 -373h-84zM674 905l-123 -459h428l123 459h-428z" glyph-name="numbersign" horiz-adv-x="1411" unicode="#"/><glyph d="M207 369l84 16q-2 -137 85 -225t222 -101l115 641q-76 23 -121 39.5t-103.5 49t-87 69.5t-43 94.5t-2.5 130.5q31 166 173.5 265.5t314.5 105.5l22 123h78l-22 -125q141 -16 232 -106.5t97 -237.5l-88 -14q-4 119 -74.5 193.5t-181.5 86.5l-108 -614q102 -31 157.5 -52.5 t124 -65.5t91 -111.5t6.5 -161.5q-33 -174 -183.5 -277.5t-332.5 -109.5l-21 -125h-78l23 125q-168 14 -271.5 116.5t-107.5 270.5zM442 1087q-12 -68 4.5 -118.5t63.5 -85.5t94 -55.5t123 -43.5l104 592q-141 -6 -253.5 -83t-135.5 -206zM1092 365q12 72 -6.5 125 t-69.5 88.5t-99.5 55t-130.5 44.5l-110 -621q143 6 267 88.5t149 219.5z" glyph-name="dollar" horiz-adv-x="1253" unicode="$"/><glyph d="M1466 1456l74 -22l-1292 -1457l-76 23zM858 1151q-23 -135 -114 -219t-224 -84t-192.5 83t-36.5 220q25 137 115 220t223 83t193.5 -84t35.5 -219zM369 1151q-18 -102 25.5 -165.5t140 -63.5t163 63.5t84.5 165.5q16 102 -27.5 165.5t-140 63.5t-163 -63.5t-82.5 -165.5z M1190 584q133 0 193.5 -83t35.5 -218q-23 -137 -112.5 -220t-223 -83t-194 83.5t-35.5 219.5q23 135 113 218t223 83zM1095.5 53q96.5 0 163 62.5t85 165t-25.5 166t-140.5 63.5t-163 -63.5t-84.5 -165.5q-18 -100 25.5 -164t140 -64z" glyph-name="percent" horiz-adv-x="1458" unicode="%"/><glyph d="M1151 233l143 -190l-69 -55l-138 186q-100 -90 -228 -142t-257 -52q-188 0 -317 110.5t-97 296.5q27 145 141.5 241.5t286.5 170.5q-170 197 -143 350q25 133 142.5 219t261.5 86q139 0 227 -82t65 -211q-14 -88 -97 -172t-165 -130t-170 -83l369 -485q131 152 192 485 l7 35h81l-12 -68q-53 -307 -223 -510zM555 1145q-23 -127 139 -316q131 51 252 138.5t139 191.5q16 96 -47 156.5t-176 60.5q-111 0 -199 -64.5t-108 -166.5zM616 57q104 0 224.5 46.5t201.5 125.5l-385 510q-74 -31 -125 -58.5t-111.5 -70.5t-97 -99t-49.5 -124 q-27 -156 82.5 -243t259.5 -87z" glyph-name="ampersand" horiz-adv-x="1347" unicode="&amp;"/><glyph d="M426 1454h86l-88 -475h-76z" glyph-name="quotesingle" horiz-adv-x="425" unicode="'"/><glyph d="M856 1655q-135 -168 -260 -458t-180 -603q-53 -342 -30.5 -612.5t99.5 -432.5h-75q-88 158 -112 441.5t32 603.5q55 309 181 603t269 458h76z" glyph-name="parenleft" horiz-adv-x="645" unicode="("/><glyph d="M373 1655h76q86 -164 108.5 -454t-31.5 -607q-53 -309 -179 -598t-269 -447h-76q133 162 257 446t181 599q51 342 30 617.5t-97 443.5z" glyph-name="parenright" horiz-adv-x="645" unicode=")"/><glyph d="M1014 1249l-291 -131l246 -135l-54 -65l-219 161l-37 -295h-73l69 295l-284 -161l-27 65l297 133l-250 133l51 68l226 -162l34 299h76l-69 -299l278 162z" glyph-name="asterisk" horiz-adv-x="964" unicode="*"/><glyph d="M1122 666l-14 -80h-385l-72 -406h-84l72 406h-387l14 80h387l72 403h84l-72 -403h385z" glyph-name="plus" horiz-adv-x="1155" unicode="+"/><glyph d="M227 190h90l-180 -493h-65z" glyph-name="comma" horiz-adv-x="468" unicode=","/><glyph d="M829 586h-575l14 80h576z" glyph-name="hyphen" horiz-adv-x="876" unicode="-"/><glyph d="M256 -4q-31 0 -47 19.5t-10 50.5q4 29 28.5 49t53 20t45 -21.5t10.5 -47.5q-4 -31 -27.5 -50.5t-52.5 -19.5z" glyph-name="period" horiz-adv-x="512" unicode="."/><glyph d="M12 -205l838 1749l76 -14l-838 -1751z" glyph-name="slash" horiz-adv-x="704" unicode="/"/><glyph d="M901 1454q117 0 200 -45t126 -116.5t62.5 -170t16.5 -198t-24 -207.5q-25 -137 -71 -260t-120.5 -234.5t-190.5 -177t-259 -65.5t-238.5 67.5t-128 174t-40 237.5t21.5 258q18 109 50 208t86 197.5t124 170t169 116.5t216 45zM653 57q109 0 199 48.5t146.5 117 t100.5 164.5t64.5 172t34.5 158q12 66 17.5 129t5.5 143t-19.5 144.5t-54.5 122t-101.5 89t-158.5 31.5q-109 0 -199 -48t-146.5 -116.5t-100.5 -165t-65.5 -172t-35.5 -157.5q-12 -68 -17.5 -130.5t-4.5 -142t20.5 -144t54.5 -122t101.5 -89.5t158.5 -32z" glyph-name="zero" horiz-adv-x="1286" unicode="0"/><glyph d="M377 1356l14 78h320l-254 -1434h-82l237 1356h-235z" glyph-name="one" horiz-adv-x="743" unicode="1"/><glyph d="M338 1044q43 174 193.5 292t345.5 118q193 0 304 -121t76 -315q-45 -252 -319 -455l-657 -485h813l-13 -78h-936l15 80l731 538q248 182 285 400q29 160 -62.5 259t-247.5 99q-164 0 -288.5 -98t-161.5 -248z" glyph-name="two" horiz-adv-x="1210" unicode="2"/><glyph d="M201 408l82 12q-29 -164 64 -263.5t257 -99.5q158 0 290 95.5t159 250.5q27 143 -74.5 230.5t-251.5 87.5h-96l14 76h98q125 0 236 80.5t131 201.5q25 133 -57 215t-217 82q-137 0 -240.5 -88t-124.5 -225l-80 14q31 172 164 274.5t297 102.5t267.5 -100.5t72.5 -272.5 q-18 -102 -96 -190t-199 -129q123 -31 192.5 -130.5t47.5 -230.5q-35 -197 -197 -309t-350 -112q-186 0 -304 114.5t-85 313.5z" glyph-name="three" horiz-adv-x="1206" unicode="3"/><glyph d="M1069 1434h84l-172 -971h190l-14 -78h-188l-70 -385h-82l68 385h-703l13 78zM1047 1303l-754 -840h606z" glyph-name="four" horiz-adv-x="1189" unicode="4"/><glyph d="M500 1434h737l-12 -78h-668l-133 -588q74 72 175 113t202 41q190 0 294.5 -139.5t69.5 -338.5q-35 -203 -193.5 -333.5t-359.5 -130.5q-170 0 -276.5 97t-122.5 261l88 16q14 -137 101 -217t223 -80q164 0 296 108.5t162 280.5q29 170 -60 285t-251 115q-98 0 -197.5 -47 t-171.5 -133l-77 26z" glyph-name="five" horiz-adv-x="1200" unicode="5"/><glyph d="M795 946q211 0 323.5 -144.5t77.5 -342.5q-37 -209 -202 -344t-376 -135q-205 0 -324.5 140t-82.5 341q31 190 231 418q217 252 514 585l84 -18l-520 -584q117 84 275 84zM633 57q172 0 311 115t170 287q31 174 -67.5 292.5t-270.5 118.5q-170 0 -311 -118.5t-172 -292.5 q-33 -174 66.5 -288t273.5 -114z" glyph-name="six" horiz-adv-x="1228" unicode="6"/><glyph d="M367 1434h774l-15 -78l-776 -1370l-78 14l772 1356h-692z" glyph-name="seven" horiz-adv-x="1017" unicode="7"/><glyph d="M883 764q111 -33 180.5 -133.5t42.5 -245.5q-31 -180 -182.5 -292.5t-343.5 -112.5q-190 0 -302 112.5t-79 292.5q27 145 130 245.5t224 133.5q-96 33 -149.5 121t-30.5 207q27 158 161 260t306 102t270 -102.5t70 -259.5q-20 -121 -104 -207t-193 -121zM455 1087 q-23 -127 59 -208.5t211 -81.5t239.5 82t133.5 208q20 125 -57.5 207t-213 82t-244 -82t-128.5 -207zM592 57q156 0 281.5 92.5t150.5 239.5q27 150 -68.5 241t-245 91t-276.5 -92t-153 -242q-25 -145 66 -237.5t245 -92.5z" glyph-name="eight" horiz-adv-x="1167" unicode="8"/><glyph d="M688 483q-213 0 -325.5 144.5t-77.5 343.5q37 209 201.5 344t375.5 135q205 0 325 -140.5t83 -340.5q-31 -190 -232 -418q-217 -252 -514 -586l-84 19l521 583q-117 -84 -273 -84zM848 1372q-172 0 -311.5 -114.5t-167.5 -286.5q-31 -174 66 -293t269.5 -119t312.5 118 t173 294q31 174 -69.5 287.5t-272.5 113.5z" glyph-name="nine" horiz-adv-x="1228" unicode="9"/><glyph d="M410 868q-27 0 -44.5 20.5t-13.5 49.5t29 49.5t53.5 20.5t45 -20.5t12.5 -49.5q-6 -29 -29.5 -49.5t-52.5 -20.5zM260 23q-29 0 -45 21.5t-10 47.5q4 29 27.5 49.5t52 20.5t45 -20.5t12.5 -49.5t-28.5 -49t-53.5 -20z" glyph-name="colon" horiz-adv-x="512" unicode=":"/><glyph d="M391 868q-29 0 -46 20.5t-11 49.5q4 29 28.5 49.5t53 20.5t44 -20.5t11.5 -49.5t-28.5 -49.5t-51.5 -20.5zM227 186h90l-178 -491h-67z" glyph-name="semicolon" horiz-adv-x="432" unicode=";"/><glyph d="M1196 1063l-16 -88l-756 -340l637 -342l-17 -88l-718 391l14 76z" glyph-name="less" horiz-adv-x="1226" unicode="&lt;"/><glyph d="M1126 791h-817l15 79h817zM1063 422h-817l14 80h817z" glyph-name="equal" horiz-adv-x="1159" unicode="="/><glyph d="M393 975l15 88l718 -391l-12 -76l-858 -391l16 88l758 342z" glyph-name="greater" horiz-adv-x="1226" unicode=">"/><glyph d="M737 1454q156 0 256.5 -98.5t73.5 -253.5q-16 -86 -68.5 -155.5t-117 -117t-130 -95.5t-117.5 -116.5t-67 -156.5l-26 -152h-84l26 152q18 100 71.5 178t119 127t130 95t115 106.5t64.5 136.5q20 121 -58.5 196.5t-199.5 75.5q-109 0 -208 -63.5t-148 -175.5l-76 12 q57 141 180 223t264 82zM444.5 -4q-28.5 0 -45 20.5t-12.5 49t28.5 49t53.5 20.5t45 -20.5t12 -48.5q-6 -29 -29.5 -49.5t-52 -20.5z" glyph-name="question" horiz-adv-x="985" unicode="?"/><glyph d="M1360 1454q264 0 464.5 -130t290 -353t42.5 -488q-37 -203 -159 -345t-274 -142q-104 0 -161.5 69.5t-46.5 190.5q-70 -121 -188 -190.5t-251 -69.5q-195 0 -297 144.5t-67 346.5q35 201 187.5 346.5t346.5 145.5q268 0 342 -244l41 223h78l-121 -675q-18 -100 28 -157.5 t128 -57.5q121 0 213 122.5t121 292.5q66 369 -147.5 633t-583.5 264q-373 0 -676 -259t-368.5 -633.5t147.5 -634t583 -259.5q307 0 572 177l45 -54q-293 -197 -629 -196q-406 0 -636 279.5t-161 686.5q47 268 214 489.5t412 349.5t511 128zM1092 68q174 0 297.5 118.5 t156.5 298.5q33 182 -49 302t-258 120q-170 0 -294 -122.5t-154 -299.5q-31 -172 52 -294.5t249 -122.5z" glyph-name="at" horiz-adv-x="2209" unicode="@"/><glyph d="M944 1434l285 -1434h-92l-72 377h-705l-204 -377h-93l791 1434h90zM401 455h650l-168 880z" glyph-name="A" horiz-adv-x="1292" unicode="A"/><glyph d="M1018 770q113 -33 169 -138.5t34 -240.5q-31 -170 -173.5 -280.5t-332.5 -110.5h-537l252 1434h510q190 0 282.5 -95.5t63.5 -257.5q-20 -113 -88.5 -192.5t-179.5 -118.5zM502 1356l-96 -553h473q119 0 210 80t113 202q23 127 -50 199t-220 72h-430zM735 78 q150 0 263.5 90t140.5 231q23 137 -52 231.5t-210 94.5h-486l-115 -647h459z" glyph-name="B" horiz-adv-x="1251" unicode="B"/><glyph d="M803 57q174 0 321.5 82t243.5 232l84 -17q-113 -182 -285 -278t-372 -96q-309 0 -453.5 210.5t-89.5 526t274 526.5t525 211q201 0 339 -97t187 -278l-88 -16q-45 150 -162 231.5t-289 81.5q-270 0 -460.5 -188.5t-241.5 -470.5q-49 -283 75 -471.5t392 -188.5z" glyph-name="C" horiz-adv-x="1501" unicode="C"/><glyph d="M846 1434q338 0 495.5 -185.5t100.5 -509.5q-57 -336 -292 -537.5t-556 -201.5h-416l254 1434h414zM618 78q266 0 476.5 179t263.5 482q51 291 -90.5 454t-423.5 163h-342l-226 -1278h342z" glyph-name="D" horiz-adv-x="1433" unicode="D"/><glyph d="M1243 1356h-741l-107 -604h660l-15 -76h-657l-107 -598h742l-14 -78h-826l254 1434h823z" glyph-name="E" horiz-adv-x="1140" unicode="E"/><glyph d="M1223 1356h-721l-107 -611h649l-12 -75h-651l-117 -670h-86l252 1434h807z" glyph-name="F" horiz-adv-x="1089" unicode="F"/><glyph d="M1632 715q-10 -55 -10 -62q-53 -303 -265 -488t-497 -185q-305 0 -462.5 206.5t-100.5 530.5q57 322 284.5 529.5t530.5 207.5q190 0 328.5 -88t199.5 -252l-90 -16q-55 133 -175 205.5t-279 72.5q-264 0 -464 -187.5t-251 -473.5q-51 -291 85 -474.5t406 -183.5 q252 0 437.5 162t226.5 420h-526l14 76h608z" glyph-name="G" horiz-adv-x="1636" unicode="G"/><glyph d="M1386 1434h87l-254 -1434h-84l116 659h-872l-115 -659h-86l254 1434h84l-123 -699h871z" glyph-name="H" horiz-adv-x="1398" unicode="H"/><glyph d="M264 0h-86l254 1434h84z" glyph-name="I" horiz-adv-x="442" unicode="I"/><glyph d="M1094 1434h84l-181 -1028q-35 -195 -163.5 -310.5t-317.5 -115.5q-190 0 -287.5 116.5t-76.5 302.5l86 17q-16 -162 58.5 -260.5t228 -98.5t257 95.5t129.5 244.5z" glyph-name="J" horiz-adv-x="1103" unicode="J"/><glyph d="M678 786l504 -786h-107l-465 727l-260 -233l-86 -494h-86l254 1434h84l-145 -822l911 822h113z" glyph-name="K" horiz-adv-x="1239" unicode="K"/><glyph d="M276 78h730l-13 -78h-815l254 1434h84z" glyph-name="L" horiz-adv-x="1089" unicode="L"/><glyph d="M1591 1434h113l-252 -1434h-86l229 1298l-751 -1298h-58l-292 1298l-230 -1298h-86l252 1434h113l297 -1301z" glyph-name="M" horiz-adv-x="1630" unicode="M"/><glyph d="M1395 1434h86l-254 -1434h-86l-649 1292l-228 -1292h-86l254 1434h86l649 -1291z" glyph-name="N" horiz-adv-x="1406" unicode="N"/><glyph d="M1075 1454q303 0 460 -215t101 -522q-55 -309 -286.5 -523t-534.5 -214q-203 0 -345 100t-198.5 268t-19.5 369q55 309 285.5 523t537.5 214zM827.5 57q268.5 0 472 191.5t253 468t-87 468t-404.5 191.5t-471 -191.5t-254 -467.5q-49 -276 87 -468t404.5 -192z" glyph-name="O" horiz-adv-x="1636" unicode="O"/><glyph d="M899 1434q199 0 304.5 -121t72.5 -311.5t-181.5 -308.5t-346.5 -118h-383l-101 -575h-86l252 1434h469zM762 651q160 0 280.5 97.5t147.5 253t-59.5 255t-245.5 99.5h-383l-123 -705h383z" glyph-name="P" horiz-adv-x="1204" unicode="P"/><glyph d="M1247 -137l-100 192q-158 -76 -332 -75q-203 0 -345 100t-198.5 268t-19.5 369q55 309 285.5 523t537.5 214q303 0 460 -215t101 -522q-33 -193 -143.5 -356.5t-269.5 -264.5l96 -186zM827 57q152 0 285 64l-145 280l71 48l150 -287q141 90 237.5 236.5t126.5 318.5 q49 276 -87 467.5t-404 191.5t-471 -191.5t-254 -467.5q-49 -276 87 -468t404 -192z" glyph-name="Q" horiz-adv-x="1636" unicode="Q"/><glyph d="M899 1434q199 0 304.5 -121t70.5 -312q-27 -162 -139.5 -273.5t-272.5 -141.5l256 -586h-94l-246 575h-28h-385l-101 -575h-86l254 1434h467zM762 651q160 0 280.5 97.5t147.5 253t-59.5 255t-245.5 99.5h-383l-123 -705h383z" glyph-name="R" horiz-adv-x="1198" unicode="R"/><glyph d="M410 1085q-20 -117 44 -182t195 -106q35 -12 107 -33q106 -31 160.5 -51.5t126 -64.5t95 -111.5t7.5 -159.5q-23 -127 -110 -219t-199.5 -135t-237.5 -43q-186 0 -303 102t-121 287l86 14q-2 -150 98.5 -239t255.5 -89q154 0 286 83t159 231q20 117 -43.5 182t-192.5 106 q-35 12 -108 33q-86 25 -130 39t-110.5 48t-97.5 70t-49.5 97.5t-3.5 136.5q31 176 173 274.5t322 98.5q172 0 281.5 -90t118.5 -256l-89 -14q-8 135 -94 209.5t-227 74.5q-145 0 -260.5 -78t-138.5 -215z" glyph-name="S" horiz-adv-x="1187" unicode="S"/><glyph d="M342 1434h1036l-12 -78h-477l-240 -1356h-84l240 1356h-477z" glyph-name="T" horiz-adv-x="1214" unicode="T"/><glyph d="M1329 1434h84l-156 -883q-45 -248 -197.5 -409.5t-392 -161.5t-338 161.5t-53.5 409.5l156 883h84l-158 -893q-37 -205 39 -344.5t283 -139.5t331 140.5t160 343.5z" glyph-name="U" horiz-adv-x="1339" unicode="U"/><glyph d="M1362 1434h90l-768 -1434h-104l-265 1434h91l243 -1340z" glyph-name="V" horiz-adv-x="1263" unicode="V"/><glyph d="M2015 1434h86l-657 -1434h-103l-149 1264l-598 -1264h-105l-151 1434h88l137 -1332l627 1332h59l162 -1332z" glyph-name="W" horiz-adv-x="1933" unicode="W"/><glyph d="M817 745l369 -745h-99l-331 672l-572 -672h-100l635 745l-342 689h100l303 -617l518 617h99z" glyph-name="X" horiz-adv-x="1271" unicode="X"/><glyph d="M1327 1434h96l-661 -848l-103 -586h-86l105 586l-361 848h95l323 -764z" glyph-name="Y" horiz-adv-x="1234" unicode="Y"/><glyph d="M252 78h909l-12 -78h-1012l15 76l1114 1280h-869l15 78h968l-12 -76z" glyph-name="Z" horiz-adv-x="1286" unicode="Z"/><glyph d="M883 1511h-287l-324 -1833h287l-14 -79h-373l352 1992h371z" glyph-name="bracketleft" horiz-adv-x="675" unicode="["/><glyph d="M399 1542l222 -1749l-82 -14l-222 1751z" glyph-name="backslash" horiz-adv-x="704" unicode="\"/><glyph d="M614 1511h-286l14 80h371l-353 -1992h-370l14 79h287z" glyph-name="bracketright" horiz-adv-x="675" unicode="]"/><glyph d="M340 856h-92l409 598h80l201 -598h-94l-162 510z" glyph-name="asciicircum" horiz-adv-x="884" unicode="^"/><glyph d="M879 -264h-926l12 80h928z" glyph-name="underscore" horiz-adv-x="923" unicode="_"/><glyph d="M596 1434l111 -230h-74l-135 230h98z" glyph-name="grave" horiz-adv-x="739" unicode="`"/><glyph d="M733 1036q166 0 254 -99t57 -267l-118 -670h-78l47 268q-61 -123 -180 -205.5t-269 -82.5q-141 0 -227 80.5t-61 222.5q10 57 37.5 103t59.5 80t88 60.5t96 43t113 28.5t109.5 17.5t112.5 8.5t97.5 4t86.5 1l7 43q25 137 -47 215t-201 78q-121 0 -227.5 -70t-145.5 -186 l-76 10q51 145 182 231t283 86zM930 467l16 94q-346 0 -508 -65q-178 -70 -202 -215q-18 -109 52 -169.5t185 -60.5q166 0 297 125t160 291z" glyph-name="a" horiz-adv-x="1075" unicode="a"/><glyph d="M162 0l260 1466h78l-123 -706q80 137 205 206.5t260 69.5q211 0 320.5 -153.5t70.5 -376.5q-41 -223 -204 -374.5t-372 -151.5q-137 0 -238.5 70.5t-131.5 207.5l-45 -258h-80zM332 508q-35 -195 51 -325t274 -130q186 0 323.5 128t172.5 324.5t-56 327t-282 130.5 q-188 0 -319 -130t-164 -325z" glyph-name="b" horiz-adv-x="1243" unicode="b"/><glyph d="M608 53q123 0 233.5 72t166.5 190l73 -12q-66 -145 -201 -234t-286 -89q-223 0 -332.5 150.5t-71.5 377.5q41 227 204 377.5t386 150.5q147 0 253 -90t120 -233l-78 -13q-14 117 -99 190t-208 73q-195 0 -328 -127t-170 -328q-35 -201 54 -328t284 -127z" glyph-name="c" unicode="c"/><glyph d="M1341 1466l-258 -1466h-79l45 258q-80 -137 -205 -207.5t-262 -70.5q-211 0 -320.5 151.5t-68.5 374.5q39 223 201.5 376.5t373.5 153.5q135 0 236.5 -69.5t134.5 -206.5l123 706h79zM1094 508q33 195 -52.5 325t-273.5 130t-325.5 -130.5t-172 -327t57.5 -324.5 t278 -128q188 0 320.5 130t167.5 325z" glyph-name="d" horiz-adv-x="1245" unicode="d"/><glyph d="M1163 498q-4 0 -4 -19h-895q-27 -186 67.5 -307t276.5 -121q127 0 237.5 63.5t180.5 180.5l76 -14q-190 -301 -500 -301q-225 0 -338.5 147t-73.5 377q39 225 204 378.5t384 153.5q223 0 323.5 -152.5t61.5 -385.5zM281 549h811q25 186 -64.5 302t-261.5 116t-307 -118 t-178 -300z" glyph-name="e" horiz-adv-x="1175" unicode="e"/><glyph d="M702 1016l-12 -68h-217l-168 -948h-78l166 948h-164l13 68h164l30 166q25 141 87.5 226t195.5 85l78 -4l-13 -74q-86 16 -143 -6q-92 -37 -121 -195l-35 -198h217z" glyph-name="f" horiz-adv-x="630" unicode="f"/><glyph d="M596 -8q-223 0 -333.5 147.5t-69.5 374.5q37 213 202.5 367.5t376.5 154.5q141 0 244.5 -72.5t132.5 -207.5l45 260h80l-176 -998q-41 -231 -189.5 -360t-378.5 -129q-164 0 -272 68.5t-131 212.5l82 14q33 -221 338 -221q197 0 316.5 109.5t156.5 310.5l43 243 q-72 -131 -197 -202.5t-270 -71.5zM1108 514q35 193 -57.5 321t-282.5 128q-184 0 -324.5 -132.5t-173.5 -316.5q-35 -199 56.5 -323.5t285.5 -124.5q193 0 327 125.5t169 322.5z" glyph-name="g" horiz-adv-x="1249" unicode="g"/><glyph d="M801 1036q160 0 243.5 -107.5t55.5 -260.5l-117 -668h-80l117 657q23 129 -43 217.5t-199 88.5q-166 0 -289.5 -134.5t-156.5 -318.5l-90 -510h-80l260 1475h80l-129 -730q63 125 177 208t251 83z" glyph-name="h" horiz-adv-x="1132" unicode="h"/><glyph d="M442.5 1339q-28.5 0 -43 18.5t-10.5 45.5q4 29 25.5 47t50.5 18t44 -18t11 -47q-6 -27 -27.5 -45.5t-50 -18.5zM246 0h-78l178 1016h80z" glyph-name="i" horiz-adv-x="413" unicode="i"/><glyph d="M467 1339q-27 0 -41 18.5t-10 45.5q4 29 25.5 47t50.5 18q27 0 42 -19t11 -46t-27.5 -45.5t-50.5 -18.5zM-205 -395q113 -4 177.5 8t108.5 57t64.5 108.5t42.5 186.5l187 1051h78l-189 -1075q-43 -248 -138 -330t-345 -82z" glyph-name="j" horiz-adv-x="438" unicode="j"/><glyph d="M602 621l338 -621h-96l-305 569l-230 -190l-67 -379h-80l260 1475h80l-176 -994l647 535h104z" glyph-name="k" horiz-adv-x="991" unicode="k"/><glyph d="M242 0h-80l260 1475h80z" glyph-name="l" horiz-adv-x="403" unicode="l"/><glyph d="M1409 1036q147 0 222 -107.5t42 -293.5l-112 -635h-80l114 645q27 147 -31.5 232.5t-181.5 85.5q-147 0 -250.5 -123t-136.5 -305l-92 -535h-80l113 645q27 143 -35.5 230.5t-183.5 87.5q-143 0 -251 -130.5t-138 -297.5l-95 -535h-79l180 1016h78l-45 -260 q61 131 163.5 205.5t210.5 74.5q125 0 202 -79.5t73 -204.5q61 137 168.5 210.5t224.5 73.5z" glyph-name="m" horiz-adv-x="1710" unicode="m"/><glyph d="M795 1036q162 0 243.5 -102.5t53.5 -265.5l-117 -668h-80l117 657q25 135 -39 220.5t-201 85.5q-172 0 -294 -133.5t-154 -315.5l-91 -514h-79l180 1016h78l-45 -266q70 131 181.5 208.5t246.5 77.5z" glyph-name="n" unicode="n"/><glyph d="M797 1036q223 0 336.5 -151.5t72.5 -376.5q-39 -225 -205.5 -376.5t-390.5 -151.5q-227 0 -342.5 151.5t-77.5 376.5q41 225 210.5 376.5t396.5 151.5zM621 53q188 0 329.5 128t176 327t-61.5 327t-284.5 128t-331 -128t-177.5 -327q-35 -201 62 -328t287 -127z" glyph-name="o" horiz-adv-x="1218" unicode="o"/><glyph d="M82 -451l258 1467h80l-45 -258q80 137 205 207.5t262 70.5q211 0 320.5 -151.5t70.5 -374.5q-41 -223 -204 -376.5t-374 -153.5q-135 0 -236.5 69.5t-131.5 206.5l-125 -707h-80zM330 508q-33 -195 52 -325t273.5 -130t325.5 130t172 327t-57 325t-279 128 q-188 0 -320 -130t-167 -325z" glyph-name="p" horiz-adv-x="1243" unicode="p"/><glyph d="M1262 1016l-261 -1467h-77l125 707q-80 -137 -206 -206.5t-261 -69.5q-211 0 -320.5 153.5t-68.5 376.5q39 223 201.5 374.5t371.5 151.5q137 0 238.5 -70.5t132.5 -207.5l45 258h80zM1092 508q35 195 -51.5 325t-274.5 130q-186 0 -323.5 -128t-172 -325t56.5 -327 t281 -130q188 0 319.5 130t164.5 325z" glyph-name="q" horiz-adv-x="1243" unicode="q"/><glyph d="M782 1034l-14 -73q-188 16 -293.5 -89.5t-138.5 -289.5l-105 -582h-77l180 1016h78l-35 -197q106 217 364 217q8 0 22.5 -1t18.5 -1z" glyph-name="r" horiz-adv-x="657" unicode="r"/><glyph d="M322 762q-14 -84 44 -127t183 -76q170 -45 221 -72q131 -72 104 -219q-23 -133 -138 -210.5t-260.5 -77.5t-242 79.5t-88.5 221.5l80 14q-6 -111 68 -177.5t190 -66.5q106 0 199.5 55.5t112.5 157.5q16 90 -45.5 134t-206.5 81q-170 43 -228 84q-94 68 -71 191 q23 127 134 206.5t249 79.5q133 0 220 -75.5t85 -200.5l-80 -12q2 100 -64.5 158.5t-169.5 58.5q-104 0 -191 -56.5t-105 -150.5z" glyph-name="s" horiz-adv-x="923" unicode="s"/><glyph d="M676 946h-217l-127 -708q-18 -102 2 -144.5t104 -42.5q51 0 94 15l-14 -74q-51 -12 -104 -12q-109 0 -148 58t-16 191l127 717h-162l12 70h164l45 250l80 12l-47 -262h217z" glyph-name="t" horiz-adv-x="608" unicode="t"/><glyph d="M508 -20q-160 0 -243 102t-54 266l119 668h78l-115 -658q-25 -133 39.5 -219t197.5 -86q172 0 294 133t155 316l90 514h80l-180 -1016h-78l47 266q-70 -131 -182.5 -208.5t-247.5 -77.5z" glyph-name="u" unicode="u"/><glyph d="M1018 1016h82l-570 -1016h-75l-211 1016h82l186 -914z" glyph-name="v" horiz-adv-x="985" unicode="v"/><glyph d="M1518 1016h81l-479 -1016h-88l-129 901l-448 -901h-86l-121 1016h80l100 -926l459 926h69l136 -926z" glyph-name="w" horiz-adv-x="1488" unicode="w"/><glyph d="M635 518l280 -516l-96 -2l-244 463l-403 -463h-100l465 518l-273 498h98l234 -438l385 438h98z" glyph-name="x" horiz-adv-x="987" unicode="x"/><glyph d="M1034 1016h84l-813 -1467h-84l266 476l-243 991h84l213 -899z" glyph-name="y" horiz-adv-x="1003" unicode="y"/><glyph d="M246 74h704l-12 -74h-809l12 66l840 876h-666l13 74h768l-11 -66z" glyph-name="z" horiz-adv-x="1067" unicode="z"/><glyph d="M535 891q-47 -256 -236 -322q78 -31 110.5 -113.5t12.5 -203.5l-72 -410q-25 -135 15.5 -175t179.5 -40l45 2l-12 -78q-31 -2 -60 -2q-180 0 -230 69t-14 273l66 373q23 123 -24.5 191.5t-163.5 68.5l16 90q117 0 187.5 69t90.5 194l68 376q35 201 109.5 269.5 t255.5 68.5l57 -2l-14 -80q-25 2 -43 2q-139 0 -193.5 -38.5t-79.5 -172.5z" glyph-name="braceleft" horiz-adv-x="716" unicode="{"/><glyph d="M291 -451h-84l366 2089h86z" glyph-name="bar" horiz-adv-x="655" unicode="|"/><glyph d="M496 891l73 409q25 133 -16 172t-180 39l-45 -2l12 80q33 2 59 2q180 0 230.5 -67.5t15.5 -270.5l-67 -376q-20 -125 26.5 -194t161.5 -69l-16 -90q-115 0 -185.5 -68.5t-93.5 -191.5l-65 -373q-37 -205 -111 -273.5t-254 -68.5l-59 2l14 78q27 -2 45 -2q137 0 191.5 40 t78.5 175l72 410q20 119 83.5 203t151.5 114q-165 66 -122 322z" glyph-name="braceright" horiz-adv-x="716" unicode="}"/><glyph d="M246 465q18 117 94 187.5t180 70.5q68 0 121 -35t82 -76t73 -75.5t95 -34.5q66 0 113 48t59 134h80q-16 -119 -91 -187.5t-175 -68.5q-53 0 -96.5 22.5t-72 54.5t-56 64.5t-64.5 55t-82 22.5q-70 0 -118 -48t-62 -134h-80z" glyph-name="asciitilde" horiz-adv-x="1187" unicode="~"/><glyph glyph-name="uni00A0" horiz-adv-x="563" unicode=" "/><glyph d="M428 903q-29 0 -45 20.5t-12 49t28.5 49t53 20.5t45 -20.5t12.5 -48.5q-6 -29 -29.5 -49.5t-52.5 -20.5zM360 721h70l-156 -928h-86z" glyph-name="exclamdown" horiz-adv-x="536" unicode="¡"/><glyph d="M817 1034l17 101h69l-18 -101q133 -12 226 -100t106 -221l-78 -13q-10 106 -84 178t-183 83l-159 -906q115 12 212 83t146 177l74 -12q-59 -133 -182 -220t-265 -101l-16 -101h-70l19 101q-219 16 -319.5 157.5t-59.5 368.5q41 229 191.5 370.5t373.5 155.5zM332 508 q-35 -197 46 -317.5t265 -135.5l160 906q-190 -10 -313 -131t-158 -322z" glyph-name="cent" horiz-adv-x="1253" unicode="¢"/><glyph d="M246 616l14 80h158q27 219 35 269q45 248 174 397t338 149q154 0 248 -106.5t75 -265.5l-82 -15q10 141 -61.5 225.5t-194.5 84.5q-172 0 -273.5 -131.5t-135.5 -327.5q-31 -172 -39 -279h407l-14 -80h-403q-18 -182 -41 -280q-18 -82 -51 -145.5t-55.5 -88t-31.5 -24.5 h791l-14 -78h-953l15 78q70 0 122 59.5t78.5 156.5t38.5 170t19 152h-164z" glyph-name="sterling" horiz-adv-x="1212" unicode="£"/><glyph d="M344 983l66 55l112 -137q170 133 371 133q205 0 319 -133l154 137l47 -55l-160 -135q90 -143 54 -342q-37 -203 -177 -346l113 -133l-65 -56l-111 133q-162 -129 -362 -129q-203 0 -316 129l-166 -133l-47 56l170 133q-94 139 -59 346q35 199 174 338zM369 506 q-35 -199 61 -328t286.5 -129t332 129t176.5 328q35 197 -60.5 326t-285.5 129q-193 0 -334 -129t-176 -326z" glyph-name="currency" horiz-adv-x="1409" unicode="¤"/><glyph d="M647 676l-332 758h99l323 -750l588 750h96l-596 -758h330l-12 -74h-377l-43 -237h377l-13 -72h-376l-52 -293h-86l52 293h-377l12 72h377l43 237h-377l12 74h332z" glyph-name="yen" horiz-adv-x="1234" unicode="¥"/><glyph d="M432 827l141 811h86l-143 -811h-84zM205 -451l145 811h84l-143 -811h-86z" glyph-name="brokenbar" horiz-adv-x="655" unicode="¦"/><glyph d="M516 -471q-178 0 -291.5 103.5t-118.5 285.5l89 14q-4 -154 94 -240.5t243 -86.5q135 0 254 67.5t144 202.5q16 94 -54.5 156.5t-181 99.5t-220 78t-179.5 117.5t-51 191.5q14 94 82.5 170t156.5 109q-125 96 -100 235q29 158 164 250t299 92q168 0 265 -95t106 -249 l-87 -14q-6 129 -83.5 205.5t-212.5 76.5q-123 0 -232.5 -68.5t-132.5 -195.5q-12 -68 22.5 -119t98 -84.5t142.5 -62.5t158 -60.5t141.5 -70.5t95 -101.5t18.5 -144.5q-31 -182 -232 -278q125 -96 101 -234q-31 -170 -175.5 -260t-322.5 -90zM1061 389q8 51 -10.5 92 t-53 70t-91 56.5t-111 47t-126 49t-122.5 56.5q-82 -25 -143.5 -89.5t-75.5 -148.5q-14 -80 43 -141.5t134 -92t187.5 -70.5t161.5 -68q184 102 207 239z" glyph-name="section" horiz-adv-x="1198" unicode="§"/><glyph d="M493.5 1409q4.5 27 28 45.5t50 18.5t42 -18.5t11.5 -45.5t-27 -46.5t-51 -19.5q-27 0 -42.5 19.5t-11 46.5zM788.5 1409q4.5 27 28 45.5t50 18.5t42 -18.5t11 -45.5t-27 -46.5t-48.5 -19.5q-29 0 -44.5 19.5t-11 46.5z" glyph-name="dieresis" horiz-adv-x="915" unicode="¨"/><glyph d="M1071 1454q307 0 474 -215t112 -522t-297 -522t-549 -215t-473 214t-110.5 523t296 523t547.5 214zM823.5 53q276.5 0 491.5 194.5t262 469.5q49 274 -96.5 468.5t-422 194.5t-488.5 -193.5t-261 -469.5q-49 -279 94.5 -471.5t420 -192.5zM1227 584l76 -11 q-63 -133 -180 -211.5t-255 -78.5q-180 0 -271 127t-60.5 309t168 309t317.5 127q139 0 227 -81t105 -214l-80 -10q-16 109 -86 171t-178 62q-145 0 -258 -106.5t-142 -259.5q-27 -152 48 -257.5t221 -105.5q113 0 208 65t140 165z" glyph-name="copyright" horiz-adv-x="1630" unicode="©"/><glyph d="M631 1454q113 0 174 -71.5t45 -163.5l-86 -480h-70l27 154q-106 -168 -285 -168q-104 0 -156.5 57.5t-35.5 145.5q41 233 526 239l8 47q14 76 -33 126.5t-127 50.5q-74 0 -140 -42t-91 -122l-68 8q29 96 118.5 157.5t193.5 61.5zM745 1024l15 86q-412 0 -447 -190 q-12 -66 31 -101t113 -35q111 0 191.5 79t96.5 161z" glyph-name="ordfeminine" horiz-adv-x="747" unicode="ª"/><glyph d="M276 592l383 442h89l-381 -442l225 -442h-88zM575 592l386 442h88l-379 -442l223 -442h-88z" glyph-name="guillemotleft" horiz-adv-x="1036" unicode="«"/><glyph d="M293 688l12 74h877l-76 -426h-78l62 352h-797z" glyph-name="logicalnot" horiz-adv-x="1234" unicode="¬"/><glyph d="M870.5 1454q202.5 0 314 -144.5t75 -347t-197.5 -347t-363.5 -144.5t-314.5 144.5t-77 347.5q37 203 199 347t364.5 144zM711 526q180 0 319 127t172 310q31 182 -64.5 309t-275.5 127t-323.5 -128t-174 -308.5t67 -308.5t279.5 -128zM844 901l96 -203h-63l-89 193h-122 l-33 -193h-53l90 521h168q74 0 115.5 -45.5t29.5 -116.5q-22 -115 -139 -156zM791 942q47 0 87 32t48 81q8 51 -20.5 81.5t-74.5 30.5h-116l-39 -225h115z" glyph-name="registered" horiz-adv-x="1228" unicode="®"/><glyph d="M477 1321l15 74h638l-14 -74h-639z" glyph-name="macron" horiz-adv-x="1128" unicode="¯"/><glyph d="M536.5 971q-104.5 0 -162 70.5t-40.5 168.5q18 100 100 168t186.5 68t163 -67.5t39.5 -168.5q-16 -100 -99 -169.5t-187.5 -69.5zM549 1036q76 0 135 50.5t72 123.5q14 74 -29 122t-119 48q-74 0 -132 -48t-73 -122q-12 -74 29 -124t117 -50z" glyph-name="degree" horiz-adv-x="733" unicode="°"/><glyph d="M1182 799l-13 -80h-401l-57 -318h-84l57 318h-403l14 80h401l60 336h84l-60 -336h402zM1081 221h-888l14 80h889z" glyph-name="plusminus" horiz-adv-x="1196" unicode="±"/><glyph d="M336 1305q14 63 76.5 106t136.5 43q78 0 124 -47t34 -119q-16 -94 -146 -188l-190 -139h278l-12 -64h-377l8 55l273 197q88 70 98 137q8 51 -22.5 80t-79.5 29q-45 0 -86 -26t-54 -77z" glyph-name="uni00B2" horiz-adv-x="571" unicode="²"/><glyph d="M276 1042l68 11q-8 -55 23.5 -86t87.5 -31q59 0 101 31.5t50 79.5q8 45 -21.5 76.5t-76.5 31.5h-76l10 55h74q102 0 119 86q8 43 -18.5 71t-75.5 28t-87 -28t-51 -77l-61 10q12 68 70.5 111t134.5 43t122 -42t33 -107q-8 -45 -40.5 -80t-67.5 -43q43 -12 65.5 -53.5 t12.5 -90.5q-12 -70 -77 -115.5t-151 -45.5t-133 45.5t-35 119.5z" glyph-name="uni00B3" horiz-adv-x="587" unicode="³"/><glyph d="M637 1434h92l-205 -230h-67z" glyph-name="acute" horiz-adv-x="720" unicode="´"/><glyph d="M848 1434h117l-281 -1598h-84l121 688h-33q-195 0 -303.5 130t-75.5 325q35 195 189.5 325t349.5 130zM766 -164l281 1598h83l-280 -1598h-84z" glyph-name="paragraph" horiz-adv-x="1015" unicode="¶"/><glyph d="M360 612q-31 0 -47 19.5t-10 50.5q4 29 28.5 49.5t53.5 20.5t45 -20.5t10 -49.5q-4 -31 -27.5 -50.5t-52.5 -19.5z" glyph-name="periodcentered" horiz-adv-x="503" unicode="·"/><glyph d="M268 -188l86 188h72l-70 -137q78 -10 126 -54.5t36 -115.5q-16 -86 -80.5 -125t-146.5 -39q-72 0 -125 20l20 50q45 -14 109 -15q133 0 154 113q10 59 -49.5 87t-131.5 28z" glyph-name="cedilla" horiz-adv-x="815" unicode="¸"/><glyph d="M322 1374l8 60h192l-94 -537h-66l84 477h-124z" glyph-name="uni00B9" horiz-adv-x="409" unicode="¹"/><glyph d="M647 1454q88 0 146.5 -34t80 -88t28.5 -120.5t-9 -132.5q-29 -156 -120 -265t-257 -109q-86 0 -144.5 33.5t-80 88t-28.5 121t9 131.5q27 154 119 264.5t256 110.5zM526 770q129 0 200 90t95 219q8 76 4 144.5t-53 117t-137 48.5q-127 0 -197.5 -90.5t-93.5 -219.5 q-25 -129 15 -219t167 -90z" glyph-name="ordmasculine" horiz-adv-x="782" unicode="º"/><glyph d="M741 1034l228 -442l-383 -442h-88l381 442l-226 442h88zM440 1034l230 -442l-385 -442h-88l378 442l-223 442h88z" glyph-name="guillemotright" horiz-adv-x="1036" unicode="»"/><glyph d="M10 0l1315 1454l72 -20l-1317 -1454zM258 1370l8 64h201l-98 -557h-72l88 493h-127zM1210 598h56l-70 -397h80l-10 -64h-82l-25 -137h-69l24 137h-295l12 64zM1174 481l-261 -280h211z" glyph-name="onequarter" horiz-adv-x="1363" unicode="¼"/><glyph d="M16 0l1315 1454l70 -20l-1315 -1454zM264 1370l8 64h201l-98 -557h-72l88 493h-127zM975 422q16 68 80.5 112t140.5 44q82 0 130 -49.5t34 -122.5q-16 -96 -150 -195l-194 -141h284l-12 -70h-391l10 59l279 205q92 68 104 137q8 55 -23.5 84t-80.5 29t-90 -25.5 t-56 -76.5z" glyph-name="onehalf" horiz-adv-x="1329" unicode="½"/><glyph d="M229 1028l72 12q-10 -57 22.5 -88.5t92 -31.5t101.5 31.5t52 80.5q8 47 -22.5 79t-79.5 32h-78l10 59h78q47 0 80 22.5t41 65.5q8 45 -18.5 73t-77.5 28q-49 0 -88 -28t-52 -79l-67 10q14 70 74.5 115t140.5 45q78 0 125 -44t35 -110q-8 -47 -42 -82.5t-71 -46.5 q45 -14 68.5 -55t13.5 -94q-12 -72 -78.5 -119t-157 -47t-139.5 48t-35 124zM178 0l1315 1454l72 -20l-1315 -1454zM1372 598h55l-69 -397h80l-11 -64h-81l-25 -137h-70l25 137h-295l12 64zM1335 481l-260 -280h211z" glyph-name="threequarters" horiz-adv-x="1587" unicode="¾"/><glyph d="M735.5 1036q28.5 0 45 -20.5t12.5 -48.5q-6 -29 -30 -49.5t-52.5 -20.5t-45 20.5t-12.5 49.5q4 27 29 48t53.5 21zM446 -391q-156 0 -255 102.5t-70 257.5q14 80 65.5 143.5t116 106.5t128 84t113.5 100.5t62 135.5q25 135 27 145h84q-2 -6 -14.5 -74.5t-12.5 -72.5 q-14 -88 -66.5 -156t-117 -112t-128 -85t-113.5 -95t-62 -122q-23 -123 55 -201.5t203 -78.5q115 0 210 64.5t146 174.5l76 -12q-59 -141 -182.5 -223t-264.5 -82z" glyph-name="questiondown" horiz-adv-x="1005" unicode="¿"/><glyph d="M854 1817l111 -230h-74l-135 230h98zM944 1434l285 -1434h-92l-72 377h-705l-204 -377h-93l791 1434h90zM401 455h650l-168 880z" glyph-name="Agrave" horiz-adv-x="1292" unicode="À"/><glyph d="M1073 1817h92l-204 -230h-68zM944 1434l285 -1434h-92l-72 377h-705l-204 -377h-93l791 1434h90zM401 455h650l-168 880z" glyph-name="Aacute" horiz-adv-x="1292" unicode="Á"/><glyph d="M756 1569h-74l258 258h78l168 -258h-74l-143 203zM944 1434l285 -1434h-92l-72 377h-705l-204 -377h-93l791 1434h90zM401 455h650l-168 880z" glyph-name="Acircumflex" horiz-adv-x="1292" unicode="Â"/><glyph d="M684 1671q14 90 69.5 127t110.5 37q53 0 109.5 -63.5t101.5 -63.5q80 0 96 104h56q-12 -84 -63.5 -123.5t-104.5 -39.5q-57 0 -115.5 64.5t-101.5 64.5q-35 0 -63.5 -27t-39.5 -80h-55zM944 1434l285 -1434h-92l-72 377h-705l-204 -377h-93l791 1434h90zM401 455h650 l-168 880z" glyph-name="Atilde" horiz-adv-x="1292" unicode="Ã"/><glyph d="M727 1663q4 27 27.5 45t50 18t42 -18t11.5 -45t-26.5 -46.5t-51.5 -19.5q-27 0 -42 19.5t-11 46.5zM1022 1663q4 27 27.5 45t50 18t42 -18t11.5 -45t-26.5 -46.5t-49.5 -19.5q-29 0 -44 19.5t-11 46.5zM944 1434l285 -1434h-92l-72 377h-705l-204 -377h-93l791 1434h90z M401 455h650l-168 880z" glyph-name="Adieresis" horiz-adv-x="1292" unicode="Ä"/><glyph d="M922 1559q-80 0 -128.5 53t-33.5 137q14 86 80.5 140.5t148.5 54.5t127 -54.5t31 -140.5q-14 -84 -78.5 -137t-146.5 -53zM930 1616q55 0 100 37t55.5 96t-20.5 99t-88 40q-55 0 -101.5 -40t-56.5 -99q-8 -59 23 -96t88 -37zM944 1434l285 -1434h-92l-72 377h-705 l-204 -377h-93l791 1434h90zM401 455h650l-168 880z" glyph-name="Aring" horiz-adv-x="1292" unicode="Å"/><glyph d="M156 0h-93l711 1434h846l-14 -78h-643l-107 -604h594l-12 -76h-594l-107 -598h643l-12 -78h-729l70 391h-365zM381 467h340l158 889h-62z" glyph-name="AE" horiz-adv-x="1538" unicode="Æ"/><glyph d="M803 57q174 0 321.5 82t243.5 232l84 -17q-106 -174 -269 -269t-354 -105l-59 -117q78 -10 126 -54.5t36 -115.5q-16 -86 -81 -125t-146 -39q-72 0 -125 20l20 50q45 -14 109 -15q133 0 153 113q10 59 -49 87t-131 28l78 168q-291 14 -426 223t-82 514q55 315 274 526 t525 211q201 0 339 -97t187 -278l-88 -16q-45 150 -162 231.5t-289 81.5q-270 0 -460.5 -188.5t-241.5 -470.5q-49 -283 75 -471.5t392 -188.5z" glyph-name="Ccedilla" horiz-adv-x="1501" unicode="Ç"/><glyph d="M793 1817l110 -230h-74l-135 230h99zM1243 1356h-741l-107 -604h660l-15 -76h-657l-107 -598h742l-14 -78h-826l254 1434h823z" glyph-name="Egrave" horiz-adv-x="1140" unicode="È"/><glyph d="M1010 1817h92l-205 -230h-68zM1243 1356h-741l-107 -604h660l-15 -76h-657l-107 -598h742l-14 -78h-826l254 1434h823z" glyph-name="Eacute" horiz-adv-x="1140" unicode="É"/><glyph d="M694 1569h-73l258 258h77l168 -258h-73l-144 203zM1243 1356h-741l-107 -604h660l-15 -76h-657l-107 -598h742l-14 -78h-826l254 1434h823z" glyph-name="Ecircumflex" horiz-adv-x="1140" unicode="Ê"/><glyph d="M666 1663q4 27 27.5 45t50 18t42 -18t11.5 -45t-26.5 -46.5t-51.5 -19.5q-27 0 -42 19.5t-11 46.5zM960.5 1663q4.5 27 28 45t50 18t42 -18t11 -45t-27 -46.5t-48.5 -19.5q-29 0 -44.5 19.5t-11 46.5zM1243 1356h-741l-107 -604h660l-15 -76h-657l-107 -598h742l-14 -78 h-826l254 1434h823z" glyph-name="Edieresis" horiz-adv-x="1140" unicode="Ë"/><glyph d="M420 1761l110 -229h-73l-135 229h98zM264 0h-86l254 1434h84z" glyph-name="Igrave" horiz-adv-x="442" unicode="Ì"/><glyph d="M637 1761h92l-205 -229h-67zM264 0h-86l254 1434h84z" glyph-name="Iacute" horiz-adv-x="442" unicode="Í"/><glyph d="M319 1511h-73l258 258h78l168 -258h-74l-144 203zM264 0h-86l254 1434h84z" glyph-name="Icircumflex" horiz-adv-x="442" unicode="Î"/><glyph d="M291 1605.5q4 26.5 27.5 45t50 18.5t42 -18.5t11.5 -45t-26.5 -46t-51.5 -19.5q-27 0 -42 19.5t-11 46zM586 1605.5q4 26.5 27.5 45t50 18.5t42 -18.5t11.5 -45t-26.5 -46t-49.5 -19.5q-29 0 -44 19.5t-11 46zM264 0h-86l254 1434h84z" glyph-name="Idieresis" horiz-adv-x="442" unicode="Ï"/><glyph d="M971 1434q338 0 495.5 -185.5t100.5 -509.5q-57 -336 -292 -537.5t-556 -201.5h-416l146 819h-240l14 80h240l94 535h414zM784 819h-252l-131 -741h342q266 0 476.5 179t263.5 482q51 291 -90.5 454t-423.5 163h-342l-80 -457h252z" glyph-name="Eth" horiz-adv-x="1566" unicode="Ð"/><glyph d="M735 1671q14 90 69.5 127t110.5 37q53 0 109.5 -63.5t101.5 -63.5q78 0 97 104h55q-12 -84 -63.5 -123.5t-104.5 -39.5q-57 0 -115.5 64.5t-101.5 64.5q-35 0 -63.5 -27t-38.5 -80h-56zM1395 1434h86l-254 -1434h-86l-649 1292l-228 -1292h-86l254 1434h86l649 -1291z " glyph-name="Ntilde" horiz-adv-x="1406" unicode="Ñ"/><glyph d="M1026 1837l111 -229h-74l-135 229h98zM1075 1454q303 0 460 -215t101 -522q-55 -309 -286.5 -523t-534.5 -214q-203 0 -345 100t-198.5 268t-19.5 369q55 309 285.5 523t537.5 214zM827.5 57q268.5 0 472 191.5t253 468t-87 468t-404.5 191.5t-471 -191.5t-254 -467.5 q-49 -276 87 -468t404.5 -192z" glyph-name="Ograve" horiz-adv-x="1636" unicode="Ò"/><glyph d="M1243 1837h92l-205 -229h-67zM1075 1454q303 0 460 -215t101 -522q-55 -309 -286.5 -523t-534.5 -214q-203 0 -345 100t-198.5 268t-19.5 369q55 309 285.5 523t537.5 214zM827.5 57q268.5 0 472 191.5t253 468t-87 468t-404.5 191.5t-471 -191.5t-254 -467.5 q-49 -276 87 -468t404.5 -192z" glyph-name="Oacute" horiz-adv-x="1636" unicode="Ó"/><glyph d="M926 1589h-74l258 258h78l168 -258h-74l-143 203zM1075 1454q303 0 460 -215t101 -522q-55 -309 -286.5 -523t-534.5 -214q-203 0 -345 100t-198.5 268t-19.5 369q55 309 285.5 523t537.5 214zM827.5 57q268.5 0 472 191.5t253 468t-87 468t-404.5 191.5t-471 -191.5 t-254 -467.5q-49 -276 87 -468t404.5 -192z" glyph-name="Ocircumflex" horiz-adv-x="1636" unicode="Ô"/><glyph d="M856 1692q14 90 69.5 126.5t110.5 36.5q53 0 109.5 -63t101.5 -63q80 0 96 104h56q-12 -84 -63.5 -124t-104.5 -40q-57 0 -115.5 64.5t-101.5 64.5q-35 0 -63.5 -26.5t-39.5 -79.5h-55zM1075 1454q303 0 460 -215t101 -522q-55 -309 -286.5 -523t-534.5 -214 q-203 0 -345 100t-198.5 268t-19.5 369q55 309 285.5 523t537.5 214zM827.5 57q268.5 0 472 191.5t253 468t-87 468t-404.5 191.5t-471 -191.5t-254 -467.5q-49 -276 87 -468t404.5 -192z" glyph-name="Otilde" horiz-adv-x="1636" unicode="Õ"/><glyph d="M899 1683.5q4 26.5 27.5 45t50.5 18.5t42 -18.5t11 -45t-26.5 -46t-51.5 -19.5q-27 0 -42 19.5t-11 46zM1194 1683.5q4 26.5 27.5 45t50 18.5t42 -18.5t11.5 -45t-26.5 -46t-49.5 -19.5q-29 0 -44 19.5t-11 46zM1075 1454q303 0 460 -215t101 -522q-55 -309 -286.5 -523 t-534.5 -214q-203 0 -345 100t-198.5 268t-19.5 369q55 309 285.5 523t537.5 214zM827.5 57q268.5 0 472 191.5t253 468t-87 468t-404.5 191.5t-471 -191.5t-254 -467.5q-49 -276 87 -468t404.5 -192z" glyph-name="Odieresis" horiz-adv-x="1636" unicode="Ö"/><glyph d="M317 268l-49 58l344 290l-239 291l67 60l240 -291l342 291l49 -60l-344 -291l240 -290l-68 -58l-240 293z" glyph-name="multiply" horiz-adv-x="1122" unicode="×"/><glyph d="M248 717q53 305 284.5 521t536.5 216q94 0 178 -24l68 137l76 -15l-72 -147q184 -84 269 -270.5t44 -417.5q-55 -307 -288.5 -522t-534.5 -215q-80 0 -178 24l-64 -129l-75 14l69 140q-182 84 -267 271.5t-46 416.5zM598 102l612 1254q-80 20 -161 20q-270 0 -473 -203.5 t-244 -463.5q-31 -195 33.5 -359t232.5 -248zM1280 1329l-612 -1251q80 -20 161 -21q268 0 471 200t248 468q31 184 -36.5 353t-231.5 251z" glyph-name="Oslash" horiz-adv-x="1628" unicode="Ø"/><glyph d="M877 1817l110 -230h-74l-135 230h99zM1329 1434h84l-156 -883q-45 -248 -197.5 -409.5t-392 -161.5t-338 161.5t-53.5 409.5l156 883h84l-158 -893q-37 -205 39 -344.5t283 -139.5t331 140.5t160 343.5z" glyph-name="Ugrave" horiz-adv-x="1339" unicode="Ù"/><glyph d="M1094 1817h92l-205 -230h-68zM1329 1434h84l-156 -883q-45 -248 -197.5 -409.5t-392 -161.5t-338 161.5t-53.5 409.5l156 883h84l-158 -893q-37 -205 39 -344.5t283 -139.5t331 140.5t160 343.5z" glyph-name="Uacute" horiz-adv-x="1339" unicode="Ú"/><glyph d="M778 1569h-73l258 258h77l168 -258h-73l-144 203zM1329 1434h84l-156 -883q-45 -248 -197.5 -409.5t-392 -161.5t-338 161.5t-53.5 409.5l156 883h84l-158 -893q-37 -205 39 -344.5t283 -139.5t331 140.5t160 343.5z" glyph-name="Ucircumflex" horiz-adv-x="1339" unicode="Û"/><glyph d="M749.5 1663q4.5 27 28 45t50 18t42 -18t11.5 -45t-27 -46.5t-51 -19.5q-27 0 -42.5 19.5t-11 46.5zM1044.5 1663q4.5 27 28 45t50 18t42 -18t11 -45t-27 -46.5t-48.5 -19.5q-29 0 -44.5 19.5t-11 46.5zM1329 1434h84l-156 -883q-45 -248 -197.5 -409.5t-392 -161.5 t-338 161.5t-53.5 409.5l156 883h84l-158 -893q-37 -205 39 -344.5t283 -139.5t331 140.5t160 343.5z" glyph-name="Udieresis" horiz-adv-x="1339" unicode="Ü"/><glyph d="M1042 1817h93l-205 -230h-68zM1327 1434h96l-661 -848l-103 -586h-86l105 586l-361 848h95l323 -764z" glyph-name="Yacute" horiz-adv-x="1234" unicode="Ý"/><glyph d="M178 0l254 1434h80l-53 -299h266q197 0 307.5 -120t77.5 -298q-33 -180 -185.5 -299t-346.5 -119h-267l-53 -299h-80zM324 373h266q160 0 285.5 98t152.5 243.5t-65.5 246t-249.5 100.5h-267z" glyph-name="Thorn" horiz-adv-x="1122" unicode="Þ"/><glyph d="M367 1073q31 172 166 276.5t300.5 104.5t266 -103.5t71.5 -275.5q-18 -104 -108 -194t-193 -119q115 -29 190 -128t52 -226q-33 -193 -193.5 -300.5t-363.5 -107.5h-113l13 74h112q172 0 304.5 88t160.5 244q25 139 -76.5 227t-246.5 88h-105l12 74h111q123 0 232.5 79.5 t132.5 196.5q23 137 -57.5 223t-219.5 86q-137 0 -241.5 -93t-129.5 -232l-186 -1055h-80z" glyph-name="germandbls" horiz-adv-x="1161" unicode="ß"/><glyph d="M651 1419l111 -229h-74l-135 229h98zM735 1036q166 0 254 -99t58 -267l-119 -670h-78l47 268q-61 -123 -180 -205.5t-268 -82.5q-141 0 -227.5 80.5t-61.5 222.5q10 57 37.5 103t59.5 80t88 60.5t96 43t113 28.5t109.5 17.5t112.5 8.5t97.5 4t87.5 1l6 43q25 137 -47 215 t-201 78q-121 0 -227.5 -70t-145.5 -186l-76 10q51 145 182 231t283 86zM932 467l16 94q-346 0 -508 -65q-178 -70 -202 -215q-18 -109 52 -169.5t185 -60.5q166 0 297 125t160 291z" glyph-name="agrave" horiz-adv-x="1079" unicode="à"/><glyph d="M870 1419h93l-205 -229h-68zM735 1036q166 0 254 -99t58 -267l-119 -670h-78l47 268q-61 -123 -180 -205.5t-268 -82.5q-141 0 -227.5 80.5t-61.5 222.5q10 57 37.5 103t59.5 80t88 60.5t96 43t113 28.5t109.5 17.5t112.5 8.5t97.5 4t87.5 1l6 43q25 137 -47 215t-201 78 q-121 0 -227.5 -70t-145.5 -186l-76 10q51 145 182 231t283 86zM932 467l16 94q-346 0 -508 -65q-178 -70 -202 -215q-18 -109 52 -169.5t185 -60.5q166 0 297 125t160 291z" glyph-name="aacute" horiz-adv-x="1079" unicode="á"/><glyph d="M553 1171h-74l258 259h78l168 -259h-74l-143 203zM735 1036q166 0 254 -99t58 -267l-119 -670h-78l47 268q-61 -123 -180 -205.5t-268 -82.5q-141 0 -227.5 80.5t-61.5 222.5q10 57 37.5 103t59.5 80t88 60.5t96 43t113 28.5t109.5 17.5t112.5 8.5t97.5 4t87.5 1l6 43 q25 137 -47 215t-201 78q-121 0 -227.5 -70t-145.5 -186l-76 10q51 145 182 231t283 86zM932 467l16 94q-346 0 -508 -65q-178 -70 -202 -215q-18 -109 52 -169.5t185 -60.5q166 0 297 125t160 291z" glyph-name="acircumflex" horiz-adv-x="1079" unicode="â"/><glyph d="M481 1274q14 90 69.5 127t111.5 37q53 0 109 -63.5t101 -63.5q78 0 97 104h55q-12 -84 -63.5 -124t-104.5 -40q-57 0 -115.5 64.5t-101.5 64.5q-35 0 -63.5 -26.5t-38.5 -79.5h-56zM735 1036q166 0 254 -99t58 -267l-119 -670h-78l47 268q-61 -123 -180 -205.5 t-268 -82.5q-141 0 -227.5 80.5t-61.5 222.5q10 57 37.5 103t59.5 80t88 60.5t96 43t113 28.5t109.5 17.5t112.5 8.5t97.5 4t87.5 1l6 43q25 137 -47 215t-201 78q-121 0 -227.5 -70t-145.5 -186l-76 10q51 145 182 231t283 86zM932 467l16 94q-346 0 -508 -65 q-178 -70 -202 -215q-18 -109 52 -169.5t185 -60.5q166 0 297 125t160 291z" glyph-name="atilde" horiz-adv-x="1079" unicode="ã"/><glyph d="M524 1265.5q4 26.5 27.5 45t50.5 18.5t42 -18.5t11 -45t-26.5 -46t-50.5 -19.5q-27 0 -42.5 19.5t-11.5 46zM819 1265.5q4 26.5 27.5 45t50.5 18.5t42 -18.5t11 -45t-26.5 -46t-49.5 -19.5q-29 0 -44 19.5t-11 46zM735 1036q166 0 254 -99t58 -267l-119 -670h-78l47 268 q-61 -123 -180 -205.5t-268 -82.5q-141 0 -227.5 80.5t-61.5 222.5q10 57 37.5 103t59.5 80t88 60.5t96 43t113 28.5t109.5 17.5t112.5 8.5t97.5 4t87.5 1l6 43q25 137 -47 215t-201 78q-121 0 -227.5 -70t-145.5 -186l-76 10q51 145 182 231t283 86zM932 467l16 94 q-346 0 -508 -65q-178 -70 -202 -215q-18 -109 52 -169.5t185 -60.5q166 0 297 125t160 291z" glyph-name="adieresis" horiz-adv-x="1079" unicode="ä"/><glyph d="M719 1161q-80 0 -128 53.5t-34 137.5q14 86 81 140t148.5 54t126.5 -54t31 -140q-14 -84 -78.5 -137.5t-146.5 -53.5zM727 1219q55 0 100 36.5t55.5 96t-20.5 99.5t-88 40q-55 0 -101 -40t-57 -99q-8 -59 23 -96t88 -37zM735 1036q166 0 254 -99t58 -267l-119 -670h-78 l47 268q-61 -123 -180 -205.5t-268 -82.5q-141 0 -227.5 80.5t-61.5 222.5q10 57 37.5 103t59.5 80t88 60.5t96 43t113 28.5t109.5 17.5t112.5 8.5t97.5 4t87.5 1l6 43q25 137 -47 215t-201 78q-121 0 -227.5 -70t-145.5 -186l-76 10q51 145 182 231t283 86zM932 467l16 94 q-346 0 -508 -65q-178 -70 -202 -215q-18 -109 52 -169.5t185 -60.5q166 0 297 125t160 291z" glyph-name="aring" horiz-adv-x="1079" unicode="å"/><glyph d="M154 276q14 76 62 134.5t129 92.5t152.5 54.5t179 29.5t160 11t140.5 2q68 365 -252 365q-123 0 -231.5 -70t-147.5 -186l-74 12q49 143 183.5 229t285.5 86q143 0 233.5 -79.5t82.5 -215.5q72 133 200.5 214t270.5 81q209 0 309 -139t64 -348q4 -4 -5 -19h-858 q-37 -217 50.5 -347t265.5 -130q119 0 226.5 63.5t176.5 178.5l76 -14q-188 -301 -487 -301q-188 0 -281.5 113.5t-91.5 254.5q-68 -158 -204 -263t-308 -105q-152 0 -241 78.5t-66 217.5zM1513 965q-158 0 -284.5 -106.5t-173.5 -258.5h776q20 162 -72 263.5t-246 101.5z M233 276q-20 -113 56 -169t196 -56q170 2 306.5 133t164.5 297l9 49h-94t-116 -5t-137.5 -13t-129 -26.5t-122 -45t-85.5 -69t-48 -95.5z" glyph-name="ae" horiz-adv-x="1906" unicode="æ"/><glyph d="M608 53q123 0 233.5 72t166.5 190l73 -12q-61 -137 -187 -225t-269 -98l-66 -127q78 -10 126 -54.5t36 -115.5q-16 -86 -81 -125t-146 -39q-72 0 -125 20l20 49q45 -14 109 -14q133 0 153 113q10 59 -49 86.5t-131 27.5l82 181q-205 14 -302 161.5t-61 364.5 q41 227 204 377.5t386 150.5q147 0 253 -90t120 -233l-78 -13q-14 117 -99 190t-208 73q-195 0 -328 -127t-170 -328q-35 -201 54 -328t284 -127z" glyph-name="ccedilla" unicode="ç"/><glyph d="M727 1419l111 -229h-74l-135 229h98zM1163 498q-4 0 -4 -19h-895q-27 -186 67.5 -307t276.5 -121q127 0 237.5 63.5t180.5 180.5l76 -14q-190 -301 -500 -301q-225 0 -338.5 147t-73.5 377q39 225 204 378.5t384 153.5q223 0 323.5 -152.5t61.5 -385.5zM281 549h811 q25 186 -64.5 302t-261.5 116t-307 -118t-178 -300z" glyph-name="egrave" horiz-adv-x="1175" unicode="è"/><glyph d="M944 1419h92l-205 -229h-67zM1163 498q-4 0 -4 -19h-895q-27 -186 67.5 -307t276.5 -121q127 0 237.5 63.5t180.5 180.5l76 -14q-190 -301 -500 -301q-225 0 -338.5 147t-73.5 377q39 225 204 378.5t384 153.5q223 0 323.5 -152.5t61.5 -385.5zM281 549h811 q25 186 -64.5 302t-261.5 116t-307 -118t-178 -300z" glyph-name="eacute" horiz-adv-x="1175" unicode="é"/><glyph d="M627 1171h-74l258 259h78l168 -259h-74l-143 203zM1163 498q-4 0 -4 -19h-895q-27 -186 67.5 -307t276.5 -121q127 0 237.5 63.5t180.5 180.5l76 -14q-190 -301 -500 -301q-225 0 -338.5 147t-73.5 377q39 225 204 378.5t384 153.5q223 0 323.5 -152.5t61.5 -385.5z M281 549h811q25 186 -64.5 302t-261.5 116t-307 -118t-178 -300z" glyph-name="ecircumflex" horiz-adv-x="1175" unicode="ê"/><glyph d="M598 1265.5q4 26.5 27.5 45t50 18.5t42 -18.5t11.5 -45t-26.5 -46t-51.5 -19.5q-27 0 -42 19.5t-11 46zM893 1265.5q4 26.5 27.5 45t50 18.5t42 -18.5t11.5 -45t-26.5 -46t-49.5 -19.5q-29 0 -44 19.5t-11 46zM1163 498q-4 0 -4 -19h-895q-27 -186 67.5 -307t276.5 -121 q127 0 237.5 63.5t180.5 180.5l76 -14q-190 -301 -500 -301q-225 0 -338.5 147t-73.5 377q39 225 204 378.5t384 153.5q223 0 323.5 -152.5t61.5 -385.5zM281 549h811q25 186 -64.5 302t-261.5 116t-307 -118t-178 -300z" glyph-name="edieresis" horiz-adv-x="1175" unicode="ë"/><glyph d="M334 1399l110 -230h-73l-135 230h98zM240 0h-78l180 1016h78z" glyph-name="igrave" horiz-adv-x="403" unicode="ì"/><glyph d="M553 1399h92l-205 -230h-67zM240 0h-78l180 1016h78z" glyph-name="iacute" horiz-adv-x="403" unicode="í"/><glyph d="M236 1151h-74l258 258h78l168 -258h-74l-143 203zM240 0h-78l180 1016h78z" glyph-name="icircumflex" horiz-adv-x="403" unicode="î"/><glyph d="M207 1245.5q4 26.5 27.5 45t50 18.5t42 -18.5t11.5 -45t-26.5 -46t-51.5 -19.5q-27 0 -42 19.5t-11 46zM502 1245.5q4 26.5 27.5 45t50 18.5t42 -18.5t11.5 -45t-26.5 -46t-49.5 -19.5q-29 0 -44 19.5t-11 46zM240 0h-78l180 1016h78z" glyph-name="idieresis" horiz-adv-x="403" unicode="ï"/><glyph d="M606 -20q-209 0 -323.5 143t-75.5 366q39 221 203.5 369t371.5 148q147 0 243.5 -77t127.5 -192q41 350 -117 516l-243 -143l-15 66l207 120q-115 88 -303 88l27 70q211 0 348 -115l203 117l14 -65l-170 -99q190 -209 115 -641l-13 -73q-49 -276 -215 -437t-385 -161z M774 930q-174 0 -312 -127t-173 -311q-33 -188 61 -312.5t271 -124.5q174 0 313 125t172 314q35 193 -61.5 314.5t-270.5 121.5z" glyph-name="eth" horiz-adv-x="1224" unicode="ð"/><glyph d="M561 1274q14 90 69.5 127t110.5 37q53 0 109.5 -63.5t101.5 -63.5q80 0 97 104h55q-12 -84 -63.5 -124t-104.5 -40q-57 0 -115.5 64.5t-101.5 64.5q-35 0 -63.5 -26.5t-39.5 -79.5h-55zM795 1036q162 0 243.5 -102.5t53.5 -265.5l-117 -668h-80l117 657q25 135 -39 220.5 t-201 85.5q-172 0 -294 -133.5t-154 -315.5l-91 -514h-79l180 1016h78l-45 -266q70 131 181.5 208.5t246.5 77.5z" glyph-name="ntilde" unicode="ñ"/><glyph d="M750 1419l110 -229h-74l-135 229h99zM797 1036q223 0 336.5 -151.5t72.5 -376.5q-39 -225 -205.5 -376.5t-390.5 -151.5q-227 0 -342.5 151.5t-77.5 376.5q41 225 210.5 376.5t396.5 151.5zM621 53q188 0 329.5 128t176 327t-61.5 327t-284.5 128t-331 -128t-177.5 -327 q-35 -201 62 -328t287 -127z" glyph-name="ograve" horiz-adv-x="1218" unicode="ò"/><glyph d="M967 1419h92l-205 -229h-68zM797 1036q223 0 336.5 -151.5t72.5 -376.5q-39 -225 -205.5 -376.5t-390.5 -151.5q-227 0 -342.5 151.5t-77.5 376.5q41 225 210.5 376.5t396.5 151.5zM621 53q188 0 329.5 128t176 327t-61.5 327t-284.5 128t-331 -128t-177.5 -327 q-35 -201 62 -328t287 -127z" glyph-name="oacute" horiz-adv-x="1218" unicode="ó"/><glyph d="M649 1171h-74l259 259h77l168 -259h-73l-144 203zM797 1036q223 0 336.5 -151.5t72.5 -376.5q-39 -225 -205.5 -376.5t-390.5 -151.5q-227 0 -342.5 151.5t-77.5 376.5q41 225 210.5 376.5t396.5 151.5zM621 53q188 0 329.5 128t176 327t-61.5 327t-284.5 128t-331 -128 t-177.5 -327q-35 -201 62 -328t287 -127z" glyph-name="ocircumflex" horiz-adv-x="1218" unicode="ô"/><glyph d="M578 1274q14 90 69 127t111 37q53 0 109.5 -63.5t101.5 -63.5q80 0 96 104h55q-12 -84 -63 -124t-105 -40q-57 0 -115.5 64.5t-101.5 64.5q-35 0 -63.5 -26.5t-38.5 -79.5h-55zM797 1036q223 0 336.5 -151.5t72.5 -376.5q-39 -225 -205.5 -376.5t-390.5 -151.5 q-227 0 -342.5 151.5t-77.5 376.5q41 225 210.5 376.5t396.5 151.5zM621 53q188 0 329.5 128t176 327t-61.5 327t-284.5 128t-331 -128t-177.5 -327q-35 -201 62 -328t287 -127z" glyph-name="otilde" horiz-adv-x="1218" unicode="õ"/><glyph d="M620.5 1265.5q4.5 26.5 28 45t50 18.5t42 -18.5t11.5 -45t-27 -46t-51 -19.5q-27 0 -42.5 19.5t-11 46zM915.5 1265.5q4.5 26.5 28 45t50 18.5t42 -18.5t11 -45t-27 -46t-48.5 -19.5q-29 0 -44.5 19.5t-11 46zM797 1036q223 0 336.5 -151.5t72.5 -376.5 q-39 -225 -205.5 -376.5t-390.5 -151.5q-227 0 -342.5 151.5t-77.5 376.5q41 225 210.5 376.5t396.5 151.5zM621 53q188 0 329.5 128t176 327t-61.5 327t-284.5 128t-331 -128t-177.5 -327q-35 -201 62 -328t287 -127z" glyph-name="odieresis" horiz-adv-x="1218" unicode="ö"/><glyph d="M704.5 881q-28.5 0 -45 20.5t-12.5 49t28.5 49t53.5 20.5t45.5 -20.5t11.5 -49.5q-6 -29 -29.5 -49t-52 -20zM1030 586h-756l15 80h755zM589.5 229q-28.5 0 -45 19.5t-12 48.5t29 49.5t53 20.5t45 -20.5t10.5 -49.5q-4 -27 -28 -47.5t-52.5 -20.5z" glyph-name="divide" horiz-adv-x="1097" unicode="÷"/><glyph d="M379 37q-115 68 -163 191.5t-23 265.5q43 240 214 391t394 151q92 0 166 -28l80 133l71 -13l-88 -147q117 -68 165 -192.5t24 -266.5q-39 -223 -205 -382.5t-385 -159.5q-111 0 -187 28l-73 -125l-76 13zM422 106l504 834q-51 20 -127 25q-201 8 -346.5 -131.5 t-180.5 -348.5q-6 -43 -6 -86q0 -88 42 -169t114 -124zM989 911l-504 -835q49 -20 129 -25q203 -8 348.5 133.5t174.5 345.5q4 31 8 84q-4 197 -156 297z" glyph-name="oslash" horiz-adv-x="1230" unicode="ø"/><glyph d="M721 1399l110 -230h-73l-135 230h98zM508 -20q-160 0 -243 102t-54 266l119 668h78l-115 -658q-25 -133 39.5 -219t197.5 -86q172 0 294 133t155 316l90 514h80l-180 -1016h-78l47 266q-70 -131 -182.5 -208.5t-247.5 -77.5z" glyph-name="ugrave" unicode="ù"/><glyph d="M938 1399h92l-205 -230h-67zM508 -20q-160 0 -243 102t-54 266l119 668h78l-115 -658q-25 -133 39.5 -219t197.5 -86q172 0 294 133t155 316l90 514h80l-180 -1016h-78l47 266q-70 -131 -182.5 -208.5t-247.5 -77.5z" glyph-name="uacute" unicode="ú"/><glyph d="M621 1151h-74l258 258h78l168 -258h-74l-143 203zM508 -20q-160 0 -243 102t-54 266l119 668h78l-115 -658q-25 -133 39.5 -219t197.5 -86q172 0 294 133t155 316l90 514h80l-180 -1016h-78l47 266q-70 -131 -182.5 -208.5t-247.5 -77.5z" glyph-name="ucircumflex" unicode="û"/><glyph d="M594 1245.5q4 26.5 27.5 45t50 18.5t42 -18.5t11.5 -45t-26.5 -46t-51.5 -19.5q-27 0 -42 19.5t-11 46zM889 1245.5q4 26.5 27.5 45t50 18.5t42 -18.5t11.5 -45t-26.5 -46t-49.5 -19.5q-29 0 -44 19.5t-11 46zM508 -20q-160 0 -243 102t-54 266l119 668h78l-115 -658 q-25 -133 39.5 -219t197.5 -86q172 0 294 133t155 316l90 514h80l-180 -1016h-78l47 266q-70 -131 -182.5 -208.5t-247.5 -77.5z" glyph-name="udieresis" unicode="ü"/><glyph d="M852 1399h92l-205 -230h-67zM1034 1016h84l-813 -1467h-84l266 476l-243 991h84l213 -899z" glyph-name="yacute" horiz-adv-x="1003" unicode="ý"/><glyph d="M82 -451l340 1926h80l-125 -711q76 131 203 201.5t258 70.5q215 0 324.5 -153.5t70.5 -376.5t-203 -374.5t-379 -151.5q-133 0 -232.5 69.5t-131.5 202.5l-125 -703h-80zM332 508q-35 -195 50 -325t273 -130q190 0 326.5 128t171.5 324.5t-55 327t-278.5 130.5 t-321.5 -130t-166 -325z" glyph-name="thorn" horiz-adv-x="1245" unicode="þ"/><glyph d="M506 1245.5q4 26.5 27.5 45t50 18.5t42 -18.5t11.5 -45t-26.5 -46t-51.5 -19.5q-27 0 -42 19.5t-11 46zM801 1245.5q4 26.5 27.5 45t50 18.5t42 -18.5t11.5 -45t-26.5 -46t-49.5 -19.5q-29 0 -44 19.5t-11 46zM1034 1016h84l-813 -1467h-84l266 476l-243 991h84l213 -899 z" glyph-name="ydieresis" horiz-adv-x="1003" unicode="ÿ"/><glyph d="M608 1587l15 74h639l-15 -74h-639zM944 1434l285 -1434h-92l-72 377h-705l-204 -377h-93l791 1434h90zM401 455h650l-168 880z" glyph-name="Amacron" horiz-adv-x="1292" unicode="Ā"/><glyph d="M403 1190l15 74h639l-15 -74h-639zM735 1036q166 0 254 -99t58 -267l-119 -670h-78l47 268q-61 -123 -180 -205.5t-268 -82.5q-141 0 -227.5 80.5t-61.5 222.5q10 57 37.5 103t59.5 80t88 60.5t96 43t113 28.5t109.5 17.5t112.5 8.5t97.5 4t87.5 1l6 43q25 137 -47 215 t-201 78q-121 0 -227.5 -70t-145.5 -186l-76 10q51 145 182 231t283 86zM932 467l16 94q-346 0 -508 -65q-178 -70 -202 -215q-18 -109 52 -169.5t185 -60.5q166 0 297 125t160 291z" glyph-name="amacron" horiz-adv-x="1079" unicode="ā"/><glyph d="M1118 1808h76q-18 -104 -93 -169.5t-177 -65.5q-104 0 -155.5 65.5t-33.5 169.5h76q-12 -72 18.5 -120t104.5 -48t123 48t61 120zM944 1434l285 -1434h-92l-72 377h-705l-204 -377h-93l791 1434h90zM401 455h650l-168 880z" glyph-name="Abreve" horiz-adv-x="1292" unicode="Ă"/><glyph d="M918 1411h75q-18 -104 -93 -169.5t-177 -65.5q-104 0 -155.5 65.5t-32.5 169.5h75q-12 -72 18.5 -120t104.5 -48t123.5 48t61.5 120zM735 1036q166 0 254 -99t58 -267l-119 -670h-78l47 268q-61 -123 -180 -205.5t-268 -82.5q-141 0 -227.5 80.5t-61.5 222.5 q10 57 37.5 103t59.5 80t88 60.5t96 43t113 28.5t109.5 17.5t112.5 8.5t97.5 4t87.5 1l6 43q25 137 -47 215t-201 78q-121 0 -227.5 -70t-145.5 -186l-76 10q51 145 182 231t283 86zM932 467l16 94q-346 0 -508 -65q-178 -70 -202 -215q-18 -109 52 -169.5t185 -60.5 q166 0 297 125t160 291z" glyph-name="abreve" horiz-adv-x="1079" unicode="ă"/><glyph d="M944 1434l285 -1434q-240 -106 -264 -240q-8 -53 23.5 -89t111.5 -33q59 0 100 22l8 -68q-43 -29 -137 -28q-109 0 -158 48t-34 134q27 152 256 266l-70 365h-705l-204 -377h-93l791 1434h90zM401 455h650l-168 880z" glyph-name="Aogonek" horiz-adv-x="1292" unicode="Ą"/><glyph d="M735 1036q166 0 254 -99t58 -267l-119 -670q-240 -106 -264 -240q-8 -53 23.5 -89t111.5 -33q59 0 100 22l8 -68q-43 -29 -137 -28q-109 0 -158 48t-34 134q33 162 276 277l43 245q-61 -123 -180 -205.5t-268 -82.5q-141 0 -227.5 80.5t-61.5 222.5q10 57 37.5 103 t59.5 80t88 60.5t96 43t113 28.5t109.5 17.5t112.5 8.5t97.5 4t87.5 1l6 43q25 137 -47 215t-201 78q-121 0 -227.5 -70t-145.5 -186l-76 10q51 145 182 231t283 86zM932 467l16 94q-346 0 -508 -65q-178 -70 -202 -215q-18 -109 52 -169.5t185 -60.5q166 0 297 125t160 291 z" glyph-name="aogonek" horiz-adv-x="1079" unicode="ą"/><glyph d="M1221 1837h92l-205 -229h-68zM803 57q174 0 321.5 82t243.5 232l84 -17q-113 -182 -285 -278t-372 -96q-309 0 -453.5 210.5t-89.5 526t274 526.5t525 211q201 0 339 -97t187 -278l-88 -16q-45 150 -162 231.5t-289 81.5q-270 0 -460.5 -188.5t-241.5 -470.5 q-49 -283 75 -471.5t392 -188.5z" glyph-name="Cacute" horiz-adv-x="1501" unicode="Ć"/><glyph d="M922 1419h92l-205 -229h-68zM608 53q123 0 233.5 72t166.5 190l73 -12q-66 -145 -201 -234t-286 -89q-223 0 -332.5 150.5t-71.5 377.5q41 227 204 377.5t386 150.5q147 0 253 -90t120 -233l-78 -13q-14 117 -99 190t-208 73q-195 0 -328 -127t-170 -328 q-35 -201 54 -328t284 -127z" glyph-name="cacute" unicode="ć"/><glyph d="M903 1589h-74l258 258h78l168 -258h-73l-144 203zM803 57q174 0 321.5 82t243.5 232l84 -17q-113 -182 -285 -278t-372 -96q-309 0 -453.5 210.5t-89.5 526t274 526.5t525 211q201 0 339 -97t187 -278l-88 -16q-45 150 -162 231.5t-289 81.5q-270 0 -460.5 -188.5 t-241.5 -470.5q-49 -283 75 -471.5t392 -188.5z" glyph-name="Ccircumflex" horiz-adv-x="1501" unicode="Ĉ"/><glyph d="M604 1171h-74l258 259h78l168 -259h-73l-144 203zM608 53q123 0 233.5 72t166.5 190l73 -12q-66 -145 -201 -234t-286 -89q-223 0 -332.5 150.5t-71.5 377.5q41 227 204 377.5t386 150.5q147 0 253 -90t120 -233l-78 -13q-14 117 -99 190t-208 73q-195 0 -328 -127 t-170 -328q-35 -201 54 -328t284 -127z" glyph-name="ccircumflex" unicode="ĉ"/><glyph d="M1073.5 1589q-26.5 0 -43 19.5t-12.5 46t26.5 46t51 19.5t44 -19.5t11.5 -46t-27.5 -46t-50 -19.5zM803 57q174 0 321.5 82t243.5 232l84 -17q-113 -182 -285 -278t-372 -96q-309 0 -453.5 210.5t-89.5 526t274 526.5t525 211q201 0 339 -97t187 -278l-88 -16 q-45 150 -162 231.5t-289 81.5q-270 0 -460.5 -188.5t-241.5 -470.5q-49 -283 75 -471.5t392 -188.5z" glyph-name="Cdotaccent" horiz-adv-x="1501" unicode="Ċ"/><glyph d="M772 1171q-27 0 -43 19.5t-12 46.5t26.5 46.5t51 19.5t44 -19.5t11.5 -46.5t-27.5 -46.5t-50.5 -19.5zM608 53q123 0 233.5 72t166.5 190l73 -12q-66 -145 -201 -234t-286 -89q-223 0 -332.5 150.5t-71.5 377.5q41 227 204 377.5t386 150.5q147 0 253 -90t120 -233 l-78 -13q-14 117 -99 190t-208 73q-195 0 -328 -127t-170 -328q-35 -201 54 -328t284 -127z" glyph-name="cdotaccent" unicode="ċ"/><glyph d="M872 1878h74l144 -203l213 203h73l-260 -258h-76zM803 57q174 0 321.5 82t243.5 232l84 -17q-113 -182 -285 -278t-372 -96q-309 0 -453.5 210.5t-89.5 526t274 526.5t525 211q201 0 339 -97t187 -278l-88 -16q-45 150 -162 231.5t-289 81.5q-270 0 -460.5 -188.5 t-241.5 -470.5q-49 -283 75 -471.5t392 -188.5z" glyph-name="Ccaron" horiz-adv-x="1501" unicode="Č"/><glyph d="M573 1460h74l144 -203l213 203h73l-260 -258h-76zM608 53q123 0 233.5 72t166.5 190l73 -12q-66 -145 -201 -234t-286 -89q-223 0 -332.5 150.5t-71.5 377.5q41 227 204 377.5t386 150.5q147 0 253 -90t120 -233l-78 -13q-14 117 -99 190t-208 73q-195 0 -328 -127 t-170 -328q-35 -201 54 -328t284 -127z" glyph-name="ccaron" unicode="č"/><glyph d="M700 1862h74l144 -203l212 203h74l-260 -258h-76zM846 1434q338 0 495.5 -185.5t100.5 -509.5q-57 -336 -292 -537.5t-556 -201.5h-416l254 1434h414zM618 78q266 0 476.5 179t263.5 482q51 291 -90.5 454t-423.5 163h-342l-226 -1278h342z" glyph-name="Dcaron" horiz-adv-x="1433" unicode="Ď"/><glyph d="M1341 1466l-258 -1466h-79l45 258q-80 -137 -205 -207.5t-262 -70.5q-211 0 -320.5 151.5t-68.5 374.5q39 223 201.5 376.5t373.5 153.5q135 0 236.5 -69.5t134.5 -206.5l123 706h79zM1655 924h-72l189 510h90zM1094 508q33 195 -52.5 325t-273.5 130t-325.5 -130.5 t-172 -327t57.5 -324.5t278 -128q188 0 320.5 130t167.5 325z" glyph-name="dcaron" horiz-adv-x="1675" unicode="ď"/><glyph d="M971 1434q338 0 495.5 -185.5t100.5 -509.5q-57 -336 -292 -537.5t-556 -201.5h-416l146 819h-240l14 80h240l94 535h414zM784 819h-252l-131 -741h342q266 0 476.5 179t263.5 482q51 291 -90.5 454t-423.5 163h-342l-80 -457h252z" glyph-name="Dcroat" horiz-adv-x="1558" unicode="Đ"/><glyph d="M1341 1466l-20 -114h102l-12 -76h-102l-226 -1276h-79l47 258q-82 -137 -207 -207.5t-262 -70.5q-211 0 -319.5 151.5t-69.5 372.5q39 225 202.5 378.5t374.5 153.5q135 0 236.5 -69.5t132.5 -206.5l90 516h-246l12 76h248l21 114h77zM1093.5 507.5q32.5 194.5 -52.5 325 t-271 130.5q-190 0 -327.5 -130.5t-172 -327t57.5 -324.5t278 -128q188 0 321.5 130t166 324.5z" glyph-name="dcroat" horiz-adv-x="1142" unicode="đ"/><glyph d="M547 1587l14 74h639l-14 -74h-639zM1243 1356h-741l-107 -604h660l-15 -76h-657l-107 -598h742l-14 -78h-826l254 1434h823z" glyph-name="Emacron" horiz-adv-x="1140" unicode="Ē"/><glyph d="M479 1190l15 74h639l-15 -74h-639zM1163 498q-4 0 -4 -19h-895q-27 -186 67.5 -307t276.5 -121q127 0 237.5 63.5t180.5 180.5l76 -14q-190 -301 -500 -301q-225 0 -338.5 147t-73.5 377q39 225 204 378.5t384 153.5q223 0 323.5 -152.5t61.5 -385.5zM281 549h811 q25 186 -64.5 302t-261.5 116t-307 -118t-178 -300z" glyph-name="emacron" horiz-adv-x="1175" unicode="ē"/><glyph d="M1057 1808h76q-18 -104 -93 -169.5t-178 -65.5q-104 0 -155.5 65.5t-32.5 169.5h76q-12 -72 18.5 -120t104 -48t123 48t61.5 120zM1243 1356h-741l-107 -604h660l-15 -76h-657l-107 -598h742l-14 -78h-826l254 1434h823z" glyph-name="Ebreve" horiz-adv-x="1140" unicode="Ĕ"/><glyph d="M991 1411h76q-18 -104 -93 -169.5t-177 -65.5q-104 0 -155.5 65.5t-33.5 169.5h76q-12 -72 18.5 -120t104.5 -48t123 48t61 120zM1163 498q-4 0 -4 -19h-895q-27 -186 67.5 -307t276.5 -121q127 0 237.5 63.5t180.5 180.5l76 -14q-190 -301 -500 -301q-225 0 -338.5 147 t-73.5 377q39 225 204 378.5t384 153.5q223 0 323.5 -152.5t61.5 -385.5zM281 549h811q25 186 -64.5 302t-261.5 116t-307 -118t-178 -300z" glyph-name="ebreve" horiz-adv-x="1175" unicode="ĕ"/><glyph d="M862.5 1569q-26.5 0 -43 19.5t-12.5 46t26.5 46t51 19.5t44 -19.5t11.5 -46t-27.5 -46t-50 -19.5zM1243 1356h-741l-107 -604h660l-15 -76h-657l-107 -598h742l-14 -78h-826l254 1434h823z" glyph-name="Edotaccent" horiz-adv-x="1140" unicode="Ė"/><glyph d="M794.5 1171q-26.5 0 -43 19.5t-12.5 46.5t26.5 46.5t51.5 19.5t44.5 -19.5t11 -46.5t-28 -46.5t-50 -19.5zM1163 498q-4 0 -4 -19h-895q-27 -186 67.5 -307t276.5 -121q127 0 237.5 63.5t180.5 180.5l76 -14q-190 -301 -500 -301q-225 0 -338.5 147t-73.5 377 q39 225 204 378.5t384 153.5q223 0 323.5 -152.5t61.5 -385.5zM281 549h811q25 186 -64.5 302t-261.5 116t-307 -118t-178 -300z" glyph-name="edotaccent" horiz-adv-x="1175" unicode="ė"/><glyph d="M1243 1356h-741l-107 -604h660l-15 -76h-657l-107 -598h742l-14 -78h-826l254 1434h823z" glyph-name="Eogonek" horiz-adv-x="1140" unicode="Ę"/><glyph d="M1163 498q-4 0 -4 -19h-895q-27 -186 67.5 -307t276.5 -121q127 0 237.5 63.5t180.5 180.5l76 -14q-119 -193 -299 -263q-231 -104 -258 -237q-8 -53 23.5 -89t111.5 -34q59 0 100 23l8 -68q-43 -29 -137 -29q-109 0 -158 48.5t-34 134.5q23 121 164 213h-21 q-225 0 -338.5 147t-73.5 377q39 225 204 378.5t384 153.5q223 0 323.5 -152.5t61.5 -385.5zM281 549h811q25 186 -64.5 302t-261.5 116t-307 -118t-178 -300z" glyph-name="eogonek" horiz-adv-x="1175" unicode="ę"/><glyph d="M662 1858h73l144 -203l213 203h73l-260 -259h-76zM1243 1356h-741l-107 -604h660l-15 -76h-657l-107 -598h742l-14 -78h-826l254 1434h823z" glyph-name="Ecaron" horiz-adv-x="1140" unicode="Ě"/><glyph d="M596 1460h74l143 -203l213 203h74l-260 -258h-76zM1163 498q-4 0 -4 -19h-895q-27 -186 67.5 -307t276.5 -121q127 0 237.5 63.5t180.5 180.5l76 -14q-190 -301 -500 -301q-225 0 -338.5 147t-73.5 377q39 225 204 378.5t384 153.5q223 0 323.5 -152.5t61.5 -385.5z M281 549h811q25 186 -64.5 302t-261.5 116t-307 -118t-178 -300z" glyph-name="ecaron" horiz-adv-x="1175" unicode="ě"/><glyph d="M956 1581h-73l258 258h78l167 -258h-73l-144 203zM1632 715q-10 -55 -10 -62q-53 -303 -265 -488t-497 -185q-305 0 -462.5 206.5t-100.5 530.5q57 322 284.5 529.5t530.5 207.5q190 0 328.5 -88t199.5 -252l-90 -16q-55 133 -175 205.5t-279 72.5q-264 0 -464 -187.5 t-251 -473.5q-51 -291 85 -474.5t406 -183.5q252 0 437.5 162t226.5 420h-526l14 76h608z" glyph-name="Gcircumflex" horiz-adv-x="1636" unicode="Ĝ"/><glyph d="M637 1171h-74l258 259h78l168 -259h-74l-143 203zM596 -8q-223 0 -333.5 147.5t-69.5 374.5q37 213 202.5 367.5t376.5 154.5q141 0 244.5 -72.5t132.5 -207.5l45 260h80l-176 -998q-41 -231 -189.5 -360t-378.5 -129q-164 0 -272 68.5t-131 212.5l82 14 q33 -221 338 -221q197 0 316.5 109.5t156.5 310.5l43 243q-72 -131 -197 -202.5t-270 -71.5zM1108 514q35 193 -57.5 321t-282.5 128q-184 0 -324.5 -132.5t-173.5 -316.5q-35 -199 56.5 -323.5t285.5 -124.5q193 0 327 125.5t169 322.5z" glyph-name="gcircumflex" horiz-adv-x="1249" unicode="ĝ"/><glyph d="M1321 1823h76q-18 -104 -93 -170t-178 -66q-104 0 -155 65.5t-33 170.5h76q-12 -72 18.5 -120t104 -48t123 48t61.5 120zM1632 715q-10 -55 -10 -62q-53 -303 -265 -488t-497 -185q-305 0 -462.5 206.5t-100.5 530.5q57 322 284.5 529.5t530.5 207.5q190 0 328.5 -88 t199.5 -252l-90 -16q-55 133 -175 205.5t-279 72.5q-264 0 -464 -187.5t-251 -473.5q-51 -291 85 -474.5t406 -183.5q252 0 437.5 162t226.5 420h-526l14 76h608z" glyph-name="Gbreve" horiz-adv-x="1636" unicode="Ğ"/><glyph d="M1001 1411h76q-18 -104 -93 -169.5t-177 -65.5q-104 0 -155.5 65.5t-33.5 169.5h76q-12 -72 18.5 -120t104.5 -48t123 48t61 120zM596 -8q-223 0 -333.5 147.5t-69.5 374.5q37 213 202.5 367.5t376.5 154.5q141 0 244.5 -72.5t132.5 -207.5l45 260h80l-176 -998 q-41 -231 -189.5 -360t-378.5 -129q-164 0 -272 68.5t-131 212.5l82 14q33 -221 338 -221q197 0 316.5 109.5t156.5 310.5l43 243q-72 -131 -197 -202.5t-270 -71.5zM1108 514q35 193 -57.5 321t-282.5 128q-184 0 -324.5 -132.5t-173.5 -316.5q-35 -199 56.5 -323.5 t285.5 -124.5q193 0 327 125.5t169 322.5z" glyph-name="gbreve" horiz-adv-x="1249" unicode="ğ"/><glyph d="M1126.5 1583q-26.5 0 -43 19.5t-12.5 46t26.5 46t51.5 19.5t44 -19.5t11 -46t-27.5 -46t-50 -19.5zM1632 715q-10 -55 -10 -62q-53 -303 -265 -488t-497 -185q-305 0 -462.5 206.5t-100.5 530.5q57 322 284.5 529.5t530.5 207.5q190 0 328.5 -88t199.5 -252l-90 -16 q-55 133 -175 205.5t-279 72.5q-264 0 -464 -187.5t-251 -473.5q-51 -291 85 -474.5t406 -183.5q252 0 437.5 162t226.5 420h-526l14 76h608z" glyph-name="Gdotaccent" horiz-adv-x="1636" unicode="Ġ"/><glyph d="M804.5 1171q-26.5 0 -43 19.5t-12 46.5t27 46.5t51 19.5t44 -19.5t11.5 -46.5t-28 -46.5t-50.5 -19.5zM596 -8q-223 0 -333.5 147.5t-69.5 374.5q37 213 202.5 367.5t376.5 154.5q141 0 244.5 -72.5t132.5 -207.5l45 260h80l-176 -998q-41 -231 -189.5 -360t-378.5 -129 q-164 0 -272 68.5t-131 212.5l82 14q33 -221 338 -221q197 0 316.5 109.5t156.5 310.5l43 243q-72 -131 -197 -202.5t-270 -71.5zM1108 514q35 193 -57.5 321t-282.5 128q-184 0 -324.5 -132.5t-173.5 -316.5q-35 -199 56.5 -323.5t285.5 -124.5q193 0 327 125.5t169 322.5z " glyph-name="gdotaccent" horiz-adv-x="1249" unicode="ġ"/><glyph d="M1632 715q-10 -55 -10 -62q-53 -303 -265 -488t-497 -185q-305 0 -462.5 206.5t-100.5 530.5q57 322 284.5 529.5t530.5 207.5q190 0 328.5 -88t199.5 -252l-90 -16q-55 133 -175 205.5t-279 72.5q-264 0 -464 -187.5t-251 -473.5q-51 -291 85 -474.5t406 -183.5 q252 0 437.5 162t226.5 420h-526l14 76h608zM793 -143h79l-145 -263h-51z" glyph-name="Gcommaaccent" horiz-adv-x="1636" unicode="Ģ"/><glyph d="M932 1565h59l-141 -375h-78zM596 -8q-223 0 -333.5 147.5t-69.5 374.5q37 213 202.5 367.5t376.5 154.5q141 0 244.5 -72.5t132.5 -207.5l45 260h80l-176 -998q-41 -229 -189.5 -359t-378.5 -130q-164 0 -272 68.5t-131 212.5l82 14q16 -115 108.5 -168t227.5 -53 q197 0 318.5 109.5t156.5 310.5l43 243q-72 -131 -197 -202.5t-270 -71.5zM1108 514q33 195 -59.5 322t-280.5 127q-184 0 -325.5 -132.5t-172.5 -316.5q-35 -199 56.5 -323.5t285.5 -124.5q193 0 327 125.5t169 322.5z" glyph-name="gcommaaccent" horiz-adv-x="1249" unicode="ģ"/><glyph d="M819 1571h-74l259 258h77l168 -258h-73l-144 203zM1386 1434h87l-254 -1434h-84l116 659h-872l-115 -659h-86l254 1434h84l-123 -699h871z" glyph-name="Hcircumflex" horiz-adv-x="1398" unicode="Ĥ"/><glyph d="M319 1595h-73l258 258h78l168 -258h-74l-144 203zM801 1036q160 0 243.5 -107.5t55.5 -260.5l-117 -668h-80l117 657q23 129 -43 217.5t-199 88.5q-166 0 -289.5 -134.5t-156.5 -318.5l-90 -510h-80l260 1475h80l-129 -730q63 125 177 208t251 83z" glyph-name="hcircumflex" horiz-adv-x="1132" unicode="ĥ"/><glyph d="M567 1739l15 73h639l-15 -73h-639zM1268 1434h86l-254 -1434h-84l117 659h-873l-115 -659h-86l254 1434h84l-123 -699h871z" glyph-name="Hbar" horiz-adv-x="1161" unicode="Ħ"/><glyph d="M666 1036q160 0 242.5 -107.5t56.5 -260.5l-117 -668h-80l117 657q23 129 -43 217.5t-199 88.5q-166 0 -290 -134.5t-156 -318.5l-91 -510h-79l225 1276h-107l13 76h108l21 123h80l-23 -123h221l-12 -76h-221l-94 -531q63 125 177 208t251 83z" glyph-name="hbar" horiz-adv-x="997" unicode="ħ"/><glyph d="M248 1614q14 90 69.5 127t110.5 37q53 0 109.5 -63.5t101.5 -63.5q78 0 96 104h56q-12 -84 -63.5 -124t-104.5 -40q-57 0 -115.5 64.5t-101.5 64.5q-35 0 -64 -26.5t-39 -79.5h-55zM264 0h-86l254 1434h84z" glyph-name="Itilde" horiz-adv-x="442" unicode="Ĩ"/><glyph d="M164 1253q14 90 69.5 127t110.5 37q53 0 109.5 -63.5t101.5 -63.5q80 0 96 105h56q-12 -84 -63.5 -124t-104.5 -40q-57 0 -115.5 64.5t-101.5 64.5q-35 0 -64 -26.5t-39 -80.5h-55zM240 0h-78l180 1016h78z" glyph-name="itilde" horiz-adv-x="403" unicode="ĩ"/><glyph d="M172 1532l14 74h639l-14 -74h-639zM264 0h-86l254 1434h84z" glyph-name="Imacron" horiz-adv-x="442" unicode="Ī"/><glyph d="M88 1169l14 74h639l-14 -74h-639zM240 0h-78l180 1016h78z" glyph-name="imacron" horiz-adv-x="403" unicode="ī"/><glyph d="M264 0q-242 -104 -266 -240q-8 -53 23.5 -89t111.5 -33q59 0 100 22l9 -68q-43 -29 -138 -28q-109 0 -157.5 48t-34.5 134q27 158 270 274l250 1414h84z" glyph-name="Iogonek" horiz-adv-x="442" unicode="Į"/><glyph d="M442.5 1339q-28.5 0 -43 18.5t-10.5 45.5q4 29 25.5 47t50.5 18t44 -18t11 -47q-6 -27 -27.5 -45.5t-50 -18.5zM246 0q-240 -106 -264 -240q-8 -53 23.5 -89t111.5 -33q59 0 100 22l8 -68q-43 -29 -137 -28q-109 0 -158 48t-34 134q33 162 276 277l174 993h80z" glyph-name="iogonek" horiz-adv-x="413" unicode="į"/><glyph d="M487.5 1511q-26.5 0 -43 19.5t-12.5 46.5t26.5 46t51.5 19t44 -19t11 -46t-27.5 -46.5t-50 -19.5zM264 0h-86l254 1434h84z" glyph-name="Idotaccent" horiz-adv-x="442" unicode="İ"/><glyph d="M240 0h-78l180 1016h78z" glyph-name="dotlessi" horiz-adv-x="403" unicode="ı"/><glyph d="M987 1569h-74l258 258h78l168 -258h-74l-143 203zM1094 1434h84l-181 -1028q-35 -195 -163.5 -310.5t-317.5 -115.5q-190 0 -287.5 116.5t-76.5 302.5l86 17q-16 -162 58.5 -260.5t228 -98.5t257 95.5t129.5 244.5z" glyph-name="Jcircumflex" horiz-adv-x="1103" unicode="Ĵ"/><glyph d="M315 1151h-73l258 258h78l167 -258h-73l-144 203zM-160 -395q113 -4 178.5 8t109.5 57t64.5 108.5t43.5 186.5l184 1051h80l-191 -1075q-43 -246 -137 -329t-344 -83z" glyph-name="jcircumflex" horiz-adv-x="493" unicode="ĵ"/><glyph d="M678 786l504 -786h-107l-465 727l-260 -233l-86 -494h-86l254 1434h84l-145 -822l911 822h113zM588 -143h80l-146 -263h-51z" glyph-name="Kcommaaccent" horiz-adv-x="1239" unicode="Ķ"/><glyph d="M602 621l338 -621h-96l-305 569l-230 -190l-67 -379h-80l260 1475h80l-176 -994l647 535h104zM467 -143h80l-146 -263h-51z" glyph-name="kcommaaccent" horiz-adv-x="991" unicode="ķ"/><glyph d="M645 1817h92l-205 -230h-67zM276 78h730l-13 -78h-815l254 1434h84z" glyph-name="Lacute" horiz-adv-x="1089" unicode="Ĺ"/><glyph d="M633 1845h92l-205 -229h-67zM242 0h-80l260 1475h80z" glyph-name="lacute" horiz-adv-x="403" unicode="ĺ"/><glyph d="M276 78h730l-13 -78h-815l254 1434h84zM514 -143h80l-145 -263h-52z" glyph-name="Lcommaaccent" horiz-adv-x="1089" unicode="Ļ"/><glyph d="M242 0h-80l260 1475h80zM127 -143h80l-146 -263h-51z" glyph-name="lcommaaccent" horiz-adv-x="403" unicode="ļ"/><glyph d="M276 78h730l-13 -78h-815l254 1434h84zM684 924h-72l189 510h90z" glyph-name="Lcaron" horiz-adv-x="1089" unicode="Ľ"/><glyph d="M242 0h-80l260 1475h80zM621 924h-72l188 510h90z" glyph-name="lcaron" horiz-adv-x="638" unicode="ľ"/><glyph d="M276 78h730l-13 -78h-815l254 1434h84zM717 655q-31 0 -47.5 19.5t-10.5 50.5q4 29 29 49.5t53.5 20.5t45 -20.5t10.5 -49.5q-4 -31 -27.5 -50.5t-52.5 -19.5z" glyph-name="Ldot" horiz-adv-x="1089" unicode="Ŀ"/><glyph d="M242 0h-80l260 1475h80zM645 612q-31 0 -47 19.5t-10 50.5q4 29 28.5 49.5t53 20.5t45 -20.5t10.5 -49.5q-4 -31 -27.5 -50.5t-52.5 -19.5z" glyph-name="ldot" horiz-adv-x="669" unicode="ŀ"/><glyph d="M207 647l16 84l158 74l111 629h83l-102 -588l340 155l-12 -83l-342 -156l-121 -684h715l-13 -78h-800l127 721z" glyph-name="Lslash" horiz-adv-x="1140" unicode="Ł"/><glyph d="M385 662l14 83l265 119l108 611h78l-102 -574l245 111l-16 -84l-242 -111l-145 -817h-78l137 778z" glyph-name="lslash" horiz-adv-x="1075" unicode="ł"/><glyph d="M1124 1817h93l-205 -230h-68zM1395 1434h86l-254 -1434h-86l-649 1292l-228 -1292h-86l254 1434h86l649 -1291z" glyph-name="Nacute" horiz-adv-x="1406" unicode="Ń"/><glyph d="M950 1419h92l-204 -229h-68zM795 1036q162 0 243.5 -102.5t53.5 -265.5l-117 -668h-80l117 657q25 135 -39 220.5t-201 85.5q-172 0 -294 -133.5t-154 -315.5l-91 -514h-79l180 1016h78l-45 -266q70 131 181.5 208.5t246.5 77.5z" glyph-name="nacute" unicode="ń"/><glyph d="M1395 1434h86l-254 -1434h-86l-649 1292l-228 -1292h-86l254 1434h86l649 -1291zM674 -143h80l-146 -263h-51z" glyph-name="Ncommaaccent" horiz-adv-x="1406" unicode="Ņ"/><glyph d="M795 1036q162 0 243.5 -102.5t53.5 -265.5l-117 -668h-80l117 657q25 135 -39 220.5t-201 85.5q-172 0 -294 -133.5t-154 -315.5l-91 -514h-79l180 1016h78l-45 -266q70 131 181.5 208.5t246.5 77.5zM528 -143h80l-145 -263h-51z" glyph-name="ncommaaccent" unicode="ņ"/><glyph d="M776 1858h74l143 -203l213 203h74l-260 -259h-76zM1395 1434h86l-254 -1434h-86l-649 1292l-228 -1292h-86l254 1434h86l649 -1291z" glyph-name="Ncaron" horiz-adv-x="1406" unicode="Ň"/><glyph d="M602 1460h74l143 -203l213 203h74l-260 -258h-76zM795 1036q162 0 243.5 -102.5t53.5 -265.5l-117 -668h-80l117 657q25 135 -39 220.5t-201 85.5q-172 0 -294 -133.5t-154 -315.5l-91 -514h-79l180 1016h78l-45 -266q70 131 181.5 208.5t246.5 77.5z" glyph-name="ncaron" unicode="ň"/><glyph d="M778 1608l15 73h639l-15 -73h-639zM1075 1454q303 0 460 -215t101 -522q-55 -309 -286.5 -523t-534.5 -214q-203 0 -345 100t-198.5 268t-19.5 369q55 309 285.5 523t537.5 214zM827.5 57q268.5 0 472 191.5t253 468t-87 468t-404.5 191.5t-471 -191.5t-254 -467.5 q-49 -276 87 -468t404.5 -192z" glyph-name="Omacron" horiz-adv-x="1636" unicode="Ō"/><glyph d="M502 1190l14 74h639l-14 -74h-639zM797 1036q223 0 336.5 -151.5t72.5 -376.5q-39 -225 -205.5 -376.5t-390.5 -151.5q-227 0 -342.5 151.5t-77.5 376.5q41 225 210.5 376.5t396.5 151.5zM621 53q188 0 329.5 128t176 327t-61.5 327t-284.5 128t-331 -128t-177.5 -327 q-35 -201 62 -328t287 -127z" glyph-name="omacron" horiz-adv-x="1218" unicode="ō"/><glyph d="M1290 1829h76q-18 -104 -93 -170t-177 -66q-104 0 -155.5 65.5t-33.5 170.5h76q-12 -72 18.5 -120t104.5 -48t123 48t61 120zM1075 1454q303 0 460 -215t101 -522q-55 -309 -286.5 -523t-534.5 -214q-203 0 -345 100t-198.5 268t-19.5 369q55 309 285.5 523t537.5 214z M827.5 57q268.5 0 472 191.5t253 468t-87 468t-404.5 191.5t-471 -191.5t-254 -467.5q-49 -276 87 -468t404.5 -192z" glyph-name="Obreve" horiz-adv-x="1636" unicode="Ŏ"/><glyph d="M1014 1411h76q-18 -104 -93 -169.5t-178 -65.5q-104 0 -155.5 65.5t-32.5 169.5h76q-12 -72 18.5 -120t104 -48t123 48t61.5 120zM797 1036q223 0 336.5 -151.5t72.5 -376.5q-39 -225 -205.5 -376.5t-390.5 -151.5q-227 0 -342.5 151.5t-77.5 376.5q41 225 210.5 376.5 t396.5 151.5zM621 53q188 0 329.5 128t176 327t-61.5 327t-284.5 128t-331 -128t-177.5 -327q-35 -201 62 -328t287 -127z" glyph-name="obreve" horiz-adv-x="1218" unicode="ŏ"/><glyph d="M1110 1837h90l-188 -229h-72zM1354 1837h94l-186 -229h-72zM1075 1454q303 0 460 -215t101 -522q-55 -309 -286.5 -523t-534.5 -214q-203 0 -345 100t-198.5 268t-19.5 369q55 309 285.5 523t537.5 214zM827.5 57q268.5 0 472 191.5t253 468t-87 468t-404.5 191.5 t-471 -191.5t-254 -467.5q-49 -276 87 -468t404.5 -192z" glyph-name="Ohungarumlaut" horiz-adv-x="1636" unicode="Ő"/><glyph d="M831 1419h91l-189 -229h-71zM1075 1419h94l-186 -229h-72zM797 1036q223 0 336.5 -151.5t72.5 -376.5q-39 -225 -205.5 -376.5t-390.5 -151.5q-227 0 -342.5 151.5t-77.5 376.5q41 225 210.5 376.5t396.5 151.5zM621 53q188 0 329.5 128t176 327t-61.5 327t-284.5 128 t-331 -128t-177.5 -327q-35 -201 62 -328t287 -127z" glyph-name="ohungarumlaut" horiz-adv-x="1218" unicode="ő"/><glyph d="M248 719q57 317 276 526t520 209q207 0 343.5 -111.5t164.5 -300.5l70 392h762l-12 -78h-678l-107 -604h596l-14 -76h-596l-105 -598h678l-14 -78h-762l68 383q-104 -197 -278.5 -300t-375.5 -103q-307 0 -450 207.5t-86 531.5zM334 719q-51 -295 72.5 -478.5 t398.5 -183.5q264 0 451.5 186.5t240.5 473.5q49 287 -72.5 473t-386.5 186q-270 0 -461.5 -185t-242.5 -472z" glyph-name="OE" horiz-adv-x="2269" unicode="Œ"/><glyph d="M616 -20q-227 0 -346.5 151.5t-79.5 376.5q41 227 213 377.5t402 150.5q158 0 264.5 -96t122.5 -242q74 145 212 241.5t290 96.5q225 0 327.5 -148.5t61.5 -381.5q0 -10 -6 -17h-887q-23 -188 72.5 -312t267.5 -124q125 0 236.5 62.5t185.5 177.5l76 -12 q-186 -301 -512 -301q-160 0 -267.5 96t-122.5 246q-74 -160 -211 -251t-299 -91zM780 965q-186 0 -329.5 -131.5t-178.5 -325.5q-35 -193 63.5 -324t285.5 -131q193 0 327.5 127t171.5 328t-55 329t-285 128zM1204 559h805q25 182 -65.5 294t-262.5 112q-156 0 -292 -120 t-185 -286z" glyph-name="oe" horiz-adv-x="2095" unicode="œ"/><glyph d="M1057 1817h92l-205 -230h-67zM899 1434q199 0 304.5 -121t70.5 -312q-27 -162 -139.5 -273.5t-272.5 -141.5l256 -586h-94l-246 575h-28h-385l-101 -575h-86l254 1434h467zM762 651q160 0 280.5 97.5t147.5 253t-59.5 255t-245.5 99.5h-383l-123 -705h383z" glyph-name="Racute" horiz-adv-x="1198" unicode="Ŕ"/><glyph d="M733 1419h92l-204 -229h-68zM782 1034l-14 -73q-188 16 -293.5 -89.5t-138.5 -289.5l-105 -582h-77l180 1016h78l-35 -197q106 217 364 217q8 0 22.5 -1t18.5 -1z" glyph-name="racute" horiz-adv-x="667" unicode="ŕ"/><glyph d="M899 1434q199 0 304.5 -121t70.5 -312q-27 -162 -139.5 -273.5t-272.5 -141.5l256 -586h-94l-246 575h-28h-385l-101 -575h-86l254 1434h467zM762 651q160 0 280.5 97.5t147.5 253t-59.5 255t-245.5 99.5h-383l-123 -705h383zM551 -143h80l-146 -263h-51z" glyph-name="Rcommaaccent" horiz-adv-x="1198" unicode="Ŗ"/><glyph d="M782 1034l-14 -73q-188 16 -293.5 -89.5t-138.5 -289.5l-105 -582h-77l180 1016h78l-35 -197q106 217 364 217q8 0 22.5 -1t18.5 -1zM117 -143h80l-146 -263h-51z" glyph-name="rcommaaccent" horiz-adv-x="667" unicode="ŗ"/><glyph d="M709 1858h73l144 -203l213 203h73l-260 -259h-75zM899 1434q199 0 304.5 -121t70.5 -312q-27 -162 -139.5 -273.5t-272.5 -141.5l256 -586h-94l-246 575h-28h-385l-101 -575h-86l254 1434h467zM762 651q160 0 280.5 97.5t147.5 253t-59.5 255t-245.5 99.5h-383l-123 -705 h383z" glyph-name="Rcaron" horiz-adv-x="1198" unicode="Ř"/><glyph d="M385 1460h74l143 -203l213 203h74l-260 -258h-76zM782 1034l-14 -73q-188 16 -293.5 -89.5t-138.5 -289.5l-105 -582h-77l180 1016h78l-35 -197q106 217 364 217q8 0 22.5 -1t18.5 -1z" glyph-name="rcaron" horiz-adv-x="667" unicode="ř"/><glyph d="M1001 1837h93l-205 -229h-68zM410 1085q-20 -117 44 -182t195 -106q35 -12 107 -33q106 -31 160.5 -51.5t126 -64.5t95 -111.5t7.5 -159.5q-23 -127 -110 -219t-199.5 -135t-237.5 -43q-186 0 -303 102t-121 287l86 14q-2 -150 98.5 -239t255.5 -89q154 0 286 83t159 231 q20 117 -43.5 182t-192.5 106q-35 12 -108 33q-86 25 -130 39t-110.5 48t-97.5 70t-49.5 97.5t-3.5 136.5q31 176 173 274.5t322 98.5q172 0 281.5 -90t118.5 -256l-89 -14q-8 135 -94 209.5t-227 74.5q-145 0 -260.5 -78t-138.5 -215z" glyph-name="Sacute" horiz-adv-x="1187" unicode="Ś"/><glyph d="M815 1423h92l-205 -229h-67zM332 762q-14 -84 44 -127t183 -76q170 -45 221 -72q131 -72 105 -219q-23 -133 -138.5 -210.5t-261 -77.5t-242 79.5t-87.5 221.5l80 14q-6 -111 67.5 -177.5t190.5 -66.5q106 0 199 55.5t112 157.5q16 90 -45.5 134t-206.5 81 q-170 43 -227 84q-94 68 -72 191q23 127 134.5 206.5t248.5 79.5q133 0 220 -75.5t85 -200.5l-80 -12q2 100 -64.5 158.5t-168.5 58.5q-104 0 -191.5 -56.5t-105.5 -150.5z" glyph-name="sacute" horiz-adv-x="944" unicode="ś"/><glyph d="M684 1589h-74l258 258h78l168 -258h-74l-143 203zM410 1085q-20 -117 44 -182t195 -106q35 -12 107 -33q106 -31 160.5 -51.5t126 -64.5t95 -111.5t7.5 -159.5q-23 -127 -110 -219t-199.5 -135t-237.5 -43q-186 0 -303 102t-121 287l86 14q-2 -150 98.5 -239t255.5 -89 q154 0 286 83t159 231q20 117 -43.5 182t-192.5 106q-35 12 -108 33q-86 25 -130 39t-110.5 48t-97.5 70t-49.5 97.5t-3.5 136.5q31 176 173 274.5t322 98.5q172 0 281.5 -90t118.5 -256l-89 -14q-8 135 -94 209.5t-227 74.5q-145 0 -260.5 -78t-138.5 -215z" glyph-name="Scircumflex" horiz-adv-x="1187" unicode="Ŝ"/><glyph d="M498 1174h-74l258 258h78l168 -258h-74l-143 202zM332 762q-14 -84 44 -127t183 -76q170 -45 221 -72q131 -72 105 -219q-23 -133 -138.5 -210.5t-261 -77.5t-242 79.5t-87.5 221.5l80 14q-6 -111 67.5 -177.5t190.5 -66.5q106 0 199 55.5t112 157.5q16 90 -45.5 134 t-206.5 81q-170 43 -227 84q-94 68 -72 191q23 127 134.5 206.5t248.5 79.5q133 0 220 -75.5t85 -200.5l-80 -12q2 100 -64.5 158.5t-168.5 58.5q-104 0 -191.5 -56.5t-105.5 -150.5z" glyph-name="scircumflex" horiz-adv-x="944" unicode="ŝ"/><glyph d="M410 1085q-20 -117 44 -182t195 -106q35 -12 107 -33q106 -31 160.5 -51.5t126 -64.5t95 -111.5t7.5 -159.5q-31 -178 -178.5 -282.5t-333.5 -114.5l-60 -117q78 -10 126.5 -54.5t35.5 -115.5q-16 -86 -80.5 -125t-146.5 -39q-72 0 -125 20l20 50q45 -14 109 -15 q133 0 154 113q10 59 -49.5 87t-131.5 28l78 170q-174 10 -279.5 111.5t-109.5 275.5l86 14q-2 -150 98.5 -239t255.5 -89q154 0 286 83t159 231q20 117 -43.5 182t-192.5 106q-35 12 -108 33q-86 25 -130 39t-110.5 48t-97.5 70t-49.5 97.5t-3.5 136.5q31 176 173 274.5 t322 98.5q172 0 281.5 -90t118.5 -256l-89 -14q-8 135 -94 209.5t-227 74.5q-145 0 -260.5 -78t-138.5 -215z" glyph-name="Scedilla" horiz-adv-x="1187" unicode="Ş"/><glyph d="M332 762q-14 -84 44 -127t183 -76q170 -45 221 -72q131 -72 105 -219q-23 -125 -127.5 -201.5t-241.5 -84.5l-59 -119q78 -10 126 -54.5t35 -115.5q-16 -86 -80.5 -125t-146.5 -39q-72 0 -125 20l21 50q45 -14 108 -15q133 0 154 113q10 59 -49.5 87t-130.5 28l77 170 q-133 12 -216 90t-74 209l80 14q-6 -111 67.5 -177.5t190.5 -66.5q106 0 199 55.5t112 157.5q16 90 -45.5 134t-206.5 81q-170 43 -227 84q-94 68 -72 191q23 127 134.5 206.5t248.5 79.5q133 0 220 -75.5t85 -200.5l-80 -12q2 100 -64.5 158.5t-168.5 58.5 q-104 0 -191.5 -56.5t-105.5 -150.5z" glyph-name="scedilla" horiz-adv-x="944" unicode="ş"/><glyph d="M653 1878h74l143 -203l213 203h74l-260 -258h-76zM410 1085q-20 -117 44 -182t195 -106q35 -12 107 -33q106 -31 160.5 -51.5t126 -64.5t95 -111.5t7.5 -159.5q-23 -127 -110 -219t-199.5 -135t-237.5 -43q-186 0 -303 102t-121 287l86 14q-2 -150 98.5 -239t255.5 -89 q154 0 286 83t159 231q20 117 -43.5 182t-192.5 106q-35 12 -108 33q-86 25 -130 39t-110.5 48t-97.5 70t-49.5 97.5t-3.5 136.5q31 176 173 274.5t322 98.5q172 0 281.5 -90t118.5 -256l-89 -14q-8 135 -94 209.5t-227 74.5q-145 0 -260.5 -78t-138.5 -215z" glyph-name="Scaron" horiz-adv-x="1187" unicode="Š"/><glyph d="M467 1464h74l143 -202l213 202h74l-260 -258h-76zM332 762q-14 -84 44 -127t183 -76q170 -45 221 -72q131 -72 105 -219q-23 -133 -138.5 -210.5t-261 -77.5t-242 79.5t-87.5 221.5l80 14q-6 -111 67.5 -177.5t190.5 -66.5q106 0 199 55.5t112 157.5q16 90 -45.5 134 t-206.5 81q-170 43 -227 84q-94 68 -72 191q23 127 134.5 206.5t248.5 79.5q133 0 220 -75.5t85 -200.5l-80 -12q2 100 -64.5 158.5t-168.5 58.5q-104 0 -191.5 -56.5t-105.5 -150.5z" glyph-name="scaron" horiz-adv-x="944" unicode="š"/><glyph d="M342 1434h1036l-12 -78h-477l-240 -1356h-84l240 1356h-477zM537 -143h79l-145 -263h-51z" glyph-name="Tcommaaccent" horiz-adv-x="1214" unicode="Ţ"/><glyph d="M684 946h-217l-127 -708q-18 -102 2 -144.5t104 -42.5q51 0 95 15l-15 -74q-51 -12 -104 -12q-109 0 -147.5 58t-16.5 191l127 717h-162l13 70h163l45 250l80 12l-47 -262h217zM367 -143h79l-145 -263h-51z" glyph-name="tcommaaccent" horiz-adv-x="636" unicode="ţ"/><glyph d="M684 1858h74l143 -203l213 203h74l-260 -259h-76zM342 1434h1036l-12 -78h-477l-240 -1356h-84l240 1356h-477z" glyph-name="Tcaron" horiz-adv-x="1214" unicode="Ť"/><glyph d="M1036 924h-71l188 510h90zM684 946h-217l-127 -708q-18 -102 2 -144.5t104 -42.5q51 0 95 15l-15 -74q-51 -12 -104 -12q-109 0 -147.5 58t-16.5 191l127 717h-162l13 70h163l45 250l80 12l-47 -262h217z" glyph-name="tcaron" horiz-adv-x="1105" unicode="ť"/><glyph d="M342 1434h1036l-12 -78h-477l-103 -578h279l-14 -73h-277l-125 -705h-84l125 705h-278l14 73h276l103 578h-477z" glyph-name="Tbar" horiz-adv-x="1214" unicode="Ŧ"/><glyph d="M682 946h-217l-49 -287h217l-15 -75h-217l-59 -346q-23 -96 -1.5 -141.5t103.5 -45.5q53 0 95 15l-13 -74q-49 -12 -104 -12q-109 0 -147.5 58t-14.5 191l62 355h-162l12 75h162l51 287h-162l13 70h163l45 250l80 12l-47 -262h217z" glyph-name="tbar" horiz-adv-x="641" unicode="ŧ"/><glyph d="M707 1671q14 90 69 127t111 37q53 0 109.5 -63.5t101.5 -63.5q78 0 96 104h55q-12 -84 -63 -123.5t-105 -39.5q-57 0 -115.5 64.5t-101.5 64.5q-35 0 -63.5 -27t-38.5 -80h-55zM1329 1434h84l-156 -883q-45 -248 -197.5 -409.5t-392 -161.5t-338 161.5t-53.5 409.5 l156 883h84l-158 -893q-37 -205 39 -344.5t283 -139.5t331 140.5t160 343.5z" glyph-name="Utilde" horiz-adv-x="1339" unicode="Ũ"/><glyph d="M551 1253q14 90 69.5 127t110.5 37q53 0 109.5 -63.5t101.5 -63.5q78 0 96 105h56q-12 -84 -63.5 -124t-104.5 -40q-57 0 -115.5 64.5t-101.5 64.5q-35 0 -64 -26.5t-39 -80.5h-55zM508 -20q-160 0 -243 102t-54 266l119 668h78l-115 -658q-25 -133 39.5 -219t197.5 -86 q172 0 294 133t155 316l90 514h80l-180 -1016h-78l47 266q-70 -131 -182.5 -208.5t-247.5 -77.5z" glyph-name="utilde" unicode="ũ"/><glyph d="M631 1587l14 74h639l-14 -74h-639zM1329 1434h84l-156 -883q-45 -248 -197.5 -409.5t-392 -161.5t-338 161.5t-53.5 409.5l156 883h84l-158 -893q-37 -205 39 -344.5t283 -139.5t331 140.5t160 343.5z" glyph-name="Umacron" horiz-adv-x="1339" unicode="Ū"/><glyph d="M473 1169l14 74h639l-14 -74h-639zM508 -20q-160 0 -243 102t-54 266l119 668h78l-115 -658q-25 -133 39.5 -219t197.5 -86q172 0 294 133t155 316l90 514h80l-180 -1016h-78l47 266q-70 -131 -182.5 -208.5t-247.5 -77.5z" glyph-name="umacron" unicode="ū"/><glyph d="M1141 1808h76q-18 -104 -93 -169.5t-178 -65.5q-104 0 -155.5 65.5t-32.5 169.5h76q-12 -72 18.5 -120t104 -48t123 48t61.5 120zM1329 1434h84l-156 -883q-45 -248 -197.5 -409.5t-392 -161.5t-338 161.5t-53.5 409.5l156 883h84l-158 -893q-37 -205 39 -344.5 t283 -139.5t331 140.5t160 343.5z" glyph-name="Ubreve" horiz-adv-x="1339" unicode="Ŭ"/><glyph d="M985 1391h76q-18 -104 -93 -170t-177 -66q-104 0 -155.5 65.5t-33.5 170.5h76q-12 -72 18.5 -120t104 -48t123 48t61.5 120zM508 -20q-160 0 -243 102t-54 266l119 668h78l-115 -658q-25 -133 39.5 -219t197.5 -86q172 0 294 133t155 316l90 514h80l-180 -1016h-78 l47 266q-70 -131 -182.5 -208.5t-247.5 -77.5z" glyph-name="ubreve" unicode="ŭ"/><glyph d="M944 1559q-80 0 -128 53t-34 137q14 86 81 140.5t149 54.5t127 -54.5t30 -140.5q-14 -84 -78.5 -137t-146.5 -53zM952 1616q55 0 100.5 37t55.5 96t-20.5 99t-88.5 40q-55 0 -101 -40t-56 -99q-8 -59 22.5 -96t87.5 -37zM1329 1434h84l-156 -883q-45 -248 -197.5 -409.5 t-392 -161.5t-338 161.5t-53.5 409.5l156 883h84l-158 -893q-37 -205 39 -344.5t283 -139.5t331 140.5t160 343.5z" glyph-name="Uring" horiz-adv-x="1339" unicode="Ů"/><glyph d="M788 1141q-80 0 -128 53t-33 137q14 86 80.5 140.5t148.5 54.5t127 -54.5t31 -140.5q-14 -84 -79 -137t-147 -53zM797 1198q55 0 100 37t55.5 96.5t-20.5 99t-88 39.5q-55 0 -101.5 -39.5t-56.5 -99.5q-8 -59 23 -96t88 -37zM508 -20q-160 0 -243 102t-54 266l119 668h78 l-115 -658q-25 -133 39.5 -219t197.5 -86q172 0 294 133t155 316l90 514h80l-180 -1016h-78l47 266q-70 -131 -182.5 -208.5t-247.5 -77.5z" glyph-name="uring" unicode="ů"/><glyph d="M961 1817h90l-189 -230h-71zM1204 1817h94l-186 -230h-72zM1329 1434h84l-156 -883q-45 -248 -197.5 -409.5t-392 -161.5t-338 161.5t-53.5 409.5l156 883h84l-158 -893q-37 -205 39 -344.5t283 -139.5t331 140.5t160 343.5z" glyph-name="Uhungarumlaut" horiz-adv-x="1339" unicode="Ű"/><glyph d="M805 1399h90l-188 -230h-72zM1049 1399h94l-187 -230h-71zM508 -20q-160 0 -243 102t-54 266l119 668h78l-115 -658q-25 -133 39.5 -219t197.5 -86q172 0 294 133t155 316l90 514h80l-180 -1016h-78l47 266q-70 -131 -182.5 -208.5t-247.5 -77.5z" glyph-name="uhungarumlaut" unicode="ű"/><glyph d="M1329 1434h84l-156 -883q-33 -193 -134 -337t-259 -202q-227 -102 -254 -233q-8 -53 24 -89t111 -34q59 0 101 22l8 -67q-43 -29 -137 -29q-109 0 -158 48t-35 134q23 119 166 216h-22q-240 0 -338.5 161.5t-53.5 409.5l156 883h84l-158 -893q-37 -205 39 -344.5 t283 -139.5t331 140.5t160 343.5z" glyph-name="Uogonek" horiz-adv-x="1339" unicode="Ų"/><glyph d="M508 -20q-160 0 -243 102t-54 266l119 668h78l-115 -658q-25 -133 39.5 -219t197.5 -86q172 0 294 133t155 316l90 514h80l-180 -1016q-240 -106 -264 -240q-8 -53 23.5 -89t111.5 -33q59 0 100 22l8 -68q-43 -29 -137 -28q-109 0 -158 48t-35 134q33 162 277 277l43 243 q-70 -131 -182.5 -208.5t-247.5 -77.5z" glyph-name="uogonek" unicode="ų"/><glyph d="M1075 1569h-74l259 258h77l168 -258h-73l-144 203zM2015 1434h86l-657 -1434h-103l-149 1264l-598 -1264h-105l-151 1434h88l137 -1332l627 1332h59l162 -1332z" glyph-name="Wcircumflex" horiz-adv-x="1933" unicode="Ŵ"/><glyph d="M778 1151h-73l258 258h77l168 -258h-73l-144 203zM1518 1016h81l-479 -1016h-88l-129 901l-448 -901h-86l-121 1016h80l100 -926l459 926h69l136 -926z" glyph-name="wcircumflex" horiz-adv-x="1488" unicode="ŵ"/><glyph d="M725 1569h-74l258 258h78l168 -258h-74l-143 203zM1327 1434h96l-661 -848l-103 -586h-86l105 586l-361 848h95l323 -764z" glyph-name="Ycircumflex" horiz-adv-x="1234" unicode="Ŷ"/><glyph d="M535 1151h-74l258 258h78l168 -258h-74l-143 203zM1034 1016h84l-813 -1467h-84l266 476l-243 991h84l213 -899z" glyph-name="ycircumflex" horiz-adv-x="1003" unicode="ŷ"/><glyph d="M696 1663q4 27 28 45t50.5 18t41.5 -18t11 -45t-26.5 -46.5t-50.5 -19.5q-27 0 -42.5 19.5t-11.5 46.5zM991 1663q4 27 27.5 45t50.5 18t42 -18t11 -45t-26.5 -46.5t-48.5 -19.5q-29 0 -44.5 19.5t-11.5 46.5zM1327 1434h96l-661 -848l-103 -586h-86l105 586l-361 848h95 l323 -764z" glyph-name="Ydieresis" horiz-adv-x="1234" unicode="Ÿ"/><glyph d="M1061 1817h92l-205 -230h-67zM252 78h909l-12 -78h-1012l15 76l1114 1280h-869l15 78h968l-12 -76z" glyph-name="Zacute" horiz-adv-x="1286" unicode="Ź"/><glyph d="M909 1399h92l-204 -230h-68zM246 74h704l-12 -74h-809l12 66l840 876h-666l13 74h768l-11 -66z" glyph-name="zacute" horiz-adv-x="1067" unicode="ź"/><glyph d="M913.5 1569q-26.5 0 -43 19.5t-12.5 46t26.5 46t51.5 19.5t44 -19.5t11 -46t-27.5 -46t-50 -19.5zM252 78h909l-12 -78h-1012l15 76l1114 1280h-869l15 78h968l-12 -76z" glyph-name="Zdotaccent" horiz-adv-x="1286" unicode="Ż"/><glyph d="M761.5 1151q-26.5 0 -43 19.5t-12 46t27 46t51 19.5t44 -19.5t11.5 -46t-28 -46t-50.5 -19.5zM246 74h704l-12 -74h-809l12 66l840 876h-666l13 74h768l-11 -66z" glyph-name="zdotaccent" horiz-adv-x="1067" unicode="ż"/><glyph d="M713 1858h73l144 -203l213 203h74l-261 -259h-75zM252 78h909l-12 -78h-1012l15 76l1114 1280h-869l15 78h968l-12 -76z" glyph-name="Zcaron" horiz-adv-x="1286" unicode="Ž"/><glyph d="M561 1440h74l143 -203l213 203h74l-260 -258h-76zM246 74h704l-12 -74h-809l12 66l840 876h-666l13 74h768l-11 -66z" glyph-name="zcaron" horiz-adv-x="1067" unicode="ž"/><glyph d="M471 1214l-213 -1214h-80l209 1182q27 143 88.5 227t194.5 84l80 -4l-13 -74l-4 2q-6 0 -15 1t-20.5 2t-23.5 1t-26.5 -1t-28 -4t-25.5 -7q-94 -37 -123 -195z" glyph-name="longs" horiz-adv-x="600" unicode="ſ"/><glyph d="M6 -393q184 0 263 67.5t112 262.5l178 1011h-209l12 68h209l-2 -12q41 221 133.5 327.5t296.5 106.5l27 -2h14l-14 -80q-88 0 -121 -6q-106 -14 -165.5 -89t-88.5 -233l-2 -12h289l-12 -68h-289l-174 -989q-33 -178 -95.5 -278.5t-191.5 -137.5q-61 -14 -127 -16h-55z " glyph-name="florin" horiz-adv-x="864" unicode="ƒ"/><glyph d="M410 1085q-20 -117 44 -182t195 -106q35 -12 107 -33q106 -31 160.5 -51.5t126 -64.5t95 -111.5t7.5 -159.5q-23 -127 -110 -219t-199.5 -135t-237.5 -43q-186 0 -303 102t-121 287l86 14q-2 -150 98.5 -239t255.5 -89q154 0 286 83t159 231q20 117 -43.5 182t-192.5 106 q-35 12 -108 33q-86 25 -130 39t-110.5 48t-97.5 70t-49.5 97.5t-3.5 136.5q31 176 173 274.5t322 98.5q172 0 281.5 -90t118.5 -256l-89 -14q-8 135 -94 209.5t-227 74.5q-145 0 -260.5 -78t-138.5 -215zM528 -143h80l-145 -263h-51z" glyph-name="Scommaaccent" horiz-adv-x="1187" unicode="Ș"/><glyph d="M332 762q-14 -84 44 -127t183 -76q170 -45 221 -72q131 -72 105 -219q-23 -133 -138.5 -210.5t-261 -77.5t-242 79.5t-87.5 221.5l80 14q-6 -111 67.5 -177.5t190.5 -66.5q106 0 199 55.5t112 157.5q16 90 -45.5 134t-206.5 81q-170 43 -227 84q-94 68 -72 191 q23 127 134.5 206.5t248.5 79.5q133 0 220 -75.5t85 -200.5l-80 -12q2 100 -64.5 158.5t-168.5 58.5q-104 0 -191.5 -56.5t-105.5 -150.5zM412 -143h80l-146 -263h-51z" glyph-name="scommaaccent" horiz-adv-x="944" unicode="ș"/><glyph d="M342 1434h1036l-12 -78h-477l-240 -1356h-84l240 1356h-477zM537 -143h79l-145 -263h-51z" glyph-name="uni021A" horiz-adv-x="1214" unicode="Ț"/><glyph d="M684 946h-217l-127 -708q-18 -102 2 -144.5t104 -42.5q51 0 95 15l-15 -74q-51 -12 -104 -12q-109 0 -147.5 58t-16.5 191l127 717h-162l13 70h163l45 250l80 12l-47 -262h217zM367 -143h79l-145 -263h-51z" glyph-name="uni021B" horiz-adv-x="636" unicode="ț"/><glyph d="M-160 -395q113 -4 178.5 8t109.5 57t64.5 108.5t43.5 186.5l184 1051h80l-191 -1075q-43 -246 -137 -329t-344 -83z" glyph-name="uni0237" horiz-adv-x="493" unicode="ȷ"/><glyph d="M483 1167h-73l258 258h77l168 -258h-73l-144 203z" glyph-name="circumflex" horiz-adv-x="911" unicode="ˆ"/><glyph d="M465 1466h74l143 -202l213 202h74l-260 -258h-76z" glyph-name="caron" horiz-adv-x="913" unicode="ˇ"/><glyph d="M836 1409h75q-18 -104 -93 -169.5t-177 -65.5q-104 0 -155.5 65.5t-32.5 169.5h75q-12 -72 19 -120t104.5 -48t123 48t61.5 120z" glyph-name="breve" horiz-adv-x="866" unicode="˘"/><glyph d="M477.5 1174q-26.5 0 -43 19t-12.5 46t26.5 46.5t51 19.5t44 -19.5t11.5 -46.5t-27.5 -46t-50 -19z" glyph-name="dotaccent" horiz-adv-x="538" unicode="˙"/><glyph d="M608 1182q-80 0 -128 53t-34 137q14 86 81 140.5t149 54.5t127 -54.5t31 -140.5q-14 -84 -79 -137t-147 -53zM616 1239q55 0 100.5 37t55.5 96.5t-20.5 99t-87.5 39.5q-55 0 -101.5 -39.5t-56.5 -99.5q-8 -59 22.5 -96t87.5 -37z" glyph-name="ring" horiz-adv-x="794" unicode="˚"/><glyph d="M350 -436q-109 0 -158 48t-34 134q33 172 313 293l37 -39q-240 -106 -264 -240q-8 -53 23.5 -89t111.5 -33q59 0 100 22l8 -68q-43 -28 -137 -28z" glyph-name="ogonek" horiz-adv-x="761" unicode="˛"/><glyph d="M401 1118q14 90 69.5 127t111.5 37q53 0 109.5 -63.5t101.5 -63.5q80 0 96 105h55q-12 -84 -63.5 -124t-104.5 -40q-57 0 -115.5 64.5t-101.5 64.5q-35 0 -63.5 -27t-38.5 -80h-56z" glyph-name="tilde" horiz-adv-x="925" unicode="˜"/><glyph d="M586 1434h90l-189 -230h-71zM829 1434h95l-187 -230h-71z" glyph-name="hungarumlaut" horiz-adv-x="874" unicode="˝"/><glyph d="M291 -143h80l-146 -263h-51z" glyph-name="uni0326" horiz-adv-x="638" unicode="̦"/><glyph d="M96 0l744 1434h106l238 -1434h-1088zM219 76h868l-208 1274z" glyph-name="Delta" horiz-adv-x="1280" unicode="Δ"/><glyph d="M674 0h-512l14 76h371q-33 14 -73 44t-87 84t-77.5 125.5t-47 169t5.5 212.5q55 324 279.5 533.5t527.5 209.5q305 0 452.5 -209t92.5 -534q-25 -137 -91.5 -257t-147.5 -195t-148.5 -120t-116.5 -63h391l-12 -76h-532l12 76q203 66 359.5 221.5t201.5 413.5 q49 281 -75 474t-400.5 193t-468 -192.5t-242.5 -474.5q-18 -143 -3 -247t73.5 -182.5t123 -127t144.5 -78.5z" glyph-name="Omega" horiz-adv-x="1636" unicode="Ω"/><glyph d="M1155 1016l-178 -1016h-80l45 250q-61 -115 -169.5 -192.5t-246.5 -77.5q-201 0 -268 163l-104 -594h-80l260 1467h78l-117 -662q-23 -129 49 -216t205 -87q158 0 279.5 124t156.5 314l92 527h78z" glyph-name="mu" horiz-adv-x="1130" unicode="μ"/><glyph d="M268 942l13 74h964l-12 -74h-141l-166 -942h-78l166 942h-525l-165 -942h-80l166 942h-142z" glyph-name="pi" horiz-adv-x="1187" unicode="π"/><glyph d="M1174 1817l110 -230h-74l-135 230h99zM2015 1434h86l-657 -1434h-103l-149 1264l-598 -1264h-105l-151 1434h88l137 -1332l627 1332h59l162 -1332z" glyph-name="Wgrave" horiz-adv-x="1933" unicode="Ẁ"/><glyph d="M879 1399l110 -230h-74l-135 230h99zM1518 1016h81l-479 -1016h-88l-129 901l-448 -901h-86l-121 1016h80l100 -926l459 926h69l136 -926z" glyph-name="wgrave" horiz-adv-x="1488" unicode="ẁ"/><glyph d="M1393 1817h92l-205 -230h-68zM2015 1434h86l-657 -1434h-103l-149 1264l-598 -1264h-105l-151 1434h88l137 -1332l627 1332h59l162 -1332z" glyph-name="Wacute" horiz-adv-x="1933" unicode="Ẃ"/><glyph d="M1096 1399h92l-205 -230h-68zM1518 1016h81l-479 -1016h-88l-129 901l-448 -901h-86l-121 1016h80l100 -926l459 926h69l136 -926z" glyph-name="wacute" horiz-adv-x="1488" unicode="ẃ"/><glyph d="M1046.5 1663q4.5 27 28 45t50 18t42 -18t11.5 -45t-27 -46.5t-51 -19.5q-27 0 -42.5 19.5t-11 46.5zM1341.5 1663q4.5 27 28 45t50 18t42 -18t11 -45t-27 -46.5t-48.5 -19.5q-29 0 -44.5 19.5t-11 46.5zM2015 1434h86l-657 -1434h-103l-149 1264l-598 -1264h-105 l-151 1434h88l137 -1332l627 1332h59l162 -1332z" glyph-name="Wdieresis" horiz-adv-x="1933" unicode="Ẅ"/><glyph d="M752 1245.5q4 26.5 27.5 45t50 18.5t42 -18.5t11.5 -45t-26.5 -46t-51.5 -19.5q-27 0 -42 19.5t-11 46zM1046.5 1245.5q4.5 26.5 28 45t50 18.5t42 -18.5t11.5 -45t-27 -46t-49 -19.5q-29 0 -44.5 19.5t-11 46zM1518 1016h81l-479 -1016h-88l-129 901l-448 -901h-86 l-121 1016h80l100 -926l459 926h69l136 -926z" glyph-name="wdieresis" horiz-adv-x="1488" unicode="ẅ"/><glyph d="M1159 586h-1016l15 80h1016z" glyph-name="endash" horiz-adv-x="1095" unicode="–"/><glyph d="M2189 582h-2048l15 77h2048z" glyph-name="emdash" horiz-adv-x="2127" unicode="—"/><glyph d="M543 1434h69l-186 -510h-92z" glyph-name="quoteleft" horiz-adv-x="530" unicode="‘"/><glyph d="M406 924h-72l188 510h90z" glyph-name="quoteright" horiz-adv-x="532" unicode="’"/><glyph d="M184 -317h-69l182 514h90z" glyph-name="quotesinglbase" horiz-adv-x="522" unicode="‚"/><glyph d="M854 1434h70l-187 -510h-92zM557 1434h70l-201 -510h-92z" glyph-name="quotedblleft" horiz-adv-x="841" unicode="“"/><glyph d="M403 924h-69l186 510h92zM700 924h-69l200 510h93z" glyph-name="quotedblright" horiz-adv-x="841" unicode="”"/><glyph d="M180 -348h-71l188 512h92zM477 -348h-71l202 512h92z" glyph-name="quotedblbase" horiz-adv-x="841" unicode="„"/><glyph d="M369 936l14 80h287l73 418h84l-73 -418h286l-14 -80h-287l-164 -936h-86l166 936h-286z" glyph-name="dagger" horiz-adv-x="1064" unicode="†"/><glyph d="M369 936l14 80h358l72 418h86l-74 -418h359l-15 -80h-358l-152 -856h359l-12 -80h-359l-74 -418h-84l72 418h-358l14 80h358l152 856h-358z" glyph-name="daggerdbl" horiz-adv-x="1208" unicode="‡"/><glyph d="M436 614q-43 0 -68.5 31t-17.5 72t44 71.5t79 30.5t67.5 -30.5t18.5 -71.5q-8 -41 -44 -72t-79 -31z" glyph-name="bullet" horiz-adv-x="655" unicode="•"/><glyph d="M256 -4q-31 0 -47 19.5t-10 50.5q4 29 28.5 49t53 20t45 -21.5t10.5 -47.5q-4 -31 -27.5 -50.5t-52.5 -19.5zM571 -4q-31 0 -47 19.5t-10 50.5q4 29 28.5 49t53.5 20t45 -21.5t10 -47.5q-4 -31 -27.5 -50.5t-52.5 -19.5zM887 -4q-31 0 -47.5 19.5t-10.5 50.5q4 29 29 49 t53.5 20t45 -21.5t10.5 -47.5q-4 -31 -27.5 -50.5t-52.5 -19.5z" glyph-name="ellipsis" horiz-adv-x="1142" unicode="…"/><glyph d="M520 848q-133 0 -192.5 83t-36.5 220q25 137 115 220t223 83t192.5 -83t36.5 -220q-23 -135 -114 -219t-224 -84zM256 -12l-84 12l1284 1446l84 -12zM614.5 1380q-96.5 0 -163 -63.5t-82.5 -165.5q-18 -102 25.5 -165.5t140 -63.5t163 63.5t84.5 165.5 q16 102 -27.5 165.5t-140 63.5zM1083 -20q-133 0 -192.5 82.5t-36.5 220.5q25 135 115 218t221 83q174 0 219 -150q94 150 270 150q133 0 193.5 -83t36.5 -218q-25 -137 -115 -220t-223 -83q-172 0 -217 149q-95 -149 -271 -149zM932 281q-18 -102 25.5 -165t140.5 -63 q94 0 160.5 62.5t85 165t-25.5 166t-140.5 63.5t-163 -63.5t-82.5 -165.5zM1419 281q-18 -102 26 -165t140 -63t163 62.5t85 165.5q16 102 -28 165.5t-140 63.5t-163 -63.5t-83 -165.5z" glyph-name="perthousand" horiz-adv-x="1947" unicode="‰"/><glyph d="M713 1055h98l-438 -426l289 -424h-101l-278 424z" glyph-name="guilsinglleft" horiz-adv-x="794" unicode="‹"/><glyph d="M356 1055h101l278 -426l-430 -424h-98l436 424z" glyph-name="guilsinglright" horiz-adv-x="794" unicode="›"/><glyph d="M-436 0l1315 1454l71 -20l-1317 -1454z" glyph-name="fraction" horiz-adv-x="264" unicode="⁄"/><glyph d="M309 496h-123l15 75h114q8 147 50 293h-113l14 76h125q76 227 220.5 370.5t363.5 143.5q326 0 393 -319l-88 -15q-59 256 -317 256q-344 0 -492 -436h614l-14 -76h-622q-43 -170 -52 -293h623l-14 -75h-615q-4 -438 338 -439q258 0 408 256l82 -16q-178 -317 -504 -317 q-115 0 -198 41.5t-127 115.5t-63.5 163.5t-17.5 195.5z" glyph-name="Euro" horiz-adv-x="1288" unicode="€"/><glyph d="M969 1434l-13 -66h-254l-129 -737h-69l129 737h-250l10 66h576zM1782 1434h96l-141 -803h-68l123 700l-418 -700h-47l-168 700l-123 -700h-69l141 803h94l166 -699z" glyph-name="trademark" horiz-adv-x="1828" unicode="™"/><glyph d="M791 1024q150 0 249 -80t121 -190q18 178 -5 306t-81.5 194.5t-126 95t-149.5 28.5q-162 0 -269 -57l-6 74q115 59 275 59q39 0 75.5 -5t85 -18.5t88 -40t79.5 -65.5t67 -101.5t43 -141t13 -189.5t-25 -242l-13 -73q-49 -276 -215 -437t-383 -161q-213 0 -327.5 149.5 t-75.5 374.5t207 372.5t373 147.5zM627 55q174 0 315 129t174 322q33 195 -63.5 318.5t-270.5 123.5q-176 0 -316 -127t-173 -317q-35 -190 60.5 -319.5t273.5 -129.5z" glyph-name="partialdiff" horiz-adv-x="1230" unicode="∂"/><glyph d="M63 -328l310 1762h1034l-309 -1762h-84l297 1686h-867l-297 -1686h-84z" glyph-name="product" horiz-adv-x="1275" unicode="∏"/><glyph d="M455 1434h1009l-14 -76h-913l381 -793l-664 -817h913l-12 -76h-1010l15 76l663 817l-381 793z" glyph-name="summation" horiz-adv-x="1394" unicode="∑"/><glyph d="M1044 586h-786l14 80h787z" glyph-name="minus" horiz-adv-x="1095" unicode="−"/><glyph d="M266 815l13 74h299l116 -770l619 1329l76 -14l-672 -1434h-84l-125 815h-242z" glyph-name="radical" horiz-adv-x="1191" unicode="√"/><glyph d="M193 520q20 117 96 204t166 126t180 39q242 0 389 -305q256 305 496 305q145 0 243.5 -98.5t67.5 -270.5t-164 -270t-278 -98q-242 0 -390 305q-256 -305 -495 -305q-143 0 -242.5 97t-68.5 271zM1505 817q-113 0 -221 -77.5t-231 -221.5q72 -141 153.5 -218t194.5 -77 q133 0 232.5 88t120 209t-47.5 209t-201 88zM270.5 520q-20.5 -121 47 -209t200.5 -88q199 0 453 299q-72 141 -154 218t-194 77q-133 0 -232.5 -88t-120 -209z" glyph-name="infinity" horiz-adv-x="1843" unicode="∞"/><glyph d="M53 -395q80 -8 135 4q102 20 156.5 95t83.5 235l190 1081q39 221 128.5 327.5t287.5 106.5l56 -2l-13 -76q-63 10 -135 -2q-102 -20 -155.5 -96t-81.5 -234l-191 -1083q-39 -219 -129 -325.5t-289 -106.5q-43 0 -55 4z" glyph-name="integral" horiz-adv-x="956" unicode="∫"/><glyph d="M326 684q25 145 106.5 201.5t169.5 56.5q68 0 120 -35t79.5 -75.5t70.5 -75.5t95 -35q63 0 113 46t65 136h78q-25 -141 -110 -198.5t-169 -57.5q-61 0 -110.5 35t-77 77t-73.5 76.5t-105 32.5q-143 0 -177 -184h-75zM264 336q25 145 107 201.5t170 56.5q68 0 120 -35 t79.5 -76t70.5 -75.5t94 -34.5q63 0 113.5 46t64.5 136h78q-16 -100 -72.5 -161.5t-106.5 -78t-99 -16.5q-61 0 -110.5 35t-77 77t-74 75.5t-105.5 33.5q-145 -4 -176 -184h-76z" glyph-name="approxequal" horiz-adv-x="1267" unicode="≈"/><glyph d="M1126 791h-276l-246 -289h473l-14 -80h-520l-148 -172l-73 16l133 156h-209l14 80h256l248 289h-455l15 79h501l172 201l72 -16l-156 -185h228z" glyph-name="notequal" horiz-adv-x="1159" unicode="≠"/><glyph d="M1178 1329l-17 -88l-755 -373l624 -370l-16 -88l-713 428l12 63zM975 141h-789l15 78h788z" glyph-name="lessequal" horiz-adv-x="1103" unicode="≤"/><glyph d="M377 1241l14 88l713 -428l-12 -63l-863 -428l17 88l755 370zM967 141h-789l15 78h788z" glyph-name="greaterequal" horiz-adv-x="1097" unicode="≥"/><glyph d="M250 729l565 705h55l320 -705l-572 -729h-55zM1100 729l-273 612l-487 -612l268 -635z" glyph-name="lozenge" horiz-adv-x="1181" unicode="◊"/><glyph d="M1143 1434h94l-870 -1434h-91l345 567l-263 867h97l225 -775z" glyph-name="Y.aalt" horiz-adv-x="1089"/><glyph d="M1180 1016h80l-179 -1016h-80l43 252q-80 -133 -203.5 -202.5t-254.5 -69.5q-217 0 -325.5 152.5t-70 373.5t202.5 375.5t379 154.5q127 0 229.5 -69.5t135.5 -202.5zM1092 508q35 195 -51.5 325t-274.5 130q-190 0 -327.5 -132.5t-170 -325t57.5 -322.5t280 -130 q188 0 320.5 130t165.5 325z" glyph-name="a.aalt" horiz-adv-x="1243"/><glyph d="M109 0l475 1434h96l170 -1284l623 1284h92l-29 -1434h-86l33 1288l-629 -1288h-61l-175 1288l-421 -1288h-88z" glyph-name="M.aalt" horiz-adv-x="1644"/><glyph d="M1477 0h-84l-385 899l-705 -899h-84l254 1434h84l-225 -1280l678 862h34l375 -862l226 1280h84z" glyph-name="W.aalt" horiz-adv-x="1695"/><glyph d="M248 1016h84l205 -914l503 914h84l-585 -1053q-121 -217 -225.5 -325.5t-227.5 -108.5q-53 0 -98 10l14 76q33 -12 88 -12q104 0 190.5 99t198.5 300z" glyph-name="y.aalt" horiz-adv-x="1009"/><glyph d="M1214 1165l-16 -88l-756 -340l637 -342l-16 -88l-719 391l14 76z" glyph-name="less.aalt" horiz-adv-x="1226"/><glyph d="M412 1077l14 88l719 -391l-12 -76l-859 -391l17 88l758 342z" glyph-name="greater.aalt" horiz-adv-x="1226"/><glyph d="M1145 893h-817l14 80h817zM1081 524h-817l15 80h817z" glyph-name="equal.aalt" horiz-adv-x="1159"/><glyph d="M848 688h-576l15 80h575z" glyph-name="hyphen.aalt" horiz-adv-x="876"/><glyph d="M905 1634h-287l-323 -1833h287l-15 -80h-372l352 1993h371z" glyph-name="bracketleft.aalt" horiz-adv-x="675"/><glyph d="M416 1636l221 -1749l-82 -14l-221 1751z" glyph-name="backslash.aalt" horiz-adv-x="704"/><glyph d="M637 1634h-287l15 80h370l-352 -1993h-371l15 80h286z" glyph-name="bracketright.aalt" horiz-adv-x="675"/><glyph d="M557 1014q-47 -256 -235 -322q78 -31 110.5 -113.5t11.5 -203.5l-71 -410q-25 -135 15 -175t179 -40l45 2l-12 -78q-31 -2 -59 -2q-180 0 -230.5 69t-13.5 273l65 373q23 123 -24 191.5t-164 68.5l16 90q117 0 188 68.5t91 193.5l68 377q35 201 109.5 269.5t254.5 68.5 l57 -2l-14 -80q-25 2 -43 2q-139 0 -193.5 -39t-78.5 -172z" glyph-name="braceleft.aalt" horiz-adv-x="716"/><glyph d="M518 1014l74 409q25 133 -16 172t-181 39l-45 -2l12 80q33 2 60 2q180 0 230 -67.5t16 -270.5l-68 -377q-20 -125 27 -193.5t161 -68.5l-16 -90q-115 0 -185.5 -68.5t-92.5 -191.5l-66 -373q-37 -205 -110.5 -273.5t-254.5 -68.5l-59 2l14 78q27 -2 45 -2q137 0 191.5 40 t79.5 175l72 410q20 119 83.5 203t151.5 114q-166 66 -123 322z" glyph-name="braceright.aalt" horiz-adv-x="716"/><glyph d="M313 -328h-84l367 2089h86z" glyph-name="bar.aalt" horiz-adv-x="655"/><glyph d="M369 371l-50 57l345 291l-240 291l68 59l239 -291l342 291l49 -59l-344 -291l240 -291l-68 -57l-239 293z" glyph-name="multiply.aalt" horiz-adv-x="1187"/><glyph d="M1063 688h-787l15 80h786z" glyph-name="minus.aalt" horiz-adv-x="1095"/><glyph d="M706.5 983q-28.5 0 -45 20.5t-12.5 49t28.5 49t53.5 20.5t45.5 -20.5t11.5 -48.5q-6 -29 -29.5 -49.5t-52 -20.5zM1032 688h-756l15 80h756zM592 332q-29 0 -45.5 19.5t-12 48t29 49t53 20.5t45 -20.5t10.5 -49.5q-4 -27 -27.5 -47t-52.5 -20z" glyph-name="divide.aalt" horiz-adv-x="1064"/><glyph d="M879 1778q-135 -168 -260 -458t-181 -603q-53 -342 -30.5 -612.5t100.5 -432.5h-76q-88 158 -111.5 441.5t31.5 603.5q55 309 181 603t270 458h76z" glyph-name="parenleft.aalt" horiz-adv-x="645"/><glyph d="M395 1778h76q86 -164 108.5 -454t-30.5 -607q-53 -309 -179 -598t-270 -447h-75q133 162 257 445.5t181 599.5q51 342 29.5 617.5t-97.5 443.5z" glyph-name="parenright.aalt" horiz-adv-x="645"/><glyph d="M72 -102l837 1749l76 -15l-838 -1751z" glyph-name="slash.aalt" horiz-adv-x="786"/><glyph d="M884.5 1454q116.5 0 199.5 -45t126 -116.5t62.5 -170t16.5 -198t-23 -207.5q-25 -137 -71 -260t-121 -234.5t-190.5 -177t-259 -65.5t-238.5 67.5t-128 174t-40 237.5t22 258q18 109 50 208t86 197.5t123.5 170t169 116.5t216 45zM637 57q109 0 199 48.5t146 117 t100 164.5t64.5 172t35.5 158q12 66 17 129t5 143t-19.5 144.5t-54 122t-101 89t-159.5 31.5q-109 0 -198.5 -48t-146 -116.5t-100.5 -165t-65.5 -172t-35.5 -157.5q-12 -68 -17.5 -130.5t-4.5 -142t20.5 -144t54.5 -122t101.5 -89.5t158.5 -32z" glyph-name="zero.aalt" horiz-adv-x="1255"/><glyph d="M586 1356l14 78h320l-254 -1434h-82l237 1356h-235z" glyph-name="one.tnum" horiz-adv-x="1228"/><glyph d="M346 1044q43 174 193.5 292t345.5 118q193 0 304 -121t77 -315q-45 -252 -320 -455l-657 -485h813l-12 -78h-936l14 80l731 538q248 182 285 400q29 160 -62.5 259t-247.5 99q-164 0 -288.5 -98t-161.5 -248z" glyph-name="two.tnum" horiz-adv-x="1228"/><glyph d="M211 408l82 12q-29 -164 64.5 -263.5t256.5 -99.5q158 0 290 95.5t159 250.5q27 143 -74.5 230.5t-251.5 87.5h-96l14 76h99q125 0 235.5 80.5t130.5 201.5q25 133 -57 215t-217 82q-137 0 -240.5 -88t-124.5 -225l-80 14q31 172 164 274.5t297 102.5t267.5 -100.5 t72.5 -272.5q-18 -102 -96 -190t-199 -129q123 -31 192.5 -130.5t47.5 -230.5q-35 -197 -197 -309t-350 -112q-186 0 -304 114.5t-85 313.5z" glyph-name="three.tnum" horiz-adv-x="1228"/><glyph d="M1087 1434h84l-172 -971h191l-14 -78h-189l-69 -385h-82l67 385h-702l12 78zM1065 1303l-754 -840h607z" glyph-name="four.aalt" horiz-adv-x="1228"/><glyph d="M512 1434h737l-12 -78h-668l-133 -588q74 72 175.5 113t201.5 41q190 0 294.5 -139.5t70.5 -338.5q-35 -203 -194 -333.5t-359 -130.5q-170 0 -276.5 97t-123.5 261l88 16q14 -137 101.5 -217t222.5 -80q164 0 296 108.5t163 280.5q29 170 -60.5 285t-251.5 115 q-98 0 -197.5 -47t-170.5 -133l-78 26z" glyph-name="five.aalt" horiz-adv-x="1228"/><glyph d="M795 946q211 0 323.5 -144.5t77.5 -342.5q-37 -209 -202 -344t-376 -135q-205 0 -324.5 140t-82.5 341q31 190 231 418q217 252 514 585l84 -18l-520 -584q117 84 275 84zM633 57q172 0 311 115t170 287q31 174 -67.5 292.5t-270.5 118.5q-170 0 -311 -118.5t-172 -292.5 q-33 -174 66.5 -288t273.5 -114z" glyph-name="six.aalt" horiz-adv-x="1228"/><glyph d="M471 1434h774l-14 -78l-776 -1370l-78 14l772 1356h-692z" glyph-name="seven.aalt" horiz-adv-x="1228"/><glyph d="M913 764q111 -33 180.5 -133.5t43.5 -245.5q-31 -180 -182.5 -292.5t-344.5 -112.5q-190 0 -301.5 112.5t-79.5 292.5q27 145 130.5 245.5t224.5 133.5q-96 33 -149.5 121t-31.5 207q27 158 161 260t306 102t270.5 -102.5t69.5 -259.5q-20 -121 -104 -207t-193 -121z M485 1087q-23 -127 59.5 -208.5t211.5 -81.5t239.5 82t132.5 208q20 125 -57.5 207t-212.5 82t-244 -82t-129 -207zM623 57q156 0 281.5 92.5t150.5 239.5q27 150 -68.5 241t-245 91t-276.5 -92t-154 -242q-25 -145 66.5 -237.5t245.5 -92.5z" glyph-name="eight.aalt" horiz-adv-x="1228"/><glyph d="M686 483q-213 0 -325.5 144.5t-77.5 343.5q37 209 201.5 344t375.5 135q205 0 325 -140.5t83 -340.5q-31 -190 -232 -418q-217 -252 -514 -586l-84 19l520 583q-116 -84 -272 -84zM846 1372q-172 0 -311.5 -114.5t-167.5 -286.5q-31 -174 66 -293t269 -119t312.5 118 t173.5 294q31 174 -69.5 287.5t-272.5 113.5z" glyph-name="nine.aalt" horiz-adv-x="1228"/><glyph d="M1202 909l-12 -80h-402l-57 -317h-84l58 317h-404l14 80h402l59 336h84l-59 -336h401zM1102 332h-889l14 80h889z" glyph-name="plusminus.aalt" horiz-adv-x="1196"/><glyph d="M1219 688h-1016l14 80h1016z" glyph-name="endash.aalt" horiz-adv-x="1177"/><glyph d="M2249 684h-2048l14 78h2048z" glyph-name="emdash.aalt" horiz-adv-x="2209"/><glyph d="M211 623q20 117 96 203.5t166 125.5t180 39q242 0 389 -305q256 305 496 305q145 0 243.5 -98t68 -270t-164 -270.5t-278.5 -98.5q-242 0 -389 305q-256 -305 -496 -305q-143 0 -242.5 97.5t-68.5 271.5zM1524 920q-113 0 -221.5 -78t-231.5 -221q72 -141 154 -218 t194 -77q133 0 232.5 88t120 208.5t-47 209t-200.5 88.5zM288.5 622.5q-20.5 -120.5 47 -208.5t201.5 -88q199 0 452 299q-72 141 -153.5 218t-194.5 77q-133 0 -232.5 -88.5t-120 -209z" glyph-name="infinity.aalt" horiz-adv-x="1843"/><glyph d="M344 786q25 145 106.5 201.5t170.5 56.5q68 0 120 -34.5t79.5 -75.5t70.5 -76t94 -35q63 0 113.5 46t64.5 137h78q-25 -141 -109.5 -198.5t-168.5 -57.5q-61 0 -110.5 34.5t-77 76.5t-74 77t-105.5 33q-143 0 -176 -185h-76zM283 438q25 145 106.5 201.5t169.5 56.5 q68 0 120 -34.5t79.5 -75.5t70.5 -76t95 -35q63 0 113 46t65 136h78q-16 -100 -72.5 -161.5t-107 -78t-99.5 -16.5q-61 0 -110.5 35t-77 77t-73.5 76t-105 34q-145 -4 -177 -185h-75z" glyph-name="approxequal.aalt" horiz-adv-x="1267"/><glyph d="M1145 893h-277l-245 -289h473l-15 -80h-520l-147 -172l-74 17l133 155h-209l15 80h256l247 289h-454l14 80h502l172 201l71 -17l-155 -184h227z" glyph-name="notequal.aalt" horiz-adv-x="1159"/><glyph d="M1196 1432l-16 -89l-756 -372l625 -371l-17 -88l-713 428l13 64zM993 244h-788l14 78h789z" glyph-name="lessequal.aalt" horiz-adv-x="1103"/><glyph d="M395 1343l15 89l712 -428l-12 -64l-862 -428l16 88l756 371zM985 244h-788l14 78h788z" glyph-name="greaterequal.aalt" horiz-adv-x="1097"/><glyph d="M729 1149h98l-438 -426l289 -424h-100l-279 424z" glyph-name="guilsinglleft.aalt" horiz-adv-x="794"/><glyph d="M373 1149h100l279 -426l-430 -424h-99l436 424z" glyph-name="guilsinglright.aalt" horiz-adv-x="794"/><glyph d="M299 715l383 442h88l-381 -442l225 -443h-88zM598 715l385 442h88l-379 -442l223 -443h-88z" glyph-name="guillemotleft.aalt" horiz-adv-x="1036"/><glyph d="M764 1157l227 -442l-383 -443h-88l381 443l-225 442h88zM463 1157l229 -442l-385 -443h-88l379 443l-223 442h88z" glyph-name="guillemotright.aalt" horiz-adv-x="1036"/><glyph d="M729 1419l111 -229h-74l-135 229h98zM1180 1016h80l-179 -1016h-80l43 252q-80 -133 -203.5 -202.5t-254.5 -69.5q-217 0 -325.5 152.5t-70 373.5t202.5 375.5t379 154.5q127 0 229.5 -69.5t135.5 -202.5zM1092 508q35 195 -51.5 325t-274.5 130q-190 0 -327.5 -132.5 t-170 -325t57.5 -322.5t280 -130q188 0 320.5 130t165.5 325z" glyph-name="agrave.aalt" horiz-adv-x="1243"/><glyph d="M946 1419h92l-204 -229h-68zM1180 1016h80l-179 -1016h-80l43 252q-80 -133 -203.5 -202.5t-254.5 -69.5q-217 0 -325.5 152.5t-70 373.5t202.5 375.5t379 154.5q127 0 229.5 -69.5t135.5 -202.5zM1092 508q35 195 -51.5 325t-274.5 130q-190 0 -327.5 -132.5t-170 -325 t57.5 -322.5t280 -130q188 0 320.5 130t165.5 325z" glyph-name="aacute.aalt" horiz-adv-x="1243"/><glyph d="M629 1171h-74l258 259h78l168 -259h-74l-143 203zM1180 1016h80l-179 -1016h-80l43 252q-80 -133 -203.5 -202.5t-254.5 -69.5q-217 0 -325.5 152.5t-70 373.5t202.5 375.5t379 154.5q127 0 229.5 -69.5t135.5 -202.5zM1092 508q35 195 -51.5 325t-274.5 130 q-190 0 -327.5 -132.5t-170 -325t57.5 -322.5t280 -130q188 0 320.5 130t165.5 325z" glyph-name="acircumflex.aalt" horiz-adv-x="1243"/><glyph d="M600 1265.5q4 26.5 27.5 45t50.5 18.5t42 -18.5t11 -45t-26.5 -46t-51.5 -19.5q-27 0 -42 19.5t-11 46zM895 1265.5q4 26.5 27.5 45t50 18.5t42 -18.5t11.5 -45t-26.5 -46t-49.5 -19.5q-29 0 -44 19.5t-11 46zM1180 1016h80l-179 -1016h-80l43 252 q-80 -133 -203.5 -202.5t-254.5 -69.5q-217 0 -325.5 152.5t-70 373.5t202.5 375.5t379 154.5q127 0 229.5 -69.5t135.5 -202.5zM1092 508q35 195 -51.5 325t-274.5 130q-190 0 -327.5 -132.5t-170 -325t57.5 -322.5t280 -130q188 0 320.5 130t165.5 325z" glyph-name="adieresis.aalt" horiz-adv-x="1243"/><glyph d="M797 1161q-80 0 -128 53.5t-34 137.5q14 86 80.5 140t148.5 54t127 -54t31 -140q-14 -84 -78.5 -137.5t-146.5 -53.5zM805 1219q55 0 100 36.5t55.5 96t-20.5 99.5t-88 40q-55 0 -101 -40t-57 -99q-8 -59 23 -96t88 -37zM1180 1016h80l-179 -1016h-80l43 252 q-80 -133 -203.5 -202.5t-254.5 -69.5q-217 0 -325.5 152.5t-70 373.5t202.5 375.5t379 154.5q127 0 229.5 -69.5t135.5 -202.5zM1092 508q35 195 -51.5 325t-274.5 130q-190 0 -327.5 -132.5t-170 -325t57.5 -322.5t280 -130q188 0 320.5 130t165.5 325z" glyph-name="aring.aalt" horiz-adv-x="1243"/><glyph d="M481 1190l15 74h639l-15 -74h-639zM1180 1016h80l-179 -1016h-80l43 252q-80 -133 -203.5 -202.5t-254.5 -69.5q-217 0 -325.5 152.5t-70 373.5t202.5 375.5t379 154.5q127 0 229.5 -69.5t135.5 -202.5zM1092 508q35 195 -51.5 325t-274.5 130q-190 0 -327.5 -132.5 t-170 -325t57.5 -322.5t280 -130q188 0 320.5 130t165.5 325z" glyph-name="amacron.aalt" horiz-adv-x="1243"/><glyph d="M993 1411h76q-18 -104 -93 -169.5t-177 -65.5q-104 0 -155.5 65.5t-33.5 169.5h76q-12 -72 18.5 -120t104.5 -48t123 48t61 120zM1180 1016h80l-179 -1016h-80l43 252q-80 -133 -203.5 -202.5t-254.5 -69.5q-217 0 -325.5 152.5t-70 373.5t202.5 375.5t379 154.5 q127 0 229.5 -69.5t135.5 -202.5zM1092 508q35 195 -51.5 325t-274.5 130q-190 0 -327.5 -132.5t-170 -325t57.5 -322.5t280 -130q188 0 320.5 130t165.5 325z" glyph-name="abreve.aalt" horiz-adv-x="1243"/><glyph d="M1180 1016h80l-179 -1016q-240 -106 -264 -240q-8 -53 23.5 -89t111.5 -33q59 0 101 22l8 -68q-43 -29 -137 -28q-109 0 -158 48t-35 134q33 160 275 274l38 232q-80 -133 -203.5 -202.5t-254.5 -69.5q-217 0 -325.5 152.5t-70 373.5t202.5 375.5t379 154.5 q127 0 229.5 -69.5t135.5 -202.5zM1092 508q35 195 -51.5 325t-274.5 130q-190 0 -327.5 -132.5t-170 -325t57.5 -322.5t280 -130q188 0 320.5 130t165.5 325z" glyph-name="aogonek.aalt" horiz-adv-x="1243"/><glyph d="M1141 768l-15 -80h-385l-71 -405h-84l71 405h-387l15 80h387l71 403h84l-71 -403h385z" glyph-name="plus.aalt" horiz-adv-x="1155"/><glyph d="M809 1448q29 0 45 -20.5t10 -47.5q-4 -29 -27.5 -49t-52 -20t-46 20.5t-11.5 48.5q4 29 28.5 48.5t53.5 19.5zM514 -10q-156 0 -255 102.5t-71 257.5q14 80 65.5 143.5t116 105.5t128 84t114 101.5t62.5 135.5q18 98 28 159h84q-8 -41 -28 -164q-14 -86 -66.5 -153.5 t-117 -111.5t-129 -85t-113.5 -96t-62 -123q-23 -121 55 -200.5t201 -79.5q113 0 209 64.5t150 174.5l76 -12q-59 -139 -182.5 -221t-264.5 -82z" glyph-name="questiondown.aalt" horiz-adv-x="1005"/><glyph d="M499.5 1313q-28.5 0 -45 20.5t-12.5 49t29 49t53.5 20.5t45 -20.5t12.5 -49.5q-6 -29 -30 -49t-52.5 -20zM418 1042h69l-176 -1042h-86z" glyph-name="exclamdown.aalt" horiz-adv-x="536"/><glyph d="M956 1569h-73l258 258h78l167 -258h-73l-144 203zM1477 0h-84l-385 899l-705 -899h-84l254 1434h84l-225 -1280l678 862h34l375 -862l226 1280h84z" glyph-name="Wcircumflex.aalt" horiz-adv-x="1695"/><glyph d="M1057 1817l110 -230h-73l-136 230h99zM1477 0h-84l-385 899l-705 -899h-84l254 1434h84l-225 -1280l678 862h34l375 -862l226 1280h84z" glyph-name="Wgrave.aalt" horiz-adv-x="1695"/><glyph d="M1274 1817h92l-205 -230h-67zM1477 0h-84l-385 899l-705 -899h-84l254 1434h84l-225 -1280l678 862h34l375 -862l226 1280h84z" glyph-name="Wacute.aalt" horiz-adv-x="1695"/><glyph d="M930 1663q4 27 27.5 45t50 18t42 -18t11.5 -45t-26.5 -46.5t-51.5 -19.5q-27 0 -42 19.5t-11 46.5zM1225 1663q4 27 27.5 45t50 18t42 -18t11.5 -45t-26.5 -46.5t-49.5 -19.5q-29 0 -44 19.5t-11 46.5zM1477 0h-84l-385 899l-705 -899h-84l254 1434h84l-225 -1280 l678 862h34l375 -862l226 1280h84z" glyph-name="Wdieresis.aalt" horiz-adv-x="1695"/><glyph d="M969 1817h92l-205 -230h-68zM1143 1434h94l-870 -1434h-91l345 567l-263 867h97l225 -775z" glyph-name="Yacute.aalt" horiz-adv-x="1089"/><glyph d="M651 1569h-73l258 258h77l168 -258h-73l-144 203zM1143 1434h94l-870 -1434h-91l345 567l-263 867h97l225 -775z" glyph-name="Ycircumflex.aalt" horiz-adv-x="1089"/><glyph d="M622.5 1663q4.5 27 28 45t50 18t42 -18t11.5 -45t-26.5 -46.5t-51.5 -19.5q-27 0 -42.5 19.5t-11 46.5zM917.5 1663q4.5 27 28 45t50 18t42 -18t11 -45t-27 -46.5t-48.5 -19.5q-29 0 -44.5 19.5t-11 46.5zM1143 1434h94l-870 -1434h-91l345 567l-263 867h97l225 -775z " glyph-name="Ydieresis.aalt" horiz-adv-x="1089"/></font>
</defs>
</svg>
