<?xml version="1.0" standalone="no"?>
<!DOCTYPE svg PUBLIC "-//W3C//DTD SVG 1.1//EN" "http://www.w3.org/Graphics/SVG/1.1/DTD/svg11.dtd">
<svg xmlns="http://www.w3.org/2000/svg"><metadata>This SVG WebFont was generated by YouWorkForThem.
Â©2020 Typekiln.</metadata><defs><font horiz-adv-x="1196" id="ywftsvg"><font-face ascent="1638" bbox="-446 -479.005 2413 1966" cap-height="1434" descent="-410" font-family="" font-stretch="normal" font-weight="400" panose-1="0 0 0 0 0 0 0 0 0 0" underline-position="0" underline-thickness="0" unicode-range="U+000D-FB02" units-per-em="2048" x-height="1024"/><missing-glyph d="M76 -147l305 1728h827l-305 -1728h-827zM502 1434l-13 -76h381l-6 -39h-90l-14 -76h241l15 76h-76l6 39h76l12 76h-532zM483 1319l-34 -191h532l14 78h-276l20 113h-256zM545 1243h104l-6 -37h-104zM899 1094l-39 -228h-457l-14 -75h533l53 303h-76zM442 1094l-14 -78 h229l-6 -37h-229l-12 -78h307l18 115h35l-18 -115h77l33 193h-420zM668 756l-15 -78h172l-6 -37h-381l6 37h172l15 78h-248l-35 -193h533l14 78l-21 37l35 39l6 39h-247zM324 416l-35 -191h532l35 191h-532zM385 340h381l-6 -39h-381zM283 190l-33 -190h532l15 76h-457l6 39 h457l12 75h-532z" horiz-adv-x="1032"/><glyph d="M1057 1272q-47 0 -74 32.5t-18 79.5q10 47 48 80t85 33t73.5 -32.5t18.5 -80t-47 -80t-86 -32.5zM209 887l24 137h164l25 133q57 338 352 338q16 0 31.5 -1t27 -2t20.5 -1h15l4 -2l-26 -152q-2 2 -19.5 4t-44 3.5t-55.5 -3.5q-59 -12 -92 -50t-47 -115l-27 -152h535 l-181 -1024h-163l155 887h-370l-156 -887h-164l156 887h-164z" glyph-name="uniFB01" horiz-adv-x="1077" unicode="fi"/><glyph d="M209 887l24 137h164l27 152q57 319 350 319h406l-265 -1495h-163l235 1341h-250q-121 0 -145 -145l-31 -172h221l-24 -137h-221l-156 -887h-164l156 887h-164z" glyph-name="uniFB02" horiz-adv-x="1067" unicode="fl"/><glyph d="M76 -147l305 1728h827l-305 -1728h-827zM502 1434l-13 -76h381l-6 -39h-90l-14 -76h241l15 76h-76l6 39h76l12 76h-532zM483 1319l-34 -191h532l14 78h-276l20 113h-256zM545 1243h104l-6 -37h-104zM899 1094l-39 -228h-457l-14 -75h533l53 303h-76zM442 1094l-14 -78 h229l-6 -37h-229l-12 -78h307l18 115h35l-18 -115h77l33 193h-420zM668 756l-15 -78h172l-6 -37h-381l6 37h172l15 78h-248l-35 -193h533l14 78l-21 37l35 39l6 39h-247zM324 416l-35 -191h532l35 191h-532zM385 340h381l-6 -39h-381zM283 190l-33 -190h532l15 76h-457l6 39 h457l12 75h-532z" glyph-name=".notdef" horiz-adv-x="1032"/><glyph glyph-name="glyph1" horiz-adv-x="0"/><glyph glyph-name="glyph1" horiz-adv-x="0"/><glyph glyph-name="space" horiz-adv-x="532" unicode=" "/><glyph d="M471 412h-162l172 1022h178zM315 -23q-53 0 -82.5 38t-21.5 91q10 51 54 88t95.5 37t81 -36.5t21.5 -88.5q-8 -53 -52.5 -91t-95.5 -38z" glyph-name="exclam" horiz-adv-x="636" unicode="!"/><glyph d="M334 961l82 493h170l-90 -493h-162zM791 1454h170l-91 -493h-161z" glyph-name="quotedbl" horiz-adv-x="864" unicode="&quot;"/><glyph d="M303 -2l94 352h-291l44 168h292l84 316h-288l41 167h290l95 351h170l-93 -351h355l92 351h172l-94 -351h290l-40 -167h-293l-84 -316h288l-41 -168h-292l-95 -352h-172l95 352h-355l-92 -352h-172zM688 842l-86 -332h373l86 332h-373z" glyph-name="numbersign" horiz-adv-x="1425" unicode="#"/><glyph d="M197 369l174 30q-2 -100 58 -166.5t157 -89.5l94 531q-88 29 -142.5 53.5t-111.5 68.5t-77.5 108.5t-4.5 152.5q29 168 164 273.5t309 121.5l23 123h157l-24 -129q135 -25 221 -116t94 -234l-172 -29q-14 174 -170 221l-88 -497q72 -23 118 -41.5t103.5 -52t86 -71.5 t44 -98.5t2.5 -134.5q-31 -174 -171 -281.5t-324 -127.5l-25 -129h-157l24 131q-160 23 -257 121t-105 262zM518 1065q-16 -84 35 -135t156 -90l82 456q-104 -16 -180.5 -77.5t-92.5 -153.5zM1038 383q16 92 -39 147.5t-170 96.5l-86 -490q109 16 194 81t101 165z" glyph-name="dollar" horiz-adv-x="1273" unicode="$"/><glyph d="M1477 1462l159 -28l-1300 -1463l-162 29zM895 1124q-27 -150 -125 -240.5t-243.5 -90.5t-211 91t-39 240.5t124 239.5t242.5 90t212 -91.5t40 -238.5zM424 1124q-16 -82 19.5 -133t109.5 -51t126 51t69 133q14 82 -22 132.5t-109.5 50.5t-126 -50.5t-66.5 -132.5z M1284.5 639q145.5 0 211 -90t40.5 -240q-27 -150 -125 -239.5t-243.5 -89.5t-211 90t-38.5 239q25 147 123 238.5t243.5 91.5zM1194 127q74 0 126 50t69 132q14 82 -22 132.5t-109.5 50.5t-126 -50.5t-66.5 -132.5q-16 -80 19.5 -131t109.5 -51z" glyph-name="percent" horiz-adv-x="1558" unicode="%"/><glyph d="M1198 272l137 -178l-139 -114l-123 170q-98 -82 -226 -126t-251 -44q-195 0 -323 109.5t-95 297.5q47 268 404 418q-145 168 -119 325q25 139 150.5 231.5t269.5 92.5q141 0 234 -89t69 -230q-39 -221 -359 -377l277 -363q41 49 69.5 127t38 123t25.5 137l6 29h168 l-12 -66q-51 -305 -201 -473zM631 1126q-8 -47 11.5 -99t39.5 -79.5t59 -77.5q98 43 179 112t96 148q12 74 -38 119t-126 45t-142.5 -46t-78.5 -122zM627 139q92 0 188 33t164 96l-311 414q-121 -41 -211 -114.5t-107 -178.5q-20 -121 65 -185.5t212 -64.5z" glyph-name="ampersand" horiz-adv-x="1368" unicode="&amp;"/><glyph d="M416 1454h170l-90 -493h-162z" glyph-name="quotesingle" horiz-adv-x="489" unicode="'"/><glyph d="M936 1636q-135 -164 -259 -447.5t-179 -594.5q-53 -342 -29.5 -611.5t98.5 -433.5h-166q-94 156 -116.5 444t33 601t179.5 600t273 442h166z" glyph-name="parenleft" horiz-adv-x="716" unicode="("/><glyph d="M358 1636h166q94 -156 117 -443.5t-33 -598.5q-55 -315 -180 -603t-272 -442h-166q135 162 259 447t179 598q53 340 29.5 608t-99.5 434z" glyph-name="parenright" horiz-adv-x="716" unicode=")"/><glyph d="M1083 1206l-292 -121l249 -122l-94 -123l-211 172l-22 -295h-142l80 295l-272 -174l-49 125l291 122l-248 121l94 125l211 -174l22 297h142l-80 -297l272 174z" glyph-name="asterisk" horiz-adv-x="1030" unicode="*"/><glyph d="M1165 692l-30 -164h-367l-68 -387h-170l68 387h-367l31 164h367l67 387h170l-67 -387h366z" glyph-name="plus" horiz-adv-x="1181" unicode="+"/><glyph d="M233 205h185l-221 -535h-140z" glyph-name="comma" horiz-adv-x="557" unicode=","/><glyph d="M897 528h-664l29 164h664z" glyph-name="hyphen" horiz-adv-x="942" unicode="-"/><glyph d="M303 -6q-53 0 -84 38t-22.5 89t52.5 89t97 38q51 0 81 -38t22 -89q-10 -53 -52.5 -90t-93.5 -37z" glyph-name="period" horiz-adv-x="604" unicode="."/><glyph d="M-4 -227l835 1779l152 -26l-831 -1782z" glyph-name="slash" horiz-adv-x="751" unicode="/"/><glyph d="M901 1454q119 0 205 -45t131 -116.5t65.5 -170t17.5 -198t-22 -207.5q-20 -109 -52 -208t-87 -197.5t-125.5 -170t-172 -116.5t-220.5 -45t-205 45t-131 116.5t-65.5 170t-17.5 197.5t24 208q18 109 50 208t87 197.5t126 170t172 116.5t220 45zM669.5 137 q354.5 0 457 579.5t-252 579.5t-457 -579.5t252 -579.5z" glyph-name="zero" horiz-adv-x="1290" unicode="0"/><glyph d="M352 1276l27 158h405l-252 -1434h-167l225 1276h-238z" glyph-name="one" horiz-adv-x="806" unicode="1"/><glyph d="M328 1044q43 174 195.5 292t349 118t311 -121t82.5 -315q-43 -244 -324 -455l-536 -405h710l-29 -158h-952l29 164l686 518q215 162 246 334q23 127 -46 203.5t-198 76.5q-133 0 -234.5 -76.5t-136.5 -203.5z" glyph-name="two" horiz-adv-x="1206" unicode="2"/><glyph d="M190 406l164 28q-25 -135 55 -216t216 -81q129 0 238.5 75t129.5 200q23 123 -60 196.5t-210 73.5h-115l27 154h119q106 0 192 62.5t104.5 166.5t-48 167.5t-173.5 63.5q-113 0 -196.5 -68.5t-104.5 -183.5l-155 29q31 170 172 275.5t315 105.5q176 0 282.5 -104.5 t78.5 -274.5q-18 -96 -83 -178t-159 -129q104 -41 153.5 -139.5t28.5 -220.5q-35 -193 -198.5 -310.5t-364.5 -117.5q-199 0 -321 115.5t-87 310.5z" glyph-name="three" horiz-adv-x="1220" unicode="3"/><glyph d="M1030 1434h168l-164 -938h185l-29 -158h-184l-60 -338h-168l60 338h-676l28 158zM985 1171l-598 -675h479z" glyph-name="four" horiz-adv-x="1220" unicode="4"/><glyph d="M492 1434h765l-26 -158h-619l-106 -449q139 100 303 101q193 0 301.5 -137.5t73.5 -337.5q-37 -207 -201 -340t-371 -133q-174 0 -283.5 98t-125.5 260l178 31q10 -102 80.5 -167t183.5 -65q135 0 240.5 89t130.5 229q25 137 -49 226t-207 89q-178 0 -301 -139l-148 55z " glyph-name="five" horiz-adv-x="1206" unicode="5"/><glyph d="M805 948q205 0 321.5 -140t79.5 -347q-37 -211 -207 -346t-383 -135q-211 0 -331.5 140t-81.5 351q35 213 229 438q88 102 274.5 307t223.5 248l170 -32l-475 -527q74 43 180 43zM649 137q139 0 252 93.5t137.5 232.5t-54.5 233.5t-218 94.5t-256 -94.5t-141.5 -233.5 t58.5 -232.5t222 -93.5z" glyph-name="six" horiz-adv-x="1226" unicode="6"/><glyph d="M354 1434h852l-26 -158l-758 -1303l-160 29l748 1274h-682z" glyph-name="seven" horiz-adv-x="1073" unicode="7"/><glyph d="M987 772q104 -51 150.5 -147.5t23.5 -216.5q-33 -184 -190.5 -306t-368.5 -122t-327.5 121.5t-84.5 306.5q20 121 101.5 216t204.5 148q-164 104 -127 305q29 162 168 269.5t323 107.5t286.5 -107.5t74.5 -271.5q-37 -201 -234 -303zM534.5 1065q-16.5 -96 46 -162.5 t173 -66.5t195.5 65.5t101.5 163.5t-44 164.5t-171 66.5t-197.5 -67.5t-103.5 -163.5zM627 137q137 0 241.5 80t126.5 197q20 115 -57.5 191.5t-214.5 76.5q-135 0 -238.5 -77t-124.5 -191q-23 -117 54.5 -197t212.5 -80z" glyph-name="eight" horiz-adv-x="1208" unicode="8"/><glyph d="M674 485q-203 0 -319.5 140.5t-82.5 347.5q37 211 207 346t383 135q211 0 332 -140t84 -351q-39 -215 -231 -439q-88 -102 -274.5 -307t-223.5 -248l-170 33l475 526q-74 -43 -180 -43zM829.5 1296q-139.5 0 -252 -93t-137 -232.5t54 -233.5t218 -94t256 94t141.5 233.5 t-58 232.5t-222.5 93z" glyph-name="nine" horiz-adv-x="1226" unicode="9"/><glyph d="M448.5 821q-51.5 0 -83 37t-21.5 90q8 51 52 88t95.5 37t82 -37t22.5 -88t-52 -89t-95.5 -38zM303 -4q-51 0 -83 37t-21 90q8 51 52 88t95 37t82 -37t22.5 -88t-52.5 -89t-95 -38z" glyph-name="colon" horiz-adv-x="604" unicode=":"/><glyph d="M428 821q-51 0 -83 37t-21 90q8 51 52 88t95 37t82 -37t22.5 -88t-52.5 -89t-95 -38zM231 201h183l-219 -533h-140z" glyph-name="semicolon" horiz-adv-x="522" unicode=";"/><glyph d="M1223 1085l-31 -178l-680 -295l575 -295l-30 -178l-754 400l27 147z" glyph-name="less" horiz-adv-x="1241" unicode="&lt;"/><glyph d="M1178 739h-887l28 166h887zM1104 319h-887l29 166h887z" glyph-name="equal" horiz-adv-x="1206" unicode="="/><glyph d="M369 907l30 178l754 -399l-27 -147l-893 -400l31 178l682 295z" glyph-name="greater" horiz-adv-x="1241" unicode=">"/><glyph d="M758 1454q170 0 277.5 -103.5t78.5 -269.5q-14 -86 -65.5 -153.5t-115 -111.5t-124.5 -84t-109.5 -90t-58.5 -110l-20 -118h-168l20 118q14 86 65.5 153t114 111t125 84t111.5 93t59 117q16 98 -49 152t-168 54q-96 0 -177 -49t-122 -141l-153 29q57 147 190 233t289 86z M467 -4q-51 0 -83 37t-22 90q8 51 52.5 88t95.5 37t82 -37t22 -88q-10 -53 -53 -90t-94 -37z" glyph-name="question" horiz-adv-x="1026" unicode="?"/><glyph d="M1350 1454q264 0 463.5 -129t289.5 -352t43 -486q-25 -139 -81 -241.5t-126.5 -153.5t-133 -73.5t-122.5 -22.5q-45 0 -88 11t-88 60.5t-49 133.5q-63 -94 -171.5 -149.5t-223.5 -55.5q-190 0 -300 143.5t-75 348t193.5 348t349.5 143.5q207 0 307 -168l27 147h149 l-117 -653q-4 -41 -3 -69.5t16.5 -47t28 -28.5t31 -15.5t26.5 -6.5t16 -1q88 0 167 81t112 269q59 338 -136.5 579t-531.5 241q-338 0 -616.5 -241t-338 -578.5t135 -578.5t530.5 -241q274 0 516 156l88 -107q-293 -197 -628 -196q-262 0 -463 129t-291 352t-43 485 q72 401 404 684t733 283zM1098 137q143 0 247.5 97.5t133.5 252.5q29 154 -43 252.5t-215 98.5q-139 0 -245 -99.5t-132 -251.5q-27 -150 45 -250t209 -100z" glyph-name="at" horiz-adv-x="2187" unicode="@"/><glyph d="M1018 1434l268 -1434h-188l-56 336h-626l-174 -336h-189l772 1434h193zM498 494h520l-129 753z" glyph-name="A" horiz-adv-x="1339" unicode="A"/><glyph d="M1069 766q106 -37 157.5 -138.5t28.5 -226.5q-31 -174 -182 -287.5t-354 -113.5h-551l252 1434h516q207 0 305 -101.5t68 -269.5q-35 -203 -240 -297zM565 1276l-78 -445h369q109 0 186.5 63.5t94.5 166.5q18 102 -44.5 158.5t-187.5 56.5h-340zM741 158 q133 0 227.5 66.5t114.5 183.5q20 115 -46 190.5t-185 75.5h-393l-90 -516h372z" glyph-name="B" horiz-adv-x="1273" unicode="B"/><glyph d="M825 137q158 0 293 79t213 212l164 -31q-106 -199 -289.5 -308t-402.5 -109q-313 0 -466 208.5t-95 528.5q57 317 281.5 527t531.5 210q219 0 365.5 -111.5t178.5 -306.5l-174 -30q-31 133 -132 211.5t-261 78.5q-236 0 -404.5 -164.5t-213.5 -414.5t66.5 -415 t344.5 -165z" glyph-name="C" horiz-adv-x="1527" unicode="C"/><glyph d="M836 1434q336 0 500.5 -188.5t107.5 -516.5q-59 -334 -297 -531.5t-563 -197.5h-416l252 1434h416zM621 158q242 0 423 154.5t228 418.5q45 258 -79 401.5t-376 143.5h-252l-196 -1118h252z" glyph-name="D" horiz-adv-x="1425" unicode="D"/><glyph d="M1294 1276h-729l-86 -481h647l-26 -154h-647l-84 -483h729l-29 -158h-901l252 1434h901z" glyph-name="E" unicode="E"/><glyph d="M1278 1276h-713l-90 -504h631l-27 -154h-630l-109 -618h-172l252 1434h885z" glyph-name="F" horiz-adv-x="1146" unicode="F"/><glyph d="M1663 754q-2 -16 -5 -36t-5 -33t-2 -17q-57 -313 -270.5 -500.5t-508.5 -187.5q-313 0 -478 207.5t-107 529.5q55 315 286.5 526t550.5 211q203 0 345.5 -92t197.5 -264l-186 -33q-39 109 -143.5 170t-245.5 61q-240 0 -415 -167.5t-220 -421.5q-45 -252 72.5 -411 t361.5 -159q219 0 380 127t197 332h-467l29 158h633z" glyph-name="G" horiz-adv-x="1650" unicode="G"/><glyph d="M1354 1434h172l-252 -1434h-172l108 621h-761l-109 -621h-172l252 1434h172l-115 -660h762z" glyph-name="H" horiz-adv-x="1441" unicode="H"/><glyph d="M340 0h-172l252 1434h172z" glyph-name="I" horiz-adv-x="507" unicode="I"/><glyph d="M1057 1434h172l-176 -1002q-35 -205 -178.5 -328.5t-342.5 -123.5q-197 0 -302 118.5t-89 302.5l174 31q-14 -137 51.5 -216t188.5 -79q127 0 215 81t111 214z" glyph-name="J" horiz-adv-x="1144" unicode="J"/><glyph d="M758 788l487 -788h-219l-403 668l-197 -181l-86 -487h-172l252 1434h172l-123 -705l760 705h227z" glyph-name="K" horiz-adv-x="1290" unicode="K"/><glyph d="M369 158h712l-28 -158h-885l252 1434h172z" glyph-name="L" horiz-adv-x="1138" unicode="L"/><glyph d="M1569 1434h213l-252 -1434h-172l201 1139l-654 -1139h-112l-252 1139l-201 -1139h-172l252 1434h213l264 -1172z" glyph-name="M" horiz-adv-x="1697" unicode="M"/><glyph d="M1354 1434h172l-252 -1434h-182l-549 1151l-203 -1151h-172l252 1434h182l549 -1151z" glyph-name="N" horiz-adv-x="1441" unicode="N"/><glyph d="M1079 1454q311 0 471 -211t104.5 -526.5t-290 -526t-545.5 -210.5q-315 0 -474 209.5t-103.5 527t289 527.5t548.5 210zM848 137q242 0 416 166t219 414q43 248 -73 413.5t-357 165.5q-244 0 -420 -165.5t-219 -413.5q-45 -248 72.5 -414t361.5 -166z" glyph-name="O" horiz-adv-x="1642" unicode="O"/><glyph d="M928 1434q215 0 327.5 -120t77.5 -318.5t-189.5 -318.5t-369.5 -120h-336l-98 -557h-172l252 1434h508zM801 715q139 0 237.5 76.5t120.5 203.5q23 125 -49 203t-211 78h-334l-98 -561h334z" glyph-name="P" horiz-adv-x="1251" unicode="P"/><glyph d="M1214 -164l-104 197q-137 -53 -291 -53q-315 0 -474 209.5t-103.5 527t289 527.5t548.5 210q311 0 471 -211t105 -526q-33 -188 -135.5 -345t-251.5 -257l98 -187zM848 137q104 0 192 31l-108 207l151 92l115 -217q229 162 285 467q43 248 -73 413.5t-357 165.5 q-244 0 -420 -165.5t-219 -413.5q-45 -248 72.5 -414t361.5 -166z" glyph-name="Q" horiz-adv-x="1642" unicode="Q"/><glyph d="M928 1434q215 0 327.5 -120t77.5 -319q-29 -160 -135 -269.5t-260 -147.5l240 -578h-193l-225 557h-322l-98 -557h-172l252 1434h508zM801 715q139 0 238.5 76.5t122 203.5t-50.5 204t-212 77h-334l-98 -561h334z" glyph-name="R" horiz-adv-x="1247" unicode="R"/><glyph d="M485 1067q-16 -96 46.5 -152.5t185.5 -91.5q221 -66 295 -102q207 -111 168 -332q-35 -193 -200 -301t-376 -108q-197 0 -315.5 99t-124.5 290l174 28q-2 -125 84 -194.5t217 -69.5q129 0 236.5 64.5t130.5 183.5q31 178 -224 252q-221 66 -280 92q-219 102 -195 309 q2 14 4 27q33 182 185.5 287.5t343.5 105.5q176 0 291.5 -93t125.5 -263l-174 -31q-10 113 -79.5 173t-184.5 60q-123 0 -219.5 -63.5t-114.5 -169.5z" glyph-name="S" horiz-adv-x="1208" unicode="S"/><glyph d="M330 1434h1081l-27 -158h-454l-225 -1276h-173l226 1276h-455z" glyph-name="T" horiz-adv-x="1236" unicode="T"/><glyph d="M1313 1434h172l-158 -904q-43 -238 -215 -394t-415.5 -156t-360.5 156.5t-74 393.5l158 904h172l-158 -904q-31 -166 41 -279.5t250 -113.5q176 0 287.5 115t142.5 278z" glyph-name="U" horiz-adv-x="1400" unicode="U"/><glyph d="M1348 1434h186l-762 -1434h-205l-262 1434h187l210 -1235z" glyph-name="V" horiz-adv-x="1335" unicode="V"/><glyph d="M1995 1434h174l-651 -1434h-195l-135 1094l-520 -1094h-195l-147 1434h174l114 -1209l576 1209h115l151 -1209z" glyph-name="W" horiz-adv-x="1990" unicode="W"/><glyph d="M893 750l360 -750h-206l-277 600l-489 -600h-207l626 750l-333 684h206l248 -541l436 541h207z" glyph-name="X" horiz-adv-x="1327" unicode="X"/><glyph d="M1276 1434h197l-650 -867l-100 -567h-172l100 567l-346 867h197l266 -691z" glyph-name="Y" horiz-adv-x="1273" unicode="Y"/><glyph d="M362 158h859l-29 -158h-1065l27 154l1036 1122h-817l26 158h1024l-26 -154z" glyph-name="Z" horiz-adv-x="1318" unicode="Z"/><glyph d="M954 1481h-286l-314 -1770h287l-29 -164h-458l368 2095h459z" glyph-name="bracketleft" horiz-adv-x="741" unicode="["/><glyph d="M471 1552l203 -1779l-162 -29l-207 1782z" glyph-name="backslash" horiz-adv-x="751" unicode="\"/><glyph d="M598 1481h-287l27 161h459l-369 -2095h-459l29 164h287z" glyph-name="bracketright" horiz-adv-x="741" unicode="]"/><glyph d="M422 838h-189l443 616h166l225 -616h-188l-150 446z" glyph-name="asciicircum" horiz-adv-x="1005" unicode="^"/><glyph d="M883 -283h-944l28 166h944z" glyph-name="underscore" horiz-adv-x="919" unicode="_"/><glyph d="M668 1434l98 -248h-137l-144 248h183z" glyph-name="grave" horiz-adv-x="790" unicode="`"/><glyph d="M725 1047q182 0 277.5 -102.5t64.5 -280.5l-117 -664h-164l31 172q-82 -98 -173 -145t-218 -47q-147 0 -228 88t-57 227q12 70 51 126t86.5 91t120 60.5t129 38t139.5 18.5t123.5 7t108.5 1l6 33q20 113 -45 171t-172 58q-96 0 -179 -55.5t-114 -145.5l-157 27 q49 145 185 233.5t302 88.5zM866 451l11 55q-10 2 -38 0t-67 -1t-87 -5t-97 -13.5t-96.5 -24t-86 -38t-65.5 -55t-35 -76.5q-12 -78 43 -122t148 -44q133 0 239 96.5t131 227.5z" glyph-name="a" horiz-adv-x="1089" unicode="a"/><glyph d="M152 0l260 1475h163l-110 -623q160 193 409 192q211 0 322 -150.5t70 -379.5t-205 -381.5t-375 -152.5q-119 0 -209 51t-131 141l-31 -172h-163zM405.5 512q-30.5 -168 45 -275.5t237.5 -107.5q158 0 270.5 103.5t143.5 279.5t-45 279.5t-234 103.5q-162 0 -274.5 -107.5 t-143 -275.5z" glyph-name="b" horiz-adv-x="1265" unicode="b"/><glyph d="M623 129q109 0 200.5 60.5t137.5 164.5l153 -28q-61 -156 -208.5 -251t-307.5 -95q-229 0 -344 150.5t-74 381.5t209 381.5t397 150.5q158 0 271.5 -96t122.5 -250l-164 -28q-8 104 -79 164.5t-179 60.5q-164 0 -273.5 -107.5t-140.5 -275.5t42 -275.5t237 -107.5z" glyph-name="c" horiz-adv-x="1142" unicode="c"/><glyph d="M1376 1475l-260 -1475h-164l31 172q-72 -90 -181.5 -141t-228.5 -51q-211 0 -321.5 151.5t-69.5 380.5t205 380.5t375 151.5q121 0 210 -51t130 -141l110 623h164zM1042.5 512q30.5 168 -45 275.5t-237.5 107.5q-158 0 -270.5 -103.5t-143.5 -279.5t46 -279.5t233 -103.5 q162 0 274.5 107.5t143 275.5z" glyph-name="d" horiz-adv-x="1267" unicode="d"/><glyph d="M1174 494q-2 -6 -4.5 -17.5t-4.5 -17.5h-831q-20 -147 59.5 -239.5t229.5 -92.5q215 0 335 184l154 -28q-190 -303 -514 -303q-229 0 -344 149.5t-74 380.5t206 384t392.5 153t332 -156.5t63.5 -396.5zM365 598h659q14 135 -61.5 220t-208.5 85q-137 0 -241.5 -83 t-147.5 -222z" glyph-name="e" horiz-adv-x="1175" unicode="e"/><glyph d="M778 1024l-24 -137h-222l-155 -887h-164l156 887h-164l24 137h164l25 133q57 338 352 338q90 0 98 -8l-26 -150q-2 2 -19.5 4t-44 3.5t-55.5 -3.5q-59 -12 -92 -50t-47 -115l-27 -152h221z" glyph-name="f" horiz-adv-x="679" unicode="f"/><glyph d="M590 0q-219 0 -333 150.5t-75 371.5q39 215 201 368.5t375 153.5q113 0 208 -50t140 -140l29 170h163l-178 -1008q-39 -229 -199.5 -358t-394.5 -129q-174 0 -286.5 74.5t-130.5 228.5l174 29q12 -94 87.5 -138.5t188.5 -44.5q164 0 267.5 87.5t129.5 248.5l29 158 q-70 -84 -177 -128t-218 -44zM1046.5 522q28.5 164 -48 268.5t-238.5 104.5t-272.5 -103.5t-141.5 -269.5t45 -269t238 -103t275.5 104t142 268z" glyph-name="g" horiz-adv-x="1261" unicode="g"/><glyph d="M842 1044q162 0 248 -114.5t61 -259.5l-119 -670h-164l111 631q20 115 -30 189.5t-165 74.5q-137 0 -243.5 -108.5t-134.5 -270.5l-91 -516h-163l260 1475h163l-112 -637q63 82 162.5 144t216.5 62z" glyph-name="h" horiz-adv-x="1171" unicode="h"/><glyph d="M469 1272q-47 0 -74.5 32.5t-19.5 79.5q10 47 48 80t85 33t73.5 -32.5t18.5 -80t-46 -80t-85 -32.5zM326 0h-164l180 1024h164z" glyph-name="i" horiz-adv-x="487" unicode="i"/><glyph d="M473 1272q-47 0 -73.5 32.5t-18.5 79.5q10 47 48 80t85 33t73.5 -32.5t18.5 -80t-47 -80t-86 -32.5zM-172 -319q160 -14 230.5 43t99.5 221l190 1079h164l-190 -1077q-37 -211 -142.5 -314.5t-318.5 -103.5l-58 2z" glyph-name="j" horiz-adv-x="493" unicode="j"/><glyph d="M692 606l348 -606h-198l-279 498l-188 -160l-60 -338h-163l260 1475h163l-161 -922l553 471h219z" glyph-name="k" horiz-adv-x="1081" unicode="k"/><glyph d="M315 0h-163l260 1475h163z" glyph-name="l" horiz-adv-x="466" unicode="l"/><glyph d="M1452 1044q162 0 235.5 -117.5t41.5 -293.5l-111 -633h-164l111 629q23 119 -24.5 192.5t-151.5 73.5q-125 0 -213.5 -101.5t-112.5 -242.5l-96 -551h-164l110 629q23 119 -24 192.5t-154 73.5q-125 0 -216 -102.5t-116 -241.5l-96 -551h-164l181 1024h163l-30 -172 q63 92 154 142t186 50q109 0 181.5 -61t88.5 -162q68 109 170 166t215 57z" glyph-name="m" horiz-adv-x="1757" unicode="m"/><glyph d="M829 1044q154 0 247 -110.5t67 -263.5l-119 -670h-164l111 631q20 117 -31 190.5t-166 73.5q-145 0 -245.5 -108.5t-127.5 -258.5l-94 -528h-164l181 1024h163l-30 -174q68 88 169 141t203 53z" glyph-name="n" horiz-adv-x="1163" unicode="n"/><glyph d="M799 1044q229 0 348 -150.5t78 -381.5t-213 -381.5t-402 -150.5q-231 0 -351 150.5t-79 381.5t214.5 381.5t404.5 150.5zM635 129q164 0 277.5 106.5t144 276.5t-46 276.5t-240.5 106.5t-277.5 -106.5t-144.5 -276.5t46 -276.5t241 -106.5z" glyph-name="o" horiz-adv-x="1224" unicode="o"/><glyph d="M72 -451l260 1475h164l-31 -172q72 90 181.5 141t227.5 51q211 0 322 -151.5t70 -380.5t-205 -380.5t-375 -151.5q-121 0 -210 51t-130 141l-110 -623h-164zM405.5 512q-30.5 -168 45 -275.5t237.5 -107.5q158 0 270.5 103.5t143.5 279.5t-46 279.5t-233 103.5 q-162 0 -274.5 -107.5t-143 -275.5z" glyph-name="p" horiz-adv-x="1265" unicode="p"/><glyph d="M1294 1024l-260 -1475h-164l111 623q-160 -193 -410 -192q-211 0 -321.5 150.5t-69.5 379.5t205 381.5t375 152.5q119 0 209 -51t131 -141l30 172h164zM1040.5 512q30.5 168 -45 275.5t-237.5 107.5q-158 0 -270.5 -103.5t-143.5 -279.5t45 -279.5t234 -103.5 q162 0 274.5 107.5t143 275.5z" glyph-name="q" horiz-adv-x="1265" unicode="q"/><glyph d="M868 1040l-26 -147q-178 16 -294 -85t-149 -286l-92 -522h-164l181 1024h163l-30 -172q143 193 352 192q36 0 59 -4z" glyph-name="r" horiz-adv-x="724" unicode="r"/><glyph d="M395 756q-12 -70 46.5 -106t183.5 -60q49 -10 86 -20.5t88 -34t80.5 -54t46 -82t6.5 -114.5q-27 -145 -156 -225t-287 -80q-156 0 -260 77.5t-98 225.5l166 26q4 -90 60.5 -136t152.5 -46q88 0 165 36t91 116q12 68 -39 100.5t-164 56.5q-59 12 -103 25.5t-95.5 38 t-81 55.5t-45 79t-5.5 107q23 137 148 222.5t272 85.5q135 0 233.5 -75t98.5 -206l-164 -27q-4 76 -58 119t-136 43q-78 0 -149 -37.5t-83 -109.5z" glyph-name="s" horiz-adv-x="958" unicode="s"/><glyph d="M733 887h-221l-102 -586q-16 -96 3 -135t107 -39q47 0 90 14l-26 -149q-59 -12 -121 -12q-274 0 -221 296l106 611h-164l25 137h166l47 262l164 27l-51 -289h223z" glyph-name="t" horiz-adv-x="655" unicode="t"/><glyph d="M512 -20q-154 0 -245 109.5t-64 264.5l116 670h164l-110 -631q-20 -115 31 -189.5t163 -74.5q143 0 244.5 108.5t128.5 258.5l92 528h164l-180 -1024h-164l31 174q-68 -90 -168.5 -142t-202.5 -52z" glyph-name="u" horiz-adv-x="1159" unicode="u"/><glyph d="M995 1024h172l-565 -1024h-162l-207 1024h173l149 -825z" glyph-name="v" horiz-adv-x="1040" unicode="v"/><glyph d="M1524 1024h168l-490 -1024h-172l-104 801l-387 -801h-172l-129 1024h168l81 -834l406 834h143l111 -834z" glyph-name="w" horiz-adv-x="1568" unicode="w"/><glyph d="M731 524l281 -524h-199l-205 408l-348 -408h-199l465 524l-268 500h201l190 -383l326 383h201z" glyph-name="x" horiz-adv-x="1073" unicode="x"/><glyph d="M995 1024h172l-815 -1475h-176l283 494l-226 981h173l165 -795z" glyph-name="y" horiz-adv-x="1040" unicode="y"/><glyph d="M362 150h635l-26 -150h-852l22 127l746 747h-594l26 150h811l-22 -127z" glyph-name="z" horiz-adv-x="1089" unicode="z"/><glyph d="M618 928q-18 -113 -76.5 -199t-138.5 -131q137 -109 99 -332l-64 -360q-23 -119 24.5 -158t174.5 -39l45 2l-29 -162q-39 -2 -61 -2q-193 0 -277 81t-49 282l66 364q20 123 -27 182.5t-166 59.5l29 162q236 0 276 242l66 364q35 199 146.5 278.5t304.5 79.5l61 -2 l-29 -161q-25 2 -43 2q-129 0 -188.5 -38t-79.5 -155z" glyph-name="braceleft" horiz-adv-x="782" unicode="{"/><glyph d="M367 -451h-172l368 2089h172z" glyph-name="bar" horiz-adv-x="720" unicode="|"/><glyph d="M492 928l63 360q20 119 -26 156t-173 37l-47 -2l29 161q39 2 61 2q193 0 278 -79.5t50 -278.5l-65 -364q-20 -125 25.5 -183.5t164.5 -58.5l-29 -162q-233 0 -274 -242l-66 -364q-35 -201 -147.5 -282t-304.5 -81l-62 2l29 162q27 -2 45 -2q127 0 186.5 39t81.5 158 l64 360q39 221 217 332q-66 45 -93 130t-7 200z" glyph-name="braceright" horiz-adv-x="782" unicode="}"/><glyph d="M231 444q27 158 122.5 239t213.5 81q72 0 130.5 -33t91 -70.5t77.5 -70.5t90 -33q57 0 99.5 45t54.5 123h158q-25 -160 -120 -239.5t-212 -79.5q-72 0 -131.5 32.5t-92 70.5t-77.5 70.5t-92 32.5q-55 0 -98.5 -42t-55.5 -126h-158z" glyph-name="asciitilde" horiz-adv-x="1294" unicode="~"/><glyph glyph-name="uni00A0" horiz-adv-x="544" unicode=" "/><glyph d="M463 834q-51 0 -83 36.5t-22 90.5q10 51 54.5 88.5t95.5 37.5t80.5 -37.5t21.5 -88.5q-10 -51 -53 -89t-94 -38zM348 653h162l-143 -862h-179z" glyph-name="exclamdown" horiz-adv-x="628" unicode="¡"/><glyph d="M782 1040l21 117h133l-21 -117q135 -18 228.5 -111t101.5 -231l-164 -26q-16 180 -192 217l-133 -754q186 35 270 219l154 -28q-55 -139 -180.5 -231.5t-270.5 -110.5l-20 -117h-134l21 117q-199 23 -295 169t-59 359t185 359t355 169zM406 512q-27 -150 28 -253 t187 -126l135 758q-139 -20 -231 -123.5t-119 -255.5z" glyph-name="cent" horiz-adv-x="1273" unicode="¢"/><glyph d="M229 586l29 162h158q25 211 33 256q41 225 178 366t358 141q164 0 267.5 -103t84.5 -267l-172 -31q6 113 -49 176.5t-164 63.5q-145 0 -225 -101.5t-106 -255.5q-12 -61 -35 -245h375l-29 -162h-367q-16 -139 -28 -209q-10 -61 -32 -114.5t-38 -77t-23 -23.5h717 l-28 -162h-1006l29 162q203 0 243 424h-170z" glyph-name="sterling" horiz-adv-x="1247" unicode="£"/><glyph d="M328 952l137 115l104 -131q152 100 338 100q184 0 303 -100l152 131l94 -115l-156 -131q70 -137 37 -317q-31 -180 -149 -320l110 -131l-135 -114l-106 131q-152 -100 -338 -101q-184 0 -303 101l-150 -131l-96 114l158 129q-72 133 -41 322q33 184 153 319zM454.5 504 q-30.5 -170 47.5 -277.5t241 -107.5q166 0 281 107.5t145.5 277.5t-47.5 276.5t-243 106.5q-164 0 -279 -106.5t-145.5 -276.5z" glyph-name="currency" horiz-adv-x="1447" unicode="¤"/><glyph d="M598 698l-293 736h197l266 -691l508 691h197l-551 -736h280l-24 -143h-357l-35 -190h357l-25 -144h-356l-39 -221h-172l39 221h-357l25 144h356l35 190h-356l24 143h281z" glyph-name="yen" horiz-adv-x="1273" unicode="¥"/><glyph d="M420 819l143 819h172l-143 -819h-172zM195 -451l145 820h172l-145 -820h-172z" glyph-name="brokenbar" horiz-adv-x="720" unicode="¦"/><glyph d="M524 -471q-193 0 -306.5 102.5t-121.5 286.5l174 29q-2 -121 79 -192.5t208 -71.5q113 0 216.5 59t121.5 164q10 59 -15.5 104t-74.5 72t-114.5 53.5t-134.5 47t-132.5 53t-111.5 70.5t-70.5 100.5t-8.5 142.5q35 193 226 280q-119 94 -88 261q33 174 180 273t326 99 q172 0 277.5 -95t117.5 -261l-174 -31q-23 233 -246 234q-102 0 -196.5 -56.5t-110.5 -154.5q-10 -61 23.5 -107.5t97 -75t140.5 -54t153.5 -58.5t137 -75t90.5 -114.5t13 -167.5q-33 -197 -215 -270q113 -94 84 -256q-33 -184 -194 -287.5t-351 -103.5zM1030 440 q10 55 -10.5 97.5t-71.5 72t-99 50t-127 48t-124 46.5q-74 -23 -127 -73t-65 -120q-12 -66 43 -120t122.5 -81.5t166 -60.5t124.5 -45q145 61 168 186z" glyph-name="section" horiz-adv-x="1232" unicode="§"/><glyph d="M479 1399q10 47 50 79.5t87.5 32.5t75 -33.5t19.5 -78.5q-8 -47 -47 -81t-86.5 -34t-77 34t-21.5 81zM874 1399q10 47 50.5 79.5t87.5 32.5t74.5 -33.5t19.5 -78.5q-8 -47 -47 -81t-86 -34t-77 34t-22 81z" glyph-name="dieresis" horiz-adv-x="1093" unicode="¨"/><glyph d="M1069 1454q311 0 479 -215t113 -522q-55 -309 -298 -523t-554 -214t-479 215t-113 522q55 309 298 523t554 214zM836 125q246 0 435 174t232 418t-85 418t-374 174q-248 0 -437 -174t-232 -418t85 -418t376 -174zM1151 606l145 -26q-61 -129 -178 -210t-254 -81 q-176 0 -266 125t-59.5 305t165 304t310.5 124q139 0 228 -81t106 -212l-158 -25q-10 78 -63.5 126.5t-139.5 48.5q-113 0 -195.5 -83t-103.5 -202q-23 -121 31.5 -204t167.5 -83q86 0 155.5 47t108.5 127z" glyph-name="copyright" horiz-adv-x="1624" unicode="©"/><glyph d="M649 1454q121 0 191.5 -72.5t52.5 -177.5l-84 -473h-135l20 119q-96 -133 -258 -133q-106 0 -162.5 60.5t-40.5 156.5q14 78 70.5 130t139.5 73.5t149.5 30t144.5 12.5h17l4 28q10 55 -29 90t-104 35q-59 0 -111.5 -29.5t-69.5 -89.5l-133 19q33 96 129 158.5t209 62.5z M727 1030l6 41q-334 0 -360 -143q-8 -45 21.5 -73t84.5 -28q92 0 164 66.5t84 136.5z" glyph-name="ordfeminine" horiz-adv-x="782" unicode="ª"/><glyph d="M262 575l391 447h170l-372 -447l215 -446h-170zM655 575l392 447h170l-373 -447l215 -446h-170z" glyph-name="guillemotleft" unicode="«"/><glyph d="M270 627l27 153h903l-80 -452h-164l54 299h-740z" glyph-name="logicalnot" horiz-adv-x="1239" unicode="¬"/><glyph d="M866 1454q203 0 315.5 -144.5t78.5 -346.5q-35 -205 -198 -348.5t-368 -143.5t-318.5 143.5t-78.5 348.5q35 203 199.5 347t369.5 144zM711 565q166 0 294 116t156 280q31 164 -57 281.5t-254 117.5q-168 0 -297 -117t-158 -280q-31 -164 58.5 -281t257.5 -117zM850 897 l86 -190h-102l-74 178h-72l-31 -178h-88l88 503h183q70 0 111.5 -45t27.5 -114q-18 -109 -129 -154zM784 969q37 0 67 22.5t36 57.5q8 37 -13.5 58t-60.5 21h-82l-29 -159h82z" glyph-name="registered" horiz-adv-x="1218" unicode="®"/><glyph d="M461 1286l26 152h658l-27 -152h-657z" glyph-name="macron" horiz-adv-x="1124" unicode="¯"/><glyph d="M536.5 963q-108.5 0 -170 70.5t-42.5 174.5q18 106 104 176t194.5 70t169 -69.5t42.5 -176.5q-18 -104 -103.5 -174.5t-194 -70.5zM557 1087q51 0 93 35t50.5 86.5t-21.5 86t-81 34.5q-49 0 -91 -34.5t-50 -86t21.5 -86.5t78.5 -35z" glyph-name="degree" horiz-adv-x="731" unicode="°"/><glyph d="M1192 840l-29 -164h-364l-47 -266h-170l47 266h-367l29 164h366l52 284h170l-52 -284h365zM1073 160h-901l29 164h901z" glyph-name="plusminus" horiz-adv-x="1187" unicode="±"/><glyph d="M322 1290q16 70 81.5 117t151.5 47t137 -47t39 -123q-16 -92 -137 -182l-135 -98h221l-21 -125h-413l16 98l275 203q59 45 67 94q6 37 -15.5 54.5t-50 17.5t-59 -18.5t-41.5 -57.5z" glyph-name="uni00B2" horiz-adv-x="585" unicode="²"/><glyph d="M264 1028l127 23q-6 -39 16.5 -61.5t59.5 -22.5t64.5 21.5t31.5 51.5q6 33 -15.5 56.5t-58.5 23.5h-67l18 105h66q31 0 55.5 19.5t28.5 44t-12.5 41t-45.5 16.5q-68 0 -86 -70l-114 20q12 70 74.5 114t144.5 44t130 -45t36 -115q-18 -88 -103 -120q90 -39 74 -144 q-14 -76 -81.5 -124t-160.5 -48q-94 0 -145 47t-37 123z" glyph-name="uni00B3" horiz-adv-x="593" unicode="³"/><glyph d="M629 1434h182l-229 -248h-140z" glyph-name="acute" horiz-adv-x="792" unicode="´"/><glyph d="M838 1434h200l-280 -1598h-168l121 688h-33q-195 0 -303.5 130t-75.5 325q35 195 189.5 325t349.5 130zM840 -164l280 1598h168l-280 -1598h-168z" glyph-name="paragraph" horiz-adv-x="1163" unicode="¶"/><glyph d="M401.5 578q-53.5 0 -83 37.5t-21.5 91.5q8 51 52 89t97 38q51 0 82 -37t21 -90q-8 -53 -51 -91t-96.5 -38z" glyph-name="periodcentered" horiz-adv-x="595" unicode="·"/><glyph d="M231 -215l99 215h135l-68 -127q160 -29 133 -174q-16 -88 -84.5 -129t-162.5 -41q-74 0 -129 20l32 95q43 -12 93 -13q37 0 72.5 17.5t41.5 54.5q4 27 -11 44t-45 24.5t-54.5 10.5t-51.5 3z" glyph-name="cedilla" horiz-adv-x="817" unicode="¸"/><glyph d="M301 1321l18 113h218l-97 -555h-125l78 442h-92z" glyph-name="uni00B9" horiz-adv-x="413" unicode="¹"/><glyph d="M645 1454q90 0 150.5 -35t83 -89t29.5 -121.5t-9 -133.5q-29 -158 -122 -268.5t-265 -110.5q-117 0 -182.5 59.5t-72.5 143.5t5 176q16 98 56 178t125 140.5t202 60.5zM537 823q57 0 99 22.5t65.5 64.5t36 79t22.5 86q43 252 -135 252q-180 0 -224 -252 q-48 -252 136 -252z" glyph-name="ordmasculine" horiz-adv-x="778" unicode="º"/><glyph d="M903 1022l236 -447l-394 -446h-170l375 446l-217 447h170zM510 1022l235 -447l-393 -446h-170l375 446l-217 447h170z" glyph-name="guillemotright" unicode="»"/><glyph d="M6 0l1319 1458l148 -24l-1319 -1459zM227 1309l21 125h241l-108 -617h-139l88 492h-103zM1204 616h131l-67 -385h80l-21 -120h-80l-20 -111h-140l21 111h-291l21 120zM1163 430l-170 -199h135z" glyph-name="onequarter" horiz-adv-x="1419" unicode="¼"/><glyph d="M12 0l1319 1458l146 -24l-1317 -1459zM233 1309l21 125h242l-109 -617h-139l88 492h-103zM977 457q20 76 93 128t167 52t149.5 -52.5t40.5 -135.5q-18 -102 -151 -201l-148 -111h244l-24 -137h-455l18 109l301 225q61 47 76 102q6 43 -17.5 61.5t-53.5 18.5 q-86 0 -113 -82z" glyph-name="onehalf" horiz-adv-x="1376" unicode="½"/><glyph d="M197 0l1319 1458l147 -24l-1319 -1459zM211 987l141 25q-8 -45 17.5 -69.5t66.5 -24.5t71 23.5t36 55.5q6 37 -17.5 62.5t-64.5 25.5h-76l21 113h73q35 0 61.5 23.5t30.5 52.5q4 27 -13 44t-48 17q-76 0 -98 -78l-127 23q14 76 83.5 125t159.5 49t142.5 -49t38.5 -127 q-18 -100 -113 -135q102 -45 82 -156q-16 -84 -89 -136t-175.5 -52t-159.5 53t-43 135zM1374 616h131l-67 -385h78l-21 -120h-78l-20 -111h-140l21 111h-291l21 120zM1333 430l-170 -199h135z" glyph-name="threequarters" horiz-adv-x="1648" unicode="¾"/><glyph d="M758 1042q51 0 81.5 -36.5t20.5 -87.5q-10 -53 -53 -90t-94 -37t-83 36.5t-22 90.5q10 51 54.5 87.5t95.5 36.5zM465 -416q-172 0 -279.5 103.5t-79.5 269.5q14 86 65.5 153.5t115 111.5t126 84t111.5 90t60 110q18 111 20 119h168q-20 -102 -20 -119 q-14 -86 -65.5 -152.5t-115 -110.5t-126 -84t-111.5 -93.5t-60 -116.5q-18 -98 48.5 -152.5t171.5 -54.5q96 0 175 49t119 141l156 -28q-57 -147 -191 -233.5t-288 -86.5z" glyph-name="questiondown" horiz-adv-x="1046" unicode="¿"/><glyph d="M924 1835l98 -248h-137l-144 248h183zM1018 1434l268 -1434h-188l-56 336h-626l-174 -336h-189l772 1434h193zM498 494h520l-129 753z" glyph-name="Agrave" horiz-adv-x="1339" unicode="À"/><glyph d="M1067 1835h182l-229 -248h-139zM1018 1434l268 -1434h-188l-56 336h-626l-174 -336h-189l772 1434h193zM498 494h520l-129 753z" glyph-name="Aacute" horiz-adv-x="1339" unicode="Á"/><glyph d="M772 1567h-127l283 288h155l185 -288h-127l-152 184zM1018 1434l268 -1434h-188l-56 336h-626l-174 -336h-189l772 1434h193zM498 494h520l-129 753z" glyph-name="Acircumflex" horiz-adv-x="1339" unicode="Â"/><glyph d="M668 1669q14 94 78.5 150.5t138.5 56.5q61 0 122.5 -59.5t98.5 -59.5q74 0 90 96h102q-14 -94 -78.5 -150t-138.5 -56q-63 0 -123.5 59t-97.5 59q-74 0 -90 -96h-102zM1018 1434l268 -1434h-188l-56 336h-626l-174 -336h-189l772 1434h193zM498 494h520l-129 753z" glyph-name="Atilde" horiz-adv-x="1339" unicode="Ã"/><glyph d="M657 1700q10 47 50.5 79.5t87.5 32.5t74.5 -33.5t19.5 -78.5q-8 -47 -47 -81t-86 -34t-77 34t-22 81zM1053 1700q10 47 50 79.5t87 32.5t74.5 -33.5t19.5 -78.5q-8 -47 -47 -81t-86 -34t-76.5 34t-21.5 81zM1018 1434l268 -1434h-188l-56 336h-626l-174 -336h-189 l772 1434h193zM498 494h520l-129 753z" glyph-name="Adieresis" horiz-adv-x="1339" unicode="Ä"/><glyph d="M942 1524q-94 0 -151.5 61.5t-40.5 157.5q18 98 96 160.5t174 62.5q94 0 147.5 -63.5t34.5 -159.5q-16 -96 -91 -157.5t-169 -61.5zM958.5 1628q49.5 0 87 33t46.5 82q10 53 -16.5 87t-76 34t-90.5 -35t-49 -86t20.5 -83t78 -32zM1018 1434l268 -1434h-188l-56 336h-626 l-174 -336h-189l772 1434h193zM498 494h520l-129 753z" glyph-name="Aring" horiz-adv-x="1339" unicode="Å"/><glyph d="M242 0h-189l729 1434h971l-27 -158h-634l-86 -481h593l-26 -154h-594l-84 -483h635l-29 -158h-807l60 336h-348zM481 494h299l140 782h-52z" glyph-name="AE" horiz-adv-x="1660" unicode="Æ"/><glyph d="M825 137q158 0 293 79t213 212l164 -31q-96 -182 -259 -289.5t-359 -123.5l-60 -111q160 -29 133 -174q-16 -88 -84.5 -129t-163.5 -41q-74 0 -129 20l33 95q43 -12 92 -13q39 0 74 17.5t41 54.5q4 27 -11.5 44t-45 24.5t-54 10.5t-51.5 3l90 197q-285 23 -419 228.5 t-80 506.5q57 317 281.5 527t531.5 210q219 0 365.5 -111.5t178.5 -306.5l-174 -30q-31 133 -132 211.5t-261 78.5q-236 0 -404.5 -164.5t-213.5 -414.5t66.5 -415t344.5 -165z" glyph-name="Ccedilla" horiz-adv-x="1527" unicode="Ç"/><glyph d="M852 1835l98 -248h-137l-143 248h182zM1294 1276h-729l-86 -481h647l-26 -154h-647l-84 -483h729l-29 -158h-901l252 1434h901z" glyph-name="Egrave" unicode="È"/><glyph d="M995 1835h183l-230 -248h-139zM1294 1276h-729l-86 -481h647l-26 -154h-647l-84 -483h729l-29 -158h-901l252 1434h901z" glyph-name="Eacute" unicode="É"/><glyph d="M700 1567h-127l283 288h156l184 -288h-127l-151 184zM1294 1276h-729l-86 -481h647l-26 -154h-647l-84 -483h729l-29 -158h-901l252 1434h901z" glyph-name="Ecircumflex" unicode="Ê"/><glyph d="M586 1700q10 47 50 79.5t87 32.5t74.5 -33.5t19.5 -78.5q-8 -47 -47 -81t-86 -34t-76.5 34t-21.5 81zM981 1700q10 47 50 79.5t87 32.5t75 -33.5t19 -78.5q-8 -47 -47 -81t-86 -34t-76.5 34t-21.5 81zM1294 1276h-729l-86 -481h647l-26 -154h-647l-84 -483h729l-29 -158 h-901l252 1434h901z" glyph-name="Edieresis" unicode="Ë"/><glyph d="M498 1796l98 -248h-137l-144 248h183zM340 0h-172l252 1434h172z" glyph-name="Igrave" horiz-adv-x="507" unicode="Ì"/><glyph d="M641 1796h182l-229 -248h-139zM340 0h-172l252 1434h172z" glyph-name="Iacute" horiz-adv-x="507" unicode="Í"/><glyph d="M348 1528h-127l283 289h155l185 -289h-127l-152 184zM340 0h-172l252 1434h172z" glyph-name="Icircumflex" horiz-adv-x="507" unicode="Î"/><glyph d="M233 1661q10 47 50.5 80t87.5 33t74.5 -34t19.5 -79q-8 -47 -47 -81t-86 -34t-77 34t-22 81zM629 1661q10 47 50 80t87 33t74.5 -34t19.5 -79q-8 -47 -47 -81t-86 -34t-76.5 34t-21.5 81zM340 0h-172l252 1434h172z" glyph-name="Idieresis" horiz-adv-x="507" unicode="Ï"/><glyph d="M926 1434q336 0 500.5 -188.5t107.5 -516.5q-59 -334 -297 -531.5t-563 -197.5h-416l133 754h-205l29 164h205l90 516h416zM850 754h-287l-104 -596h252q242 0 423 154.5t228 418.5q45 258 -79 401.5t-376 143.5h-252l-63 -358h287z" glyph-name="Eth" horiz-adv-x="1523" unicode="Ð"/><glyph d="M713 1669q14 94 78.5 150.5t138.5 56.5q61 0 122.5 -59.5t98.5 -59.5q74 0 90 96h102q-14 -94 -78.5 -150t-138.5 -56q-63 0 -123.5 59t-97.5 59q-74 0 -90 -96h-102zM1354 1434h172l-252 -1434h-182l-549 1151l-203 -1151h-172l252 1434h182l549 -1151z" glyph-name="Ntilde" horiz-adv-x="1441" unicode="Ñ"/><glyph d="M1073 1855l98 -247h-137l-143 247h182zM1079 1454q311 0 471 -211t104.5 -526.5t-290 -526t-545.5 -210.5q-315 0 -474 209.5t-103.5 527t289 527.5t548.5 210zM848 137q242 0 416 166t219 414q43 248 -73 413.5t-357 165.5q-244 0 -420 -165.5t-219 -413.5 q-45 -248 72.5 -414t361.5 -166z" glyph-name="Ograve" horiz-adv-x="1642" unicode="Ò"/><glyph d="M1217 1855h182l-230 -247h-139zM1079 1454q311 0 471 -211t104.5 -526.5t-290 -526t-545.5 -210.5q-315 0 -474 209.5t-103.5 527t289 527.5t548.5 210zM848 137q242 0 416 166t219 414q43 248 -73 413.5t-357 165.5q-244 0 -420 -165.5t-219 -413.5q-45 -248 72.5 -414 t361.5 -166z" glyph-name="Oacute" horiz-adv-x="1642" unicode="Ó"/><glyph d="M924 1587h-127l282 289h156l184 -289h-127l-151 185zM1079 1454q311 0 471 -211t104.5 -526.5t-290 -526t-545.5 -210.5q-315 0 -474 209.5t-103.5 527t289 527.5t548.5 210zM848 137q242 0 416 166t219 414q43 248 -73 413.5t-357 165.5q-244 0 -420 -165.5t-219 -413.5 q-45 -248 72.5 -414t361.5 -166z" glyph-name="Ocircumflex" horiz-adv-x="1642" unicode="Ô"/><glyph d="M819 1690q14 94 79 150t138 56q61 0 123 -59t98 -59q74 0 91 96h102q-14 -94 -78.5 -150.5t-138.5 -56.5q-63 0 -123.5 59.5t-97.5 59.5q-74 0 -90 -96h-103zM1079 1454q311 0 471 -211t104.5 -526.5t-290 -526t-545.5 -210.5q-315 0 -474 209.5t-103.5 527t289 527.5 t548.5 210zM848 137q242 0 416 166t219 414q43 248 -73 413.5t-357 165.5q-244 0 -420 -165.5t-219 -413.5q-45 -248 72.5 -414t361.5 -166z" glyph-name="Otilde" horiz-adv-x="1642" unicode="Õ"/><glyph d="M809 1720q10 47 50 80t87 33t75 -34t19 -79q-8 -47 -47 -80.5t-86 -33.5t-76.5 33.5t-21.5 80.5zM1204 1720q10 47 50 80t87.5 33t75 -34t19.5 -79q-8 -47 -47 -80.5t-86.5 -33.5t-77 33.5t-21.5 80.5zM1079 1454q311 0 471 -211t104.5 -526.5t-290 -526t-545.5 -210.5 q-315 0 -474 209.5t-103.5 527t289 527.5t548.5 210zM848 137q242 0 416 166t219 414q43 248 -73 413.5t-357 165.5q-244 0 -420 -165.5t-219 -413.5q-45 -248 72.5 -414t361.5 -166z" glyph-name="Odieresis" horiz-adv-x="1642" unicode="Ö"/><glyph d="M354 213l-96 117l324 276l-226 275l138 116l225 -274l325 274l97 -116l-326 -275l227 -276l-137 -117l-227 276z" glyph-name="multiply" horiz-adv-x="1185" unicode="×"/><glyph d="M238 717q53 305 290.5 521t544.5 216q80 0 139 -14l62 123l153 -29l-69 -143q172 -86 252 -268.5t41 -405.5q-55 -307 -294 -522t-544 -215q-76 0 -139 14l-60 -123l-155 27l71 145q-172 86 -251.5 268.5t-40.5 405.5zM606 199l533 1089q-57 10 -105 10q-238 0 -414 -183 t-212 -423q-25 -156 24 -286.5t174 -206.5zM1280 1235l-530 -1090q57 -10 104 -10q238 0 413 183.5t214 422.5q25 154 -25.5 286t-175.5 208z" glyph-name="Oslash" horiz-adv-x="1634" unicode="Ø"/><glyph d="M948 1835l99 -248h-138l-143 248h182zM1313 1434h172l-158 -904q-43 -238 -215 -394t-415.5 -156t-360.5 156.5t-74 393.5l158 904h172l-158 -904q-31 -166 41 -279.5t250 -113.5q176 0 287.5 115t142.5 278z" glyph-name="Ugrave" horiz-adv-x="1400" unicode="Ù"/><glyph d="M1092 1835h182l-230 -248h-139zM1313 1434h172l-158 -904q-43 -238 -215 -394t-415.5 -156t-360.5 156.5t-74 393.5l158 904h172l-158 -904q-31 -166 41 -279.5t250 -113.5q176 0 287.5 115t142.5 278z" glyph-name="Uacute" horiz-adv-x="1400" unicode="Ú"/><glyph d="M797 1567h-127l282 288h156l184 -288h-127l-151 184zM1313 1434h172l-158 -904q-43 -238 -215 -394t-415.5 -156t-360.5 156.5t-74 393.5l158 904h172l-158 -904q-31 -166 41 -279.5t250 -113.5q176 0 287.5 115t142.5 278z" glyph-name="Ucircumflex" horiz-adv-x="1400" unicode="Û"/><glyph d="M682 1700q10 47 50 79.5t87 32.5t75 -33.5t19 -78.5q-8 -47 -47 -81t-86 -34t-76.5 34t-21.5 81zM1077 1700q10 47 50 79.5t87.5 32.5t75 -33.5t19.5 -78.5q-8 -47 -47 -81t-86.5 -34t-77 34t-21.5 81zM1313 1434h172l-158 -904q-43 -238 -215 -394t-415.5 -156 t-360.5 156.5t-74 393.5l158 904h172l-158 -904q-31 -166 41 -279.5t250 -113.5q176 0 287.5 115t142.5 278z" glyph-name="Udieresis" horiz-adv-x="1400" unicode="Ü"/><glyph d="M1032 1835h182l-229 -248h-139zM1276 1434h197l-650 -867l-100 -567h-172l100 567l-346 867h197l266 -691z" glyph-name="Yacute" horiz-adv-x="1273" unicode="Ý"/><glyph d="M168 0l254 1436h166l-51 -291h241q195 0 305.5 -122t77.5 -304q-33 -184 -185.5 -306t-348.5 -122h-242l-51 -291h-166zM412 446h239q125 0 221.5 78t118.5 195q20 115 -49.5 192.5t-193.5 77.5h-240z" glyph-name="Thorn" horiz-adv-x="1161" unicode="Þ"/><glyph d="M356 1073q31 172 172.5 276.5t315.5 104.5q176 0 282.5 -103.5t77.5 -275.5q-18 -96 -82.5 -178t-158.5 -129q104 -41 153 -139.5t29 -220.5q-33 -193 -193.5 -300.5t-363.5 -107.5h-113l27 156h108q131 0 238.5 66.5t130 189.5t-61 196.5t-210.5 73.5h-91l27 152h94 q106 0 193.5 63.5t106 167.5t-49 168.5t-174.5 64.5q-113 0 -193.5 -69.5t-101.5 -184.5l-184 -1044h-166z" glyph-name="germandbls" horiz-adv-x="1183" unicode="ß"/><glyph d="M709 1446l98 -248h-137l-144 248h183zM733 1047q182 0 277.5 -102.5t64.5 -280.5l-117 -664h-163l30 172q-82 -98 -173 -145t-218 -47q-147 0 -228 88t-56 227q12 70 51 126t86 91t119.5 60.5t129 38t139.5 18.5t124 7t108 1l6 33q20 113 -45 171t-172 58 q-96 0 -179 -55.5t-114 -145.5l-157 27q49 145 185 233.5t302 88.5zM874 451l11 55q-10 2 -38 0t-67 -1t-87 -5t-97 -13.5t-96 -24t-86 -38t-65.5 -55t-35.5 -76.5q-12 -78 43.5 -122t147.5 -44q133 0 239 96.5t131 227.5z" glyph-name="agrave" horiz-adv-x="1097" unicode="à"/><glyph d="M852 1446h182l-229 -248h-139zM733 1047q182 0 277.5 -102.5t64.5 -280.5l-117 -664h-163l30 172q-82 -98 -173 -145t-218 -47q-147 0 -228 88t-56 227q12 70 51 126t86 91t119.5 60.5t129 38t139.5 18.5t124 7t108 1l6 33q20 113 -45 171t-172 58q-96 0 -179 -55.5 t-114 -145.5l-157 27q49 145 185 233.5t302 88.5zM874 451l11 55q-10 2 -38 0t-67 -1t-87 -5t-97 -13.5t-96 -24t-86 -38t-65.5 -55t-35.5 -76.5q-12 -78 43.5 -122t147.5 -44q133 0 239 96.5t131 227.5z" glyph-name="aacute" horiz-adv-x="1097" unicode="á"/><glyph d="M559 1178h-127l283 288h155l185 -288h-127l-152 184zM733 1047q182 0 277.5 -102.5t64.5 -280.5l-117 -664h-163l30 172q-82 -98 -173 -145t-218 -47q-147 0 -228 88t-56 227q12 70 51 126t86 91t119.5 60.5t129 38t139.5 18.5t124 7t108 1l6 33q20 113 -45 171t-172 58 q-96 0 -179 -55.5t-114 -145.5l-157 27q49 145 185 233.5t302 88.5zM874 451l11 55q-10 2 -38 0t-67 -1t-87 -5t-97 -13.5t-96 -24t-86 -38t-65.5 -55t-35.5 -76.5q-12 -78 43.5 -122t147.5 -44q133 0 239 96.5t131 227.5z" glyph-name="acircumflex" horiz-adv-x="1097" unicode="â"/><glyph d="M453 1280q14 94 78.5 150.5t138.5 56.5q61 0 122.5 -59.5t98.5 -59.5q74 0 90 96h102q-14 -94 -78.5 -150.5t-138.5 -56.5q-63 0 -123.5 59.5t-97.5 59.5q-74 0 -90 -96h-102zM733 1047q182 0 277.5 -102.5t64.5 -280.5l-117 -664h-163l30 172q-82 -98 -173 -145 t-218 -47q-147 0 -228 88t-56 227q12 70 51 126t86 91t119.5 60.5t129 38t139.5 18.5t124 7t108 1l6 33q20 113 -45 171t-172 58q-96 0 -179 -55.5t-114 -145.5l-157 27q49 145 185 233.5t302 88.5zM874 451l11 55q-10 2 -38 0t-67 -1t-87 -5t-97 -13.5t-96 -24t-86 -38 t-65.5 -55t-35.5 -76.5q-12 -78 43.5 -122t147.5 -44q133 0 239 96.5t131 227.5z" glyph-name="atilde" horiz-adv-x="1097" unicode="ã"/><glyph d="M442 1311q10 47 50 79.5t87.5 32.5t75 -33.5t19.5 -78.5q-8 -47 -47 -81t-86 -34t-77 34t-22 81zM838 1311q10 47 50 79.5t87 32.5t74.5 -33.5t19.5 -78.5q-8 -47 -47 -81t-86 -34t-76.5 34t-21.5 81zM733 1047q182 0 277.5 -102.5t64.5 -280.5l-117 -664h-163l30 172 q-82 -98 -173 -145t-218 -47q-147 0 -228 88t-56 227q12 70 51 126t86 91t119.5 60.5t129 38t139.5 18.5t124 7t108 1l6 33q20 113 -45 171t-172 58q-96 0 -179 -55.5t-114 -145.5l-157 27q49 145 185 233.5t302 88.5zM874 451l11 55q-10 2 -38 0t-67 -1t-87 -5t-97 -13.5 t-96 -24t-86 -38t-65.5 -55t-35.5 -76.5q-12 -78 43.5 -122t147.5 -44q133 0 239 96.5t131 227.5z" glyph-name="adieresis" horiz-adv-x="1097" unicode="ä"/><glyph d="M727 1135q-94 0 -151.5 61t-40.5 158q18 98 96 160.5t174 62.5q94 0 147.5 -63.5t34.5 -159.5q-16 -96 -91 -157.5t-169 -61.5zM743.5 1239q49.5 0 87 33t46.5 82q10 53 -16.5 87t-76 34t-90.5 -35t-49 -86t20.5 -83t78 -32zM733 1047q182 0 277.5 -102.5t64.5 -280.5 l-117 -664h-163l30 172q-82 -98 -173 -145t-218 -47q-147 0 -228 88t-56 227q12 70 51 126t86 91t119.5 60.5t129 38t139.5 18.5t124 7t108 1l6 33q20 113 -45 171t-172 58q-96 0 -179 -55.5t-114 -145.5l-157 27q49 145 185 233.5t302 88.5zM874 451l11 55q-10 2 -38 0 t-67 -1t-87 -5t-97 -13.5t-96 -24t-86 -38t-65.5 -55t-35.5 -76.5q-12 -78 43.5 -122t147.5 -44q133 0 239 96.5t131 227.5z" glyph-name="aring" horiz-adv-x="1097" unicode="å"/><glyph d="M145 291q12 70 52.5 125t90.5 89t124.5 59.5t134 37.5t143.5 18.5t126 7.5t106 1q47 268 -215 268q-98 0 -182.5 -55.5t-114.5 -143.5l-152 29q49 139 187.5 228t297.5 89q119 0 215.5 -62t112.5 -148q68 96 180.5 153t225.5 57q221 -2 318 -149t58 -371q-4 -25 -8 -37 h-796q-27 -152 50 -255t214 -103q94 0 179 47t144 135l152 -28q-90 -145 -218 -224t-280 -79q-150 0 -243 72.5t-119 195.5q-166 -268 -486 -268q-152 0 -236 88t-61 223zM1444 897q-119 0 -219.5 -78t-139.5 -190h619q8 109 -64.5 188.5t-195.5 79.5zM309 287 q-14 -84 47.5 -122t153.5 -38q137 2 247.5 97t133.5 227l6 36h-33q-33 2 -60.5 1t-75.5 -2t-88 -7t-88 -14t-86 -23.5t-73 -36t-56.5 -51t-27.5 -67.5z" glyph-name="ae" horiz-adv-x="1851" unicode="æ"/><glyph d="M623 129q109 0 200.5 60.5t137.5 164.5l153 -28q-55 -141 -182 -232.5t-273 -109.5l-59 -111q160 -29 133 -174q-16 -88 -84.5 -129t-163.5 -41q-74 0 -129 20l33 95q43 -12 92 -13q39 0 74 17.5t41 54.5q4 27 -11.5 44t-45 24.5t-54 10.5t-51.5 3l90 199 q-195 27 -288 172t-56 356q41 231 209 381.5t397 150.5q158 0 271.5 -96t122.5 -250l-164 -28q-8 104 -79 164.5t-179 60.5q-164 0 -273.5 -107.5t-140.5 -275.5t42 -275.5t237 -107.5z" glyph-name="ccedilla" horiz-adv-x="1142" unicode="ç"/><glyph d="M776 1446l98 -248h-137l-143 248h182zM1174 494q-2 -6 -4.5 -17.5t-4.5 -17.5h-831q-20 -147 59.5 -239.5t229.5 -92.5q215 0 335 184l154 -28q-190 -303 -514 -303q-229 0 -344 149.5t-74 380.5t206 384t392.5 153t332 -156.5t63.5 -396.5zM365 598h659 q14 135 -61.5 220t-208.5 85q-137 0 -241.5 -83t-147.5 -222z" glyph-name="egrave" horiz-adv-x="1175" unicode="è"/><glyph d="M920 1446h182l-230 -248h-139zM1174 494q-2 -6 -4.5 -17.5t-4.5 -17.5h-831q-20 -147 59.5 -239.5t229.5 -92.5q215 0 335 184l154 -28q-190 -303 -514 -303q-229 0 -344 149.5t-74 380.5t206 384t392.5 153t332 -156.5t63.5 -396.5zM365 598h659q14 135 -61.5 220 t-208.5 85q-137 0 -241.5 -83t-147.5 -222z" glyph-name="eacute" horiz-adv-x="1175" unicode="é"/><glyph d="M627 1178h-127l282 288h156l184 -288h-127l-151 184zM1174 494q-2 -6 -4.5 -17.5t-4.5 -17.5h-831q-20 -147 59.5 -239.5t229.5 -92.5q215 0 335 184l154 -28q-190 -303 -514 -303q-229 0 -344 149.5t-74 380.5t206 384t392.5 153t332 -156.5t63.5 -396.5zM365 598h659 q14 135 -61.5 220t-208.5 85q-137 0 -241.5 -83t-147.5 -222z" glyph-name="ecircumflex" horiz-adv-x="1175" unicode="ê"/><glyph d="M510 1311q10 47 50 79.5t87 32.5t75 -33.5t19 -78.5q-8 -47 -47 -81t-86 -34t-76.5 34t-21.5 81zM905 1311q10 47 50 79.5t87.5 32.5t75 -33.5t19.5 -78.5q-8 -47 -47 -81t-86.5 -34t-77 34t-21.5 81zM1174 494q-2 -6 -4.5 -17.5t-4.5 -17.5h-831q-20 -147 59.5 -239.5 t229.5 -92.5q215 0 335 184l154 -28q-190 -303 -514 -303q-229 0 -344 149.5t-74 380.5t206 384t392.5 153t332 -156.5t63.5 -396.5zM365 598h659q14 135 -61.5 220t-208.5 85q-137 0 -241.5 -83t-147.5 -222z" glyph-name="edieresis" horiz-adv-x="1175" unicode="ë"/><glyph d="M412 1425l98 -247h-137l-144 247h183zM315 0h-163l180 1024h164z" glyph-name="igrave" horiz-adv-x="466" unicode="ì"/><glyph d="M555 1425h182l-229 -247h-139zM315 0h-163l180 1024h164z" glyph-name="iacute" horiz-adv-x="466" unicode="í"/><glyph d="M262 1157h-127l283 289h155l185 -289h-127l-152 184zM315 0h-163l180 1024h164z" glyph-name="icircumflex" horiz-adv-x="466" unicode="î"/><glyph d="M147 1290q10 47 50.5 80t87.5 33t74.5 -34t19.5 -79q-8 -47 -47 -80.5t-86 -33.5t-77 33.5t-22 80.5zM543 1290q10 47 50 80t87 33t74.5 -34t19.5 -79q-8 -47 -47 -80.5t-86 -33.5t-76.5 33.5t-21.5 80.5zM315 0h-163l180 1024h164z" glyph-name="idieresis" horiz-adv-x="466" unicode="ï"/><glyph d="M592 -20q-207 0 -322.5 131t-79.5 348q37 213 197 360.5t369 147.5q207 0 319 -168q23 233 -88 377l-237 -142l-7 131l150 88q-104 66 -258 66l47 135q199 0 346 -117l215 129l4 -137l-133 -80q166 -215 98 -598l-12 -73q-49 -279 -216 -438.5t-392 -159.5zM743 813 q-145 0 -253.5 -101.5t-133.5 -246.5q-27 -147 50 -239.5t219 -92.5q143 0 254.5 95.5t138.5 244.5q25 150 -55.5 245t-219.5 95z" glyph-name="eth" horiz-adv-x="1208" unicode="ð"/><glyph d="M526 1280q14 94 79 150.5t138 56.5q61 0 123 -59.5t99 -59.5q74 0 90 96h102q-14 -94 -78.5 -150.5t-138.5 -56.5q-63 0 -123.5 59.5t-97.5 59.5q-74 0 -90 -96h-103zM829 1044q154 0 247 -110.5t67 -263.5l-119 -670h-164l111 631q20 117 -31 190.5t-166 73.5 q-145 0 -245.5 -108.5t-127.5 -258.5l-94 -528h-164l181 1024h163l-30 -174q68 88 169 141t203 53z" glyph-name="ntilde" horiz-adv-x="1163" unicode="ñ"/><glyph d="M799 1446l98 -248h-137l-144 248h183zM799 1044q229 0 348 -150.5t78 -381.5t-213 -381.5t-402 -150.5q-231 0 -351 150.5t-79 381.5t214.5 381.5t404.5 150.5zM635 129q164 0 277.5 106.5t144 276.5t-46 276.5t-240.5 106.5t-277.5 -106.5t-144.5 -276.5t46 -276.5 t241 -106.5z" glyph-name="ograve" horiz-adv-x="1224" unicode="ò"/><glyph d="M942 1446h182l-229 -248h-139zM799 1044q229 0 348 -150.5t78 -381.5t-213 -381.5t-402 -150.5q-231 0 -351 150.5t-79 381.5t214.5 381.5t404.5 150.5zM635 129q164 0 277.5 106.5t144 276.5t-46 276.5t-240.5 106.5t-277.5 -106.5t-144.5 -276.5t46 -276.5t241 -106.5z " glyph-name="oacute" horiz-adv-x="1224" unicode="ó"/><glyph d="M649 1178h-127l283 288h156l184 -288h-127l-152 184zM799 1044q229 0 348 -150.5t78 -381.5t-213 -381.5t-402 -150.5q-231 0 -351 150.5t-79 381.5t214.5 381.5t404.5 150.5zM635 129q164 0 277.5 106.5t144 276.5t-46 276.5t-240.5 106.5t-277.5 -106.5t-144.5 -276.5 t46 -276.5t241 -106.5z" glyph-name="ocircumflex" horiz-adv-x="1224" unicode="ô"/><glyph d="M543 1280q14 94 78.5 150.5t138.5 56.5q61 0 122.5 -59.5t98.5 -59.5q74 0 90 96h103q-14 -94 -79 -150.5t-139 -56.5q-63 0 -123.5 59.5t-97.5 59.5q-74 0 -90 -96h-102zM799 1044q229 0 348 -150.5t78 -381.5t-213 -381.5t-402 -150.5q-231 0 -351 150.5t-79 381.5 t214.5 381.5t404.5 150.5zM635 129q164 0 277.5 106.5t144 276.5t-46 276.5t-240.5 106.5t-277.5 -106.5t-144.5 -276.5t46 -276.5t241 -106.5z" glyph-name="otilde" horiz-adv-x="1224" unicode="õ"/><glyph d="M532 1311q10 47 50.5 79.5t87.5 32.5t74.5 -33.5t19.5 -78.5q-8 -47 -47 -81t-86 -34t-77 34t-22 81zM928 1311q10 47 50 79.5t87 32.5t74.5 -33.5t19.5 -78.5q-8 -47 -47 -81t-86 -34t-76.5 34t-21.5 81zM799 1044q229 0 348 -150.5t78 -381.5t-213 -381.5t-402 -150.5 q-231 0 -351 150.5t-79 381.5t214.5 381.5t404.5 150.5zM635 129q164 0 277.5 106.5t144 276.5t-46 276.5t-240.5 106.5t-277.5 -106.5t-144.5 -276.5t46 -276.5t241 -106.5z" glyph-name="odieresis" horiz-adv-x="1224" unicode="ö"/><glyph d="M723 842q-53 0 -83 36.5t-21.5 88t51.5 88.5t96 37q51 0 81 -37t21.5 -88.5t-51.5 -88t-94 -36.5zM1081 528h-827l29 164h827zM594 121q-51 0 -82 36t-20 89q8 51 51 88t96 37q51 0 81 -37t21.5 -88t-52.5 -88t-95 -37z" glyph-name="divide" horiz-adv-x="1146" unicode="÷"/><glyph d="M356 49q-109 70 -153.5 189.5t-20.5 261.5q41 227 215 387t400 160q70 0 139 -17l72 123l149 -27l-90 -151q111 -70 156 -189.5t20 -261.5q-39 -227 -213 -387t-397 -160q-84 0 -144 17l-71 -123l-152 27zM444 195l410 694q-39 8 -84 8q-174 -2 -299 -142.5t-125 -316.5 q-6 -159 98 -243zM983 831l-410 -696q33 -8 82 -8q158 0 273.5 112.5t144.5 274.5q4 25 8 74q0 161 -98 243z" glyph-name="oslash" horiz-adv-x="1245" unicode="ø"/><glyph d="M756 1425l98 -247h-137l-144 247h183zM512 -20q-154 0 -245 109.5t-64 264.5l116 670h164l-110 -631q-20 -115 31 -189.5t163 -74.5q143 0 244.5 108.5t128.5 258.5l92 528h164l-180 -1024h-164l31 174q-68 -90 -168.5 -142t-202.5 -52z" glyph-name="ugrave" horiz-adv-x="1159" unicode="ù"/><glyph d="M899 1425h182l-229 -247h-139zM512 -20q-154 0 -245 109.5t-64 264.5l116 670h164l-110 -631q-20 -115 31 -189.5t163 -74.5q143 0 244.5 108.5t128.5 258.5l92 528h164l-180 -1024h-164l31 174q-68 -90 -168.5 -142t-202.5 -52z" glyph-name="uacute" horiz-adv-x="1159" unicode="ú"/><glyph d="M606 1157h-127l283 289h156l184 -289h-127l-152 184zM512 -20q-154 0 -245 109.5t-64 264.5l116 670h164l-110 -631q-20 -115 31 -189.5t163 -74.5q143 0 244.5 108.5t128.5 258.5l92 528h164l-180 -1024h-164l31 174q-68 -90 -168.5 -142t-202.5 -52z" glyph-name="ucircumflex" horiz-adv-x="1159" unicode="û"/><glyph d="M492 1290q10 47 50 80t87 33t74.5 -34t19.5 -79q-8 -47 -47 -80.5t-86 -33.5t-76.5 33.5t-21.5 80.5zM887 1290q10 47 50 80t87 33t74.5 -34t19.5 -79q-8 -47 -47 -80.5t-86 -33.5t-76.5 33.5t-21.5 80.5zM512 -20q-154 0 -245 109.5t-64 264.5l116 670h164l-110 -631 q-20 -115 31 -189.5t163 -74.5q143 0 244.5 108.5t128.5 258.5l92 528h164l-180 -1024h-164l31 174q-68 -90 -168.5 -142t-202.5 -52z" glyph-name="udieresis" horiz-adv-x="1159" unicode="ü"/><glyph d="M838 1425h182l-229 -247h-140zM995 1024h172l-815 -1475h-176l283 494l-226 981h173l165 -795z" glyph-name="yacute" horiz-adv-x="1040" unicode="ý"/><glyph d="M72 -451l340 1926h163l-110 -623q160 193 409 192q213 0 325 -151.5t71 -380.5t-205 -380.5t-377 -151.5q-121 0 -211 51t-131 141l-110 -623h-164zM405.5 512q-30.5 -168 45 -275.5t239.5 -107.5q158 0 271.5 103.5t144.5 279.5t-46 279.5t-235 103.5 q-164 0 -276.5 -107.5t-143 -275.5z" glyph-name="thorn" horiz-adv-x="1269" unicode="þ"/><glyph d="M430 1290q10 47 50 80t87 33t75 -34t20 -79q-8 -47 -47.5 -80.5t-86.5 -33.5t-76.5 33.5t-21.5 80.5zM825 1290q10 47 50 80t87.5 33t75 -34t19.5 -79q-8 -47 -47 -80.5t-86 -33.5t-77 33.5t-22 80.5zM995 1024h172l-815 -1475h-176l283 494l-226 981h173l165 -795z" glyph-name="ydieresis" horiz-adv-x="1040" unicode="ÿ"/><glyph d="M625 1587l26 152h658l-27 -152h-657zM1018 1434l268 -1434h-188l-56 336h-626l-174 -336h-189l772 1434h193zM498 494h520l-129 753z" glyph-name="Amacron" horiz-adv-x="1339" unicode="Ā"/><glyph d="M410 1198l26 152h658l-27 -152h-657zM733 1047q182 0 277.5 -102.5t64.5 -280.5l-117 -664h-163l30 172q-82 -98 -173 -145t-218 -47q-147 0 -228 88t-56 227q12 70 51 126t86 91t119.5 60.5t129 38t139.5 18.5t124 7t108 1l6 33q20 113 -45 171t-172 58 q-96 0 -179 -55.5t-114 -145.5l-157 27q49 145 185 233.5t302 88.5zM874 451l11 55q-10 2 -38 0t-67 -1t-87 -5t-97 -13.5t-96 -24t-86 -38t-65.5 -55t-35.5 -76.5q-12 -78 43.5 -122t147.5 -44q133 0 239 96.5t131 227.5z" glyph-name="amacron" horiz-adv-x="1097" unicode="ā"/><glyph d="M1118 1835h146q-23 -121 -108 -194.5t-208 -73.5t-183 74.5t-38 193.5h145q-12 -59 11.5 -99t85 -40t99.5 39t50 100zM1018 1434l268 -1434h-188l-56 336h-626l-174 -336h-189l772 1434h193zM498 494h520l-129 753z" glyph-name="Abreve" horiz-adv-x="1339" unicode="Ă"/><glyph d="M905 1446h146q-23 -121 -108 -194.5t-208 -73.5t-183 74.5t-38 193.5h145q-12 -59 11.5 -99t85 -40t99.5 39t50 100zM733 1047q182 0 277.5 -102.5t64.5 -280.5l-117 -664h-163l30 172q-82 -98 -173 -145t-218 -47q-147 0 -228 88t-56 227q12 70 51 126t86 91t119.5 60.5 t129 38t139.5 18.5t124 7t108 1l6 33q20 113 -45 171t-172 58q-96 0 -179 -55.5t-114 -145.5l-157 27q49 145 185 233.5t302 88.5zM874 451l11 55q-10 2 -38 0t-67 -1t-87 -5t-97 -13.5t-96 -24t-86 -38t-65.5 -55t-35.5 -76.5q-12 -78 43.5 -122t147.5 -44q133 0 239 96.5 t131 227.5z" glyph-name="abreve" horiz-adv-x="1097" unicode="ă"/><glyph d="M1018 1434l268 -1434q-6 -4 -30.5 -19.5t-31.5 -20.5t-28.5 -18.5t-29 -20.5t-24 -20.5t-22.5 -22.5t-16 -23.5t-15.5 -27.5t-7.5 -28q-18 -88 72 -88q41 0 82 23v-142q-49 -29 -141 -28q-106 0 -159.5 49t-37.5 139q25 145 201 250l-56 334h-626l-174 -336h-189 l772 1434h193zM498 494h520l-129 753z" glyph-name="Aogonek" horiz-adv-x="1339" unicode="Ą"/><glyph d="M733 1047q182 0 277.5 -102.5t64.5 -280.5l-117 -664q-6 -4 -30.5 -19.5t-31.5 -20.5t-28.5 -18.5t-29 -20.5t-23.5 -20.5t-22.5 -22.5t-16.5 -23.5t-15 -27.5t-7 -28q-18 -88 71 -88q41 0 82 23v-142q-49 -29 -141 -28q-106 0 -159.5 49t-37.5 139q27 156 230 266 l26 154q-82 -98 -173 -145t-218 -47q-147 0 -228 88t-56 227q12 70 51 126t86 91t119.5 60.5t129 38t139.5 18.5t124 7t108 1l6 33q20 113 -45 171t-172 58q-96 0 -179 -55.5t-114 -145.5l-157 27q49 145 185 233.5t302 88.5zM874 451l11 55q-10 2 -38 0t-67 -1t-87 -5 t-97 -13.5t-96 -24t-86 -38t-65.5 -55t-35.5 -76.5q-12 -78 43.5 -122t147.5 -44q133 0 239 96.5t131 227.5z" glyph-name="aogonek" horiz-adv-x="1097" unicode="ą"/><glyph d="M1194 1855h182l-229 -247h-139zM825 137q158 0 293 79t213 212l164 -31q-106 -199 -289.5 -308t-402.5 -109q-313 0 -466 208.5t-95 528.5q57 317 281.5 527t531.5 210q219 0 365.5 -111.5t178.5 -306.5l-174 -30q-31 133 -132 211.5t-261 78.5q-236 0 -404.5 -164.5 t-213.5 -414.5t66.5 -415t344.5 -165z" glyph-name="Cacute" horiz-adv-x="1527" unicode="Ć"/><glyph d="M899 1446h182l-229 -248h-139zM623 129q109 0 200.5 60.5t137.5 164.5l153 -28q-61 -156 -208.5 -251t-307.5 -95q-229 0 -344 150.5t-74 381.5t209 381.5t397 150.5q158 0 271.5 -96t122.5 -250l-164 -28q-8 104 -79 164.5t-179 60.5q-164 0 -273.5 -107.5 t-140.5 -275.5t42 -275.5t237 -107.5z" glyph-name="cacute" horiz-adv-x="1142" unicode="ć"/><glyph d="M901 1587h-127l283 289h155l185 -289h-127l-152 185zM825 137q158 0 293 79t213 212l164 -31q-106 -199 -289.5 -308t-402.5 -109q-313 0 -466 208.5t-95 528.5q57 317 281.5 527t531.5 210q219 0 365.5 -111.5t178.5 -306.5l-174 -30q-31 133 -132 211.5t-261 78.5 q-236 0 -404.5 -164.5t-213.5 -414.5t66.5 -415t344.5 -165z" glyph-name="Ccircumflex" horiz-adv-x="1527" unicode="Ĉ"/><glyph d="M606 1178h-127l283 288h156l184 -288h-127l-152 184zM623 129q109 0 200.5 60.5t137.5 164.5l153 -28q-61 -156 -208.5 -251t-307.5 -95q-229 0 -344 150.5t-74 381.5t209 381.5t397 150.5q158 0 271.5 -96t122.5 -250l-164 -28q-8 104 -79 164.5t-179 60.5 q-164 0 -273.5 -107.5t-140.5 -275.5t42 -275.5t237 -107.5z" glyph-name="ccircumflex" horiz-adv-x="1142" unicode="ĉ"/><glyph d="M1077 1587q-47 0 -76.5 34t-21.5 81t49 81t88 34t76 -34t20.5 -81t-48.5 -81t-87 -34zM825 137q158 0 293 79t213 212l164 -31q-106 -199 -289.5 -308t-402.5 -109q-313 0 -466 208.5t-95 528.5q57 317 281.5 527t531.5 210q219 0 365.5 -111.5t178.5 -306.5l-174 -30 q-31 133 -132 211.5t-261 78.5q-236 0 -404.5 -164.5t-213.5 -414.5t66.5 -415t344.5 -165z" glyph-name="Cdotaccent" horiz-adv-x="1527" unicode="Ċ"/><glyph d="M782 1178q-47 0 -76.5 33.5t-21.5 80.5t49 81t88 34t76 -34t20.5 -81t-48.5 -80.5t-87 -33.5zM623 129q109 0 200.5 60.5t137.5 164.5l153 -28q-61 -156 -208.5 -251t-307.5 -95q-229 0 -344 150.5t-74 381.5t209 381.5t397 150.5q158 0 271.5 -96t122.5 -250l-164 -28 q-8 104 -79 164.5t-179 60.5q-164 0 -273.5 -107.5t-140.5 -275.5t42 -275.5t237 -107.5z" glyph-name="cdotaccent" horiz-adv-x="1142" unicode="ċ"/><glyph d="M821 1896h127l152 -184l217 184h127l-287 -288h-156zM825 137q158 0 293 79t213 212l164 -31q-106 -199 -289.5 -308t-402.5 -109q-313 0 -466 208.5t-95 528.5q57 317 281.5 527t531.5 210q219 0 365.5 -111.5t178.5 -306.5l-174 -30q-31 133 -132 211.5t-261 78.5 q-236 0 -404.5 -164.5t-213.5 -414.5t66.5 -415t344.5 -165z" glyph-name="Ccaron" horiz-adv-x="1527" unicode="Č"/><glyph d="M526 1487h127l152 -184l217 184h127l-287 -289h-155zM623 129q109 0 200.5 60.5t137.5 164.5l153 -28q-61 -156 -208.5 -251t-307.5 -95q-229 0 -344 150.5t-74 381.5t209 381.5t397 150.5q158 0 271.5 -96t122.5 -250l-164 -28q-8 104 -79 164.5t-179 60.5 q-164 0 -273.5 -107.5t-140.5 -275.5t42 -275.5t237 -107.5z" glyph-name="ccaron" horiz-adv-x="1142" unicode="č"/><glyph d="M735 1886h127l152 -184l217 184h127l-287 -289h-156zM836 1434q336 0 500.5 -188.5t107.5 -516.5q-59 -334 -297 -531.5t-563 -197.5h-416l252 1434h416zM621 158q242 0 423 154.5t228 418.5q45 258 -79 401.5t-376 143.5h-252l-196 -1118h252z" glyph-name="Dcaron" horiz-adv-x="1425" unicode="Ď"/><glyph d="M1376 1475l-260 -1475h-164l31 172q-72 -90 -181.5 -141t-228.5 -51q-211 0 -321.5 151.5t-69.5 380.5t205 380.5t375 151.5q121 0 210 -51t130 -141l110 623h164zM1753 901h-141l174 533h182zM1042.5 512q30.5 168 -45 275.5t-237.5 107.5q-158 0 -270.5 -103.5 t-143.5 -279.5t46 -279.5t233 -103.5q162 0 274.5 107.5t143 275.5z" glyph-name="dcaron" horiz-adv-x="1771" unicode="ď"/><glyph d="M926 1434q336 0 500.5 -188.5t107.5 -516.5q-59 -334 -297 -531.5t-563 -197.5h-416l133 754h-205l29 164h205l90 516h416zM850 754h-287l-104 -596h252q242 0 423 154.5t228 418.5q45 258 -79 401.5t-376 143.5h-252l-63 -358h287z" glyph-name="Dcroat" horiz-adv-x="1515" unicode="Đ"/><glyph d="M1376 1475l-22 -123h102l-26 -152h-103l-211 -1200h-164l31 172q-72 -90 -181.5 -141t-228.5 -51q-211 0 -321.5 151.5t-69.5 380.5t205 380.5t375 151.5q121 0 210 -51t130 -141l61 348h-207l27 152h207l22 123h164zM1042.5 512q30.5 168 -45 275.5t-237.5 107.5 q-158 0 -270.5 -104.5t-143.5 -280.5t46 -278.5t233 -102.5q162 0 274.5 107.5t143 275.5z" glyph-name="dcroat" horiz-adv-x="1165" unicode="đ"/><glyph d="M553 1587l27 152h657l-27 -152h-657zM1294 1276h-729l-86 -481h647l-26 -154h-647l-84 -483h729l-29 -158h-901l252 1434h901z" glyph-name="Emacron" unicode="Ē"/><glyph d="M477 1198l27 152h657l-26 -152h-658zM1174 494q-2 -6 -4.5 -17.5t-4.5 -17.5h-831q-20 -147 59.5 -239.5t229.5 -92.5q215 0 335 184l154 -28q-190 -303 -514 -303q-229 0 -344 149.5t-74 380.5t206 384t392.5 153t332 -156.5t63.5 -396.5zM365 598h659q14 135 -61.5 220 t-208.5 85q-137 0 -241.5 -83t-147.5 -222z" glyph-name="emacron" horiz-adv-x="1175" unicode="ē"/><glyph d="M1047 1835h145q-23 -121 -108 -194.5t-207.5 -73.5t-183 74.5t-38.5 193.5h146q-12 -59 11.5 -99t84.5 -40t99.5 39t50.5 100zM1294 1276h-729l-86 -481h647l-26 -154h-647l-84 -483h729l-29 -158h-901l252 1434h901z" glyph-name="Ebreve" unicode="Ĕ"/><glyph d="M973 1446h145q-23 -121 -107.5 -194.5t-207.5 -73.5t-183.5 74.5t-37.5 193.5h145q-12 -59 11.5 -99t85 -40t99.5 39t50 100zM1174 494q-2 -6 -4.5 -17.5t-4.5 -17.5h-831q-20 -147 59.5 -239.5t229.5 -92.5q215 0 335 184l154 -28q-190 -303 -514 -303 q-229 0 -344 149.5t-74 380.5t206 384t392.5 153t332 -156.5t63.5 -396.5zM365 598h659q14 135 -61.5 220t-208.5 85q-137 0 -241.5 -83t-147.5 -222z" glyph-name="ebreve" horiz-adv-x="1175" unicode="ĕ"/><glyph d="M876.5 1567q-47.5 0 -77 33.5t-21.5 81t49 81t88.5 33.5t76 -33.5t20.5 -81t-48 -81t-87.5 -33.5zM1294 1276h-729l-86 -481h647l-26 -154h-647l-84 -483h729l-29 -158h-901l252 1434h901z" glyph-name="Edotaccent" unicode="Ė"/><glyph d="M803 1178q-47 0 -77 33.5t-21.5 80.5t49.5 81t88 34t75.5 -34t20.5 -81t-48 -80.5t-87 -33.5zM1174 494q-2 -6 -4.5 -17.5t-4.5 -17.5h-831q-20 -147 59.5 -239.5t229.5 -92.5q215 0 335 184l154 -28q-190 -303 -514 -303q-229 0 -344 149.5t-74 380.5t206 384t392.5 153 t332 -156.5t63.5 -396.5zM365 598h659q14 135 -61.5 220t-208.5 85q-137 0 -241.5 -83t-147.5 -222z" glyph-name="edotaccent" horiz-adv-x="1175" unicode="ė"/><glyph d="M1294 1276h-729l-86 -481h647l-26 -154h-647l-84 -483h729l-29 -158h-901l252 1434h901z" glyph-name="Eogonek" unicode="Ę"/><glyph d="M1174 494q-2 -6 -4.5 -17.5t-4.5 -17.5h-831q-20 -147 59.5 -239.5t229.5 -92.5q215 0 335 184l154 -28q-121 -190 -297 -263q-6 -4 -34.5 -21t-36 -22.5t-31 -21.5t-31.5 -24.5t-24.5 -24t-23.5 -26.5t-14.5 -27.5t-9.5 -32.5q-18 -88 72 -88q41 0 82 22v-141 q-49 -29 -141 -29q-106 0 -159.5 49.5t-37.5 139.5q20 117 139 207q-215 12 -319.5 159.5t-65.5 370.5q41 231 206 384t392.5 153t332 -156.5t63.5 -396.5zM365 598h659q14 135 -61.5 220t-208.5 85q-137 0 -241.5 -83t-147.5 -222z" glyph-name="eogonek" horiz-adv-x="1175" unicode="ę"/><glyph d="M621 1876h127l151 -184l217 184h127l-287 -289h-155zM1294 1276h-729l-86 -481h647l-26 -154h-647l-84 -483h729l-29 -158h-901l252 1434h901z" glyph-name="Ecaron" unicode="Ě"/><glyph d="M547 1487h127l151 -184l217 184h127l-286 -289h-156zM1174 494q-2 -6 -4.5 -17.5t-4.5 -17.5h-831q-20 -147 59.5 -239.5t229.5 -92.5q215 0 335 184l154 -28q-190 -303 -514 -303q-229 0 -344 149.5t-74 380.5t206 384t392.5 153t332 -156.5t63.5 -396.5zM365 598h659 q14 135 -61.5 220t-208.5 85q-137 0 -241.5 -83t-147.5 -222z" glyph-name="ecaron" horiz-adv-x="1175" unicode="ě"/><glyph d="M950 1567h-127l283 288h156l184 -288h-127l-152 184zM1663 754q-2 -16 -5 -36t-5 -33t-2 -17q-57 -313 -270.5 -500.5t-508.5 -187.5q-313 0 -478 207.5t-107 529.5q55 315 286.5 526t550.5 211q203 0 345.5 -92t197.5 -264l-186 -33q-39 109 -143.5 170t-245.5 61 q-240 0 -415 -167.5t-220 -421.5q-45 -252 72.5 -411t361.5 -159q219 0 380 127t197 332h-467l29 158h633z" glyph-name="Gcircumflex" horiz-adv-x="1650" unicode="Ĝ"/><glyph d="M637 1178h-127l283 288h155l185 -288h-127l-152 184zM590 0q-219 0 -333 150.5t-75 371.5q39 215 201 368.5t375 153.5q113 0 208 -50t140 -140l29 170h163l-178 -1008q-39 -229 -199.5 -358t-394.5 -129q-174 0 -286.5 74.5t-130.5 228.5l174 29q12 -94 87.5 -138.5 t188.5 -44.5q164 0 267.5 87.5t129.5 248.5l29 158q-70 -84 -177 -128t-218 -44zM1046.5 522q28.5 164 -48 268.5t-238.5 104.5t-272.5 -103.5t-141.5 -269.5t45 -269t238 -103t275.5 104t142 268z" glyph-name="gcircumflex" horiz-adv-x="1261" unicode="ĝ"/><glyph d="M1296 1835h146q-23 -121 -108 -194.5t-207.5 -73.5t-183 74.5t-38.5 193.5h146q-12 -59 11 -99t84.5 -40t99.5 39t50 100zM1663 754q-2 -16 -5 -36t-5 -33t-2 -17q-57 -313 -270.5 -500.5t-508.5 -187.5q-313 0 -478 207.5t-107 529.5q55 315 286.5 526t550.5 211 q203 0 345.5 -92t197.5 -264l-186 -33q-39 109 -143.5 170t-245.5 61q-240 0 -415 -167.5t-220 -421.5q-45 -252 72.5 -411t361.5 -159q219 0 380 127t197 332h-467l29 158h633z" glyph-name="Gbreve" horiz-adv-x="1650" unicode="Ğ"/><glyph d="M983 1446h145q-23 -121 -107.5 -194.5t-207.5 -73.5t-183.5 74.5t-37.5 193.5h145q-12 -59 11.5 -99t85 -40t99.5 39t50 100zM590 0q-219 0 -333 150.5t-75 371.5q39 215 201 368.5t375 153.5q113 0 208 -50t140 -140l29 170h163l-178 -1008q-39 -229 -199.5 -358 t-394.5 -129q-174 0 -286.5 74.5t-130.5 228.5l174 29q12 -94 87.5 -138.5t188.5 -44.5q164 0 267.5 87.5t129.5 248.5l29 158q-70 -84 -177 -128t-218 -44zM1046.5 522q28.5 164 -48 268.5t-238.5 104.5t-272.5 -103.5t-141.5 -269.5t45 -269t238 -103t275.5 104t142 268z " glyph-name="gbreve" horiz-adv-x="1261" unicode="ğ"/><glyph d="M1126.5 1567q-47.5 0 -77 33.5t-21.5 81t49 81t88 33.5t76 -33.5t20.5 -81t-48 -81t-87 -33.5zM1663 754q-2 -16 -5 -36t-5 -33t-2 -17q-57 -313 -270.5 -500.5t-508.5 -187.5q-313 0 -478 207.5t-107 529.5q55 315 286.5 526t550.5 211q203 0 345.5 -92t197.5 -264 l-186 -33q-39 109 -143.5 170t-245.5 61q-240 0 -415 -167.5t-220 -421.5q-45 -252 72.5 -411t361.5 -159q219 0 380 127t197 332h-467l29 158h633z" glyph-name="Gdotaccent" horiz-adv-x="1650" unicode="Ġ"/><glyph d="M813 1178q-47 0 -76.5 33.5t-21.5 80.5t49 81t88 34t75.5 -34t20.5 -81t-48 -80.5t-87 -33.5zM590 0q-219 0 -333 150.5t-75 371.5q39 215 201 368.5t375 153.5q113 0 208 -50t140 -140l29 170h163l-178 -1008q-39 -229 -199.5 -358t-394.5 -129q-174 0 -286.5 74.5 t-130.5 228.5l174 29q12 -94 87.5 -138.5t188.5 -44.5q164 0 267.5 87.5t129.5 248.5l29 158q-70 -84 -177 -128t-218 -44zM1046.5 522q28.5 164 -48 268.5t-238.5 104.5t-272.5 -103.5t-141.5 -269.5t45 -269t238 -103t275.5 104t142 268z" glyph-name="gdotaccent" horiz-adv-x="1261" unicode="ġ"/><glyph d="M1663 754q-2 -16 -5 -36t-5 -33t-2 -17q-57 -313 -270.5 -500.5t-508.5 -187.5q-313 0 -478 207.5t-107 529.5q55 315 286.5 526t550.5 211q203 0 345.5 -92t197.5 -264l-186 -33q-39 109 -143.5 170t-245.5 61q-240 0 -415 -167.5t-220 -421.5q-45 -252 72.5 -411 t361.5 -159q219 0 380 127t197 332h-467l29 158h633zM758 -143h157l-180 -287h-96z" glyph-name="Gcommaaccent" horiz-adv-x="1650" unicode="Ģ"/><glyph d="M905 1567h119l-127 -369h-162zM590 0q-219 0 -333 150.5t-75 371.5q39 215 201 368.5t375 153.5q113 0 208 -50t140 -140l29 170h163l-178 -1008q-39 -229 -200.5 -358t-395.5 -129q-174 0 -285.5 74.5t-129.5 228.5l174 29q12 -94 87.5 -138.5t188.5 -44.5 q164 0 267.5 87.5t129.5 248.5l29 158q-70 -84 -177 -128t-218 -44zM1046.5 522q28.5 164 -48 268.5t-238.5 104.5t-273.5 -103.5t-140.5 -269.5q-31 -166 45 -269t238 -103t275.5 104t142 268z" glyph-name="gcommaaccent" horiz-adv-x="1261" unicode="ģ"/><glyph d="M815 1577h-127l283 289h155l185 -289h-127l-152 184zM1354 1434h172l-252 -1434h-172l108 621h-761l-109 -621h-172l252 1434h172l-115 -660h762z" glyph-name="Hcircumflex" horiz-adv-x="1441" unicode="Ĥ"/><glyph d="M344 1567h-127l283 288h155l185 -288h-127l-152 184zM842 1044q162 0 248 -114.5t61 -259.5l-119 -670h-164l111 631q20 115 -30 189.5t-165 74.5q-137 0 -243.5 -108.5t-134.5 -270.5l-91 -516h-163l260 1475h163l-112 -637q63 82 162.5 144t216.5 62z" glyph-name="hcircumflex" horiz-adv-x="1171" unicode="ĥ"/><glyph d="M573 1696l27 151h657l-26 -151h-658zM1235 1434h172l-252 -1434h-172l109 621h-762l-109 -621h-172l252 1434h172l-115 -660h762z" glyph-name="Hbar" horiz-adv-x="1204" unicode="Ħ"/><glyph d="M741 1044q160 0 246 -114.5t62 -259.5l-119 -670h-164l111 631q20 115 -30 189.5t-165 74.5q-137 0 -243.5 -108.5t-135.5 -270.5l-90 -516h-164l211 1200h-139l26 152h140l22 123h164l-22 -123h190l-27 -152h-190l-64 -362q63 84 162.5 145t218.5 61z" glyph-name="hbar" horiz-adv-x="1069" unicode="ħ"/><glyph d="M242 1630q14 94 78.5 150.5t138.5 56.5q61 0 122.5 -59.5t98.5 -59.5q74 0 90 97h102q-14 -94 -78.5 -150.5t-138.5 -56.5q-63 0 -123.5 59t-97.5 59q-74 0 -90 -96h-102zM340 0h-172l252 1434h172z" glyph-name="Itilde" horiz-adv-x="507" unicode="Ĩ"/><glyph d="M158 1260q14 94 78.5 150t138.5 56q61 0 122.5 -59t98.5 -59q74 0 90 96h102q-14 -94 -78.5 -150.5t-138.5 -56.5q-63 0 -123.5 59.5t-97.5 59.5q-74 0 -90 -96h-102zM315 0h-163l180 1024h164z" glyph-name="itilde" horiz-adv-x="466" unicode="ĩ"/><glyph d="M201 1548l26 152h658l-27 -152h-657zM340 0h-172l252 1434h172z" glyph-name="Imacron" horiz-adv-x="507" unicode="Ī"/><glyph d="M115 1178l26 151h658l-27 -151h-657zM315 0h-163l180 1024h164z" glyph-name="imacron" horiz-adv-x="466" unicode="ī"/><glyph d="M340 0q-6 -4 -30.5 -19.5t-32 -20.5t-29 -18.5t-28.5 -20.5t-23.5 -20.5t-22.5 -22.5t-16.5 -23.5t-15.5 -27.5t-7 -28q-18 -88 72 -88q41 0 82 23v-142q-49 -29 -142 -28q-106 0 -159.5 49t-36.5 139q27 152 219 260l250 1422h172z" glyph-name="Iogonek" horiz-adv-x="507" unicode="Į"/><glyph d="M469 1272q-47 0 -74.5 32.5t-19.5 79.5q10 47 48 80t85 33t73.5 -32.5t18.5 -80t-46 -80t-85 -32.5zM326 0q-6 -4 -31 -19.5t-32 -20.5t-28.5 -18.5t-28.5 -20.5t-23.5 -20.5t-22.5 -22.5t-16.5 -23.5t-15.5 -27.5t-7 -28q-18 -88 72 -88q41 0 81 23v-142 q-49 -29 -141 -28q-106 0 -159.5 49t-36.5 139q27 156 229 266l176 1006h164z" glyph-name="iogonek" horiz-adv-x="487" unicode="į"/><glyph d="M524 1528q-47 0 -76.5 33.5t-21.5 81t49 81t88 33.5t76 -33.5t20.5 -81t-48.5 -81t-87 -33.5zM340 0h-172l252 1434h172z" glyph-name="Idotaccent" horiz-adv-x="507" unicode="İ"/><glyph d="M315 0h-163l180 1024h164z" glyph-name="dotlessi" horiz-adv-x="466" unicode="ı"/><glyph d="M985 1567h-127l283 288h155l185 -288h-127l-152 184zM1057 1434h172l-176 -1002q-35 -205 -178.5 -328.5t-342.5 -123.5q-197 0 -302 118.5t-89 302.5l174 31q-14 -137 51.5 -216t188.5 -79q127 0 215 81t111 214z" glyph-name="Jcircumflex" horiz-adv-x="1144" unicode="Ĵ"/><glyph d="M289 1157h-127l282 289h156l184 -289h-127l-151 184zM-158 -319q160 -14 230.5 43t99.5 221l190 1079h164l-190 -1077q-37 -213 -141.5 -315.5t-319.5 -102.5l-57 2z" glyph-name="jcircumflex" horiz-adv-x="507" unicode="ĵ"/><glyph d="M758 788l487 -788h-219l-403 668l-197 -181l-86 -487h-172l252 1434h172l-123 -705l760 705h227zM567 -143h158l-180 -287h-96z" glyph-name="Kcommaaccent" horiz-adv-x="1290" unicode="Ķ"/><glyph d="M692 606l348 -606h-198l-279 498l-188 -160l-60 -338h-163l260 1475h163l-161 -922l553 471h219zM463 -143h158l-181 -287h-96z" glyph-name="kcommaaccent" horiz-adv-x="1081" unicode="ķ"/><glyph d="M651 1835h183l-230 -248h-139zM369 158h712l-28 -158h-885l252 1434h172z" glyph-name="Lacute" horiz-adv-x="1138" unicode="Ĺ"/><glyph d="M629 1835h182l-229 -248h-140zM315 0h-163l260 1475h163z" glyph-name="lacute" horiz-adv-x="466" unicode="ĺ"/><glyph d="M369 158h712l-28 -158h-885l252 1434h172zM500 -143h157l-180 -287h-96z" glyph-name="Lcommaaccent" horiz-adv-x="1138" unicode="Ļ"/><glyph d="M315 0h-163l260 1475h163zM123 -143h158l-181 -287h-96z" glyph-name="lcommaaccent" horiz-adv-x="466" unicode="ļ"/><glyph d="M369 158h712l-28 -158h-885l252 1434h172zM778 901h-141l174 533h182z" glyph-name="Lcaron" horiz-adv-x="1138" unicode="Ľ"/><glyph d="M315 0h-163l260 1475h163zM748 901h-142l174 533h183z" glyph-name="lcaron" horiz-adv-x="763" unicode="ľ"/><glyph d="M369 158h712l-28 -158h-885l252 1434h172zM719 598q-53 0 -83 38t-22 91q8 51 52.5 89t97.5 38q51 0 82 -37t20.5 -90t-53.5 -91t-94 -38z" glyph-name="Ldot" horiz-adv-x="1138" unicode="Ŀ"/><glyph d="M315 0h-163l260 1475h163zM770 578q-53 0 -83 37.5t-21 91.5q8 51 52 89t97 38q51 0 82 -37t21 -90q-8 -53 -51.5 -91t-96.5 -38z" glyph-name="ldot" horiz-adv-x="845" unicode="ŀ"/><glyph d="M182 573l31 166l178 78l109 617h172l-94 -539l356 152l-29 -168l-356 -152l-100 -569h671l-28 -158h-844l114 649z" glyph-name="Lslash" horiz-adv-x="1181" unicode="Ł"/><glyph d="M358 573l31 166l273 115l108 621h162l-96 -543l274 115l-29 -168l-274 -115l-135 -764h-162l121 686z" glyph-name="lslash" horiz-adv-x="1175" unicode="ł"/><glyph d="M1112 1835h182l-229 -248h-139zM1354 1434h172l-252 -1434h-182l-549 1151l-203 -1151h-172l252 1434h182l549 -1151z" glyph-name="Nacute" horiz-adv-x="1441" unicode="Ń"/><glyph d="M926 1446h182l-229 -248h-140zM829 1044q154 0 247 -110.5t67 -263.5l-119 -670h-164l111 631q20 117 -31 190.5t-166 73.5q-145 0 -245.5 -108.5t-127.5 -258.5l-94 -528h-164l181 1024h163l-30 -174q68 88 169 141t203 53z" glyph-name="nacute" horiz-adv-x="1163" unicode="ń"/><glyph d="M1354 1434h172l-252 -1434h-182l-549 1151l-203 -1151h-172l252 1434h182l549 -1151zM651 -143h158l-180 -287h-97z" glyph-name="Ncommaaccent" horiz-adv-x="1441" unicode="Ņ"/><glyph d="M829 1044q154 0 247 -110.5t67 -263.5l-119 -670h-164l111 631q20 117 -31 190.5t-166 73.5q-145 0 -245.5 -108.5t-127.5 -258.5l-94 -528h-164l181 1024h163l-30 -174q68 88 169 141t203 53zM508 -143h158l-181 -287h-96z" glyph-name="ncommaaccent" horiz-adv-x="1163" unicode="ņ"/><glyph d="M737 1876h127l152 -184l217 184h127l-287 -289h-155zM1354 1434h172l-252 -1434h-182l-549 1151l-203 -1151h-172l252 1434h182l549 -1151z" glyph-name="Ncaron" horiz-adv-x="1441" unicode="Ň"/><glyph d="M553 1487h127l151 -184l218 184h127l-287 -289h-156zM829 1044q154 0 247 -110.5t67 -263.5l-119 -670h-164l111 631q20 117 -31 190.5t-166 73.5q-145 0 -245.5 -108.5t-127.5 -258.5l-94 -528h-164l181 1024h163l-30 -174q68 88 169 141t203 53z" glyph-name="ncaron" horiz-adv-x="1163" unicode="ň"/><glyph d="M776 1608l27 151h657l-26 -151h-658zM1079 1454q311 0 471 -211t104.5 -526.5t-290 -526t-545.5 -210.5q-315 0 -474 209.5t-103.5 527t289 527.5t548.5 210zM848 137q242 0 416 166t219 414q43 248 -73 413.5t-357 165.5q-244 0 -420 -165.5t-219 -413.5 q-45 -248 72.5 -414t361.5 -166z" glyph-name="Omacron" horiz-adv-x="1642" unicode="Ō"/><glyph d="M500 1198l26 152h658l-27 -152h-657zM799 1044q229 0 348 -150.5t78 -381.5t-213 -381.5t-402 -150.5q-231 0 -351 150.5t-79 381.5t214.5 381.5t404.5 150.5zM635 129q164 0 277.5 106.5t144 276.5t-46 276.5t-240.5 106.5t-277.5 -106.5t-144.5 -276.5t46 -276.5 t241 -106.5z" glyph-name="omacron" horiz-adv-x="1224" unicode="ō"/><glyph d="M1270 1855h145q-23 -121 -107.5 -194.5t-207.5 -73.5t-183.5 75t-37.5 193h145q-12 -59 11.5 -99t85 -40t99.5 39t50 100zM1079 1454q311 0 471 -211t104.5 -526.5t-290 -526t-545.5 -210.5q-315 0 -474 209.5t-103.5 527t289 527.5t548.5 210zM848 137q242 0 416 166 t219 414q43 248 -73 413.5t-357 165.5q-244 0 -420 -165.5t-219 -413.5q-45 -248 72.5 -414t361.5 -166z" glyph-name="Obreve" horiz-adv-x="1642" unicode="Ŏ"/><glyph d="M995 1446h146q-23 -121 -108 -194.5t-208 -73.5t-183 74.5t-38 193.5h146q-12 -59 11 -99t84.5 -40t99.5 39t50 100zM799 1044q229 0 348 -150.5t78 -381.5t-213 -381.5t-402 -150.5q-231 0 -351 150.5t-79 381.5t214.5 381.5t404.5 150.5zM635 129q164 0 277.5 106.5 t144 276.5t-46 276.5t-240.5 106.5t-277.5 -106.5t-144.5 -276.5t46 -276.5t241 -106.5z" glyph-name="obreve" horiz-adv-x="1224" unicode="ŏ"/><glyph d="M1028 1855h182l-229 -247h-139zM1393 1855h182l-229 -247h-140zM1079 1454q311 0 471 -211t104.5 -526.5t-290 -526t-545.5 -210.5q-315 0 -474 209.5t-103.5 527t289 527.5t548.5 210zM848 137q242 0 416 166t219 414q43 248 -73 413.5t-357 165.5q-244 0 -420 -165.5 t-219 -413.5q-45 -248 72.5 -414t361.5 -166z" glyph-name="Ohungarumlaut" horiz-adv-x="1642" unicode="Ő"/><glyph d="M754 1446h182l-229 -248h-140zM1118 1446h182l-229 -248h-139zM799 1044q229 0 348 -150.5t78 -381.5t-213 -381.5t-402 -150.5q-231 0 -351 150.5t-79 381.5t214.5 381.5t404.5 150.5zM635 129q164 0 277.5 106.5t144 276.5t-46 276.5t-240.5 106.5t-277.5 -106.5 t-144.5 -276.5t46 -276.5t241 -106.5z" glyph-name="ohungarumlaut" horiz-adv-x="1224" unicode="ő"/><glyph d="M238 717q53 307 280 522t516 215q174 0 298 -74.5t190 -208.5l45 263h846l-27 -158h-674l-86 -481h592l-27 -154h-592l-83 -483h673l-28 -158h-846l47 262q-111 -131 -262.5 -206.5t-325.5 -75.5q-289 0 -440 214t-96 523zM410 716.5q-43 -239.5 71.5 -409.5t342 -170 t401.5 170t217 409.5t-72 409.5t-342 170t-401 -170t-217 -409.5z" glyph-name="OE" horiz-adv-x="2287" unicode="Œ"/><glyph d="M614 -20q-233 0 -354 150.5t-80 381.5t215 383t408 152q141 0 246.5 -74t140.5 -185q72 111 201 185t266 74q227 0 334.5 -159t64.5 -394q0 -14 -8 -35h-842q-14 -145 71 -237.5t224 -92.5q102 0 193.5 47t148.5 135l154 -28q-88 -145 -224.5 -224t-295.5 -79 q-143 0 -252 70.5t-138 180.5q-78 -113 -205 -182t-268 -69zM774 897q-164 0 -279.5 -107.5t-146.5 -277.5t48 -276.5t243 -106.5t279.5 106.5t146.5 276.5t-48 277.5t-243 107.5zM1235 598h672q14 127 -69 213t-208 86q-131 0 -242.5 -84t-152.5 -215z" glyph-name="oe" horiz-adv-x="2060" unicode="œ"/><glyph d="M1016 1835h182l-229 -248h-140zM928 1434q215 0 327.5 -120t77.5 -319q-29 -160 -135 -269.5t-260 -147.5l240 -578h-193l-225 557h-322l-98 -557h-172l252 1434h508zM801 715q139 0 238.5 76.5t122 203.5t-50.5 204t-212 77h-334l-98 -561h334z" glyph-name="Racute" horiz-adv-x="1247" unicode="Ŕ"/><glyph d="M739 1446h183l-230 -248h-139zM868 1040l-26 -147q-178 16 -294 -85t-149 -286l-92 -522h-164l181 1024h163l-30 -172q143 193 352 192q36 0 59 -4z" glyph-name="racute" horiz-adv-x="741" unicode="ŕ"/><glyph d="M928 1434q215 0 327.5 -120t77.5 -319q-29 -160 -135 -269.5t-260 -147.5l240 -578h-193l-225 557h-322l-98 -557h-172l252 1434h508zM801 715q139 0 238.5 76.5t122 203.5t-50.5 204t-212 77h-334l-98 -561h334zM530 -143h158l-180 -287h-96z" glyph-name="Rcommaaccent" horiz-adv-x="1247" unicode="Ŗ"/><glyph d="M868 1040l-26 -147q-178 16 -294 -85t-149 -286l-92 -522h-164l181 1024h163l-30 -172q143 193 352 192q36 0 59 -4zM115 -143h157l-180 -287h-96z" glyph-name="rcommaaccent" horiz-adv-x="741" unicode="ŗ"/><glyph d="M641 1876h127l152 -184l217 184h127l-287 -289h-156zM928 1434q215 0 327.5 -120t77.5 -319q-29 -160 -135 -269.5t-260 -147.5l240 -578h-193l-225 557h-322l-98 -557h-172l252 1434h508zM801 715q139 0 238.5 76.5t122 203.5t-50.5 204t-212 77h-334l-98 -561h334z" glyph-name="Rcaron" horiz-adv-x="1247" unicode="Ř"/><glyph d="M367 1487h127l151 -184l217 184h127l-287 -289h-155zM868 1040l-26 -147q-178 16 -294 -85t-149 -286l-92 -522h-164l181 1024h163l-30 -172q143 193 352 192q36 0 59 -4z" glyph-name="rcaron" horiz-adv-x="741" unicode="ř"/><glyph d="M987 1855h182l-229 -247h-139zM485 1067q-16 -96 46.5 -152.5t185.5 -91.5q221 -66 295 -102q207 -111 168 -332q-35 -193 -200 -301t-376 -108q-197 0 -315.5 99t-124.5 290l174 28q-2 -125 84 -194.5t217 -69.5q129 0 236.5 64.5t130.5 183.5q31 178 -224 252 q-221 66 -280 92q-219 102 -195 309q2 14 4 27q33 182 185.5 287.5t343.5 105.5q176 0 291.5 -93t125.5 -263l-174 -31q-10 113 -79.5 173t-184.5 60q-123 0 -219.5 -63.5t-114.5 -169.5z" glyph-name="Sacute" horiz-adv-x="1208" unicode="Ś"/><glyph d="M813 1448h182l-229 -248h-139zM408 756q-12 -70 46 -106t183 -60q49 -10 86 -20.5t88 -34t81 -54t46 -82t6 -114.5q-27 -145 -156 -225t-286 -80q-156 0 -260.5 77.5t-98.5 225.5l166 26q4 -90 60.5 -136t152.5 -46q88 0 165 36t91 116q12 68 -39 100.5t-164 56.5 q-59 12 -103 25.5t-95 38t-81 55.5t-45 79t-5 107q23 137 147.5 222.5t272.5 85.5q135 0 233 -75t98 -206l-163 -27q-4 76 -58.5 119t-136.5 43q-78 0 -148.5 -37.5t-82.5 -109.5z" glyph-name="sacute" horiz-adv-x="987" unicode="ś"/><glyph d="M694 1587h-127l283 289h156l184 -289h-127l-152 185zM485 1067q-16 -96 46.5 -152.5t185.5 -91.5q221 -66 295 -102q207 -111 168 -332q-35 -193 -200 -301t-376 -108q-197 0 -315.5 99t-124.5 290l174 28q-2 -125 84 -194.5t217 -69.5q129 0 236.5 64.5t130.5 183.5 q31 178 -224 252q-221 66 -280 92q-219 102 -195 309q2 14 4 27q33 182 185.5 287.5t343.5 105.5q176 0 291.5 -93t125.5 -263l-174 -31q-10 113 -79.5 173t-184.5 60q-123 0 -219.5 -63.5t-114.5 -169.5z" glyph-name="Scircumflex" horiz-adv-x="1208" unicode="Ŝ"/><glyph d="M520 1180h-127l283 288h155l185 -288h-127l-152 184zM408 756q-12 -70 46 -106t183 -60q49 -10 86 -20.5t88 -34t81 -54t46 -82t6 -114.5q-27 -145 -156 -225t-286 -80q-156 0 -260.5 77.5t-98.5 225.5l166 26q4 -90 60.5 -136t152.5 -46q88 0 165 36t91 116 q12 68 -39 100.5t-164 56.5q-59 12 -103 25.5t-95 38t-81 55.5t-45 79t-5 107q23 137 147.5 222.5t272.5 85.5q135 0 233 -75t98 -206l-163 -27q-4 76 -58.5 119t-136.5 43q-78 0 -148.5 -37.5t-82.5 -109.5z" glyph-name="scircumflex" horiz-adv-x="987" unicode="ŝ"/><glyph d="M485 1067q-16 -96 46.5 -152.5t185.5 -91.5q221 -66 295 -102q207 -111 168 -332q-33 -176 -173.5 -281.5t-330.5 -123.5l-60 -111q160 -29 134 -174q-16 -88 -85 -129t-163 -41q-74 0 -129 20l33 95q43 -12 92 -13q39 0 73.5 17.5t40.5 54.5q4 27 -11 44t-45 24.5 t-54.5 10.5t-50.5 3l90 197q-170 16 -270.5 114.5t-106.5 272.5l174 28q-2 -125 84 -194.5t217 -69.5q129 0 236.5 64.5t130.5 183.5q31 178 -224 252q-221 66 -280 92q-219 102 -195 309q2 14 4 27q33 182 185.5 287.5t343.5 105.5q176 0 291.5 -93t125.5 -263l-174 -31 q-10 113 -79.5 173t-184.5 60q-123 0 -219.5 -63.5t-114.5 -169.5z" glyph-name="Scedilla" horiz-adv-x="1208" unicode="Ş"/><glyph d="M408 756q-12 -70 46 -106t183 -60q49 -10 86 -20.5t88 -34t81 -54t46 -82t6 -114.5q-25 -131 -133.5 -210t-251.5 -93l-57 -109q160 -29 133 -174q-16 -88 -85 -129t-163 -41q-74 0 -129 20l33 95q43 -12 92 -13q39 0 74 17.5t41 54.5q4 27 -11.5 44t-45 24.5t-54.5 10.5 t-51 3l92 199q-129 18 -209 94t-76 205l166 26q4 -90 60.5 -136t152.5 -46q88 0 165 36t91 116q12 68 -39 100.5t-164 56.5q-59 12 -103 25.5t-95 38t-81 55.5t-45 79t-5 107q23 137 147.5 222.5t272.5 85.5q135 0 233 -75t98 -206l-163 -27q-4 76 -58.5 119t-136.5 43 q-78 0 -148.5 -37.5t-82.5 -109.5z" glyph-name="scedilla" horiz-adv-x="987" unicode="ş"/><glyph d="M614 1896h127l152 -184l217 184h127l-287 -288h-155zM485 1067q-16 -96 46.5 -152.5t185.5 -91.5q221 -66 295 -102q207 -111 168 -332q-35 -193 -200 -301t-376 -108q-197 0 -315.5 99t-124.5 290l174 28q-2 -125 84 -194.5t217 -69.5q129 0 236.5 64.5t130.5 183.5 q31 178 -224 252q-221 66 -280 92q-219 102 -195 309q2 14 4 27q33 182 185.5 287.5t343.5 105.5q176 0 291.5 -93t125.5 -263l-174 -31q-10 113 -79.5 173t-184.5 60q-123 0 -219.5 -63.5t-114.5 -169.5z" glyph-name="Scaron" horiz-adv-x="1208" unicode="Š"/><glyph d="M440 1489h127l152 -184l217 184h127l-287 -289h-155zM408 756q-12 -70 46 -106t183 -60q49 -10 86 -20.5t88 -34t81 -54t46 -82t6 -114.5q-27 -145 -156 -225t-286 -80q-156 0 -260.5 77.5t-98.5 225.5l166 26q4 -90 60.5 -136t152.5 -46q88 0 165 36t91 116 q12 68 -39 100.5t-164 56.5q-59 12 -103 25.5t-95 38t-81 55.5t-45 79t-5 107q23 137 147.5 222.5t272.5 85.5q135 0 233 -75t98 -206l-163 -27q-4 76 -58.5 119t-136.5 43q-78 0 -148.5 -37.5t-82.5 -109.5z" glyph-name="scaron" horiz-adv-x="987" unicode="š"/><glyph d="M330 1434h1081l-27 -158h-454l-225 -1276h-173l226 1276h-455zM516 -143h158l-180 -287h-97z" glyph-name="Tcommaaccent" horiz-adv-x="1236" unicode="Ţ"/><glyph d="M750 887h-222l-102 -586q-16 -96 3.5 -135t107.5 -39q47 0 90 14l-27 -149q-59 -12 -121 -12q-274 0 -221 296l107 611h-164l24 137h166l47 262l164 27l-51 -289h223zM365 -143h157l-180 -287h-96z" glyph-name="tcommaaccent" horiz-adv-x="700" unicode="ţ"/><glyph d="M639 1876h127l152 -184l217 184h127l-287 -289h-156zM330 1434h1081l-27 -158h-454l-225 -1276h-173l226 1276h-455z" glyph-name="Tcaron" horiz-adv-x="1236" unicode="Ť"/><glyph d="M1155 901h-141l174 533h182zM750 887h-222l-102 -586q-16 -96 3.5 -135t107.5 -39q47 0 90 14l-27 -149q-59 -12 -121 -12q-274 0 -221 296l107 611h-164l24 137h166l47 262l164 27l-51 -289h223z" glyph-name="tcaron" horiz-adv-x="1222" unicode="ť"/><glyph d="M330 1434h1081l-27 -158h-454l-90 -510h243l-26 -152h-244l-108 -614h-173l109 614h-242l27 152h242l90 510h-455z" glyph-name="Tbar" horiz-adv-x="1236" unicode="Ŧ"/><glyph d="M750 887h-222l-41 -234h222l-27 -151h-221l-35 -201q-16 -96 3.5 -135t107.5 -39q47 0 90 14l-27 -149q-59 -12 -121 -12q-274 0 -221 296l39 226h-164l27 151h164l41 234h-164l24 137h166l47 262l164 27l-51 -289h223z" glyph-name="tbar" horiz-adv-x="704" unicode="ŧ"/><glyph d="M692 1669q14 94 79 150.5t138 56.5q61 0 123 -59.5t98 -59.5q74 0 91 96h102q-14 -94 -78.5 -150t-138.5 -56q-63 0 -123.5 59t-97.5 59q-74 0 -90 -96h-103zM1313 1434h172l-158 -904q-43 -238 -215 -394t-415.5 -156t-360.5 156.5t-74 393.5l158 904h172l-158 -904 q-31 -166 41 -279.5t250 -113.5q176 0 287.5 115t142.5 278z" glyph-name="Utilde" horiz-adv-x="1400" unicode="Ũ"/><glyph d="M502 1260q14 94 78.5 150t138.5 56q61 0 122.5 -59t98.5 -59q74 0 90 96h103q-14 -94 -79 -150.5t-139 -56.5q-63 0 -123.5 59.5t-97.5 59.5q-74 0 -90 -96h-102zM512 -20q-154 0 -245 109.5t-64 264.5l116 670h164l-110 -631q-20 -115 31 -189.5t163 -74.5 q143 0 244.5 108.5t128.5 258.5l92 528h164l-180 -1024h-164l31 174q-68 -90 -168.5 -142t-202.5 -52z" glyph-name="utilde" horiz-adv-x="1159" unicode="ũ"/><glyph d="M649 1587l27 152h657l-26 -152h-658zM1313 1434h172l-158 -904q-43 -238 -215 -394t-415.5 -156t-360.5 156.5t-74 393.5l158 904h172l-158 -904q-31 -166 41 -279.5t250 -113.5q176 0 287.5 115t142.5 278z" glyph-name="Umacron" horiz-adv-x="1400" unicode="Ū"/><glyph d="M459 1178l26 151h658l-27 -151h-657zM512 -20q-154 0 -245 109.5t-64 264.5l116 670h164l-110 -631q-20 -115 31 -189.5t163 -74.5q143 0 244.5 108.5t128.5 258.5l92 528h164l-180 -1024h-164l31 174q-68 -90 -168.5 -142t-202.5 -52z" glyph-name="umacron" horiz-adv-x="1159" unicode="ū"/><glyph d="M1143 1835h145q-23 -121 -107.5 -194.5t-207.5 -73.5t-183.5 74.5t-37.5 193.5h145q-12 -59 11.5 -99t85 -40t99.5 39t50 100zM1313 1434h172l-158 -904q-43 -238 -215 -394t-415.5 -156t-360.5 156.5t-74 393.5l158 904h172l-158 -904q-31 -166 41 -279.5t250 -113.5 q176 0 287.5 115t142.5 278z" glyph-name="Ubreve" horiz-adv-x="1400" unicode="Ŭ"/><glyph d="M952 1425h146q-23 -121 -108 -194.5t-208 -73.5t-183 75t-38 193h146q-12 -59 11 -99t84.5 -40t99.5 39t50 100zM512 -20q-154 0 -245 109.5t-64 264.5l116 670h164l-110 -631q-20 -115 31 -189.5t163 -74.5q143 0 244.5 108.5t128.5 258.5l92 528h164l-180 -1024h-164 l31 174q-68 -90 -168.5 -142t-202.5 -52z" glyph-name="ubreve" horiz-adv-x="1159" unicode="ŭ"/><glyph d="M966.5 1524q-94.5 0 -151.5 61.5t-41 157.5q18 98 96 160.5t174 62.5q94 0 147.5 -63.5t35.5 -159.5q-16 -96 -91 -157.5t-169.5 -61.5zM983 1628q49 0 87 33t46 82q10 53 -16.5 87t-75.5 34t-90 -35t-49 -86t20.5 -83t77.5 -32zM1313 1434h172l-158 -904 q-43 -238 -215 -394t-415.5 -156t-360.5 156.5t-74 393.5l158 904h172l-158 -904q-31 -166 41 -279.5t250 -113.5q176 0 287.5 115t142.5 278z" glyph-name="Uring" horiz-adv-x="1400" unicode="Ů"/><glyph d="M774 1114q-94 0 -151.5 61.5t-40.5 157.5q18 98 96 160.5t174 62.5q94 0 147.5 -63t34.5 -160q-16 -96 -91 -157.5t-169 -61.5zM790.5 1219q49.5 0 87 32.5t46.5 81.5q10 53 -16.5 87t-76 34t-90.5 -35t-49 -86t20.5 -82.5t78 -31.5zM512 -20q-154 0 -245 109.5 t-64 264.5l116 670h164l-110 -631q-20 -115 31 -189.5t163 -74.5q143 0 244.5 108.5t128.5 258.5l92 528h164l-180 -1024h-164l31 174q-68 -90 -168.5 -142t-202.5 -52z" glyph-name="uring" horiz-adv-x="1159" unicode="ů"/><glyph d="M903 1835h182l-229 -248h-139zM1268 1835h182l-229 -248h-140zM1313 1434h172l-158 -904q-43 -238 -215 -394t-415.5 -156t-360.5 156.5t-74 393.5l158 904h172l-158 -904q-31 -166 41 -279.5t250 -113.5q176 0 287.5 115t142.5 278z" glyph-name="Uhungarumlaut" horiz-adv-x="1400" unicode="Ű"/><glyph d="M711 1425h182l-229 -247h-140zM1075 1425h182l-229 -247h-139zM512 -20q-154 0 -245 109.5t-64 264.5l116 670h164l-110 -631q-20 -115 31 -189.5t163 -74.5q143 0 244.5 108.5t128.5 258.5l92 528h164l-180 -1024h-164l31 174q-68 -90 -168.5 -142t-202.5 -52z" glyph-name="uhungarumlaut" horiz-adv-x="1159" unicode="ű"/><glyph d="M1313 1434h172l-158 -904q-33 -178 -140.5 -315t-266.5 -197q-6 -4 -31 -19t-32 -20.5t-28.5 -18.5t-28.5 -20.5t-23.5 -20.5t-22.5 -22.5t-16.5 -23.5t-15.5 -27.5t-7 -27.5q-18 -88 71 -88q41 0 82 22v-141q-49 -29 -141 -29q-106 0 -159.5 49.5t-37.5 139.5 q20 117 142 209q-233 8 -342 163.5t-68 386.5l158 904h172l-158 -904q-31 -166 41 -279.5t250 -113.5q176 0 287.5 115t142.5 278z" glyph-name="Uogonek" horiz-adv-x="1400" unicode="Ų"/><glyph d="M512 -20q-154 0 -245 109.5t-64 264.5l116 670h164l-110 -631q-20 -115 31 -189.5t163 -74.5q143 0 244.5 108.5t128.5 258.5l92 528h164l-180 -1024q-6 -4 -30.5 -19.5t-32 -20.5t-29 -18.5t-28.5 -20.5t-23.5 -20.5t-22.5 -22.5t-16.5 -23.5t-15.5 -27.5t-7 -28 q-18 -88 72 -88q41 0 82 23v-142q-49 -29 -142 -28q-106 0 -159.5 49t-36.5 139q27 156 229 266l27 156q-68 -90 -168.5 -142t-202.5 -52z" glyph-name="uogonek" horiz-adv-x="1159" unicode="ų"/><glyph d="M1096 1567h-127l282 288h156l184 -288h-127l-151 184zM1995 1434h174l-651 -1434h-195l-135 1094l-520 -1094h-195l-147 1434h174l114 -1209l576 1209h115l151 -1209z" glyph-name="Wcircumflex" horiz-adv-x="1990" unicode="Ŵ"/><glyph d="M813 1157h-127l283 289h155l185 -289h-127l-152 184zM1524 1024h168l-490 -1024h-172l-104 801l-387 -801h-172l-129 1024h168l81 -834l406 834h143l111 -834z" glyph-name="wcircumflex" horiz-adv-x="1568" unicode="ŵ"/><glyph d="M737 1567h-127l283 288h156l184 -288h-127l-152 184zM1276 1434h197l-650 -867l-100 -567h-172l100 567l-346 867h197l266 -691z" glyph-name="Ycircumflex" horiz-adv-x="1273" unicode="Ŷ"/><glyph d="M545 1157h-127l282 289h156l184 -289h-127l-151 184zM995 1024h172l-815 -1475h-176l283 494l-226 981h173l165 -795z" glyph-name="ycircumflex" horiz-adv-x="1040" unicode="ŷ"/><glyph d="M623 1700q10 47 50 79.5t87 32.5t74.5 -33.5t19.5 -78.5q-8 -47 -47 -81t-86 -34t-76.5 34t-21.5 81zM1018 1700q10 47 50 79.5t87 32.5t74.5 -33.5t19.5 -78.5q-8 -47 -47 -81t-86 -34t-76.5 34t-21.5 81zM1276 1434h197l-650 -867l-100 -567h-172l100 567l-346 867h197 l266 -691z" glyph-name="Ydieresis" horiz-adv-x="1273" unicode="Ÿ"/><glyph d="M1055 1835h182l-229 -248h-140zM362 158h859l-29 -158h-1065l27 154l1036 1122h-817l26 158h1024l-26 -154z" glyph-name="Zacute" horiz-adv-x="1318" unicode="Ź"/><glyph d="M870 1425h183l-230 -247h-139zM362 150h635l-26 -150h-852l22 127l746 747h-594l26 150h811l-22 -127z" glyph-name="zacute" horiz-adv-x="1089" unicode="ź"/><glyph d="M936 1567q-47 0 -77 33.5t-21.5 81t49.5 81t88 33.5t75.5 -33.5t20.5 -81t-48 -81t-87 -33.5zM362 158h859l-29 -158h-1065l27 154l1036 1122h-817l26 158h1024l-26 -154z" glyph-name="Zdotaccent" horiz-adv-x="1318" unicode="Ż"/><glyph d="M754 1157q-47 0 -77 34t-21.5 81t49 80.5t88 33.5t76 -33.5t20.5 -80.5t-48 -81t-87 -34zM362 150h635l-26 -150h-852l22 127l746 747h-594l26 150h811l-22 -127z" glyph-name="zdotaccent" horiz-adv-x="1089" unicode="ż"/><glyph d="M680 1876h127l151 -184l218 184h127l-287 -289h-156zM362 158h859l-29 -158h-1065l27 154l1036 1122h-817l26 158h1024l-26 -154z" glyph-name="Zcaron" horiz-adv-x="1318" unicode="Ž"/><glyph d="M498 1466h127l151 -184l217 184h127l-286 -288h-156zM362 150h635l-26 -150h-852l22 127l746 747h-594l26 150h811l-22 -127z" glyph-name="zcaron" horiz-adv-x="1089" unicode="ž"/><glyph d="M539 1176l-207 -1176h-164l205 1157q57 338 352 338q90 0 98 -8l-26 -150q-2 2 -19.5 4t-44 3.5t-55.5 -3.5q-59 -12 -92 -49.5t-47 -115.5z" glyph-name="longs" horiz-adv-x="663" unicode="ſ"/><glyph d="M8 -319q66 -6 115 0q100 10 149.5 70.5t71.5 195.5l166 940h-195l25 137h195l2 12q39 223 152.5 319.5t332.5 96.5l27 -2h14l-27 -150q-66 6 -114 0q-98 -8 -148.5 -69.5t-73.5 -196.5l-2 -10h269l-25 -137h-268l-166 -942q-39 -221 -153.5 -318.5t-331.5 -97.5l-25 2 h-14z" glyph-name="florin" horiz-adv-x="872" unicode="ƒ"/><glyph d="M485 1067q-16 -96 46.5 -152.5t185.5 -91.5q221 -66 295 -102q207 -111 168 -332q-35 -193 -200 -301t-376 -108q-197 0 -315.5 99t-124.5 290l174 28q-2 -125 84 -194.5t217 -69.5q129 0 236.5 64.5t130.5 183.5q31 178 -224 252q-221 66 -280 92q-219 102 -195 309 q2 14 4 27q33 182 185.5 287.5t343.5 105.5q176 0 291.5 -93t125.5 -263l-174 -31q-10 113 -79.5 173t-184.5 60q-123 0 -219.5 -63.5t-114.5 -169.5zM492 -143h157l-180 -287h-96z" glyph-name="Scommaaccent" horiz-adv-x="1208" unicode="Ș"/><glyph d="M408 756q-12 -70 46 -106t183 -60q49 -10 86 -20.5t88 -34t81 -54t46 -82t6 -114.5q-27 -145 -156 -225t-286 -80q-156 0 -260.5 77.5t-98.5 225.5l166 26q4 -90 60.5 -136t152.5 -46q88 0 165 36t91 116q12 68 -39 100.5t-164 56.5q-59 12 -103 25.5t-95 38t-81 55.5 t-45 79t-5 107q23 137 147.5 222.5t272.5 85.5q135 0 233 -75t98 -206l-163 -27q-4 76 -58.5 119t-136.5 43q-78 0 -148.5 -37.5t-82.5 -109.5zM377 -143h158l-181 -287h-96z" glyph-name="scommaaccent" horiz-adv-x="987" unicode="ș"/><glyph d="M330 1434h1081l-27 -158h-454l-225 -1276h-173l226 1276h-455zM516 -143h158l-180 -287h-97z" glyph-name="uni021A" horiz-adv-x="1236" unicode="Ț"/><glyph d="M750 887h-222l-102 -586q-16 -96 3.5 -135t107.5 -39q47 0 90 14l-27 -149q-59 -12 -121 -12q-274 0 -221 296l107 611h-164l24 137h166l47 262l164 27l-51 -289h223zM365 -143h157l-180 -287h-96z" glyph-name="uni021B" horiz-adv-x="700" unicode="ț"/><glyph d="M-158 -319q160 -14 230.5 43t99.5 221l190 1079h164l-190 -1077q-37 -213 -141.5 -315.5t-319.5 -102.5l-57 2z" glyph-name="uni0237" horiz-adv-x="507" unicode="ȷ"/><glyph d="M526 1167h-127l283 289h156l184 -289h-127l-152 185z" glyph-name="circumflex" horiz-adv-x="1007" unicode="ˆ"/><glyph d="M455 1477h127l151 -185l217 185h127l-286 -289h-156z" glyph-name="caron" horiz-adv-x="1009" unicode="ˇ"/><glyph d="M838 1436h145q-23 -121 -107.5 -195t-207.5 -74t-183.5 75t-38.5 194h146q-12 -59 11.5 -99.5t85 -40.5t99.5 39.5t50 100.5z" glyph-name="breve" horiz-adv-x="921" unicode="˘"/><glyph d="M516 1167q-47 0 -76.5 34t-21.5 81t49 81t88 34t75.5 -34t20.5 -81t-48 -81t-87 -34z" glyph-name="dotaccent" horiz-adv-x="618" unicode="˙"/><glyph d="M629 1167q-94 0 -151.5 61.5t-41.5 157.5q18 98 96 161t175 63q94 0 147 -63.5t35 -160.5q-16 -96 -91 -157.5t-169 -61.5zM645 1272q49 0 87 32.5t46 81.5q10 53 -16.5 87t-75.5 34t-90 -34.5t-49 -86t20.5 -83t77.5 -31.5z" glyph-name="ring" horiz-adv-x="837" unicode="˚"/><glyph d="M346 -436q-106 0 -159.5 49t-36.5 139q31 188 317 309l72 -61q-6 -4 -31 -19.5t-32 -20.5t-28.5 -18.5t-28.5 -20.5t-23.5 -20.5t-22.5 -22.5t-16.5 -23.5t-15.5 -27.5t-7 -28q-18 -88 72 -88q41 0 81 23v-142q-49 -28 -141 -28z" glyph-name="ogonek" horiz-adv-x="751" unicode="˛"/><glyph d="M389 1114q14 94 78.5 150.5t138.5 56.5q61 0 123 -59.5t98 -59.5q74 0 91 96h102q-14 -94 -78.5 -150t-138.5 -56q-63 0 -124 59t-97 59q-74 0 -90 -96h-103z" glyph-name="tilde" horiz-adv-x="983" unicode="˜"/><glyph d="M588 1434h182l-229 -248h-140zM952 1434h183l-230 -248h-139z" glyph-name="hungarumlaut" horiz-adv-x="1075" unicode="˝"/><glyph d="M279 -143h157l-180 -287h-96z" glyph-name="uni0326" horiz-adv-x="694" unicode="̦"/><glyph d="M86 0l711 1434h204l207 -1434h-1122zM330 152h688l-150 1099z" glyph-name="Delta" horiz-adv-x="1294" unicode="Δ"/><glyph d="M672 0h-520l26 156h260q-94 57 -153.5 221t-26.5 342q55 309 283.5 522t531.5 213t456.5 -213t98.5 -522q-33 -178 -148.5 -342t-232.5 -221h281l-27 -156h-540l26 156q393 109 473 561q43 244 -67.5 412.5t-346 168.5t-406.5 -168.5t-214 -412.5q-18 -133 -7 -226.5 t57 -163t100.5 -108.5t121.5 -63z" glyph-name="Omega" horiz-adv-x="1632" unicode="Ω"/><glyph d="M1206 1024l-180 -1024h-164l31 174q-61 -80 -159.5 -137t-213.5 -57q-121 0 -205 71l-88 -502h-164l261 1475h163l-110 -631q-20 -115 31 -189.5t165 -74.5q137 0 243 103.5t134 263.5l92 528h164z" glyph-name="mu" horiz-adv-x="1169" unicode="μ"/><glyph d="M246 872l24 154h1071l-26 -154h-148l-153 -872h-162l154 872h-451l-154 -872h-161l153 872h-147z" glyph-name="pi" horiz-adv-x="1271" unicode="π"/><glyph d="M1247 1835l99 -248h-138l-143 248h182zM1995 1434h174l-651 -1434h-195l-135 1094l-520 -1094h-195l-147 1434h174l114 -1209l576 1209h115l151 -1209z" glyph-name="Wgrave" horiz-adv-x="1990" unicode="Ẁ"/><glyph d="M963 1425l98 -247h-137l-144 247h183zM1524 1024h168l-490 -1024h-172l-104 801l-387 -801h-172l-129 1024h168l81 -834l406 834h143l111 -834z" glyph-name="wgrave" horiz-adv-x="1568" unicode="ẁ"/><glyph d="M1391 1835h182l-230 -248h-139zM1995 1434h174l-651 -1434h-195l-135 1094l-520 -1094h-195l-147 1434h174l114 -1209l576 1209h115l151 -1209z" glyph-name="Wacute" horiz-adv-x="1990" unicode="Ẃ"/><glyph d="M1106 1425h182l-229 -247h-139zM1524 1024h168l-490 -1024h-172l-104 801l-387 -801h-172l-129 1024h168l81 -834l406 834h143l111 -834z" glyph-name="wacute" horiz-adv-x="1568" unicode="ẃ"/><glyph d="M981 1700q10 47 50 79.5t87 32.5t75 -33.5t19 -78.5q-8 -47 -47 -81t-86 -34t-76.5 34t-21.5 81zM1376 1700q10 47 50 79.5t87.5 32.5t75 -33.5t19.5 -78.5q-8 -47 -47 -81t-86.5 -34t-77 34t-21.5 81zM1995 1434h174l-651 -1434h-195l-135 1094l-520 -1094h-195 l-147 1434h174l114 -1209l576 1209h115l151 -1209z" glyph-name="Wdieresis" horiz-adv-x="1990" unicode="Ẅ"/><glyph d="M698 1290q10 47 50 80t87.5 33t75 -34t19.5 -79q-8 -47 -47 -80.5t-86 -33.5t-77 33.5t-22 80.5zM1094 1290q10 47 50 80t87 33t74.5 -34t19.5 -79q-8 -47 -47 -80.5t-86 -33.5t-76.5 33.5t-21.5 80.5zM1524 1024h168l-490 -1024h-172l-104 801l-387 -801h-172l-129 1024 h168l81 -834l406 834h143l111 -834z" glyph-name="wdieresis" horiz-adv-x="1568" unicode="ẅ"/><glyph d="M1149 528h-1026l29 164h1026z" glyph-name="endash" horiz-adv-x="1083" unicode="–"/><glyph d="M2171 528h-2048l27 162h2048z" glyph-name="emdash" horiz-adv-x="2105" unicode="—"/><glyph d="M537 1434h139l-174 -533h-183z" glyph-name="quoteleft" horiz-adv-x="583" unicode="‘"/><glyph d="M461 901h-142l175 533h182z" glyph-name="quoteright" horiz-adv-x="585" unicode="’"/><glyph d="M244 -330h-142l177 535h182z" glyph-name="quotesinglbase" horiz-adv-x="583" unicode="‚"/><glyph d="M895 1434h139l-172 -533h-182zM537 1434h139l-174 -533h-183z" glyph-name="quotedblleft" horiz-adv-x="942" unicode="“"/><glyph d="M459 901h-140l173 533h182zM817 901h-139l174 533h182z" glyph-name="quotedblright" horiz-adv-x="942" unicode="”"/><glyph d="M240 -352h-142l176 534h183zM598 -352h-141l178 534h182z" glyph-name="quotedblbase" horiz-adv-x="944" unicode="„"/><glyph d="M344 860l29 166h286l74 410h172l-74 -410h287l-28 -166h-287l-152 -860h-172l152 860h-287z" glyph-name="dagger" horiz-adv-x="1130" unicode="†"/><glyph d="M344 860l29 164h358l72 410h172l-72 -410h359l-29 -164h-359l-122 -696h358l-29 -164h-358l-72 -410h-172l72 410h-358l28 164h359l122 696h-358z" glyph-name="daggerdbl" horiz-adv-x="1273" unicode="‡"/><glyph d="M495.5 532q-77.5 0 -123.5 54.5t-32 130.5q12 76 77.5 130t143.5 54t123 -54t33 -130q-14 -76 -79 -130.5t-142.5 -54.5z" glyph-name="bullet" horiz-adv-x="802" unicode="•"/><glyph d="M303 -6q-53 0 -84 38t-22.5 89t52.5 89t97 38q51 0 81 -38t22 -89q-10 -53 -52.5 -90t-93.5 -37zM770 -6q-53 0 -84 38t-22.5 89t52.5 89t97 38q51 0 81 -38t21 -89q-10 -53 -52 -90t-93 -37zM1237 -6q-53 0 -84 38t-22.5 89t52.5 89t97 38q51 0 81 -38t21 -89 q-10 -53 -52 -90t-93 -37z" glyph-name="ellipsis" horiz-adv-x="1538" unicode="…"/><glyph d="M526.5 793q-145.5 0 -211 91t-39.5 240q25 147 123.5 238.5t243.5 91.5t211 -91t41 -239q-27 -150 -125 -240.5t-243.5 -90.5zM360 0h-186l1276 1434h186zM616.5 1307q-75.5 0 -127 -50.5t-65.5 -132.5q-16 -82 18.5 -133t110.5 -51t127 50t68 134q14 82 -21 132.5 t-110.5 50.5zM1171 -20q-145 0 -210.5 91t-38.5 238q25 147 123 238.5t241.5 91.5t212.5 -119q109 119 254 119q143 0 209 -91t41 -239q-27 -147 -125 -238t-244 -91q-139 0 -209 122q-115 -122 -254 -122zM1069 309q-16 -82 18.5 -132t110.5 -50t125 50t66 132 q14 82 -19 132.5t-108.5 50.5t-127 -50.5t-65.5 -132.5zM1532 309q-16 -82 18.5 -132t110.5 -50t127 50t67 132q14 82 -20.5 132.5t-110 50.5t-127 -50.5t-65.5 -132.5z" glyph-name="perthousand" horiz-adv-x="2025" unicode="‰"/><glyph d="M690 1036h187l-426 -434l272 -436h-186l-271 436z" glyph-name="guilsinglleft" horiz-adv-x="854" unicode="‹"/><glyph d="M342 1036h186l273 -434l-426 -436h-187l428 436z" glyph-name="guilsinglright" horiz-adv-x="854" unicode="›"/><glyph d="M-446 0l1318 1458l146 -24l-1317 -1459z" glyph-name="fraction" horiz-adv-x="321" unicode="⁄"/><glyph d="M305 481h-133l29 154h116q4 43 13 82q10 57 16 80h-117l27 153h133q80 225 226.5 364.5t369.5 139.5q166 0 267.5 -85t133.5 -243l-174 -28q-47 199 -254 198q-274 0 -399 -346h516l-26 -153h-531q-8 -27 -16 -80q-10 -41 -13 -82h531l-29 -154h-516q4 -344 279 -344 q209 0 323 199l164 -31q-182 -326 -516 -325q-115 0 -199 39.5t-131 112.5t-68.5 159t-21.5 190z" glyph-name="Euro" horiz-adv-x="1298" unicode="€"/><glyph d="M987 1434l-22 -129h-236l-121 -693h-137l121 693h-232l23 129h604zM1751 1434h191l-144 -822h-133l109 623l-355 -623h-59l-135 623l-109 -623h-133l143 822h189l117 -582z" glyph-name="trademark" horiz-adv-x="1882" unicode="™"/><glyph d="M778 1024q129 0 209 -57.5t111 -120.5q8 221 -84 336.5t-246 115.5q-162 0 -260 -61v156q113 61 276 61q41 0 79 -5t87 -18.5t91 -40t84 -65.5t70 -101.5t45 -141t15 -189.5t-24 -242l-12 -73q-49 -276 -216 -437t-389 -161q-217 0 -335.5 147t-79.5 375 q39 223 206.5 372.5t372.5 149.5zM643 135q143 0 257 103.5t140 261.5q29 162 -53 265t-227 103q-141 0 -255 -101t-140 -257q-29 -160 51 -267.5t227 -107.5z" glyph-name="partialdiff" horiz-adv-x="1226" unicode="∂"/><glyph d="M53 -328l309 1762h1051l-309 -1762h-168l283 1606h-715l-283 -1606h-168z" glyph-name="product" horiz-adv-x="1271" unicode="∏"/><glyph d="M444 1434h1026l-26 -156h-836l342 -713l-598 -737h836l-27 -156h-1026l27 156l600 737l-344 713z" glyph-name="summation" horiz-adv-x="1390" unicode="∑"/><glyph d="M1061 528h-823l28 164h824z" glyph-name="minus" horiz-adv-x="1110" unicode="−"/><glyph d="M244 756l26 151h318l125 -676l571 1231l150 -28l-674 -1434h-166l-145 756h-205z" glyph-name="radical" horiz-adv-x="1226" unicode="√"/><glyph d="M182.5 520q30.5 176 170 276.5t284.5 100.5q238 0 387 -250q233 250 473 250q145 0 249.5 -100.5t74 -276.5t-171 -276.5t-285.5 -100.5q-240 0 -385 250q-238 -250 -475 -250q-145 0 -248.5 100.5t-73 276.5zM1470 756q-94 0 -178 -54.5t-211 -181.5q82 -125 147.5 -180 t160.5 -55q100 0 182 72.5t98.5 162.5t-41.5 163t-158 73zM333.5 520q-16.5 -90 41 -162.5t157.5 -72.5q94 0 178.5 54t211.5 181q-82 125 -147.5 180.5t-160.5 55.5q-100 0 -182 -73t-98.5 -163z" glyph-name="infinity" horiz-adv-x="1820" unicode="∞"/><glyph d="M53 -319q74 -6 125 0q94 14 142.5 74.5t70.5 193.5l191 1089q39 217 151.5 317.5t319.5 100.5l55 -2l-27 -151q-66 8 -125 2q-92 -14 -140 -76t-71 -193l-192 -1091q-39 -217 -151.5 -316.5t-319.5 -99.5l-53 2z" glyph-name="integral" horiz-adv-x="962" unicode="∫"/><glyph d="M313 670q25 158 120 238.5t214 80.5q72 0 130.5 -32.5t91 -70.5t76.5 -71t91 -33q57 0 100.5 45t55.5 123h158q-27 -160 -122 -239.5t-212 -79.5q-72 0 -131.5 32.5t-93 70.5t-78.5 71t-92 33q-55 0 -96.5 -42t-53.5 -126h-158zM240 254q25 158 120 238.5t213 80.5 q72 0 130.5 -32.5t91 -70.5t78 -70.5t90.5 -32.5q59 0 101 45t54 123h158q-27 -160 -121 -240t-213 -80q-72 0 -131 33t-92 70.5t-79 70.5t-93 33q-55 0 -96 -42t-54 -126h-157z" glyph-name="approxequal" horiz-adv-x="1376" unicode="≈"/><glyph d="M1178 739h-299l-187 -254h441l-29 -166h-529l-126 -172l-154 27l106 145h-184l29 166h276l187 254h-418l28 166h506l156 211l152 -26l-134 -185h207z" glyph-name="notequal" horiz-adv-x="1206" unicode="≠"/><glyph d="M1194 1294l-31 -176l-680 -293l578 -290l-31 -177l-754 396l25 145zM1004 70h-824l29 163h823z" glyph-name="lessequal" horiz-adv-x="1134" unicode="≤"/><glyph d="M348 1118l31 176l751 -395l-24 -145l-891 -396l31 177l680 290zM979 70h-823l28 163h824z" glyph-name="greaterequal" horiz-adv-x="1116" unicode="≥"/><glyph d="M240 729l559 705h84l313 -705l-565 -729h-84zM1020 729l-213 504l-391 -504l209 -526z" glyph-name="lozenge" horiz-adv-x="1177" unicode="◊"/><glyph d="M1161 1434h197l-909 -1434h-185l359 561l-277 873h199l194 -691z" glyph-name="Y.aalt" horiz-adv-x="1200"/><glyph d="M1130 1024h164l-180 -1024h-164l31 172q-76 -94 -184.5 -143t-225.5 -49q-217 0 -323.5 154.5t-67.5 377.5t202 377.5t380 154.5q115 0 205 -49t133 -143zM1040 512q31 166 -43.5 274.5t-238.5 108.5t-273.5 -107.5t-140.5 -275.5q-29 -168 43 -275.5t235.5 -107.5 t276 108.5t141.5 274.5z" glyph-name="a.aalt" horiz-adv-x="1265"/><glyph d="M98 0l475 1434h201l156 -1123l549 1123h200l-28 -1434h-176l38 1167l-583 -1167h-111l-170 1167l-375 -1167h-176z" glyph-name="M.aalt" horiz-adv-x="1748"/><glyph d="M1571 0h-205l-336 788l-616 -788h-205l252 1434h172l-207 -1176l610 766h68l340 -766l207 1176h172z" glyph-name="W.aalt" horiz-adv-x="1779"/><glyph d="M250 1024h172l158 -815l432 815h172l-625 -1135q-102 -188 -206.5 -274t-231.5 -86q-72 0 -148 20l27 154q68 -23 123 -22q76 0 143.5 53t96 97t81.5 144q10 18 17 29z" glyph-name="y.aalt" horiz-adv-x="1056"/><glyph d="M1241 1188l-31 -178l-680 -295l576 -295l-31 -178l-753 399l26 147z" glyph-name="less.aalt" horiz-adv-x="1241"/><glyph d="M387 1010l31 178l753 -400l-26 -147l-893 -399l31 178l682 295z" glyph-name="greater.aalt" horiz-adv-x="1241"/><glyph d="M1196 842h-887l29 166h887zM1122 422h-886l28 166h887z" glyph-name="equal.aalt" horiz-adv-x="1206"/><glyph d="M915 631h-663l29 164h663z" glyph-name="hyphen.aalt" horiz-adv-x="942"/><glyph d="M977 1604h-287l-313 -1770h287l-29 -164h-459l369 2095h459z" glyph-name="bracketleft.aalt" horiz-adv-x="741"/><glyph d="M489 1655l203 -1780l-162 -29l-206 1782z" glyph-name="backslash.aalt" horiz-adv-x="751"/><glyph d="M621 1604h-287l26 161h459l-368 -2095h-459l28 164h287z" glyph-name="bracketright.aalt" horiz-adv-x="741"/><glyph d="M641 1051q-18 -113 -76.5 -199t-138.5 -131q137 -109 98 -332l-63 -360q-23 -119 24 -158t174 -39l46 2l-29 -162q-39 -2 -62 -2q-193 0 -276.5 81t-48.5 282l65 364q20 123 -26.5 182.5t-165.5 59.5l28 162q236 0 277 241l65 365q35 199 147 278.5t304 79.5l61 -2 l-28 -161q-25 2 -43 2q-129 0 -188.5 -38t-79.5 -155z" glyph-name="braceleft.aalt" horiz-adv-x="782"/><glyph d="M514 1051l64 360q20 119 -26 156t-173 37l-47 -2l28 161q39 2 62 2q193 0 277.5 -79.5t50.5 -278.5l-66 -365q-20 -125 26 -183t164 -58l-28 -162q-233 0 -275 -242l-65 -364q-35 -201 -147.5 -282t-305.5 -81l-61 2l28 162q27 -2 46 -2q127 0 186 39t82 158l63 360 q39 221 217 332q-66 45 -93 130t-7 200z" glyph-name="braceright.aalt" horiz-adv-x="782"/><glyph d="M389 -328h-172l369 2089h172z" glyph-name="bar.aalt" horiz-adv-x="720"/><glyph d="M406 315l-97 117l324 277l-225 274l137 117l225 -275l326 275l96 -117l-326 -274l228 -277l-138 -117l-227 277z" glyph-name="multiply.aalt" horiz-adv-x="1251"/><glyph d="M1079 631h-823l29 164h823z" glyph-name="minus.aalt" horiz-adv-x="1110"/><glyph d="M725 944q-53 0 -83 37t-21.5 88t51.5 88t96 37q51 0 81 -37t21.5 -88t-51.5 -88t-94 -37zM1083 631h-827l29 164h827zM596 223q-51 0 -82 36t-20 89q8 51 51 88t96 37q51 0 81 -37t21.5 -88t-52.5 -88t-95 -37z" glyph-name="divide.aalt" horiz-adv-x="1114"/><glyph d="M958 1759q-135 -164 -259 -447.5t-179 -594.5q-53 -342 -29.5 -611.5t99.5 -433.5h-166q-94 156 -116.5 443.5t32.5 601t179 600.5t274 442h165z" glyph-name="parenleft.aalt" horiz-adv-x="716"/><glyph d="M381 1759h166q94 -156 116.5 -443.5t-32.5 -598.5q-55 -315 -180 -603t-273 -442h-166q135 162 259 446.5t180 598.5q53 340 29.5 608t-99.5 434z" glyph-name="parenright.aalt" horiz-adv-x="716"/><glyph d="M55 -125l836 1780l151 -27l-831 -1782z" glyph-name="slash.aalt" horiz-adv-x="833"/><glyph d="M870.5 1454q118.5 0 204.5 -45t131 -116.5t65.5 -170t17.5 -198t-21 -207.5q-20 -109 -52 -208t-87.5 -197.5t-126 -170t-172 -116.5t-220 -45t-205 45t-131.5 116.5t-65.5 170t-17 197.5t23.5 208q18 109 50 208t87.5 197.5t126 170t172 116.5t220 45zM639 137 q354 0 456.5 579.5t-252 579.5t-456.5 -579.5t252 -579.5z" glyph-name="zero.aalt" horiz-adv-x="1228"/><glyph d="M543 1276l26 158h406l-252 -1434h-168l225 1276h-237z" glyph-name="one.tnum" horiz-adv-x="1228"/><glyph d="M338 1044q43 174 195.5 292t349 118t311.5 -121t82 -315q-43 -244 -324 -455l-536 -405h710l-28 -158h-953l29 164l686 518q215 162 246 334q23 127 -46 203.5t-198 76.5q-133 0 -234.5 -76.5t-135.5 -203.5z" glyph-name="two.tnum" horiz-adv-x="1228"/><glyph d="M195 406l163 28q-25 -135 55.5 -216t215.5 -81q129 0 238.5 75t129.5 200q23 123 -60 196.5t-210 73.5h-115l27 154h119q106 0 192 62.5t104.5 166.5t-48 167.5t-172.5 63.5q-113 0 -197 -68.5t-105 -183.5l-155 29q31 170 172 275.5t315 105.5q176 0 282.5 -104.5 t78.5 -274.5q-18 -96 -83 -178t-159 -129q104 -41 153.5 -139.5t28.5 -220.5q-35 -193 -198.5 -310.5t-364.5 -117.5q-199 0 -320.5 115.5t-86.5 310.5z" glyph-name="three.tnum" horiz-adv-x="1228"/><glyph d="M1034 1434h168l-164 -938h185l-29 -158h-184l-60 -338h-168l60 338h-676l29 158zM989 1171l-598 -675h479z" glyph-name="four.aalt" horiz-adv-x="1228"/><glyph d="M502 1434h766l-27 -158h-618l-107 -449q139 100 303 101q193 0 301.5 -137.5t73.5 -337.5q-37 -207 -201 -340t-370 -133q-174 0 -284 98t-126 260l178 31q10 -102 81 -167t183 -65q135 0 240.5 89t130.5 229q25 137 -49 226t-207 89q-178 0 -301 -139l-147 55z" glyph-name="five.aalt" horiz-adv-x="1228"/><glyph d="M805 948q205 0 321.5 -140t79.5 -347q-37 -211 -207 -346t-383 -135q-211 0 -331.5 140t-81.5 351q35 213 229 438q88 102 274.5 307t223.5 248l170 -32l-475 -527q74 43 180 43zM649 137q139 0 252 93.5t137.5 232.5t-54.5 233.5t-218 94.5t-256 -94.5t-141.5 -233.5 t58.5 -232.5t222 -93.5z" glyph-name="six.aalt" horiz-adv-x="1228"/><glyph d="M432 1434h852l-27 -158l-757 -1303l-160 29l747 1274h-681z" glyph-name="seven.aalt" horiz-adv-x="1228"/><glyph d="M997 772q104 -51 150.5 -147.5t23.5 -216.5q-33 -184 -190.5 -306t-368.5 -122t-327.5 121.5t-83.5 306.5q20 121 101 216t204 148q-164 104 -127 305q29 162 168 269.5t323.5 107.5t287 -107.5t73.5 -271.5q-37 -201 -234 -303zM544.5 1065q-16.5 -96 46 -162.5 t173 -66.5t195.5 65.5t101.5 163.5t-44 164.5t-171 66.5t-197.5 -67.5t-103.5 -163.5zM637 137q137 0 241.5 80t127.5 197q20 115 -58 191.5t-215 76.5q-135 0 -238.5 -77t-123.5 -191q-23 -117 54 -197t212 -80z" glyph-name="eight.aalt" horiz-adv-x="1228"/><glyph d="M674 485q-203 0 -319.5 140.5t-82.5 347.5q37 211 207 346t383 135q211 0 332 -140t84 -351q-39 -215 -231 -439q-88 -102 -274.5 -307t-223.5 -248l-170 33l475 526q-74 -43 -180 -43zM829.5 1296q-139.5 0 -252 -93t-137 -232.5t54 -233.5t218 -94t256 94t141.5 233.5 t-58 232.5t-222.5 93z" glyph-name="nine.aalt" horiz-adv-x="1228"/><glyph d="M1210 942l-28 -164h-365l-47 -266h-170l47 266h-366l28 164h367l51 285h170l-51 -285h364zM1092 262h-902l29 164h901z" glyph-name="plusminus.aalt" horiz-adv-x="1187"/><glyph d="M1208 631h-1026l29 164h1026z" glyph-name="endash.aalt" horiz-adv-x="1165"/><glyph d="M2230 631h-2048l27 162h2048z" glyph-name="emdash.aalt" horiz-adv-x="2187"/><glyph d="M200.5 622.5q30.5 176.5 170 276.5t284.5 100q238 0 387 -249q233 250 474 249q145 0 249.5 -100t73.5 -276.5t-171 -276.5t-286 -100q-240 0 -385 250q-238 -250 -475 -250q-145 0 -248.5 100t-73 276.5zM1489 858q-94 0 -178 -54t-211 -181q82 -125 147.5 -180.5 t159.5 -55.5q100 0 182 72.5t98.5 163t-41 163t-157.5 72.5zM352.5 622.5q-16.5 -90.5 41 -163t157.5 -72.5q94 0 178 54.5t211 181.5q-82 125 -147.5 180t-159.5 55q-100 0 -182 -72.5t-98.5 -163z" glyph-name="infinity.aalt" horiz-adv-x="1820"/><glyph d="M332 772q25 158 120 239t214 81q72 0 130 -33t91 -71t77 -70.5t91 -32.5q57 0 100 45t55 123h158q-27 -160 -122 -240t-212 -80q-72 0 -131 33t-93 70.5t-79 70.5t-92 33q-55 0 -96 -42t-54 -126h-157zM258 356q25 158 120 239t214 81q72 0 130 -33t91 -70.5t78 -70.5 t90 -33q59 0 101 45t55 123h157q-27 -160 -121 -240t-212 -80q-72 0 -131.5 33t-92 71t-79 70.5t-93.5 32.5q-55 0 -96 -42t-53 -126h-158z" glyph-name="approxequal.aalt" horiz-adv-x="1376"/><glyph d="M1196 842h-299l-186 -254h440l-29 -166h-528l-127 -172l-154 26l107 146h-184l28 166h277l186 254h-418l29 166h506l155 211l152 -27l-133 -184h207z" glyph-name="notequal.aalt" horiz-adv-x="1206"/><glyph d="M1212 1397l-30 -176l-680 -293l577 -291l-30 -176l-754 395l24 145zM1022 172h-823l28 164h824z" glyph-name="lessequal.aalt" horiz-adv-x="1134"/><glyph d="M367 1221l30 176l752 -396l-25 -145l-891 -395l31 176l680 291zM997 172h-823l29 164h823z" glyph-name="greaterequal.aalt" horiz-adv-x="1116"/><glyph d="M709 1139h186l-426 -434l272 -437h-186l-270 437z" glyph-name="guilsinglleft.aalt" horiz-adv-x="854"/><glyph d="M360 1139h187l272 -434l-426 -437h-186l428 437z" glyph-name="guilsinglright.aalt" horiz-adv-x="854"/><glyph d="M285 698l391 447h170l-373 -447l215 -446h-170zM678 698l391 447h170l-373 -447l215 -446h-170z" glyph-name="guillemotleft.aalt"/><glyph d="M926 1145l235 -447l-393 -446h-170l375 446l-217 447h170zM532 1145l236 -447l-393 -446h-170l375 446l-218 447h170z" glyph-name="guillemotright.aalt"/><glyph d="M784 1446l99 -248h-138l-143 248h182zM1130 1024h164l-180 -1024h-164l31 172q-76 -94 -184.5 -143t-225.5 -49q-217 0 -323.5 154.5t-67.5 377.5t202 377.5t380 154.5q115 0 205 -49t133 -143zM1040 512q31 166 -43.5 274.5t-238.5 108.5t-273.5 -107.5t-140.5 -275.5 q-29 -168 43 -275.5t235.5 -107.5t276 108.5t141.5 274.5z" glyph-name="agrave.aalt" horiz-adv-x="1265"/><glyph d="M928 1446h182l-229 -248h-140zM1130 1024h164l-180 -1024h-164l31 172q-76 -94 -184.5 -143t-225.5 -49q-217 0 -323.5 154.5t-67.5 377.5t202 377.5t380 154.5q115 0 205 -49t133 -143zM1040 512q31 166 -43.5 274.5t-238.5 108.5t-273.5 -107.5t-140.5 -275.5 q-29 -168 43 -275.5t235.5 -107.5t276 108.5t141.5 274.5z" glyph-name="aacute.aalt" horiz-adv-x="1265"/><glyph d="M635 1178h-127l283 288h155l184 -288h-126l-152 184zM1130 1024h164l-180 -1024h-164l31 172q-76 -94 -184.5 -143t-225.5 -49q-217 0 -323.5 154.5t-67.5 377.5t202 377.5t380 154.5q115 0 205 -49t133 -143zM1040 512q31 166 -43.5 274.5t-238.5 108.5t-273.5 -107.5 t-140.5 -275.5q-29 -168 43 -275.5t235.5 -107.5t276 108.5t141.5 274.5z" glyph-name="acircumflex.aalt" horiz-adv-x="1265"/><glyph d="M518 1311q10 47 50 79.5t87 32.5t75 -33.5t20 -78.5q-8 -47 -47 -81t-86.5 -34t-77 34t-21.5 81zM913 1311q10 47 50.5 79.5t87.5 32.5t74.5 -33.5t19.5 -78.5q-8 -47 -47 -81t-86 -34t-77 34t-22 81zM1130 1024h164l-180 -1024h-164l31 172q-76 -94 -184.5 -143 t-225.5 -49q-217 0 -323.5 154.5t-67.5 377.5t202 377.5t380 154.5q115 0 205 -49t133 -143zM1040 512q31 166 -43.5 274.5t-238.5 108.5t-273.5 -107.5t-140.5 -275.5q-29 -168 43 -275.5t235.5 -107.5t276 108.5t141.5 274.5z" glyph-name="adieresis.aalt" horiz-adv-x="1265"/><glyph d="M803 1135q-94 0 -151.5 61t-41.5 158q18 98 96 160.5t175 62.5q94 0 147 -63.5t35 -159.5q-16 -96 -91 -157.5t-169 -61.5zM819 1239q49 0 87 33t46 82q10 53 -16.5 87t-75.5 34t-90 -35t-49 -86t20.5 -83t77.5 -32zM1130 1024h164l-180 -1024h-164l31 172 q-76 -94 -184.5 -143t-225.5 -49q-217 0 -323.5 154.5t-67.5 377.5t202 377.5t380 154.5q115 0 205 -49t133 -143zM1040 512q31 166 -43.5 274.5t-238.5 108.5t-273.5 -107.5t-140.5 -275.5q-29 -168 43 -275.5t235.5 -107.5t276 108.5t141.5 274.5z" glyph-name="aring.aalt" horiz-adv-x="1265"/><glyph d="M485 1198l27 152h657l-26 -152h-658zM1130 1024h164l-180 -1024h-164l31 172q-76 -94 -184.5 -143t-225.5 -49q-217 0 -323.5 154.5t-67.5 377.5t202 377.5t380 154.5q115 0 205 -49t133 -143zM1040 512q31 166 -43.5 274.5t-238.5 108.5t-273.5 -107.5t-140.5 -275.5 q-29 -168 43 -275.5t235.5 -107.5t276 108.5t141.5 274.5z" glyph-name="amacron.aalt" horiz-adv-x="1265"/><glyph d="M981 1446h145q-23 -121 -107.5 -194.5t-207.5 -73.5t-183.5 74.5t-37.5 193.5h145q-12 -59 11.5 -99t85 -40t99.5 39t50 100zM1130 1024h164l-180 -1024h-164l31 172q-76 -94 -184.5 -143t-225.5 -49q-217 0 -323.5 154.5t-67.5 377.5t202 377.5t380 154.5q115 0 205 -49 t133 -143zM1040 512q31 166 -43.5 274.5t-238.5 108.5t-273.5 -107.5t-140.5 -275.5q-29 -168 43 -275.5t235.5 -107.5t276 108.5t141.5 274.5z" glyph-name="abreve.aalt" horiz-adv-x="1265"/><glyph d="M1130 1024h164l-180 -1024q-6 -4 -30.5 -19.5t-32 -20.5t-29 -18.5t-28.5 -20.5t-23.5 -20.5t-22.5 -22.5t-16 -23.5t-15.5 -27.5t-7.5 -28q-18 -88 72 -88q41 0 82 23v-142q-49 -29 -143 -28q-106 0 -158.5 49t-36.5 139q27 156 229 266l27 154q-76 -94 -184.5 -143 t-225.5 -49q-217 0 -323.5 154.5t-67.5 377.5t202 377.5t380 154.5q115 0 205 -49t133 -143zM1040 512q31 166 -43.5 274.5t-238.5 108.5t-273.5 -107.5t-140.5 -275.5q-29 -168 43 -275.5t235.5 -107.5t276 108.5t141.5 274.5z" glyph-name="aogonek.aalt" horiz-adv-x="1265"/><glyph d="M1184 795l-31 -164h-367l-67 -387h-170l67 387h-366l31 164h366l68 387h170l-68 -387h367z" glyph-name="plus.aalt" horiz-adv-x="1181"/><glyph d="M827.5 1446q51.5 0 83 -37t21.5 -88q-10 -53 -53 -90t-94.5 -37t-83 37t-21.5 90q10 51 53 88t94.5 37zM537 -12q-172 0 -279.5 103.5t-79.5 268.5q18 104 92 185.5t152 124.5t148.5 105.5t82.5 133.5q14 86 23 119h168q0 -6 -10.5 -60.5t-12.5 -58.5q-14 -86 -65 -152.5 t-113.5 -110.5t-126 -84t-112 -93t-60.5 -117q-16 -98 51.5 -152.5t169.5 -54.5q96 0 175 49.5t120 141.5l154 -29q-57 -147 -190 -233t-287 -86z" glyph-name="questiondown.aalt" horiz-adv-x="1046"/><glyph d="M526.5 1200q-51.5 0 -83 37t-21.5 90q10 51 54 89t95.5 38t81 -38t21.5 -89q-10 -51 -53 -89t-94.5 -38zM403 965h162l-162 -965h-178z" glyph-name="exclamdown.aalt" horiz-adv-x="628"/><glyph d="M991 1567h-127l283 288h156l184 -288h-127l-152 184zM1571 0h-205l-336 788l-616 -788h-205l252 1434h172l-207 -1176l610 766h68l340 -766l207 1176h172z" glyph-name="Wcircumflex.aalt" horiz-adv-x="1779"/><glyph d="M1143 1835l98 -248h-137l-143 248h182zM1571 0h-205l-336 788l-616 -788h-205l252 1434h172l-207 -1176l610 766h68l340 -766l207 1176h172z" glyph-name="Wgrave.aalt" horiz-adv-x="1779"/><glyph d="M1286 1835h182l-229 -248h-139zM1571 0h-205l-336 788l-616 -788h-205l252 1434h172l-207 -1176l610 766h68l340 -766l207 1176h172z" glyph-name="Wacute.aalt" horiz-adv-x="1779"/><glyph d="M877 1700q10 47 50 79.5t87 32.5t74.5 -33.5t19.5 -78.5q-8 -47 -47 -81t-86 -34t-76.5 34t-21.5 81zM1272 1700q10 47 50 79.5t87 32.5t74.5 -33.5t19.5 -78.5q-8 -47 -47 -81t-86 -34t-76.5 34t-21.5 81zM1571 0h-205l-336 788l-616 -788h-205l252 1434h172l-207 -1176 l610 766h68l340 -766l207 1176h172z" glyph-name="Wdieresis.aalt" horiz-adv-x="1779"/><glyph d="M995 1835h183l-230 -248h-139zM1161 1434h197l-909 -1434h-185l359 561l-277 873h199l194 -691z" glyph-name="Yacute.aalt" horiz-adv-x="1200"/><glyph d="M700 1567h-127l283 288h156l184 -288h-127l-151 184zM1161 1434h197l-909 -1434h-185l359 561l-277 873h199l194 -691z" glyph-name="Ycircumflex.aalt" horiz-adv-x="1200"/><glyph d="M586 1700q10 47 50 79.5t87 32.5t74.5 -33.5t19.5 -78.5q-8 -47 -47 -81t-86 -34t-76.5 34t-21.5 81zM981 1700q10 47 50 79.5t87 32.5t75 -33.5t19 -78.5q-8 -47 -47 -81t-86 -34t-76.5 34t-21.5 81zM1161 1434h197l-909 -1434h-185l359 561l-277 873h199l194 -691z" glyph-name="Ydieresis.aalt" horiz-adv-x="1200"/></font>
</defs>
</svg>
