<?xml version="1.0" standalone="no"?>
<!DOCTYPE svg PUBLIC "-//W3C//DTD SVG 1.1//EN" "http://www.w3.org/Graphics/SVG/1.1/DTD/svg11.dtd">
<svg xmlns="http://www.w3.org/2000/svg"><metadata>This SVG WebFont was generated by YouWorkForThem.
Â©2020 Typekiln.</metadata><defs><font horiz-adv-x="1298" id="ywftsvg"><font-face ascent="1638" bbox="-492 -500 2163 1966" cap-height="1434" descent="-410" font-family="" font-stretch="normal" font-weight="800" panose-1="0 0 0 0 0 0 0 0 0 0" underline-position="0" underline-thickness="0" unicode-range="U+000D-FB02" units-per-em="2048" x-height="1040"/><missing-glyph d="M82 -147v1728h827v-1728h-827zM229 1434v-76h381v-39h-90v-76h242v76h-76v39h76v76h-533zM229 1319v-191h533v78h-277v113h-256zM305 1243h105v-37h-105v37zM686 1094v-228h-457v-75h533v303h-76zM229 1094v-78h230v-37h-230v-78h308v115h34v-115h78v193h-420zM514 756 v-78h172v-37h-381v37h172v78h-248v-193h533v78l-27 37l27 39v39h-248zM229 416v-191h533v191h-533zM305 340h381v-39h-381v39zM229 190v-190h533v76h-457v39h457v75h-533z" horiz-adv-x="993"/><glyph d="M995 1171q-78 0 -131 54.5t-53 132.5t53.5 132t130.5 54q80 0 134.5 -54t54.5 -132t-54.5 -132.5t-134.5 -54.5zM33 776v264h164v80q0 195 87 285t289 90q86 0 168 -10v-277q-45 18 -106 15q-74 -2 -96.5 -32t-22.5 -110v-41h643v-1040h-317v776h-326v-776h-319v776h-164 z" glyph-name="uniFB01" horiz-adv-x="1255" unicode="fi"/><glyph d="M33 776v264h164v84q0 195 86 283t290 88h570v-1495h-318v1223h-188q-74 0 -97.5 -27t-23.5 -94v-62h223v-264h-223v-776h-319v776h-164z" glyph-name="uniFB02" horiz-adv-x="1239" unicode="fl"/><glyph d="M82 -147v1728h827v-1728h-827zM229 1434v-76h381v-39h-90v-76h242v76h-76v39h76v76h-533zM229 1319v-191h533v78h-277v113h-256zM305 1243h105v-37h-105v37zM686 1094v-228h-457v-75h533v303h-76zM229 1094v-78h230v-37h-230v-78h308v115h34v-115h78v193h-420zM514 756 v-78h172v-37h-381v37h172v78h-248v-193h533v78l-27 37l27 39v39h-248zM229 416v-191h533v191h-533zM305 340h381v-39h-381v39zM229 190v-190h533v76h-457v39h457v75h-533z" glyph-name=".notdef" horiz-adv-x="993"/><glyph glyph-name="glyph1" horiz-adv-x="0"/><glyph glyph-name="glyph1" horiz-adv-x="0"/><glyph glyph-name="space" horiz-adv-x="434" unicode=" "/><glyph d="M518 475h-315l-8 959h331zM360.5 -20q-77.5 0 -133 55t-55.5 135q0 78 55.5 133t133 55t133 -55t55.5 -133q0 -80 -55.5 -135t-133 -55z" glyph-name="exclam" horiz-adv-x="718" unicode="!"/><glyph d="M102 930l-4 524h295l-4 -524h-287zM565 1454h297l-4 -524h-289z" glyph-name="quotedbl" horiz-adv-x="958" unicode="&quot;"/><glyph d="M246 0l28 315h-251l18 232h254l22 258h-258l19 231h260l27 320h297l-27 -320h233l29 320h295l-27 -320h252l-20 -231h-252l-23 -258h258l-18 -232h-260l-29 -315h-297l29 315h-236l-26 -315h-297zM592 813l-23 -274h279l20 274h-276z" glyph-name="numbersign" horiz-adv-x="1437" unicode="#"/><glyph d="M92 369l303 53q29 -111 160 -148v340q-80 23 -124 37.5t-112.5 48t-104.5 70.5t-63.5 98.5t-27.5 139.5q0 182 127 299.5t305 140.5v145h178v-147q147 -27 262 -122t154 -249l-299 -53q-35 96 -117 131v-299q80 -20 128 -34.5t115.5 -48.5t106.5 -74t68 -106.5t29 -152.5 q0 -188 -125 -308t-322 -144v-146h-178v144q-180 20 -301 122.5t-162 262.5zM442 1034q0 -80 113 -125v254q-113 -31 -113 -129zM860 408q0 92 -127 149v-285q127 32 127 136z" glyph-name="dollar" horiz-adv-x="1269" unicode="$"/><glyph d="M1264 1477l247 -43l-1054 -1477l-248 43zM762 1073q0 -170 -95.5 -275.5t-260.5 -105.5q-168 0 -262.5 104.5t-94.5 276.5t94.5 276.5t262.5 104.5q166 0 261 -104.5t95 -276.5zM291 1073.5q0 -67.5 30.5 -109.5t84.5 -42q51 0 82.5 42t31.5 109.5t-31.5 109.5t-82.5 42 q-53 0 -84 -42t-31 -109.5zM1315 741q168 0 263 -105.5t95 -275.5q0 -172 -95 -276t-263 -104q-166 0 -261.5 104t-95.5 276q0 170 95.5 275.5t261.5 105.5zM1315 209q53 0 84 42t31 111q0 68 -31 109t-84 41q-51 0 -82 -41t-31 -109q0 -70 31 -111.5t82 -41.5z" glyph-name="percent" horiz-adv-x="1720" unicode="%"/><glyph d="M1157 303l182 -197l-213 -143l-143 156q-170 -139 -424 -139q-205 0 -351.5 107.5t-146.5 297.5q0 268 316 408q-154 156 -154 307q0 158 117 256t270.5 98t266 -98.5t112.5 -268.5q0 -106 -57.5 -185t-190.5 -167l232 -241q41 76 41 299v18h254v-61q0 -304 -111 -447z M469 1106q0 -18 4 -35.5t13.5 -37t15.5 -33t23.5 -34t23.5 -28.5t26.5 -30.5t22.5 -26.5q145 102 145 213q0 72 -40.5 105.5t-98 33.5t-96.5 -34t-39 -93zM573 209q147 0 246 90l-293 322q-184 -78 -184 -222q0 -92 68.5 -141t162.5 -49z" glyph-name="ampersand" horiz-adv-x="1361" unicode="&amp;"/><glyph d="M98 1454h295l-4 -524h-287z" glyph-name="quotesingle" horiz-adv-x="491" unicode="'"/><glyph d="M772 1606q-106 -158 -180 -434.5t-74 -579.5q0 -305 74 -591t180 -452h-317q-121 158 -195 447t-74 596q0 305 74 585.5t195 428.5h317z" glyph-name="parenleft" horiz-adv-x="804" unicode="("/><glyph d="M-78 1606h318q121 -147 194.5 -428t73.5 -586q0 -307 -74 -596t-194 -447h-318q106 166 180 452t74 591q0 303 -74 579.5t-180 434.5z" glyph-name="parenright" horiz-adv-x="804" unicode=")"/><glyph d="M842 1178l-273 -93l273 -92l-97 -174l-227 176l53 -278h-204l51 278l-219 -178l-101 178l271 92l-271 91l101 180l221 -184l-53 280h204l-53 -280l227 184z" glyph-name="asterisk" horiz-adv-x="940" unicode="*"/><glyph d="M1092 721v-262h-332v-357h-295v357h-334v262h334v354h295v-354h332z" glyph-name="plus" horiz-adv-x="1226" unicode="+"/><glyph d="M176 205h332l-189 -535h-225z" glyph-name="comma" horiz-adv-x="622" unicode=","/><glyph d="M954 459h-821v262h821v-262z" glyph-name="hyphen" horiz-adv-x="1085" unicode="-"/><glyph d="M330 -14q-78 0 -133.5 55t-55.5 133t55.5 134.5t133.5 56.5t133 -56.5t55 -134.5t-55 -133t-133 -55z" glyph-name="period" horiz-adv-x="632" unicode="."/><glyph d="M14 -266l500 1835l293 -51l-500 -1835z" glyph-name="slash" horiz-adv-x="821" unicode="/"/><glyph d="M696 1454q281 0 447 -207t166 -530.5t-166 -530t-447 -206.5q-283 0 -448.5 206.5t-165.5 530t165.5 530.5t448.5 207zM696.5 256q141.5 0 212 126t70.5 335t-70.5 335t-212 126t-213 -126t-71.5 -335t71.5 -335t213 -126z" glyph-name="zero" horiz-adv-x="1392" unicode="0"/><glyph d="M84 1157v277h559v-1434h-321v1157h-238z" glyph-name="one" horiz-adv-x="829" unicode="1"/><glyph d="M84 1012q16 195 159.5 318.5t360.5 123.5q215 0 365.5 -121t150.5 -311q0 -135 -74.5 -241.5t-207.5 -217.5l-344 -293h630v-270h-1048v272l569 478q86 70 121 124t35 115q0 88 -57.5 141.5t-143.5 53.5q-84 0 -143.5 -53.5t-71.5 -172.5z" glyph-name="two" horiz-adv-x="1210" unicode="2"/><glyph d="M76 403l303 54q0 -100 68.5 -156.5t168.5 -56.5q96 0 158 54t62 138q0 86 -63.5 140.5t-158.5 54.5h-147v254h149q76 0 128.5 43t52.5 110q0 66 -51.5 109t-127.5 43q-80 0 -130 -47t-58 -131l-301 53q18 174 151.5 281.5t335.5 107.5q209 0 350.5 -109.5t141.5 -281.5 q0 -106 -55.5 -186t-139.5 -115q119 -49 182.5 -142.5t63.5 -209.5q0 -193 -155.5 -311.5t-395.5 -118.5q-227 0 -369.5 112t-162.5 311z" glyph-name="three" horiz-adv-x="1243" unicode="3"/><glyph d="M735 1434h326v-893h168v-277h-168v-264h-326v264h-661v277zM735 1006l-303 -465h303v465z" glyph-name="four" unicode="4"/><glyph d="M219 1434h866v-271h-616l-25 -282q90 66 254 65q211 0 351.5 -134t140.5 -339q0 -217 -158 -355t-387 -138q-188 0 -331.5 96t-196.5 262l321 57q16 -63 76.5 -104t136.5 -41q94 0 155.5 63.5t61.5 149.5q0 88 -61.5 151.5t-157.5 63.5q-137 0 -198 -105l-291 58z" glyph-name="five" horiz-adv-x="1259" unicode="5"/><glyph d="M670 950q115 0 225.5 -53t188 -167t77.5 -261q0 -217 -153.5 -353t-380.5 -136q-231 0 -388 144t-157 370q0 211 174 471q256 373 350 499l314 -55l-353 -475q33 16 103 16zM625 254q92 0 157.5 62.5t65.5 156.5t-65.5 156.5t-161.5 62.5q-92 0 -159 -61.5t-67 -155.5 t68 -157.5t162 -63.5z" glyph-name="six" horiz-adv-x="1247" unicode="6"/><glyph d="M59 1434h990v-260l-506 -1197l-312 56l484 1124h-656v277z" glyph-name="seven" horiz-adv-x="1122" unicode="7"/><glyph d="M928 762q123 -51 186.5 -143.5t63.5 -208.5q0 -190 -155 -310t-394.5 -120t-393 119.5t-153.5 308.5q0 119 65.5 211t188.5 143q-80 37 -134.5 116.5t-54.5 184.5q0 170 138.5 280.5t345.5 110.5t345 -110.5t138 -282.5q0 -104 -53 -183t-133 -116zM457 1036.5 q0 -65.5 49 -108.5t125 -43t124 43t48 108q0 68 -48 111t-124 43t-125 -44t-49 -109.5zM629 244q96 0 161.5 56t65.5 140q0 82 -64.5 136.5t-163 54.5t-160.5 -53.5t-62 -137.5t62.5 -140t160.5 -56z" glyph-name="eight" horiz-adv-x="1261" unicode="8"/><glyph d="M578 492q-115 0 -225.5 53t-188.5 166.5t-78 261.5q0 217 153.5 353t381.5 136q231 0 387.5 -144t156.5 -370q0 -211 -174 -471q-256 -373 -350 -500l-313 56l352 475q-32 -16 -102 -16zM623 1188q-92 0 -158 -62.5t-66 -157t65.5 -156.5t162.5 -62q92 0 158.5 61 t66.5 155.5t-67.5 158t-161.5 63.5z" glyph-name="nine" horiz-adv-x="1247" unicode="9"/><glyph d="M330 770q-78 0 -134.5 56.5t-56.5 134t56.5 133t134.5 55.5q76 0 132 -56.5t56 -131.5q0 -78 -55 -134.5t-133 -56.5zM330 -14q-78 0 -134.5 56t-56.5 134t56.5 133.5t134.5 55.5q76 0 132 -55.5t56 -133.5t-55 -134t-133 -56z" glyph-name="colon" horiz-adv-x="632" unicode=":"/><glyph d="M328 770q-78 0 -133.5 56.5t-55.5 134.5q0 76 55.5 132t133.5 56t134 -55.5t56 -133t-56 -134t-134 -56.5zM170 205h332l-189 -535h-225z" glyph-name="semicolon" horiz-adv-x="618" unicode=";"/><glyph d="M1059 1102v-322l-563 -207l563 -208v-320l-887 399v258z" glyph-name="less" horiz-adv-x="1230" unicode="&lt;"/><glyph d="M1163 688h-1013v279h1013v-279zM1163 178h-1013v279h1013v-279z" glyph-name="equal" horiz-adv-x="1312" unicode="="/><glyph d="M172 780v322l887 -400v-258l-887 -399v320l563 208z" glyph-name="greater" horiz-adv-x="1230" unicode=">"/><glyph d="M532 1454q199 0 340.5 -103.5t141.5 -289.5q0 -96 -36 -171t-88 -117t-105.5 -75.5t-92.5 -70.5t-43 -78l-8 -74h-305l-2 70q-4 82 29.5 143.5t86 98t104.5 69.5t90 79t38 105q0 72 -45 113t-106.5 41t-107.5 -38t-56 -103l-312 55q27 162 163 254t314 92zM487.5 -16 q-77.5 0 -134 55t-56.5 133t56.5 133t134 55t133 -55t55.5 -133t-55.5 -133t-133 -55z" glyph-name="question" horiz-adv-x="1087" unicode="?"/><glyph d="M1051 1454q420 0 693 -276.5t273 -690.5q0 -139 -39 -241.5t-102.5 -153.5t-124.5 -73.5t-121 -22.5q-33 0 -69.5 7t-83.5 26.5t-85 63.5t-53 108q-106 -205 -329 -205q-186 0 -318.5 143.5t-132.5 348t130 348t315 143.5q104 0 186 -47t119 -121v147h192v-614 q0 -43 11.5 -74.5t25.5 -47t33.5 -24t29 -9.5t17.5 -1q68 0 120 73t52 243q0 313 -213 527t-526 214q-311 0 -525.5 -220t-214.5 -538q0 -315 216 -536t522 -221q254 0 444 139l152 -152q-258 -197 -594 -196q-410 0 -688.5 278.5t-278.5 688t279.5 688t687.5 278.5z M1028 188q111 0 178.5 84t67.5 217q0 131 -67.5 214t-178.5 83q-104 0 -173 -85t-69 -212q0 -129 69 -215t173 -86z" glyph-name="at" horiz-adv-x="2101" unicode="@"/><glyph d="M872 1434l519 -1434h-349l-88 264h-487l-88 -264h-348l518 1434h323zM541 541h340l-170 528z" glyph-name="A" horiz-adv-x="1421" unicode="A"/><glyph d="M1020 745q100 -41 156.5 -131t56.5 -208q0 -193 -141.5 -299.5t-368.5 -106.5h-610v1434h567q219 0 358.5 -108.5t139.5 -287.5q0 -98 -42 -177t-116 -116zM442 1157v-299h234q78 0 124 40t46 109.5t-48 109.5t-128 40h-228zM717 276q82 0 133 43t51 117t-50 119t-130 45 h-279v-324h275z" glyph-name="B" horiz-adv-x="1284" unicode="B"/><glyph d="M784 256q127 0 218.5 73.5t125.5 200.5l320 -57q-51 -227 -230.5 -360t-437.5 -133q-319 0 -513.5 203.5t-194.5 533.5t192.5 533.5t509.5 203.5q258 0 438.5 -135t227.5 -358l-320 -58q-35 127 -124 201t-216 74q-170 0 -274.5 -128t-104.5 -331t104.5 -333t278.5 -130z " glyph-name="C" horiz-adv-x="1517" unicode="C"/><glyph d="M608 1434q344 0 547 -193.5t203 -521.5q0 -330 -204 -524.5t-546 -194.5h-495v1434h495zM578 276q209 0 327.5 117t118.5 326t-116.5 323.5t-329.5 114.5h-136v-881h136z" glyph-name="D" horiz-adv-x="1429" unicode="D"/><glyph d="M1112 1157h-670v-297h588v-270h-588v-314h670v-276h-999v1434h999v-277z" glyph-name="E" horiz-adv-x="1212" unicode="E"/><glyph d="M1092 1157h-650v-364h568v-269h-568v-524h-329v1434h979v-277z" glyph-name="F" horiz-adv-x="1150" unicode="F"/><glyph d="M1513 823q8 -82 9 -151q0 -309 -193.5 -500.5t-509.5 -191.5q-326 0 -531.5 203.5t-205.5 529t206 533.5t531 208q217 0 382 -99.5t259 -285.5l-311 -84q-43 90 -129 141.5t-199 51.5q-184 0 -297.5 -130t-113.5 -335t113.5 -331t299.5 -126q150 0 252.5 81t120.5 214 h-360v272h677z" glyph-name="G" horiz-adv-x="1597" unicode="G"/><glyph d="M1020 1434h330v-1434h-330v584h-578v-584h-329v1434h329v-574h578v574z" glyph-name="H" horiz-adv-x="1462" unicode="H"/><glyph d="M442 0h-329v1434h329v-1434z" glyph-name="I" horiz-adv-x="552" unicode="I"/><glyph d="M721 1434h330v-955q0 -221 -143.5 -360t-370.5 -139q-209 0 -346.5 117.5t-159.5 308.5l311 55q4 -84 55.5 -144.5t141.5 -60.5t136 62.5t46 158.5v957z" glyph-name="J" horiz-adv-x="1163" unicode="J"/><glyph d="M719 788l608 -788h-407l-410 553l-68 -78v-475h-329v1434h329v-525l439 525h405z" glyph-name="K" horiz-adv-x="1343" unicode="K"/><glyph d="M442 276h633v-276h-962v1434h329v-1158z" glyph-name="L" horiz-adv-x="1142" unicode="L"/><glyph d="M1260 1434h370v-1434h-317v899l-336 -899h-213l-336 899v-899h-315v1434h370l387 -955z" glyph-name="M" horiz-adv-x="1742" unicode="M"/><glyph d="M987 1434h330v-1434h-348l-527 883v-883h-329v1434h348l526 -885v885z" glyph-name="N" horiz-adv-x="1429" unicode="N"/><glyph d="M803 1454q322 0 526.5 -208t204.5 -529.5t-205 -529t-526 -207.5q-319 0 -525 207.5t-206 529t206 529.5t525 208zM802.5 256q186.5 0 294 131t107.5 329.5t-107.5 330t-294 131.5t-294 -131.5t-107.5 -330t107.5 -329.5t294 -131z" glyph-name="O" horiz-adv-x="1605" unicode="O"/><glyph d="M690 1434q233 0 375.5 -130t142.5 -346q0 -213 -141 -342t-373 -129h-252v-487h-329v1434h577zM639 766q111 0 172 51t61 144q0 94 -61 145t-172 51h-197v-391h197z" glyph-name="P" horiz-adv-x="1265" unicode="P"/><glyph d="M1139 -164l-119 172q-104 -29 -217 -28q-319 0 -525 207.5t-206 529t205.5 529.5t525.5 208q322 0 526.5 -208t204.5 -529q0 -348 -236 -557l99 -142zM803 256q8 0 23.5 1t23.5 1l-129 188l254 181l145 -209q84 121 84 299q0 199 -107.5 330t-294 131t-294 -131.5 t-107.5 -330t108 -329.5t294 -131z" glyph-name="Q" horiz-adv-x="1605" unicode="Q"/><glyph d="M690 1434q233 0 375.5 -130t142.5 -346q0 -145 -68.5 -254.5t-191.5 -164.5l295 -539h-366l-230 487h-205v-487h-329v1434h577zM639 766q111 0 172 51t61 144q0 94 -61 145t-172 51h-197v-391h197z" glyph-name="R" horiz-adv-x="1280" unicode="R"/><glyph d="M408 1034q0 -68 61 -101.5t188 -66.5q225 -57 314 -106q182 -106 182 -324q0 -211 -152.5 -333.5t-386.5 -122.5q-213 0 -358 104t-190 285l305 53q16 -70 81.5 -115t174.5 -45q98 0 152.5 39t54.5 107q0 74 -63.5 114.5t-184.5 73.5q-219 61 -287 94q-211 104 -211 320 q0 205 155.5 324.5t354.5 119.5q174 0 323.5 -98.5t194.5 -280.5l-299 -53q-53 152 -223 152q-84 0 -135 -39.5t-51 -100.5z" glyph-name="S" horiz-adv-x="1218" unicode="S"/><glyph d="M49 1434h1165v-277h-417v-1157h-330v1157h-418v277z" glyph-name="T" horiz-adv-x="1263" unicode="T"/><glyph d="M958 1434h330v-908q0 -260 -151.5 -403t-436 -143t-436 143t-151.5 403v908h329v-906q0 -119 70 -195.5t188.5 -76.5t188 77t69.5 195v906z" glyph-name="U" horiz-adv-x="1400" unicode="U"/><glyph d="M1010 1434h348l-508 -1434h-311l-508 1434h348l315 -983z" glyph-name="V" horiz-adv-x="1388" unicode="V"/><glyph d="M1657 1434h330l-408 -1434h-301l-262 918l-262 -918h-303l-406 1434h330l237 -914l279 914h248l278 -914z" glyph-name="W" horiz-adv-x="2029" unicode="W"/><glyph d="M879 735l483 -735h-369l-291 463l-288 -463h-369l481 735l-440 699h369l247 -430l250 430h369z" glyph-name="X" horiz-adv-x="1404" unicode="X"/><glyph d="M948 1434h367l-475 -897v-537h-330v537l-477 897h368l273 -584z" glyph-name="Y" horiz-adv-x="1349" unicode="Y"/><glyph d="M496 276h716v-276h-1124v211l696 946h-675v277h1083v-211z" glyph-name="Z" unicode="Z"/><glyph d="M793 1460h-287v-1681h287v-279h-617v2237h617v-277z" glyph-name="bracketleft" horiz-adv-x="829" unicode="["/><glyph d="M307 1569l500 -1835l-293 -51l-500 1835z" glyph-name="backslash" horiz-adv-x="821" unicode="\"/><glyph d="M324 1460h-287v277h616v-2237h-616v279h287v1681z" glyph-name="bracketright" horiz-adv-x="829" unicode="]"/><glyph d="M383 807h-334l397 647h299l396 -647h-332l-213 403z" glyph-name="asciicircum" horiz-adv-x="1189" unicode="^"/><glyph d="M940 -260h-975v262h975v-262z" glyph-name="underscore" horiz-adv-x="905" unicode="_"/><glyph d="M461 1434l125 -279h-207l-201 279h283z" glyph-name="grave" horiz-adv-x="763" unicode="`"/><glyph d="M526 1061q197 0 328 -106.5t131 -297.5v-657h-317v119q-98 -139 -291 -139q-139 0 -234.5 89t-95.5 228q0 88 43 154.5t107.5 103.5t152.5 60.5t163 30.5t155 7v29q0 57 -41 94t-111 37q-63 0 -107 -36t-51 -91l-286 49q33 150 161.5 238t292.5 88zM668 422v24 q-41 0 -81 -4t-98.5 -15t-95.5 -43t-37 -79q0 -43 32 -69.5t87 -26.5q82 0 137.5 62.5t55.5 150.5z" glyph-name="a" horiz-adv-x="1079" unicode="a"/><glyph d="M96 0v1475h318v-551q106 137 319 137q209 0 334 -155.5t125 -381t-124 -385t-333 -159.5q-96 0 -186 36.5t-135 104.5v-121h-318zM408 520q0 -117 60 -195.5t168.5 -78.5t172 78.5t63.5 195.5t-63.5 195t-172 78t-168.5 -78t-60 -195z" glyph-name="b" horiz-adv-x="1249" unicode="b"/><glyph d="M596 246q80 0 134 48t71 128l301 -53q-25 -176 -172.5 -282.5t-329.5 -106.5q-238 0 -390.5 152.5t-152.5 388t154 388t389 152.5q182 0 329.5 -107.5t172.5 -281.5l-301 -54q-16 78 -71.5 126.5t-133.5 48.5q-109 0 -164 -79t-55 -193.5t55 -194.5t164 -80z" glyph-name="c" horiz-adv-x="1161" unicode="c"/><glyph d="M1153 1475v-1475h-317v121q-45 -68 -135.5 -104.5t-186.5 -36.5q-209 0 -333 159.5t-124 385t125 381t334 155.5q213 0 320 -137v551h317zM842 520q0 117 -60.5 195t-169 78t-172 -78t-63.5 -195t63.5 -195.5t172 -78.5t169 78.5t60.5 195.5z" glyph-name="d" horiz-adv-x="1249" unicode="d"/><glyph d="M1102 514q0 -43 -6 -84h-736q10 -92 76 -145.5t158 -53.5q139 0 194 111l287 -53q-63 -154 -191 -231.5t-294 -77.5q-233 0 -383 152.5t-150 389.5q0 236 147.5 387.5t379.5 151.5q233 0 375.5 -154.5t142.5 -392.5zM369 645h422q-8 82 -68.5 130t-140.5 48t-139.5 -48 t-73.5 -130z" glyph-name="e" horiz-adv-x="1161" unicode="e"/><glyph d="M739 1040v-264h-225v-776h-317v776h-164v264h164v80q0 195 86 285t290 90q90 0 168 -12v-275q-45 18 -108 15q-74 -2 -96.5 -32t-22.5 -110v-41h225z" glyph-name="f" horiz-adv-x="794" unicode="f"/><glyph d="M532 16q-211 0 -343 154t-132 369q0 223 130 372.5t350 149.5q80 0 159.5 -34t122.5 -93v106h320v-1026q0 -236 -155 -360.5t-396 -124.5q-182 0 -325.5 90t-184.5 256l309 55q12 -66 70.5 -99.5t130.5 -33.5q102 0 166.5 52.5t64.5 152.5v141q-101 -127 -287 -127z M827 538.5q0 104.5 -61 175t-163.5 70.5t-163 -69.5t-60.5 -176t60.5 -178t163 -71.5t163.5 72.5t61 177z" glyph-name="g" horiz-adv-x="1232" unicode="g"/><glyph d="M725 1061q174 0 268 -117t94 -293v-651h-317v578q0 215 -166 215q-190 0 -190 -263v-530h-318v1475h318v-572q116 158 311 158z" glyph-name="h" horiz-adv-x="1175" unicode="h"/><glyph d="M264 1171q-78 0 -132 54.5t-54 132.5t54 132t132 54t132.5 -54t54.5 -132t-54.5 -132.5t-132.5 -54.5zM424 0h-318v1040h318v-1040z" glyph-name="i" horiz-adv-x="524" unicode="i"/><glyph d="M276 1171q-78 0 -132 54.5t-54 132.5t54.5 132t131.5 54q80 0 133.5 -54t53.5 -132t-53.5 -132.5t-133.5 -54.5zM-76 -190q31 -6 65 -2t62.5 15t47 49t18.5 101v1067h317v-1081q0 -238 -80 -334t-315 -96l-115 6v275z" glyph-name="j" horiz-adv-x="532" unicode="j"/><glyph d="M713 594l469 -594h-387l-314 408l-67 -70v-338h-318v1475h318v-789l352 354h391z" glyph-name="k" horiz-adv-x="1167" unicode="k"/><glyph d="M414 0h-318v1475h318v-1475z" glyph-name="l" horiz-adv-x="509" unicode="l"/><glyph d="M1313 1061q172 0 263 -109.5t91 -285.5v-666h-317v600q0 178 -148 178q-160 0 -160 -237v-541h-317v600q0 178 -145 178q-168 0 -168 -237v-541h-318v1040h318v-135q96 156 286 156q203 0 289 -178q99 178 326 178z" glyph-name="m" horiz-adv-x="1753" unicode="m"/><glyph d="M719 1061q174 0 270 -116t96 -294v-651h-317v578q0 215 -166 215q-190 0 -190 -261v-532h-318v1040h318v-135q114 156 307 156z" glyph-name="n" horiz-adv-x="1173" unicode="n"/><glyph d="M602 1061q244 0 396.5 -147.5t152.5 -393.5q0 -248 -151.5 -394t-397.5 -146q-244 0 -394.5 147t-150.5 393t151.5 393.5t393.5 147.5zM602 246q111 0 170 77.5t59 196.5t-59 197t-170 78q-106 0 -165.5 -79t-59.5 -196t59.5 -195.5t165.5 -78.5z" glyph-name="o" horiz-adv-x="1208" unicode="o"/><glyph d="M96 -451v1491h318v-120q104 141 317 141t337 -159t124 -384q0 -227 -125 -382.5t-334 -155.5q-213 0 -319 137v-568h-318zM408 520q0 -115 61 -193.5t168 -78.5q109 0 172 77.5t63 194.5t-63.5 196t-172 79t-168.5 -79t-60 -196z" glyph-name="p" horiz-adv-x="1251" unicode="p"/><glyph d="M1153 1040v-1491h-317v568q-106 -137 -320 -137q-209 0 -334 155.5t-125 382.5q0 225 124 384t337 159t318 -141v120h317zM842 520q0 117 -60.5 196t-169 79t-172 -79t-63.5 -196t63.5 -194.5t171.5 -77.5q106 0 168 78.5t62 193.5z" glyph-name="q" horiz-adv-x="1251" unicode="q"/><glyph d="M774 1061v-283q-39 8 -86 8q-123 0 -202.5 -70.5t-79.5 -228.5v-487h-318v1040h318v-168q70 111 150.5 150t217.5 39z" glyph-name="r" horiz-adv-x="794" unicode="r"/><glyph d="M356 748q0 -61 158 -99q14 -4 23 -6q195 -47 289 -124t94 -206q0 -154 -121 -243.5t-314 -89.5q-180 0 -299.5 80.5t-146.5 224.5l305 53q20 -125 143 -125q55 0 91 23.5t36 62.5q0 25 -14 43t-51 31.5t-54.5 18.5t-68.5 18q-193 47 -281 118.5t-88 190.5 q0 147 120 244.5t292 97.5q150 0 268.5 -79t155.5 -206l-301 -55q-18 106 -127 106q-49 0 -79 -22t-30 -57z" glyph-name="s" horiz-adv-x="958" unicode="s"/><glyph d="M737 776h-225v-358q0 -90 26.5 -123t106.5 -33q39 0 94 19v-289q-61 -12 -149 -12q-190 0 -292.5 79.5t-102.5 268.5v448h-166v264h170v283l311 53v-336h227v-264z" glyph-name="t" horiz-adv-x="790" unicode="t"/><glyph d="M455 -20q-174 0 -271.5 115.5t-97.5 293.5v651h320v-577q0 -215 165 -215q188 0 189 260v532h317v-1040h-317v135q-115 -155 -305 -155z" glyph-name="u" horiz-adv-x="1171" unicode="u"/><glyph d="M762 1040h328l-377 -1040h-320l-377 1040h328l209 -682z" glyph-name="v" horiz-adv-x="1107" unicode="v"/><glyph d="M1266 1040h317l-313 -1040h-297l-172 608l-172 -608h-293l-318 1040h322l152 -622l167 622h283l172 -622z" glyph-name="w" horiz-adv-x="1603" unicode="w"/><glyph d="M733 537l334 -537h-367l-157 295l-156 -295h-369l336 537l-315 503h364l140 -264l141 264h365z" glyph-name="x" horiz-adv-x="1087" unicode="x"/><glyph d="M752 1040h338l-574 -1491h-338l217 517l-379 974h340l199 -639z" glyph-name="y" horiz-adv-x="1107" unicode="y"/><glyph d="M504 283h454v-283h-892v221l462 537h-440v282h850v-221z" glyph-name="z" horiz-adv-x="1026" unicode="z"/><glyph d="M600 979q0 -119 -43 -210t-115 -138q158 -117 158 -352v-302q0 -119 53.5 -157.5t180.5 -38.5l45 2v-262q-133 -18 -220 -19q-190 0 -289.5 93.5t-99.5 308.5v375q0 256 -233 256v192q119 0 176 62.5t57 193.5v360q0 211 99.5 302.5t289.5 91.5q39 0 93.5 -4t91.5 -9 l35 -6v-260q-27 2 -45 2q-127 0 -180.5 -38t-53.5 -154v-289z" glyph-name="braceleft" horiz-adv-x="913" unicode="{"/><glyph d="M549 -451h-330v2089h330v-2089z" glyph-name="bar" horiz-adv-x="765" unicode="|"/><glyph d="M313 979v289q0 117 -53 154.5t-180 37.5l-45 -2v260q133 18 219 19q190 0 289.5 -91.5t99.5 -302.5v-360q0 -131 57.5 -193.5t176.5 -62.5v-192q-233 0 -234 -256v-375q0 -215 -99.5 -308.5t-289.5 -93.5q-39 0 -93.5 5.5t-90.5 9.5l-35 4v262q27 -2 45 -2q127 0 180 39 t53 157v302q0 236 158 352q-72 47 -115 138t-43 210z" glyph-name="braceright" horiz-adv-x="913" unicode="}"/><glyph d="M150 408q-4 180 92 305t262 125q82 0 158.5 -36t125 -78t103.5 -78t98 -36q59 0 89 54.5t28 132.5h260q4 -190 -90 -310t-264 -120q-86 0 -164 35.5t-125 77.5t-100.5 78t-98.5 36q-117 0 -112 -186h-262z" glyph-name="asciitilde" horiz-adv-x="1517" unicode="~"/><glyph glyph-name="uni00A0" horiz-adv-x="446" unicode=" "/><glyph d="M360 772q-78 0 -134 56.5t-56 134.5q0 76 56.5 132t133.5 56q76 0 132.5 -55.5t56.5 -133t-56.5 -134t-132.5 -56.5zM203 655h313l8 -925h-329z" glyph-name="exclamdown" horiz-adv-x="716" unicode="¡"/><glyph d="M580 1053v145h174v-143q160 -23 278.5 -126.5t143.5 -256.5l-304 -54q-23 113 -118 154v-506q96 41 118 156l304 -53q-25 -154 -144 -257.5t-278 -125.5v-144h-174v146q-201 29 -326 175t-125 357t125 357.5t326 175.5zM449 520q0 -86 32.5 -155.5t98.5 -98.5v506 q-131 -59 -131 -252z" glyph-name="cent" horiz-adv-x="1302" unicode="¢"/><glyph d="M123 598v244h158q-12 172 -13 235q0 182 131 308t371 126q184 0 319.5 -96t149.5 -270l-274 -49q-8 68 -56.5 110.5t-124.5 42.5q-100 0 -145 -68.5t-45 -166.5q0 -63 10 -172h316v-244h-308q8 -102 9 -147q0 -51 -8.5 -93.5t-17.5 -60.5t-13 -18h641v-279h-1100v279 q51 0 87 17t52.5 35.5t24.5 58.5t9 57.5t1 62.5q0 18 -4 88h-170z" glyph-name="sterling" horiz-adv-x="1359" unicode="£"/><glyph d="M131 946l162 162l119 -129q135 80 297 80q174 0 311 -86l127 135l162 -162l-133 -125q90 -131 90 -303q0 -170 -90 -305l133 -123l-162 -162l-125 138q-143 -88 -313 -89q-166 0 -297 80l-119 -129l-162 162l121 113q-98 141 -98 315q0 178 98 316zM475 518 q0 -115 60.5 -193.5t173.5 -78.5q115 0 176 77.5t61 194.5q0 119 -61.5 197t-175.5 78q-113 0 -173.5 -79t-60.5 -196z" glyph-name="currency" horiz-adv-x="1439" unicode="¤"/><glyph d="M410 727l-377 707h368l273 -584l274 584h367l-375 -707h217v-209h-317v-153h317v-209h-317v-156h-330v156h-317v209h317v153h-317v209h217z" glyph-name="yen" horiz-adv-x="1349" unicode="¥"/><glyph d="M219 803v835h330v-835h-330zM219 -451v836h330v-836h-330z" glyph-name="brokenbar" horiz-adv-x="765" unicode="¦"/><glyph d="M586 -471q-211 0 -354.5 104.5t-190.5 284.5l305 53q16 -68 81 -113.5t171 -45.5q94 0 148.5 39.5t54.5 107.5q0 61 -41 104t-107.5 70t-146.5 51.5t-159 57t-144.5 76.5t-105.5 121t-38 179q6 154 152 277q-150 115 -127 328q23 182 172.5 289.5t331.5 107.5 q172 0 318.5 -98.5t193.5 -280.5l-299 -55q-55 154 -219 153q-78 0 -129.5 -38.5t-51.5 -100.5q0 -51 41 -86t106.5 -56.5t144.5 -43t158 -54t144.5 -81t106.5 -135.5t41 -203q0 -141 -129 -262q106 -106 106 -277q0 -221 -153.5 -347t-380.5 -126zM842 539q0 25 -6.5 46 t-20.5 38.5t-25.5 32t-38 27.5t-42 21.5t-49 18.5t-48 14t-53.5 15.5t-49 13.5q-68 -8 -109 -49t-41 -94q0 -27 12.5 -50.5t37 -42t50 -33t66.5 -26.5t70 -20.5t74 -19.5t65 -17q107 25 107 125z" glyph-name="section" horiz-adv-x="1183" unicode="§"/><glyph d="M211 1353.5q0 69.5 50 120t120 50.5t120 -49.5t50 -121t-50 -121.5t-120 -50t-120 51t-50 120.5zM715 1354q0 70 50 120t121.5 50t121 -49.5t49.5 -121t-50.5 -121.5t-119.5 -50q-72 0 -122 50t-50 122z" glyph-name="dieresis" horiz-adv-x="1267" unicode="¨"/><glyph d="M801 1454q311 0 523 -214t212 -523t-212 -523t-523 -214q-309 0 -521 214t-212 523t212 523t521 214zM801 166q231 0 384.5 167t153.5 384t-153.5 384t-384.5 167q-229 0 -384 -167t-155 -384t155 -384t384 -167zM989 631l191 -37q-35 -129 -138.5 -210t-238.5 -81 q-168 0 -280.5 120t-112.5 294t112.5 293.5t280.5 119.5q135 0 238.5 -80.5t138.5 -209.5l-193 -29q-23 63 -71 103t-115 40q-90 0 -143.5 -70.5t-53.5 -166.5t54.5 -167t144.5 -71q68 0 117 42t69 110z" glyph-name="copyright" horiz-adv-x="1603" unicode="©"/><glyph d="M395 1454q135 0 229.5 -74.5t94.5 -203.5v-461h-234v82q-68 -96 -204 -97q-102 0 -172 61.5t-70 160.5q0 76 44 128t117.5 76.5t141.5 34.5t143 10v23q0 35 -26.5 59.5t-71.5 24.5q-43 0 -73.5 -23.5t-34.5 -62.5l-220 35q25 104 119 165.5t217 61.5zM485 1006v18 q-27 0 -55.5 -3t-66 -12.5t-62.5 -31t-25 -51.5q0 -63 76 -64q57 0 95 43.5t38 100.5z" glyph-name="ordfeminine" horiz-adv-x="790" unicode="ª"/><glyph d="M104 547l326 454h299l-289 -454l289 -455h-299zM664 547l327 454h299l-291 -454l291 -455h-299z" glyph-name="guillemotleft" horiz-adv-x="1394" unicode="«"/><glyph d="M123 551v260h952v-500h-311v240h-641z" glyph-name="logicalnot" horiz-adv-x="1214" unicode="¬"/><glyph d="M565 1454q205 0 346.5 -142.5t141.5 -349t-141.5 -349t-346.5 -142.5q-207 0 -349 142.5t-142 349t142 349t349 142.5zM565 590q160 0 262.5 108.5t102.5 264t-102.5 264t-262.5 108.5q-162 0 -264 -108.5t-102 -264t102 -264t264 -108.5zM672 893l94 -166h-137l-78 150 h-33v-150h-127v471h205q68 0 115 -46t47 -112q0 -100 -86 -147zM573 985q23 0 40.5 16.5t17.5 37t-17.5 34.5t-40.5 14h-55v-102h55z" glyph-name="registered" horiz-adv-x="1128" unicode="®"/><glyph d="M178 1286v227h688v-227h-688z" glyph-name="macron" horiz-adv-x="1044" unicode="¯"/><glyph d="M330 946q-117 0 -198 73t-81 187.5t81 189t198 74.5q113 0 190.5 -74.5t77.5 -189t-76.5 -187.5t-191.5 -73zM323.5 1116q38.5 0 65.5 25.5t27 64.5q0 41 -27 67.5t-65.5 26.5t-64.5 -26.5t-26 -67.5q0 -39 26 -64.5t64.5 -25.5z" glyph-name="degree" horiz-adv-x="649" unicode="°"/><glyph d="M1087 889v-262h-315v-201h-297v201h-315v262h315v221h297v-221h315zM1087 82h-927v262h927v-262z" glyph-name="plusminus" horiz-adv-x="1247" unicode="±"/><glyph d="M37 1266q6 76 69.5 132t169.5 56q98 0 165 -48t67 -130q0 -92 -105 -174l-124 -98h229v-156h-475v143l237 185q63 51 64 86q0 23 -17.5 35t-40.5 12q-59 0 -69 -64z" glyph-name="uni00B2" horiz-adv-x="534" unicode="²"/><glyph d="M29 1008l170 22q0 -27 19.5 -42t43.5 -15q31 0 48.5 16.5t17.5 40.5q0 53 -76 53h-64v129h60q29 0 43 16.5t14 37.5q0 43 -43 43q-39 0 -45 -43l-166 22q0 72 61.5 119t153.5 47q90 0 152.5 -47t62.5 -119q0 -94 -94 -129q115 -43 115 -151q0 -80 -65.5 -130.5 t-170 -50.5t-171 50.5t-66.5 130.5z" glyph-name="uni00B3" horiz-adv-x="534" unicode="³"/><glyph d="M305 1434h299l-203 -279h-223z" glyph-name="acute" horiz-adv-x="780" unicode="´"/><glyph d="M549 1434h264v-1598h-231v688h-33q-195 0 -327 130t-132 325t132 325t327 130zM895 -164v1598h229v-1598h-229z" glyph-name="paragraph" horiz-adv-x="1255" unicode="¶"/><glyph d="M381 512q-78 0 -134.5 56.5t-56.5 134t56.5 133t134.5 55.5t133 -55.5t55 -133t-55 -134t-133 -56.5z" glyph-name="periodcentered" horiz-adv-x="735" unicode="·"/><glyph d="M221 -197l53 197h183l-37 -109q152 -39 151 -182q0 -92 -77.5 -136t-180.5 -44q-74 0 -135 20l25 129q35 -12 80 -12q31 0 58.5 15.5t27.5 48.5q-1 73 -148 73z" glyph-name="cedilla" horiz-adv-x="747" unicode="¸"/><glyph d="M31 1290v144h266v-586h-174v442h-92z" glyph-name="uni00B9" horiz-adv-x="368" unicode="¹"/><glyph d="M362 1454q76 0 135.5 -23.5t96.5 -60.5t61.5 -89t33.5 -104.5t9 -109.5t-9 -109.5t-33.5 -104.5t-61.5 -89t-96.5 -60.5t-135.5 -23.5q-176 0 -253.5 113.5t-77.5 273.5t77.5 273.5t253.5 113.5zM364.5 854q133.5 0 133.5 213t-133.5 213t-133.5 -213t133.5 -213z" glyph-name="ordmasculine" horiz-adv-x="729" unicode="º"/><glyph d="M965 1001l325 -454l-325 -455h-299l288 455l-288 454h299zM403 1001l328 -454l-328 -455h-299l291 455l-291 454h299z" glyph-name="guillemotright" horiz-adv-x="1394" unicode="»"/><glyph d="M2 0l1067 1466l193 -32l-1067 -1467zM41 1288v146h268v-648h-174v502h-94zM1071 647h174v-385h76v-145h-76v-117h-166v117h-284v145zM1079 446l-114 -184h114v184z" glyph-name="onequarter" horiz-adv-x="1421" unicode="¼"/><glyph d="M37 0l1065 1466l192 -32l-1065 -1467zM74 1288v146h270v-648h-176v502h-94zM899 477q6 78 70.5 134.5t169.5 56.5q100 0 169.5 -52.5t69.5 -138.5q0 -94 -106 -196l-129 -123h235v-158h-483v133l248 229q57 53 57 101q0 57 -61 57q-57 0 -68 -65z" glyph-name="onehalf" horiz-adv-x="1429" unicode="½"/><glyph d="M137 0l1067 1466l193 -32l-1067 -1467zM41 967l172 22q0 -29 21.5 -44t50.5 -15q31 0 50 17.5t19 41.5q0 27 -21.5 48.5t-58.5 21.5h-67v131h65q31 0 46.5 19.5t15.5 43.5q0 23 -14.5 38.5t-36.5 15.5q-45 0 -52 -45l-168 22q0 74 65 122t159 48t159.5 -51t65.5 -129 q0 -100 -96 -137q57 -18 86.5 -66.5t29.5 -103.5q0 -82 -68.5 -133.5t-174.5 -51.5q-109 0 -178.5 51.5t-69.5 133.5zM1186 647h174v-385h76v-145h-76v-117h-166v117h-285v145zM1194 446l-117 -184h117v184z" glyph-name="threequarters" horiz-adv-x="1595" unicode="¾"/><glyph d="M610 1012q78 0 134.5 -55.5t56.5 -133.5t-56.5 -134t-134.5 -56t-133 56t-55 134t55 133.5t133 55.5zM565 -461q-199 0 -340 103.5t-141 289.5q0 82 25.5 148.5t65.5 105.5t86 75t86 60.5t68.5 56.5t33.5 66q0 6 4 39t4 35h305v-14l2 -41v-12q4 -82 -30 -143.5t-86 -98.5 t-104 -71t-90 -80t-38 -105q0 -72 45 -112t106.5 -40t106.5 37t57 103l311 -56q-27 -162 -163 -254t-314 -92z" glyph-name="questiondown" horiz-adv-x="1099" unicode="¿"/><glyph d="M690 1866l125 -279h-207l-200 279h282zM872 1434l519 -1434h-349l-88 264h-487l-88 -264h-348l518 1434h323zM541 541h340l-170 528z" glyph-name="Agrave" horiz-adv-x="1421" unicode="À"/><glyph d="M723 1866h299l-203 -279h-223zM872 1434l519 -1434h-349l-88 264h-487l-88 -264h-348l518 1434h323zM541 541h340l-170 528z" glyph-name="Aacute" horiz-adv-x="1421" unicode="Á"/><glyph d="M524 1565h-205l295 319h195l297 -319h-207l-186 147zM872 1434l519 -1434h-349l-88 264h-487l-88 -264h-348l518 1434h323zM541 541h340l-170 528z" glyph-name="Acircumflex" horiz-adv-x="1421" unicode="Â"/><glyph d="M340 1606q-2 111 47 196.5t162 85.5q76 0 160 -55t114 -55q68 0 68 88h186q2 -111 -54 -197t-173 -86q-61 0 -112.5 27.5t-87.5 55.5t-64 28q-59 0 -60 -88h-186zM872 1434l519 -1434h-349l-88 264h-487l-88 -264h-348l518 1434h323zM541 541h340l-170 528z" glyph-name="Atilde" horiz-adv-x="1421" unicode="Ã"/><glyph d="M289 1740.5q0 69.5 50 120t119.5 50.5t120 -50.5t50.5 -119.5q0 -72 -50.5 -122t-120 -50t-119.5 51t-50 120.5zM793 1740.5q0 69.5 50 120t121.5 50.5t121 -50.5t49.5 -119.5q0 -72 -50.5 -122t-119.5 -50q-72 0 -122 51t-50 120.5zM872 1434l519 -1434h-349l-88 264 h-487l-88 -264h-348l518 1434h323zM541 541h340l-170 528z" glyph-name="Adieresis" horiz-adv-x="1421" unicode="Ä"/><glyph d="M711 1491q-104 0 -177 65.5t-73 169.5q0 106 72.5 173t177.5 67q102 0 172.5 -67.5t70.5 -172t-70.5 -170t-172.5 -65.5zM706.5 1642q34.5 0 59.5 24t25 60q0 39 -24 64t-60 25q-35 0 -59.5 -25t-24.5 -64q0 -37 24.5 -60.5t59 -23.5zM872 1434l519 -1434h-349l-88 264 h-487l-88 -264h-348l518 1434h323zM541 541h340l-170 528z" glyph-name="Aring" horiz-adv-x="1421" unicode="Å"/><glyph d="M383 0h-350l510 1434h1186v-277h-619v-297h594v-270h-594v-314h619v-276h-949v264h-311zM541 541h239v616h-26z" glyph-name="AE" horiz-adv-x="1837" unicode="Æ"/><glyph d="M784 256q127 0 218.5 73.5t125.5 200.5l320 -57q-45 -203 -194.5 -332t-366.5 -155l-33 -95q152 -39 152 -182q0 -92 -78 -136t-180 -44q-74 0 -136 20l25 129q35 -12 80 -12q31 0 58.5 15.5t27.5 48.5q0 74 -148 73l50 181q-289 25 -461 224.5t-172 508.5 q0 330 192.5 533.5t509.5 203.5q258 0 438.5 -135t227.5 -358l-320 -58q-35 127 -124 201t-216 74q-170 0 -274.5 -128t-104.5 -331t104.5 -333t278.5 -130z" glyph-name="Ccedilla" horiz-adv-x="1517" unicode="Ç"/><glyph d="M569 1866l125 -279h-207l-200 279h282zM1112 1157h-670v-297h588v-270h-588v-314h670v-276h-999v1434h999v-277z" glyph-name="Egrave" horiz-adv-x="1212" unicode="È"/><glyph d="M604 1866h299l-203 -279h-223zM1112 1157h-670v-297h588v-270h-588v-314h670v-276h-999v1434h999v-277z" glyph-name="Eacute" horiz-adv-x="1212" unicode="É"/><glyph d="M406 1565h-205l295 319h194l297 -319h-207l-186 147zM1112 1157h-670v-297h588v-270h-588v-314h670v-276h-999v1434h999v-277z" glyph-name="Ecircumflex" horiz-adv-x="1212" unicode="Ê"/><glyph d="M170 1740.5q0 69.5 50 120t120 50.5t120 -50.5t50 -119.5q0 -72 -50 -122t-120 -50t-120 51t-50 120.5zM674 1740.5q0 69.5 50 120t122 50.5t121 -50.5t49 -119.5q0 -72 -50.5 -122t-119.5 -50q-72 0 -122 51t-50 120.5zM1112 1157h-670v-297h588v-270h-588v-314h670 v-276h-999v1434h999v-277z" glyph-name="Edieresis" horiz-adv-x="1212" unicode="Ë"/><glyph d="M256 1858l125 -279h-207l-201 279h283zM442 0h-329v1434h329v-1434z" glyph-name="Igrave" horiz-adv-x="552" unicode="Ì"/><glyph d="M289 1858h299l-203 -279h-223zM442 0h-329v1434h329v-1434z" glyph-name="Iacute" horiz-adv-x="552" unicode="Í"/><glyph d="M90 1556h-205l295 320h195l297 -320h-207l-186 148zM442 0h-329v1434h329v-1434z" glyph-name="Icircumflex" horiz-adv-x="552" unicode="Î"/><glyph d="M-145 1734.5q0 69.5 50 120t119.5 50.5t120 -49.5t50.5 -121t-50.5 -121.5t-120 -50t-119.5 51t-50 120.5zM358 1735q0 70 50.5 120t122 50t120.5 -49.5t49 -121t-50 -121.5t-120 -50q-72 0 -122 50t-50 122zM442 0h-329v1434h329v-1434z" glyph-name="Idieresis" horiz-adv-x="552" unicode="Ï"/><glyph d="M694 1434q344 0 547 -193.5t203 -521.5q0 -330 -204 -524.5t-546 -194.5h-495v668h-142v262h142v504h495zM879 668h-351v-392h136q209 0 327.5 117t118.5 326t-116.5 323.5t-329.5 114.5h-136v-227h351v-262z" glyph-name="Eth" horiz-adv-x="1517" unicode="Ð"/><glyph d="M350 1606q-2 111 47 196.5t162 85.5q76 0 160 -55t115 -55q68 0 67 88h186q2 -111 -54 -197t-173 -86q-61 0 -112.5 27.5t-87 55.5t-64.5 28q-59 0 -59 -88h-187zM987 1434h330v-1434h-348l-527 883v-883h-329v1434h348l526 -885v885z" glyph-name="Ntilde" horiz-adv-x="1429" unicode="Ñ"/><glyph d="M780 1886l125 -278h-207l-200 278h282zM803 1454q322 0 526.5 -208t204.5 -529.5t-205 -529t-526 -207.5q-319 0 -525 207.5t-206 529t206 529.5t525 208zM802.5 256q186.5 0 294 131t107.5 329.5t-107.5 330t-294 131.5t-294 -131.5t-107.5 -330t107.5 -329.5t294 -131z " glyph-name="Ograve" horiz-adv-x="1605" unicode="Ò"/><glyph d="M815 1886h299l-203 -278h-223zM803 1454q322 0 526.5 -208t204.5 -529.5t-205 -529t-526 -207.5q-319 0 -525 207.5t-206 529t206 529.5t525 208zM802.5 256q186.5 0 294 131t107.5 329.5t-107.5 330t-294 131.5t-294 -131.5t-107.5 -330t107.5 -329.5t294 -131z" glyph-name="Oacute" horiz-adv-x="1605" unicode="Ó"/><glyph d="M616 1585h-204l295 320h194l297 -320h-207l-186 148zM803 1454q322 0 526.5 -208t204.5 -529.5t-205 -529t-526 -207.5q-319 0 -525 207.5t-206 529t206 529.5t525 208zM802.5 256q186.5 0 294 131t107.5 329.5t-107.5 330t-294 131.5t-294 -131.5t-107.5 -330 t107.5 -329.5t294 -131z" glyph-name="Ocircumflex" horiz-adv-x="1605" unicode="Ô"/><glyph d="M430 1626q-2 111 47 197t162 86q76 0 160 -55.5t114 -55.5q68 0 68 88h186q2 -111 -54 -196.5t-173 -85.5q-61 0 -112.5 27.5t-87 55t-64.5 27.5q-59 0 -60 -88h-186zM803 1454q322 0 526.5 -208t204.5 -529.5t-205 -529t-526 -207.5q-319 0 -525 207.5t-206 529 t206 529.5t525 208zM802.5 256q186.5 0 294 131t107.5 329.5t-107.5 330t-294 131.5t-294 -131.5t-107.5 -330t107.5 -329.5t294 -131z" glyph-name="Otilde" horiz-adv-x="1605" unicode="Õ"/><glyph d="M381 1761.5q0 69.5 50 119.5t120 50q72 0 121 -50t49 -120q0 -72 -50 -122t-120 -50t-120 51.5t-50 121zM885 1761.5q0 69.5 50 119.5t122 50q70 0 120 -50t50 -120q0 -72 -50.5 -122t-120 -50t-120.5 51.5t-51 121zM803 1454q322 0 526.5 -208t204.5 -529.5t-205 -529 t-526 -207.5q-319 0 -525 207.5t-206 529t206 529.5t525 208zM802.5 256q186.5 0 294 131t107.5 329.5t-107.5 330t-294 131.5t-294 -131.5t-107.5 -330t107.5 -329.5t294 -131z" glyph-name="Odieresis" horiz-adv-x="1605" unicode="Ö"/><glyph d="M369 143l-197 199l246 246l-246 248l197 196l245 -248l246 248l197 -196l-246 -248l246 -246l-197 -199l-246 248z" glyph-name="multiply" horiz-adv-x="1228" unicode="×"/><glyph d="M72 717q0 309 211 523t520 214q49 0 71 -4l33 104l293 -51l-43 -139q172 -94 274.5 -266t102.5 -381q0 -307 -211 -522t-520 -215q-23 0 -68 4l-37 -121l-290 51l45 152q-176 92 -278.5 266t-102.5 385zM543 365l248 809q-178 -2 -285 -137.5t-105 -323.5 q1 -221 142 -348zM1067 1067l-248 -807q176 4 280.5 139.5t104.5 321.5q-4 219 -137 346z" glyph-name="Oslash" horiz-adv-x="1605" unicode="Ø"/><glyph d="M688 1866l125 -279h-207l-200 279h282zM958 1434h330v-908q0 -260 -151.5 -403t-436 -143t-436 143t-151.5 403v908h329v-906q0 -119 70 -195.5t188.5 -76.5t188 77t69.5 195v906z" glyph-name="Ugrave" horiz-adv-x="1400" unicode="Ù"/><glyph d="M721 1866h299l-203 -279h-223zM958 1434h330v-908q0 -260 -151.5 -403t-436 -143t-436 143t-151.5 403v908h329v-906q0 -119 70 -195.5t188.5 -76.5t188 77t69.5 195v906z" glyph-name="Uacute" horiz-adv-x="1400" unicode="Ú"/><glyph d="M524 1565h-205l295 319h195l297 -319h-207l-186 147zM958 1434h330v-908q0 -260 -151.5 -403t-436 -143t-436 143t-151.5 403v908h329v-906q0 -119 70 -195.5t188.5 -76.5t188 77t69.5 195v906z" glyph-name="Ucircumflex" horiz-adv-x="1400" unicode="Û"/><glyph d="M287 1740.5q0 69.5 50 120t120 50.5q72 0 121 -50.5t49 -119.5q0 -72 -50.5 -122t-120 -50t-119.5 51t-50 120.5zM791 1740.5q0 69.5 50 120t122 50.5q70 0 120 -50.5t50 -119.5q0 -72 -50.5 -122t-120 -50t-120.5 51t-51 120.5zM958 1434h330v-908q0 -260 -151.5 -403 t-436 -143t-436 143t-151.5 403v908h329v-906q0 -119 70 -195.5t188.5 -76.5t188 77t69.5 195v906z" glyph-name="Udieresis" horiz-adv-x="1400" unicode="Ü"/><glyph d="M686 1866h299l-203 -279h-223zM948 1434h367l-475 -897v-537h-330v537l-477 897h368l273 -584z" glyph-name="Yacute" horiz-adv-x="1349" unicode="Ý"/><glyph d="M139 0v1434h275v-275h241q197 0 328 -126t131 -316.5t-131 -316.5t-328 -126h-241v-274h-275zM414 502h188q100 0 167 63.5t67 157.5q0 92 -65.5 150.5t-168.5 58.5h-188v-430z" glyph-name="Thorn" horiz-adv-x="1212" unicode="Þ"/><glyph d="M113 1073q0 172 134 276.5t324.5 104.5t327.5 -103.5t137 -275.5q0 -96 -50 -178t-136 -129q111 -41 178.5 -139.5t67.5 -220.5q0 -193 -141.5 -300.5t-344.5 -107.5h-112v217h82q98 0 169.5 53.5t71.5 149.5t-71.5 155.5t-163.5 59.5h-68v229h66q72 0 125 51.5t53 133.5 q0 84 -55.5 136t-133.5 52q-82 0 -134 -56.5t-52 -154.5v-1026h-274v1073z" glyph-name="germandbls" horiz-adv-x="1150" unicode="ß"/><glyph d="M504 1493l125 -279h-207l-201 279h283zM528 1061q197 0 328 -106.5t131 -297.5v-657h-317v119q-98 -139 -291 -139q-139 0 -234.5 89t-95.5 228q0 88 43 154.5t107.5 103.5t152.5 60.5t163 30.5t155 7v29q0 57 -41 94t-111 37q-63 0 -107 -36t-51 -91l-286 49 q33 150 161.5 238t292.5 88zM670 422v24q-41 0 -81 -4t-98.5 -15t-95.5 -43t-37 -79q0 -43 32 -69.5t87 -26.5q82 0 137.5 62.5t55.5 150.5z" glyph-name="agrave" horiz-adv-x="1081" unicode="à"/><glyph d="M537 1493h299l-203 -279h-223zM528 1061q197 0 328 -106.5t131 -297.5v-657h-317v119q-98 -139 -291 -139q-139 0 -234.5 89t-95.5 228q0 88 43 154.5t107.5 103.5t152.5 60.5t163 30.5t155 7v29q0 57 -41 94t-111 37q-63 0 -107 -36t-51 -91l-286 49q33 150 161.5 238 t292.5 88zM670 422v24q-41 0 -81 -4t-98.5 -15t-95.5 -43t-37 -79q0 -43 32 -69.5t87 -26.5q82 0 137.5 62.5t55.5 150.5z" glyph-name="aacute" horiz-adv-x="1081" unicode="á"/><glyph d="M338 1192h-205l295 319h195l297 -319h-207l-187 147zM528 1061q197 0 328 -106.5t131 -297.5v-657h-317v119q-98 -139 -291 -139q-139 0 -234.5 89t-95.5 228q0 88 43 154.5t107.5 103.5t152.5 60.5t163 30.5t155 7v29q0 57 -41 94t-111 37q-63 0 -107 -36t-51 -91 l-286 49q33 150 161.5 238t292.5 88zM670 422v24q-41 0 -81 -4t-98.5 -15t-95.5 -43t-37 -79q0 -43 32 -69.5t87 -26.5q82 0 137.5 62.5t55.5 150.5z" glyph-name="acircumflex" horiz-adv-x="1081" unicode="â"/><glyph d="M154 1233q-2 111 47 197t161 86q76 0 160 -55.5t115 -55.5q68 0 68 88h186q2 -111 -54.5 -197t-172.5 -86q-61 0 -112.5 28t-87.5 55.5t-65 27.5q-59 0 -59 -88h-186zM528 1061q197 0 328 -106.5t131 -297.5v-657h-317v119q-98 -139 -291 -139q-139 0 -234.5 89 t-95.5 228q0 88 43 154.5t107.5 103.5t152.5 60.5t163 30.5t155 7v29q0 57 -41 94t-111 37q-63 0 -107 -36t-51 -91l-286 49q33 150 161.5 238t292.5 88zM670 422v24q-41 0 -81 -4t-98.5 -15t-95.5 -43t-37 -79q0 -43 32 -69.5t87 -26.5q82 0 137.5 62.5t55.5 150.5z" glyph-name="atilde" horiz-adv-x="1081" unicode="ã"/><glyph d="M102 1368q0 70 50.5 120t119.5 50q72 0 121 -50t49 -120q0 -72 -50 -122t-119.5 -50t-120 51t-50.5 121zM606 1368q0 70 50.5 120t121.5 50q70 0 120 -50t50 -120q0 -72 -50 -122t-119.5 -50t-121 51t-51.5 121zM528 1061q197 0 328 -106.5t131 -297.5v-657h-317v119 q-98 -139 -291 -139q-139 0 -234.5 89t-95.5 228q0 88 43 154.5t107.5 103.5t152.5 60.5t163 30.5t155 7v29q0 57 -41 94t-111 37q-63 0 -107 -36t-51 -91l-286 49q33 150 161.5 238t292.5 88zM670 422v24q-41 0 -81 -4t-98.5 -15t-95.5 -43t-37 -79q0 -43 32 -69.5 t87 -26.5q82 0 137.5 62.5t55.5 150.5z" glyph-name="adieresis" horiz-adv-x="1081" unicode="ä"/><glyph d="M524 1118q-104 0 -177 65.5t-73 170.5q0 106 73 172.5t177 66.5q102 0 173 -67.5t71 -172t-71 -170t-173 -65.5zM520 1270q35 0 59.5 23.5t24.5 60.5q0 39 -23.5 63.5t-60.5 24.5q-35 0 -59.5 -24.5t-24.5 -63.5q0 -37 24.5 -60.5t59.5 -23.5zM528 1061q197 0 328 -106.5 t131 -297.5v-657h-317v119q-98 -139 -291 -139q-139 0 -234.5 89t-95.5 228q0 88 43 154.5t107.5 103.5t152.5 60.5t163 30.5t155 7v29q0 57 -41 94t-111 37q-63 0 -107 -36t-51 -91l-286 49q33 150 161.5 238t292.5 88zM670 422v24q-41 0 -81 -4t-98.5 -15t-95.5 -43 t-37 -79q0 -43 32 -69.5t87 -26.5q82 0 137.5 62.5t55.5 150.5z" glyph-name="aring" horiz-adv-x="1081" unicode="å"/><glyph d="M49 295q0 109 62.5 184.5t167 110.5t198.5 48t197 13q0 162 -152 162q-61 0 -107 -35t-53 -92l-286 49q31 143 157.5 234.5t280.5 91.5q104 0 204.5 -47t131.5 -129q66 94 175.5 139t229.5 35q195 -14 319 -155.5t138 -342.5q6 -57 -4 -125h-719q12 -90 73.5 -145 t151.5 -55q129 0 187 106l287 -53q-59 -145 -183.5 -227t-279.5 -82q-125 0 -239 60t-150 169q-57 -109 -175 -169t-251 -60q-154 0 -257.5 84t-103.5 231zM1204 813q-76 0 -132 -45t-73 -117h404q-12 72 -68.5 117t-130.5 45zM358 303q0 -53 41 -75.5t97 -16.5 q80 8 129 69.5t49 141.5v20q-316 0 -316 -139z" glyph-name="ae" horiz-adv-x="1773" unicode="æ"/><glyph d="M596 246q80 0 134 48t71 128l301 -53q-20 -150 -134 -251.5t-268 -129.5l-32 -97q152 -39 151 -182q0 -92 -77.5 -136t-180.5 -44q-74 0 -135 20l25 129q33 -12 79 -12q31 0 58.5 15.5t27.5 48.5q0 74 -147 73l49 183q-205 27 -333 173t-128 361q0 236 154 388.5 t389 152.5q182 0 329.5 -107.5t172.5 -281.5l-301 -54q-16 78 -71.5 126.5t-133.5 48.5q-109 0 -164 -79t-55 -193.5t55 -194.5t164 -80z" glyph-name="ccedilla" horiz-adv-x="1161" unicode="ç"/><glyph d="M559 1493l125 -279h-207l-201 279h283zM1102 514q0 -43 -6 -84h-736q10 -92 76 -145.5t158 -53.5q139 0 194 111l287 -53q-63 -154 -191 -231.5t-294 -77.5q-233 0 -383 152.5t-150 389.5q0 236 147.5 387.5t379.5 151.5q233 0 375.5 -154.5t142.5 -392.5zM369 645h422 q-8 82 -68.5 130t-140.5 48t-139.5 -48t-73.5 -130z" glyph-name="egrave" horiz-adv-x="1161" unicode="è"/><glyph d="M592 1493h299l-203 -279h-223zM1102 514q0 -43 -6 -84h-736q10 -92 76 -145.5t158 -53.5q139 0 194 111l287 -53q-63 -154 -191 -231.5t-294 -77.5q-233 0 -383 152.5t-150 389.5q0 236 147.5 387.5t379.5 151.5q233 0 375.5 -154.5t142.5 -392.5zM369 645h422 q-8 82 -68.5 130t-140.5 48t-139.5 -48t-73.5 -130z" glyph-name="eacute" horiz-adv-x="1161" unicode="é"/><glyph d="M395 1192h-205l295 319h195l297 -319h-207l-186 147zM1102 514q0 -43 -6 -84h-736q10 -92 76 -145.5t158 -53.5q139 0 194 111l287 -53q-63 -154 -191 -231.5t-294 -77.5q-233 0 -383 152.5t-150 389.5q0 236 147.5 387.5t379.5 151.5q233 0 375.5 -154.5t142.5 -392.5z M369 645h422q-8 82 -68.5 130t-140.5 48t-139.5 -48t-73.5 -130z" glyph-name="ecircumflex" horiz-adv-x="1161" unicode="ê"/><glyph d="M158 1368q0 70 50 120t119.5 50t120 -50t50.5 -120q0 -72 -50.5 -122t-120 -50t-119.5 51t-50 121zM662 1368q0 70 50 120t121.5 50t121 -50t49.5 -120q0 -72 -50.5 -122t-119.5 -50q-72 0 -122 51t-50 121zM1102 514q0 -43 -6 -84h-736q10 -92 76 -145.5t158 -53.5 q139 0 194 111l287 -53q-63 -154 -191 -231.5t-294 -77.5q-233 0 -383 152.5t-150 389.5q0 236 147.5 387.5t379.5 151.5q233 0 375.5 -154.5t142.5 -392.5zM369 645h422q-8 82 -68.5 130t-140.5 48t-139.5 -48t-73.5 -130z" glyph-name="edieresis" horiz-adv-x="1161" unicode="ë"/><glyph d="M233 1473l125 -279h-206l-201 279h282zM414 0h-318v1040h318v-1040z" glyph-name="igrave" horiz-adv-x="509" unicode="ì"/><glyph d="M266 1473h299l-203 -279h-223zM414 0h-318v1040h318v-1040z" glyph-name="iacute" horiz-adv-x="509" unicode="í"/><glyph d="M70 1171h-205l295 320h194l297 -320h-207l-186 148zM414 0h-318v1040h318v-1040z" glyph-name="icircumflex" horiz-adv-x="509" unicode="î"/><glyph d="M-168 1347.5q0 69.5 50 120t120 50.5q72 0 121 -50.5t49 -119.5q0 -72 -50 -122t-120 -50t-120 51t-50 120.5zM336 1347.5q0 69.5 50 120t122 50.5q70 0 120 -50.5t50 -119.5q0 -72 -50 -122t-120 -50t-121 51t-51 120.5zM414 0h-318v1040h318v-1040z" glyph-name="idieresis" horiz-adv-x="509" unicode="ï"/><glyph d="M590 -20q-213 0 -357.5 129t-144.5 342q0 209 126 355t321 146q117 0 202.5 -46t126.5 -107q-16 184 -139 331l-184 -124l-86 151l114 76q-90 41 -204 41l24 180q76 0 177.5 -25.5t176.5 -72.5l181 125l98 -156l-133 -86q217 -209 217 -588v-73q0 -279 -141.5 -438.5 t-374.5 -159.5zM594 752q-111 0 -179.5 -85t-68.5 -208q0 -125 70.5 -202t179.5 -77t180.5 80t71.5 205q0 127 -74 207t-180 80z" glyph-name="eth" horiz-adv-x="1187" unicode="ð"/><glyph d="M221 1233q-2 111 47 197t162 86q76 0 160 -55.5t115 -55.5q68 0 67 88h186q2 -111 -54 -197t-173 -86q-61 0 -112.5 28t-87 55.5t-64.5 27.5q-59 0 -59 -88h-187zM719 1061q174 0 270 -116t96 -294v-651h-317v578q0 215 -166 215q-190 0 -190 -261v-532h-318v1040h318 v-135q114 156 307 156z" glyph-name="ntilde" horiz-adv-x="1173" unicode="ñ"/><glyph d="M592 1493l125 -279h-207l-201 279h283zM602 1061q244 0 396.5 -147.5t152.5 -393.5q0 -248 -151.5 -394t-397.5 -146q-244 0 -394.5 147t-150.5 393t151.5 393.5t393.5 147.5zM602 246q111 0 170 77.5t59 196.5t-59 197t-170 78q-106 0 -165.5 -79t-59.5 -196 t59.5 -195.5t165.5 -78.5z" glyph-name="ograve" horiz-adv-x="1208" unicode="ò"/><glyph d="M625 1493h299l-203 -279h-223zM602 1061q244 0 396.5 -147.5t152.5 -393.5q0 -248 -151.5 -394t-397.5 -146q-244 0 -394.5 147t-150.5 393t151.5 393.5t393.5 147.5zM602 246q111 0 170 77.5t59 196.5t-59 197t-170 78q-106 0 -165.5 -79t-59.5 -196t59.5 -195.5 t165.5 -78.5z" glyph-name="oacute" horiz-adv-x="1208" unicode="ó"/><glyph d="M428 1192h-205l295 319h195l297 -319h-207l-187 147zM602 1061q244 0 396.5 -147.5t152.5 -393.5q0 -248 -151.5 -394t-397.5 -146q-244 0 -394.5 147t-150.5 393t151.5 393.5t393.5 147.5zM602 246q111 0 170 77.5t59 196.5t-59 197t-170 78q-106 0 -165.5 -79 t-59.5 -196t59.5 -195.5t165.5 -78.5z" glyph-name="ocircumflex" horiz-adv-x="1208" unicode="ô"/><glyph d="M242 1233q-2 111 47 197t162 86q76 0 159.5 -55.5t114.5 -55.5q68 0 68 88h186q2 -111 -54.5 -197t-172.5 -86q-61 0 -112.5 28t-87.5 55.5t-65 27.5q-59 0 -59 -88h-186zM602 1061q244 0 396.5 -147.5t152.5 -393.5q0 -248 -151.5 -394t-397.5 -146q-244 0 -394.5 147 t-150.5 393t151.5 393.5t393.5 147.5zM602 246q111 0 170 77.5t59 196.5t-59 197t-170 78q-106 0 -165.5 -79t-59.5 -196t59.5 -195.5t165.5 -78.5z" glyph-name="otilde" horiz-adv-x="1208" unicode="õ"/><glyph d="M190 1368q0 70 50.5 120t120 50t119.5 -50t50 -120q0 -72 -50 -122t-119.5 -50t-120 51t-50.5 121zM694 1368q0 70 50.5 120t122 50t120.5 -50t49 -120q0 -72 -50 -122t-120 -50q-72 0 -122 51t-50 121zM602 1061q244 0 396.5 -147.5t152.5 -393.5q0 -248 -151.5 -394 t-397.5 -146q-244 0 -394.5 147t-150.5 393t151.5 393.5t393.5 147.5zM602 246q111 0 170 77.5t59 196.5t-59 197t-170 78q-106 0 -165.5 -79t-59.5 -196t59.5 -195.5t165.5 -78.5z" glyph-name="odieresis" horiz-adv-x="1208" unicode="ö"/><glyph d="M612.5 831q-63.5 0 -109.5 45.5t-46 111t46 111.5t109.5 46t109.5 -46t46 -111.5t-46 -111t-109.5 -45.5zM1090 459h-953v262h953v-262zM612.5 33q-63.5 0 -109.5 45t-46 110.5t46 110.5t109.5 45t109.5 -45t46 -110.5t-46 -110.5t-109.5 -45z" glyph-name="divide" horiz-adv-x="1224" unicode="÷"/><glyph d="M334 47q-127 68 -196.5 193t-69.5 272q0 240 154.5 394.5t393.5 154.5q63 0 113 -8l47 125l195 -39l-58 -144q129 -70 201 -194.5t72 -274.5q0 -238 -156 -393.5t-393 -155.5q-51 0 -117 11l-51 -125l-193 39zM446 338l181 457q-47 -6 -52 -7q-94 -16 -139 -97t-45 -185 q4 -98 55 -168zM803 711l-185 -465q31 0 56 6q82 12 131 78.5t57 154.5v52q-8 108 -59 174z" glyph-name="oslash" horiz-adv-x="1253" unicode="ø"/><glyph d="M551 1473l125 -279h-207l-201 279h283zM455 -20q-174 0 -271.5 115.5t-97.5 293.5v651h320v-577q0 -215 165 -215q188 0 189 260v532h317v-1040h-317v135q-115 -155 -305 -155z" glyph-name="ugrave" horiz-adv-x="1171" unicode="ù"/><glyph d="M584 1473h299l-203 -279h-223zM455 -20q-174 0 -271.5 115.5t-97.5 293.5v651h320v-577q0 -215 165 -215q188 0 189 260v532h317v-1040h-317v135q-115 -155 -305 -155z" glyph-name="uacute" horiz-adv-x="1171" unicode="ú"/><glyph d="M387 1171h-205l295 320h195l297 -320h-207l-187 148zM455 -20q-174 0 -271.5 115.5t-97.5 293.5v651h320v-577q0 -215 165 -215q188 0 189 260v532h317v-1040h-317v135q-115 -155 -305 -155z" glyph-name="ucircumflex" horiz-adv-x="1171" unicode="û"/><glyph d="M150 1347.5q0 69.5 50 120t119.5 50.5t119.5 -50.5t50 -119.5q0 -72 -50 -122t-119.5 -50t-119.5 51t-50 120.5zM653 1347.5q0 69.5 50.5 120t122 50.5t120.5 -50.5t49 -119.5q0 -72 -50 -122t-120 -50q-72 0 -122 51t-50 120.5zM455 -20q-174 0 -271.5 115.5 t-97.5 293.5v651h320v-577q0 -215 165 -215q188 0 189 260v532h317v-1040h-317v135q-115 -155 -305 -155z" glyph-name="udieresis" horiz-adv-x="1171" unicode="ü"/><glyph d="M563 1473h299l-203 -279h-223zM752 1040h338l-574 -1491h-338l217 517l-379 974h340l199 -639z" glyph-name="yacute" horiz-adv-x="1107" unicode="ý"/><glyph d="M135 -451v1926h318v-551q113 137 317 137q219 0 349 -155.5t130 -381.5q0 -227 -127 -385.5t-344 -158.5q-96 0 -187 36.5t-138 104.5v-572h-318zM446 520q0 -117 63.5 -195.5t176.5 -78.5t178.5 78.5t65.5 195.5t-65.5 195t-178.5 78t-176.5 -78t-63.5 -195z" glyph-name="thorn" horiz-adv-x="1339" unicode="þ"/><glyph d="M129 1347.5q0 69.5 50 120t120 50.5t120 -50.5t50 -119.5q0 -72 -50 -122t-120 -50t-120 51t-50 120.5zM633 1347.5q0 69.5 50 120t122 50.5t121 -50.5t49 -119.5q0 -72 -50.5 -122t-119.5 -50q-72 0 -122 51t-50 120.5zM752 1040h338l-574 -1491h-338l217 517l-379 974 h340l199 -639z" glyph-name="ydieresis" horiz-adv-x="1107" unicode="ÿ"/><glyph d="M367 1587v228h688v-228h-688zM872 1434l519 -1434h-349l-88 264h-487l-88 -264h-348l518 1434h323zM541 541h340l-170 528z" glyph-name="Amacron" horiz-adv-x="1421" unicode="Ā"/><glyph d="M180 1214v228h688v-228h-688zM528 1061q197 0 328 -106.5t131 -297.5v-657h-317v119q-98 -139 -291 -139q-139 0 -234.5 89t-95.5 228q0 88 43 154.5t107.5 103.5t152.5 60.5t163 30.5t155 7v29q0 57 -41 94t-111 37q-63 0 -107 -36t-51 -91l-286 49q33 150 161.5 238 t292.5 88zM670 422v24q-41 0 -81 -4t-98.5 -15t-95.5 -43t-37 -79q0 -43 32 -69.5t87 -26.5q82 0 137.5 62.5t55.5 150.5z" glyph-name="amacron" horiz-adv-x="1081" unicode="ā"/><glyph d="M799 1866h227q0 -133 -86 -216t-229.5 -83t-228.5 83t-85 216h226q0 -92 86 -92q90 0 90 92zM872 1434l519 -1434h-349l-88 264h-487l-88 -264h-348l518 1434h323zM541 541h340l-170 528z" glyph-name="Abreve" horiz-adv-x="1421" unicode="Ă"/><glyph d="M612 1493h228q0 -133 -86 -216t-229.5 -83t-228.5 83t-85 216h225q0 -92 86 -92q90 0 90 92zM528 1061q197 0 328 -106.5t131 -297.5v-657h-317v119q-98 -139 -291 -139q-139 0 -234.5 89t-95.5 228q0 88 43 154.5t107.5 103.5t152.5 60.5t163 30.5t155 7v29q0 57 -41 94 t-111 37q-63 0 -107 -36t-51 -91l-286 49q33 150 161.5 238t292.5 88zM670 422v24q-41 0 -81 -4t-98.5 -15t-95.5 -43t-37 -79q0 -43 32 -69.5t87 -26.5q82 0 137.5 62.5t55.5 150.5z" glyph-name="abreve" horiz-adv-x="1081" unicode="ă"/><glyph d="M872 1434l519 -1434l-19 -12q-16 -10 -31.5 -21.5t-37 -31t-37 -38t-26.5 -43t-11 -47.5q0 -70 76 -75q57 0 81 10l27 -150q-55 -29 -147 -28q-104 0 -171 47t-67 139q0 143 170 250h-156l-88 264h-487l-88 -264h-348l518 1434h323zM541 541h340l-170 528z" glyph-name="Aogonek" horiz-adv-x="1421" unicode="Ą"/><glyph d="M528 1061q197 0 328 -106.5t131 -297.5v-657h2l-18 -12q-16 -10 -31.5 -21.5t-37 -31t-37 -38t-27 -43t-11.5 -47.5q0 -70 76 -75q57 0 82 10l27 -150q-55 -29 -148 -28q-104 0 -170.5 47t-66.5 139q0 143 170 250h-127v119q-98 -139 -291 -139q-139 0 -234.5 89 t-95.5 228q0 88 43 154.5t107.5 103.5t152.5 60.5t163 30.5t155 7v29q0 57 -41 94t-111 37q-63 0 -107 -36t-51 -91l-286 49q33 150 161.5 238t292.5 88zM670 422v24q-41 0 -81 -4t-98.5 -15t-95.5 -43t-37 -79q0 -43 32 -69.5t87 -26.5q82 0 137.5 62.5t55.5 150.5z" glyph-name="aogonek" horiz-adv-x="1081" unicode="ą"/><glyph d="M791 1886h299l-203 -278h-223zM784 256q127 0 218.5 73.5t125.5 200.5l320 -57q-51 -227 -230.5 -360t-437.5 -133q-319 0 -513.5 203.5t-194.5 533.5t192.5 533.5t509.5 203.5q258 0 438.5 -135t227.5 -358l-320 -58q-35 127 -124 201t-216 74q-170 0 -274.5 -128 t-104.5 -331t104.5 -333t278.5 -130z" glyph-name="Cacute" horiz-adv-x="1517" unicode="Ć"/><glyph d="M592 1493h299l-203 -279h-223zM596 246q80 0 134 48t71 128l301 -53q-25 -176 -172.5 -282.5t-329.5 -106.5q-238 0 -390.5 152.5t-152.5 388t154 388t389 152.5q182 0 329.5 -107.5t172.5 -281.5l-301 -54q-16 78 -71.5 126.5t-133.5 48.5q-109 0 -164 -79t-55 -193.5 t55 -194.5t164 -80z" glyph-name="cacute" horiz-adv-x="1161" unicode="ć"/><glyph d="M592 1585h-205l295 320h195l297 -320h-207l-187 148zM784 256q127 0 218.5 73.5t125.5 200.5l320 -57q-51 -227 -230.5 -360t-437.5 -133q-319 0 -513.5 203.5t-194.5 533.5t192.5 533.5t509.5 203.5q258 0 438.5 -135t227.5 -358l-320 -58q-35 127 -124 201t-216 74 q-170 0 -274.5 -128t-104.5 -331t104.5 -333t278.5 -130z" glyph-name="Ccircumflex" horiz-adv-x="1517" unicode="Ĉ"/><glyph d="M393 1192h-205l295 319h195l297 -319h-207l-186 147zM596 246q80 0 134 48t71 128l301 -53q-25 -176 -172.5 -282.5t-329.5 -106.5q-238 0 -390.5 152.5t-152.5 388t154 388t389 152.5q182 0 329.5 -107.5t172.5 -281.5l-301 -54q-16 78 -71.5 126.5t-133.5 48.5 q-109 0 -164 -79t-55 -193.5t55 -194.5t164 -80z" glyph-name="ccircumflex" horiz-adv-x="1161" unicode="ĉ"/><glyph d="M778 1554q-78 0 -132 54.5t-54 132.5t54 132t132 54t133.5 -55t55.5 -131t-55.5 -131.5t-133.5 -55.5zM784 256q127 0 218.5 73.5t125.5 200.5l320 -57q-51 -227 -230.5 -360t-437.5 -133q-319 0 -513.5 203.5t-194.5 533.5t192.5 533.5t509.5 203.5q258 0 438.5 -135 t227.5 -358l-320 -58q-35 127 -124 201t-216 74q-170 0 -274.5 -128t-104.5 -331t104.5 -333t278.5 -130z" glyph-name="Cdotaccent" horiz-adv-x="1517" unicode="Ċ"/><glyph d="M580 1178q-76 0 -131.5 54t-55.5 132t55.5 132t131.5 54q78 0 133 -55t55 -131t-55 -131t-133 -55zM596 246q80 0 134 48t71 128l301 -53q-25 -176 -172.5 -282.5t-329.5 -106.5q-238 0 -390.5 152.5t-152.5 388t154 388t389 152.5q182 0 329.5 -107.5t172.5 -281.5 l-301 -54q-16 78 -71.5 126.5t-133.5 48.5q-109 0 -164 -79t-55 -193.5t55 -194.5t164 -80z" glyph-name="cdotaccent" horiz-adv-x="1161" unicode="ċ"/><glyph d="M387 1927h205l188 -147l187 147h207l-297 -319h-195zM784 256q127 0 218.5 73.5t125.5 200.5l320 -57q-51 -227 -230.5 -360t-437.5 -133q-319 0 -513.5 203.5t-194.5 533.5t192.5 533.5t509.5 203.5q258 0 438.5 -135t227.5 -358l-320 -58q-35 127 -124 201t-216 74 q-170 0 -274.5 -128t-104.5 -331t104.5 -333t278.5 -130z" glyph-name="Ccaron" horiz-adv-x="1517" unicode="Č"/><glyph d="M188 1534h205l189 -148l186 148h207l-297 -320h-195zM596 246q80 0 134 48t71 128l301 -53q-25 -176 -172.5 -282.5t-329.5 -106.5q-238 0 -390.5 152.5t-152.5 388t154 388t389 152.5q182 0 329.5 -107.5t172.5 -281.5l-301 -54q-16 78 -71.5 126.5t-133.5 48.5 q-109 0 -164 -79t-55 -193.5t55 -194.5t164 -80z" glyph-name="ccaron" horiz-adv-x="1161" unicode="č"/><glyph d="M322 1884h204l189 -147l186 147h207l-297 -319h-195zM608 1434q344 0 547 -193.5t203 -521.5q0 -330 -204 -524.5t-546 -194.5h-495v1434h495zM578 276q209 0 327.5 117t118.5 326t-116.5 323.5t-329.5 114.5h-136v-881h136z" glyph-name="Dcaron" horiz-adv-x="1429" unicode="Ď"/><glyph d="M1153 1475v-1475h-317v121q-45 -68 -135.5 -104.5t-186.5 -36.5q-209 0 -333 159.5t-124 385t125 381t334 155.5q213 0 320 -137v551h317zM1608 885h-242l72 549h299zM842 520q0 117 -60.5 195t-169 78t-172 -78t-63.5 -195t63.5 -195.5t172 -78.5t169 78.5t60.5 195.5z " glyph-name="dcaron" horiz-adv-x="1824" unicode="ď"/><glyph d="M694 1434q344 0 547 -193.5t203 -521.5q0 -330 -204 -524.5t-546 -194.5h-495v668h-142v262h142v504h495zM879 668h-351v-392h136q209 0 327.5 117t118.5 326t-116.5 323.5t-329.5 114.5h-136v-227h351v-262z" glyph-name="Dcroat" horiz-adv-x="1515" unicode="Đ"/><glyph d="M1153 1475v-123h70v-178h-70v-1174h-317v121q-45 -68 -135.5 -104.5t-186.5 -36.5q-209 0 -333 159.5t-124 385t125 381t334 155.5q213 0 320 -137v250h-183v178h183v123h317zM842 520q0 117 -60.5 195t-169 78t-172 -78t-63.5 -195t63.5 -195.5t172 -78.5t169 78.5 t60.5 195.5z" glyph-name="dcroat" horiz-adv-x="1228" unicode="đ"/><glyph d="M248 1587v228h688v-228h-688zM1112 1157h-670v-297h588v-270h-588v-314h670v-276h-999v1434h999v-277z" glyph-name="Emacron" horiz-adv-x="1212" unicode="Ē"/><glyph d="M238 1214v228h688v-228h-688zM1102 514q0 -43 -6 -84h-736q10 -92 76 -145.5t158 -53.5q139 0 194 111l287 -53q-63 -154 -191 -231.5t-294 -77.5q-233 0 -383 152.5t-150 389.5q0 236 147.5 387.5t379.5 151.5q233 0 375.5 -154.5t142.5 -392.5zM369 645h422 q-8 82 -68.5 130t-140.5 48t-139.5 -48t-73.5 -130z" glyph-name="emacron" horiz-adv-x="1161" unicode="ē"/><glyph d="M680 1866h227q0 -133 -86 -216t-229 -83t-228 83t-85 216h225q0 -92 86 -92q90 0 90 92zM1112 1157h-670v-297h588v-270h-588v-314h670v-276h-999v1434h999v-277z" glyph-name="Ebreve" horiz-adv-x="1212" unicode="Ĕ"/><glyph d="M668 1493h227q0 -133 -86 -216t-229.5 -83t-228.5 83t-85 216h226q0 -92 86 -92q90 0 90 92zM1102 514q0 -43 -6 -84h-736q10 -92 76 -145.5t158 -53.5q139 0 194 111l287 -53q-63 -154 -191 -231.5t-294 -77.5q-233 0 -383 152.5t-150 389.5q0 236 147.5 387.5 t379.5 151.5q233 0 375.5 -154.5t142.5 -392.5zM369 645h422q-8 82 -68.5 130t-140.5 48t-139.5 -48t-73.5 -130z" glyph-name="ebreve" horiz-adv-x="1161" unicode="ĕ"/><glyph d="M592 1550q-76 0 -131 54.5t-55 132.5t55 132t131 54q78 0 133 -55.5t55 -131t-55 -131t-133 -55.5zM1112 1157h-670v-297h588v-270h-588v-314h670v-276h-999v1434h999v-277z" glyph-name="Edotaccent" horiz-adv-x="1212" unicode="Ė"/><glyph d="M580 1178q-76 0 -131.5 54t-55.5 132t55.5 132t131.5 54q78 0 133 -55t55 -131t-55 -131t-133 -55zM1102 514q0 -43 -6 -84h-736q10 -92 76 -145.5t158 -53.5q139 0 194 111l287 -53q-63 -154 -191 -231.5t-294 -77.5q-233 0 -383 152.5t-150 389.5q0 236 147.5 387.5 t379.5 151.5q233 0 375.5 -154.5t142.5 -392.5zM369 645h422q-8 82 -68.5 130t-140.5 48t-139.5 -48t-73.5 -130z" glyph-name="edotaccent" horiz-adv-x="1161" unicode="ė"/><glyph d="M1112 1157h-670v-297h588v-270h-588v-314h670v-276h-999v1434h999v-277z" glyph-name="Eogonek" horiz-adv-x="1212" unicode="Ę"/><glyph d="M1102 514q0 -43 -6 -84h-736q10 -92 76 -145.5t158 -53.5q139 0 194 111l287 -53q-80 -195 -268 -271q-160 -106 -160 -190q0 -70 76 -76q55 0 82 10l26 -149q-55 -29 -147 -29q-104 0 -171 47t-67 140q0 117 113 209q-223 10 -362.5 161.5t-139.5 380.5 q0 236 147.5 387.5t379.5 151.5q233 0 375.5 -154.5t142.5 -392.5zM369 645h422q-8 82 -68.5 130t-140.5 48t-139.5 -48t-73.5 -130z" glyph-name="eogonek" horiz-adv-x="1161" unicode="ę"/><glyph d="M201 1907h205l188 -148l186 148h207l-297 -320h-194zM1112 1157h-670v-297h588v-270h-588v-314h670v-276h-999v1434h999v-277z" glyph-name="Ecaron" horiz-adv-x="1212" unicode="Ě"/><glyph d="M188 1534h205l189 -148l186 148h207l-297 -320h-195zM1102 514q0 -43 -6 -84h-736q10 -92 76 -145.5t158 -53.5q139 0 194 111l287 -53q-63 -154 -191 -231.5t-294 -77.5q-233 0 -383 152.5t-150 389.5q0 236 147.5 387.5t379.5 151.5q233 0 375.5 -154.5t142.5 -392.5z M369 645h422q-8 82 -68.5 130t-140.5 48t-139.5 -48t-73.5 -130z" glyph-name="ecaron" horiz-adv-x="1161" unicode="ě"/><glyph d="M637 1565h-205l295 319h195l297 -319h-207l-187 147zM1513 823q8 -82 9 -151q0 -309 -193.5 -500.5t-509.5 -191.5q-326 0 -531.5 203.5t-205.5 529t206 533.5t531 208q217 0 382 -99.5t259 -285.5l-311 -84q-43 90 -129 141.5t-199 51.5q-184 0 -297.5 -130t-113.5 -335 t113.5 -331t299.5 -126q150 0 252.5 81t120.5 214h-360v272h677z" glyph-name="Gcircumflex" horiz-adv-x="1597" unicode="Ĝ"/><glyph d="M412 1192h-205l295 319h194l297 -319h-207l-186 147zM532 16q-211 0 -343 154t-132 369q0 223 130 372.5t350 149.5q80 0 159.5 -34t122.5 -93v106h320v-1026q0 -236 -155 -360.5t-396 -124.5q-182 0 -325.5 90t-184.5 256l309 55q12 -66 70.5 -99.5t130.5 -33.5 q102 0 166.5 52.5t64.5 152.5v141q-101 -127 -287 -127zM827 538.5q0 104.5 -61 175t-163.5 70.5t-163 -69.5t-60.5 -176t60.5 -178t163 -71.5t163.5 72.5t61 177z" glyph-name="gcircumflex" horiz-adv-x="1232" unicode="ĝ"/><glyph d="M911 1866h228q0 -133 -86 -216t-229.5 -83t-228.5 83t-85 216h225q0 -92 86 -92q90 0 90 92zM1513 823q8 -82 9 -151q0 -309 -193.5 -500.5t-509.5 -191.5q-326 0 -531.5 203.5t-205.5 529t206 533.5t531 208q217 0 382 -99.5t259 -285.5l-311 -84q-43 90 -129 141.5 t-199 51.5q-184 0 -297.5 -130t-113.5 -335t113.5 -331t299.5 -126q150 0 252.5 81t120.5 214h-360v272h677z" glyph-name="Gbreve" horiz-adv-x="1597" unicode="Ğ"/><glyph d="M686 1493h227q0 -133 -86 -216t-229 -83t-228 83t-85 216h225q0 -92 86 -92q90 0 90 92zM532 16q-211 0 -343 154t-132 369q0 223 130 372.5t350 149.5q80 0 159.5 -34t122.5 -93v106h320v-1026q0 -236 -155 -360.5t-396 -124.5q-182 0 -325.5 90t-184.5 256l309 55 q12 -66 70.5 -99.5t130.5 -33.5q102 0 166.5 52.5t64.5 152.5v141q-101 -127 -287 -127zM827 538.5q0 104.5 -61 175t-163.5 70.5t-163 -69.5t-60.5 -176t60.5 -178t163 -71.5t163.5 72.5t61 177z" glyph-name="gbreve" horiz-adv-x="1232" unicode="ğ"/><glyph d="M823 1550q-78 0 -132 54.5t-54 132.5t54 132t132 54t133.5 -55.5t55.5 -131t-55.5 -131t-133.5 -55.5zM1513 823q8 -82 9 -151q0 -309 -193.5 -500.5t-509.5 -191.5q-326 0 -531.5 203.5t-205.5 529t206 533.5t531 208q217 0 382 -99.5t259 -285.5l-311 -84 q-43 90 -129 141.5t-199 51.5q-184 0 -297.5 -130t-113.5 -335t113.5 -331t299.5 -126q150 0 252.5 81t120.5 214h-360v272h677z" glyph-name="Gdotaccent" horiz-adv-x="1597" unicode="Ġ"/><glyph d="M598 1178q-78 0 -132 54t-54 132t54 132t132 54t133 -55t55 -131t-55 -131t-133 -55zM532 16q-211 0 -343 154t-132 369q0 223 130 372.5t350 149.5q80 0 159.5 -34t122.5 -93v106h320v-1026q0 -236 -155 -360.5t-396 -124.5q-182 0 -325.5 90t-184.5 256l309 55 q12 -66 70.5 -99.5t130.5 -33.5q102 0 166.5 52.5t64.5 152.5v141q-101 -127 -287 -127zM827 538.5q0 104.5 -61 175t-163.5 70.5t-163 -69.5t-60.5 -176t60.5 -178t163 -71.5t163.5 72.5t61 177z" glyph-name="gdotaccent" horiz-adv-x="1232" unicode="ġ"/><glyph d="M1513 823q8 -82 9 -151q0 -309 -193.5 -500.5t-509.5 -191.5q-326 0 -531.5 203.5t-205.5 529t206 533.5t531 208q217 0 382 -99.5t259 -285.5l-311 -84q-43 90 -129 141.5t-199 51.5q-184 0 -297.5 -130t-113.5 -335t113.5 -331t299.5 -126q150 0 252.5 81t120.5 214 h-360v272h677zM694 -143h215l-141 -336h-137z" glyph-name="Gcommaaccent" horiz-adv-x="1597" unicode="Ģ"/><glyph d="M604 1597h156l-53 -385h-211zM532 16q-211 0 -343 154t-132 369q0 223 130 372.5t350 149.5q80 0 159.5 -34t122.5 -93v106h320v-1026q0 -236 -155 -360.5t-396 -124.5q-182 0 -325.5 90t-184.5 256l309 55q12 -66 70.5 -99.5t130.5 -33.5q102 0 166.5 52.5t64.5 152.5 v141q-101 -127 -287 -127zM827 538.5q0 104.5 -61 175t-163.5 70.5t-163 -69.5t-60.5 -176t60.5 -178t163 -71.5t163.5 72.5t61 177z" glyph-name="gcommaaccent" horiz-adv-x="1232" unicode="ģ"/><glyph d="M543 1561h-205l295 319h194l297 -319h-206l-187 147zM1020 1434h330v-1434h-330v584h-578v-584h-329v1434h329v-574h578v574z" glyph-name="Hcircumflex" horiz-adv-x="1462" unicode="Ĥ"/><glyph d="M74 1597h-205l295 320h194l297 -320h-206l-187 148zM725 1061q174 0 268 -117t94 -293v-651h-317v578q0 215 -166 215q-190 0 -190 -263v-530h-318v1475h318v-572q116 158 311 158z" glyph-name="hcircumflex" horiz-adv-x="1175" unicode="ĥ"/><glyph d="M362 1679v228h689v-228h-689zM995 1434h330v-1434h-330v584h-577v-584h-330v1434h330v-574h577v574z" glyph-name="Hbar" horiz-adv-x="1413" unicode="Ħ"/><glyph d="M705 1061q174 0 268 -117t94 -293v-651h-317v578q0 215 -166 215q-190 0 -191 -263v-530h-317v1174h-115v178h115v123h317v-123h223v-178h-223v-271q117 158 312 158z" glyph-name="hbar" horiz-adv-x="1155" unicode="ħ"/><glyph d="M-94 1597q-2 111 47 197t162 86q76 0 159.5 -55.5t114.5 -55.5q68 0 68 89h186q2 -111 -54.5 -197t-172.5 -86q-61 0 -112.5 27.5t-87.5 55.5t-64 28q-59 0 -60 -89h-186zM442 0h-329v1434h329v-1434z" glyph-name="Itilde" horiz-adv-x="552" unicode="Ĩ"/><glyph d="M-117 1212q-2 111 47.5 197t161.5 86q76 0 160 -55.5t115 -55.5q68 0 67 89h187q2 -111 -54.5 -197t-173.5 -86q-61 0 -112.5 27.5t-87 55t-64.5 27.5q-59 0 -59 -88h-187zM414 0h-318v1040h318v-1040z" glyph-name="itilde" horiz-adv-x="509" unicode="ĩ"/><glyph d="M-68 1579v227h689v-227h-689zM442 0h-329v1434h329v-1434z" glyph-name="Imacron" horiz-adv-x="552" unicode="Ī"/><glyph d="M-88 1194v227h688v-227h-688zM414 0h-318v1040h318v-1040z" glyph-name="imacron" horiz-adv-x="509" unicode="ī"/><glyph d="M442 0l-16 -12q-18 -10 -33.5 -21.5t-37 -31t-37 -38t-26.5 -43t-11 -47.5q0 -70 75 -75q57 0 82 10l27 -150q-55 -29 -148 -28q-104 0 -170.5 47t-66.5 139q0 143 170 250h-137v1434h329v-1434z" glyph-name="Iogonek" horiz-adv-x="552" unicode="Į"/><glyph d="M264 1171q-78 0 -132 54.5t-54 132.5t54 132t132 54t132.5 -54t54.5 -132t-54.5 -132.5t-132.5 -54.5zM424 0l-18 -12q-16 -10 -32 -21.5t-37.5 -31t-36.5 -38t-26.5 -43t-11.5 -47.5q0 -70 76 -75q55 0 82 10l26 -150q-55 -29 -147 -28q-104 0 -171 47t-67 139 q0 143 170 250h-125v1040h318v-1040z" glyph-name="iogonek" horiz-adv-x="524" unicode="į"/><glyph d="M276 1542q-76 0 -131 54.5t-55 132t55.5 132t130.5 54.5q78 0 133.5 -55.5t55.5 -131t-55.5 -131t-133.5 -55.5zM442 0h-329v1434h329v-1434z" glyph-name="Idotaccent" horiz-adv-x="552" unicode="İ"/><glyph d="M414 0h-318v1040h318v-1040z" glyph-name="dotlessi" horiz-adv-x="509" unicode="ı"/><glyph d="M694 1565h-205l295 319h195l297 -319h-207l-186 147zM721 1434h330v-955q0 -221 -143.5 -360t-370.5 -139q-209 0 -346.5 117.5t-159.5 308.5l311 55q4 -84 55.5 -144.5t141.5 -60.5t136 62.5t46 158.5v957z" glyph-name="Jcircumflex" horiz-adv-x="1163" unicode="Ĵ"/><glyph d="M90 1171h-205l295 320h195l297 -320h-207l-186 148zM-72 -190q31 -6 65 -2t62.5 15t47 49t18.5 101v1067h317v-1081q0 -238 -79.5 -334t-315.5 -96l-115 6v275z" glyph-name="jcircumflex" horiz-adv-x="536" unicode="ĵ"/><glyph d="M719 788l608 -788h-407l-410 553l-68 -78v-475h-329v1434h329v-525l439 525h405zM573 -143h215l-141 -336h-137z" glyph-name="Kcommaaccent" horiz-adv-x="1343" unicode="Ķ"/><glyph d="M713 594l469 -594h-387l-314 408l-67 -70v-338h-318v1475h318v-789l352 354h391zM485 -143h215l-141 -336h-137z" glyph-name="kcommaaccent" horiz-adv-x="1167" unicode="ķ"/><glyph d="M299 1866h299l-203 -279h-223zM442 276h633v-276h-962v1434h329v-1158z" glyph-name="Lacute" horiz-adv-x="1142" unicode="Ĺ"/><glyph d="M266 1898h299l-203 -278h-223zM414 0h-318v1475h318v-1475z" glyph-name="lacute" horiz-adv-x="509" unicode="ĺ"/><glyph d="M442 276h633v-276h-962v1434h329v-1158zM496 -143h215l-142 -336h-137z" glyph-name="Lcommaaccent" horiz-adv-x="1142" unicode="Ļ"/><glyph d="M414 0h-318v1475h318v-1475zM184 -143h215l-141 -336h-137z" glyph-name="lcommaaccent" horiz-adv-x="509" unicode="ļ"/><glyph d="M442 276h633v-276h-962v1434h329v-1158zM823 885h-241l71 549h299z" glyph-name="Lcaron" horiz-adv-x="1142" unicode="Ľ"/><glyph d="M414 0h-318v1475h318v-1475zM760 885h-242l72 549h299z" glyph-name="lcaron" horiz-adv-x="907" unicode="ľ"/><glyph d="M442 276h633v-276h-962v1434h329v-1158zM760 516q-78 0 -134.5 56.5t-56.5 134t56.5 133t134.5 55.5t133 -55.5t55 -133t-55 -134t-133 -56.5z" glyph-name="Ldot" horiz-adv-x="1142" unicode="Ŀ"/><glyph d="M414 0h-318v1475h318v-1475zM756 512q-78 0 -134.5 56.5t-56.5 134t56.5 133t134.5 55.5t133 -55.5t55 -133t-55 -134t-133 -56.5z" glyph-name="ldot" horiz-adv-x="968" unicode="ŀ"/><glyph d="M45 438v281l199 80v635h329v-502l359 145v-278l-359 -146v-377h594v-276h-923v520z" glyph-name="Lslash" horiz-adv-x="1230" unicode="Ł"/><glyph d="M268 438v281l264 106v650h318v-521l305 123v-278l-305 -123v-676h-318v547z" glyph-name="lslash" horiz-adv-x="1404" unicode="ł"/><glyph d="M733 1866h299l-203 -279h-223zM987 1434h330v-1434h-348l-527 883v-883h-329v1434h348l526 -885v885z" glyph-name="Nacute" horiz-adv-x="1429" unicode="Ń"/><glyph d="M604 1493h299l-203 -279h-223zM719 1061q174 0 270 -116t96 -294v-651h-317v578q0 215 -166 215q-190 0 -190 -261v-532h-318v1040h318v-135q114 156 307 156z" glyph-name="nacute" horiz-adv-x="1173" unicode="ń"/><glyph d="M987 1434h330v-1434h-348l-527 883v-883h-329v1434h348l526 -885v885zM639 -143h215l-141 -336h-138z" glyph-name="Ncommaaccent" horiz-adv-x="1429" unicode="Ņ"/><glyph d="M719 1061q174 0 270 -116t96 -294v-651h-317v578q0 215 -166 215q-190 0 -190 -261v-532h-318v1040h318v-135q114 156 307 156zM510 -143h215l-141 -336h-138z" glyph-name="ncommaaccent" horiz-adv-x="1173" unicode="ņ"/><glyph d="M330 1907h205l188 -148l186 148h207l-297 -320h-194zM987 1434h330v-1434h-348l-527 883v-883h-329v1434h348l526 -885v885z" glyph-name="Ncaron" horiz-adv-x="1429" unicode="Ň"/><glyph d="M201 1534h205l188 -148l186 148h207l-297 -320h-194zM719 1061q174 0 270 -116t96 -294v-651h-317v578q0 215 -166 215q-190 0 -190 -261v-532h-318v1040h318v-135q114 156 307 156z" glyph-name="ncaron" horiz-adv-x="1173" unicode="ň"/><glyph d="M459 1608v227h688v-227h-688zM803 1454q322 0 526.5 -208t204.5 -529.5t-205 -529t-526 -207.5q-319 0 -525 207.5t-206 529t206 529.5t525 208zM802.5 256q186.5 0 294 131t107.5 329.5t-107.5 330t-294 131.5t-294 -131.5t-107.5 -330t107.5 -329.5t294 -131z" glyph-name="Omacron" horiz-adv-x="1605" unicode="Ō"/><glyph d="M270 1214v228h688v-228h-688zM602 1061q244 0 396.5 -147.5t152.5 -393.5q0 -248 -151.5 -394t-397.5 -146q-244 0 -394.5 147t-150.5 393t151.5 393.5t393.5 147.5zM602 246q111 0 170 77.5t59 196.5t-59 197t-170 78q-106 0 -165.5 -79t-59.5 -196t59.5 -195.5 t165.5 -78.5z" glyph-name="omacron" horiz-adv-x="1208" unicode="ō"/><glyph d="M891 1886h227q0 -133 -86 -216t-229.5 -83t-228.5 83t-85 216h226q0 -92 86 -92q90 0 90 92zM803 1454q322 0 526.5 -208t204.5 -529.5t-205 -529t-526 -207.5q-319 0 -525 207.5t-206 529t206 529.5t525 208zM802.5 256q186.5 0 294 131t107.5 329.5t-107.5 330 t-294 131.5t-294 -131.5t-107.5 -330t107.5 -329.5t294 -131z" glyph-name="Obreve" horiz-adv-x="1605" unicode="Ŏ"/><glyph d="M700 1493h228q0 -133 -86 -216t-229.5 -83t-228.5 83t-85 216h225q0 -92 86 -92q90 0 90 92zM602 1061q244 0 396.5 -147.5t152.5 -393.5q0 -248 -151.5 -394t-397.5 -146q-244 0 -394.5 147t-150.5 393t151.5 393.5t393.5 147.5zM602 246q111 0 170 77.5t59 196.5 t-59 197t-170 78q-106 0 -165.5 -79t-59.5 -196t59.5 -195.5t165.5 -78.5z" glyph-name="obreve" horiz-adv-x="1208" unicode="ŏ"/><glyph d="M580 1886h299l-203 -278h-223zM1012 1886h299l-201 -278h-225zM803 1454q322 0 526.5 -208t204.5 -529.5t-205 -529t-526 -207.5q-319 0 -525 207.5t-206 529t206 529.5t525 208zM802.5 256q186.5 0 294 131t107.5 329.5t-107.5 330t-294 131.5t-294 -131.5t-107.5 -330 t107.5 -329.5t294 -131z" glyph-name="Ohungarumlaut" horiz-adv-x="1605" unicode="Ő"/><glyph d="M391 1493h299l-203 -279h-223zM823 1493h299l-200 -279h-226zM602 1061q244 0 396.5 -147.5t152.5 -393.5q0 -248 -151.5 -394t-397.5 -146q-244 0 -394.5 147t-150.5 393t151.5 393.5t393.5 147.5zM602 246q111 0 170 77.5t59 196.5t-59 197t-170 78q-106 0 -165.5 -79 t-59.5 -196t59.5 -195.5t165.5 -78.5z" glyph-name="ohungarumlaut" horiz-adv-x="1208" unicode="ő"/><glyph d="M82 711q0 317 192.5 530t479 213t452.5 -199v179h957v-277h-627v-297h545v-270h-545v-314h627v-276h-957v178q-59 -82 -189 -140t-280 -58q-281 0 -468 208t-187 523zM410 716.5q0 -192.5 109.5 -326.5t289.5 -134t288.5 134t108.5 326.5t-108.5 327t-288.5 134.5 t-289.5 -134.5t-109.5 -327z" glyph-name="OE" horiz-adv-x="2267" unicode="Œ"/><glyph d="M608 -20q-242 0 -391 149.5t-149 390.5q0 240 149.5 390.5t388.5 150.5q123 0 232.5 -48t175.5 -141q61 90 165.5 139.5t221.5 49.5q229 0 368.5 -156.5t139.5 -390.5q0 -57 -4 -84h-746q14 -90 80 -142t158 -52q139 0 198 106l289 -53q-61 -147 -188 -228t-291 -81 q-121 0 -225.5 48t-165.5 138q-61 -92 -171 -139t-235 -47zM1167 645h432q-14 76 -75.5 122t-137.5 46q-80 0 -141.5 -46t-77.5 -122zM621 795q-113 0 -173.5 -79t-60.5 -196q0 -115 60.5 -194.5t173.5 -79.5q115 0 176 78.5t61 197.5t-61 196t-176 77z" glyph-name="oe" horiz-adv-x="1978" unicode="œ"/><glyph d="M641 1866h299l-203 -279h-223zM690 1434q233 0 375.5 -130t142.5 -346q0 -145 -68.5 -254.5t-191.5 -164.5l295 -539h-366l-230 487h-205v-487h-329v1434h577zM639 766q111 0 172 51t61 144q0 94 -61 145t-172 51h-197v-391h197z" glyph-name="Racute" horiz-adv-x="1280" unicode="Ŕ"/><glyph d="M442 1493h299l-202 -279h-224zM774 1061v-283q-39 8 -86 8q-123 0 -202.5 -70.5t-79.5 -228.5v-487h-318v1040h318v-168q70 111 150.5 150t217.5 39z" glyph-name="racute" horiz-adv-x="802" unicode="ŕ"/><glyph d="M690 1434q233 0 375.5 -130t142.5 -346q0 -145 -68.5 -254.5t-191.5 -164.5l295 -539h-366l-230 487h-205v-487h-329v1434h577zM639 766q111 0 172 51t61 144q0 94 -61 145t-172 51h-197v-391h197zM553 -143h215l-141 -336h-138z" glyph-name="Rcommaaccent" horiz-adv-x="1280" unicode="Ŗ"/><glyph d="M774 1061v-283q-39 8 -86 8q-123 0 -202.5 -70.5t-79.5 -228.5v-487h-318v1040h318v-168q70 111 150.5 150t217.5 39zM176 -143h215l-141 -336h-137z" glyph-name="rcommaaccent" horiz-adv-x="802" unicode="ŗ"/><glyph d="M238 1907h204l189 -148l186 148h207l-297 -320h-195zM690 1434q233 0 375.5 -130t142.5 -346q0 -145 -68.5 -254.5t-191.5 -164.5l295 -539h-366l-230 487h-205v-487h-329v1434h577zM639 766q111 0 172 51t61 144q0 94 -61 145t-172 51h-197v-391h197z" glyph-name="Rcaron" horiz-adv-x="1280" unicode="Ř"/><glyph d="M39 1534h205l188 -148l186 148h207l-297 -320h-194zM774 1061v-283q-39 8 -86 8q-123 0 -202.5 -70.5t-79.5 -228.5v-487h-318v1040h318v-168q70 111 150.5 150t217.5 39z" glyph-name="rcaron" horiz-adv-x="802" unicode="ř"/><glyph d="M618 1886h300l-203 -278h-223zM408 1034q0 -68 61 -101.5t188 -66.5q225 -57 314 -106q182 -106 182 -324q0 -211 -152.5 -333.5t-386.5 -122.5q-213 0 -358 104t-190 285l305 53q16 -70 81.5 -115t174.5 -45q98 0 152.5 39t54.5 107q0 74 -63.5 114.5t-184.5 73.5 q-219 61 -287 94q-211 104 -211 320q0 205 155.5 324.5t354.5 119.5q174 0 323.5 -98.5t194.5 -280.5l-299 -53q-53 152 -223 152q-84 0 -135 -39.5t-51 -100.5z" glyph-name="Sacute" horiz-adv-x="1218" unicode="Ś"/><glyph d="M512 1493h299l-203 -279h-223zM362 748q0 -61 158 -99q14 -4 23 -6q195 -47 289 -124t94 -206q0 -154 -121 -243.5t-313 -89.5q-180 0 -300 80.5t-147 224.5l305 53q20 -125 144 -125q55 0 91 23.5t36 62.5q0 25 -14.5 43t-51.5 31.5t-54.5 18.5t-68.5 18 q-193 47 -281 118.5t-88 190.5q0 147 120 244.5t292 97.5q150 0 268.5 -79t155.5 -206l-301 -55q-18 106 -127 106q-49 0 -79 -22t-30 -57z" glyph-name="sacute" horiz-adv-x="972" unicode="ś"/><glyph d="M420 1585h-205l295 320h195l296 -320h-206l-187 148zM408 1034q0 -68 61 -101.5t188 -66.5q225 -57 314 -106q182 -106 182 -324q0 -211 -152.5 -333.5t-386.5 -122.5q-213 0 -358 104t-190 285l305 53q16 -70 81.5 -115t174.5 -45q98 0 152.5 39t54.5 107 q0 74 -63.5 114.5t-184.5 73.5q-219 61 -287 94q-211 104 -211 320q0 205 155.5 324.5t354.5 119.5q174 0 323.5 -98.5t194.5 -280.5l-299 -53q-53 152 -223 152q-84 0 -135 -39.5t-51 -100.5z" glyph-name="Scircumflex" horiz-adv-x="1218" unicode="Ŝ"/><glyph d="M315 1192h-204l295 319h194l297 -319h-207l-186 147zM362 748q0 -61 158 -99q14 -4 23 -6q195 -47 289 -124t94 -206q0 -154 -121 -243.5t-313 -89.5q-180 0 -300 80.5t-147 224.5l305 53q20 -125 144 -125q55 0 91 23.5t36 62.5q0 25 -14.5 43t-51.5 31.5t-54.5 18.5 t-68.5 18q-193 47 -281 118.5t-88 190.5q0 147 120 244.5t292 97.5q150 0 268.5 -79t155.5 -206l-301 -55q-18 106 -127 106q-49 0 -79 -22t-30 -57z" glyph-name="scircumflex" horiz-adv-x="972" unicode="ŝ"/><glyph d="M408 1034q0 -68 61 -101.5t188 -66.5q225 -57 314 -106q182 -106 182 -324q0 -188 -124 -307t-320 -143l-33 -95q152 -39 151 -182q0 -92 -77.5 -136t-180.5 -44q-74 0 -135 20l25 129q33 -12 80 -12q31 0 58.5 15.5t27.5 48.5q0 74 -148 73l49 183q-178 20 -299 121.5 t-161 261.5l305 53q16 -70 81.5 -115t174.5 -45q98 0 152.5 39t54.5 107q0 74 -63.5 114.5t-184.5 73.5q-219 61 -287 94q-211 104 -211 320q0 205 155.5 324.5t354.5 119.5q174 0 323.5 -98.5t194.5 -280.5l-299 -53q-53 152 -223 152q-84 0 -135 -39.5t-51 -100.5z" glyph-name="Scedilla" horiz-adv-x="1218" unicode="Ş"/><glyph d="M362 748q0 -61 158 -99q14 -4 23 -6q195 -47 289 -124t94 -206q0 -137 -95.5 -224t-257.5 -105l-30 -93q152 -39 151 -182q0 -92 -77.5 -136t-180.5 -44q-74 0 -135 20l25 129q35 -12 80 -12q31 0 58.5 15.5t27.5 48.5q0 74 -148 73l49 183q-141 20 -234 98t-114 201 l305 53q20 -125 144 -125q55 0 91 23.5t36 62.5q0 25 -14.5 43t-51.5 31.5t-54.5 18.5t-68.5 18q-193 47 -281 118.5t-88 190.5q0 147 120 244.5t292 97.5q150 0 268.5 -79t155.5 -206l-301 -55q-18 106 -127 106q-49 0 -79 -22t-30 -57z" glyph-name="scedilla" horiz-adv-x="972" unicode="ş"/><glyph d="M215 1927h205l188 -147l187 147h206l-296 -319h-195zM408 1034q0 -68 61 -101.5t188 -66.5q225 -57 314 -106q182 -106 182 -324q0 -211 -152.5 -333.5t-386.5 -122.5q-213 0 -358 104t-190 285l305 53q16 -70 81.5 -115t174.5 -45q98 0 152.5 39t54.5 107 q0 74 -63.5 114.5t-184.5 73.5q-219 61 -287 94q-211 104 -211 320q0 205 155.5 324.5t354.5 119.5q174 0 323.5 -98.5t194.5 -280.5l-299 -53q-53 152 -223 152q-84 0 -135 -39.5t-51 -100.5z" glyph-name="Scaron" horiz-adv-x="1218" unicode="Š"/><glyph d="M109 1534h204l189 -148l186 148h207l-297 -320h-195zM362 748q0 -61 158 -99q14 -4 23 -6q195 -47 289 -124t94 -206q0 -154 -121 -243.5t-313 -89.5q-180 0 -300 80.5t-147 224.5l305 53q20 -125 144 -125q55 0 91 23.5t36 62.5q0 25 -14.5 43t-51.5 31.5t-54.5 18.5 t-68.5 18q-193 47 -281 118.5t-88 190.5q0 147 120 244.5t292 97.5q150 0 268.5 -79t155.5 -206l-301 -55q-18 106 -127 106q-49 0 -79 -22t-30 -57z" glyph-name="scaron" horiz-adv-x="972" unicode="š"/><glyph d="M49 1434h1165v-277h-417v-1157h-330v1157h-418v277zM567 -143h215l-141 -336h-137z" glyph-name="Tcommaaccent" horiz-adv-x="1263" unicode="Ţ"/><glyph d="M739 776h-225v-358q0 -90 26.5 -123t106.5 -33q39 0 94 19v-289q-61 -12 -149 -12q-190 0 -292.5 79.5t-102.5 268.5v448h-166v264h170v283l311 53v-336h227v-264zM453 -143h215l-142 -336h-137z" glyph-name="tcommaaccent" horiz-adv-x="806" unicode="ţ"/><glyph d="M240 1907h204l189 -148l186 148h207l-297 -320h-194zM49 1434h1165v-277h-417v-1157h-330v1157h-418v277z" glyph-name="Tcaron" horiz-adv-x="1263" unicode="Ť"/><glyph d="M1133 885h-242l72 549h299zM739 776h-225v-358q0 -90 26.5 -123t106.5 -33q39 0 94 19v-289q-61 -12 -149 -12q-190 0 -292.5 79.5t-102.5 268.5v448h-166v264h170v283l311 53v-336h227v-264z" glyph-name="tcaron" horiz-adv-x="1361" unicode="ť"/><glyph d="M49 1434h1165v-277h-417v-405h180v-228h-180v-524h-330v524h-178v228h178v405h-418v277z" glyph-name="Tbar" horiz-adv-x="1263" unicode="Ŧ"/><glyph d="M739 817h-223v-121h223v-227h-223v-51q0 -90 25.5 -123t105.5 -33q39 0 94 19v-289q-61 -12 -147 -12q-193 0 -295 79.5t-102 268.5v141h-164v227h164v121h-164v223h168v283l313 53v-336h225v-223z" glyph-name="tbar" horiz-adv-x="806" unicode="ŧ"/><glyph d="M338 1606q-2 111 47 196.5t162 85.5q76 0 160 -55t114 -55q68 0 68 88h186q2 -111 -54 -197t-173 -86q-61 0 -112.5 27.5t-87.5 55.5t-64 28q-59 0 -60 -88h-186zM958 1434h330v-908q0 -260 -151.5 -403t-436 -143t-436 143t-151.5 403v908h329v-906q0 -119 70 -195.5 t188.5 -76.5t188 77t69.5 195v906z" glyph-name="Utilde" horiz-adv-x="1400" unicode="Ũ"/><glyph d="M201 1212q-2 111 47 197t162 86q76 0 159.5 -55.5t114.5 -55.5q68 0 68 89h186q2 -111 -54.5 -197t-172.5 -86q-61 0 -112.5 27.5t-87.5 55t-65 27.5q-59 0 -59 -88h-186zM455 -20q-174 0 -271.5 115.5t-97.5 293.5v651h320v-577q0 -215 165 -215q188 0 189 260v532h317 v-1040h-317v135q-115 -155 -305 -155z" glyph-name="utilde" horiz-adv-x="1171" unicode="ũ"/><glyph d="M367 1587v228h688v-228h-688zM958 1434h330v-908q0 -260 -151.5 -403t-436 -143t-436 143t-151.5 403v908h329v-906q0 -119 70 -195.5t188.5 -76.5t188 77t69.5 195v906z" glyph-name="Umacron" horiz-adv-x="1400" unicode="Ū"/><glyph d="M229 1194v227h689v-227h-689zM455 -20q-174 0 -271.5 115.5t-97.5 293.5v651h320v-577q0 -215 165 -215q188 0 189 260v532h317v-1040h-317v135q-115 -155 -305 -155z" glyph-name="umacron" horiz-adv-x="1171" unicode="ū"/><glyph d="M797 1866h227q0 -133 -86 -216t-229.5 -83t-228.5 83t-85 216h226q0 -92 86 -92q90 0 90 92zM958 1434h330v-908q0 -260 -151.5 -403t-436 -143t-436 143t-151.5 403v908h329v-906q0 -119 70 -195.5t188.5 -76.5t188 77t69.5 195v906z" glyph-name="Ubreve" horiz-adv-x="1400" unicode="Ŭ"/><glyph d="M659 1473h228q0 -133 -86 -216t-229.5 -83t-228.5 82.5t-85 216.5h225q0 -92 86 -93q90 1 90 93zM455 -20q-174 0 -271.5 115.5t-97.5 293.5v651h320v-577q0 -215 165 -215q188 0 189 260v532h317v-1040h-317v135q-115 -155 -305 -155z" glyph-name="ubreve" horiz-adv-x="1171" unicode="ŭ"/><glyph d="M709 1491q-104 0 -177 65.5t-73 169.5q0 106 72.5 173t177.5 67q102 0 172.5 -67.5t70.5 -172t-70.5 -170t-172.5 -65.5zM704.5 1642q34.5 0 59 24t24.5 60q0 39 -23.5 64t-59.5 25q-35 0 -59.5 -25t-24.5 -64q0 -37 24.5 -60.5t59 -23.5zM958 1434h330v-908 q0 -260 -151.5 -403t-436 -143t-436 143t-151.5 403v908h329v-906q0 -119 70 -195.5t188.5 -76.5t188 77t69.5 195v906z" glyph-name="Uring" horiz-adv-x="1400" unicode="Ů"/><glyph d="M571 1098q-104 0 -176.5 65.5t-72.5 169.5q0 106 72.5 173t176.5 67q102 0 173 -67.5t71 -172t-71 -170t-173 -65.5zM567 1249q35 0 59.5 23.5t24.5 60.5q0 39 -23.5 63.5t-60.5 24.5q-35 0 -59.5 -24.5t-24.5 -63.5q0 -37 24.5 -60.5t59.5 -23.5zM455 -20 q-174 0 -271.5 115.5t-97.5 293.5v651h320v-577q0 -215 165 -215q188 0 189 260v532h317v-1040h-317v135q-115 -155 -305 -155z" glyph-name="uring" horiz-adv-x="1171" unicode="ů"/><glyph d="M487 1866h299l-202 -279h-224zM920 1866h299l-201 -279h-225zM958 1434h330v-908q0 -260 -151.5 -403t-436 -143t-436 143t-151.5 403v908h329v-906q0 -119 70 -195.5t188.5 -76.5t188 77t69.5 195v906z" glyph-name="Uhungarumlaut" horiz-adv-x="1400" unicode="Ű"/><glyph d="M350 1473h299l-203 -279h-223zM782 1473h299l-200 -279h-226zM455 -20q-174 0 -271.5 115.5t-97.5 293.5v651h320v-577q0 -215 165 -215q188 0 189 260v532h317v-1040h-317v135q-115 -155 -305 -155z" glyph-name="uhungarumlaut" horiz-adv-x="1171" unicode="ű"/><glyph d="M958 1434h330v-908q0 -193 -84 -322.5t-246 -185.5q-162 -96 -161 -192q0 -70 75 -76q57 0 82 10l27 -149q-55 -29 -147 -29q-104 0 -171 47t-67 140q0 121 115 211q-279 0 -438.5 136t-159.5 410v908h329v-906q0 -119 70 -195.5t188.5 -76.5t188 77t69.5 195v906z" glyph-name="Uogonek" horiz-adv-x="1400" unicode="Ų"/><glyph d="M455 -20q-174 0 -271.5 115.5t-97.5 293.5v651h320v-577q0 -215 165 -215q188 0 189 260v532h317v-1040h2l-18 -12q-16 -10 -31.5 -21.5t-37 -31t-37 -38t-26.5 -43t-11 -47.5q0 -70 75 -75q55 0 82 10l27 -150q-55 -29 -148 -28q-104 0 -170.5 47t-66.5 139 q0 143 170 250h-127v135q-115 -155 -305 -155z" glyph-name="uogonek" horiz-adv-x="1171" unicode="ų"/><glyph d="M829 1565h-204l295 319h194l297 -319h-207l-186 147zM1657 1434h330l-408 -1434h-301l-262 918l-262 -918h-303l-406 1434h330l237 -914l279 914h248l278 -914z" glyph-name="Wcircumflex" horiz-adv-x="2029" unicode="Ŵ"/><glyph d="M614 1171h-204l295 320h194l297 -320h-207l-186 148zM1266 1040h317l-313 -1040h-297l-172 608l-172 -608h-293l-318 1040h322l152 -622l167 622h283l172 -622z" glyph-name="wcircumflex" horiz-adv-x="1603" unicode="ŵ"/><glyph d="M489 1565h-204l295 319h194l297 -319h-207l-186 147zM948 1434h367l-475 -897v-537h-330v537l-477 897h368l273 -584z" glyph-name="Ycircumflex" horiz-adv-x="1349" unicode="Ŷ"/><glyph d="M367 1171h-205l295 320h194l297 -320h-207l-186 148zM752 1040h338l-574 -1491h-338l217 517l-379 974h340l199 -639z" glyph-name="ycircumflex" horiz-adv-x="1107" unicode="ŷ"/><glyph d="M252 1740.5q0 69.5 50 120t120 50.5t120 -50.5t50 -119.5q0 -72 -50 -122t-120 -50t-120 51t-50 120.5zM756 1740.5q0 69.5 50 120t121.5 50.5t121 -50.5t49.5 -119.5q0 -72 -50.5 -122t-119.5 -50q-72 0 -122 51t-50 120.5zM948 1434h367l-475 -897v-537h-330v537 l-477 897h368l273 -584z" glyph-name="Ydieresis" horiz-adv-x="1349" unicode="Ÿ"/><glyph d="M664 1866h299l-203 -279h-223zM496 276h716v-276h-1124v211l696 946h-675v277h1083v-211z" glyph-name="Zacute" unicode="Ź"/><glyph d="M512 1473h299l-203 -279h-223zM504 283h454v-283h-892v221l462 537h-440v282h850v-221z" glyph-name="zacute" horiz-adv-x="1026" unicode="ź"/><glyph d="M653 1550q-76 0 -131 54.5t-55 132.5t55.5 132t130.5 54q78 0 133.5 -55.5t55.5 -131t-55.5 -131t-133.5 -55.5zM496 276h716v-276h-1124v211l696 946h-675v277h1083v-211z" glyph-name="Zdotaccent" unicode="Ż"/><glyph d="M500 1157q-78 0 -132.5 54.5t-54.5 132t54.5 132t132.5 54.5t133 -55.5t55 -131t-55 -131t-133 -55.5zM504 283h454v-283h-892v221l462 537h-440v282h850v-221z" glyph-name="zdotaccent" horiz-adv-x="1026" unicode="ż"/><glyph d="M260 1907h205l188 -148l187 148h207l-297 -320h-195zM496 276h716v-276h-1124v211l696 946h-675v277h1083v-211z" glyph-name="Zcaron" unicode="Ž"/><glyph d="M109 1513h204l189 -147l186 147h207l-297 -319h-195zM504 283h454v-283h-892v221l462 537h-440v282h850v-221z" glyph-name="zcaron" horiz-adv-x="1026" unicode="ž"/><glyph d="M506 1081v-1081h-318v1120q0 195 86 285t289 90q94 0 168 -12v-275q-45 18 -106 15q-74 -2 -96.5 -32t-22.5 -110z" glyph-name="longs" horiz-adv-x="790" unicode="ſ"/><glyph d="M92 -184q47 -16 107 -17q82 2 106.5 39t24.5 129v809h-170v264h170v58q0 375 395 387q59 4 109 -2q18 -2 51 -6v-277q-57 16 -107 14q-82 -2 -106.5 -37.5t-24.5 -129.5v-7h234v-264h-234v-858q0 -377 -395 -387q-59 -4 -109 2q-27 0 -51 6v277z" glyph-name="florin" horiz-adv-x="976" unicode="ƒ"/><glyph d="M408 1034q0 -68 61 -101.5t188 -66.5q225 -57 314 -106q182 -106 182 -324q0 -211 -152.5 -333.5t-386.5 -122.5q-213 0 -358 104t-190 285l305 53q16 -70 81.5 -115t174.5 -45q98 0 152.5 39t54.5 107q0 74 -63.5 114.5t-184.5 73.5q-219 61 -287 94q-211 104 -211 320 q0 205 155.5 324.5t354.5 119.5q174 0 323.5 -98.5t194.5 -280.5l-299 -53q-53 152 -223 152q-84 0 -135 -39.5t-51 -100.5zM485 -143h215l-141 -336h-137z" glyph-name="Scommaaccent" horiz-adv-x="1218" unicode="Ș"/><glyph d="M362 748q0 -61 158 -99q14 -4 23 -6q195 -47 289 -124t94 -206q0 -154 -121 -243.5t-313 -89.5q-180 0 -300 80.5t-147 224.5l305 53q20 -125 144 -125q55 0 91 23.5t36 62.5q0 25 -14.5 43t-51.5 31.5t-54.5 18.5t-68.5 18q-193 47 -281 118.5t-88 190.5 q0 147 120 244.5t292 97.5q150 0 268.5 -79t155.5 -206l-301 -55q-18 106 -127 106q-49 0 -79 -22t-30 -57zM350 -143h215l-141 -336h-137z" glyph-name="scommaaccent" horiz-adv-x="972" unicode="ș"/><glyph d="M49 1434h1165v-277h-417v-1157h-330v1157h-418v277zM567 -143h215l-141 -336h-137z" glyph-name="uni021A" horiz-adv-x="1263" unicode="Ț"/><glyph d="M739 776h-225v-358q0 -90 26.5 -123t106.5 -33q39 0 94 19v-289q-61 -12 -149 -12q-190 0 -292.5 79.5t-102.5 268.5v448h-166v264h170v283l311 53v-336h227v-264zM453 -143h215l-142 -336h-137z" glyph-name="uni021B" horiz-adv-x="806" unicode="ț"/><glyph d="M-72 -190q31 -6 65 -2t62.5 15t47 49t18.5 101v1067h317v-1081q0 -238 -79.5 -334t-315.5 -96l-115 6v275z" glyph-name="uni0237" horiz-adv-x="536" unicode="ȷ"/><glyph d="M342 1167h-205l295 320h195l297 -320h-207l-187 148z" glyph-name="circumflex" horiz-adv-x="1060" unicode="ˆ"/><glyph d="M137 1491h205l188 -148l187 148h207l-297 -320h-195z" glyph-name="caron" horiz-adv-x="1060" unicode="ˇ"/><glyph d="M539 1466h227q0 -133 -86 -216t-229.5 -83t-228.5 83t-85 216h225q0 -92 87 -92q90 0 90 92z" glyph-name="breve" horiz-adv-x="901" unicode="˘"/><glyph d="M323.5 1159q-77.5 0 -132 55.5t-54.5 131t54.5 131t132 55.5t133 -55.5t55.5 -131t-55.5 -131t-133 -55.5z" glyph-name="dotaccent" horiz-adv-x="647" unicode="˙"/><glyph d="M403 1151q-104 0 -176.5 65.5t-72.5 169.5q0 106 72.5 173t176.5 67q102 0 173 -67.5t71 -172t-71 -170t-173 -65.5zM399.5 1303q34.5 0 59 23.5t24.5 59.5q0 39 -23.5 64t-60.5 25q-35 0 -59.5 -25t-24.5 -64q0 -37 25 -60t59.5 -23z" glyph-name="ring" horiz-adv-x="800" unicode="˚"/><glyph d="M375 -436q-104 0 -171 47t-67 139q0 182 260 297l103 -47l-17 -12q-18 -10 -33.5 -21.5t-37 -31t-37 -38t-26.5 -43t-11 -47.5q0 -70 76 -75q57 0 82 10l26 -150q-55 -28 -147 -28z" glyph-name="ogonek" horiz-adv-x="657" unicode="˛"/><glyph d="M139 1044q-2 111 47.5 197t161.5 86q76 0 160 -55t115 -55q68 0 67 88h187q2 -111 -54.5 -197t-173.5 -86q-61 0 -112.5 27.5t-87 55.5t-64.5 28q-59 0 -59 -89h-187z" glyph-name="tilde" horiz-adv-x="1015" unicode="˜"/><glyph d="M264 1434h299l-203 -279h-223zM696 1434h299l-200 -279h-226z" glyph-name="hungarumlaut" horiz-adv-x="1132" unicode="˝"/><glyph d="M268 -143h215l-141 -336h-137z" glyph-name="uni0326" horiz-adv-x="747" unicode="̦"/><glyph d="M37 0l473 1434h238l473 -1434h-1184zM348 227h563l-282 897z" glyph-name="Delta" horiz-adv-x="1257" unicode="Δ"/><glyph d="M633 0h-537v233h277q-113 57 -205 211t-92 322q0 289 195.5 488.5t504.5 199.5t505 -199.5t196 -488.5q0 -168 -92.5 -321.5t-204.5 -211.5h297v-233h-557v233q311 117 311 496q0 209 -124 350.5t-331 141.5t-330.5 -141.5t-123.5 -350.5q0 -365 311 -496v-233z" glyph-name="Omega" horiz-adv-x="1552" unicode="Ω"/><glyph d="M1087 1040v-1040h-319v135q-115 -156 -305 -155q-25 0 -53 14v-445h-316v1491h318v-577q0 -215 168 -215q188 0 188 260v532h319z" glyph-name="mu" horiz-adv-x="1181" unicode="μ"/><glyph d="M66 780v260h1269v-260h-161v-780h-293v780h-359v-780h-295v780h-161z" glyph-name="pi" horiz-adv-x="1409" unicode="π"/><glyph d="M993 1866l125 -279h-207l-200 279h282zM1657 1434h330l-408 -1434h-301l-262 918l-262 -918h-303l-406 1434h330l237 -914l279 914h248l278 -914z" glyph-name="Wgrave" horiz-adv-x="2029" unicode="Ẁ"/><glyph d="M778 1473l125 -279h-207l-200 279h282zM1266 1040h317l-313 -1040h-297l-172 608l-172 -608h-293l-318 1040h322l152 -622l167 622h283l172 -622z" glyph-name="wgrave" horiz-adv-x="1603" unicode="ẁ"/><glyph d="M1026 1866h299l-203 -279h-223zM1657 1434h330l-408 -1434h-301l-262 918l-262 -918h-303l-406 1434h330l237 -914l279 914h248l278 -914z" glyph-name="Wacute" horiz-adv-x="2029" unicode="Ẃ"/><glyph d="M813 1473h299l-203 -279h-223zM1266 1040h317l-313 -1040h-297l-172 608l-172 -608h-293l-318 1040h322l152 -622l167 622h283l172 -622z" glyph-name="wacute" horiz-adv-x="1603" unicode="ẃ"/><glyph d="M592 1740.5q0 69.5 50 120t119.5 50.5t120 -50.5t50.5 -119.5q0 -72 -50.5 -122t-120 -50t-119.5 51t-50 120.5zM1096 1740.5q0 69.5 50 120t121.5 50.5t121 -50.5t49.5 -119.5q0 -72 -50.5 -122t-119.5 -50q-72 0 -122 51t-50 120.5zM1657 1434h330l-408 -1434h-301 l-262 918l-262 -918h-303l-406 1434h330l237 -914l279 914h248l278 -914z" glyph-name="Wdieresis" horiz-adv-x="2029" unicode="Ẅ"/><glyph d="M379 1347.5q0 69.5 50 120t119.5 50.5t120 -50.5t50.5 -119.5q0 -72 -50.5 -122t-120 -50t-119.5 51t-50 120.5zM883 1347.5q0 69.5 50 120t121.5 50.5t121 -50.5t49.5 -119.5q0 -72 -50.5 -122t-119.5 -50q-72 0 -122 51t-50 120.5zM1266 1040h317l-313 -1040h-297 l-172 608l-172 -608h-293l-318 1040h322l152 -622l167 622h283l172 -622z" glyph-name="wdieresis" horiz-adv-x="1603" unicode="ẅ"/><glyph d="M1047 459h-1041v262h1041v-262z" glyph-name="endash" horiz-adv-x="1052" unicode="–"/><glyph d="M2054 459h-2048v260h2048v-260z" glyph-name="emdash" horiz-adv-x="2060" unicode="—"/><glyph d="M240 1434h241l-71 -549h-299z" glyph-name="quoteleft" horiz-adv-x="591" unicode="‘"/><glyph d="M352 885h-241l71 549h299z" glyph-name="quoteright" horiz-adv-x="591" unicode="’"/><glyph d="M352 -328h-241l71 549h299z" glyph-name="quotesinglbase" horiz-adv-x="591" unicode="‚"/><glyph d="M674 1434h239l-57 -549h-295zM274 1434h240l-104 -549h-299z" glyph-name="quotedblleft" horiz-adv-x="1024" unicode="“"/><glyph d="M350 885h-239l57 549h295zM750 885h-240l104 549h299z" glyph-name="quotedblright" horiz-adv-x="1024" unicode="”"/><glyph d="M352 -332h-241l59 549h295zM752 -332h-242l104 549h299z" glyph-name="quotedblbase" horiz-adv-x="1024" unicode="„"/><glyph d="M137 762v278h287v394h330v-394h286v-278h-286v-762h-330v762h-287z" glyph-name="dagger" horiz-adv-x="1175" unicode="†"/><glyph d="M137 778v262h359v394h313v-394h358v-262h-358v-516h358v-262h-358v-393h-313v393h-359v262h359v516h-359z" glyph-name="daggerdbl" horiz-adv-x="1302" unicode="‡"/><glyph d="M387 455q-109 0 -187.5 77.5t-78.5 184.5q0 109 79 185.5t187 76.5q111 0 189.5 -77t78.5 -185.5t-78.5 -185t-189.5 -76.5z" glyph-name="bullet" horiz-adv-x="776" unicode="•"/><glyph d="M330 -14q-78 0 -133.5 55t-55.5 133t55.5 134.5t133.5 56.5t133 -56.5t55 -134.5t-55 -133t-133 -55zM870.5 -14q-77.5 0 -133 55t-55.5 133t55.5 134.5t133 56.5t133 -56.5t55.5 -134.5t-55.5 -133t-133 -55zM1413 -14q-78 0 -133 55t-55 133t55 134.5t133 56.5 t133.5 -56.5t55.5 -134.5t-55.5 -133t-133.5 -55z" glyph-name="ellipsis" horiz-adv-x="1716" unicode="…"/><glyph d="M405.5 692q-165.5 0 -261 105.5t-95.5 275.5t95.5 275.5t261 105.5t261 -105.5t95.5 -275.5t-95.5 -275.5t-261 -105.5zM487 0h-278l1024 1434h278zM406 1225q-57 0 -86 -45t-29 -106.5t28.5 -106.5t86.5 -45q55 0 84.5 46t29.5 105.5t-29.5 105.5t-84.5 46zM1298 -20 q-160 0 -248.5 108.5t-88.5 271.5q0 162 87 271.5t244 109.5q76 0 148.5 -31.5t109.5 -86.5q39 55 112 86.5t146 31.5q158 0 246 -109.5t88 -271.5q0 -164 -89 -272t-249 -108q-166 0 -254 118q-84 -118 -252 -118zM1202 360.5q0 -61.5 29 -106.5t86 -45q55 0 84 45 t29 106.5t-29 106.5t-84 45q-57 0 -86 -45t-29 -106.5zM1671 360.5q0 -61.5 29 -106.5t86 -45t86 45t29 106.5t-29 106.5t-86 45t-86 -45t-29 -106.5z" glyph-name="perthousand" horiz-adv-x="2185" unicode="‰"/><glyph d="M438 1004h301l-301 -453l301 -453h-301l-334 453z" glyph-name="guilsinglleft" horiz-adv-x="843" unicode="‹"/><glyph d="M104 1004h304l331 -453l-331 -453h-304l302 453z" glyph-name="guilsinglright" horiz-adv-x="843" unicode="›"/><glyph d="M-492 0l1065 1466l193 -32l-1065 -1467z" glyph-name="fraction" horiz-adv-x="276" unicode="⁄"/><glyph d="M264 457h-155v194h131v66v57h-131v195h153q43 215 170 350t354 135q354 0 482 -340l-314 -59q-53 123 -168 123q-147 0 -196 -209h338v-195h-359q-2 -20 -2 -57q0 -43 2 -66h359v-194h-336q49 -201 194 -201q113 0 166 121l318 -55q-131 -342 -484 -342q-225 0 -351 132 t-171 345z" glyph-name="Euro" horiz-adv-x="1370" unicode="€"/><glyph d="M750 1434v-158h-234v-694h-190v694h-232v158h656zM1540 1434h248v-852h-191v592l-229 -592h-61l-228 592v-592h-190v852h246l202 -551z" glyph-name="trademark" horiz-adv-x="1925" unicode="™"/><glyph d="M561 1024q115 0 198 -45t120 -100q-16 172 -125 265t-250 93q-147 0 -238 -61l-39 215q117 63 289 63q72 0 139.5 -12t156.5 -62.5t154.5 -131.5t111.5 -235.5t46 -361.5v-73q0 -276 -143 -437t-371 -161q-223 0 -372.5 148t-149.5 380q0 221 134 368.5t339 147.5z M610 197q115 0 194 86t79 217q0 135 -82 221t-199 86t-194.5 -85t-77.5 -214q0 -131 80.5 -221t199.5 -90z" glyph-name="partialdiff" horiz-adv-x="1206" unicode="∂"/><glyph d="M72 -328v1762h1081v-1762h-262v1528h-557v-1528h-262z" glyph-name="product" horiz-adv-x="1224" unicode="∏"/><glyph d="M104 1434h1057v-234h-758l437 -635l-437 -659h758v-234h-1057v234l469 659l-469 635v234z" glyph-name="summation" horiz-adv-x="1261" unicode="∑"/><glyph d="M1020 459h-887v262h887v-262z" glyph-name="minus" horiz-adv-x="1153" unicode="−"/><glyph d="M35 725v213h348l258 -639l340 1176l225 -41l-436 -1434h-238l-292 725h-205z" glyph-name="radical" horiz-adv-x="1234" unicode="√"/><glyph d="M68 520.5q0 184.5 121.5 288.5t267.5 104q244 0 430 -254q186 254 430 254q145 0 267 -104t122 -288.5t-122 -289t-267 -104.5q-244 0 -430 254q-186 -254 -430 -254q-145 0 -267 104.5t-122 289zM1292 719q-72 0 -131 -45t-147 -154q88 -109 147.5 -153.5t130.5 -44.5 q76 0 129.5 61t53.5 137t-53.5 137.5t-129.5 61.5zM297 520q0 -76 53 -137t129 -61q72 0 130.5 45t150.5 153q-92 109 -150.5 154t-130.5 45q-76 0 -129 -61.5t-53 -137.5z" glyph-name="infinity" horiz-adv-x="1775" unicode="∞"/><glyph d="M41 -184q49 -16 109 -17q82 2 106.5 39t24.5 131v1129q0 428 503 387l52 -8v-277q-49 16 -109 17q-80 -2 -104.5 -39t-24.5 -129v-1131q0 -227 -137 -316t-367 -69l-53 6v277z" glyph-name="integral" horiz-adv-x="897" unicode="∫"/><glyph d="M172 643q-4 180 92 306t260 126q82 0 160 -35.5t125 -78.5t102.5 -79t98.5 -36q59 0 88.5 54t27.5 134h263q4 -190 -91.5 -311t-263.5 -121q-86 0 -163.5 36t-125 79t-101.5 78.5t-99 35.5q-55 0 -85 -50t-28 -138h-260zM172 109q-4 180 92 305t260 125q82 0 160 -36 t125 -78t102.5 -78t98.5 -36q59 0 88.5 54.5t27.5 132.5h263q4 -188 -91.5 -309t-263.5 -121q-86 0 -163.5 35.5t-125 77.5t-101.5 78t-99 36q-117 0 -113 -186h-260z" glyph-name="approxequal" horiz-adv-x="1560" unicode="≈"/><glyph d="M1159 688h-311l-98 -231h409v-279h-522l-90 -215l-264 47l69 168h-188v279h303l98 231h-401v279h514l100 231l264 -47l-79 -184h196v-279z" glyph-name="notequal" horiz-adv-x="1323" unicode="≠"/><glyph d="M1044 1143v-248l-544 -147l544 -150v-248l-884 301v193zM1051 31h-887v229h887v-229z" glyph-name="lessequal" horiz-adv-x="1210" unicode="≤"/><glyph d="M162 895v248l885 -299v-193l-885 -301v248l545 150zM1044 31h-884v229h884v-229z" glyph-name="greaterequal" horiz-adv-x="1206" unicode="≥"/><glyph d="M72 729l436 705h115l436 -705l-436 -729h-115zM821 729l-256 457l-256 -457l256 -479z" glyph-name="lozenge" horiz-adv-x="1130" unicode="◊"/><glyph d="M903 1434h367l-727 -1434h-359l297 535l-463 899h369l258 -584z" glyph-name="Y.aalt"/><glyph d="M862 1040h318v-1040h-318v121q-51 -72 -140 -106.5t-185 -34.5q-219 0 -344 160.5t-125 383.5q0 225 128 381t349 156q205 0 317 -137v116zM868 520.5q0 114.5 -63.5 193.5t-175.5 79q-111 0 -176.5 -79t-65.5 -193.5t64.5 -194.5t177 -80t176 80t63.5 194.5z" glyph-name="a.aalt"/><glyph d="M37 0l223 1434h344l322 -955l321 955h344l224 -1434h-320l-127 1014l-356 -1014h-172l-359 1014l-125 -1014h-319z" glyph-name="M.aalt" horiz-adv-x="1851"/><glyph d="M1704 0h-451l-325 600l-324 -600h-450v1434h329v-1018l379 624h131l381 -624v1018h330v-1434z" glyph-name="W.aalt" horiz-adv-x="1857"/><glyph d="M20 1040h340l213 -643l213 643h338l-399 -1015q-104 -264 -238.5 -380t-308.5 -116q-66 0 -151 20l-2 277q59 -23 120 -23q57 0 102.5 23.5t77 72t50 88.5t41.5 101z" glyph-name="y.aalt" horiz-adv-x="1142"/><glyph d="M1059 1204v-321l-563 -207l563 -209v-320l-887 400v258z" glyph-name="less.aalt" horiz-adv-x="1230"/><glyph d="M172 883v321l887 -399v-258l-887 -400v320l563 209z" glyph-name="greater.aalt" horiz-adv-x="1230"/><glyph d="M1163 791h-1013v278h1013v-278zM1163 281h-1013v278h1013v-278z" glyph-name="equal.aalt" horiz-adv-x="1312"/><glyph d="M954 561h-821v262h821v-262z" glyph-name="hyphen.aalt" horiz-adv-x="1085"/><glyph d="M793 1583h-287v-1681h287v-279h-617v2237h617v-277z" glyph-name="bracketleft.aalt" horiz-adv-x="829"/><glyph d="M307 1688l500 -1835l-293 -52l-500 1835z" glyph-name="backslash.aalt" horiz-adv-x="821"/><glyph d="M324 1583h-287v277h616v-2237h-616v279h287v1681z" glyph-name="bracketright.aalt" horiz-adv-x="829"/><glyph d="M600 1102q0 -119 -43 -210t-115 -138q158 -117 158 -353v-301q0 -119 53.5 -157.5t180.5 -38.5l45 2v-262q-133 -18 -220 -19q-190 0 -289.5 93.5t-99.5 308.5v374q0 256 -233 256v193q119 0 176 62.5t57 193.5v360q0 211 99.5 302.5t289.5 91.5q39 0 93.5 -4.5 t91.5 -8.5l35 -6v-260q-27 2 -45 2q-127 0 -180.5 -38t-53.5 -154v-289z" glyph-name="braceleft.aalt" horiz-adv-x="913"/><glyph d="M313 1102v289q0 117 -53 154.5t-180 37.5l-45 -2v260q133 18 219 19q190 0 289.5 -91.5t99.5 -302.5v-360q0 -131 57.5 -193.5t176.5 -62.5v-193q-233 0 -234 -256v-374q0 -215 -99.5 -308.5t-289.5 -93.5q-39 0 -93.5 5t-90.5 10l-35 4v262q27 -2 45 -2q127 0 180 39 t53 157v301q0 236 158 353q-72 47 -115 138t-43 210z" glyph-name="braceright.aalt" horiz-adv-x="913"/><glyph d="M549 -328h-330v2089h330v-2089z" glyph-name="bar.aalt" horiz-adv-x="765"/><glyph d="M375 246l-197 198l246 246l-246 248l197 197l246 -248l245 248l197 -197l-246 -248l246 -246l-197 -198l-245 248z" glyph-name="multiply.aalt" horiz-adv-x="1241"/><glyph d="M1020 561h-887v262h887v-262z" glyph-name="minus.aalt" horiz-adv-x="1153"/><glyph d="M608.5 934q-63.5 0 -109.5 45t-46 110.5t46 111.5t109.5 46t109.5 -46t46 -111.5t-46 -110.5t-109.5 -45zM1085 561h-952v262h952v-262zM608.5 135q-63.5 0 -109.5 45t-46 110.5t46 110.5t109.5 45t109.5 -45t46 -110.5t-46 -110.5t-109.5 -45z" glyph-name="divide.aalt" horiz-adv-x="1218"/><glyph d="M772 1729q-106 -158 -180 -434.5t-74 -579.5q0 -305 74 -591t180 -452h-317q-121 158 -195 447t-74 596q0 305 74 585.5t195 428.5h317z" glyph-name="parenleft.aalt" horiz-adv-x="804"/><glyph d="M-78 1729h318q121 -147 194.5 -428t73.5 -586q0 -307 -74 -596t-194 -447h-318q106 166 180 452t74 591q0 303 -74 579.5t-180 434.5z" glyph-name="parenright.aalt" horiz-adv-x="804"/><glyph d="M23 -164l499 1835l293 -51l-500 -1835z" glyph-name="slash.aalt" horiz-adv-x="837"/><glyph d="M678 1454q281 0 446.5 -207t165.5 -530.5t-166 -530t-446 -206.5q-283 0 -449 206.5t-166 530t166 530.5t449 207zM678 256q141 0 212 126t71 335t-71 335t-212 126t-213 -126t-72 -335t72 -335t213 -126z" glyph-name="zero.aalt" horiz-adv-x="1353"/><glyph d="M227 1157v277h559v-1434h-321v1157h-238z" glyph-name="one.tnum" horiz-adv-x="1255"/><glyph d="M106 1012q16 195 160 318.5t361 123.5q215 0 365.5 -121t150.5 -311q0 -135 -75 -241.5t-208 -217.5l-344 -293h631v-270h-1049v272l570 478q86 70 120.5 124t34.5 115q0 88 -57 141.5t-143 53.5q-84 0 -143.5 -53.5t-71.5 -172.5z" glyph-name="two.tnum" horiz-adv-x="1255"/><glyph d="M82 403l303 54q0 -100 68.5 -156.5t169.5 -56.5q96 0 157.5 54t61.5 138q0 86 -63.5 140.5t-157.5 54.5h-148v254h150q76 0 128 43t52 110q0 66 -51.5 109t-126.5 43q-80 0 -130.5 -47t-58.5 -131l-301 53q18 174 151.5 281.5t336.5 107.5q209 0 350 -109.5t141 -281.5 q0 -106 -55 -186t-139 -115q119 -49 182 -142.5t63 -209.5q0 -193 -155.5 -311.5t-395.5 -118.5q-227 0 -369.5 112t-162.5 311z" glyph-name="three.tnum" horiz-adv-x="1255"/><glyph d="M713 1434h325v-893h168v-277h-168v-264h-325v264h-662v277zM713 1006l-303 -465h303v465z" glyph-name="four.aalt" horiz-adv-x="1255"/><glyph d="M217 1434h866v-271h-616l-25 -282q90 66 254 65q211 0 351.5 -134t140.5 -339q0 -217 -158 -355t-387 -138q-188 0 -331.5 96t-196.5 262l321 57q16 -63 76.5 -104t136.5 -41q94 0 155.5 63.5t61.5 149.5q0 88 -61.5 151.5t-157.5 63.5q-137 0 -198 -105l-291 58z" glyph-name="five.aalt" horiz-adv-x="1255"/><glyph d="M674 950q115 0 225.5 -53t188 -167t77.5 -261q0 -217 -153.5 -353t-380.5 -136q-231 0 -388 144t-157 370q0 211 174 471q256 373 350 499l314 -55l-353 -475q33 16 103 16zM629 254q92 0 157.5 62.5t65.5 156.5t-65.5 156.5t-161.5 62.5q-92 0 -159 -61.5t-67 -155.5 t68 -157.5t162 -63.5z" glyph-name="six.aalt" horiz-adv-x="1255"/><glyph d="M125 1434h989v-260l-506 -1197l-311 56l483 1124h-655v277z" glyph-name="seven.aalt" horiz-adv-x="1255"/><glyph d="M926 762q123 -51 186.5 -143.5t63.5 -208.5q0 -190 -155 -310t-394.5 -120t-393 119.5t-153.5 308.5q0 119 65.5 211t188.5 143q-80 37 -134.5 116.5t-54.5 184.5q0 170 138.5 280.5t345.5 110.5t345 -110.5t138 -282.5q0 -104 -53 -183t-133 -116zM455 1036.5 q0 -65.5 49 -108.5t125 -43t124 43t48 108q0 68 -48 111t-124 43t-125 -44t-49 -109.5zM627 244q96 0 161.5 56t65.5 140q0 82 -64.5 136.5t-163 54.5t-161 -53.5t-62.5 -137.5t63 -140t161 -56z" glyph-name="eight.aalt" horiz-adv-x="1255"/><glyph d="M582 492q-115 0 -225.5 53t-188.5 166.5t-78 261.5q0 217 153.5 353t381.5 136q231 0 387.5 -144t156.5 -370q0 -211 -174 -471q-256 -373 -350 -500l-313 56l352 475q-32 -16 -102 -16zM627 1188q-92 0 -158 -62.5t-66 -157t66 -156.5t162 -62q92 0 158.5 61t66.5 155.5 t-67.5 158t-161.5 63.5z" glyph-name="nine.aalt" horiz-adv-x="1255"/><glyph d="M1087 975v-262h-315v-201h-297v201h-315v262h315v221h297v-221h315zM1087 168h-927v262h927v-262z" glyph-name="plusminus.aalt" horiz-adv-x="1247"/><glyph d="M1028 561h-1040v262h1040v-262z" glyph-name="endash.aalt" horiz-adv-x="1015"/><glyph d="M2036 561h-2048v260h2048v-260z" glyph-name="emdash.aalt" horiz-adv-x="2023"/><glyph d="M68 622.5q0 184.5 121.5 289t267.5 104.5q244 0 430 -254q186 254 430 254q145 0 267 -104.5t122 -289t-122 -289t-267 -104.5q-244 0 -430 254q-186 -254 -430 -254q-145 0 -267 104.5t-122 289zM1292 821q-72 0 -131 -45t-147 -153q88 -109 147.5 -154t130.5 -45 q76 0 129.5 61.5t53.5 137t-53.5 137t-129.5 61.5zM297 622.5q0 -75.5 53 -137t129 -61.5q72 0 130.5 45t150.5 154q-92 109 -150.5 153.5t-130.5 44.5q-76 0 -129 -61.5t-53 -137z" glyph-name="infinity.aalt" horiz-adv-x="1775"/><glyph d="M172 745q-4 180 92 306.5t260 126.5q82 0 160 -36t125 -79t102.5 -79t98.5 -36q59 0 88.5 54.5t27.5 134.5h263q4 -190 -91.5 -311t-263.5 -121q-86 0 -163.5 35.5t-125 78.5t-101.5 79t-99 36q-55 0 -85 -50t-28 -139h-260zM172 211q-4 180 92 305t260 125q82 0 160 -36 t125 -78t102.5 -77.5t98.5 -35.5q59 0 88.5 54t27.5 132h263q4 -188 -91.5 -309t-263.5 -121q-86 0 -163.5 36t-125 78t-101.5 77.5t-99 35.5q-117 0 -113 -186h-260z" glyph-name="approxequal.aalt" horiz-adv-x="1560"/><glyph d="M1159 791h-311l-98 -232h409v-278h-522l-90 -215l-264 47l69 168h-188v278h303l98 232h-401v278h514l100 231l264 -47l-79 -184h196v-278z" glyph-name="notequal.aalt" horiz-adv-x="1323"/><glyph d="M1044 1245v-248l-544 -147l544 -150v-247l-884 301v192zM1051 133h-887v229h887v-229z" glyph-name="lessequal.aalt" horiz-adv-x="1210"/><glyph d="M162 997v248l885 -299v-192l-885 -301v247l545 150zM1044 133h-884v229h884v-229z" glyph-name="greaterequal.aalt" horiz-adv-x="1206"/><glyph d="M438 1122h301l-301 -452l301 -453h-301l-334 453z" glyph-name="guilsinglleft.aalt" horiz-adv-x="843"/><glyph d="M104 1122h304l331 -452l-331 -453h-304l302 453z" glyph-name="guilsinglright.aalt" horiz-adv-x="843"/><glyph d="M104 670l326 454h299l-289 -454l289 -455h-299zM664 670l327 454h299l-291 -454l291 -455h-299z" glyph-name="guillemotleft.aalt" horiz-adv-x="1394"/><glyph d="M965 1124l325 -454l-325 -455h-299l288 455l-288 454h299zM403 1124l328 -454l-328 -455h-299l291 455l-291 454h299z" glyph-name="guillemotright.aalt" horiz-adv-x="1394"/><glyph d="M602 1493l125 -279h-207l-201 279h283zM862 1040h318v-1040h-318v121q-51 -72 -140 -106.5t-185 -34.5q-219 0 -344 160.5t-125 383.5q0 225 128 381t349 156q205 0 317 -137v116zM868 520.5q0 114.5 -63.5 193.5t-175.5 79q-111 0 -176.5 -79t-65.5 -193.5t64.5 -194.5 t177 -80t176 80t63.5 194.5z" glyph-name="agrave.aalt"/><glyph d="M635 1493h299l-203 -279h-223zM862 1040h318v-1040h-318v121q-51 -72 -140 -106.5t-185 -34.5q-219 0 -344 160.5t-125 383.5q0 225 128 381t349 156q205 0 317 -137v116zM868 520.5q0 114.5 -63.5 193.5t-175.5 79q-111 0 -176.5 -79t-65.5 -193.5t64.5 -194.5t177 -80 t176 80t63.5 194.5z" glyph-name="aacute.aalt"/><glyph d="M438 1192h-205l295 319h195l297 -319h-207l-186 147zM862 1040h318v-1040h-318v121q-51 -72 -140 -106.5t-185 -34.5q-219 0 -344 160.5t-125 383.5q0 225 128 381t349 156q205 0 317 -137v116zM868 520.5q0 114.5 -63.5 193.5t-175.5 79q-111 0 -176.5 -79t-65.5 -193.5 t64.5 -194.5t177 -80t176 80t63.5 194.5z" glyph-name="acircumflex.aalt"/><glyph d="M201 1368q0 70 50 120t120 50q72 0 121 -50t49 -120q0 -72 -50.5 -122t-120 -50t-119.5 51t-50 121zM705 1368q0 70 50 120t122 50q70 0 120 -50t50 -120q0 -72 -50.5 -122t-120 -50t-120.5 51t-51 121zM862 1040h318v-1040h-318v121q-51 -72 -140 -106.5t-185 -34.5 q-219 0 -344 160.5t-125 383.5q0 225 128 381t349 156q205 0 317 -137v116zM868 520.5q0 114.5 -63.5 193.5t-175.5 79q-111 0 -176.5 -79t-65.5 -193.5t64.5 -194.5t177 -80t176 80t63.5 194.5z" glyph-name="adieresis.aalt"/><glyph d="M623 1118q-104 0 -177 65.5t-73 170.5q0 106 72.5 172.5t177.5 66.5q102 0 172.5 -67.5t70.5 -172t-70.5 -170t-172.5 -65.5zM618.5 1270q34.5 0 59 23.5t24.5 60.5q0 39 -23.5 63.5t-60.5 24.5q-35 0 -59 -24.5t-24 -63.5q0 -37 24.5 -60.5t59 -23.5zM862 1040h318 v-1040h-318v121q-51 -72 -140 -106.5t-185 -34.5q-219 0 -344 160.5t-125 383.5q0 225 128 381t349 156q205 0 317 -137v116zM868 520.5q0 114.5 -63.5 193.5t-175.5 79q-111 0 -176.5 -79t-65.5 -193.5t64.5 -194.5t177 -80t176 80t63.5 194.5z" glyph-name="aring.aalt"/><glyph d="M281 1214v228h688v-228h-688zM862 1040h318v-1040h-318v121q-51 -72 -140 -106.5t-185 -34.5q-219 0 -344 160.5t-125 383.5q0 225 128 381t349 156q205 0 317 -137v116zM868 520.5q0 114.5 -63.5 193.5t-175.5 79q-111 0 -176.5 -79t-65.5 -193.5t64.5 -194.5t177 -80 t176 80t63.5 194.5z" glyph-name="amacron.aalt"/><glyph d="M711 1493h227q0 -133 -86 -216t-229.5 -83t-228.5 83t-85 216h226q0 -92 86 -92q90 0 90 92zM862 1040h318v-1040h-318v121q-51 -72 -140 -106.5t-185 -34.5q-219 0 -344 160.5t-125 383.5q0 225 128 381t349 156q205 0 317 -137v116zM868 520.5q0 114.5 -63.5 193.5 t-175.5 79q-111 0 -176.5 -79t-65.5 -193.5t64.5 -194.5t177 -80t176 80t63.5 194.5z" glyph-name="abreve.aalt"/><glyph d="M862 1040h318v-1040l-17 -12q-18 -10 -33.5 -21.5t-37 -31t-37 -38t-26.5 -43t-11 -47.5q0 -70 76 -75q57 0 82 10l26 -150q-55 -29 -147 -28q-104 0 -171 47t-67 139q0 143 170 250h-125v121q-51 -72 -140 -106.5t-185 -34.5q-219 0 -344 160.5t-125 383.5 q0 225 128 381t349 156q205 0 317 -137v116zM868 520.5q0 114.5 -63.5 193.5t-175.5 79q-111 0 -176.5 -79t-65.5 -193.5t64.5 -194.5t177 -80t176 80t63.5 194.5z" glyph-name="aogonek.aalt"/><glyph d="M1092 823v-262h-332v-356h-295v356h-334v262h334v355h295v-355h332z" glyph-name="plus.aalt" horiz-adv-x="1226"/><glyph d="M610 1452q78 0 134.5 -55.5t56.5 -133t-56.5 -133t-134.5 -55.5t-133 55.5t-55 133t55 133t133 55.5zM565 -18q-199 0 -340 103t-141 288q0 98 36 171.5t88 117t105.5 77t92 70.5t43.5 78q0 6 4 37.5t4 33.5h305q0 -6 1 -34.5t1 -32.5q4 -82 -30 -143.5t-86 -98.5 t-104 -69.5t-90 -78.5t-38 -106q0 -72 45 -112.5t106 -40.5q59 0 105.5 37.5t58.5 101.5l311 -53q-27 -164 -163 -255t-314 -91z" glyph-name="questiondown.aalt" horiz-adv-x="919"/><glyph d="M360 1075q-78 0 -134 56.5t-56 134.5q0 76 56.5 132t133.5 56q76 0 132.5 -56.5t56.5 -131.5q0 -78 -56.5 -134.5t-132.5 -56.5zM203 946h313l8 -946h-329z" glyph-name="exclamdown.aalt" horiz-adv-x="567"/><glyph d="M743 1565h-204l295 319h194l297 -319h-207l-186 147zM1704 0h-451l-325 600l-324 -600h-450v1434h329v-1018l379 624h131l381 -624v1018h330v-1434z" glyph-name="Wcircumflex.aalt" horiz-adv-x="1857"/><glyph d="M907 1866l125 -279h-207l-200 279h282zM1704 0h-451l-325 600l-324 -600h-450v1434h329v-1018l379 624h131l381 -624v1018h330v-1434z" glyph-name="Wgrave.aalt" horiz-adv-x="1857"/><glyph d="M940 1866h299l-203 -279h-223zM1704 0h-451l-325 600l-324 -600h-450v1434h329v-1018l379 624h131l381 -624v1018h330v-1434z" glyph-name="Wacute.aalt" horiz-adv-x="1857"/><glyph d="M506 1740.5q0 69.5 50 120t119.5 50.5t120 -50.5t50.5 -119.5q0 -72 -50.5 -122t-120 -50t-119.5 51t-50 120.5zM1010 1740.5q0 69.5 50 120t121.5 50.5t121 -50.5t49.5 -119.5q0 -72 -50.5 -122t-119.5 -50q-72 0 -122 51t-50 120.5zM1704 0h-451l-325 600l-324 -600 h-450v1434h329v-1018l379 624h131l381 -624v1018h330v-1434z" glyph-name="Wdieresis.aalt" horiz-adv-x="1857"/><glyph d="M655 1866h299l-202 -279h-224zM903 1434h367l-727 -1434h-359l297 535l-463 899h369l258 -584z" glyph-name="Yacute.aalt"/><glyph d="M459 1565h-205l295 319h194l297 -319h-206l-187 147zM903 1434h367l-727 -1434h-359l297 535l-463 899h369l258 -584z" glyph-name="Ycircumflex.aalt"/><glyph d="M221 1740.5q0 69.5 50.5 120t119.5 50.5q72 0 121 -50.5t49 -119.5q0 -72 -50 -122t-119.5 -50t-120 51t-50.5 120.5zM725 1740.5q0 69.5 50 120t122 50.5q70 0 120 -50.5t50 -119.5q0 -72 -50 -122t-120 -50t-121 51t-51 120.5zM903 1434h367l-727 -1434h-359l297 535 l-463 899h369l258 -584z" glyph-name="Ydieresis.aalt"/></font>
</defs>
</svg>
