<?xml version="1.0" standalone="no"?>
<!DOCTYPE svg PUBLIC "-//W3C//DTD SVG 1.1//EN" "http://www.w3.org/Graphics/SVG/1.1/DTD/svg11.dtd">
<svg xmlns="http://www.w3.org/2000/svg"><metadata>This SVG WebFont was generated by YouWorkForThem.
Â©2020 Typekiln.</metadata><defs><font horiz-adv-x="1175" id="ywftsvg"><font-face ascent="1638" bbox="-504 -512 2415 1966" cap-height="1434" descent="-410" font-family="" font-stretch="normal" font-weight="900" panose-1="0 0 0 0 0 0 0 0 0 0" underline-position="0" underline-thickness="0" unicode-range="U+000D-FB02" units-per-em="2048" x-height="1044"/><missing-glyph d="M51 -147l305 1728h828l-305 -1728h-828zM477 1434l-12 -76h381l-6 -39h-90l-15 -76h242l14 76h-76l7 39h75l13 76h-533zM459 1319l-35 -191h532l15 78h-277l21 113h-256zM520 1243h105l-7 -37h-104zM874 1094l-38 -228h-457l-14 -75h532l53 303h-76zM418 1094l-15 -78 h230l-6 -37h-230l-12 -78h307l19 115h34l-18 -115h78l33 193h-420zM643 756l-14 -78h172l-6 -37h-381l6 37h172l14 78h-248l-34 -193h532l14 78l-20 37l35 39l6 39h-248zM299 416l-35 -191h533l34 191h-532zM360 340h381l-6 -39h-381zM258 190l-33 -190h533l14 76h-457l7 39 h456l13 75h-533z" horiz-adv-x="983"/><glyph d="M1239 1147q-86 0 -134 59.5t-34 145.5q16 86 85 145t155 59q88 0 137 -59t33 -145q-14 -86 -84 -145.5t-158 -59.5zM162 750l51 294h164l12 68q35 205 141.5 294t323.5 89q90 0 182 -12l-55 -307q-47 18 -100 18q-78 0 -104.5 -27.5t-41.5 -109.5l-2 -13h672l-184 -1044 h-357l133 750h-315l-133 -750h-356l133 750h-164z" glyph-name="uniFB01" horiz-adv-x="1300" unicode="fi"/><glyph d="M162 750l51 294h164l12 68q35 205 141.5 294t323.5 89h610l-264 -1495h-356l211 1194h-174q-78 0 -103.5 -25.5t-38.5 -91.5l-6 -33h225l-51 -294h-225l-133 -750h-356l133 750h-164z" glyph-name="uniFB02" horiz-adv-x="1282" unicode="fl"/><glyph d="M51 -147l305 1728h828l-305 -1728h-828zM477 1434l-12 -76h381l-6 -39h-90l-15 -76h242l14 76h-76l7 39h75l13 76h-533zM459 1319l-35 -191h532l15 78h-277l21 113h-256zM520 1243h105l-7 -37h-104zM874 1094l-38 -228h-457l-14 -75h532l53 303h-76zM418 1094l-15 -78 h230l-6 -37h-230l-12 -78h307l19 115h34l-18 -115h78l33 193h-420zM643 756l-14 -78h172l-6 -37h-381l6 37h172l14 78h-248l-34 -193h532l14 78l-20 37l35 39l6 39h-248zM299 416l-35 -191h533l34 191h-532zM360 340h381l-6 -39h-381zM258 190l-33 -190h533l14 76h-457l7 39 h456l13 75h-533z" glyph-name=".notdef" horiz-adv-x="983"/><glyph glyph-name="glyph1" horiz-adv-x="0"/><glyph glyph-name="glyph1" horiz-adv-x="0"/><glyph glyph-name="space" horiz-adv-x="409" unicode=" "/><glyph d="M633 492h-352l157 942h369zM367 -20q-84 0 -133.5 60t-34.5 146q16 84 86.5 143.5t154.5 59.5t134.5 -59.5t33.5 -143.5q-14 -86 -85.5 -146t-155.5 -60z" glyph-name="exclam" horiz-adv-x="739" unicode="!"/><glyph d="M248 922l90 532h328l-99 -532h-319zM829 1454h328l-98 -532h-320z" glyph-name="quotedbl" horiz-adv-x="983" unicode="&quot;"/><glyph d="M231 0l80 307h-241l65 246h244l63 246h-249l63 245h252l82 312h328l-82 -312h204l82 312h328l-82 -312h242l-64 -245h-243l-64 -246h250l-66 -246h-252l-79 -307h-328l80 307h-205l-80 -307h-328zM745 807l-65 -262h254l65 262h-254z" glyph-name="numbersign" horiz-adv-x="1441" unicode="#"/><glyph d="M147 369l349 59q12 -92 110 -121l53 293q-98 29 -150 49.5t-121 64.5t-92.5 113.5t-4.5 167.5q33 186 183.5 307t334.5 146l27 149h184l-29 -151q145 -27 246.5 -123t114.5 -254l-342 -59q-18 78 -76 108l-43 -248q96 -25 152.5 -46t126 -66t93 -122t5.5 -185 q-35 -195 -180.5 -318t-352.5 -147l-26 -150h-185l27 148q-180 20 -285 123.5t-119 261.5zM651 1026q-10 -61 66 -100l35 204q-87 -28 -101 -104zM905 414q14 78 -74 125l-40 -234q98 27 114 109z" glyph-name="dollar" horiz-adv-x="1269" unicode="$"/><glyph d="M1536 1481l260 -47l-1319 -1481l-260 47zM964.5 1061q-30.5 -176 -148.5 -284.5t-290 -108.5t-250.5 108.5t-48 284.5t148.5 284.5t290 108.5t250.5 -108.5t48 -284.5zM494 1061q-10 -63 10 -103t67 -40t82 39.5t45 103.5q12 63 -8 103t-67.5 40t-82 -40t-46.5 -103z M1487 766q172 0 251 -108.5t48 -284.5t-148.5 -284.5t-289.5 -108.5t-251 108.5t-48.5 284.5t148.5 284.5t290 108.5zM1393 229q47 0 81.5 40t45.5 106q10 63 -10.5 102t-67.5 39t-82 -39t-45 -102q-10 -68 10.5 -107t67.5 -39z" glyph-name="percent" horiz-adv-x="1761" unicode="%"/><glyph d="M1214 311l150 -200l-264 -152l-113 152q-190 -131 -442 -131q-207 0 -334 107.5t-94 297.5q47 266 383 403q-121 154 -94 304q29 164 165 263t291.5 99t252.5 -101.5t67 -275.5q-18 -104 -84 -179t-215 -169l166 -211q47 70 81 277l5 16h276l-10 -59q-54 -302 -187 -441z M672 1102q-8 -14 -1 -42t8 -40t15.5 -37t19.5 -35t21.5 -33.5t20.5 -31.5q143 100 159 200q12 70 -18.5 103t-81.5 33t-92 -31t-51 -86zM604 225q133 0 240 82l-215 297q-178 -72 -201 -203q-16 -86 37 -131t139 -45z" glyph-name="ampersand" horiz-adv-x="1359" unicode="&amp;"/><glyph d="M338 1454h328l-99 -532h-319z" glyph-name="quotesingle" horiz-adv-x="491" unicode="'"/><glyph d="M1085 1597q-133 -156 -255.5 -430t-176.5 -575q-51 -332 -28.5 -603.5t98.5 -439.5h-354q-92 160 -115 450t30.5 593t176.5 580.5t270 424.5h354z" glyph-name="parenleft" horiz-adv-x="827" unicode="("/><glyph d="M168 1597h354q94 -147 119 -424.5t-29 -580.5q-53 -307 -178 -596t-274 -447h-355q135 168 260 454t179 589q49 328 25.5 588.5t-101.5 416.5z" glyph-name="parenright" horiz-adv-x="827" unicode=")"/><glyph d="M1042 1169l-290 -84l260 -84l-135 -186l-195 176l12 -274h-221l105 274l-244 -180l-76 193l287 83l-256 82l141 195l182 -186l-10 276h221l-108 -276l258 186z" glyph-name="asterisk" horiz-adv-x="917" unicode="*"/><glyph d="M1235 727l-51 -287h-324l-61 -348h-328l61 348h-323l51 287h324l61 348h328l-62 -348h324z" glyph-name="plus" horiz-adv-x="1236" unicode="+"/><glyph d="M209 205h369l-299 -535h-246z" glyph-name="comma" horiz-adv-x="638" unicode=","/><glyph d="M1069 440h-860l51 287h860z" glyph-name="hyphen" horiz-adv-x="1122" unicode="-"/><glyph d="M334 -16q-84 0 -134 60t-36 144q16 84 87 144.5t154.5 60.5t133 -60.5t35 -144.5t-85 -144t-154.5 -60z" glyph-name="period" horiz-adv-x="638" unicode="."/><glyph d="M-41 -276l821 1849l318 -57l-824 -1850z" glyph-name="slash" horiz-adv-x="837" unicode="/"/><glyph d="M964.5 1454q282.5 0 423 -202.5t83 -534.5t-270.5 -534.5t-495.5 -202.5t-422 202.5t-82 534.5t269.5 534.5t494.5 202.5zM760 287q125 0 215 112.5t127 317.5q35 203 -15.5 316.5t-175.5 113.5t-216 -113.5t-126 -316.5q-37 -203 14.5 -316.5t176.5 -113.5z" glyph-name="zero" horiz-adv-x="1417" unicode="0"/><glyph d="M272 1126l54 308h598l-252 -1434h-361l199 1126h-238z" glyph-name="one" horiz-adv-x="835" unicode="1"/><glyph d="M246 1004q55 201 222 325.5t388 124.5t353 -121t100 -311q-23 -135 -117 -238.5t-254 -220.5l-363 -264h613l-53 -299h-1074l54 299l645 467q96 70 136 117t50 100q14 80 -30 126t-119 46q-166 0 -226 -211z" glyph-name="two" horiz-adv-x="1212" unicode="2"/><glyph d="M137 403l348 60q-16 -90 38.5 -141.5t144.5 -51.5q88 0 150.5 49.5t74.5 122.5q14 76 -34 126t-132 50h-158l49 279h158q70 0 123 39t64 96q10 55 -29 93t-107 38q-70 0 -123 -42t-75 -117l-326 59q53 174 208 282.5t366 108.5q215 0 340.5 -110.5t95.5 -284.5 q-18 -109 -89 -188.5t-159 -110.5q111 -51 157 -142.5t25 -207.5q-33 -190 -212 -310t-429 -120q-236 0 -357.5 111t-111.5 312z" glyph-name="three" horiz-adv-x="1249" unicode="3"/><glyph d="M977 1434h364l-153 -881h164l-56 -307h-163l-43 -246h-365l43 246h-659l55 307zM895 965l-332 -412h260z" glyph-name="four" horiz-adv-x="1318" unicode="4"/><glyph d="M465 1434h893l-51 -299h-617l-67 -242q90 57 254 57q219 0 337.5 -133t81.5 -338q-37 -219 -225 -359t-424 -140q-190 0 -320 96t-157 262l371 63q4 -51 53 -86.5t115 -35.5q84 0 148.5 56t76.5 130t-33 132t-131 58q-127 0 -197 -96l-313 57z" glyph-name="five" horiz-adv-x="1273" unicode="5"/><glyph d="M848 950q82 0 160.5 -30.5t142 -88t94.5 -151.5t10 -209q-39 -219 -219 -355t-411 -136q-238 0 -371 145t-92 375q35 207 264 479l422 485l338 -61l-426 -463q35 10 88 10zM674 283q82 0 149.5 55t82 137t-34 137.5t-132.5 55.5q-82 0 -149.5 -53.5t-81.5 -135.5 q-14 -84 35 -140t131 -56z" glyph-name="six" horiz-adv-x="1253" unicode="6"/><glyph d="M301 1434h1024l-49 -287l-709 -1167l-336 61l664 1085h-647z" glyph-name="seven" horiz-adv-x="1134" unicode="7"/><glyph d="M1081 760q115 -51 163 -142.5t28 -207.5q-33 -190 -213 -310t-428 -120q-246 0 -382 118.5t-104 307.5q43 248 318 354q-72 33 -114 112.5t-23 188.5q31 172 192.5 282.5t374.5 110.5t336 -110.5t92 -284.5q-18 -109 -87 -188.5t-153 -110.5zM667.5 1030 q-10.5 -57 24.5 -95t102.5 -38t117 38t59.5 95t-26 95t-103.5 38t-115.5 -38t-58.5 -95zM682 270q88 0 155.5 51.5t82.5 127.5q12 74 -38.5 121.5t-138.5 47.5t-152.5 -48t-76.5 -121q-14 -76 34 -127.5t134 -51.5z" glyph-name="eight" horiz-adv-x="1273" unicode="8"/><glyph d="M659 494q-178 0 -311 129t-94 350q37 219 217 355t412 136q238 0 370.5 -145t92.5 -375q-35 -207 -265 -479l-422 -485l-337 61l426 463q-36 -10 -89 -10zM833.5 1161q-81.5 0 -149.5 -55t-82 -137t35 -137.5t133 -55.5q82 0 148.5 53.5t80.5 135.5q14 84 -35 140 t-130.5 56z" glyph-name="nine" horiz-adv-x="1253" unicode="9"/><glyph d="M469 758q-84 0 -133 60.5t-35 144.5q16 84 87 144t155 60t133 -60t35 -144q-16 -84 -87 -144.5t-155 -60.5zM334 -16q-84 0 -134 60t-36 144q16 84 87 144.5t154.5 60.5t133 -60.5t35 -144.5t-85 -144t-154.5 -60z" glyph-name="colon" horiz-adv-x="638" unicode=":"/><glyph d="M473 758q-84 0 -133 60.5t-35 144.5q16 84 87 144t155 60t133 -60t35 -144q-16 -84 -87 -144.5t-155 -60.5zM201 205h368l-299 -535h-245z" glyph-name="semicolon" horiz-adv-x="643" unicode=";"/><glyph d="M1260 1106l-62 -356l-577 -187l509 -186l-61 -357l-831 400l51 287z" glyph-name="less" horiz-adv-x="1228" unicode="&lt;"/><glyph d="M1311 676h-1045l56 307h1044zM1217 143h-1045l55 308h1045z" glyph-name="equal" horiz-adv-x="1339" unicode="="/><glyph d="M297 750l61 356l832 -399l-51 -287l-971 -400l61 357l580 186z" glyph-name="greater" horiz-adv-x="1228" unicode=">"/><glyph d="M797 1454q207 0 332.5 -103.5t93.5 -293.5q-23 -123 -92.5 -210t-141 -125t-138.5 -82t-79 -87l-20 -61h-340l6 55q10 100 74.5 169.5t136 102.5t138.5 86t79 123q10 66 -19.5 102.5t-83.5 36.5q-51 0 -97 -34.5t-62 -92.5l-340 62q55 166 212 259t341 93zM487 -20 q-84 0 -133 60t-35 144q16 84 87 144.5t155 60.5t133 -60.5t35 -144.5q-16 -84 -87 -144t-155 -60z" glyph-name="question" horiz-adv-x="1103" unicode="?"/><glyph d="M1296 1454q424 0 647.5 -275.5t149.5 -691.5q-25 -139 -82 -241.5t-130 -153.5t-138.5 -73.5t-124.5 -22.5q-49 0 -99.5 11t-105.5 60.5t-59 133.5q-141 -205 -357 -205q-186 0 -291.5 143.5t-70.5 348t189.5 348t336.5 143.5q104 0 178 -49t91 -119l26 147h205 l-107 -604q-12 -45 -3.5 -74.5t16.5 -45t25.5 -23.5t25.5 -9t16 -1q66 0 127.5 70.5t89.5 236.5q53 305 -116.5 513t-477.5 208q-305 0 -550.5 -214t-300.5 -528q-55 -309 116.5 -525t468.5 -216q254 0 459 135l135 -164q-293 -197 -629 -196q-412 0 -640 277.5t-156 688.5 q72 410 399 688.5t737 278.5zM1053 201q100 0 178 80.5t100 207.5q23 125 -26.5 205t-149.5 80q-98 0 -175 -82t-99 -203q-23 -123 26.5 -205.5t145.5 -82.5z" glyph-name="at" horiz-adv-x="2080" unicode="@"/><glyph d="M1151 1434l266 -1434h-389l-39 246h-450l-125 -246h-389l770 1434h356zM672 553h295l-66 471z" glyph-name="A" horiz-adv-x="1441" unicode="A"/><glyph d="M1171 741q188 -88 146 -333q-35 -199 -197 -303.5t-395 -104.5h-627l252 1434h580q223 0 349 -110t95 -290q-16 -98 -72.5 -178t-130.5 -115zM666 1126l-48 -262h201q70 0 118 35t58.5 96.5t-24.5 96t-105 34.5h-200zM770 307q72 0 121 37t61 100q10 63 -25.5 100.5 t-107.5 37.5h-250l-49 -275h250z" glyph-name="B" horiz-adv-x="1286" unicode="B"/><glyph d="M831 287q119 0 215.5 71.5t147.5 196.5l346 -63q-86 -233 -294 -372.5t-476 -139.5q-324 0 -482.5 201.5t-99 535.5t288 535.5t547.5 201.5q266 0 426 -140t162 -372l-369 -63q-8 125 -77.5 196.5t-188.5 71.5q-154 0 -270.5 -118t-149.5 -308q-35 -193 40.5 -313.5 t233.5 -120.5z" glyph-name="C" horiz-adv-x="1515" unicode="C"/><glyph d="M866 1434q346 0 516 -193.5t113 -523.5q-59 -330 -296.5 -523.5t-584.5 -193.5h-516l252 1434h516zM627 307q203 0 331.5 106.5t163.5 303t-56 303t-294 106.5h-106l-146 -819h107z" glyph-name="D" horiz-adv-x="1429" unicode="D"/><glyph d="M1321 1126h-655l-43 -249h573l-53 -299h-574l-49 -271h656l-54 -307h-1024l252 1434h1024z" glyph-name="E" horiz-adv-x="1216" unicode="E"/><glyph d="M1300 1126h-634l-58 -327h553l-53 -299h-553l-88 -500h-369l252 1434h1004z" glyph-name="F" horiz-adv-x="1150" unicode="F"/><glyph d="M1657 840q-6 -86 -19 -164q-53 -309 -284.5 -502.5t-552.5 -193.5q-330 0 -501 203.5t-114 529.5q57 328 303 534.5t576 206.5q219 0 367.5 -100.5t214.5 -290.5l-363 -98q-25 86 -95.5 134t-176.5 48q-168 0 -295 -120t-162 -312q-33 -193 51 -310.5t256 -117.5 q133 0 239.5 69.5t149.5 184.5h-336l52 299h690z" glyph-name="G" horiz-adv-x="1585" unicode="G"/><glyph d="M1251 1434h369l-252 -1434h-369l101 573h-533l-100 -573h-369l252 1434h369l-96 -553h532z" glyph-name="H" horiz-adv-x="1466" unicode="H"/><glyph d="M467 0h-369l252 1434h369z" glyph-name="I" horiz-adv-x="565" unicode="I"/><glyph d="M952 1434h369l-166 -942q-39 -225 -212 -368.5t-408 -143.5q-211 0 -332 116.5t-111 309.5l359 61q-8 -70 25.5 -125t115.5 -55t131 56t63 144z" glyph-name="J" horiz-adv-x="1167" unicode="J"/><glyph d="M883 788l465 -788h-455l-289 524l-53 -51l-84 -473h-369l252 1434h369l-84 -480l473 480h451z" glyph-name="K" horiz-adv-x="1355" unicode="K"/><glyph d="M520 307h615l-54 -307h-983l252 1434h369z" glyph-name="L" horiz-adv-x="1142" unicode="L"/><glyph d="M1497 1434h410l-252 -1434h-352l147 840l-455 -840h-237l-160 840l-147 -840h-353l252 1434h410l211 -902z" glyph-name="M" horiz-adv-x="1753" unicode="M"/><glyph d="M1210 1434h369l-252 -1434h-389l-328 815l-143 -815h-369l252 1434h389l328 -820z" glyph-name="N" horiz-adv-x="1425" unicode="N"/><glyph d="M1055 1454q324 0 494.5 -208t113.5 -529.5t-301 -529t-567 -207.5q-322 0 -493 206.5t-113.5 530t301 530.5t565.5 207zM850 287q172 0 292 121.5t152.5 308t-44 308.5t-249 122t-292 -123t-152.5 -307.5t44 -307t249 -122.5z" glyph-name="O" horiz-adv-x="1597" unicode="O"/><glyph d="M946 1434q238 0 359.5 -132.5t83 -351.5t-203.5 -349t-403 -130h-231l-84 -471h-369l252 1434h596zM768 778q213 0 244 174q14 84 -33 129t-150 45h-163l-62 -348h164z" glyph-name="P" horiz-adv-x="1269" unicode="P"/><glyph d="M1083 -164l-84 168q-98 -25 -204 -24q-322 0 -493 206.5t-113.5 530t301 530.5t565.5 207q324 0 494.5 -208t113.5 -529q-61 -340 -322 -547l68 -129zM850 287h6l-90 178l319 201l105 -201q80 113 104 252q33 186 -43.5 308t-249 122t-292 -123t-152.5 -307.5t44 -307 t249 -122.5z" glyph-name="Q" horiz-adv-x="1597" unicode="Q"/><glyph d="M946 1434q238 0 359.5 -132.5t83.5 -351.5q-27 -143 -110 -251.5t-210 -168.5l191 -530h-410l-125 471h-174l-84 -471h-369l252 1434h596zM768 778q213 0 244 174q14 84 -33 129t-150 45h-163l-62 -348h164z" glyph-name="R" horiz-adv-x="1288" unicode="R"/><glyph d="M614 1026q-10 -59 44.5 -89t177.5 -60q211 -53 288 -107q156 -104 119 -321q-39 -217 -215 -343t-414 -126q-219 0 -347 105t-144 284l348 59q6 -55 57.5 -94t153.5 -39q178 0 199 119q6 37 -7.5 64.5t-47 47t-67.5 32.5t-89 30q-201 59 -262 92q-190 102 -154 317 q37 209 220 333t382 124q174 0 311.5 -99.5t151.5 -285.5l-342 -59q-29 133 -180 133q-76 0 -124.5 -34t-58.5 -83z" glyph-name="S" horiz-adv-x="1220" unicode="S"/><glyph d="M293 1434h1188l-54 -308h-409l-199 -1126h-368l198 1126h-409z" glyph-name="T" horiz-adv-x="1269" unicode="T"/><glyph d="M1186 1434h368l-159 -910q-47 -264 -225.5 -404t-473.5 -140t-424 140t-82 404l160 910h369l-158 -906q-20 -106 33 -173.5t157.5 -67.5t180.5 66.5t96 174.5z" glyph-name="U" horiz-adv-x="1400" unicode="U"/><glyph d="M1239 1434h389l-758 -1434h-340l-254 1434h390l125 -920z" glyph-name="V" horiz-adv-x="1400" unicode="V"/><glyph d="M1886 1434h369l-660 -1434h-329l-92 874l-400 -874h-330l-155 1434h368l70 -840l403 840h283l109 -840z" glyph-name="W" horiz-adv-x="2039" unicode="W"/><glyph d="M1036 731l353 -731h-410l-191 428l-342 -428h-409l608 731l-315 703h409l156 -404l295 404h409z" glyph-name="X" horiz-adv-x="1425" unicode="X"/><glyph d="M1182 1434h409l-628 -906l-95 -528h-368l94 528l-313 906h409l150 -557z" glyph-name="Y" horiz-adv-x="1368" unicode="Y"/><glyph d="M590 307h680l-53 -307h-1139l39 225l821 901h-641l53 308h1098l-39 -226z" glyph-name="Z" horiz-adv-x="1294" unicode="Z"/><glyph d="M1075 1454h-287l-292 -1659h286l-53 -307h-655l401 2273h655z" glyph-name="bracketleft" horiz-adv-x="851" unicode="["/><glyph d="M610 1573l170 -1849l-336 -58l-168 1850z" glyph-name="backslash" horiz-adv-x="837" unicode="\"/><glyph d="M575 1454h-286l55 307h655l-401 -2273h-655l53 307h287z" glyph-name="bracketright" horiz-adv-x="851" unicode="]"/><glyph d="M551 799h-369l527 655h331l297 -655h-368l-140 393z" glyph-name="asciicircum" horiz-adv-x="1236" unicode="^"/><glyph d="M897 -254h-983l51 287h983z" glyph-name="underscore" horiz-adv-x="901" unicode="_"/><glyph d="M723 1434l74 -287h-226l-155 287h307z" glyph-name="grave" horiz-adv-x="757" unicode="`"/><glyph d="M711 1065q203 0 318.5 -108.5t80.5 -301.5l-115 -655h-356l18 104q-113 -125 -297 -124q-137 0 -215.5 89t-54.5 228q18 106 90 181t175.5 112t200.5 52t200 15l4 29q8 43 -19.5 75t-89.5 32q-53 0 -95 -32t-54 -79l-309 55q61 152 208.5 240t309.5 88zM713 414l2 18 q-90 0 -177 -26.5t-102 -98.5q-10 -78 80 -78q70 0 126.5 53.5t70.5 131.5z" glyph-name="a" horiz-adv-x="1077" unicode="a"/><glyph d="M82 0l260 1475h356l-94 -533q125 123 328 123q209 0 303 -156.5t53 -382.5q-39 -225 -187.5 -385.5t-357.5 -160.5q-92 0 -174 32.5t-112 96.5l-19 -109h-356zM522.5 522.5q-18.5 -102.5 22.5 -175.5t135 -73q96 0 163.5 73t86 175.5t-24.5 174t-139 71.5 q-94 0 -159.5 -71.5t-84 -174z" glyph-name="b" horiz-adv-x="1245" unicode="b"/><glyph d="M643 274q72 0 129 46.5t82 117.5l328 -59q-55 -180 -226.5 -289.5t-359.5 -109.5q-240 0 -368 151.5t-87 390.5q41 238 225.5 390.5t421.5 152.5q188 0 319.5 -109.5t123.5 -289.5l-348 -60q0 72 -41 117t-111 45q-96 0 -155.5 -72.5t-75.5 -173.5q-18 -100 15.5 -174 t127.5 -74z" glyph-name="c" horiz-adv-x="1165" unicode="c"/><glyph d="M1423 1475l-260 -1475h-356l18 109q-55 -63 -147 -96t-182 -33q-211 0 -302.5 160.5t-52.5 385.5q41 225 190.5 382t358.5 157q199 0 283 -123l94 533h356zM907.5 522.5q18.5 102.5 -22.5 174t-135 71.5q-96 0 -164 -71.5t-86.5 -174t24.5 -175.5t140 -73q94 0 159.5 73 t84 175.5z" glyph-name="d" horiz-adv-x="1245" unicode="d"/><glyph d="M1198 518q-6 -33 -22 -94h-713q-2 -78 47 -122t127 -44q121 0 184 92l309 -59q-88 -156 -234 -233.5t-314 -77.5q-236 0 -359 153.5t-82 390.5q41 236 218.5 388.5t411 152.5t351 -154.5t76.5 -392.5zM514 657h363q2 70 -44.5 108t-112 38t-124.5 -39t-82 -107z" glyph-name="e" horiz-adv-x="1157" unicode="e"/><glyph d="M958 1044l-51 -294h-225l-133 -750h-356l133 750h-164l51 294h164l12 68q35 205 141.5 294t323.5 89q90 0 182 -12l-55 -307q-47 18 -100 18q-78 0 -104.5 -27.5t-41.5 -109.5l-2 -13h225z" glyph-name="f" horiz-adv-x="823" unicode="f"/><glyph d="M522 20q-209 0 -312.5 154t-64.5 369q39 225 196 373.5t376 148.5q72 0 139.5 -29.5t97.5 -81.5l17 90h356l-182 -1030q-41 -236 -220.5 -360.5t-422.5 -124.5q-186 0 -317.5 94t-141.5 262l354 62q-2 -57 44 -89t108 -32q88 0 155.5 44t81.5 128l25 139 q-117 -117 -289 -117zM890.5 543q16.5 90 -25.5 152.5t-130 62.5q-86 0 -149.5 -61.5t-80 -153.5t25.5 -155.5t128 -63.5q88 0 151.5 64.5t80 154.5z" glyph-name="g" horiz-adv-x="1224" unicode="g"/><glyph d="M924 1065q180 0 252.5 -115.5t40.5 -302.5l-115 -647h-357l101 565q6 51 7 96.5t-28.5 76t-91.5 30.5q-92 0 -137 -61.5t-64 -171.5l-94 -535h-356l260 1475h356l-98 -555q140 145 324 145z" glyph-name="h" unicode="h"/><glyph d="M471 1147q-86 0 -134 59.5t-34 145.5q16 86 85 145t155 59q88 0 137 -59t33 -145q-14 -86 -84 -145.5t-158 -59.5zM449 0h-357l184 1044h357z" glyph-name="i" horiz-adv-x="532" unicode="i"/><glyph d="M485 1147q-86 0 -135 59.5t-34.5 145.5t85 145t156.5 59q88 0 136 -59t32 -145q-14 -86 -83 -145.5t-157 -59.5zM-94 -158q4 0 28.5 -1t38 -1t38 7.5t38.5 21.5t29.5 42t21.5 69l189 1064h356l-190 -1081q-43 -246 -138.5 -340t-336.5 -94l-127 6z" glyph-name="j" horiz-adv-x="542" unicode="j"/><glyph d="M848 590l369 -590h-435l-231 385l-53 -47l-60 -338h-356l260 1475h356l-133 -756l379 325h436z" glyph-name="k" horiz-adv-x="1187" unicode="k"/><glyph d="M438 0h-356l260 1475h356z" glyph-name="l" horiz-adv-x="520" unicode="l"/><glyph d="M1511 1065q174 0 247 -107.5t40 -283.5l-119 -674h-356l104 594q29 156 -98 156q-45 0 -77.5 -17.5t-51 -52.5t-28 -65.5t-17.5 -75.5l-94 -539h-356l104 594q29 156 -96 156q-86 0 -124 -57.5t-57 -153.5l-94 -539h-356l184 1044h357l-23 -124q117 145 307 145 q199 0 254 -166q127 166 350 166z" glyph-name="m" horiz-adv-x="1753" unicode="m"/><glyph d="M926 1065q178 0 250.5 -117t40.5 -301l-115 -647h-357l101 565q16 94 -5.5 148.5t-107.5 54.5q-94 0 -138 -64.5t-63 -168.5l-94 -535h-356l184 1044h357l-23 -124q144 145 326 145z" glyph-name="n" unicode="n"/><glyph d="M788 1065q248 0 375 -146.5t84 -396.5q-43 -252 -222 -397t-429 -145q-248 0 -373 146t-82 396t222 396.5t425 146.5zM649 274q98 0 159.5 71t80 177.5t-18 177t-135.5 70.5q-94 0 -155.5 -71.5t-80 -176t18.5 -176.5t131 -72z" glyph-name="o" horiz-adv-x="1204" unicode="o"/><glyph d="M2 -451l264 1495h357l-19 -108q121 129 326 129q213 0 305 -161t53 -386q-41 -225 -190.5 -381.5t-358.5 -156.5q-199 0 -282 122l-99 -553h-356zM522.5 522.5q-18.5 -102.5 22.5 -174.5t135 -72q96 0 163.5 72t86 174.5t-24.5 175t-139 72.5q-94 0 -159.5 -72.5 t-84 -175z" glyph-name="p" horiz-adv-x="1247" unicode="p"/><glyph d="M1348 1044l-265 -1495h-356l98 553q-125 -123 -327 -122q-209 0 -303.5 156.5t-53.5 381.5q39 225 188.5 386t360.5 161q205 0 283 -129l18 108h357zM907.5 522.5q18.5 102.5 -22.5 175t-135 72.5q-96 0 -164 -72.5t-86.5 -175t24.5 -174.5t140 -72q94 0 159.5 72 t84 174.5z" glyph-name="q" horiz-adv-x="1247" unicode="q"/><glyph d="M985 1065l-55 -315q-61 12 -101 12q-115 0 -201.5 -65.5t-113.5 -217.5l-84 -479h-356l184 1044h356l-28 -167q86 109 173 148.5t226 39.5z" glyph-name="r" horiz-adv-x="813" unicode="r"/><glyph d="M510 745q-2 -12 1 -22t13.5 -18.5t20.5 -14.5t29.5 -12t33 -9t38 -9.5t38.5 -10.5q180 -45 253 -124t50 -203q-27 -156 -166 -249t-342 -93q-186 0 -292.5 80.5t-106.5 224.5l352 59q-8 -111 98 -111q47 0 78 21.5t35 50.5q2 12 -1 23.5t-14.5 19.5t-21.5 14.5 t-31.5 13.5t-34 11t-40 11.5t-39.5 9.5q-174 47 -241.5 118.5t-49.5 184.5q27 152 167 253t318 101q156 0 262.5 -80t122.5 -207l-346 -61q4 92 -86 92q-41 0 -67.5 -19.5t-30.5 -44.5z" glyph-name="s" horiz-adv-x="958" unicode="s"/><glyph d="M909 750h-225l-55 -304q-16 -88 6 -118.5t98 -30.5q39 0 98 18l-57 -323q-61 -12 -158 -12q-205 0 -301 79.5t-61 280.5l74 410h-166l51 294h170l51 287l361 62l-62 -349h228z" glyph-name="t" horiz-adv-x="825" unicode="t"/><glyph d="M434 -20q-178 0 -250.5 116.5t-40.5 300.5l115 647h356l-100 -565q-16 -94 5.5 -148.5t107.5 -54.5q94 0 138 65t62 169l95 534h356l-184 -1044h-357l23 125q-144 -145 -326 -145z" glyph-name="u" unicode="u"/><glyph d="M934 1044h364l-557 -1044h-360l-188 1044h364l74 -647z" glyph-name="v" horiz-adv-x="1124" unicode="v"/><glyph d="M1430 1044h356l-500 -1044h-328l-55 559l-252 -559h-323l-135 1044h360l31 -569l245 569h320l49 -569z" glyph-name="w" horiz-adv-x="1611" unicode="w"/><glyph d="M852 541l229 -541h-409l-80 266l-174 -266h-410l422 541l-217 503h405l70 -235l152 235h405z" glyph-name="x" horiz-adv-x="1091" unicode="x"/><glyph d="M920 1044h378l-841 -1495h-379l315 523l-200 972h380l66 -600z" glyph-name="y" horiz-adv-x="1124" unicode="y"/><glyph d="M600 315h410l-56 -315h-901l43 246l510 483h-401l55 315h858l-43 -243z" glyph-name="z" horiz-adv-x="1009" unicode="z"/><glyph d="M809 991q-20 -119 -79.5 -211t-139.5 -141q135 -117 94 -358l-49 -285q-23 -119 24.5 -158t174.5 -39l45 2l-52 -286q-160 -23 -262 -23q-190 0 -272 95.5t-43 314.5l65 377q45 260 -188 260l37 200q233 0 278 260l64 359q39 215 155.5 309t305.5 94q45 0 108.5 -6 t104.5 -10l41 -6l-52 -287q-27 2 -45 2q-127 0 -186 -38t-80 -154z" glyph-name="braceleft" horiz-adv-x="946" unicode="{"/><glyph d="M494 -451h-369l369 2089h368z" glyph-name="bar" horiz-adv-x="778" unicode="|"/><glyph d="M485 991l50 271q20 117 -27 154.5t-174 37.5l-45 -2l51 287q160 23 262 22q188 0 272 -94t46 -309l-64 -359q-45 -260 188 -260l-36 -200q-233 0 -279 -260l-65 -377q-39 -219 -156 -314.5t-307 -95.5q-45 0 -108.5 6t-104.5 10l-41 7l51 286q27 -2 45 -2q127 0 186.5 39 t81.5 158l49 285q41 242 222 358q-63 49 -90 141t-7 211z" glyph-name="braceright" horiz-adv-x="946" unicode="}"/><glyph d="M219 397q29 186 153 322.5t300 136.5q86 0 159.5 -37t115.5 -80t92.5 -79.5t93.5 -36.5q59 0 97 57t50 135h287q-31 -197 -151 -328t-302 -131q-90 0 -166 37t-115.5 80t-88 80t-93.5 37q-115 0 -145 -193h-287z" glyph-name="asciitilde" horiz-adv-x="1572" unicode="~"/><glyph glyph-name="uni00A0" horiz-adv-x="421" unicode=" "/><glyph d="M504 758q-84 0 -134.5 60.5t-33.5 144.5q14 84 86 144t156 60t133 -60t34 -144q-16 -84 -86.5 -144.5t-154.5 -60.5zM309 655h353l-158 -942h-369z" glyph-name="exclamdown" horiz-adv-x="739" unicode="¡"/><glyph d="M762 1057l26 151h185l-27 -149q160 -25 263.5 -130.5t95.5 -262.5l-349 -60q0 94 -65 137l-78 -444q80 45 115 139l327 -59q-49 -158 -190 -263.5t-307 -129.5l-27 -150h-184l26 152q-197 31 -297 177t-61 357q37 211 188.5 357.5t358.5 177.5zM573 522q-27 -166 56 -223 l78 442q-107 -61 -134 -219z" glyph-name="cent" horiz-adv-x="1310" unicode="¢"/><glyph d="M229 600l47 266h158q16 162 27 230q31 170 187.5 292.5t400.5 122.5q190 0 312 -94t107 -272l-311 -53q2 57 -36 95t-103 38q-47 0 -84 -15.5t-60.5 -47.5t-38 -60.5t-22.5 -78.5t-11 -77.5t-7 -79.5h301l-47 -266h-293q-8 -92 -17 -131q-8 -47 -22.5 -87t-25.5 -57.5 t-15 -17.5h622l-53 -307h-1122l53 307q53 0 92 16.5t58.5 33t35 55.5t17.5 53t10 59q0 2 10 76h-170z" glyph-name="sterling" horiz-adv-x="1388" unicode="£"/><glyph d="M289 944l205 174l94 -129q145 76 305 76q170 0 293 -84l151 137l144 -174l-156 -123q66 -137 37 -299q-31 -166 -141 -301l112 -121l-205 -174l-102 137q-156 -84 -326 -83q-158 0 -276 73l-139 -127l-144 174l138 107q-74 137 -43 315q29 172 153 314zM594 522 q-18 -102 20.5 -174t139.5 -72q102 0 166.5 71t83 175.5t-21.5 175t-142 70.5q-100 0 -164 -71t-82 -175z" glyph-name="currency" horiz-adv-x="1437" unicode="¤"/><glyph d="M522 733l-241 701h409l148 -557l344 557h409l-487 -701h201l-39 -225h-308l-26 -143h307l-39 -226h-307l-25 -139h-368l24 139h-307l39 226h307l27 143h-307l39 225h200z" glyph-name="yen" horiz-adv-x="1368" unicode="¥"/><glyph d="M346 799l148 839h368l-147 -839h-369zM125 -451l149 840h369l-149 -840h-369z" glyph-name="brokenbar" horiz-adv-x="778" unicode="¦"/><glyph d="M496 -471q-215 0 -342 105.5t-144 283.5l348 59q6 -55 57.5 -94t151.5 -39q178 0 203 127q10 59 -23.5 101.5t-95 69t-136.5 51t-147.5 57.5t-129 78t-82 123.5t-2.5 185.5q29 133 190 274q-129 121 -61 344q59 186 233 295t356 109q172 0 307.5 -99.5t151.5 -285.5 l-342 -60q-33 133 -180 134q-74 0 -122 -35t-56 -86q-10 -55 38 -92t125.5 -54.5t167 -51.5t162 -80t109.5 -145t12 -241q-20 -121 -164 -260q84 -104 54 -280q-41 -231 -221 -362.5t-418 -131.5zM913 563q8 41 -6 74t-34.5 51.5t-65.5 35.5t-70.5 24.5t-79.5 19.5 q-68 -2 -115.5 -42t-56.5 -89q-4 -25 2.5 -45.5t27 -36.5t38.5 -27.5t55 -23.5t58.5 -17.5t65.5 -16.5t63 -15q106 18 118 108z" glyph-name="section" horiz-adv-x="1171" unicode="§"/><glyph d="M442 1341q12 76 76 130.5t139.5 54.5t120.5 -53.5t33 -131.5q-14 -76 -77.5 -130t-139.5 -54t-121 54t-31 130zM975 1341q12 76 75.5 130.5t139.5 54.5t121 -53.5t32 -131.5q-14 -76 -77.5 -130t-139 -54t-120.5 54t-31 130z" glyph-name="dieresis" horiz-adv-x="1310" unicode="¨"/><glyph d="M1054.5 1454q309.5 0 485.5 -213t123 -524q-55 -311 -307 -524t-561.5 -213t-485.5 213t-123 524q55 311 307 524t561.5 213zM829.5 176q225.5 0 407.5 165t219 376q39 211 -86 375.5t-350 164.5t-407.5 -164.5t-219.5 -375.5q-39 -211 86 -376t350.5 -165zM1087 637 l193 -39q-57 -129 -175 -210t-251 -81q-166 0 -257 119t-62 291q31 172 165 290.5t299 118.5q133 0 222.5 -80.5t101.5 -209.5l-209 -29q-10 59 -49 97t-100 38q-84 0 -146.5 -67.5t-79.5 -157.5q-14 -90 24 -157.5t122 -67.5q66 0 118.5 41t83.5 104z" glyph-name="copyright" horiz-adv-x="1597" unicode="©"/><glyph d="M651 1454q139 0 223 -75.5t62 -211.5l-82 -456h-258l14 73q-82 -88 -213 -88q-102 0 -161.5 61.5t-42.5 160.5q12 74 65 127t129 78.5t146.5 35.5t144.5 10l2 21q6 29 -11.5 51.5t-58.5 22.5t-70.5 -22.5t-39.5 -55.5l-234 39q45 106 152.5 167.5t232.5 61.5zM647 999 l2 13q-178 0 -192 -88q-12 -53 53 -54q49 0 88 37t49 92z" glyph-name="ordfeminine" horiz-adv-x="792" unicode="ª"/><glyph d="M184 539l412 456h332l-371 -456l209 -457h-332zM786 539l412 456h332l-373 -456l211 -457h-332z" glyph-name="guillemotleft" horiz-adv-x="1443" unicode="«"/><glyph d="M209 532l51 287h963l-93 -512h-348l41 225h-614z" glyph-name="logicalnot" horiz-adv-x="1208" unicode="¬"/><glyph d="M809 1454q207 0 324.5 -142.5t81 -349t-203.5 -349t-374 -142.5t-324.5 142.5t-81 349t203.5 349t374 142.5zM657.5 596q157.5 0 278.5 106.5t147.5 260t-56.5 260t-240.5 106.5t-277.5 -106.5t-146.5 -260t55.5 -260t239.5 -106.5zM823 893l62 -162h-148l-47 143h-22 l-25 -143h-135l82 463h209q68 0 105.5 -46t27.5 -112q-8 -47 -40 -86t-69 -57zM737 989q20 0 37 14.5t21 31t-8.5 29.5t-32.5 13h-49l-17 -88h49z" glyph-name="registered" horiz-adv-x="1105" unicode="®"/><glyph d="M391 1286l43 246h696l-43 -246h-696z" glyph-name="macron" horiz-adv-x="1024" unicode="¯"/><glyph d="M485 942q-119 0 -187.5 74t-47.5 190q20 119 115.5 194t214.5 75q115 0 180 -76t44.5 -192.5t-112.5 -190.5t-207 -74zM512 1122q35 0 63.5 23.5t34.5 60.5q6 39 -14.5 63.5t-55 24.5t-62 -24.5t-34.5 -63.5q-6 -37 13.5 -60.5t54.5 -23.5z" glyph-name="degree" horiz-adv-x="628" unicode="°"/><glyph d="M1257 901l-51 -287h-303l-33 -184h-327l32 184h-303l52 287h303l35 205h327l-35 -205h303zM1108 61h-934l51 287h934z" glyph-name="plusminus" horiz-adv-x="1261" unicode="±"/><glyph d="M244 1260q23 80 97.5 137t186.5 57q100 0 161 -48t46 -132q-18 -94 -135 -172l-147 -98h233l-29 -164h-491l29 155l268 181q74 49 80 81q4 20 -8.5 30.5t-34.5 10.5q-55 0 -76 -59z" glyph-name="uni00B2" horiz-adv-x="522" unicode="²"/><glyph d="M190 1001l187 23q-4 -25 10 -37t39 -12q27 0 45 15.5t23 35.5q4 23 -11.5 35t-52.5 12h-63l24 135h60q27 0 43 16.5t20 37.5q6 37 -31 36q-33 0 -45 -34l-172 22q12 74 84 121t164 47q94 0 149.5 -47t43.5 -121q-8 -47 -43 -82t-78 -49q113 -43 92 -154q-14 -82 -91 -132 t-183.5 -50t-167 51t-46.5 131z" glyph-name="uni00B3" horiz-adv-x="520" unicode="³"/><glyph d="M539 1434h327l-254 -287h-245z" glyph-name="acute" horiz-adv-x="778" unicode="´"/><glyph d="M793 1434h278l-280 -1598h-246l121 688h-33q-195 0 -303.5 130t-75.5 325q35 195 189.5 325t349.5 130zM872 -164l281 1598h246l-281 -1598h-246z" glyph-name="paragraph" horiz-adv-x="1277" unicode="¶"/><glyph d="M489.5 496q-83.5 0 -134 60t-36.5 144q16 84 87 144.5t155 60.5t133 -60.5t35 -144.5t-85 -144t-154.5 -60z" glyph-name="periodcentered" horiz-adv-x="770" unicode="·"/><glyph d="M174 -193l86 193h195l-54 -104q141 -37 115 -185q-16 -94 -104 -138t-193 -44q-76 0 -135 20l51 138q31 -12 74 -13q82 0 92 62q6 29 -19.5 46t-52 21t-55.5 4z" glyph-name="cedilla" horiz-adv-x="731" unicode="¸"/><glyph d="M248 1282l26 152h277l-105 -594h-184l78 442h-92z" glyph-name="uni00B9" horiz-adv-x="358" unicode="¹"/><glyph d="M612.5 1454q94.5 0 158 -36t89 -91t33.5 -124.5t-8 -137.5q-29 -160 -129.5 -274.5t-280.5 -114.5q-123 0 -192.5 60.5t-77.5 147.5t4 181q12 74 39.5 138.5t74 122.5t121 93t169 35zM510 862q119 0 158 203q35 203 -86 203t-156 -203q-39 -203 84 -203z" glyph-name="ordmasculine" horiz-adv-x="716" unicode="º"/><glyph d="M1200 995l248 -456l-410 -457h-331l368 457l-207 456h332zM598 995l248 -456l-410 -457h-332l371 457l-209 456h332z" glyph-name="guillemotright" horiz-adv-x="1443" unicode="»"/><glyph d="M2 0l1325 1468l197 -34l-1325 -1469zM276 1282l27 152h277l-115 -656h-184l88 504h-93zM1180 655h184l-68 -385h76l-26 -151h-76l-21 -119h-172l21 119h-283l27 151zM1157 451l-143 -181h110z" glyph-name="onequarter" horiz-adv-x="1421" unicode="¼"/><glyph d="M43 0l1325 1468l197 -34l-1325 -1469zM317 1282l27 152h277l-115 -656h-184l88 504h-93zM983 481q23 80 96.5 137.5t182.5 57.5q102 0 163.5 -52.5t47.5 -138.5q-18 -94 -140 -196l-151 -125h233l-29 -164h-491l25 139l286 232q70 57 74 98q4 25 -8 38t-37 13 q-51 0 -72 -59z" glyph-name="onehalf" horiz-adv-x="1441" unicode="½"/><glyph d="M123 0l1325 1468l197 -34l-1326 -1469zM211 961l186 22q-4 -25 12.5 -37t41.5 -12q31 0 51 15.5t24 37.5q4 25 -12 45.5t-53 20.5h-64l23 135h61q57 0 68 61q10 49 -35 49q-37 0 -49 -34l-172 22q12 72 85 120t167 48q98 0 154.5 -51t41.5 -131q-8 -51 -41.5 -87 t-76.5 -50q55 -16 75.5 -66.5t12.5 -105.5q-14 -82 -93 -133.5t-188 -51.5q-111 0 -172 51.5t-47 131.5zM1280 655h184l-67 -385h76l-27 -151h-76l-20 -119h-172l20 119h-283l27 151zM1257 451l-143 -181h111z" glyph-name="threequarters" horiz-adv-x="1583" unicode="¾"/><glyph d="M797 1004q84 0 134 -60.5t36 -144.5q-16 -84 -87 -144.5t-155 -60.5t-133 60.5t-35 144.5t85 144.5t155 60.5zM487 -471q-207 0 -331.5 103.5t-92.5 293.5q18 100 66.5 176t108 118t117 75t102.5 65.5t57 69.5q18 55 18 62h340q-4 -20 -4 -56q-10 -100 -74.5 -169.5 t-137 -102.5t-138 -86t-78.5 -123q-12 -66 18.5 -102.5t84.5 -36.5q51 0 96 34.5t63 92.5l340 -62q-55 -166 -213 -259t-342 -93z" glyph-name="questiondown" horiz-adv-x="1114" unicode="¿"/><glyph d="M1040 1874l74 -287h-225l-156 287h307zM1151 1434l266 -1434h-389l-39 246h-450l-125 -246h-389l770 1434h356zM672 553h295l-66 471z" glyph-name="Agrave" horiz-adv-x="1441" unicode="À"/><glyph d="M1047 1874h327l-254 -287h-246zM1151 1434l266 -1434h-389l-39 246h-450l-125 -246h-389l770 1434h356zM672 553h295l-66 471z" glyph-name="Aacute" horiz-adv-x="1441" unicode="Á"/><glyph d="M809 1565h-225l368 327h205l254 -327h-225l-164 139zM1151 1434l266 -1434h-389l-39 246h-450l-125 -246h-389l770 1434h356zM672 553h295l-66 471z" glyph-name="Acircumflex" horiz-adv-x="1441" unicode="Â"/><glyph d="M608 1589q8 51 24.5 98.5t47.5 96.5t82 78.5t117 29.5q80 0 157.5 -54t106.5 -54q63 0 82 86h209q-18 -117 -93 -210t-202 -93q-66 0 -113 27.5t-79 54t-58 26.5q-55 0 -72 -86h-209zM1151 1434l266 -1434h-389l-39 246h-450l-125 -246h-389l770 1434h356zM672 553h295 l-66 471z" glyph-name="Atilde" horiz-adv-x="1441" unicode="Ã"/><glyph d="M580 1751q12 76 75.5 130t139 54t121 -53t32.5 -131q-14 -76 -77.5 -130t-139.5 -54t-120.5 54t-30.5 130zM1112 1751q12 76 75.5 130t139.5 54t121 -53t33 -131q-14 -76 -78 -130t-139.5 -54t-120.5 54t-31 130zM1151 1434l266 -1434h-389l-39 246h-450l-125 -246h-389 l770 1434h356zM672 553h295l-66 471z" glyph-name="Adieresis" horiz-adv-x="1441" unicode="Ä"/><glyph d="M983 1483q-106 0 -169.5 66.5t-45.5 172.5q20 106 105 175t194 69q104 0 164.5 -68.5t40.5 -175.5q-18 -106 -101.5 -172.5t-187.5 -66.5zM1007.5 1647q32.5 0 58.5 21.5t30 53.5q6 35 -11.5 57.5t-50.5 22.5t-58.5 -22.5t-31.5 -57.5q-4 -33 13.5 -54t50 -21zM1151 1434 l266 -1434h-389l-39 246h-450l-125 -246h-389l770 1434h356zM672 553h295l-66 471z" glyph-name="Aring" horiz-adv-x="1441" unicode="Å"/><glyph d="M418 0h-389l770 1434h1239l-53 -308h-615l-45 -249h594l-51 -299h-594l-49 -271h614l-53 -307h-983l43 246h-303zM676 553h225l100 573h-20z" glyph-name="AE" horiz-adv-x="1880" unicode="Æ"/><glyph d="M831 287q119 0 215.5 71.5t147.5 196.5l346 -63q-78 -207 -252 -342.5t-401 -161.5l-47 -92q141 -37 114 -185q-16 -94 -104 -138t-193 -44q-76 0 -135 20l51 138q31 -12 74 -13q82 0 92 62q6 29 -19.5 46t-52 21t-55.5 4l78 177q-285 27 -421 224.5t-81 508.5 q59 334 288 535.5t548 201.5q266 0 426 -140t162 -372l-369 -63q-8 125 -77.5 196.5t-188.5 71.5q-154 0 -270.5 -118t-149.5 -308q-35 -193 40.5 -313.5t233.5 -120.5z" glyph-name="Ccedilla" horiz-adv-x="1515" unicode="Ç"/><glyph d="M909 1874l74 -287h-225l-156 287h307zM1321 1126h-655l-43 -249h573l-53 -299h-574l-49 -271h656l-54 -307h-1024l252 1434h1024z" glyph-name="Egrave" horiz-adv-x="1216" unicode="È"/><glyph d="M915 1874h328l-254 -287h-246zM1321 1126h-655l-43 -249h573l-53 -299h-574l-49 -271h656l-54 -307h-1024l252 1434h1024z" glyph-name="Eacute" horiz-adv-x="1216" unicode="É"/><glyph d="M678 1565h-225l368 327h205l254 -327h-225l-164 139zM1321 1126h-655l-43 -249h573l-53 -299h-574l-49 -271h656l-54 -307h-1024l252 1434h1024z" glyph-name="Ecircumflex" horiz-adv-x="1216" unicode="Ê"/><glyph d="M449 1751q12 76 75.5 130t139 54t120.5 -53t33 -131q-14 -76 -77.5 -130t-139.5 -54t-120.5 54t-30.5 130zM981 1751q12 76 75.5 130t139.5 54t121 -53t33 -131q-14 -76 -78 -130t-139.5 -54t-120.5 54t-31 130zM1321 1126h-655l-43 -249h573l-53 -299h-574l-49 -271h656 l-54 -307h-1024l252 1434h1024z" glyph-name="Edieresis" horiz-adv-x="1216" unicode="Ë"/><glyph d="M602 1874l74 -287h-225l-156 287h307zM467 0h-369l252 1434h369z" glyph-name="Igrave" horiz-adv-x="565" unicode="Ì"/><glyph d="M608 1874h328l-254 -287h-246zM467 0h-369l252 1434h369z" glyph-name="Iacute" horiz-adv-x="565" unicode="Í"/><glyph d="M371 1565h-226l369 327h205l254 -327h-225l-164 139zM467 0h-369l252 1434h369z" glyph-name="Icircumflex" horiz-adv-x="565" unicode="Î"/><glyph d="M141 1751q12 76 76 130t139.5 54t120.5 -53t33 -131q-14 -76 -77.5 -130t-139.5 -54t-121 54t-31 130zM674 1751q12 76 75.5 130t139.5 54t121 -53t32 -131q-14 -76 -77.5 -130t-139 -54t-120.5 54t-31 130zM467 0h-369l252 1434h369z" glyph-name="Idieresis" horiz-adv-x="565" unicode="Ï"/><glyph d="M952 1434q346 0 516 -193.5t113 -523.5q-59 -330 -296.5 -523.5t-584.5 -193.5h-516l115 645h-127l51 287h125l88 502h516zM1032 645h-364l-62 -338h107q203 0 332 106.5t163.5 303t-56.5 303t-294 106.5h-106l-35 -194h366z" glyph-name="Eth" horiz-adv-x="1515" unicode="Ð"/><glyph d="M610 1589q8 51 24.5 98.5t47.5 96.5t82 78.5t117 29.5q80 0 157.5 -54t106.5 -54q63 0 82 86h209q-18 -117 -93 -210t-202 -93q-66 0 -113 27.5t-78.5 54t-58.5 26.5q-55 0 -72 -86h-209zM1210 1434h369l-252 -1434h-389l-328 815l-143 -815h-369l252 1434h389l328 -820z " glyph-name="Ntilde" horiz-adv-x="1425" unicode="Ñ"/><glyph d="M1122 1894l74 -286h-225l-156 286h307zM1055 1454q324 0 494.5 -208t113.5 -529.5t-301 -529t-567 -207.5q-322 0 -493 206.5t-113.5 530t301 530.5t565.5 207zM850 287q172 0 292 121.5t152.5 308t-44 308.5t-249 122t-292 -123t-152.5 -307.5t44 -307t249 -122.5z" glyph-name="Ograve" horiz-adv-x="1597" unicode="Ò"/><glyph d="M1128 1894h328l-254 -286h-246zM1055 1454q324 0 494.5 -208t113.5 -529.5t-301 -529t-567 -207.5q-322 0 -493 206.5t-113.5 530t301 530.5t565.5 207zM850 287q172 0 292 121.5t152.5 308t-44 308.5t-249 122t-292 -123t-152.5 -307.5t44 -307t249 -122.5z" glyph-name="Oacute" horiz-adv-x="1597" unicode="Ó"/><glyph d="M891 1585h-225l368 328h205l254 -328h-225l-164 139zM1055 1454q324 0 494.5 -208t113.5 -529.5t-301 -529t-567 -207.5q-322 0 -493 206.5t-113.5 530t301 530.5t565.5 207zM850 287q172 0 292 121.5t152.5 308t-44 308.5t-249 122t-292 -123t-152.5 -307.5t44 -307 t249 -122.5z" glyph-name="Ocircumflex" horiz-adv-x="1597" unicode="Ô"/><glyph d="M690 1610q8 51 24.5 98t47.5 96t82 79t117 30q80 0 157.5 -54.5t106.5 -54.5q63 0 82 86h209q-18 -117 -93 -210t-202 -93q-66 0 -113 27.5t-79 54.5t-58 27q-55 0 -72 -86h-209zM1055 1454q324 0 494.5 -208t113.5 -529.5t-301 -529t-567 -207.5q-322 0 -493 206.5 t-113.5 530t301 530.5t565.5 207zM850 287q172 0 292 121.5t152.5 308t-44 308.5t-249 122t-292 -123t-152.5 -307.5t44 -307t249 -122.5z" glyph-name="Otilde" horiz-adv-x="1597" unicode="Õ"/><glyph d="M662 1772q12 76 75.5 130t139 54t120.5 -53.5t33 -130.5q-14 -76 -77.5 -130.5t-139.5 -54.5t-120.5 54.5t-30.5 130.5zM1194 1772q12 76 75.5 130t139.5 54t121 -53.5t33 -130.5q-14 -76 -78 -130.5t-139.5 -54.5t-120.5 54.5t-31 130.5zM1055 1454q324 0 494.5 -208 t113.5 -529.5t-301 -529t-567 -207.5q-322 0 -493 206.5t-113.5 530t301 530.5t565.5 207zM850 287q172 0 292 121.5t152.5 308t-44 308.5t-249 122t-292 -123t-152.5 -307.5t44 -307t249 -122.5z" glyph-name="Odieresis" horiz-adv-x="1597" unicode="Ö"/><glyph d="M403 127l-178 217l281 240l-197 239l256 217l197 -239l280 239l179 -217l-281 -239l197 -240l-256 -217l-195 240z" glyph-name="multiply" horiz-adv-x="1239" unicode="×"/><glyph d="M188 717q53 309 304 523t563 214q37 0 55 -2l49 100l316 -57l-68 -137q152 -96 222.5 -266t33.5 -375q-57 -315 -309 -526t-572 -211l-37 2l-55 -121l-315 57l71 154q-154 94 -224.5 266t-33.5 379zM608 406l355 739q-156 -14 -266.5 -137t-139.5 -291q-35 -186 51 -311z M1247 1024l-352 -735q152 18 260.5 139t138.5 289q33 184 -47 307z" glyph-name="Oslash" horiz-adv-x="1597" unicode="Ø"/><glyph d="M1032 1874l74 -287h-225l-156 287h307zM1186 1434h368l-159 -910q-47 -264 -225.5 -404t-473.5 -140t-424 140t-82 404l160 910h369l-158 -906q-20 -106 33 -173.5t157.5 -67.5t180.5 66.5t96 174.5z" glyph-name="Ugrave" horiz-adv-x="1400" unicode="Ù"/><glyph d="M1038 1874h328l-254 -287h-246zM1186 1434h368l-159 -910q-47 -264 -225.5 -404t-473.5 -140t-424 140t-82 404l160 910h369l-158 -906q-20 -106 33 -173.5t157.5 -67.5t180.5 66.5t96 174.5z" glyph-name="Uacute" horiz-adv-x="1400" unicode="Ú"/><glyph d="M801 1565h-226l369 327h205l254 -327h-225l-164 139zM1186 1434h368l-159 -910q-47 -264 -225.5 -404t-473.5 -140t-424 140t-82 404l160 910h369l-158 -906q-20 -106 33 -173.5t157.5 -67.5t180.5 66.5t96 174.5z" glyph-name="Ucircumflex" horiz-adv-x="1400" unicode="Û"/><glyph d="M571 1751q12 76 76 130t139.5 54t120.5 -53t33 -131q-14 -76 -77.5 -130t-139.5 -54t-121 54t-31 130zM1104 1751q12 76 75.5 130t139.5 54t121 -53t33 -131q-14 -76 -78 -130t-139.5 -54t-120.5 54t-31 130zM1186 1434h368l-159 -910q-47 -264 -225.5 -404t-473.5 -140 t-424 140t-82 404l160 910h369l-158 -906q-20 -106 33 -173.5t157.5 -67.5t180.5 66.5t96 174.5z" glyph-name="Udieresis" horiz-adv-x="1400" unicode="Ü"/><glyph d="M1010 1874h327l-254 -287h-245zM1182 1434h409l-628 -906l-95 -528h-368l94 528l-313 906h409l150 -557z" glyph-name="Yacute" horiz-adv-x="1368" unicode="Ý"/><glyph d="M131 0l252 1434h303l-47 -271h242q197 0 305 -128t75.5 -318.5t-187 -318.5t-351.5 -128h-242l-47 -270h-303zM524 516h176q94 0 166 59.5t88 147.5q14 86 -37 140.5t-145 54.5h-176z" glyph-name="Thorn" horiz-adv-x="1224" unicode="Þ"/><glyph d="M287 1073q31 172 185.5 276.5t351 104.5t317.5 -103.5t92 -275.5q-18 -96 -83 -178t-159 -129q104 -41 153.5 -139.5t29.5 -220.5q-33 -193 -194 -300.5t-364 -107.5h-112l41 233h73q90 0 164 49.5t90.5 139.5t-38 145.5t-138.5 55.5h-61l43 249h57q63 0 119.5 47.5 t69.5 124.5q14 78 -27 127.5t-111 49.5q-76 0 -132 -52.5t-72 -146.5l-181 -1022h-303z" glyph-name="germandbls" horiz-adv-x="1142" unicode="ß"/><glyph d="M778 1505l74 -286h-225l-156 286h307zM711 1065q203 0 318.5 -108.5t80.5 -301.5l-115 -655h-356l18 104q-113 -125 -297 -124q-137 0 -215.5 89t-54.5 228q18 106 90 181t175.5 112t200.5 52t200 15l4 29q8 43 -19.5 75t-89.5 32q-53 0 -95 -32t-54 -79l-309 55 q61 152 208.5 240t309.5 88zM713 414l2 18q-90 0 -177 -26.5t-102 -98.5q-10 -78 80 -78q70 0 126.5 53.5t70.5 131.5z" glyph-name="agrave" horiz-adv-x="1077" unicode="à"/><glyph d="M784 1505h328l-254 -286h-246zM711 1065q203 0 318.5 -108.5t80.5 -301.5l-115 -655h-356l18 104q-113 -125 -297 -124q-137 0 -215.5 89t-54.5 228q18 106 90 181t175.5 112t200.5 52t200 15l4 29q8 43 -19.5 75t-89.5 32q-53 0 -95 -32t-54 -79l-309 55 q61 152 208.5 240t309.5 88zM713 414l2 18q-90 0 -177 -26.5t-102 -98.5q-10 -78 80 -78q70 0 126.5 53.5t70.5 131.5z" glyph-name="aacute" horiz-adv-x="1077" unicode="á"/><glyph d="M547 1196h-225l368 328h205l254 -328h-225l-164 139zM711 1065q203 0 318.5 -108.5t80.5 -301.5l-115 -655h-356l18 104q-113 -125 -297 -124q-137 0 -215.5 89t-54.5 228q18 106 90 181t175.5 112t200.5 52t200 15l4 29q8 43 -19.5 75t-89.5 32q-53 0 -95 -32t-54 -79 l-309 55q61 152 208.5 240t309.5 88zM713 414l2 18q-90 0 -177 -26.5t-102 -98.5q-10 -78 80 -78q70 0 126.5 53.5t70.5 131.5z" glyph-name="acircumflex" horiz-adv-x="1077" unicode="â"/><glyph d="M348 1221q8 51 24.5 98t47.5 96t82 79t116 30q80 0 158 -54.5t107 -54.5q63 0 82 86h209q-18 -117 -93 -210t-202 -93q-66 0 -113 27.5t-79 54.5t-58 27q-55 0 -72 -86h-209zM711 1065q203 0 318.5 -108.5t80.5 -301.5l-115 -655h-356l18 104q-113 -125 -297 -124 q-137 0 -215.5 89t-54.5 228q18 106 90 181t175.5 112t200.5 52t200 15l4 29q8 43 -19.5 75t-89.5 32q-53 0 -95 -32t-54 -79l-309 55q61 152 208.5 240t309.5 88zM713 414l2 18q-90 0 -177 -26.5t-102 -98.5q-10 -78 80 -78q70 0 126.5 53.5t70.5 131.5z" glyph-name="atilde" horiz-adv-x="1077" unicode="ã"/><glyph d="M319 1382q12 76 76 130.5t139.5 54.5t120.5 -53.5t33 -131.5q-14 -76 -77.5 -130t-139.5 -54t-121 54t-31 130zM852 1382q12 76 75.5 130.5t139.5 54.5t121 -53.5t33 -131.5q-14 -76 -78 -130t-139.5 -54t-120.5 54t-31 130zM711 1065q203 0 318.5 -108.5t80.5 -301.5 l-115 -655h-356l18 104q-113 -125 -297 -124q-137 0 -215.5 89t-54.5 228q18 106 90 181t175.5 112t200.5 52t200 15l4 29q8 43 -19.5 75t-89.5 32q-53 0 -95 -32t-54 -79l-309 55q61 152 208.5 240t309.5 88zM713 414l2 18q-90 0 -177 -26.5t-102 -98.5q-10 -78 80 -78 q70 0 126.5 53.5t70.5 131.5z" glyph-name="adieresis" horiz-adv-x="1077" unicode="ä"/><glyph d="M721 1114q-106 0 -170 66.5t-45 173.5q20 106 105 174.5t194 68.5q104 0 164.5 -68.5t40.5 -174.5q-18 -106 -101.5 -173t-187.5 -67zM745.5 1278q32.5 0 58 21.5t30.5 54.5q6 35 -11.5 57.5t-50.5 22.5t-58.5 -22.5t-31.5 -57.5q-4 -33 13.5 -54.5t50 -21.5zM711 1065 q203 0 318.5 -108.5t80.5 -301.5l-115 -655h-356l18 104q-113 -125 -297 -124q-137 0 -215.5 89t-54.5 228q18 106 90 181t175.5 112t200.5 52t200 15l4 29q8 43 -19.5 75t-89.5 32q-53 0 -95 -32t-54 -79l-309 55q61 152 208.5 240t309.5 88zM713 414l2 18 q-90 0 -177 -26.5t-102 -98.5q-10 -78 80 -78q70 0 126.5 53.5t70.5 131.5z" glyph-name="aring" horiz-adv-x="1077" unicode="å"/><glyph d="M88 295q18 106 91 183t177.5 113t201.5 51t198 15q20 135 -101 136q-53 0 -96 -30t-57 -81l-312 55q61 145 206 236.5t296 91.5q100 0 190.5 -43t106.5 -125q86 94 206 136t239 30q184 -20 283.5 -160.5t82.5 -333.5q-6 -72 -31 -145h-700q2 -76 49 -119t125 -43 q106 0 174 88l309 -59q-86 -145 -226 -228t-296 -83q-121 0 -225.5 57t-120.5 162q-74 -104 -204 -161.5t-257 -57.5q-156 0 -246 81.5t-63 233.5zM1323 793q-63 0 -118.5 -37t-82.5 -99h351q-2 61 -44.5 98.5t-105.5 37.5zM436 307q-6 -45 25 -63.5t78 -12.5 q66 8 113.5 61.5t60.5 121.5l2 18q-92 0 -178.5 -26.5t-100.5 -98.5z" glyph-name="ae" horiz-adv-x="1755" unicode="æ"/><glyph d="M643 274q72 0 129 46.5t82 117.5l328 -59q-47 -152 -179.5 -255.5t-293.5 -133.5l-50 -94q141 -37 115 -185q-16 -94 -104 -138t-193 -44q-76 0 -135 20l51 138q31 -12 74 -13q82 0 92 62q6 29 -19.5 46t-52 21t-55.5 4l80 179q-203 29 -306.5 175t-64.5 361 q41 238 225.5 390.5t421.5 152.5q188 0 319.5 -109.5t123.5 -289.5l-348 -60q0 72 -41 117t-111 45q-96 0 -155.5 -72.5t-75.5 -173.5q-18 -100 15.5 -174t127.5 -74z" glyph-name="ccedilla" horiz-adv-x="1165" unicode="ç"/><glyph d="M831 1505l74 -286h-225l-156 286h307zM1198 518q-6 -33 -22 -94h-713q-2 -78 47 -122t127 -44q121 0 184 92l309 -59q-88 -156 -234 -233.5t-314 -77.5q-236 0 -359 153.5t-82 390.5q41 236 218.5 388.5t411 152.5t351 -154.5t76.5 -392.5zM514 657h363q2 70 -44.5 108 t-112 38t-124.5 -39t-82 -107z" glyph-name="egrave" horiz-adv-x="1157" unicode="è"/><glyph d="M838 1505h327l-254 -286h-245zM1198 518q-6 -33 -22 -94h-713q-2 -78 47 -122t127 -44q121 0 184 92l309 -59q-88 -156 -234 -233.5t-314 -77.5q-236 0 -359 153.5t-82 390.5q41 236 218.5 388.5t411 152.5t351 -154.5t76.5 -392.5zM514 657h363q2 70 -44.5 108t-112 38 t-124.5 -39t-82 -107z" glyph-name="eacute" horiz-adv-x="1157" unicode="é"/><glyph d="M600 1196h-225l368 328h205l254 -328h-225l-164 139zM1198 518q-6 -33 -22 -94h-713q-2 -78 47 -122t127 -44q121 0 184 92l309 -59q-88 -156 -234 -233.5t-314 -77.5q-236 0 -359 153.5t-82 390.5q41 236 218.5 388.5t411 152.5t351 -154.5t76.5 -392.5zM514 657h363 q2 70 -44.5 108t-112 38t-124.5 -39t-82 -107z" glyph-name="ecircumflex" horiz-adv-x="1157" unicode="ê"/><glyph d="M373 1382q12 76 75.5 130.5t139.5 54.5t121 -53.5t32 -131.5q-14 -76 -77.5 -130t-139 -54t-120.5 54t-31 130zM905 1382q12 76 75.5 130.5t139.5 54.5t121 -53.5t33 -131.5q-14 -76 -77.5 -130t-139.5 -54t-121 54t-31 130zM1198 518q-6 -33 -22 -94h-713 q-2 -78 47 -122t127 -44q121 0 184 92l309 -59q-88 -156 -234 -233.5t-314 -77.5q-236 0 -359 153.5t-82 390.5q41 236 218.5 388.5t411 152.5t351 -154.5t76.5 -392.5zM514 657h363q2 70 -44.5 108t-112 38t-124.5 -39t-82 -107z" glyph-name="edieresis" horiz-adv-x="1157" unicode="ë"/><glyph d="M510 1485l74 -287h-226l-155 287h307zM438 0h-356l184 1044h357z" glyph-name="igrave" horiz-adv-x="520" unicode="ì"/><glyph d="M516 1485h328l-254 -287h-246zM438 0h-356l184 1044h357z" glyph-name="iacute" horiz-adv-x="520" unicode="í"/><glyph d="M281 1176h-226l369 327h205l254 -327h-226l-163 139zM438 0h-356l184 1044h357z" glyph-name="icircumflex" horiz-adv-x="520" unicode="î"/><glyph d="M51 1362q12 76 75.5 130t139.5 54t121 -53t33 -131q-14 -76 -77.5 -130t-139.5 -54t-121 54t-31 130zM584 1362q12 76 75.5 130t139 54t121 -53t32.5 -131q-14 -76 -77.5 -130t-139.5 -54t-120.5 54t-30.5 130zM438 0h-356l184 1044h357z" glyph-name="idieresis" horiz-adv-x="520" unicode="ï"/><glyph d="M584 -20q-215 0 -337 129t-85 340q37 209 186.5 354t341.5 145q115 0 194 -45t103 -104q14 176 -80 319l-196 -119l-74 156l125 74q-78 35 -182 35l55 190q76 0 174 -24.5t162 -69.5l198 125l88 -160l-151 -88q182 -211 117 -586l-13 -73q-49 -279 -221 -438.5 t-405 -159.5zM721 735q-100 0 -178 -81t-99 -197q-20 -119 33 -191.5t151.5 -72.5t178.5 75.5t100 194.5q20 121 -34 196.5t-152 75.5z" glyph-name="eth" horiz-adv-x="1181" unicode="ð"/><glyph d="M416 1221q8 51 24.5 98t47 96t82 79t116.5 30q80 0 158 -54.5t106 -54.5q63 0 82 86h209q-18 -117 -93 -210t-202 -93q-66 0 -113 27.5t-78.5 54.5t-58.5 27q-55 0 -71 -86h-209zM926 1065q178 0 250.5 -117t40.5 -301l-115 -647h-357l101 565q16 94 -5.5 148.5 t-107.5 54.5q-94 0 -138 -64.5t-63 -168.5l-94 -535h-356l184 1044h357l-23 -124q144 145 326 145z" glyph-name="ntilde" unicode="ñ"/><glyph d="M866 1505l74 -286h-225l-156 286h307zM788 1065q248 0 375 -146.5t84 -396.5q-43 -252 -222 -397t-429 -145q-248 0 -373 146t-82 396t222 396.5t425 146.5zM649 274q98 0 159.5 71t80 177.5t-18 177t-135.5 70.5q-94 0 -155.5 -71.5t-80 -176t18.5 -176.5t131 -72z" glyph-name="ograve" horiz-adv-x="1204" unicode="ò"/><glyph d="M872 1505h328l-254 -286h-246zM788 1065q248 0 375 -146.5t84 -396.5q-43 -252 -222 -397t-429 -145q-248 0 -373 146t-82 396t222 396.5t425 146.5zM649 274q98 0 159.5 71t80 177.5t-18 177t-135.5 70.5q-94 0 -155.5 -71.5t-80 -176t18.5 -176.5t131 -72z" glyph-name="oacute" horiz-adv-x="1204" unicode="ó"/><glyph d="M635 1196h-225l368 328h205l254 -328h-225l-164 139zM788 1065q248 0 375 -146.5t84 -396.5q-43 -252 -222 -397t-429 -145q-248 0 -373 146t-82 396t222 396.5t425 146.5zM649 274q98 0 159.5 71t80 177.5t-18 177t-135.5 70.5q-94 0 -155.5 -71.5t-80 -176t18.5 -176.5 t131 -72z" glyph-name="ocircumflex" horiz-adv-x="1204" unicode="ô"/><glyph d="M436 1221q8 51 24.5 98t47.5 96t82 79t117 30q80 0 157.5 -54.5t106.5 -54.5q63 0 82 86h209q-18 -117 -93 -210t-202 -93q-66 0 -113 27.5t-79 54.5t-58 27q-55 0 -72 -86h-209zM788 1065q248 0 375 -146.5t84 -396.5q-43 -252 -222 -397t-429 -145q-248 0 -373 146 t-82 396t222 396.5t425 146.5zM649 274q98 0 159.5 71t80 177.5t-18 177t-135.5 70.5q-94 0 -155.5 -71.5t-80 -176t18.5 -176.5t131 -72z" glyph-name="otilde" horiz-adv-x="1204" unicode="õ"/><glyph d="M408 1382q12 76 75.5 130.5t139 54.5t120.5 -53.5t33 -131.5q-14 -76 -77.5 -130t-139.5 -54t-120.5 54t-30.5 130zM940 1382q12 76 75.5 130.5t139.5 54.5t121 -53.5t33 -131.5q-14 -76 -78 -130t-139.5 -54t-120.5 54t-31 130zM788 1065q248 0 375 -146.5t84 -396.5 q-43 -252 -222 -397t-429 -145q-248 0 -373 146t-82 396t222 396.5t425 146.5zM649 274q98 0 159.5 71t80 177.5t-18 177t-135.5 70.5q-94 0 -155.5 -71.5t-80 -176t18.5 -176.5t131 -72z" glyph-name="odieresis" horiz-adv-x="1204" unicode="ö"/><glyph d="M768 829q-68 0 -106.5 48.5t-26.5 115.5q10 68 67.5 116t125 48t106.5 -48t29 -116q-12 -68 -69.5 -116t-125.5 -48zM1192 440h-983l51 287h983zM624.5 10q-67.5 0 -107.5 48t-27.5 116t68.5 116t124 48t107.5 -48t27.5 -116t-68.5 -116t-124 -48z" glyph-name="divide" horiz-adv-x="1245" unicode="÷"/><glyph d="M338 47q-117 68 -164 194t-22 275q43 242 227 395.5t426 153.5q55 0 104 -6l70 125l195 -43l-80 -142q119 -68 169 -195.5t23 -277.5q-43 -242 -227.5 -395.5t-425.5 -153.5q-39 0 -109 9l-71 -125l-195 43zM522 375l223 395q-92 -12 -154.5 -82t-76.5 -166 q-15 -86 8 -147zM915 680l-229 -406q90 0 157.5 78t82.5 172q16 86 -11 156z" glyph-name="oslash" horiz-adv-x="1255" unicode="ø"/><glyph d="M821 1485l74 -287h-225l-156 287h307zM434 -20q-178 0 -250.5 116.5t-40.5 300.5l115 647h356l-100 -565q-16 -94 5.5 -148.5t107.5 -54.5q94 0 138 65t62 169l95 534h356l-184 -1044h-357l23 125q-144 -145 -326 -145z" glyph-name="ugrave" unicode="ù"/><glyph d="M827 1485h328l-254 -287h-246zM434 -20q-178 0 -250.5 116.5t-40.5 300.5l115 647h356l-100 -565q-16 -94 5.5 -148.5t107.5 -54.5q94 0 138 65t62 169l95 534h356l-184 -1044h-357l23 125q-144 -145 -326 -145z" glyph-name="uacute" unicode="ú"/><glyph d="M592 1176h-225l368 327h205l254 -327h-225l-164 139zM434 -20q-178 0 -250.5 116.5t-40.5 300.5l115 647h356l-100 -565q-16 -94 5.5 -148.5t107.5 -54.5q94 0 138 65t62 169l95 534h356l-184 -1044h-357l23 125q-144 -145 -326 -145z" glyph-name="ucircumflex" unicode="û"/><glyph d="M362 1362q12 76 76 130t139.5 54t120.5 -53t33 -131q-14 -76 -77.5 -130t-139.5 -54t-121 54t-31 130zM895 1362q12 76 75.5 130t139.5 54t121 -53t33 -131q-14 -76 -78 -130t-139.5 -54t-120.5 54t-31 130zM434 -20q-178 0 -250.5 116.5t-40.5 300.5l115 647h356 l-100 -565q-16 -94 5.5 -148.5t107.5 -54.5q94 0 138 65t62 169l95 534h356l-184 -1044h-357l23 125q-144 -145 -326 -145z" glyph-name="udieresis" unicode="ü"/><glyph d="M817 1485h328l-254 -287h-246zM920 1044h378l-841 -1495h-379l315 523l-200 972h380l66 -600z" glyph-name="yacute" horiz-adv-x="1124" unicode="ý"/><glyph d="M51 -451l340 1926h357l-95 -533q129 123 326 123q221 0 320.5 -155.5t58.5 -383.5q-39 -225 -191.5 -385.5t-369.5 -160.5q-92 0 -175 32.5t-116 96.5l-98 -560h-357zM571.5 522.5q-18.5 -102.5 24.5 -175.5t143.5 -73t171 73t89 175.5t-27.5 174t-146.5 71.5t-168 -71.5 t-86 -174z" glyph-name="thorn" horiz-adv-x="1355" unicode="þ"/><glyph d="M352 1362q12 76 76 130t139.5 54t120.5 -53t33 -131q-14 -76 -77.5 -130t-139.5 -54t-121 54t-31 130zM885 1362q12 76 75.5 130t139.5 54t121 -53t32 -131q-14 -76 -77.5 -130t-139 -54t-120.5 54t-31 130zM920 1044h378l-841 -1495h-379l315 523l-200 972h380l66 -600z " glyph-name="ydieresis" horiz-adv-x="1124" unicode="ÿ"/><glyph d="M653 1587l43 246h697l-43 -246h-697zM1151 1434l266 -1434h-389l-39 246h-450l-125 -246h-389l770 1434h356zM672 553h295l-66 471z" glyph-name="Amacron" horiz-adv-x="1441" unicode="Ā"/><glyph d="M391 1219l43 245h696l-43 -245h-696zM711 1065q203 0 318.5 -108.5t80.5 -301.5l-115 -655h-356l18 104q-113 -125 -297 -124q-137 0 -215.5 89t-54.5 228q18 106 90 181t175.5 112t200.5 52t200 15l4 29q8 43 -19.5 75t-89.5 32q-53 0 -95 -32t-54 -79l-309 55 q61 152 208.5 240t309.5 88zM713 414l2 18q-90 0 -177 -26.5t-102 -98.5q-10 -78 80 -78q70 0 126.5 53.5t70.5 131.5z" glyph-name="amacron" horiz-adv-x="1077" unicode="ā"/><glyph d="M1130 1874h246q-25 -137 -127 -222t-251.5 -85t-223.5 85t-49 222h246q-16 -82 63.5 -82t95.5 82zM1151 1434l266 -1434h-389l-39 246h-450l-125 -246h-389l770 1434h356zM672 553h295l-66 471z" glyph-name="Abreve" horiz-adv-x="1441" unicode="Ă"/><glyph d="M870 1505h246q-25 -137 -127 -222t-251.5 -85t-223.5 85t-49 222h246q-16 -82 63.5 -82t95.5 82zM711 1065q203 0 318.5 -108.5t80.5 -301.5l-115 -655h-356l18 104q-113 -125 -297 -124q-137 0 -215.5 89t-54.5 228q18 106 90 181t175.5 112t200.5 52t200 15l4 29 q8 43 -19.5 75t-89.5 32q-53 0 -95 -32t-54 -79l-309 55q61 152 208.5 240t309.5 88zM713 414l2 18q-90 0 -177 -26.5t-102 -98.5q-10 -78 80 -78q70 0 126.5 53.5t70.5 131.5z" glyph-name="abreve" horiz-adv-x="1077" unicode="ă"/><glyph d="M1151 1434l266 -1434q-6 -4 -18.5 -10t-44 -27.5t-56 -43t-47 -52.5t-26.5 -57q-14 -66 59 -72q45 -4 84 6v-152q-59 -29 -156 -28q-102 0 -162.5 46t-43.5 140q29 147 221 250h-199l-39 246h-450l-125 -246h-389l770 1434h356zM672 553h295l-66 471z" glyph-name="Aogonek" horiz-adv-x="1441" unicode="Ą"/><glyph d="M711 1065q203 0 318.5 -108.5t80.5 -301.5l-115 -655q-6 -4 -18 -10t-44 -27.5t-56.5 -43t-47 -52.5t-26.5 -57q-14 -66 59 -72q45 -4 84 6v-152q-59 -29 -155 -28q-102 0 -163 46t-44 140q29 147 221 250h-166l18 104q-113 -125 -297 -124q-137 0 -215.5 89t-54.5 228 q18 106 90 181t175.5 112t200.5 52t200 15l4 29q8 43 -19.5 75t-89.5 32q-53 0 -95 -32t-54 -79l-309 55q61 152 208.5 240t309.5 88zM713 414l2 18q-90 0 -177 -26.5t-102 -98.5q-10 -78 80 -78q70 0 126.5 53.5t70.5 131.5z" glyph-name="aogonek" horiz-adv-x="1077" unicode="ą"/><glyph d="M1104 1894h328l-254 -286h-246zM831 287q119 0 215.5 71.5t147.5 196.5l346 -63q-86 -233 -294 -372.5t-476 -139.5q-324 0 -482.5 201.5t-99 535.5t288 535.5t547.5 201.5q266 0 426 -140t162 -372l-369 -63q-8 125 -77.5 196.5t-188.5 71.5q-154 0 -270.5 -118 t-149.5 -308q-35 -193 40.5 -313.5t233.5 -120.5z" glyph-name="Cacute" horiz-adv-x="1515" unicode="Ć"/><glyph d="M842 1505h327l-254 -286h-245zM643 274q72 0 129 46.5t82 117.5l328 -59q-55 -180 -226.5 -289.5t-359.5 -109.5q-240 0 -368 151.5t-87 390.5q41 238 225.5 390.5t421.5 152.5q188 0 319.5 -109.5t123.5 -289.5l-348 -60q0 72 -41 117t-111 45q-96 0 -155.5 -72.5 t-75.5 -173.5q-18 -100 15.5 -174t127.5 -74z" glyph-name="cacute" horiz-adv-x="1165" unicode="ć"/><glyph d="M866 1585h-225l369 328h204l254 -328h-225l-164 139zM831 287q119 0 215.5 71.5t147.5 196.5l346 -63q-86 -233 -294 -372.5t-476 -139.5q-324 0 -482.5 201.5t-99 535.5t288 535.5t547.5 201.5q266 0 426 -140t162 -372l-369 -63q-8 125 -77.5 196.5t-188.5 71.5 q-154 0 -270.5 -118t-149.5 -308q-35 -193 40.5 -313.5t233.5 -120.5z" glyph-name="Ccircumflex" horiz-adv-x="1515" unicode="Ĉ"/><glyph d="M604 1196h-225l369 328h204l254 -328h-225l-164 139zM643 274q72 0 129 46.5t82 117.5l328 -59q-55 -180 -226.5 -289.5t-359.5 -109.5q-240 0 -368 151.5t-87 390.5q41 238 225.5 390.5t421.5 152.5q188 0 319.5 -109.5t123.5 -289.5l-348 -60q0 72 -41 117t-111 45 q-96 0 -155.5 -72.5t-75.5 -173.5q-18 -100 15.5 -174t127.5 -74z" glyph-name="ccircumflex" horiz-adv-x="1165" unicode="ĉ"/><glyph d="M1049 1546q-84 0 -134.5 60.5t-35.5 144.5q16 84 86.5 144.5t154.5 60.5t133.5 -60.5t35 -144.5t-85 -144.5t-154.5 -60.5zM831 287q119 0 215.5 71.5t147.5 196.5l346 -63q-86 -233 -294 -372.5t-476 -139.5q-324 0 -482.5 201.5t-99 535.5t288 535.5t547.5 201.5 q266 0 426 -140t162 -372l-369 -63q-8 125 -77.5 196.5t-188.5 71.5q-154 0 -270.5 -118t-149.5 -308q-35 -193 40.5 -313.5t233.5 -120.5z" glyph-name="Cdotaccent" horiz-adv-x="1515" unicode="Ċ"/><glyph d="M790.5 1178q-83.5 0 -134 60t-35.5 144q16 84 86.5 144.5t154.5 60.5t133 -60.5t35 -144.5t-85 -144t-154.5 -60zM643 274q72 0 129 46.5t82 117.5l328 -59q-55 -180 -226.5 -289.5t-359.5 -109.5q-240 0 -368 151.5t-87 390.5q41 238 225.5 390.5t421.5 152.5 q188 0 319.5 -109.5t123.5 -289.5l-348 -60q0 72 -41 117t-111 45q-96 0 -155.5 -72.5t-75.5 -173.5q-18 -100 15.5 -174t127.5 -74z" glyph-name="cdotaccent" horiz-adv-x="1165" unicode="ċ"/><glyph d="M702 1935h226l164 -139l213 139h225l-371 -327h-205zM831 287q119 0 215.5 71.5t147.5 196.5l346 -63q-86 -233 -294 -372.5t-476 -139.5q-324 0 -482.5 201.5t-99 535.5t288 535.5t547.5 201.5q266 0 426 -140t162 -372l-369 -63q-8 125 -77.5 196.5t-188.5 71.5 q-154 0 -270.5 -118t-149.5 -308q-35 -193 40.5 -313.5t233.5 -120.5z" glyph-name="Ccaron" horiz-adv-x="1515" unicode="Č"/><glyph d="M440 1546h226l163 -139l213 139h226l-371 -327h-205zM643 274q72 0 129 46.5t82 117.5l328 -59q-55 -180 -226.5 -289.5t-359.5 -109.5q-240 0 -368 151.5t-87 390.5q41 238 225.5 390.5t421.5 152.5q188 0 319.5 -109.5t123.5 -289.5l-348 -60q0 72 -41 117t-111 45 q-96 0 -155.5 -72.5t-75.5 -173.5q-18 -100 15.5 -174t127.5 -74z" glyph-name="ccaron" horiz-adv-x="1165" unicode="č"/><glyph d="M635 1884h225l164 -139l213 139h225l-370 -328h-205zM866 1434q346 0 516 -193.5t113 -523.5q-59 -330 -296.5 -523.5t-584.5 -193.5h-516l252 1434h516zM627 307q203 0 331.5 106.5t163.5 303t-56 303t-294 106.5h-106l-146 -819h107z" glyph-name="Dcaron" horiz-adv-x="1429" unicode="Ď"/><glyph d="M1423 1475l-260 -1475h-356l18 109q-55 -63 -147 -96t-182 -33q-211 0 -302.5 160.5t-52.5 385.5q41 225 190.5 382t358.5 157q199 0 283 -123l94 533h356zM1765 881h-266l166 553h328zM907.5 522.5q18.5 102.5 -22.5 174t-135 71.5q-96 0 -164 -71.5t-86.5 -174 t24.5 -175.5t140 -73q94 0 159.5 73t84 175.5z" glyph-name="dcaron" horiz-adv-x="1839" unicode="ď"/><glyph d="M952 1434q346 0 516 -193.5t113 -523.5q-59 -330 -296.5 -523.5t-584.5 -193.5h-516l115 645h-127l51 287h125l88 502h516zM1032 645h-364l-62 -338h107q203 0 332 106.5t163.5 303t-56.5 303t-294 106.5h-106l-35 -194h366z" glyph-name="Dcroat" horiz-adv-x="1515" unicode="Đ"/><glyph d="M1423 1475l-22 -123h61l-30 -185h-62l-207 -1167h-356l18 109q-55 -63 -147 -96t-182 -33q-211 0 -302.5 160.5t-52.5 385.5q41 225 190.5 382t358.5 157q199 0 283 -123l39 225h-174l30 185h176l23 123h356zM907.5 522.5q18.5 102.5 -22.5 174t-135 71.5 q-96 0 -164 -71.5t-86.5 -174t24.5 -175.5t140 -73q94 0 159.5 73t84 175.5z" glyph-name="dcroat" horiz-adv-x="1245" unicode="đ"/><glyph d="M522 1587l43 246h697l-43 -246h-697zM1321 1126h-655l-43 -249h573l-53 -299h-574l-49 -271h656l-54 -307h-1024l252 1434h1024z" glyph-name="Emacron" horiz-adv-x="1216" unicode="Ē"/><glyph d="M444 1219l43 245h697l-43 -245h-697zM1198 518q-6 -33 -22 -94h-713q-2 -78 47 -122t127 -44q121 0 184 92l309 -59q-88 -156 -234 -233.5t-314 -77.5q-236 0 -359 153.5t-82 390.5q41 236 218.5 388.5t411 152.5t351 -154.5t76.5 -392.5zM514 657h363q2 70 -44.5 108 t-112 38t-124.5 -39t-82 -107z" glyph-name="emacron" horiz-adv-x="1157" unicode="ē"/><glyph d="M999 1874h246q-25 -137 -127 -222t-251.5 -85t-223.5 85t-49 222h246q-16 -82 63.5 -82t95.5 82zM1321 1126h-655l-43 -249h573l-53 -299h-574l-49 -271h656l-54 -307h-1024l252 1434h1024z" glyph-name="Ebreve" horiz-adv-x="1216" unicode="Ĕ"/><glyph d="M924 1505h245q-25 -137 -127 -222t-251.5 -85t-223 85t-49.5 222h246q-16 -82 64 -82t96 82zM1198 518q-6 -33 -22 -94h-713q-2 -78 47 -122t127 -44q121 0 184 92l309 -59q-88 -156 -234 -233.5t-314 -77.5q-236 0 -359 153.5t-82 390.5q41 236 218.5 388.5t411 152.5 t351 -154.5t76.5 -392.5zM514 657h363q2 70 -44.5 108t-112 38t-124.5 -39t-82 -107z" glyph-name="ebreve" horiz-adv-x="1157" unicode="ĕ"/><glyph d="M864 1546q-84 0 -134 60.5t-36 144.5q16 84 87 144.5t155 60.5t133 -60.5t35 -144.5t-85 -144.5t-155 -60.5zM1321 1126h-655l-43 -249h573l-53 -299h-574l-49 -271h656l-54 -307h-1024l252 1434h1024z" glyph-name="Edotaccent" horiz-adv-x="1216" unicode="Ė"/><glyph d="M786 1178q-84 0 -134 60t-36 144q16 84 87 144.5t155 60.5t133 -60.5t35 -144.5t-85 -144t-155 -60zM1198 518q-6 -33 -22 -94h-713q-2 -78 47 -122t127 -44q121 0 184 92l309 -59q-88 -156 -234 -233.5t-314 -77.5q-236 0 -359 153.5t-82 390.5q41 236 218.5 388.5 t411 152.5t351 -154.5t76.5 -392.5zM514 657h363q2 70 -44.5 108t-112 38t-124.5 -39t-82 -107z" glyph-name="edotaccent" horiz-adv-x="1157" unicode="ė"/><glyph d="M1321 1126h-655l-43 -249h573l-53 -299h-574l-49 -271h656l-54 -307h-1024l252 1434h1024z" glyph-name="Eogonek" horiz-adv-x="1216" unicode="Ę"/><glyph d="M1198 518q-6 -33 -22 -94h-713q-2 -78 47 -122t127 -44q121 0 184 92l309 -59q-113 -199 -323 -273q-174 -100 -189 -188q-14 -66 60 -72q45 -4 84 6v-151q-59 -29 -156 -29q-102 0 -162.5 46t-44.5 141q23 119 154 209q-221 10 -336 162.5t-76 381.5q41 236 218.5 388.5 t411 152.5t351 -154.5t76.5 -392.5zM514 657h363q2 70 -44.5 108t-112 38t-124.5 -39t-82 -107z" glyph-name="eogonek" horiz-adv-x="1157" unicode="ę"/><glyph d="M514 1915h225l164 -139l213 139h225l-370 -328h-205zM1321 1126h-655l-43 -249h573l-53 -299h-574l-49 -271h656l-54 -307h-1024l252 1434h1024z" glyph-name="Ecaron" horiz-adv-x="1216" unicode="Ě"/><glyph d="M436 1546h226l163 -139l213 139h226l-371 -327h-205zM1198 518q-6 -33 -22 -94h-713q-2 -78 47 -122t127 -44q121 0 184 92l309 -59q-88 -156 -234 -233.5t-314 -77.5q-236 0 -359 153.5t-82 390.5q41 236 218.5 388.5t411 152.5t351 -154.5t76.5 -392.5zM514 657h363 q2 70 -44.5 108t-112 38t-124.5 -39t-82 -107z" glyph-name="ecaron" horiz-adv-x="1157" unicode="ě"/><glyph d="M905 1565h-225l369 327h204l254 -327h-225l-164 139zM1657 840q-6 -86 -19 -164q-53 -309 -284.5 -502.5t-552.5 -193.5q-330 0 -501 203.5t-114 529.5q57 328 303 534.5t576 206.5q219 0 367.5 -100.5t214.5 -290.5l-363 -98q-25 86 -95.5 134t-176.5 48 q-168 0 -295 -120t-162 -312q-33 -193 51 -310.5t256 -117.5q133 0 239.5 69.5t149.5 184.5h-336l52 299h690z" glyph-name="Gcircumflex" horiz-adv-x="1585" unicode="Ĝ"/><glyph d="M618 1196h-225l369 328h205l254 -328h-226l-164 139zM522 20q-209 0 -312.5 154t-64.5 369q39 225 196 373.5t376 148.5q72 0 139.5 -29.5t97.5 -81.5l17 90h356l-182 -1030q-41 -236 -220.5 -360.5t-422.5 -124.5q-186 0 -317.5 94t-141.5 262l354 62q-2 -57 44 -89 t108 -32q88 0 155.5 44t81.5 128l25 139q-117 -117 -289 -117zM890.5 543q16.5 90 -25.5 152.5t-130 62.5q-86 0 -149.5 -61.5t-80 -153.5t25.5 -155.5t128 -63.5q88 0 151.5 64.5t80 154.5z" glyph-name="gcircumflex" horiz-adv-x="1224" unicode="ĝ"/><glyph d="M1227 1874h246q-25 -137 -127.5 -222t-252 -85t-223 85t-49.5 222h246q-16 -82 64 -82t96 82zM1657 840q-6 -86 -19 -164q-53 -309 -284.5 -502.5t-552.5 -193.5q-330 0 -501 203.5t-114 529.5q57 328 303 534.5t576 206.5q219 0 367.5 -100.5t214.5 -290.5l-363 -98 q-25 86 -95.5 134t-176.5 48q-168 0 -295 -120t-162 -312q-33 -193 51 -310.5t256 -117.5q133 0 239.5 69.5t149.5 184.5h-336l52 299h690z" glyph-name="Gbreve" horiz-adv-x="1585" unicode="Ğ"/><glyph d="M942 1505h246q-25 -137 -127.5 -222t-252 -85t-223 85t-48.5 222h245q-16 -82 64 -82t96 82zM522 20q-209 0 -312.5 154t-64.5 369q39 225 196 373.5t376 148.5q72 0 139.5 -29.5t97.5 -81.5l17 90h356l-182 -1030q-41 -236 -220.5 -360.5t-422.5 -124.5 q-186 0 -317.5 94t-141.5 262l354 62q-2 -57 44 -89t108 -32q88 0 155.5 44t81.5 128l25 139q-117 -117 -289 -117zM890.5 543q16.5 90 -25.5 152.5t-130 62.5q-86 0 -149.5 -61.5t-80 -153.5t25.5 -155.5t128 -63.5q88 0 151.5 64.5t80 154.5z" glyph-name="gbreve" horiz-adv-x="1224" unicode="ğ"/><glyph d="M1092 1546q-84 0 -134.5 60.5t-35.5 144.5q16 84 86.5 144.5t154.5 60.5t133.5 -60.5t35 -144.5t-85 -144.5t-154.5 -60.5zM1657 840q-6 -86 -19 -164q-53 -309 -284.5 -502.5t-552.5 -193.5q-330 0 -501 203.5t-114 529.5q57 328 303 534.5t576 206.5 q219 0 367.5 -100.5t214.5 -290.5l-363 -98q-25 86 -95.5 134t-176.5 48q-168 0 -295 -120t-162 -312q-33 -193 51 -310.5t256 -117.5q133 0 239.5 69.5t149.5 184.5h-336l52 299h690z" glyph-name="Gdotaccent" horiz-adv-x="1585" unicode="Ġ"/><glyph d="M805 1178q-84 0 -134 60t-36 144q16 84 87 144.5t155 60.5t133 -60.5t34.5 -144.5t-85 -144t-154.5 -60zM522 20q-209 0 -312.5 154t-64.5 369q39 225 196 373.5t376 148.5q72 0 139.5 -29.5t97.5 -81.5l17 90h356l-182 -1030q-41 -236 -220.5 -360.5t-422.5 -124.5 q-186 0 -317.5 94t-141.5 262l354 62q-2 -57 44 -89t108 -32q88 0 155.5 44t81.5 128l25 139q-117 -117 -289 -117zM890.5 543q16.5 90 -25.5 152.5t-130 62.5q-86 0 -149.5 -61.5t-80 -153.5t25.5 -155.5t128 -63.5q88 0 151.5 64.5t80 154.5z" glyph-name="gdotaccent" horiz-adv-x="1224" unicode="ġ"/><glyph d="M1657 840q-6 -86 -19 -164q-53 -309 -284.5 -502.5t-552.5 -193.5q-330 0 -501 203.5t-114 529.5q57 328 303 534.5t576 206.5q219 0 367.5 -100.5t214.5 -290.5l-363 -98q-25 86 -95.5 134t-176.5 48q-168 0 -295 -120t-162 -312q-33 -193 51 -310.5t256 -117.5 q133 0 239.5 69.5t149.5 184.5h-336l52 299h690zM649 -143h230l-207 -349h-148z" glyph-name="Gcommaaccent" horiz-adv-x="1585" unicode="Ģ"/><glyph d="M881 1606h163l-116 -389h-226zM522 20q-209 0 -312.5 154t-64.5 369q39 225 196 373.5t376 148.5q72 0 139.5 -29.5t97.5 -81.5l17 90h356l-182 -1030q-41 -236 -221.5 -360.5t-423.5 -124.5q-184 0 -315.5 93t-141.5 263l354 62q-2 -57 44 -89t108 -32q88 0 155.5 44 t81.5 128l25 139q-117 -117 -289 -117zM890.5 543q16.5 90 -25.5 152.5t-130 62.5q-86 0 -149.5 -61.5t-80 -153.5t25.5 -155.5t128 -63.5q88 0 151.5 64.5t80 154.5z" glyph-name="gcommaaccent" horiz-adv-x="1224" unicode="ģ"/><glyph d="M821 1556h-225l369 328h204l254 -328h-225l-164 140zM1251 1434h369l-252 -1434h-369l101 573h-533l-100 -573h-369l252 1434h369l-96 -553h532z" glyph-name="Hcircumflex" horiz-adv-x="1466" unicode="Ĥ"/><glyph d="M360 1606h-225l369 327h205l254 -327h-226l-164 139zM924 1065q180 0 252.5 -115.5t40.5 -302.5l-115 -647h-357l101 565q6 51 7 96.5t-28.5 76t-91.5 30.5q-92 0 -137 -61.5t-64 -171.5l-94 -535h-356l260 1475h356l-98 -555q140 145 324 145z" glyph-name="hcircumflex" unicode="ĥ"/><glyph d="M682 1675l43 246h696l-43 -246h-696zM1251 1434h369l-252 -1434h-369l101 573h-533l-100 -573h-369l252 1434h369l-96 -553h532z" glyph-name="Hbar" horiz-adv-x="1466" unicode="Ħ"/><glyph d="M926 1065q180 0 251.5 -117t39.5 -301l-115 -647h-357l101 565q6 51 7 96.5t-28.5 76t-91.5 30.5q-92 0 -137 -61.5t-64 -171.5l-94 -535h-356l207 1167h-109l31 185h108l23 123h356l-22 -123h231l-30 -185h-234l-43 -247q140 145 326 145z" glyph-name="hbar" unicode="ħ"/><glyph d="M170 1589q8 51 24.5 98.5t47 96.5t82 78.5t116.5 29.5q80 0 158 -54t107 -54q63 0 81 86h209q-18 -117 -93 -210t-202 -93q-66 0 -112.5 27.5t-78.5 54t-58 26.5q-55 0 -72 -86h-209zM467 0h-369l252 1434h369z" glyph-name="Itilde" horiz-adv-x="565" unicode="Ĩ"/><glyph d="M80 1200q8 51 24.5 98.5t47 96.5t82 78.5t116.5 29.5q80 0 158 -54t106 -54q63 0 82 86h209q-18 -117 -93 -210t-202 -93q-66 0 -112.5 27.5t-78.5 54t-59 26.5q-55 0 -71 -86h-209zM438 0h-356l184 1044h357z" glyph-name="itilde" horiz-adv-x="520" unicode="ĩ"/><glyph d="M215 1587l43 246h696l-43 -246h-696zM467 0h-369l252 1434h369z" glyph-name="Imacron" horiz-adv-x="565" unicode="Ī"/><glyph d="M123 1198l43 246h696l-43 -246h-696zM438 0h-356l184 1044h357z" glyph-name="imacron" horiz-adv-x="520" unicode="ī"/><glyph d="M467 0q-6 -4 -18.5 -10t-44 -27.5t-56 -43t-47 -52.5t-27.5 -57q-14 -66 60 -72q45 -4 84 6v-152q-59 -29 -156 -28q-102 0 -162.5 46t-44.5 140q29 147 221 250h-178l252 1434h369z" glyph-name="Iogonek" horiz-adv-x="565" unicode="Į"/><glyph d="M471 1147q-86 0 -134 59.5t-34 145.5q16 86 85 145t155 59q88 0 137 -59t33 -145q-14 -86 -84 -145.5t-158 -59.5zM449 0q-6 -4 -18.5 -10t-44.5 -27.5t-56.5 -43t-47 -52.5t-26.5 -57q-14 -66 59 -72q45 -4 84 6v-152q-59 -29 -155 -28q-102 0 -163 46t-44 140 q29 147 221 250h-166l184 1044h357z" glyph-name="iogonek" horiz-adv-x="532" unicode="į"/><glyph d="M557 1546q-84 0 -134 60.5t-36 144.5q16 84 87 144.5t155 60.5t133 -60.5t34.5 -144.5t-85 -144.5t-154.5 -60.5zM467 0h-369l252 1434h369z" glyph-name="Idotaccent" horiz-adv-x="565" unicode="İ"/><glyph d="M438 0h-356l184 1044h357z" glyph-name="dotlessi" horiz-adv-x="520" unicode="ı"/><glyph d="M967 1565h-226l369 327h205l254 -327h-226l-163 139zM952 1434h369l-166 -942q-39 -225 -212 -368.5t-408 -143.5q-211 0 -332 116.5t-111 309.5l359 61q-8 -70 25.5 -125t115.5 -55t131 56t63 144z" glyph-name="Jcircumflex" horiz-adv-x="1167" unicode="Ĵ"/><glyph d="M301 1176h-225l368 327h205l254 -327h-225l-164 139zM-94 -158q4 0 28.5 -1t38 -1t38 7.5t38.5 21.5t29.5 42t21.5 69l189 1064h356l-190 -1081q-43 -246 -138.5 -340t-336.5 -94l-127 6z" glyph-name="jcircumflex" horiz-adv-x="542" unicode="ĵ"/><glyph d="M883 788l465 -788h-455l-289 524l-53 -51l-84 -473h-369l252 1434h369l-84 -480l473 480h451zM545 -143h229l-207 -349h-147z" glyph-name="Kcommaaccent" horiz-adv-x="1355" unicode="Ķ"/><glyph d="M848 590l369 -590h-435l-231 385l-53 -47l-60 -338h-356l260 1475h356l-133 -756l379 325h436zM461 -143h229l-207 -349h-147z" glyph-name="kcommaaccent" horiz-adv-x="1187" unicode="ķ"/><glyph d="M621 1874h327l-254 -287h-245zM520 307h615l-54 -307h-983l252 1434h369z" glyph-name="Lacute" horiz-adv-x="1142" unicode="Ĺ"/><glyph d="M592 1915h328l-254 -287h-246zM438 0h-356l260 1475h356z" glyph-name="lacute" horiz-adv-x="520" unicode="ĺ"/><glyph d="M520 307h615l-54 -307h-983l252 1434h369zM465 -143h229l-207 -349h-147z" glyph-name="Lcommaaccent" horiz-adv-x="1142" unicode="Ļ"/><glyph d="M438 0h-356l260 1475h356zM170 -143h229l-206 -349h-148z" glyph-name="lcommaaccent" horiz-adv-x="520" unicode="ļ"/><glyph d="M520 307h615l-54 -307h-983l252 1434h369zM1030 881h-266l166 553h327z" glyph-name="Lcaron" horiz-adv-x="1142" unicode="Ľ"/><glyph d="M438 0h-356l260 1475h356zM958 881h-266l166 553h328z" glyph-name="lcaron" horiz-adv-x="942" unicode="ľ"/><glyph d="M520 307h615l-54 -307h-983l252 1434h369zM885 496q-84 0 -134.5 60t-35.5 144q16 84 86.5 144.5t154.5 60.5t133.5 -60.5t35 -144.5t-85 -144t-154.5 -60z" glyph-name="Ldot" horiz-adv-x="1142" unicode="Ŀ"/><glyph d="M438 0h-356l260 1475h356zM866 496q-84 0 -134 60t-36 144q16 84 87 144.5t155 60.5t133 -60.5t35 -144.5t-85 -144t-155 -60z" glyph-name="ldot" horiz-adv-x="999" unicode="ŀ"/><glyph d="M106 406l54 307l223 82l113 639h368l-86 -492l389 143l-53 -307l-389 -143l-59 -328h573l-53 -307h-942l86 487z" glyph-name="Lslash" horiz-adv-x="1243" unicode="Ł"/><glyph d="M342 406l53 307l289 106l115 656h356l-90 -514l338 124l-53 -307l-340 -125l-115 -653h-356l90 512z" glyph-name="lslash" horiz-adv-x="1462" unicode="ł"/><glyph d="M1049 1874h327l-254 -287h-245zM1210 1434h369l-252 -1434h-389l-328 815l-143 -815h-369l252 1434h389l328 -820z" glyph-name="Nacute" horiz-adv-x="1425" unicode="Ń"/><glyph d="M852 1505h328l-254 -286h-246zM926 1065q178 0 250.5 -117t40.5 -301l-115 -647h-357l101 565q16 94 -5.5 148.5t-107.5 54.5q-94 0 -138 -64.5t-63 -168.5l-94 -535h-356l184 1044h357l-23 -124q144 145 326 145z" glyph-name="nacute" unicode="ń"/><glyph d="M1210 1434h369l-252 -1434h-389l-328 815l-143 -815h-369l252 1434h389l328 -820zM606 -143h230l-207 -349h-148z" glyph-name="Ncommaaccent" horiz-adv-x="1425" unicode="Ņ"/><glyph d="M926 1065q178 0 250.5 -117t40.5 -301l-115 -647h-357l101 565q16 94 -5.5 148.5t-107.5 54.5q-94 0 -138 -64.5t-63 -168.5l-94 -535h-356l184 1044h357l-23 -124q144 145 326 145zM481 -143h230l-207 -349h-148z" glyph-name="ncommaaccent" unicode="ņ"/><glyph d="M647 1915h225l164 -139l213 139h226l-371 -328h-205zM1210 1434h369l-252 -1434h-389l-328 815l-143 -815h-369l252 1434h389l328 -820z" glyph-name="Ncaron" horiz-adv-x="1425" unicode="Ň"/><glyph d="M451 1546h225l164 -139l213 139h225l-371 -327h-205zM926 1065q178 0 250.5 -117t40.5 -301l-115 -647h-357l101 565q16 94 -5.5 148.5t-107.5 54.5q-94 0 -138 -64.5t-63 -168.5l-94 -535h-356l184 1044h357l-23 -124q144 145 326 145z" glyph-name="ncaron" unicode="ň"/><glyph d="M735 1608l43 245h697l-43 -245h-697zM1055 1454q324 0 494.5 -208t113.5 -529.5t-301 -529t-567 -207.5q-322 0 -493 206.5t-113.5 530t301 530.5t565.5 207zM850 287q172 0 292 121.5t152.5 308t-44 308.5t-249 122t-292 -123t-152.5 -307.5t44 -307t249 -122.5z" glyph-name="Omacron" horiz-adv-x="1597" unicode="Ō"/><glyph d="M479 1219l43 245h697l-43 -245h-697zM788 1065q248 0 375 -146.5t84 -396.5q-43 -252 -222 -397t-429 -145q-248 0 -373 146t-82 396t222 396.5t425 146.5zM649 274q98 0 159.5 71t80 177.5t-18 177t-135.5 70.5q-94 0 -155.5 -71.5t-80 -176t18.5 -176.5t131 -72z" glyph-name="omacron" horiz-adv-x="1204" unicode="ō"/><glyph d="M1212 1894h246q-25 -137 -127 -222t-251.5 -85t-223.5 85t-49 222h246q-16 -82 63.5 -82t95.5 82zM1055 1454q324 0 494.5 -208t113.5 -529.5t-301 -529t-567 -207.5q-322 0 -493 206.5t-113.5 530t301 530.5t565.5 207zM850 287q172 0 292 121.5t152.5 308t-44 308.5 t-249 122t-292 -123t-152.5 -307.5t44 -307t249 -122.5z" glyph-name="Obreve" horiz-adv-x="1597" unicode="Ŏ"/><glyph d="M958 1505h246q-25 -137 -127 -222t-251.5 -85t-223.5 85t-49 222h246q-16 -82 63.5 -82t95.5 82zM788 1065q248 0 375 -146.5t84 -396.5q-43 -252 -222 -397t-429 -145q-248 0 -373 146t-82 396t222 396.5t425 146.5zM649 274q98 0 159.5 71t80 177.5t-18 177 t-135.5 70.5q-94 0 -155.5 -71.5t-80 -176t18.5 -176.5t131 -72z" glyph-name="obreve" horiz-adv-x="1204" unicode="ŏ"/><glyph d="M883 1894h327l-254 -286h-245zM1333 1894h328l-254 -286h-246zM1055 1454q324 0 494.5 -208t113.5 -529.5t-301 -529t-567 -207.5q-322 0 -493 206.5t-113.5 530t301 530.5t565.5 207zM850 287q172 0 292 121.5t152.5 308t-44 308.5t-249 122t-292 -123t-152.5 -307.5 t44 -307t249 -122.5z" glyph-name="Ohungarumlaut" horiz-adv-x="1597" unicode="Ő"/><glyph d="M627 1505h327l-254 -286h-245zM1077 1505h328l-254 -286h-246zM788 1065q248 0 375 -146.5t84 -396.5q-43 -252 -222 -397t-429 -145q-248 0 -373 146t-82 396t222 396.5t425 146.5zM649 274q98 0 159.5 71t80 177.5t-18 177t-135.5 70.5q-94 0 -155.5 -71.5t-80 -176 t18.5 -176.5t131 -72z" glyph-name="ohungarumlaut" horiz-adv-x="1204" unicode="ő"/><glyph d="M199 709q57 322 287.5 533.5t517.5 211.5q270 0 401 -178l27 158h983l-54 -308h-614l-45 -249h532l-51 -299h-532l-49 -271h614l-53 -307h-983l28 158q-68 -70 -206 -124t-279 -54q-276 0 -427.5 206t-96.5 523zM567 717q-31 -180 48 -305t247 -125t290 125t155 305 q31 180 -47 305t-246 125t-291 -125t-156 -305z" glyph-name="OE" horiz-adv-x="2260" unicode="Œ"/><glyph d="M602 -20q-244 0 -367.5 149.5t-80.5 392.5q43 242 219 392.5t420 150.5q264 0 368 -172q78 84 187.5 128t222.5 44q229 0 343 -156.5t73 -390.5q-10 -51 -25 -94h-721q4 -78 53 -120t129 -42q117 0 187 88l309 -59q-88 -150 -230.5 -230.5t-306.5 -80.5q-115 0 -208 41.5 t-142 128.5q-149 -170 -430 -170zM1294 657h371q-2 61 -49 98.5t-112.5 37.5t-125 -37.5t-84.5 -98.5zM758 770q-100 0 -164 -71.5t-82 -176.5q-18 -102 20.5 -175t139 -73t166 73t84.5 177q18 106 -22 176t-142 70z" glyph-name="oe" horiz-adv-x="1957" unicode="œ"/><glyph d="M958 1874h328l-254 -287h-246zM946 1434q238 0 359.5 -132.5t83.5 -351.5q-27 -143 -110 -251.5t-210 -168.5l191 -530h-410l-125 471h-174l-84 -471h-369l252 1434h596zM768 778q213 0 244 174q14 84 -33 129t-150 45h-163l-62 -348h164z" glyph-name="Racute" horiz-adv-x="1288" unicode="Ŕ"/><glyph d="M696 1505h328l-254 -286h-246zM985 1065l-55 -315q-61 12 -101 12q-115 0 -201.5 -65.5t-113.5 -217.5l-84 -479h-356l184 1044h356l-28 -167q86 109 173 148.5t226 39.5z" glyph-name="racute" horiz-adv-x="819" unicode="ŕ"/><glyph d="M946 1434q238 0 359.5 -132.5t83.5 -351.5q-27 -143 -110 -251.5t-210 -168.5l191 -530h-410l-125 471h-174l-84 -471h-369l252 1434h596zM768 778q213 0 244 174q14 84 -33 129t-150 45h-163l-62 -348h164zM528 -143h230l-207 -349h-148z" glyph-name="Rcommaaccent" horiz-adv-x="1288" unicode="Ŗ"/><glyph d="M985 1065l-55 -315q-61 12 -101 12q-115 0 -201.5 -65.5t-113.5 -217.5l-84 -479h-356l184 1044h356l-28 -167q86 109 173 148.5t226 39.5zM162 -143h229l-207 -349h-147z" glyph-name="rcommaaccent" horiz-adv-x="819" unicode="ŗ"/><glyph d="M557 1915h225l164 -139l213 139h225l-370 -328h-205zM946 1434q238 0 359.5 -132.5t83.5 -351.5q-27 -143 -110 -251.5t-210 -168.5l191 -530h-410l-125 471h-174l-84 -471h-369l252 1434h596zM768 778q213 0 244 174q14 84 -33 129t-150 45h-163l-62 -348h164z" glyph-name="Rcaron" horiz-adv-x="1288" unicode="Ř"/><glyph d="M295 1546h225l164 -139l213 139h225l-370 -327h-205zM985 1065l-55 -315q-61 12 -101 12q-115 0 -201.5 -65.5t-113.5 -217.5l-84 -479h-356l184 1044h356l-28 -167q86 109 173 148.5t226 39.5z" glyph-name="rcaron" horiz-adv-x="819" unicode="ř"/><glyph d="M940 1894h328l-254 -286h-246zM614 1026q-10 -59 44.5 -89t177.5 -60q211 -53 288 -107q156 -104 119 -321q-39 -217 -215 -343t-414 -126q-219 0 -347 105t-144 284l348 59q6 -55 57.5 -94t153.5 -39q178 0 199 119q6 37 -7.5 64.5t-47 47t-67.5 32.5t-89 30 q-201 59 -262 92q-190 102 -154 317q37 209 220 333t382 124q174 0 311.5 -99.5t151.5 -285.5l-342 -59q-29 133 -180 133q-76 0 -124.5 -34t-58.5 -83z" glyph-name="Sacute" horiz-adv-x="1220" unicode="Ś"/><glyph d="M764 1505h328l-254 -286h-246zM514 745q-2 -12 1 -22t13.5 -18.5t20.5 -14.5t29.5 -12t33 -9t38 -9.5t38.5 -10.5q180 -45 253 -124t50 -203q-27 -156 -166 -249t-342 -93q-186 0 -292.5 80.5t-106.5 224.5l352 59q-8 -111 99 -111q47 0 77.5 21.5t34.5 50.5 q2 12 -1 23.5t-14 19.5t-21.5 14.5t-32 13.5t-34 11t-40 11.5t-39.5 9.5q-174 47 -241.5 118.5t-49.5 184.5q27 152 167 253t318 101q156 0 262.5 -80t122.5 -207l-346 -61q4 92 -86 92q-41 0 -67.5 -19.5t-30.5 -44.5z" glyph-name="sacute" horiz-adv-x="968" unicode="ś"/><glyph d="M702 1585h-225l369 328h205l254 -328h-226l-164 139zM614 1026q-10 -59 44.5 -89t177.5 -60q211 -53 288 -107q156 -104 119 -321q-39 -217 -215 -343t-414 -126q-219 0 -347 105t-144 284l348 59q6 -55 57.5 -94t153.5 -39q178 0 199 119q6 37 -7.5 64.5t-47 47 t-67.5 32.5t-89 30q-201 59 -262 92q-190 102 -154 317q37 209 220 333t382 124q174 0 311.5 -99.5t151.5 -285.5l-342 -59q-29 133 -180 133q-76 0 -124.5 -34t-58.5 -83z" glyph-name="Scircumflex" horiz-adv-x="1220" unicode="Ŝ"/><glyph d="M526 1196h-225l369 328h204l254 -328h-225l-164 139zM514 745q-2 -12 1 -22t13.5 -18.5t20.5 -14.5t29.5 -12t33 -9t38 -9.5t38.5 -10.5q180 -45 253 -124t50 -203q-27 -156 -166 -249t-342 -93q-186 0 -292.5 80.5t-106.5 224.5l352 59q-8 -111 99 -111q47 0 77.5 21.5 t34.5 50.5q2 12 -1 23.5t-14 19.5t-21.5 14.5t-32 13.5t-34 11t-40 11.5t-39.5 9.5q-174 47 -241.5 118.5t-49.5 184.5q27 152 167 253t318 101q156 0 262.5 -80t122.5 -207l-346 -61q4 92 -86 92q-41 0 -67.5 -19.5t-30.5 -44.5z" glyph-name="scircumflex" horiz-adv-x="968" unicode="ŝ"/><glyph d="M614 1026q-10 -59 44.5 -89t177.5 -60q211 -53 288 -107q156 -104 119 -321q-35 -193 -180 -316t-350 -147l-45 -90q141 -37 114 -185q-16 -94 -104 -138t-193 -44q-76 0 -135 20l51 138q31 -12 74 -13q82 0 92 62q6 29 -19.5 46t-52 21t-55.5 4l80 179 q-176 20 -279.5 122.5t-117.5 260.5l348 59q6 -55 57.5 -94t153.5 -39q178 0 199 119q6 37 -7.5 64.5t-47 47t-67.5 32.5t-89 30q-201 59 -262 92q-190 102 -154 317q37 209 220 333t382 124q174 0 311.5 -99.5t151.5 -285.5l-342 -59q-29 133 -180 133q-76 0 -124.5 -34 t-58.5 -83z" glyph-name="Scedilla" horiz-adv-x="1220" unicode="Ş"/><glyph d="M514 745q-2 -12 1 -22t13.5 -18.5t20.5 -14.5t29.5 -12t33 -9t38 -9.5t38.5 -10.5q180 -45 253 -124t50 -203q-25 -137 -137.5 -226.5t-280.5 -109.5l-45 -90q141 -37 115 -185q-16 -94 -104 -138t-193 -44q-76 0 -135 20l51 138q31 -12 74 -13q82 0 92 62q6 29 -19.5 46 t-52 21t-55.5 4l80 179q-141 23 -219 99.5t-78 199.5l352 59q-8 -111 99 -111q47 0 77.5 21.5t34.5 50.5q2 12 -1 23.5t-14 19.5t-21.5 14.5t-32 13.5t-34 11t-40 11.5t-39.5 9.5q-174 47 -241.5 118.5t-49.5 184.5q27 152 167 253t318 101q156 0 262.5 -80t122.5 -207 l-346 -61q4 92 -86 92q-41 0 -67.5 -19.5t-30.5 -44.5z" glyph-name="scedilla" horiz-adv-x="968" unicode="ş"/><glyph d="M539 1935h225l164 -139l213 139h225l-371 -327h-204zM614 1026q-10 -59 44.5 -89t177.5 -60q211 -53 288 -107q156 -104 119 -321q-39 -217 -215 -343t-414 -126q-219 0 -347 105t-144 284l348 59q6 -55 57.5 -94t153.5 -39q178 0 199 119q6 37 -7.5 64.5t-47 47 t-67.5 32.5t-89 30q-201 59 -262 92q-190 102 -154 317q37 209 220 333t382 124q174 0 311.5 -99.5t151.5 -285.5l-342 -59q-29 133 -180 133q-76 0 -124.5 -34t-58.5 -83z" glyph-name="Scaron" horiz-adv-x="1220" unicode="Š"/><glyph d="M362 1546h226l164 -139l213 139h225l-371 -327h-205zM514 745q-2 -12 1 -22t13.5 -18.5t20.5 -14.5t29.5 -12t33 -9t38 -9.5t38.5 -10.5q180 -45 253 -124t50 -203q-27 -156 -166 -249t-342 -93q-186 0 -292.5 80.5t-106.5 224.5l352 59q-8 -111 99 -111q47 0 77.5 21.5 t34.5 50.5q2 12 -1 23.5t-14 19.5t-21.5 14.5t-32 13.5t-34 11t-40 11.5t-39.5 9.5q-174 47 -241.5 118.5t-49.5 184.5q27 152 167 253t318 101q156 0 262.5 -80t122.5 -207l-346 -61q4 92 -86 92q-41 0 -67.5 -19.5t-30.5 -44.5z" glyph-name="scaron" horiz-adv-x="968" unicode="š"/><glyph d="M293 1434h1188l-54 -308h-409l-199 -1126h-368l198 1126h-409zM551 -143h229l-207 -349h-147z" glyph-name="Tcommaaccent" horiz-adv-x="1269" unicode="Ţ"/><glyph d="M909 750h-225l-55 -304q-16 -88 6 -118.5t98 -30.5q39 0 98 18l-57 -323q-61 -12 -158 -12q-205 0 -301 79.5t-61 280.5l74 410h-166l51 294h170l51 287l361 62l-62 -349h228zM444 -143h230l-207 -349h-148z" glyph-name="tcommaaccent" horiz-adv-x="833" unicode="ţ"/><glyph d="M559 1915h225l164 -139l213 139h225l-370 -328h-205zM293 1434h1188l-54 -308h-409l-199 -1126h-368l198 1126h-409z" glyph-name="Tcaron" horiz-adv-x="1269" unicode="Ť"/><glyph d="M1323 881h-266l166 553h327zM909 750h-225l-55 -304q-16 -88 6 -118.5t98 -30.5q39 0 98 18l-57 -323q-61 -12 -158 -12q-205 0 -301 79.5t-61 280.5l74 410h-166l51 294h170l51 287l361 62l-62 -349h228z" glyph-name="tcaron" horiz-adv-x="1396" unicode="ť"/><glyph d="M293 1434h1188l-54 -308h-409l-68 -378h164l-43 -246h-164l-88 -502h-368l88 502h-164l43 246h164l67 378h-409z" glyph-name="Tbar" horiz-adv-x="1269" unicode="Ŧ"/><glyph d="M918 799h-226l-16 -92h225l-43 -246h-227l-2 -15q-16 -88 6 -118.5t98 -30.5q39 0 98 18l-57 -323q-61 -12 -158 -12q-205 0 -301 79.5t-61 280.5l22 121h-165l43 246h165l17 92h-166l43 245h170l51 287l361 62l-62 -349h228z" glyph-name="tbar" horiz-adv-x="833" unicode="ŧ"/><glyph d="M600 1589q8 51 24.5 98.5t47 96.5t82 78.5t116.5 29.5q80 0 158 -54t107 -54q63 0 82 86h208q-18 -117 -93 -210t-202 -93q-66 0 -112.5 27.5t-78.5 54t-58 26.5q-55 0 -72 -86h-209zM1186 1434h368l-159 -910q-47 -264 -225.5 -404t-473.5 -140t-424 140t-82 404 l160 910h369l-158 -906q-20 -106 33 -173.5t157.5 -67.5t180.5 66.5t96 174.5z" glyph-name="Utilde" horiz-adv-x="1400" unicode="Ũ"/><glyph d="M391 1200q8 51 24.5 98.5t47.5 96.5t82 78.5t117 29.5q80 0 157.5 -54t106.5 -54q63 0 82 86h209q-18 -117 -93 -210t-202 -93q-66 0 -113 27.5t-79 54t-58 26.5q-55 0 -72 -86h-209zM434 -20q-178 0 -250.5 116.5t-40.5 300.5l115 647h356l-100 -565q-16 -94 5.5 -148.5 t107.5 -54.5q94 0 138 65t62 169l95 534h356l-184 -1044h-357l23 125q-144 -145 -326 -145z" glyph-name="utilde" unicode="ũ"/><glyph d="M645 1587l43 246h696l-43 -246h-696zM1186 1434h368l-159 -910q-47 -264 -225.5 -404t-473.5 -140t-424 140t-82 404l160 910h369l-158 -906q-20 -106 33 -173.5t157.5 -67.5t180.5 66.5t96 174.5z" glyph-name="Umacron" horiz-adv-x="1400" unicode="Ū"/><glyph d="M434 1198l43 246h697l-44 -246h-696zM434 -20q-178 0 -250.5 116.5t-40.5 300.5l115 647h356l-100 -565q-16 -94 5.5 -148.5t107.5 -54.5q94 0 138 65t62 169l95 534h356l-184 -1044h-357l23 125q-144 -145 -326 -145z" glyph-name="umacron" unicode="ū"/><glyph d="M1122 1874h246q-25 -137 -127 -222t-251.5 -85t-223.5 85t-49 222h246q-16 -82 63.5 -82t95.5 82zM1186 1434h368l-159 -910q-47 -264 -225.5 -404t-473.5 -140t-424 140t-82 404l160 910h369l-158 -906q-20 -106 33 -173.5t157.5 -67.5t180.5 66.5t96 174.5z" glyph-name="Ubreve" horiz-adv-x="1400" unicode="Ŭ"/><glyph d="M913 1485h246q-25 -137 -127 -222t-251.5 -85t-223.5 85t-49 222h246q-16 -82 63.5 -82t95.5 82zM434 -20q-178 0 -250.5 116.5t-40.5 300.5l115 647h356l-100 -565q-16 -94 5.5 -148.5t107.5 -54.5q94 0 138 65t62 169l95 534h356l-184 -1044h-357l23 125 q-144 -145 -326 -145z" glyph-name="ubreve" unicode="ŭ"/><glyph d="M975 1483q-106 0 -170 66.5t-45 172.5q20 106 105 175t194 69q104 0 164.5 -68.5t40.5 -175.5q-18 -106 -101.5 -172.5t-187.5 -66.5zM999.5 1647q32.5 0 58 21.5t29.5 53.5q6 35 -11 57.5t-50 22.5t-58.5 -22.5t-31.5 -57.5q-4 -33 13.5 -54t50 -21zM1186 1434h368 l-159 -910q-47 -264 -225.5 -404t-473.5 -140t-424 140t-82 404l160 910h369l-158 -906q-20 -106 33 -173.5t157.5 -67.5t180.5 66.5t96 174.5z" glyph-name="Uring" horiz-adv-x="1400" unicode="Ů"/><glyph d="M764 1094q-106 0 -170 66.5t-45 172.5q20 106 105 175t194 69q104 0 164.5 -68.5t40.5 -175.5q-18 -106 -101.5 -172.5t-187.5 -66.5zM788.5 1257q32.5 0 58 21.5t30.5 54.5q6 35 -11.5 57.5t-50.5 22.5t-58.5 -22.5t-31.5 -57.5q-4 -33 13.5 -54.5t50 -21.5zM434 -20 q-178 0 -250.5 116.5t-40.5 300.5l115 647h356l-100 -565q-16 -94 5.5 -148.5t107.5 -54.5q94 0 138 65t62 169l95 534h356l-184 -1044h-357l23 125q-144 -145 -326 -145z" glyph-name="uring" unicode="ů"/><glyph d="M793 1874h327l-254 -287h-245zM1243 1874h328l-254 -287h-246zM1186 1434h368l-159 -910q-47 -264 -225.5 -404t-473.5 -140t-424 140t-82 404l160 910h369l-158 -906q-20 -106 33 -173.5t157.5 -67.5t180.5 66.5t96 174.5z" glyph-name="Uhungarumlaut" horiz-adv-x="1400" unicode="Ű"/><glyph d="M582 1485h327l-254 -287h-245zM1032 1485h328l-254 -287h-246zM434 -20q-178 0 -250.5 116.5t-40.5 300.5l115 647h356l-100 -565q-16 -94 5.5 -148.5t107.5 -54.5q94 0 138 65t62 169l95 534h356l-184 -1044h-357l23 125q-144 -145 -326 -145z" glyph-name="uhungarumlaut" unicode="ű"/><glyph d="M1186 1434h368l-159 -910q-70 -397 -422 -506l-10 -6q-8 -4 -20.5 -11t-29 -19.5t-33 -24.5t-34 -27.5t-30.5 -32t-23.5 -35t-12.5 -34.5q-14 -66 60 -72q45 -4 84 6v-151q-59 -29 -156 -29q-102 0 -162.5 46t-44.5 141q23 121 158 211h-23q-295 0 -424 140t-82 404 l160 910h369l-158 -906q-20 -106 33 -173.5t157.5 -67.5t180.5 66.5t96 174.5z" glyph-name="Uogonek" horiz-adv-x="1400" unicode="Ų"/><glyph d="M434 -20q-178 0 -250.5 116.5t-40.5 300.5l115 647h356l-100 -565q-16 -94 5.5 -148.5t107.5 -54.5q94 0 138 65t62 169l95 534h356l-184 -1044q-6 -4 -18.5 -10t-44.5 -27.5t-56.5 -43t-47 -52.5t-26.5 -57q-14 -66 60 -72q45 -4 83 6v-152q-59 -29 -155 -28 q-102 0 -162.5 46t-44.5 140q29 147 221 250h-166l23 125q-144 -145 -326 -145z" glyph-name="uogonek" unicode="ų"/><glyph d="M1108 1565h-225l368 327h205l254 -327h-225l-164 139zM1886 1434h369l-660 -1434h-329l-92 874l-400 -874h-330l-155 1434h368l70 -840l403 840h283l109 -840z" glyph-name="Wcircumflex" horiz-adv-x="2039" unicode="Ŵ"/><glyph d="M825 1176h-225l369 327h205l253 -327h-225l-164 139zM1430 1044h356l-500 -1044h-328l-55 559l-252 -559h-323l-135 1044h360l31 -569l245 569h320l49 -569z" glyph-name="wcircumflex" horiz-adv-x="1611" unicode="ŵ"/><glyph d="M772 1565h-225l368 327h205l254 -327h-225l-164 139zM1182 1434h409l-628 -906l-95 -528h-368l94 528l-313 906h409l150 -557z" glyph-name="Ycircumflex" horiz-adv-x="1368" unicode="Ŷ"/><glyph d="M582 1176h-226l369 327h205l254 -327h-226l-163 139zM920 1044h378l-841 -1495h-379l315 523l-200 972h380l66 -600z" glyph-name="ycircumflex" horiz-adv-x="1124" unicode="ŷ"/><glyph d="M543 1751q12 76 75.5 130t139.5 54t121 -53t32 -131q-14 -76 -77.5 -130t-139.5 -54t-120.5 54t-30.5 130zM1075 1751q12 76 75.5 130t139.5 54t121 -53t33 -131q-14 -76 -77.5 -130t-139.5 -54t-121 54t-31 130zM1182 1434h409l-628 -906l-95 -528h-368l94 528l-313 906 h409l150 -557z" glyph-name="Ydieresis" horiz-adv-x="1368" unicode="Ÿ"/><glyph d="M977 1874h328l-254 -287h-246zM590 307h680l-53 -307h-1139l39 225l821 901h-641l53 308h1098l-39 -226z" glyph-name="Zacute" horiz-adv-x="1294" unicode="Ź"/><glyph d="M743 1485h328l-254 -287h-246zM600 315h410l-56 -315h-901l43 246l510 483h-401l55 315h858l-43 -243z" glyph-name="zacute" horiz-adv-x="1009" unicode="ź"/><glyph d="M926 1546q-84 0 -134.5 60.5t-35.5 144.5q16 84 86.5 144.5t154.5 60.5t133.5 -60.5t35 -144.5t-85 -144.5t-154.5 -60.5zM590 307h680l-53 -307h-1139l39 225l821 901h-641l53 308h1098l-39 -226z" glyph-name="Zdotaccent" horiz-adv-x="1294" unicode="Ż"/><glyph d="M692 1157q-84 0 -134 60.5t-36 144.5q16 84 87 144.5t155 60.5t133 -60.5t35 -144.5t-85 -144.5t-155 -60.5zM600 315h410l-56 -315h-901l43 246l510 483h-401l55 315h858l-43 -243z" glyph-name="zdotaccent" horiz-adv-x="1009" unicode="ż"/><glyph d="M575 1915h226l164 -139l213 139h225l-371 -328h-205zM590 307h680l-53 -307h-1139l39 225l821 901h-641l53 308h1098l-39 -226z" glyph-name="Zcaron" horiz-adv-x="1294" unicode="Ž"/><glyph d="M344 1526h225l164 -140l213 140h225l-370 -328h-205zM600 315h410l-56 -315h-901l43 246l510 483h-401l55 315h858l-43 -243z" glyph-name="zcaron" horiz-adv-x="1009" unicode="ž"/><glyph d="M735 1057l-186 -1057h-356l196 1112q35 205 141.5 294t323.5 89q90 0 182 -12l-55 -307q-47 18 -100 18q-78 0 -105 -27.5t-41 -109.5z" glyph-name="longs" horiz-adv-x="823" unicode="ſ"/><glyph d="M72 -152q47 -18 100 -18q78 0 105.5 30.5t41.5 112.5l138 777h-164l51 294h164l12 68q66 383 492 383q72 0 104.5 -4t50.5 -8l-55 -307q-47 18 -100 18q-78 0 -105.5 -30.5t-42.5 -112.5v-7h226l-52 -294h-225l-149 -838q-66 -383 -492 -383q-72 0 -104.5 4t-49.5 8z" glyph-name="florin" horiz-adv-x="1003" unicode="ƒ"/><glyph d="M614 1026q-10 -59 44.5 -89t177.5 -60q211 -53 288 -107q156 -104 119 -321q-39 -217 -215 -343t-414 -126q-219 0 -347 105t-144 284l348 59q6 -55 57.5 -94t153.5 -39q178 0 199 119q6 37 -7.5 64.5t-47 47t-67.5 32.5t-89 30q-201 59 -262 92q-190 102 -154 317 q37 209 220 333t382 124q174 0 311.5 -99.5t151.5 -285.5l-342 -59q-29 133 -180 133q-76 0 -124.5 -34t-58.5 -83zM453 -143h229l-207 -349h-147z" glyph-name="Scommaaccent" horiz-adv-x="1220" unicode="Ș"/><glyph d="M514 745q-2 -12 1 -22t13.5 -18.5t20.5 -14.5t29.5 -12t33 -9t38 -9.5t38.5 -10.5q180 -45 253 -124t50 -203q-27 -156 -166 -249t-342 -93q-186 0 -292.5 80.5t-106.5 224.5l352 59q-8 -111 99 -111q47 0 77.5 21.5t34.5 50.5q2 12 -1 23.5t-14 19.5t-21.5 14.5 t-32 13.5t-34 11t-40 11.5t-39.5 9.5q-174 47 -241.5 118.5t-49.5 184.5q27 152 167 253t318 101q156 0 262.5 -80t122.5 -207l-346 -61q4 92 -86 92q-41 0 -67.5 -19.5t-30.5 -44.5zM313 -143h230l-207 -349h-148z" glyph-name="scommaaccent" horiz-adv-x="968" unicode="ș"/><glyph d="M293 1434h1188l-54 -308h-409l-199 -1126h-368l198 1126h-409zM551 -143h229l-207 -349h-147z" glyph-name="uni021A" horiz-adv-x="1269" unicode="Ț"/><glyph d="M909 750h-225l-55 -304q-16 -88 6 -118.5t98 -30.5q39 0 98 18l-57 -323q-61 -12 -158 -12q-205 0 -301 79.5t-61 280.5l74 410h-166l51 294h170l51 287l361 62l-62 -349h228zM444 -143h230l-207 -349h-148z" glyph-name="uni021B" horiz-adv-x="833" unicode="ț"/><glyph d="M-94 -158q4 0 28.5 -1t38 -1t38 7.5t38.5 21.5t29.5 42t21.5 69l189 1064h356l-190 -1081q-43 -246 -138.5 -340t-336.5 -94l-127 6z" glyph-name="uni0237" horiz-adv-x="542" unicode="ȷ"/><glyph d="M555 1167h-225l368 328h205l254 -328h-225l-164 140z" glyph-name="circumflex" horiz-adv-x="1073" unicode="ˆ"/><glyph d="M387 1495h225l164 -139l213 139h225l-370 -328h-205z" glyph-name="caron" horiz-adv-x="1073" unicode="ˇ"/><glyph d="M788 1475h246q-25 -137 -127 -222.5t-251.5 -85.5t-223.5 85t-49 223h246q-16 -82 63.5 -82t95.5 82z" glyph-name="breve" horiz-adv-x="897" unicode="˘"/><glyph d="M532.5 1157q-83.5 0 -134 60.5t-36.5 144.5q16 84 87 144.5t155 60.5t133 -60.5t35 -144.5t-85 -144.5t-154.5 -60.5z" glyph-name="dotaccent" horiz-adv-x="655" unicode="˙"/><glyph d="M602 1147q-106 0 -169.5 66.5t-45.5 172.5q20 106 105.5 175t193.5 69q104 0 164.5 -68.5t40.5 -175.5q-18 -106 -101.5 -172.5t-187.5 -66.5zM626.5 1311q32.5 0 58.5 21.5t30 53.5q6 35 -11.5 57.5t-50 22.5t-58.5 -22.5t-32 -57.5q-4 -33 13.5 -54t50 -21z" glyph-name="ring" horiz-adv-x="790" unicode="˚"/><glyph d="M285 -436q-102 0 -163 46t-44 140q35 182 313 293l98 -43q-6 -4 -18 -10t-44 -27.5t-56.5 -43t-47 -52.5t-26.5 -57q-14 -66 59 -72q45 -4 84 6v-152q-59 -28 -155 -28z" glyph-name="ogonek" horiz-adv-x="634" unicode="˛"/><glyph d="M305 1026q8 51 24.5 98t47.5 96.5t82 79t116 29.5q80 0 158 -54t107 -54q63 0 82 86h208q-18 -117 -92.5 -210t-201.5 -93q-51 0 -92.5 17t-63 36.5t-47 37t-47.5 17.5q-55 0 -72 -86h-209z" glyph-name="tilde" horiz-adv-x="1024" unicode="˜"/><glyph d="M498 1434h327l-254 -287h-245zM948 1434h328l-254 -287h-246z" glyph-name="hungarumlaut" horiz-adv-x="1146" unicode="˝"/><glyph d="M236 -143h229l-207 -349h-147z" glyph-name="uni0326" horiz-adv-x="761" unicode="̦"/><glyph d="M25 0l729 1434h245l226 -1434h-1200zM401 246h533l-117 848z" glyph-name="Delta" horiz-adv-x="1249" unicode="Δ"/><glyph d="M623 0h-541l45 254h281q-104 57 -171 208.5t-38 315.5q51 285 281.5 480.5t541.5 195.5t474 -195.5t112 -480.5q-29 -164 -149 -315.5t-245 -208.5h302l-46 -254h-561l45 254q315 117 379 479q35 199 -60 333t-296 134t-343 -134t-177 -333q-61 -348 211 -479z" glyph-name="Omega" horiz-adv-x="1531" unicode="Ω"/><glyph d="M1286 1044l-184 -1044h-357l23 125q-139 -145 -326 -145h-10l-76 -431h-354l264 1495h357l-101 -565q-6 -51 -7 -96t28.5 -76t91.5 -31q92 0 137 61.5t64 172.5l94 534h356z" glyph-name="mu" horiz-adv-x="1183" unicode="μ"/><glyph d="M193 758l51 286h1319l-52 -286h-163l-134 -758h-327l133 758h-334l-133 -758h-328l133 758h-165z" glyph-name="pi" horiz-adv-x="1443" unicode="π"/><glyph d="M1339 1874l74 -287h-225l-156 287h307zM1886 1434h369l-660 -1434h-329l-92 874l-400 -874h-330l-155 1434h368l70 -840l403 840h283l109 -840z" glyph-name="Wgrave" horiz-adv-x="2039" unicode="Ẁ"/><glyph d="M1055 1485l73 -287h-225l-155 287h307zM1430 1044h356l-500 -1044h-328l-55 559l-252 -559h-323l-135 1044h360l31 -569l245 569h320l49 -569z" glyph-name="wgrave" horiz-adv-x="1611" unicode="ẁ"/><glyph d="M1346 1874h327l-254 -287h-245zM1886 1434h369l-660 -1434h-329l-92 874l-400 -874h-330l-155 1434h368l70 -840l403 840h283l109 -840z" glyph-name="Wacute" horiz-adv-x="2039" unicode="Ẃ"/><glyph d="M1061 1485h328l-254 -287h-246zM1430 1044h356l-500 -1044h-328l-55 559l-252 -559h-323l-135 1044h360l31 -569l245 569h320l49 -569z" glyph-name="wacute" horiz-adv-x="1611" unicode="ẃ"/><glyph d="M879 1751q12 76 75.5 130t139 54t121 -53t32.5 -131q-14 -76 -77.5 -130t-139.5 -54t-120.5 54t-30.5 130zM1411 1751q12 76 75.5 130t139.5 54t121 -53t33 -131q-14 -76 -78 -130t-139.5 -54t-120.5 54t-31 130zM1886 1434h369l-660 -1434h-329l-92 874l-400 -874h-330 l-155 1434h368l70 -840l403 840h283l109 -840z" glyph-name="Wdieresis" horiz-adv-x="2039" unicode="Ẅ"/><glyph d="M596 1362q12 76 75.5 130t139.5 54t121 -53t33 -131q-14 -76 -78 -130t-139.5 -54t-120.5 54t-31 130zM1128 1362q12 76 76 130t139.5 54t120.5 -53t33 -131q-14 -76 -77.5 -130t-139.5 -54t-121 54t-31 130zM1430 1044h356l-500 -1044h-328l-55 559l-252 -559h-323 l-135 1044h360l31 -569l245 569h320l49 -569z" glyph-name="wdieresis" horiz-adv-x="1611" unicode="ẅ"/><glyph d="M1122 440h-1044l51 287h1045z" glyph-name="endash" horiz-adv-x="1044" unicode="–"/><glyph d="M2126 440h-2048l51 287h2048z" glyph-name="emdash" horiz-adv-x="2048" unicode="—"/><glyph d="M481 1434h267l-166 -553h-328z" glyph-name="quoteleft" horiz-adv-x="593" unicode="‘"/><glyph d="M520 881h-266l166 553h328z" glyph-name="quoteright" horiz-adv-x="593" unicode="’"/><glyph d="M307 -328h-266l166 553h328z" glyph-name="quotesinglbase" horiz-adv-x="593" unicode="‚"/><glyph d="M932 1434h266l-149 -553h-324zM522 1434h266l-206 -553h-328z" glyph-name="quotedblleft" horiz-adv-x="1044" unicode="“"/><glyph d="M520 881h-266l149 553h324zM930 881h-266l206 553h328z" glyph-name="quotedblright" horiz-adv-x="1044" unicode="”"/><glyph d="M307 -328h-266l149 553h324zM717 -328h-266l206 553h328z" glyph-name="quotedblbase" horiz-adv-x="1044" unicode="„"/><glyph d="M252 737l55 307h287l68 390h368l-67 -390h286l-55 -307h-287l-129 -737h-368l129 737h-287z" glyph-name="dagger" horiz-adv-x="1187" unicode="†"/><glyph d="M256 758l51 286h359l67 390h348l-67 -390h358l-51 -286h-358l-82 -471h358l-51 -287h-359l-69 -389h-348l69 389h-358l51 287h358l82 471h-358z" glyph-name="daggerdbl" horiz-adv-x="1310" unicode="‡"/><glyph d="M461 436q-117 0 -186.5 83t-49.5 198q20 117 118.5 198.5t215.5 81.5q119 0 189.5 -81.5t50.5 -198.5q-23 -117 -121 -199t-217 -82z" glyph-name="bullet" horiz-adv-x="770" unicode="•"/><glyph d="M334 -16q-84 0 -134 60t-36 144q16 84 87 144.5t154.5 60.5t133 -60.5t35 -144.5t-85 -144t-154.5 -60zM895 -16q-84 0 -134 60t-36 144q16 84 87 144.5t155 60.5t133 -60.5t34.5 -144.5t-85 -144t-154.5 -60zM1456 -16q-84 0 -134 60t-36 144q16 84 87 144.5t155 60.5 t133 -60.5t34.5 -144.5t-85 -144t-154.5 -60z" glyph-name="ellipsis" horiz-adv-x="1761" unicode="…"/><glyph d="M526 668q-172 0 -250.5 108.5t-48.5 284.5q31 174 149 283.5t290 109.5t250.5 -109.5t48 -283.5t-148.5 -283.5t-290 -109.5zM520 0h-303l1276 1434h303zM622.5 1204q-51.5 0 -85 -43t-43.5 -100q-8 -57 9 -100t68.5 -43t85 44t41.5 99q10 55 -7 99t-68.5 44zM1325 -20 q-164 0 -234.5 112.5t-41.5 280.5q29 166 138 279.5t271 113.5q76 0 146.5 -30.5t97.5 -86.5q47 55 128 86t157 31q162 0 230.5 -113.5t39.5 -279.5t-140.5 -279.5t-275.5 -113.5q-174 0 -237 116q-105 -116 -279 -116zM1315 373q-8 -57 9 -100.5t68.5 -43.5t85 44t42.5 100 q10 55 -8.5 99t-69.5 44t-84 -43t-43 -100zM1786 373q-8 -57 9 -100.5t68.5 -43.5t85 44t42.5 100q10 55 -8.5 99t-69.5 44t-84 -43t-43 -100z" glyph-name="perthousand" horiz-adv-x="2224" unicode="‰"/><glyph d="M596 995h332l-371 -456l209 -457h-332l-250 457z" glyph-name="guilsinglleft" horiz-adv-x="841" unicode="‹"/><glyph d="M266 995h332l248 -456l-410 -457h-332l369 457z" glyph-name="guilsinglright" horiz-adv-x="841" unicode="›"/><glyph d="M-504 0l1325 1468l197 -34l-1325 -1469z" glyph-name="fraction" horiz-adv-x="264" unicode="⁄"/><glyph d="M354 451h-159l34 204h133l13 62q0 2 1 6t1 6l4 27q0 2 1 6t1 6h-133l37 205h157q82 215 232.5 348t380.5 133q356 0 428 -344l-363 -66q-27 102 -118 103q-121 0 -193 -174h295l-37 -205h-317q-2 -10 -5.5 -26.5t-3.5 -24.5l-12 -62h318l-35 -204h-291q14 -164 129 -164 q90 0 152 100l344 -61q-193 -346 -551 -346q-225 0 -330 130t-113 341z" glyph-name="Euro" horiz-adv-x="1388" unicode="€"/><glyph d="M1006 1434l-29 -164h-234l-122 -697h-205l123 697h-232l29 164h670zM1802 1434h262l-151 -861h-205l104 584l-329 -584h-62l-118 584l-105 -584h-205l152 861h260l104 -543z" glyph-name="trademark" horiz-adv-x="1935" unicode="™"/><glyph d="M733 1024q111 0 183.5 -42t99.5 -95q16 160 -76 247t-229 87q-145 0 -246 -62v232q131 63 305 63q41 0 81 -5t91 -18.5t95 -40t88 -65.5t74 -101.5t49.5 -141t17.5 -189.5t-25 -242l-12 -73q-49 -276 -222 -437t-403 -161q-225 0 -349 148t-83 382q39 221 198.5 367.5 t362.5 146.5zM645 213q109 0 198 81t109 206q23 127 -39.5 209t-173.5 82q-109 0 -196.5 -80t-108.5 -201q-23 -125 37.5 -211t173.5 -86z" glyph-name="partialdiff" horiz-adv-x="1200" unicode="∂"/><glyph d="M4 -328l309 1762h1090l-309 -1762h-287l266 1508h-516l-266 -1508h-287z" glyph-name="product" horiz-adv-x="1212" unicode="∏"/><glyph d="M334 1434h1065l-43 -254h-738l320 -615l-541 -639h738l-45 -254h-1065l45 254l581 639l-360 615z" glyph-name="summation" horiz-adv-x="1228" unicode="∑"/><glyph d="M1110 440h-901l51 287h901z" glyph-name="minus" horiz-adv-x="1163" unicode="−"/><glyph d="M143 717l39 229h357l149 -631l541 1162l235 -43l-692 -1434h-254l-170 717h-205z" glyph-name="radical" horiz-adv-x="1236" unicode="√"/><glyph d="M153.5 520.5q32.5 186.5 173 292t285.5 105.5q244 0 385 -256q229 256 476 256q145 0 248.5 -105.5t70.5 -292t-173 -292t-286 -105.5q-246 0 -385 256q-233 -256 -475 -256q-145 0 -248.5 105.5t-71 292zM1407 709q-68 0 -130.5 -43t-164.5 -146q68 -102 115 -145 t114 -43q70 0 129.5 58.5t71.5 130t-26.5 130t-108.5 58.5zM403.5 520.5q-12.5 -71.5 26.5 -130t109 -58.5q68 0 128 42t167 146q-70 104 -116 146.5t-114 42.5q-70 0 -129 -58.5t-71.5 -130z" glyph-name="infinity" horiz-adv-x="1763" unicode="∞"/><glyph d="M-2 -152q45 -18 100 -18q78 0 105.5 30.5t42.5 112.5l200 1139q20 121 78 204t141 123t176 52t201 0l52 -8l-56 -307q-47 18 -100 18q-78 0 -105.5 -30.5t-41.5 -112.5l-201 -1139q-20 -121 -77.5 -204t-140.5 -123t-176.5 -52t-201.5 0l-49 8z" glyph-name="integral" horiz-adv-x="880" unicode="∫"/><glyph d="M279 637q29 188 151.5 323.5t298.5 135.5q86 0 160 -37t116 -80t92 -80t93 -37q59 0 98 57.5t51 135.5h287q-33 -197 -153.5 -328t-301.5 -131q-90 0 -164.5 37t-115.5 80t-89 79.5t-91 36.5q-115 0 -146 -192h-286zM178 72q29 186 153 322t300 136q86 0 159.5 -36.5 t115.5 -79.5t91.5 -80t92.5 -37q61 0 99 56.5t50 135.5h287q-31 -197 -152 -327.5t-303 -130.5q-90 0 -165 36.5t-114.5 79.5t-88 80t-93.5 37q-115 0 -145 -192h-287z" glyph-name="approxequal" horiz-adv-x="1605" unicode="≈"/><glyph d="M1307 676h-316l-127 -225h404l-56 -308h-522l-127 -225l-282 51l98 174h-191l56 308h311l127 225h-399l55 307h518l135 236l283 -52l-107 -184h195z" glyph-name="notequal" horiz-adv-x="1351" unicode="≠"/><glyph d="M1260 1106l-48 -266l-542 -113l504 -113l-48 -266l-852 277l35 204zM1069 20h-901l43 246h901z" glyph-name="lessequal" horiz-adv-x="1228" unicode="≤"/><glyph d="M311 840l47 266l852 -277l-34 -204l-951 -277l47 266l545 113zM1069 20h-901l43 246h901z" glyph-name="greaterequal" horiz-adv-x="1228" unicode="≥"/><glyph d="M190 729l560 705h122l314 -705l-565 -729h-123zM932 729l-166 445l-322 -445l162 -467z" glyph-name="lozenge" horiz-adv-x="1118" unicode="◊"/><glyph d="M1153 1434h410l-998 -1434h-401l401 528l-313 906h410l149 -557z" glyph-name="Y.aalt" horiz-adv-x="1323"/><glyph d="M1024 1044h356l-184 -1044h-356l18 109q-115 -129 -336 -129q-217 0 -312 161.5t-56 384.5q41 227 195.5 383t375.5 156q190 0 281 -123zM940 522.5q18 102.5 -25 174t-143 71.5q-98 0 -170 -71.5t-90 -174t28 -175.5t146 -73q98 0 167 73t87 175.5z" glyph-name="a.aalt" horiz-adv-x="1306"/><glyph d="M20 0l476 1434h381l153 -914l473 914h381l-29 -1434h-356l57 975l-524 -975h-188l-180 975l-287 -975h-357z" glyph-name="M.aalt" horiz-adv-x="1875"/><glyph d="M1737 0h-512l-189 553l-385 -553h-512l252 1434h369l-172 -979l461 589h147l252 -589l172 979h369z" glyph-name="W.aalt" horiz-adv-x="1875"/><glyph d="M193 1044h380l86 -600l302 600h378l-567 -985q-164 -285 -332 -407.5t-352 -122.5q-70 0 -147 20l53 308q51 -23 115 -23q104 0 175.5 74t139.5 201z" glyph-name="y.aalt" horiz-adv-x="1163"/><glyph d="M1278 1208l-61 -356l-578 -186l510 -187l-62 -356l-831 399l51 287z" glyph-name="less.aalt" horiz-adv-x="1228"/><glyph d="M315 852l62 356l831 -399l-51 -287l-971 -399l62 356l579 187z" glyph-name="greater.aalt" horiz-adv-x="1228"/><glyph d="M1329 778h-1044l55 307h1044zM1235 246h-1045l56 307h1044z" glyph-name="equal.aalt" horiz-adv-x="1339"/><glyph d="M1087 543h-860l52 286h860z" glyph-name="hyphen.aalt" horiz-adv-x="1122"/><glyph d="M1098 1577h-287l-293 -1659h287l-53 -307h-656l402 2273h655z" glyph-name="bracketleft.aalt" horiz-adv-x="851"/><glyph d="M633 1696l170 -1850l-336 -57l-168 1849z" glyph-name="backslash.aalt" horiz-adv-x="837"/><glyph d="M598 1577h-287l56 307h655l-401 -2273h-656l53 307h287z" glyph-name="bracketright.aalt" horiz-adv-x="851"/><glyph d="M831 1114q-20 -119 -79.5 -211t-139.5 -141q135 -117 95 -359l-50 -284q-23 -119 24.5 -158t174.5 -39l45 2l-51 -286q-160 -23 -262 -23q-190 0 -272.5 95t-43.5 315l66 376q45 260 -188 261l36 200q233 0 279 260l63 359q39 215 156 309t305 94q45 0 108.5 -6 t104.5 -10l41 -6l-51 -287q-27 2 -45 2q-127 0 -186.5 -38t-79.5 -155z" glyph-name="braceleft.aalt" horiz-adv-x="946"/><glyph d="M508 1114l49 270q20 117 -27 155t-174 38l-45 -2l51 287q160 23 263 22q188 0 272 -94t45 -309l-63 -359q-45 -260 188 -260l-37 -200q-233 0 -278 -261l-66 -376q-39 -219 -155.5 -314.5t-307.5 -95.5q-45 0 -108.5 6t-104.5 10l-41 7l51 286q27 -2 46 -2q127 0 186 39 t82 158l49 284q41 242 221 359q-63 49 -89.5 141t-6.5 211z" glyph-name="braceright.aalt" horiz-adv-x="946"/><glyph d="M516 -328h-369l369 2089h369z" glyph-name="bar.aalt" horiz-adv-x="778"/><glyph d="M422 229l-178 217l280 240l-196 240l256 217l196 -240l281 240l178 -217l-281 -240l197 -240l-256 -217l-194 240z" glyph-name="multiply.aalt" horiz-adv-x="1239"/><glyph d="M1128 543h-901l52 286h901z" glyph-name="minus.aalt" horiz-adv-x="1163"/><glyph d="M786.5 932q-67.5 0 -106.5 48t-27 116q10 68 67.5 116t125 48t106.5 -48.5t29 -115.5q-12 -68 -69.5 -116t-125 -48zM1210 543h-983l52 286h983zM643 113q-68 0 -107.5 48t-27.5 115.5t68.5 115.5t124 48t107.5 -48t27.5 -115.5t-68.5 -115.5t-124 -48z" glyph-name="divide.aalt" horiz-adv-x="1245"/><glyph d="M1108 1720q-133 -156 -256 -430t-176 -575q-51 -332 -28.5 -603.5t97.5 -439.5h-354q-92 160 -114.5 450t30.5 593t176 580.5t271 424.5h354z" glyph-name="parenleft.aalt" horiz-adv-x="827"/><glyph d="M190 1720h355q94 -147 118.5 -424.5t-28.5 -580.5q-53 -307 -178 -596t-275 -447h-354q135 168 260 454t178 589q49 328 25.5 588.5t-101.5 416.5z" glyph-name="parenright.aalt" horiz-adv-x="827"/><glyph d="M-23 -174l822 1849l317 -57l-823 -1849z" glyph-name="slash.aalt" horiz-adv-x="837"/><glyph d="M948.5 1454q282.5 0 422.5 -202.5t83 -534.5t-270 -534.5t-495.5 -202.5t-422 202.5t-82 534.5t269.5 534.5t494.5 202.5zM743 287q125 0 215.5 112.5t126.5 317.5q35 203 -15 316.5t-175 113.5t-216 -113.5t-126 -316.5q-37 -203 14 -316.5t176 -113.5z" glyph-name="zero.aalt" horiz-adv-x="1384"/><glyph d="M403 1126l54 308h598l-252 -1434h-361l199 1126h-238z" glyph-name="one.tnum" horiz-adv-x="1261"/><glyph d="M270 1004q55 201 222 325.5t388.5 124.5t353.5 -121t99 -311q-23 -135 -117 -238.5t-253 -220.5l-363 -264h612l-53 -299h-1073l53 299l645 467q96 70 136.5 117t50.5 100q14 80 -30 126t-120 46q-166 0 -225 -211z" glyph-name="two.tnum" horiz-adv-x="1261"/><glyph d="M143 403l349 60q-16 -90 38 -141.5t144 -51.5q88 0 150.5 49.5t74.5 122.5q14 76 -34 126t-132 50h-158l50 279h157q70 0 123 39t64 96q10 55 -29 93t-106 38q-70 0 -123.5 -42t-75.5 -117l-326 59q53 174 208 282.5t366 108.5q215 0 341 -110.5t95 -284.5 q-18 -109 -89 -188.5t-159 -110.5q111 -51 157 -142.5t25 -207.5q-33 -190 -212 -310t-429 -120q-236 0 -357.5 111t-111.5 312z" glyph-name="three.tnum" horiz-adv-x="1261"/><glyph d="M948 1434h365l-154 -881h164l-55 -307h-164l-43 -246h-365l43 246h-659l55 307zM866 965l-331 -412h260z" glyph-name="four.aalt" horiz-adv-x="1261"/><glyph d="M459 1434h893l-52 -299h-616l-68 -242q90 57 254 57q219 0 338 -133t82 -338q-37 -219 -225 -359t-424 -140q-190 0 -320.5 96t-156.5 262l371 63q4 -51 53 -86.5t114 -35.5q84 0 148.5 56t77 130t-32.5 132t-131 58q-127 0 -197 -96l-313 57z" glyph-name="five.aalt" horiz-adv-x="1261"/><glyph d="M852 950q82 0 161 -30.5t142.5 -88t94 -151.5t10.5 -209q-39 -219 -219.5 -355t-411.5 -136q-238 0 -371 145t-92 375q35 207 264 479l422 485l338 -61l-426 -463q35 10 88 10zM678 283q82 0 149.5 55t82 137t-34 137.5t-132.5 55.5q-82 0 -149.5 -53.5t-81.5 -135.5 q-14 -84 35 -140t131 -56z" glyph-name="six.aalt" horiz-adv-x="1261"/><glyph d="M365 1434h1024l-50 -287l-708 -1167l-336 61l663 1085h-647z" glyph-name="seven.aalt" horiz-adv-x="1261"/><glyph d="M1075 760q115 -51 163 -142.5t28 -207.5q-33 -190 -213.5 -310t-427.5 -120q-246 0 -382.5 118.5t-103.5 307.5q43 248 318 354q-72 33 -114 112.5t-24 188.5q31 172 193 282.5t375 110.5t336 -110.5t92 -284.5q-18 -109 -87 -188.5t-153 -110.5zM661.5 1030 q-10.5 -57 24.5 -95t102.5 -38t116.5 38t59.5 95t-25.5 95t-103.5 38t-115.5 -38t-58.5 -95zM676 270q88 0 155.5 51.5t81.5 127.5q12 74 -38 121.5t-138 47.5t-152.5 -48t-76.5 -121q-14 -76 34 -127.5t134 -51.5z" glyph-name="eight.aalt" horiz-adv-x="1261"/><glyph d="M664 494q-178 0 -311.5 129t-94.5 350q37 219 217 355t412 136q238 0 371 -145t92 -375q-35 -207 -265 -479l-421 -485l-338 61l426 463q-35 -10 -88 -10zM838 1161q-82 0 -149.5 -55t-82 -137t34.5 -137.5t133 -55.5q82 0 148.5 53.5t81.5 135.5q14 84 -35 140t-131 56z " glyph-name="nine.aalt" horiz-adv-x="1261"/><glyph d="M1272 983l-51 -287h-303l-33 -184h-328l33 184h-303l51 287h303l35 205h328l-35 -205h303zM1122 143h-934l52 287h934z" glyph-name="plusminus.aalt" horiz-adv-x="1261"/><glyph d="M1108 543h-1045l52 286h1044z" glyph-name="endash.aalt" horiz-adv-x="978"/><glyph d="M2111 543h-2048l52 286h2048z" glyph-name="emdash.aalt" horiz-adv-x="1982"/><glyph d="M172 622.5q33 186.5 173 292t286 105.5q244 0 385 -256q229 256 475 256q145 0 248.5 -105.5t71 -292t-173 -292t-285.5 -105.5q-246 0 -385 256q-233 -256 -475 -256q-145 0 -249 105.5t-71 292zM1425 811q-68 0 -130 -43t-165 -145q68 -102 115 -145.5t115 -43.5 q70 0 129 58.5t71.5 130t-26.5 130t-109 58.5zM422 622.5q-12 -71.5 26.5 -130t108.5 -58.5q68 0 128 42t167 147q-70 104 -116 146t-113 42q-70 0 -129.5 -58.5t-71.5 -130z" glyph-name="infinity.aalt" horiz-adv-x="1763"/><glyph d="M297 739q29 188 151.5 323.5t299.5 135.5q86 0 159.5 -37t115.5 -80t92 -79.5t93 -36.5q59 0 98.5 57t51.5 135h287q-33 -197 -154 -328t-301 -131q-90 0 -165 37t-116 80t-89 80t-91 37q-115 0 -145 -193h-287zM197 174q29 186 152.5 322.5t299.5 136.5q86 0 160 -37 t116 -80t91 -80t92 -37q61 0 99 56.5t50 136.5h287q-31 -197 -151.5 -328t-302.5 -131q-90 0 -165 37t-115 80t-88 80t-93 37q-115 0 -146 -193h-286z" glyph-name="approxequal.aalt" horiz-adv-x="1605"/><glyph d="M1325 778h-315l-127 -225h403l-55 -307h-522l-127 -226l-283 52l98 174h-190l55 307h311l127 225h-399l55 307h518l136 236l282 -51l-106 -185h194z" glyph-name="notequal.aalt" horiz-adv-x="1351"/><glyph d="M1278 1208l-47 -266l-543 -113l504 -112l-47 -266l-852 276l35 205zM1087 123h-901l43 246h901z" glyph-name="lessequal.aalt" horiz-adv-x="1228"/><glyph d="M330 942l47 266l852 -276l-35 -205l-950 -276l47 266l545 112zM1087 123h-901l43 246h901z" glyph-name="greaterequal.aalt" horiz-adv-x="1228"/><glyph d="M618 1118h332l-370 -456l208 -457h-331l-250 457z" glyph-name="guilsinglleft.aalt" horiz-adv-x="841"/><glyph d="M289 1118h332l247 -456l-409 -457h-332l369 457z" glyph-name="guilsinglright.aalt" horiz-adv-x="841"/><glyph d="M207 662l411 456h332l-370 -456l208 -457h-331zM809 662l412 456h331l-372 -456l211 -457h-332z" glyph-name="guillemotleft.aalt" horiz-adv-x="1443"/><glyph d="M1223 1118l247 -456l-409 -457h-332l369 457l-207 456h332zM621 1118l247 -456l-409 -457h-332l371 457l-209 456h332z" glyph-name="guillemotright.aalt" horiz-adv-x="1443"/><glyph d="M883 1505l73 -286h-225l-156 286h308zM1024 1044h356l-184 -1044h-356l18 109q-115 -129 -336 -129q-217 0 -312 161.5t-56 384.5q41 227 195.5 383t375.5 156q190 0 281 -123zM940 522.5q18 102.5 -25 174t-143 71.5q-98 0 -170 -71.5t-90 -174t28 -175.5t146 -73 q98 0 167 73t87 175.5z" glyph-name="agrave.aalt" horiz-adv-x="1306"/><glyph d="M889 1505h328l-254 -286h-246zM1024 1044h356l-184 -1044h-356l18 109q-115 -129 -336 -129q-217 0 -312 161.5t-56 384.5q41 227 195.5 383t375.5 156q190 0 281 -123zM940 522.5q18 102.5 -25 174t-143 71.5q-98 0 -170 -71.5t-90 -174t28 -175.5t146 -73q98 0 167 73 t87 175.5z" glyph-name="aacute.aalt" horiz-adv-x="1306"/><glyph d="M651 1196h-225l369 328h204l254 -328h-225l-164 139zM1024 1044h356l-184 -1044h-356l18 109q-115 -129 -336 -129q-217 0 -312 161.5t-56 384.5q41 227 195.5 383t375.5 156q190 0 281 -123zM940 522.5q18 102.5 -25 174t-143 71.5q-98 0 -170 -71.5t-90 -174t28 -175.5 t146 -73q98 0 167 73t87 175.5z" glyph-name="acircumflex.aalt" horiz-adv-x="1306"/><glyph d="M424 1382q12 76 75.5 130.5t139.5 54.5t121 -53.5t33 -131.5q-14 -76 -78 -130t-139.5 -54t-120.5 54t-31 130zM956 1382q12 76 76 130.5t139.5 54.5t120.5 -53.5t33 -131.5q-14 -76 -77.5 -130t-139.5 -54t-121 54t-31 130zM1024 1044h356l-184 -1044h-356l18 109 q-115 -129 -336 -129q-217 0 -312 161.5t-56 384.5q41 227 195.5 383t375.5 156q190 0 281 -123zM940 522.5q18 102.5 -25 174t-143 71.5q-98 0 -170 -71.5t-90 -174t28 -175.5t146 -73q98 0 167 73t87 175.5z" glyph-name="adieresis.aalt" horiz-adv-x="1306"/><glyph d="M825 1114q-106 0 -169.5 66.5t-45.5 173.5q20 106 105.5 174.5t193.5 68.5q104 0 165 -68.5t40 -174.5q-18 -106 -101.5 -173t-187.5 -67zM850 1278q33 0 58.5 21.5t29.5 54.5q6 35 -11.5 57.5t-50 22.5t-58 -22.5t-32.5 -57.5q-4 -33 13.5 -54.5t50.5 -21.5zM1024 1044 h356l-184 -1044h-356l18 109q-115 -129 -336 -129q-217 0 -312 161.5t-56 384.5q41 227 195.5 383t375.5 156q190 0 281 -123zM940 522.5q18 102.5 -25 174t-143 71.5q-98 0 -170 -71.5t-90 -174t28 -175.5t146 -73q98 0 167 73t87 175.5z" glyph-name="aring.aalt" horiz-adv-x="1306"/><glyph d="M496 1219l43 245h696l-43 -245h-696zM1024 1044h356l-184 -1044h-356l18 109q-115 -129 -336 -129q-217 0 -312 161.5t-56 384.5q41 227 195.5 383t375.5 156q190 0 281 -123zM940 522.5q18 102.5 -25 174t-143 71.5q-98 0 -170 -71.5t-90 -174t28 -175.5t146 -73 q98 0 167 73t87 175.5z" glyph-name="amacron.aalt" horiz-adv-x="1306"/><glyph d="M975 1505h246q-25 -137 -127.5 -222t-252 -85t-223 85t-49.5 222h246q-16 -82 64 -82t96 82zM1024 1044h356l-184 -1044h-356l18 109q-115 -129 -336 -129q-217 0 -312 161.5t-56 384.5q41 227 195.5 383t375.5 156q190 0 281 -123zM940 522.5q18 102.5 -25 174 t-143 71.5q-98 0 -170 -71.5t-90 -174t28 -175.5t146 -73q98 0 167 73t87 175.5z" glyph-name="abreve.aalt" horiz-adv-x="1306"/><glyph d="M1024 1044h356l-184 -1044q-6 -4 -18.5 -10t-44 -27.5t-56 -43t-47 -52.5t-26.5 -57q-14 -66 59 -72q45 -4 84 6v-152q-59 -29 -156 -28q-102 0 -162.5 46t-44.5 140q29 147 222 250h-166l18 109q-115 -129 -336 -129q-217 0 -312 161.5t-56 384.5q41 227 195.5 383 t375.5 156q190 0 281 -123zM940 522.5q18 102.5 -25 174t-143 71.5q-98 0 -170 -71.5t-90 -174t28 -175.5t146 -73q98 0 167 73t87 175.5z" glyph-name="aogonek.aalt" horiz-adv-x="1306"/><glyph d="M1253 829l-51 -286h-323l-62 -348h-328l62 348h-324l52 286h323l62 349h327l-61 -349h323z" glyph-name="plus.aalt" horiz-adv-x="1236"/><glyph d="M877 1454q84 0 134 -60.5t36 -144.5q-16 -84 -87 -144.5t-155 -60.5t-133 60.5t-35 144.5t85 144.5t155 60.5zM567 -20q-207 0 -332.5 103t-93.5 294q14 84 52 151.5t84.5 107.5t98.5 74.5t96 57.5t78 52.5t44 60.5q0 4 9 31.5t9 29.5h340q0 -6 -2 -12l-2 -31q0 -4 -2 -8 v-4q-10 -100 -73.5 -170t-136 -102.5t-138.5 -86t-78 -122.5q-12 -66 18.5 -103t84.5 -37q51 0 96 35t63 92l340 -61q-55 -166 -213 -259t-342 -93z" glyph-name="questiondown.aalt" horiz-adv-x="888"/><glyph d="M555 1044q-84 0 -134 60.5t-34 144.5q14 84 85 144.5t155 60.5t134 -60.5t36 -144.5q-16 -84 -87 -144.5t-155 -60.5zM360 942h353l-158 -942h-369z" glyph-name="exclamdown.aalt" horiz-adv-x="550"/><glyph d="M1026 1565h-225l368 327h205l254 -327h-225l-164 139zM1737 0h-512l-189 553l-385 -553h-512l252 1434h369l-172 -979l461 589h147l252 -589l172 979h369z" glyph-name="Wcircumflex.aalt" horiz-adv-x="1875"/><glyph d="M1257 1874l74 -287h-225l-156 287h307zM1737 0h-512l-189 553l-385 -553h-512l252 1434h369l-172 -979l461 589h147l252 -589l172 979h369z" glyph-name="Wgrave.aalt" horiz-adv-x="1875"/><glyph d="M1264 1874h327l-254 -287h-245zM1737 0h-512l-189 553l-385 -553h-512l252 1434h369l-172 -979l461 589h147l252 -589l172 979h369z" glyph-name="Wacute.aalt" horiz-adv-x="1875"/><glyph d="M797 1751q12 76 75.5 130t139 54t121 -53t32.5 -131q-14 -76 -77.5 -130t-139.5 -54t-120.5 54t-30.5 130zM1329 1751q12 76 75.5 130t139.5 54t121 -53t33 -131q-14 -76 -78 -130t-139.5 -54t-120.5 54t-31 130zM1737 0h-512l-189 553l-385 -553h-512l252 1434h369 l-172 -979l461 589h147l252 -589l172 979h369z" glyph-name="Wdieresis.aalt" horiz-adv-x="1875"/><glyph d="M981 1874h328l-254 -287h-246zM1153 1434h410l-998 -1434h-401l401 528l-313 906h410l149 -557z" glyph-name="Yacute.aalt" horiz-adv-x="1323"/><glyph d="M743 1565h-225l369 327h205l254 -327h-226l-164 139zM1153 1434h410l-998 -1434h-401l401 528l-313 906h410l149 -557z" glyph-name="Ycircumflex.aalt" horiz-adv-x="1323"/><glyph d="M514 1751q12 76 75.5 130t139.5 54t121 -53t33 -131q-14 -76 -78 -130t-139.5 -54t-120.5 54t-31 130zM1047 1751q12 76 75.5 130t139 54t120.5 -53t33 -131q-14 -76 -77.5 -130t-139.5 -54t-120.5 54t-30.5 130zM1153 1434h410l-998 -1434h-401l401 528l-313 906h410 l149 -557z" glyph-name="Ydieresis.aalt" horiz-adv-x="1323"/></font>
</defs>
</svg>
