<?xml version="1.0" standalone="no"?>
<!DOCTYPE svg PUBLIC "-//W3C//DTD SVG 1.1//EN" "http://www.w3.org/Graphics/SVG/1.1/DTD/svg11.dtd">
<svg xmlns="http://www.w3.org/2000/svg"><metadata>This SVG WebFont was generated by YouWorkForThem.
Â©2020 Typekiln.</metadata><defs><font horiz-adv-x="1105" id="ywftsvg"><font-face ascent="1638" bbox="-430 -485 2134 1933" cap-height="1434" descent="-410" font-family="" font-stretch="normal" font-weight="100" panose-1="0 0 0 0 0 0 0 0 0 0" underline-position="0" underline-thickness="0" unicode-range="U+000D-FB02" units-per-em="2048" x-height="1012"/><missing-glyph d="M94 -147v1728h828v-1728h-828zM242 1434v-76h381v-39h-91v-76h242v76h-76v39h76v76h-532zM242 1319v-191h532v78h-276v113h-256zM317 1243h105v-37h-105v37zM698 1094v-228h-456v-75h532v303h-76zM242 1094v-78h229v-37h-229v-78h307v115h35v-115h78v193h-420zM526 756 v-78h172v-37h-381v37h172v78h-247v-193h532v78l-26 37l26 39v39h-248zM242 416v-191h532v191h-532zM317 340h381v-39h-381v39zM242 190v-190h532v76h-457v39h457v75h-532z" horiz-adv-x="1015"/><glyph d="M70 979v33h163v182q0 68 5.5 110t23 91t59 73.5t107.5 24.5l72 -4v-35q-100 16 -154 -12q-76 -41 -76 -209v-221h402v-1012h-37v979h-365v-979h-37v979h-163zM655 1372q-43 0 -43 41t43 41q39 0 39 -41t-39 -41z" glyph-name="uniFB01" horiz-adv-x="841" unicode="fi"/><glyph d="M70 979v33h163v184q0 68 5.5 110t23 91t59 73.5t107.5 24.5h254v-1495h-39v1460h-219q-72 0 -113 -48t-41 -177v-223h217v-33h-217v-979h-37v979h-163z" glyph-name="uniFB02" horiz-adv-x="849" unicode="fl"/><glyph d="M94 -147v1728h828v-1728h-828zM242 1434v-76h381v-39h-91v-76h242v76h-76v39h76v76h-532zM242 1319v-191h532v78h-276v113h-256zM317 1243h105v-37h-105v37zM698 1094v-228h-456v-75h532v303h-76zM242 1094v-78h229v-37h-229v-78h307v115h35v-115h78v193h-420zM526 756 v-78h172v-37h-381v37h172v78h-247v-193h532v78l-26 37l26 39v39h-248zM242 416v-191h532v191h-532zM317 340h381v-39h-381v39zM242 190v-190h532v76h-457v39h457v75h-532z" glyph-name=".notdef" horiz-adv-x="1015"/><glyph glyph-name="glyph1" horiz-adv-x="0"/><glyph glyph-name="glyph1" horiz-adv-x="0"/><glyph glyph-name="space" horiz-adv-x="552" unicode=" "/><glyph d="M289 258h-37l-2 1176h41zM270 -25q-25 0 -43 17.5t-18 44t18.5 44t42.5 17.5q27 0 44.5 -17.5t17.5 -44t-17.5 -44t-44.5 -17.5z" glyph-name="exclam" horiz-adv-x="540" unicode="!"/><glyph d="M180 987l-4 467h41l-4 -467h-33zM471 1454h41l-4 -467h-33z" glyph-name="quotedbl" horiz-adv-x="688" unicode="&quot;"/><glyph d="M375 -4l37 383h-351l7 35h348l47 524h-350l6 35h348l33 377h39l-33 -377h452l35 377h39l-35 -377h344l-2 -35h-344l-49 -524h348l-4 -35h-346l-37 -383h-39l37 383h-454l-37 -383h-39zM502 938l-49 -524h454l49 524h-454z" glyph-name="numbersign" horiz-adv-x="1402" unicode="#"/><glyph d="M147 369l39 8q25 -156 141.5 -253t274.5 -108v699q-82 23 -130 38t-113.5 46.5t-100.5 68.5t-61.5 95.5t-26.5 132.5q0 166 129 261t303 97v123h37v-123q145 -10 256 -99t141 -241l-43 -8q-27 137 -125 220t-229 91v-672q68 -18 97.5 -26t90 -29.5t89 -39t69.5 -47.5 t60.5 -63.5t35 -80.5t15.5 -103q0 -174 -137.5 -274t-319.5 -102v-123h-37v123q-172 10 -297 113.5t-158 275.5zM211 1098q0 -80 29.5 -138.5t92 -97.5t120 -60.5t149.5 -45.5v661q-160 -4 -275.5 -88t-115.5 -231zM1055 356q0 55 -14.5 101.5t-48.5 80t-65.5 57t-88 45.5 t-94 34t-105.5 31v-689q162 2 289 92t127 248z" glyph-name="dollar" horiz-adv-x="1243" unicode="$"/><glyph d="M635 1165q0 -129 -71.5 -208.5t-198.5 -79.5t-199 79.5t-72 208.5t72 209t199 80t198.5 -80t71.5 -209zM1204 1452l35 -18l-1032 -1452l-35 18zM135 1165.5q0 -112.5 61.5 -182.5t168 -70t168 70t61.5 182.5t-61.5 182t-168 69.5t-168 -69.5t-61.5 -182zM1044.5 557 q126.5 0 198.5 -80t72 -209t-72 -208.5t-198.5 -79.5t-198.5 79.5t-72 208.5t72 209t198.5 80zM1044.5 16q106.5 0 168 70t61.5 180q0 115 -61.5 184.5t-168 69.5t-168 -69.5t-61.5 -184.5q0 -111 61.5 -180.5t168 -69.5z" glyph-name="percent" horiz-adv-x="1409" unicode="%"/><glyph d="M1090 215l182 -199l-31 -24l-178 194q-84 -94 -203 -150t-250 -56q-186 0 -334.5 110.5t-148.5 296.5q0 78 31.5 143.5t91 114.5t115 82t131.5 68q-221 209 -222 362q0 131 100.5 214t241.5 83q139 0 238.5 -79t99.5 -199q0 -70 -44 -137.5t-112.5 -118t-129 -83 t-115.5 -53.5l510 -544q129 184 129 534v37h39v-70q0 -311 -141 -526zM315 1155q0 -141 211 -346q55 23 114.5 54.5t125 78.5t106.5 108.5t41 123.5q0 106 -82.5 174.5t-214.5 68.5q-127 0 -214 -73.5t-87 -188.5zM608 16q113 0 234 52.5t194 140.5l-518 559 q-55 -29 -68.5 -36t-64.5 -36.5t-69.5 -45t-55.5 -49.5t-51 -61.5t-27.5 -68.5t-13.5 -84q0 -172 139 -271.5t301 -99.5z" glyph-name="ampersand" horiz-adv-x="1337" unicode="&amp;"/><glyph d="M176 1454h43l-4 -467h-35z" glyph-name="quotesingle" horiz-adv-x="395" unicode="'"/><glyph d="M524 1663q-106 -170 -180 -462t-74 -607t74 -600t180 -445h-32q-111 158 -187 447t-76 598q0 307 76 604t187 465h32z" glyph-name="parenleft" horiz-adv-x="610" unicode="("/><glyph d="M86 1663h33q111 -168 186.5 -465t75.5 -604q0 -309 -76 -598t-186 -447h-33q106 160 180 445t74 600t-74 607t-180 462z" glyph-name="parenright" horiz-adv-x="610" unicode=")"/><glyph d="M756 1272l-269 -137l269 -142l-23 -37l-254 158l10 -297h-40l12 297l-262 -158l-23 37l275 140l-275 139l23 37l260 -156l-10 301h40l-10 -301l254 156z" glyph-name="asterisk" horiz-adv-x="931" unicode="*"/><glyph d="M987 651v-37h-395v-413h-41v413h-395v37h395v414h41v-414h395z" glyph-name="plus" horiz-adv-x="1142" unicode="+"/><glyph d="M190 184h43l-73 -473h-29z" glyph-name="comma" horiz-adv-x="425" unicode=","/><glyph d="M688 614h-532v37h532v-37z" glyph-name="hyphen" horiz-adv-x="843" unicode="-"/><glyph d="M233.5 -4q-16.5 0 -28.5 11t-12 30q0 16 12 28.5t28.5 12.5t28.5 -12.5t12 -28.5q0 -18 -12 -29.5t-28.5 -11.5z" glyph-name="period" horiz-adv-x="466" unicode="."/><glyph d="M53 -195l535 1735l39 -8l-535 -1735z" glyph-name="slash" horiz-adv-x="679" unicode="/"/><glyph d="M643 1454q141 0 244.5 -65.5t158 -177t79 -233.5t24.5 -261t-24.5 -261t-79 -233.5t-158 -177t-244.5 -65.5q-115 0 -205 45t-146 116.5t-92 170t-50.5 197.5t-14.5 207.5t14.5 208t50.5 198t92 170t146 116.5t205 45zM643 16q119 0 207 53.5t136 128t77 177t37 181.5 t8 161t-8 160.5t-37 181t-77 177.5t-136 128t-207 53t-207 -53t-136 -128t-77.5 -177.5t-38 -182t-8.5 -159.5t8.5 -160t38 -182.5t77.5 -177t136 -128t207 -53.5z" glyph-name="zero" horiz-adv-x="1284" unicode="0"/><glyph d="M143 1397v37h277v-1434h-41v1397h-236z" glyph-name="one" horiz-adv-x="710" unicode="1"/><glyph d="M160 1044q10 174 139 292t322 118q190 0 322 -121t132 -315q0 -254 -237 -455l-627 -526h866v-37h-925v39l655 549q229 190 229 430q0 176 -121.5 287.5t-291.5 111.5q-178 0 -295 -108.5t-127 -270.5z" glyph-name="two" horiz-adv-x="1212" unicode="2"/><glyph d="M135 408l39 6q0 -178 120 -288t296 -110q172 0 297 106.5t125 276.5q0 154 -125 247t-287 93h-88v37h88q135 0 241.5 90t106.5 219q0 147 -105.5 239.5t-252.5 92.5q-150 0 -246 -98t-92 -246l-41 6q0 172 110.5 273.5t268.5 101.5q160 0 278.5 -99.5t118.5 -271.5 q0 -104 -68.5 -194t-195.5 -129q137 -27 233.5 -126t96.5 -235q0 -197 -140.5 -308t-322.5 -111q-180 0 -316.5 113.5t-138.5 314.5z" glyph-name="three" horiz-adv-x="1200" unicode="3"/><glyph d="M836 1434h41v-988h192v-36h-192v-410h-41v410h-717v36zM836 1368l-668 -922h668v922z" glyph-name="four" horiz-adv-x="1175" unicode="4"/><glyph d="M252 1434h723v-37h-690l-33 -660q61 84 166.5 133.5t216.5 49.5q188 0 316 -140.5t128 -339.5q0 -201 -132 -330.5t-331 -129.5q-168 0 -290.5 97t-165.5 261l41 8q43 -156 152.5 -243t258.5 -87q178 0 302 119t124 307q0 186 -119.5 313.5t-293.5 127.5 q-109 0 -207.5 -52.5t-163.5 -148.5l-43 14z" glyph-name="five" horiz-adv-x="1198" unicode="5"/><glyph d="M623 946q215 0 352 -146.5t137 -342.5q0 -207 -139 -342t-348 -135q-203 0 -346.5 139t-143.5 338q0 182 160 407l418 600l43 -10l-434 -614q53 49 137 77.5t164 28.5zM622.5 16q188.5 0 318.5 126t130 315q0 190 -130 321t-318 131q-186 0 -317.5 -130t-131.5 -322 q0 -190 130 -315.5t318.5 -125.5z" glyph-name="six" horiz-adv-x="1230" unicode="6"/><glyph d="M119 1434h735v-37l-537 -1405l-38 8l536 1397h-696v37z" glyph-name="seven" horiz-adv-x="989" unicode="7"/><glyph d="M696 760q117 -23 216.5 -124t99.5 -261q0 -178 -128 -286.5t-310.5 -108.5t-310.5 108.5t-128 286.5q0 160 98.5 261t215.5 124q-109 23 -189 115t-80 223q0 156 115 256t278.5 100t278.5 -100.5t115 -255.5q0 -131 -81 -222t-190 -116zM221 1100q0 -143 107.5 -233.5 t244.5 -90.5q139 0 247 90t108 234q0 137 -103.5 227t-251 90t-250 -90t-102.5 -227zM573.5 16q163.5 0 281.5 98.5t118 260.5q0 166 -122 265t-277.5 99t-276.5 -98t-121 -266q0 -162 117 -260.5t280.5 -98.5z" glyph-name="eight" horiz-adv-x="1146" unicode="8"/><glyph d="M608 481q-215 0 -352 146.5t-137 343.5q0 207 139 342t348 135q203 0 346.5 -139.5t143.5 -337.5q0 -182 -160 -408l-418 -600l-43 10l434 615q-53 -49 -137 -78t-164 -29zM608.5 1411q-188.5 0 -318.5 -126t-130 -314q0 -190 130 -321.5t318 -131.5q186 0 317.5 130 t131.5 323q0 190 -130 315t-318.5 125z" glyph-name="nine" horiz-adv-x="1230" unicode="9"/><glyph d="M233.5 893q-16.5 0 -28.5 12.5t-12 28.5t12 28.5t28.5 12.5t28.5 -12.5t12 -28.5t-12 -28.5t-28.5 -12.5zM233.5 37q-16.5 0 -28.5 12t-12 28.5t12 29t28.5 12.5t28.5 -12.5t12 -29t-12 -28.5t-28.5 -12z" glyph-name="colon" horiz-adv-x="466" unicode=":"/><glyph d="M215 893q-16 0 -28.5 12.5t-12.5 28.5t12.5 28.5t28.5 12.5t28.5 -12.5t12.5 -28.5t-12.5 -28.5t-28.5 -12.5zM195 178h43l-74 -471h-33z" glyph-name="semicolon" horiz-adv-x="387" unicode=";"/><glyph d="M995 1053v-43l-731 -365l731 -364v-43l-770 387v41z" glyph-name="less" horiz-adv-x="1220" unicode="&lt;"/><glyph d="M958 815h-782v37h782v-37zM958 473h-782v37h782v-37z" glyph-name="equal" horiz-adv-x="1134" unicode="="/><glyph d="M225 1010v43l770 -387v-41l-770 -387v43l731 364z" glyph-name="greater" horiz-adv-x="1220" unicode=">"/><glyph d="M471 1454q150 0 262.5 -96t112.5 -246q0 -88 -40 -156.5t-97.5 -118t-115.5 -101.5t-98 -131t-40 -179v-168h-41v168q0 92 28.5 166t72.5 120t94 93t94.5 85t73 95t28.5 127q0 131 -100.5 218t-231.5 87q-115 0 -211 -70.5t-129 -195.5l-39 6q35 135 138.5 216t238.5 81z M434.5 -4q-16.5 0 -29 12t-12.5 28.5t12.5 29t29 12.5t28.5 -12.5t12 -29t-12 -28.5t-28.5 -12z" glyph-name="question" horiz-adv-x="964" unicode="?"/><glyph d="M1110 1454q264 0 487.5 -130t351.5 -353t128 -490q0 -111 -31 -215t-111 -187t-194 -83q-119 0 -182.5 82t-63.5 205q-49 -135 -157.5 -211t-254.5 -76q-197 0 -320.5 145.5t-123.5 346t123 346t321 145.5q145 0 251 -74t159 -209v262h41v-686q0 -100 55.5 -169.5 t155.5 -69.5t170 77.5t95.5 174t25.5 196.5q0 252 -122 467t-337 342t-471 127q-391 0 -657.5 -268t-266.5 -661.5t269.5 -661.5t656.5 -268q328 0 567 186l29 -27q-256 -197 -594 -196q-410 0 -688.5 278.5t-278.5 688t278.5 688t688.5 278.5zM1083 33q190 0 300 129 t110 323q0 197 -109.5 327t-300.5 130q-184 0 -294.5 -134t-110.5 -323q0 -184 112.5 -318t292.5 -134z" glyph-name="at" horiz-adv-x="2220" unicode="@"/><glyph d="M655 1434l545 -1434h-45l-149 397h-742l-151 -397h-43l544 1434h41zM276 434h715l-356 946z" glyph-name="A" horiz-adv-x="1269" unicode="A"/><glyph d="M856 772q121 -29 200 -137.5t79 -247.5q0 -170 -118 -278.5t-304 -108.5h-529v1434h506q182 0 286.5 -91.5t104.5 -250.5q0 -121 -59.5 -204t-165.5 -116zM225 1397v-609h525q127 0 209.5 88.5t82.5 221.5q0 139 -92 219t-252 80h-473zM727 37q158 0 263.5 101.5 t105.5 254.5q0 152 -98.5 255.5t-241.5 103.5h-531v-715h502z" glyph-name="B" horiz-adv-x="1241" unicode="B"/><glyph d="M791 16q180 0 319 84t217 242l43 -8q-84 -174 -234.5 -264t-340.5 -90q-307 0 -485.5 211.5t-178.5 525t178 525.5t486 212q190 0 340.5 -90t234.5 -264l-43 -8q-78 158 -217 241.5t-319 83.5q-285 0 -452 -200.5t-167 -499.5t166 -500t453 -201z" glyph-name="C" horiz-adv-x="1488" unicode="C"/><glyph d="M598 1434q340 0 526.5 -184.5t186.5 -506.5q0 -336 -196.5 -539.5t-516.5 -203.5h-414v1434h414zM610 37q279 0 469.5 191.5t190.5 514.5q0 309 -180.5 481.5t-479.5 172.5h-385v-1360h385z" glyph-name="D" horiz-adv-x="1437" unicode="D"/><glyph d="M971 1397h-746v-668h664v-37h-664v-655h746v-37h-787v1434h787v-37z" glyph-name="E" horiz-adv-x="1114" unicode="E"/><glyph d="M950 1397h-725v-664h660v-37h-660v-696h-41v1434h766v-37z" glyph-name="F" horiz-adv-x="1060" unicode="F"/><glyph d="M1493 696v-73q0 -283 -178 -463t-459 -180q-299 0 -489.5 205.5t-190.5 531.5q0 324 188.5 530.5t485.5 206.5q184 0 335.5 -86t244.5 -246l-41 -8q-88 147 -229.5 225t-309.5 78q-279 0 -456 -196.5t-177 -503.5q0 -309 180.5 -505t462.5 -196q270 0 435 179.5 t157 463.5h-555v37h596z" glyph-name="G" horiz-adv-x="1628" unicode="G"/><glyph d="M1151 1434h41v-1434h-41v678h-926v-678h-41v1434h41v-719h926v719z" glyph-name="H" horiz-adv-x="1376" unicode="H"/><glyph d="M225 0h-41v1434h41v-1434z" glyph-name="I" horiz-adv-x="409" unicode="I"/><glyph d="M858 1434h41v-1041q0 -188 -103.5 -300.5t-283.5 -112.5q-188 0 -302 116.5t-124 302.5l39 9q12 -176 113.5 -284t269.5 -108q164 0 257 102.5t93 262.5v1053z" glyph-name="J" horiz-adv-x="1083" unicode="J"/><glyph d="M500 786l651 -786h-51l-629 758l-246 -262v-496h-41v1434h41v-881l830 881h55z" glyph-name="K" horiz-adv-x="1212" unicode="K"/><glyph d="M225 37h738v-37h-779v1434h41v-1397z" glyph-name="L" horiz-adv-x="1064" unicode="L"/><glyph d="M1352 1434h61v-1434h-43v1378l-557 -1378h-29l-559 1378v-1378h-41v1434h62l553 -1366z" glyph-name="M" horiz-adv-x="1597" unicode="M"/><glyph d="M1163 1434h41v-1434h-39l-940 1362v-1362h-41v1434h39l940 -1360v1360z" glyph-name="N" horiz-adv-x="1388" unicode="N"/><glyph d="M815 1454q301 0 493.5 -216t192.5 -521t-192.5 -521t-493.5 -216t-492.5 216t-191.5 521t191.5 521t492.5 216zM815.5 16q280.5 0 462.5 205t182 496t-182 495.5t-462.5 204.5t-462 -204.5t-181.5 -495.5t181.5 -496t462 -205z" glyph-name="O" horiz-adv-x="1632" unicode="O"/><glyph d="M633 1434q190 0 313 -121t123 -309q0 -186 -123 -303t-313 -117h-408v-584h-41v1434h449zM633 621q170 0 281.5 106.5t111.5 276.5q0 172 -111.5 282.5t-281.5 110.5h-408v-776h408z" glyph-name="P" horiz-adv-x="1179" unicode="P"/><glyph d="M1286 -123l-133 191q-156 -88 -338 -88q-301 0 -492.5 216t-191.5 521t191.5 521t492.5 216t493.5 -216t192.5 -521q0 -195 -84 -363t-233 -266l131 -188zM815 16q170 0 315 84l-221 316l29 22l223 -319q139 94 219 252.5t80 345.5q0 291 -182 495.5t-462.5 204.5 t-462 -204.5t-181.5 -495.5t181 -496t462 -205z" glyph-name="Q" horiz-adv-x="1632" unicode="Q"/><glyph d="M633 1434q190 0 313 -121t123 -309q0 -164 -96 -276t-252 -136l366 -592h-45l-360 586q-16 -2 -49 -2h-408v-584h-41v1434h449zM633 621q170 0 281.5 106.5t111.5 276.5q0 172 -111.5 282.5t-281.5 110.5h-408v-776h408z" glyph-name="R" horiz-adv-x="1173" unicode="R"/><glyph d="M178 1096q0 -129 79 -199t220 -115q43 -14 130 -37.5t138.5 -38t119 -46t105.5 -66.5t65.5 -93.5t27.5 -131.5q0 -184 -139.5 -286.5t-325.5 -102.5q-182 0 -315 104t-168 285l39 8q25 -164 151.5 -262.5t294.5 -98.5q164 0 293 91.5t129 254.5q0 125 -78 194t-217 114 q-43 14 -131 37.5t-139 38t-120 47t-106.5 68.5t-65.5 95.5t-28 135.5q0 174 121 268t295 94q168 0 291 -89t160 -251l-43 -8q-33 145 -141.5 228t-264.5 83q-158 0 -267.5 -83.5t-109.5 -237.5z" glyph-name="S" horiz-adv-x="1177" unicode="S"/><glyph d="M94 1434h1016v-37h-487v-1397h-41v1397h-488v37z" glyph-name="T" horiz-adv-x="1204" unicode="T"/><glyph d="M1083 1434h41v-873q0 -256 -115.5 -418.5t-353 -162.5t-354.5 163.5t-117 417.5v873h41v-887q0 -143 39 -258t138.5 -194t252.5 -79q152 0 251.5 80t138 195t38.5 256v887z" glyph-name="U" horiz-adv-x="1308" unicode="U"/><glyph d="M1118 1434h41l-518 -1434h-55l-516 1434h41l503 -1393z" glyph-name="V" horiz-adv-x="1228" unicode="V"/><glyph d="M1774 1434h41l-408 -1434h-55l-398 1350l-397 -1350h-59l-408 1434h45l393 -1393l408 1393h33l411 -1393z" glyph-name="W" horiz-adv-x="1904" unicode="W"/><glyph d="M647 743l506 -743h-45l-485 709l-488 -709h-45l506 743l-465 691h45l447 -656l444 656h45z" glyph-name="X" horiz-adv-x="1243" unicode="X"/><glyph d="M1100 1434h45l-518 -840v-594h-41v594l-516 840h45l491 -801z" glyph-name="Y" horiz-adv-x="1214" unicode="Y"/><glyph d="M190 37h936v-37h-983v37l916 1360h-895v37h942v-37z" glyph-name="Z" horiz-adv-x="1269" unicode="Z"/><glyph d="M578 1528h-287v-1866h287v-39h-328v1942h328v-37z" glyph-name="bracketleft" horiz-adv-x="643" unicode="["/><glyph d="M92 1538l535 -1735l-39 -6l-535 1735z" glyph-name="backslash" horiz-adv-x="679" unicode="\"/><glyph d="M352 1528h-286v37h327v-1942h-327v39h286v1866z" glyph-name="bracketright" horiz-adv-x="643" unicode="]"/><glyph d="M147 864h-45l291 590h37l291 -590h-45l-264 543z" glyph-name="asciicircum" horiz-adv-x="823" unicode="^"/><glyph d="M922 -254h-918v37h918v-37z" glyph-name="underscore" horiz-adv-x="925" unicode="_"/><glyph d="M307 1434l156 -222h-41l-172 222h57z" glyph-name="grave" horiz-adv-x="712" unicode="`"/><glyph d="M555 1032q158 0 258 -97t100 -263v-672h-36v317q-25 -135 -140.5 -236t-277.5 -101q-139 0 -241.5 77.5t-102.5 218.5q0 80 35.5 141.5t100 97.5t136.5 59.5t161 32.5t156.5 12.5t141.5 5.5h31v47q0 152 -90.5 238.5t-231.5 86.5q-135 0 -238.5 -76.5t-123.5 -207.5 l-37 4q25 147 138.5 231t260.5 84zM877 475v115q-74 0 -112 -1t-126 -6t-142.5 -16.5t-127 -34t-114.5 -55.5t-72.5 -85t-30.5 -118q0 -123 90 -191.5t217 -68.5q182 0 300 139.5t118 321.5z" glyph-name="a" horiz-adv-x="1069" unicode="a"/><glyph d="M168 0v1462h37v-747q55 162 176 239.5t264 77.5q209 0 345 -155.5t136 -374.5t-135 -370.5t-346 -151.5q-145 0 -265 79.5t-175 241.5v-301h-37zM205 506q0 -209 116.5 -350.5t317.5 -141.5q203 0 327 141.5t124 348.5q0 205 -124 349t-329 144q-201 0 -316.5 -141 t-115.5 -350z" glyph-name="b" horiz-adv-x="1232" unicode="b"/><glyph d="M598 14q131 0 236.5 79t144.5 204l35 -6q-41 -141 -157 -226t-261 -85q-223 0 -356.5 150.5t-133.5 375.5q0 227 133.5 376.5t356.5 149.5q141 0 259 -87t159 -224l-35 -6q-39 125 -144.5 203.5t-236.5 78.5q-211 0 -332 -137t-121 -354q0 -215 122 -353.5t331 -138.5z " glyph-name="c" horiz-adv-x="1116" unicode="c"/><glyph d="M1067 1462v-1462h-37v301q-55 -162 -175 -241.5t-265 -79.5q-211 0 -346 151.5t-135 370.5t136 374.5t345 155.5q143 0 264 -77.5t176 -239.5v747h37zM1030 506q0 209 -115.5 350t-316.5 141q-205 0 -329 -144t-124 -349q0 -207 124 -348.5t327 -141.5q201 0 317.5 141.5 t116.5 350.5z" glyph-name="d" horiz-adv-x="1234" unicode="d"/><glyph d="M1069 500v-11h-926q6 -207 130 -341t325 -134q139 0 248.5 73t163.5 200l39 -8q-66 -141 -178.5 -220t-264.5 -79q-225 0 -362.5 147t-137.5 375q0 221 137.5 375.5t352.5 154.5q221 0 347 -151.5t126 -380.5zM145 524h889q-8 213 -127 343t-311 130q-190 0 -315.5 -134 t-135.5 -339z" glyph-name="e" horiz-adv-x="1175" unicode="e"/><glyph d="M487 1012v-33h-217v-979h-37v979h-163v33h163v182q0 68 5.5 110t23 91t59 73.5t107.5 24.5l72 -4v-35q-100 16 -154 -12q-76 -41 -76 -209v-221h217z" glyph-name="f" horiz-adv-x="606" unicode="f"/><glyph d="M600 -12q-225 0 -359.5 146.5t-134.5 375.5q0 211 140.5 366.5t349.5 155.5q156 0 279.5 -85t171.5 -240v305h36v-994q0 -229 -119.5 -359t-347.5 -130q-158 0 -277.5 64.5t-166.5 203.5l35 8q80 -242 409 -241q213 0 322 121.5t109 341.5v286q-45 -154 -164 -239.5 t-283 -85.5zM1049 510q0 209 -124 348t-329 139q-195 0 -324 -146t-129 -341q0 -215 123 -351t334 -136q209 0 329 136t120 351z" glyph-name="g" horiz-adv-x="1243" unicode="g"/><glyph d="M600 1032q158 0 258 -103.5t100 -262.5v-666h-36v672q0 135 -89.5 230t-234.5 95q-180 0 -286.5 -147.5t-106.5 -343.5v-506h-37v1475h37v-777q39 150 143.5 242t251.5 92z" glyph-name="h" horiz-adv-x="1114" unicode="h"/><glyph d="M188 1372q-41 0 -41 41t41 41q16 0 28.5 -11t12.5 -29.5t-12.5 -30t-28.5 -11.5zM207 0h-37v1012h37v-1012z" glyph-name="i" horiz-adv-x="376" unicode="i"/><glyph d="M223 1372q-18 0 -29.5 12.5t-11.5 29t11.5 28.5t29.5 12q16 0 28.5 -12t12.5 -28.5t-12.5 -29t-28.5 -12.5zM-145 -434q86 0 141 5t97 25.5t63.5 44t34 77t15.5 107.5t3 150v1037h37v-1075q0 -131 -12.5 -203t-55.5 -122t-116.5 -66.5t-206.5 -16.5v37z" glyph-name="j" horiz-adv-x="411" unicode="j"/><glyph d="M446 629l443 -629h-43l-426 606l-215 -207v-399h-37v1475h37v-1031l594 568h47z" glyph-name="k" horiz-adv-x="946" unicode="k"/><glyph d="M205 0h-37v1475h37v-1475z" glyph-name="l" horiz-adv-x="372" unicode="l"/><glyph d="M1206 1032q139 0 232.5 -101.5t93.5 -295.5v-635h-37v653q0 162 -79 253t-212 91q-160 0 -247 -134t-87 -337v-526h-36v653q0 156 -87.5 250t-216.5 94q-152 0 -242.5 -144t-90.5 -327v-526h-37v1012h37v-305q33 152 125 238.5t210 86.5q131 0 226.5 -89t103.5 -226 q33 154 128 234.5t216 80.5z" glyph-name="m" horiz-adv-x="1687" unicode="m"/><glyph d="M596 1032q164 0 259 -99t95 -267v-666h-37v672q0 143 -86 234t-231 91q-186 0 -292.5 -145t-106.5 -346v-506h-37v1012h37v-314q43 154 145 244t254 90z" glyph-name="n" unicode="n"/><glyph d="M612 1032q221 0 358.5 -151.5t137.5 -374.5q0 -221 -138.5 -373.5t-357.5 -152.5q-223 0 -364.5 152.5t-141.5 373.5q0 223 141.5 374.5t364.5 151.5zM610 14q201 0 331 139.5t130 352.5t-131 352t-330 139q-203 0 -334 -139t-131 -352q0 -215 131 -353.5t334 -138.5z " glyph-name="o" horiz-adv-x="1214" unicode="o"/><glyph d="M168 -451v1463h37v-301q55 162 175 241.5t265 79.5q211 0 346 -151.5t135 -370.5t-136 -374.5t-345 -155.5q-143 0 -264 77.5t-176 239.5v-748h-37zM205 506q0 -209 115.5 -350.5t316.5 -141.5q205 0 329 144.5t124 351.5q0 205 -124 346t-327 141q-201 0 -317.5 -141 t-116.5 -350z" glyph-name="p" horiz-adv-x="1232" unicode="p"/><glyph d="M1065 1012v-1463h-37v748q-55 -162 -176 -239.5t-264 -77.5q-209 0 -345.5 155.5t-136.5 374.5t135.5 370.5t346.5 151.5q145 0 265 -80t175 -241v301h37zM1028 506q0 209 -116.5 350t-317.5 141q-203 0 -327 -141t-124 -346q0 -207 124 -351.5t329 -144.5 q201 0 316.5 141.5t115.5 350.5z" glyph-name="q" horiz-adv-x="1232" unicode="q"/><glyph d="M557 1030v-35q-199 14 -280.5 -93t-81.5 -290v-612h-35v1012h35v-209q49 229 329 229z" glyph-name="r" horiz-adv-x="622" unicode="r"/><glyph d="M152 764q0 -90 64.5 -137t186.5 -80q18 -4 68.5 -16.5t72 -18.5t64.5 -20.5t63.5 -26.5t51.5 -33.5t44 -44t24.5 -55.5t11.5 -72q0 -127 -95.5 -203.5t-234.5 -76.5q-141 0 -248.5 80.5t-122.5 220.5l37 6q10 -119 106.5 -196t223.5 -77q117 0 206 64.5t89 179.5 q0 98 -68.5 147.5t-197.5 81.5q-16 4 -59.5 15.5t-62 16.5t-56 16.5t-56 21.5t-47.5 25.5t-43 32t-30.5 39t-22.5 49t-6 59.5q0 119 92 196.5t225 77.5q131 0 227.5 -75.5t112.5 -198.5l-37 -6q-14 113 -99 179t-200 66q-117 0 -200.5 -65.5t-83.5 -171.5z" glyph-name="s" horiz-adv-x="905" unicode="s"/><glyph d="M473 977h-215v-772q0 -106 27.5 -148.5t107.5 -42.5q61 0 94 13v-35q-45 -12 -94 -12q-92 0 -133 49t-41 176v772h-162v35h164v243l37 7v-250h215v-35z" glyph-name="t" horiz-adv-x="585" unicode="t"/><glyph d="M510 -20q-164 0 -259 99t-95 267v666h37v-672q0 -143 86 -234.5t231 -91.5q186 0 292.5 145.5t106.5 346.5v506h37v-1012h-37v313q-43 -154 -145 -243.5t-254 -89.5z" glyph-name="u" unicode="u"/><glyph d="M850 1012h39l-393 -1012h-33l-393 1012h36l373 -959z" glyph-name="v" horiz-adv-x="958" unicode="v"/><glyph d="M1335 1012h41l-297 -1012h-45l-311 950l-309 -950h-45l-295 1012h37l280 -971l316 971h30l318 -971z" glyph-name="w" horiz-adv-x="1449" unicode="w"/><glyph d="M496 514l370 -512l-45 -2l-348 489l-346 -489h-49l375 514l-363 498h47l336 -465l334 465h47z" glyph-name="x" horiz-adv-x="944" unicode="x"/><glyph d="M877 1012h38l-555 -1463h-36l176 467l-430 996h41l405 -953z" glyph-name="y" horiz-adv-x="985" unicode="y"/><glyph d="M180 35h742v-35h-787v35l721 942h-702v35h747v-35z" glyph-name="z" horiz-adv-x="1056" unicode="z"/><glyph d="M340 872q0 -264 -188 -317q88 -23 138 -104.5t50 -206.5v-432q0 -143 44 -184.5t189 -41.5l45 2v-37q-25 -2 -57 -2q-174 0 -218 61.5t-44 270.5v377q0 123 -59.5 196.5t-173.5 73.5v54q115 0 174 74.5t59 197.5v383q0 207 44 267.5t218 60.5l57 -2v-37q-27 2 -45 2 q-145 0 -189 -39t-44 -182v-435z" glyph-name="braceleft" horiz-adv-x="684" unicode="{"/><glyph d="M332 -451h-41v2089h41v-2089z" glyph-name="bar" horiz-adv-x="622" unicode="|"/><glyph d="M344 872v435q0 143 -44 182t-189 39l-45 -2v37q27 2 57 2q174 0 218 -60.5t44 -267.5v-383q0 -123 59.5 -197.5t173.5 -74.5v-54q-115 0 -174 -73.5t-59 -196.5v-377q0 -209 -44 -270.5t-218 -61.5l-57 2v37q27 -2 45 -2q145 0 189 41t44 185v432q0 125 50 206.5 t138 104.5q-188 53 -188 317z" glyph-name="braceright" horiz-adv-x="684" unicode="}"/><glyph d="M170 475q-2 96 51 161.5t152 65.5q68 0 124 -35.5t88.5 -77.5t83 -78t105.5 -36q70 0 111 50t39 139h41q4 -98 -50.5 -162t-144.5 -64q-63 0 -116.5 36t-86 78t-85 78t-111.5 36q-76 0 -119 -51.5t-43 -139.5h-39z" glyph-name="asciitilde" horiz-adv-x="1134" unicode="~"/><glyph glyph-name="uni00A0" horiz-adv-x="573" unicode=" "/><glyph d="M245.5 938q-16.5 0 -28.5 12.5t-12 28.5t11 28.5t29.5 12.5t30 -12.5t11.5 -28.5t-12.5 -28.5t-29 -12.5zM233 754h25l8 -959h-41z" glyph-name="exclamdown" horiz-adv-x="491" unicode="¡"/><glyph d="M651 1030v92h37v-92q133 -8 241.5 -93t145.5 -216l-35 -6q-33 117 -131 195.5t-221 84.5v-979q125 8 222.5 87t129.5 194l35 -6q-37 -131 -144.5 -215t-242.5 -94v-93h-37v93q-231 12 -357 150t-126 374q0 238 127 377t356 147zM205 506q0 -221 116.5 -351t329.5 -139 v979q-215 -6 -330.5 -136t-115.5 -353z" glyph-name="cent" horiz-adv-x="1243" unicode="¢"/><glyph d="M143 633v37h158q-12 172 -12 274q0 260 97 413.5t302 153.5q147 0 257 -107.5t118 -264.5l-37 -6q-14 156 -111.5 249t-226.5 93q-127 0 -210 -75t-115.5 -184.5t-32.5 -248.5l10 -297h426v-37h-422q14 -219 8 -318q-6 -90 -31.5 -158.5t-47 -94t-31.5 -25.5h827v-37 h-926v37q45 0 79 26.5t51.5 78t24.5 86t13 85.5q4 45 1 160t-9 160h-160z" glyph-name="sterling" horiz-adv-x="1196" unicode="£"/><glyph d="M176 997l27 27l141 -141q145 150 358 149q219 0 355 -147l131 139l26 -27l-135 -137q123 -145 123 -354q0 -211 -127 -359l139 -133l-26 -26l-137 133q-141 -141 -349 -141q-213 0 -350 143l-149 -135l-27 26l152 136q-131 145 -131 356q0 205 122 348zM236 506 q0 -211 131 -351.5t335 -140.5q203 0 332 139.5t129 352.5q0 211 -129 351t-332 140q-205 0 -335.5 -140t-130.5 -351z" glyph-name="currency" horiz-adv-x="1390" unicode="¤"/><glyph d="M555 664l-485 770h49l487 -781l492 781h47l-486 -770h357v-37h-389v-262h389v-37h-389v-328h-41v328h-389v37h389v262h-389v37h358z" glyph-name="yen" horiz-adv-x="1214" unicode="¥"/><glyph d="M291 831v807h41v-807h-41zM291 -451v807h41v-807h-41z" glyph-name="brokenbar" horiz-adv-x="622" unicode="¦"/><glyph d="M596 -471q-172 0 -303 103.5t-166 285.5l41 8q25 -170 149.5 -265t278.5 -95q145 0 260 71.5t115 221.5q0 96 -83 161.5t-201 103.5t-236.5 79t-203.5 115.5t-87 183.5q-2 94 56 172t142 106q-145 90 -145 224q0 150 112.5 238.5t270.5 88.5q168 0 276.5 -95t143.5 -245 l-43 -6q-31 139 -130.5 224t-246.5 85q-131 0 -236.5 -75.5t-105.5 -214.5q0 -82 59.5 -143.5t147.5 -96.5t192.5 -74t192.5 -74.5t147.5 -100t59.5 -150.5q0 -176 -191 -285q147 -88 148 -221q0 -162 -122 -246t-292 -84zM1014 365q0 63 -36 111t-105.5 84t-141.5 62.5 t-173 65.5t-171 74q-82 -27 -134 -98.5t-52 -161.5q0 -88 69.5 -152.5t155.5 -95.5t213 -75t195 -81q180 122 180 267z" glyph-name="section" horiz-adv-x="1179" unicode="§"/><glyph d="M250 1413.5q0 16.5 12 28.5t28.5 12t29 -12t12.5 -28.5t-12.5 -29t-29 -12.5t-28.5 12.5t-12 29zM496 1413.5q0 16.5 12 28.5t28.5 12t29 -12t12.5 -28.5t-12.5 -29t-29 -12.5t-28.5 12.5t-12 29z" glyph-name="dieresis" horiz-adv-x="827" unicode="¨"/><glyph d="M817 1454q307 0 509 -214t202 -523t-202 -523t-509 -214t-509 214t-202 523t202 523t509 214zM815 16q293 0 483.5 205t190.5 496t-190.5 495.5t-483.5 204.5q-291 0 -478 -203.5t-187 -496.5t187 -497t478 -204zM1163 573l41 -4q-41 -133 -142 -211.5t-241 -78.5 q-182 0 -296.5 128t-114.5 312q0 182 114.5 311t296.5 129q139 0 239.5 -80t143.5 -215l-41 -4q-41 125 -130 193.5t-210 68.5q-164 0 -270.5 -117.5t-106.5 -287.5q0 -168 105.5 -285t267.5 -117q127 0 220 72.5t124 185.5z" glyph-name="copyright" horiz-adv-x="1634" unicode="©"/><glyph d="M367 1454q111 0 177 -70.5t66 -156.5v-484h-37v170q-80 -184 -266 -184q-104 0 -162.5 55.5t-58.5 139.5q0 238 487 237v58q0 84 -59 142t-147 58q-80 0 -146.5 -49t-79.5 -137l-37 4q12 94 86.5 155.5t176.5 61.5zM573 1022v108q-451 0 -450 -215q0 -76 54 -113.5 t132 -37.5q119 0 191.5 84t72.5 174z" glyph-name="ordfeminine" horiz-adv-x="729" unicode="ª"/><glyph d="M176 600l303 440h45l-305 -440l305 -440h-45zM430 600l303 440h47l-305 -440l305 -440h-47z" glyph-name="guillemotleft" horiz-adv-x="956" unicode="«"/><glyph d="M176 719v35h864v-414h-36v379h-828z" glyph-name="logicalnot" horiz-adv-x="1232" unicode="¬"/><glyph d="M616.5 1454q202.5 0 338 -144.5t135.5 -347t-135.5 -347t-338 -144.5t-338 144.5t-135.5 347t135.5 347t338 144.5zM621 506q186 0 309 133t123 323.5t-123 323.5t-309 133q-188 0 -314.5 -134t-126.5 -322.5t126.5 -322.5t314.5 -134zM682 903l137 -209h-45l-129 201 h-147v-201h-37v529h162q74 0 124 -45t50 -119q0 -115 -115 -156zM631 928q51 0 89 36.5t38 94.5q0 59 -38 93t-89 34h-133v-258h133z" glyph-name="registered" horiz-adv-x="1234" unicode="®"/><glyph d="M250 1337v37h631v-37h-631z" glyph-name="macron" horiz-adv-x="1130" unicode="¯"/><glyph d="M365 975q-100 0 -169 69.5t-69 166t68.5 164t169.5 67.5q104 0 172.5 -66.5t68.5 -165t-69.5 -167t-171.5 -68.5zM367 1012q88 0 146 57t58 141q0 86 -58 140.5t-146 54.5t-145.5 -54.5t-57.5 -140.5q0 -84 57.5 -141t145.5 -57z" glyph-name="degree" horiz-adv-x="733" unicode="°"/><glyph d="M1040 778v-37h-419v-344h-41v344h-420v37h420v361h41v-361h419zM1040 252h-880v37h880v-37z" glyph-name="plusminus" horiz-adv-x="1200" unicode="±"/><glyph d="M111 1311q2 61 56 102t124 41q74 0 125 -47t51 -119q0 -94 -117 -190l-188 -158h305v-35h-361v35l236 195q88 74 88 153q0 61 -42 96t-101 35q-55 0 -95 -29.5t-45 -84.5z" glyph-name="uni00B2" horiz-adv-x="565" unicode="²"/><glyph d="M98 1049l37 6q0 -63 43 -99t109 -36q70 0 112.5 36.5t42.5 92.5q0 53 -41 87.5t-92 34.5h-80v33h80q119 0 119 94q0 53 -38 87t-97 34q-57 0 -97 -32.5t-42 -90.5l-37 7q0 66 50 108.5t124 42.5q72 0 123 -41t51 -102q0 -45 -27.5 -82t-62.5 -43q45 -8 75.5 -50t30.5 -94 q0 -68 -55 -112.5t-137 -44.5q-84 0 -137.5 46t-53.5 118z" glyph-name="uni00B3" horiz-adv-x="585" unicode="³"/><glyph d="M387 1434h49l-153 -222h-33z" glyph-name="acute" horiz-adv-x="686" unicode="´"/><glyph d="M602 1434h74v-1598h-41v688h-33q-195 0 -327 130t-132 325t132 325t327 130zM758 -164v1598h41v-1598h-41z" glyph-name="paragraph" horiz-adv-x="942" unicode="¶"/><glyph d="M229.5 629q-16.5 0 -29 11t-12.5 30q0 16 12.5 28.5t29 12.5t28.5 -12.5t12 -28.5q0 -18 -12 -29.5t-28.5 -11.5z" glyph-name="periodcentered" horiz-adv-x="458" unicode="·"/><glyph d="M317 -174l50 174h41l-48 -143q84 -8 144.5 -51.5t60.5 -114.5q0 -84 -55 -123t-133 -39q-72 0 -127 20l12 27q49 -14 119 -14q147 0 147 131q0 66 -67.5 99.5t-143.5 33.5z" glyph-name="cedilla" horiz-adv-x="815" unicode="¸"/><glyph d="M84 1401v33h178v-529h-37v496h-141z" glyph-name="uni00B9" horiz-adv-x="407" unicode="¹"/><glyph d="M393 1454q113 0 184.5 -59.5t96 -138t24.5 -175t-24.5 -175.5t-96 -138t-184.5 -59q-162 0 -233.5 109.5t-71.5 263t71.5 263t233.5 109.5zM391 743q139 0 205 98.5t66 240t-66 239.5t-205 98t-202.5 -98t-63.5 -239.5t63.5 -240t202.5 -98.5z" glyph-name="ordmasculine" horiz-adv-x="784" unicode="º"/><glyph d="M477 1040l303 -440l-303 -440h-45l305 440l-305 440h45zM223 1040l303 -440l-303 -440h-47l305 440l-305 440h47z" glyph-name="guillemotright" horiz-adv-x="956" unicode="»"/><glyph d="M12 0l1057 1452l37 -18l-1059 -1452zM25 1401v33h178v-529h-37v496h-141zM1110 590h16v-406h82v-32h-82v-152h-36v152h-295v32zM1090 508l-248 -324h248v324z" glyph-name="onequarter" horiz-adv-x="1337" unicode="¼"/><glyph d="M18 0l1057 1452l37 -18l-1059 -1452zM31 1401v33h178v-529h-37v496h-141zM903 406q2 61 55.5 102t120.5 41q76 0 128.5 -47t52.5 -119q0 -94 -117 -190l-189 -158h306v-35h-361v35l234 194q90 76 90 154q0 61 -42 96t-99.5 35t-97.5 -29.5t-44 -85.5z" glyph-name="onehalf" horiz-adv-x="1304" unicode="½"/><glyph d="M53 1049l37 6q0 -63 43 -99t109 -36q70 0 112.5 36.5t42.5 92.5q0 53 -41 87.5t-92 34.5h-80v33h80q119 0 119 94q0 53 -38 87t-97 34q-57 0 -97 -32.5t-42 -90.5l-37 7q0 66 50 108.5t124 42.5q72 0 123 -41t51 -102q0 -45 -27.5 -82t-62.5 -43q45 -8 75.5 -50t30.5 -94 q0 -68 -55 -112.5t-137 -44.5q-84 0 -137.5 46t-53.5 118zM170 0l1057 1452l37 -18l-1057 -1452zM1268 590h16v-406h82v-32h-82v-152h-37v152h-295v32zM1247 508l-248 -324h248v324z" glyph-name="threequarters" horiz-adv-x="1556" unicode="¾"/><glyph d="M542.5 1032q16.5 0 29 -12t12.5 -28.5t-12.5 -29t-29 -12.5t-28.5 12.5t-12 29t12 28.5t28.5 12zM506 -379q-147 0 -261 101.5t-114 252.5q0 78 41 139.5t98.5 102.5t114.5 84t97 107.5t38 146.5v160h43v-164q0 -74 -28.5 -135.5t-72.5 -99t-94.5 -77.5t-94.5 -73 t-72.5 -82t-28.5 -109q0 -133 98.5 -225t233.5 -92q121 0 214 72.5t128 191.5l37 -4q-35 -135 -138.5 -216t-238.5 -81z" glyph-name="questiondown" horiz-adv-x="985" unicode="¿"/><glyph d="M502 1808l155 -221h-41l-172 221h58zM655 1434l545 -1434h-45l-149 397h-742l-151 -397h-43l544 1434h41zM276 434h715l-356 946z" glyph-name="Agrave" horiz-adv-x="1269" unicode="À"/><glyph d="M756 1808h49l-154 -221h-33zM655 1434l545 -1434h-45l-149 397h-742l-151 -397h-43l544 1434h41zM276 434h715l-356 946z" glyph-name="Aacute" horiz-adv-x="1269" unicode="Á"/><glyph d="M469 1569h-47l205 241h37l204 -241h-47l-176 211zM655 1434l545 -1434h-45l-149 397h-742l-151 -397h-43l544 1434h41zM276 434h715l-356 946z" glyph-name="Acircumflex" horiz-adv-x="1269" unicode="Â"/><glyph d="M397 1671q0 49 16.5 81t42 44t41 15.5t29.5 3.5q55 0 123 -67t115 -67q80 0 80 111h33q2 -80 -36 -111.5t-83 -31.5q-53 0 -123 66.5t-115 66.5q-37 0 -63.5 -28t-26.5 -83h-33zM655 1434l545 -1434h-45l-149 397h-742l-151 -397h-43l544 1434h41zM276 434h715l-356 946z " glyph-name="Atilde" horiz-adv-x="1269" unicode="Ã"/><glyph d="M471 1642.5q0 16.5 12.5 28.5t28.5 12t28.5 -12t12.5 -28.5t-12.5 -28.5t-28.5 -12t-28.5 12t-12.5 28.5zM717 1642.5q0 16.5 12 28.5t28.5 12t29 -12t12.5 -28.5t-12.5 -28.5t-29 -12t-28.5 12t-12 28.5zM655 1434l545 -1434h-45l-149 397h-742l-151 -397h-43l544 1434 h41zM276 434h715l-356 946z" glyph-name="Adieresis" horiz-adv-x="1269" unicode="Ä"/><glyph d="M635 1577q-74 0 -127 49t-53 127q0 80 52 130t128 50t126 -50t50 -130q0 -78 -50 -127t-126 -49zM632.5 1610q61.5 0 101.5 40t40 101q0 66 -40 108t-101 42q-59 0 -100 -43t-41 -107q0 -61 39.5 -101t101 -40zM655 1434l545 -1434h-45l-149 397h-742l-151 -397h-43 l544 1434h41zM276 434h715l-356 946z" glyph-name="Aring" horiz-adv-x="1269" unicode="Å"/><glyph d="M113 0h-43l448 1434h782v-37h-647v-668h594v-37h-594v-655h647v-37h-688v418h-372zM252 455h360v942h-65z" glyph-name="AE" horiz-adv-x="1476" unicode="Æ"/><glyph d="M791 16q180 0 319 84t217 242l43 -8q-82 -170 -227.5 -260t-329.5 -94l-41 -123q84 -8 144.5 -51.5t60.5 -114.5q0 -84 -55.5 -123t-133.5 -39q-72 0 -126 20l12 27q49 -14 119 -14q147 0 147 131q0 66 -67.5 99.5t-143.5 33.5l43 154q-297 8 -469 219t-172 518 q0 313 178 525t486 212q190 0 340.5 -90t234.5 -264l-43 -8q-78 158 -217 241.5t-319 83.5q-285 0 -452 -200.5t-167 -499.5t166 -500t453 -201z" glyph-name="Ccedilla" horiz-adv-x="1488" unicode="Ç"/><glyph d="M444 1808l156 -221h-41l-172 221h57zM971 1397h-746v-668h664v-37h-664v-655h746v-37h-787v1434h787v-37z" glyph-name="Egrave" horiz-adv-x="1114" unicode="È"/><glyph d="M698 1808h50l-154 -221h-33zM971 1397h-746v-668h664v-37h-664v-655h746v-37h-787v1434h787v-37z" glyph-name="Eacute" horiz-adv-x="1114" unicode="É"/><glyph d="M412 1569h-47l204 241h37l205 -241h-47l-176 211zM971 1397h-746v-668h664v-37h-664v-655h746v-37h-787v1434h787v-37z" glyph-name="Ecircumflex" horiz-adv-x="1114" unicode="Ê"/><glyph d="M414 1642.5q0 16.5 12 28.5t28.5 12t29 -12t12.5 -28.5t-12.5 -28.5t-29 -12t-28.5 12t-12 28.5zM659 1642.5q0 16.5 12.5 28.5t29 12t28.5 -12t12 -28.5t-12 -28.5t-28.5 -12t-29 12t-12.5 28.5zM971 1397h-746v-668h664v-37h-664v-655h746v-37h-787v1434h787v-37z" glyph-name="Edieresis" horiz-adv-x="1114" unicode="Ë"/><glyph d="M72 1743l155 -221h-41l-172 221h58zM225 0h-41v1434h41v-1434z" glyph-name="Igrave" horiz-adv-x="409" unicode="Ì"/><glyph d="M326 1743h49l-154 -221h-33zM225 0h-41v1434h41v-1434z" glyph-name="Iacute" horiz-adv-x="409" unicode="Í"/><glyph d="M39 1503h-47l205 242h36l205 -242h-47l-176 211zM225 0h-41v1434h41v-1434z" glyph-name="Icircumflex" horiz-adv-x="409" unicode="Î"/><glyph d="M41 1577q0 16 12.5 28.5t28.5 12.5t28.5 -12.5t12.5 -28.5t-12.5 -28.5t-28.5 -12.5t-28.5 12.5t-12.5 28.5zM287 1577q0 16 12 28.5t28.5 12.5t29 -12.5t12.5 -28.5t-12.5 -28.5t-29 -12.5t-28.5 12.5t-12 28.5zM225 0h-41v1434h41v-1434z" glyph-name="Idieresis" horiz-adv-x="409" unicode="Ï"/><glyph d="M741 1434q340 0 526.5 -184.5t186.5 -506.5q0 -336 -196.5 -539.5t-516.5 -203.5h-413v852h-258v37h258v545h413zM602 852h-233v-815h385q279 0 469 191.5t190 514.5q0 309 -180 481.5t-479 172.5h-385v-508h233v-37z" glyph-name="Eth" horiz-adv-x="1589" unicode="Ð"/><glyph d="M453 1671q0 49 16 81t42 44t41 15.5t30 3.5q55 0 122.5 -67t114.5 -67q80 0 80 111h33q2 -80 -36 -111.5t-83 -31.5q-53 0 -122.5 66.5t-115.5 66.5q-37 0 -63.5 -28t-26.5 -83h-32zM1163 1434h41v-1434h-39l-940 1362v-1362h-41v1434h39l940 -1360v1360z" glyph-name="Ntilde" horiz-adv-x="1388" unicode="Ñ"/><glyph d="M680 1829l156 -221h-41l-172 221h57zM815 1454q301 0 493.5 -216t192.5 -521t-192.5 -521t-493.5 -216t-492.5 216t-191.5 521t191.5 521t492.5 216zM815.5 16q280.5 0 462.5 205t182 496t-182 495.5t-462.5 204.5t-462 -204.5t-181.5 -495.5t181.5 -496t462 -205z" glyph-name="Ograve" horiz-adv-x="1632" unicode="Ò"/><glyph d="M934 1829h49l-154 -221h-32zM815 1454q301 0 493.5 -216t192.5 -521t-192.5 -521t-493.5 -216t-492.5 216t-191.5 521t191.5 521t492.5 216zM815.5 16q280.5 0 462.5 205t182 496t-182 495.5t-462.5 204.5t-462 -204.5t-181.5 -495.5t181.5 -496t462 -205z" glyph-name="Oacute" horiz-adv-x="1632" unicode="Ó"/><glyph d="M647 1589h-47l205 242h37l205 -242h-48l-176 211zM815 1454q301 0 493.5 -216t192.5 -521t-192.5 -521t-493.5 -216t-492.5 216t-191.5 521t191.5 521t492.5 216zM815.5 16q280.5 0 462.5 205t182 496t-182 495.5t-462.5 204.5t-462 -204.5t-181.5 -495.5t181.5 -496 t462 -205z" glyph-name="Ocircumflex" horiz-adv-x="1632" unicode="Ô"/><glyph d="M575 1692q0 49 16.5 80.5t42 44t41 15.5t30.5 3q55 0 122.5 -66.5t114.5 -66.5q80 0 80 110h33q2 -80 -36 -111.5t-83 -31.5q-53 0 -123 66.5t-115 66.5q-37 0 -63.5 -27.5t-26.5 -82.5h-33zM815 1454q301 0 493.5 -216t192.5 -521t-192.5 -521t-493.5 -216t-492.5 216 t-191.5 521t191.5 521t492.5 216zM815.5 16q280.5 0 462.5 205t182 496t-182 495.5t-462.5 204.5t-462 -204.5t-181.5 -495.5t181.5 -496t462 -205z" glyph-name="Otilde" horiz-adv-x="1632" unicode="Õ"/><glyph d="M649 1663q0 16 12.5 28.5t29 12.5t28.5 -12.5t12 -28.5t-12 -28.5t-28.5 -12.5t-29 12.5t-12.5 28.5zM895 1663q0 16 12.5 28.5t28.5 12.5t28.5 -12.5t12.5 -28.5t-12.5 -28.5t-28.5 -12.5t-28.5 12.5t-12.5 28.5zM815 1454q301 0 493.5 -216t192.5 -521t-192.5 -521 t-493.5 -216t-492.5 216t-191.5 521t191.5 521t492.5 216zM815.5 16q280.5 0 462.5 205t182 496t-182 495.5t-462.5 204.5t-462 -204.5t-181.5 -495.5t181.5 -496t462 -205z" glyph-name="Odieresis" horiz-adv-x="1632" unicode="Ö"/><glyph d="M246 297l-29 27l299 299l-299 299l29 28l299 -299l299 299l28 -28l-299 -299l299 -299l-28 -27l-299 299z" glyph-name="multiply" horiz-adv-x="1089" unicode="×"/><glyph d="M127 717q0 303 190.5 520t493.5 217q102 0 201 -29l47 144l39 -8l-47 -148q203 -82 324.5 -271.5t121.5 -424.5q0 -307 -193.5 -522t-492.5 -215q-88 0 -203 28l-43 -131l-37 8l45 135q-201 82 -323.5 273t-122.5 424zM584 55l417 1334q-100 27 -196 26 q-143 0 -267 -61.5t-204 -160.5t-124 -223t-42 -253q4 -213 108.5 -394.5t307.5 -267.5zM1038 1376l-420 -1331q100 -27 199 -27q283 0 461 208t178 491q0 201 -110.5 388t-307.5 271z" glyph-name="Oslash" horiz-adv-x="1624" unicode="Ø"/><glyph d="M522 1808l156 -221h-41l-172 221h57zM1083 1434h41v-873q0 -256 -115.5 -418.5t-353 -162.5t-354.5 163.5t-117 417.5v873h41v-887q0 -143 39 -258t138.5 -194t252.5 -79q152 0 251.5 80t138 195t38.5 256v887z" glyph-name="Ugrave" horiz-adv-x="1308" unicode="Ù"/><glyph d="M776 1808h49l-153 -221h-33zM1083 1434h41v-873q0 -256 -115.5 -418.5t-353 -162.5t-354.5 163.5t-117 417.5v873h41v-887q0 -143 39 -258t138.5 -194t252.5 -79q152 0 251.5 80t138 195t38.5 256v887z" glyph-name="Uacute" horiz-adv-x="1308" unicode="Ú"/><glyph d="M489 1569h-47l205 241h37l205 -241h-47l-176 211zM1083 1434h41v-873q0 -256 -115.5 -418.5t-353 -162.5t-354.5 163.5t-117 417.5v873h41v-887q0 -143 39 -258t138.5 -194t252.5 -79q152 0 251.5 80t138 195t38.5 256v887z" glyph-name="Ucircumflex" horiz-adv-x="1308" unicode="Û"/><glyph d="M492 1642.5q0 16.5 12 28.5t28.5 12t28.5 -12t12 -28.5t-12 -28.5t-28.5 -12t-28.5 12t-12 28.5zM737 1642.5q0 16.5 12.5 28.5t29 12t28.5 -12t12 -28.5t-12 -28.5t-28.5 -12t-29 12t-12.5 28.5zM1083 1434h41v-873q0 -256 -115.5 -418.5t-353 -162.5t-354.5 163.5 t-117 417.5v873h41v-887q0 -143 39 -258t138.5 -194t252.5 -79q152 0 251.5 80t138 195t38.5 256v887z" glyph-name="Udieresis" horiz-adv-x="1308" unicode="Ü"/><glyph d="M727 1808h49l-153 -221h-33zM1100 1434h45l-518 -840v-594h-41v594l-516 840h45l491 -801z" glyph-name="Yacute" horiz-adv-x="1214" unicode="Ý"/><glyph d="M184 0v1434h37v-304h279q197 0 327.5 -117.5t130.5 -295.5t-131 -296t-327 -118h-279v-303h-37zM221 336h279q176 0 299 108.5t123 268.5q0 162 -123 273.5t-299 111.5h-279v-762z" glyph-name="Thorn" horiz-adv-x="1101" unicode="Þ"/><glyph d="M184 1073q0 172 113 276.5t274.5 104.5t277.5 -103.5t116 -275.5q0 -109 -85 -204t-188 -113q125 -20 228.5 -119.5t103.5 -230.5q0 -193 -141.5 -300.5t-343.5 -107.5h-113v33h113q190 0 319 99t129 269q0 150 -127 245t-282 95h-111v33h119q131 0 236.5 89t105.5 212 q0 152 -102.5 249t-258.5 97q-152 0 -249 -104.5t-97 -255.5v-1061h-37v1073z" glyph-name="germandbls" horiz-adv-x="1150" unicode="ß"/><glyph d="M375 1407l155 -221h-41l-172 221h58zM555 1032q158 0 258 -97t100 -263v-672h-36v317q-25 -135 -140.5 -236t-277.5 -101q-139 0 -241.5 77.5t-102.5 218.5q0 80 35.5 141.5t100 97.5t136.5 59.5t161 32.5t156.5 12.5t141.5 5.5h31v47q0 152 -90.5 238.5t-231.5 86.5 q-135 0 -238.5 -76.5t-123.5 -207.5l-37 4q25 147 138.5 231t260.5 84zM877 475v115q-74 0 -112 -1t-126 -6t-142.5 -16.5t-127 -34t-114.5 -55.5t-72.5 -85t-30.5 -118q0 -123 90 -191.5t217 -68.5q182 0 300 139.5t118 321.5z" glyph-name="agrave" horiz-adv-x="1069" unicode="à"/><glyph d="M629 1407h49l-154 -221h-32zM555 1032q158 0 258 -97t100 -263v-672h-36v317q-25 -135 -140.5 -236t-277.5 -101q-139 0 -241.5 77.5t-102.5 218.5q0 80 35.5 141.5t100 97.5t136.5 59.5t161 32.5t156.5 12.5t141.5 5.5h31v47q0 152 -90.5 238.5t-231.5 86.5 q-135 0 -238.5 -76.5t-123.5 -207.5l-37 4q25 147 138.5 231t260.5 84zM877 475v115q-74 0 -112 -1t-126 -6t-142.5 -16.5t-127 -34t-114.5 -55.5t-72.5 -85t-30.5 -118q0 -123 90 -191.5t217 -68.5q182 0 300 139.5t118 321.5z" glyph-name="aacute" horiz-adv-x="1069" unicode="á"/><glyph d="M342 1167h-47l205 242h37l204 -242h-47l-176 211zM555 1032q158 0 258 -97t100 -263v-672h-36v317q-25 -135 -140.5 -236t-277.5 -101q-139 0 -241.5 77.5t-102.5 218.5q0 80 35.5 141.5t100 97.5t136.5 59.5t161 32.5t156.5 12.5t141.5 5.5h31v47q0 152 -90.5 238.5 t-231.5 86.5q-135 0 -238.5 -76.5t-123.5 -207.5l-37 4q25 147 138.5 231t260.5 84zM877 475v115q-74 0 -112 -1t-126 -6t-142.5 -16.5t-127 -34t-114.5 -55.5t-72.5 -85t-30.5 -118q0 -123 90 -191.5t217 -68.5q182 0 300 139.5t118 321.5z" glyph-name="acircumflex" horiz-adv-x="1069" unicode="â"/><glyph d="M270 1270q0 49 16.5 80.5t42 44t41 15.5t29.5 3q55 0 123 -66.5t115 -66.5q80 0 80 111h33q2 -80 -36 -112t-83 -32q-53 0 -123 66.5t-115 66.5q-37 0 -63.5 -27.5t-26.5 -82.5h-33zM555 1032q158 0 258 -97t100 -263v-672h-36v317q-25 -135 -140.5 -236t-277.5 -101 q-139 0 -241.5 77.5t-102.5 218.5q0 80 35.5 141.5t100 97.5t136.5 59.5t161 32.5t156.5 12.5t141.5 5.5h31v47q0 152 -90.5 238.5t-231.5 86.5q-135 0 -238.5 -76.5t-123.5 -207.5l-37 4q25 147 138.5 231t260.5 84zM877 475v115q-74 0 -112 -1t-126 -6t-142.5 -16.5 t-127 -34t-114.5 -55.5t-72.5 -85t-30.5 -118q0 -123 90 -191.5t217 -68.5q182 0 300 139.5t118 321.5z" glyph-name="atilde" horiz-adv-x="1069" unicode="ã"/><glyph d="M344 1241q0 16 12.5 28.5t28.5 12.5t28.5 -12.5t12.5 -28.5t-12.5 -28.5t-28.5 -12.5t-28.5 12.5t-12.5 28.5zM590 1241q0 16 12 28.5t28.5 12.5t29 -12.5t12.5 -28.5t-12.5 -28.5t-29 -12.5t-28.5 12.5t-12 28.5zM555 1032q158 0 258 -97t100 -263v-672h-36v317 q-25 -135 -140.5 -236t-277.5 -101q-139 0 -241.5 77.5t-102.5 218.5q0 80 35.5 141.5t100 97.5t136.5 59.5t161 32.5t156.5 12.5t141.5 5.5h31v47q0 152 -90.5 238.5t-231.5 86.5q-135 0 -238.5 -76.5t-123.5 -207.5l-37 4q25 147 138.5 231t260.5 84zM877 475v115 q-74 0 -112 -1t-126 -6t-142.5 -16.5t-127 -34t-114.5 -55.5t-72.5 -85t-30.5 -118q0 -123 90 -191.5t217 -68.5q182 0 300 139.5t118 321.5z" glyph-name="adieresis" horiz-adv-x="1069" unicode="ä"/><glyph d="M508 1176q-74 0 -127 49t-53 127q0 80 52 130t128 50t126 -50t50 -130q0 -78 -50 -127t-126 -49zM505.5 1208q61.5 0 101.5 40t40 102q0 66 -40 107.5t-101 41.5q-59 0 -100 -43t-41 -106q0 -61 39.5 -101.5t101 -40.5zM555 1032q158 0 258 -97t100 -263v-672h-36v317 q-25 -135 -140.5 -236t-277.5 -101q-139 0 -241.5 77.5t-102.5 218.5q0 80 35.5 141.5t100 97.5t136.5 59.5t161 32.5t156.5 12.5t141.5 5.5h31v47q0 152 -90.5 238.5t-231.5 86.5q-135 0 -238.5 -76.5t-123.5 -207.5l-37 4q25 147 138.5 231t260.5 84zM877 475v115 q-74 0 -112 -1t-126 -6t-142.5 -16.5t-127 -34t-114.5 -55.5t-72.5 -85t-30.5 -118q0 -123 90 -191.5t217 -68.5q182 0 300 139.5t118 321.5z" glyph-name="aring" horiz-adv-x="1069" unicode="å"/><glyph d="M111 270q0 55 21.5 101.5t69.5 78t93 55t123 38t125 22.5t135 12.5t117.5 5.5t105.5 3q0 412 -344 411q-135 0 -241.5 -76.5t-127.5 -207.5l-36 4q25 145 141.5 230t263.5 85q156 0 258.5 -87t112.5 -249q45 150 165.5 243t278.5 93q203 0 329 -134t126 -337v-10h-889 q0 -248 118 -392.5t316 -144.5q131 0 236.5 73t158.5 200l39 -8q-137 -299 -428 -299q-111 0 -199.5 41.5t-141 106.5t-80 135.5t-31.5 135.5q-29 -172 -150 -295.5t-301 -123.5q-152 0 -258 73.5t-106 216.5zM1372 997q-178 0 -297 -120.5t-137 -290.5h854 q-6 186 -128 298.5t-292 112.5zM147 270q0 -125 94.5 -190.5t229.5 -65.5q186 0 308 148.5t122 333.5v55q-754 0 -754 -281z" glyph-name="ae" horiz-adv-x="1933" unicode="æ"/><glyph d="M598 14q131 0 236.5 79t144.5 204l35 -6q-39 -137 -150.5 -222t-253.5 -89l-45 -138q84 -8 144.5 -51t60.5 -115q0 -84 -55.5 -122.5t-132.5 -38.5q-72 0 -127 20l12 27q49 -14 119 -15q147 0 147 131q0 66 -67.5 100t-143.5 34l47 168q-211 10 -337 158.5t-126 367.5 q0 227 133.5 376.5t356.5 149.5q141 0 259 -87t159 -224l-35 -6q-39 125 -144.5 203.5t-236.5 78.5q-211 0 -332 -137t-121 -354q0 -215 122 -353.5t331 -138.5z" glyph-name="ccedilla" horiz-adv-x="1116" unicode="ç"/><glyph d="M453 1407l155 -221h-41l-172 221h58zM1069 500v-11h-926q6 -207 130 -341t325 -134q139 0 248.5 73t163.5 200l39 -8q-66 -141 -178.5 -220t-264.5 -79q-225 0 -362.5 147t-137.5 375q0 221 137.5 375.5t352.5 154.5q221 0 347 -151.5t126 -380.5zM145 524h889 q-8 213 -127 343t-311 130q-190 0 -315.5 -134t-135.5 -339z" glyph-name="egrave" horiz-adv-x="1175" unicode="è"/><glyph d="M707 1407h49l-154 -221h-33zM1069 500v-11h-926q6 -207 130 -341t325 -134q139 0 248.5 73t163.5 200l39 -8q-66 -141 -178.5 -220t-264.5 -79q-225 0 -362.5 147t-137.5 375q0 221 137.5 375.5t352.5 154.5q221 0 347 -151.5t126 -380.5zM145 524h889q-8 213 -127 343 t-311 130q-190 0 -315.5 -134t-135.5 -339z" glyph-name="eacute" horiz-adv-x="1175" unicode="é"/><glyph d="M420 1167h-47l205 242h36l205 -242h-47l-176 211zM1069 500v-11h-926q6 -207 130 -341t325 -134q139 0 248.5 73t163.5 200l39 -8q-66 -141 -178.5 -220t-264.5 -79q-225 0 -362.5 147t-137.5 375q0 221 137.5 375.5t352.5 154.5q221 0 347 -151.5t126 -380.5zM145 524 h889q-8 213 -127 343t-311 130q-190 0 -315.5 -134t-135.5 -339z" glyph-name="ecircumflex" horiz-adv-x="1175" unicode="ê"/><glyph d="M422 1241q0 16 12 28.5t28.5 12.5t29 -12.5t12.5 -28.5t-12.5 -28.5t-29 -12.5t-28.5 12.5t-12 28.5zM668 1241q0 16 12 28.5t28.5 12.5t29 -12.5t12.5 -28.5t-12.5 -28.5t-29 -12.5t-28.5 12.5t-12 28.5zM1069 500v-11h-926q6 -207 130 -341t325 -134q139 0 248.5 73 t163.5 200l39 -8q-66 -141 -178.5 -220t-264.5 -79q-225 0 -362.5 147t-137.5 375q0 221 137.5 375.5t352.5 154.5q221 0 347 -151.5t126 -380.5zM145 524h889q-8 213 -127 343t-311 130q-190 0 -315.5 -134t-135.5 -339z" glyph-name="edieresis" horiz-adv-x="1175" unicode="ë"/><glyph d="M51 1386l156 -221h-41l-172 221h57zM203 0h-35v1012h35v-1012z" glyph-name="igrave" horiz-adv-x="370" unicode="ì"/><glyph d="M305 1386h49l-153 -221h-33zM203 0h-35v1012h35v-1012z" glyph-name="iacute" horiz-adv-x="370" unicode="í"/><glyph d="M18 1147h-47l205 242h37l205 -242h-47l-176 211zM203 0h-35v1012h35v-1012z" glyph-name="icircumflex" horiz-adv-x="370" unicode="î"/><glyph d="M20 1220.5q0 16.5 12.5 29t29 12.5t28.5 -12.5t12 -29t-12 -28.5t-28.5 -12t-29 12t-12.5 28.5zM266 1220.5q0 16.5 12.5 29t29 12.5t28.5 -12.5t12 -29t-12 -28.5t-28.5 -12t-29 12t-12.5 28.5zM203 0h-35v1012h35v-1012z" glyph-name="idieresis" horiz-adv-x="370" unicode="ï"/><glyph d="M616 -20q-209 0 -349 150.5t-140 373.5q0 227 141.5 373.5t347.5 146.5q160 0 282 -90t169 -227q-18 408 -233 585l-224 -143l-22 31l213 137q-141 100 -346 100l12 37q213 0 369 -115l176 113l24 -31l-168 -108q238 -205 238 -662v-73q0 -276 -137.5 -437t-352.5 -161z M616 987q-188 0 -318 -139t-130 -344q0 -207 127 -347.5t321 -140.5q188 0 317.5 140.5t129.5 347.5q0 213 -128.5 348t-318.5 135z" glyph-name="eth" horiz-adv-x="1232" unicode="ð"/><glyph d="M354 1270q0 49 16.5 80.5t42 44t41 15.5t29.5 3q55 0 123 -66.5t115 -66.5q80 0 80 111h33q2 -80 -36 -112t-83 -32q-53 0 -123 66.5t-115 66.5q-37 0 -63.5 -27.5t-26.5 -82.5h-33zM596 1032q164 0 259 -99t95 -267v-666h-37v672q0 143 -86 234t-231 91 q-186 0 -292.5 -145t-106.5 -346v-506h-37v1012h37v-314q43 154 145 244t254 90z" glyph-name="ntilde" unicode="ñ"/><glyph d="M475 1407l156 -221h-41l-172 221h57zM612 1032q221 0 358.5 -151.5t137.5 -374.5q0 -221 -138.5 -373.5t-357.5 -152.5q-223 0 -364.5 152.5t-141.5 373.5q0 223 141.5 374.5t364.5 151.5zM610 14q201 0 331 139.5t130 352.5t-131 352t-330 139q-203 0 -334 -139 t-131 -352q0 -215 131 -353.5t334 -138.5z" glyph-name="ograve" horiz-adv-x="1214" unicode="ò"/><glyph d="M729 1407h49l-153 -221h-33zM612 1032q221 0 358.5 -151.5t137.5 -374.5q0 -221 -138.5 -373.5t-357.5 -152.5q-223 0 -364.5 152.5t-141.5 373.5q0 223 141.5 374.5t364.5 151.5zM610 14q201 0 331 139.5t130 352.5t-131 352t-330 139q-203 0 -334 -139t-131 -352 q0 -215 131 -353.5t334 -138.5z" glyph-name="oacute" horiz-adv-x="1214" unicode="ó"/><glyph d="M442 1167h-47l205 242h37l205 -242h-47l-177 211zM612 1032q221 0 358.5 -151.5t137.5 -374.5q0 -221 -138.5 -373.5t-357.5 -152.5q-223 0 -364.5 152.5t-141.5 373.5q0 223 141.5 374.5t364.5 151.5zM610 14q201 0 331 139.5t130 352.5t-131 352t-330 139 q-203 0 -334 -139t-131 -352q0 -215 131 -353.5t334 -138.5z" glyph-name="ocircumflex" horiz-adv-x="1214" unicode="ô"/><glyph d="M371 1270q0 49 16 80.5t42 44t41 15.5t30 3q55 0 122.5 -66.5t114.5 -66.5q80 0 80 111h33q2 -80 -36 -112t-83 -32q-53 0 -122.5 66.5t-114.5 66.5q-37 0 -64 -27.5t-27 -82.5h-32zM612 1032q221 0 358.5 -151.5t137.5 -374.5q0 -221 -138.5 -373.5t-357.5 -152.5 q-223 0 -364.5 152.5t-141.5 373.5q0 223 141.5 374.5t364.5 151.5zM610 14q201 0 331 139.5t130 352.5t-131 352t-330 139q-203 0 -334 -139t-131 -352q0 -215 131 -353.5t334 -138.5z" glyph-name="otilde" horiz-adv-x="1214" unicode="õ"/><glyph d="M444 1241q0 16 12.5 28.5t29 12.5t28.5 -12.5t12 -28.5t-12 -28.5t-28.5 -12.5t-29 12.5t-12.5 28.5zM690 1241q0 16 12.5 28.5t29 12.5t28.5 -12.5t12 -28.5t-12 -28.5t-28.5 -12.5t-29 12.5t-12.5 28.5zM612 1032q221 0 358.5 -151.5t137.5 -374.5 q0 -221 -138.5 -373.5t-357.5 -152.5q-223 0 -364.5 152.5t-141.5 373.5q0 223 141.5 374.5t364.5 151.5zM610 14q201 0 331 139.5t130 352.5t-131 352t-330 139q-203 0 -334 -139t-131 -352q0 -215 131 -353.5t334 -138.5z" glyph-name="odieresis" horiz-adv-x="1214" unicode="ö"/><glyph d="M536.5 901q-16.5 0 -28.5 12.5t-12 28.5t12 28.5t28.5 12.5t29 -12.5t12.5 -28.5t-12.5 -28.5t-29 -12.5zM897 614h-721v37h721v-37zM536.5 283q-16.5 0 -28.5 12t-12 28.5t12 29t28.5 12.5t29 -12.5t12.5 -29t-12.5 -28.5t-29 -12z" glyph-name="divide" horiz-adv-x="1073" unicode="÷"/><glyph d="M385 31q-129 68 -201.5 192.5t-72.5 265.5q0 246 143 394.5t367 148.5q102 0 184 -35l61 138l35 -7l-63 -145q131 -68 203.5 -193.5t72.5 -267.5q0 -223 -133 -382.5t-350 -159.5q-123 0 -213 36l-53 -127l-39 7zM399 61l394 904q-63 29 -156 32q-225 12 -358.5 -139 t-128.5 -385q0 -125 69 -241t180 -171zM823 950l-391 -903q70 -29 160 -33q225 -12 359 143.5t124 381.5q-19 284 -252 411z" glyph-name="oslash" horiz-adv-x="1224" unicode="ø"/><glyph d="M459 1386l155 -221h-41l-172 221h58zM510 -20q-164 0 -259 99t-95 267v666h37v-672q0 -143 86 -234.5t231 -91.5q186 0 292.5 145.5t106.5 346.5v506h37v-1012h-37v313q-43 -154 -145 -243.5t-254 -89.5z" glyph-name="ugrave" unicode="ù"/><glyph d="M713 1386h49l-154 -221h-33zM510 -20q-164 0 -259 99t-95 267v666h37v-672q0 -143 86 -234.5t231 -91.5q186 0 292.5 145.5t106.5 346.5v506h37v-1012h-37v313q-43 -154 -145 -243.5t-254 -89.5z" glyph-name="uacute" unicode="ú"/><glyph d="M426 1147h-47l205 242h37l204 -242h-47l-176 211zM510 -20q-164 0 -259 99t-95 267v666h37v-672q0 -143 86 -234.5t231 -91.5q186 0 292.5 145.5t106.5 346.5v506h37v-1012h-37v313q-43 -154 -145 -243.5t-254 -89.5z" glyph-name="ucircumflex" unicode="û"/><glyph d="M428 1220.5q0 16.5 12.5 29t28.5 12.5t28.5 -12.5t12.5 -29t-12.5 -28.5t-28.5 -12t-28.5 12t-12.5 28.5zM674 1220.5q0 16.5 12 29t28.5 12.5t29 -12.5t12.5 -29t-12.5 -28.5t-29 -12t-28.5 12t-12 28.5zM510 -20q-164 0 -259 99t-95 267v666h37v-672q0 -143 86 -234.5 t231 -91.5q186 0 292.5 145.5t106.5 346.5v506h37v-1012h-37v313q-43 -154 -145 -243.5t-254 -89.5z" glyph-name="udieresis" unicode="ü"/><glyph d="M612 1386h50l-154 -221h-33zM877 1012h38l-555 -1463h-36l176 467l-430 996h41l405 -953z" glyph-name="yacute" horiz-adv-x="985" unicode="ý"/><glyph d="M168 -451v1926h37v-754q51 154 174 232.5t258 78.5q215 0 352 -154.5t137 -373.5q0 -221 -137 -372.5t-352 -151.5q-139 0 -258 78.5t-174 232.5v-742h-37zM205 506q0 -209 115.5 -350.5t316.5 -141.5q205 0 329 141.5t124 348.5t-124 350t-327 143q-201 0 -317.5 -141 t-116.5 -350z" glyph-name="thorn" horiz-adv-x="1232" unicode="þ"/><glyph d="M328 1220.5q0 16.5 12 29t28.5 12.5t29 -12.5t12.5 -29t-12.5 -28.5t-29 -12t-28.5 12t-12 28.5zM573 1220.5q0 16.5 12.5 29t29 12.5t28.5 -12.5t12 -29t-12 -28.5t-28.5 -12t-29 12t-12.5 28.5zM877 1012h38l-555 -1463h-36l176 467l-430 996h41l405 -953z" glyph-name="ydieresis" horiz-adv-x="985" unicode="ÿ"/><glyph d="M319 1587v37h631v-37h-631zM655 1434l545 -1434h-45l-149 397h-742l-151 -397h-43l544 1434h41zM276 434h715l-356 946z" glyph-name="Amacron" horiz-adv-x="1269" unicode="Ā"/><glyph d="M193 1186v37h630v-37h-630zM555 1032q158 0 258 -97t100 -263v-672h-36v317q-25 -135 -140.5 -236t-277.5 -101q-139 0 -241.5 77.5t-102.5 218.5q0 80 35.5 141.5t100 97.5t136.5 59.5t161 32.5t156.5 12.5t141.5 5.5h31v47q0 152 -90.5 238.5t-231.5 86.5 q-135 0 -238.5 -76.5t-123.5 -207.5l-37 4q25 147 138.5 231t260.5 84zM877 475v115q-74 0 -112 -1t-126 -6t-142.5 -16.5t-127 -34t-114.5 -55.5t-72.5 -85t-30.5 -118q0 -123 90 -191.5t217 -68.5q182 0 300 139.5t118 321.5z" glyph-name="amacron" horiz-adv-x="1069" unicode="ā"/><glyph d="M803 1794h41q0 -94 -58.5 -155.5t-150.5 -61.5t-151.5 61.5t-59.5 155.5h41q0 -78 45 -129t125 -51q78 0 123 51t45 129zM655 1434l545 -1434h-45l-149 397h-742l-151 -397h-43l544 1434h41zM276 434h715l-356 946z" glyph-name="Abreve" horiz-adv-x="1269" unicode="Ă"/><glyph d="M676 1393h41q0 -94 -58.5 -155.5t-150.5 -61.5t-151.5 61t-59.5 156h41q0 -78 45 -129.5t125 -51.5q78 0 123 51.5t45 129.5zM555 1032q158 0 258 -97t100 -263v-672h-36v317q-25 -135 -140.5 -236t-277.5 -101q-139 0 -241.5 77.5t-102.5 218.5q0 80 35.5 141.5 t100 97.5t136.5 59.5t161 32.5t156.5 12.5t141.5 5.5h31v47q0 152 -90.5 238.5t-231.5 86.5q-135 0 -238.5 -76.5t-123.5 -207.5l-37 4q25 147 138.5 231t260.5 84zM877 475v115q-74 0 -112 -1t-126 -6t-142.5 -16.5t-127 -34t-114.5 -55.5t-72.5 -85t-30.5 -118 q0 -123 90 -191.5t217 -68.5q182 0 300 139.5t118 321.5z" glyph-name="abreve" horiz-adv-x="1069" unicode="ă"/><glyph d="M655 1434l545 -1434q-248 -104 -248 -258q0 -63 48.5 -103t146.5 -38q66 0 102 22l17 -31q-37 -29 -129 -28q-109 0 -165.5 47t-56.5 131q0 156 234 274l-143 381h-742l-151 -397h-43l544 1434h41zM276 434h715l-356 946z" glyph-name="Aogonek" horiz-adv-x="1269" unicode="Ą"/><glyph d="M555 1032q158 0 258 -97t100 -263v-672q-248 -104 -247 -258q0 -63 48 -103t146 -38q66 0 103 22l16 -31q-37 -29 -129 -28q-109 0 -165 47t-56 131q0 160 248 281v294q-25 -135 -140.5 -236t-277.5 -101q-139 0 -241.5 77.5t-102.5 218.5q0 80 35.5 141.5t100 97.5 t136.5 59.5t161 32.5t156.5 12.5t141.5 5.5h31v47q0 152 -90.5 238.5t-231.5 86.5q-135 0 -238.5 -76.5t-123.5 -207.5l-37 4q25 147 138.5 231t260.5 84zM877 475v115q-74 0 -112 -1t-126 -6t-142.5 -16.5t-127 -34t-114.5 -55.5t-72.5 -85t-30.5 -118q0 -123 90 -191.5 t217 -68.5q182 0 300 139.5t118 321.5z" glyph-name="aogonek" horiz-adv-x="1069" unicode="ą"/><glyph d="M911 1829h50l-154 -221h-33zM791 16q180 0 319 84t217 242l43 -8q-84 -174 -234.5 -264t-340.5 -90q-307 0 -485.5 211.5t-178.5 525t178 525.5t486 212q190 0 340.5 -90t234.5 -264l-43 -8q-78 158 -217 241.5t-319 83.5q-285 0 -452 -200.5t-167 -499.5t166 -500 t453 -201z" glyph-name="Cacute" horiz-adv-x="1488" unicode="Ć"/><glyph d="M682 1407h49l-153 -221h-33zM598 14q131 0 236.5 79t144.5 204l35 -6q-41 -141 -157 -226t-261 -85q-223 0 -356.5 150.5t-133.5 375.5q0 227 133.5 376.5t356.5 149.5q141 0 259 -87t159 -224l-35 -6q-39 125 -144.5 203.5t-236.5 78.5q-211 0 -332 -137t-121 -354 q0 -215 122 -353.5t331 -138.5z" glyph-name="cacute" horiz-adv-x="1116" unicode="ć"/><glyph d="M625 1589h-47l204 242h37l205 -242h-47l-176 211zM791 16q180 0 319 84t217 242l43 -8q-84 -174 -234.5 -264t-340.5 -90q-307 0 -485.5 211.5t-178.5 525t178 525.5t486 212q190 0 340.5 -90t234.5 -264l-43 -8q-78 158 -217 241.5t-319 83.5q-285 0 -452 -200.5 t-167 -499.5t166 -500t453 -201z" glyph-name="Ccircumflex" horiz-adv-x="1488" unicode="Ĉ"/><glyph d="M395 1167h-47l205 242h37l205 -242h-47l-177 211zM598 14q131 0 236.5 79t144.5 204l35 -6q-41 -141 -157 -226t-261 -85q-223 0 -356.5 150.5t-133.5 375.5q0 227 133.5 376.5t356.5 149.5q141 0 259 -87t159 -224l-35 -6q-39 125 -144.5 203.5t-236.5 78.5 q-211 0 -332 -137t-121 -354q0 -215 122 -353.5t331 -138.5z" glyph-name="ccircumflex" horiz-adv-x="1116" unicode="ĉ"/><glyph d="M790.5 1591q-16.5 0 -28.5 12.5t-12 29t12 28.5t28.5 12t28.5 -12t12 -28.5t-12 -29t-28.5 -12.5zM791 16q180 0 319 84t217 242l43 -8q-84 -174 -234.5 -264t-340.5 -90q-307 0 -485.5 211.5t-178.5 525t178 525.5t486 212q190 0 340.5 -90t234.5 -264l-43 -8 q-78 158 -217 241.5t-319 83.5q-285 0 -452 -200.5t-167 -499.5t166 -500t453 -201z" glyph-name="Cdotaccent" horiz-adv-x="1488" unicode="Ċ"/><glyph d="M561.5 1169q-16.5 0 -29 12.5t-12.5 29t12.5 28.5t29 12t28.5 -12t12 -28.5t-12 -29t-28.5 -12.5zM598 14q131 0 236.5 79t144.5 204l35 -6q-41 -141 -157 -226t-261 -85q-223 0 -356.5 150.5t-133.5 375.5q0 227 133.5 376.5t356.5 149.5q141 0 259 -87t159 -224l-35 -6 q-39 125 -144.5 203.5t-236.5 78.5q-211 0 -332 -137t-121 -354q0 -215 122 -353.5t331 -138.5z" glyph-name="cdotaccent" horiz-adv-x="1116" unicode="ċ"/><glyph d="M567 1870h47l177 -211l176 211h47l-205 -242h-37zM791 16q180 0 319 84t217 242l43 -8q-84 -174 -234.5 -264t-340.5 -90q-307 0 -485.5 211.5t-178.5 525t178 525.5t486 212q190 0 340.5 -90t234.5 -264l-43 -8q-78 158 -217 241.5t-319 83.5q-285 0 -452 -200.5 t-167 -499.5t166 -500t453 -201z" glyph-name="Ccaron" horiz-adv-x="1488" unicode="Č"/><glyph d="M338 1448h47l176 -211l176 211h47l-204 -242h-37zM598 14q131 0 236.5 79t144.5 204l35 -6q-41 -141 -157 -226t-261 -85q-223 0 -356.5 150.5t-133.5 375.5q0 227 133.5 376.5t356.5 149.5q141 0 259 -87t159 -224l-35 -6q-39 125 -144.5 203.5t-236.5 78.5 q-211 0 -332 -137t-121 -354q0 -215 122 -353.5t331 -138.5z" glyph-name="ccaron" horiz-adv-x="1116" unicode="č"/><glyph d="M354 1849h47l177 -211l176 211h47l-205 -241h-37zM598 1434q340 0 526.5 -184.5t186.5 -506.5q0 -336 -196.5 -539.5t-516.5 -203.5h-414v1434h414zM610 37q279 0 469.5 191.5t190.5 514.5q0 309 -180.5 481.5t-479.5 172.5h-385v-1360h385z" glyph-name="Dcaron" horiz-adv-x="1437" unicode="Ď"/><glyph d="M1067 1462v-1462h-37v301q-55 -162 -175 -241.5t-265 -79.5q-211 0 -346 151.5t-135 370.5t136 374.5t345 155.5q143 0 264 -77.5t176 -239.5v747h37zM1440 934h-37l108 500h43zM1030 506q0 209 -115.5 350t-316.5 141q-205 0 -329 -144t-124 -349q0 -207 124 -348.5 t327 -141.5q201 0 317.5 141.5t116.5 350.5z" glyph-name="dcaron" horiz-adv-x="1626" unicode="ď"/><glyph d="M741 1434q340 0 526.5 -184.5t186.5 -506.5q0 -336 -196.5 -539.5t-516.5 -203.5h-413v852h-258v37h258v545h413zM602 852h-233v-815h385q279 0 469 191.5t190 514.5q0 309 -180 481.5t-479 172.5h-385v-508h233v-37z" glyph-name="Dcroat" horiz-adv-x="1581" unicode="Đ"/><glyph d="M1067 1462v-110h102v-37h-102v-1315h-37v301q-55 -162 -175 -241.5t-265 -79.5q-211 0 -346 151.5t-135 370.5t136 374.5t345 155.5q143 0 264 -77.5t176 -239.5v600h-266v37h266v110h37zM1030 506q0 209 -115.5 350t-316.5 141q-205 0 -329 -144t-124 -349 q0 -207 124 -348.5t327 -141.5q201 0 317.5 141.5t116.5 350.5z" glyph-name="dcroat" horiz-adv-x="1132" unicode="đ"/><glyph d="M262 1587v37h631v-37h-631zM971 1397h-746v-668h664v-37h-664v-655h746v-37h-787v1434h787v-37z" glyph-name="Emacron" horiz-adv-x="1114" unicode="Ē"/><glyph d="M270 1186v37h631v-37h-631zM1069 500v-11h-926q6 -207 130 -341t325 -134q139 0 248.5 73t163.5 200l39 -8q-66 -141 -178.5 -220t-264.5 -79q-225 0 -362.5 147t-137.5 375q0 221 137.5 375.5t352.5 154.5q221 0 347 -151.5t126 -380.5zM145 524h889q-8 213 -127 343 t-311 130q-190 0 -315.5 -134t-135.5 -339z" glyph-name="emacron" horiz-adv-x="1175" unicode="ē"/><glyph d="M745 1794h41q0 -94 -58 -155.5t-150.5 -61.5t-151.5 61.5t-59 155.5h41q0 -78 45 -129t125 -51q78 0 122.5 51t44.5 129zM971 1397h-746v-668h664v-37h-664v-655h746v-37h-787v1434h787v-37z" glyph-name="Ebreve" horiz-adv-x="1114" unicode="Ĕ"/><glyph d="M754 1393h41q0 -94 -58.5 -155.5t-150.5 -61.5t-151.5 61t-59.5 156h41q0 -78 45 -129.5t125 -51.5q78 0 123 51.5t45 129.5zM1069 500v-11h-926q6 -207 130 -341t325 -134q139 0 248.5 73t163.5 200l39 -8q-66 -141 -178.5 -220t-264.5 -79q-225 0 -362.5 147 t-137.5 375q0 221 137.5 375.5t352.5 154.5q221 0 347 -151.5t126 -380.5zM145 524h889q-8 213 -127 343t-311 130q-190 0 -315.5 -134t-135.5 -339z" glyph-name="ebreve" horiz-adv-x="1175" unicode="ĕ"/><glyph d="M577.5 1571q-16.5 0 -28.5 12t-12 28.5t12 29t28.5 12.5t28.5 -12.5t12 -29t-12 -28.5t-28.5 -12zM971 1397h-746v-668h664v-37h-664v-655h746v-37h-787v1434h787v-37z" glyph-name="Edotaccent" horiz-adv-x="1114" unicode="Ė"/><glyph d="M585.5 1169q-16.5 0 -28.5 12.5t-12 29t12 28.5t28.5 12t29 -12t12.5 -28.5t-12.5 -29t-29 -12.5zM1069 500v-11h-926q6 -207 130 -341t325 -134q139 0 248.5 73t163.5 200l39 -8q-66 -141 -178.5 -220t-264.5 -79q-225 0 -362.5 147t-137.5 375q0 221 137.5 375.5 t352.5 154.5q221 0 347 -151.5t126 -380.5zM145 524h889q-8 213 -127 343t-311 130q-190 0 -315.5 -134t-135.5 -339z" glyph-name="edotaccent" horiz-adv-x="1175" unicode="ė"/><glyph d="M971 1397h-746v-668h664v-37h-664v-655h746v-37h-787v1434h787v-37z" glyph-name="Eogonek" horiz-adv-x="1114" unicode="Ę"/><glyph d="M1069 500v-11h-926q6 -207 130 -341t325 -134q139 0 248.5 73t163.5 200l39 -8q-90 -199 -269 -269q-225 -102 -225 -248q0 -63 48 -103t147 -38q66 0 102 23l16 -31q-37 -29 -129 -29q-109 0 -165 47t-56 131q0 121 141 220q-16 -2 -53 -2q-225 0 -362.5 147t-137.5 375 q0 221 137.5 375.5t352.5 154.5q221 0 347 -151.5t126 -380.5zM145 524h889q-8 213 -127 343t-311 130q-190 0 -315.5 -134t-135.5 -339z" glyph-name="eogonek" horiz-adv-x="1175" unicode="ę"/><glyph d="M354 1849h47l177 -211l176 211h47l-205 -241h-37zM971 1397h-746v-668h664v-37h-664v-655h746v-37h-787v1434h787v-37z" glyph-name="Ecaron" horiz-adv-x="1114" unicode="Ě"/><glyph d="M362 1448h48l176 -211l176 211h47l-205 -242h-37zM1069 500v-11h-926q6 -207 130 -341t325 -134q139 0 248.5 73t163.5 200l39 -8q-66 -141 -178.5 -220t-264.5 -79q-225 0 -362.5 147t-137.5 375q0 221 137.5 375.5t352.5 154.5q221 0 347 -151.5t126 -380.5zM145 524 h889q-8 213 -127 343t-311 130q-190 0 -315.5 -134t-135.5 -339z" glyph-name="ecaron" horiz-adv-x="1175" unicode="ě"/><glyph d="M680 1589h-47l205 242h36l205 -242h-47l-176 211zM1493 696v-73q0 -283 -178 -463t-459 -180q-299 0 -489.5 205.5t-190.5 531.5q0 324 188.5 530.5t485.5 206.5q184 0 335.5 -86t244.5 -246l-41 -8q-88 147 -229.5 225t-309.5 78q-279 0 -456 -196.5t-177 -503.5 q0 -309 180.5 -505t462.5 -196q270 0 435 179.5t157 463.5h-555v37h596z" glyph-name="Gcircumflex" horiz-adv-x="1628" unicode="Ĝ"/><glyph d="M430 1167h-47l205 242h37l204 -242h-47l-176 211zM600 -12q-225 0 -359.5 146.5t-134.5 375.5q0 211 140.5 366.5t349.5 155.5q156 0 279.5 -85t171.5 -240v305h36v-994q0 -229 -119.5 -359t-347.5 -130q-158 0 -277.5 64.5t-166.5 203.5l35 8q80 -242 409 -241 q213 0 322 121.5t109 341.5v286q-45 -154 -164 -239.5t-283 -85.5zM1049 510q0 209 -124 348t-329 139q-195 0 -324 -146t-129 -341q0 -215 123 -351t334 -136q209 0 329 136t120 351z" glyph-name="gcircumflex" horiz-adv-x="1243" unicode="ĝ"/><glyph d="M1014 1815h41q0 -94 -58.5 -156t-150.5 -62t-151.5 61.5t-59.5 156.5h41q0 -78 45 -129.5t125 -51.5q78 0 123 51.5t45 129.5zM1493 696v-73q0 -283 -178 -463t-459 -180q-299 0 -489.5 205.5t-190.5 531.5q0 324 188.5 530.5t485.5 206.5q184 0 335.5 -86t244.5 -246 l-41 -8q-88 147 -229.5 225t-309.5 78q-279 0 -456 -196.5t-177 -503.5q0 -309 180.5 -505t462.5 -196q270 0 435 179.5t157 463.5h-555v37h596z" glyph-name="Gbreve" horiz-adv-x="1628" unicode="Ğ"/><glyph d="M764 1393h41q0 -94 -58.5 -155.5t-150.5 -61.5t-151.5 61t-59.5 156h41q0 -78 45 -129.5t125 -51.5q78 0 123 51.5t45 129.5zM600 -12q-225 0 -359.5 146.5t-134.5 375.5q0 211 140.5 366.5t349.5 155.5q156 0 279.5 -85t171.5 -240v305h36v-994q0 -229 -119.5 -359 t-347.5 -130q-158 0 -277.5 64.5t-166.5 203.5l35 8q80 -242 409 -241q213 0 322 121.5t109 341.5v286q-45 -154 -164 -239.5t-283 -85.5zM1049 510q0 209 -124 348t-329 139q-195 0 -324 -146t-129 -341q0 -215 123 -351t334 -136q209 0 329 136t120 351z" glyph-name="gbreve" horiz-adv-x="1243" unicode="ğ"/><glyph d="M845.5 1591q-16.5 0 -28.5 12.5t-12 29t12 28.5t28.5 12t29 -12t12.5 -28.5t-12.5 -29t-29 -12.5zM1493 696v-73q0 -283 -178 -463t-459 -180q-299 0 -489.5 205.5t-190.5 531.5q0 324 188.5 530.5t485.5 206.5q184 0 335.5 -86t244.5 -246l-41 -8q-88 147 -229.5 225 t-309.5 78q-279 0 -456 -196.5t-177 -503.5q0 -309 180.5 -505t462.5 -196q270 0 435 179.5t157 463.5h-555v37h596z" glyph-name="Gdotaccent" horiz-adv-x="1628" unicode="Ġ"/><glyph d="M596 1169q-16 0 -28.5 12.5t-12.5 29t12.5 28.5t28.5 12t28.5 -12t12.5 -28.5t-12.5 -29t-28.5 -12.5zM600 -12q-225 0 -359.5 146.5t-134.5 375.5q0 211 140.5 366.5t349.5 155.5q156 0 279.5 -85t171.5 -240v305h36v-994q0 -229 -119.5 -359t-347.5 -130 q-158 0 -277.5 64.5t-166.5 203.5l35 8q80 -242 409 -241q213 0 322 121.5t109 341.5v286q-45 -154 -164 -239.5t-283 -85.5zM1049 510q0 209 -124 348t-329 139q-195 0 -324 -146t-129 -341q0 -215 123 -351t334 -136q209 0 329 136t120 351z" glyph-name="gdotaccent" horiz-adv-x="1243" unicode="ġ"/><glyph d="M1493 696v-73q0 -283 -178 -463t-459 -180q-299 0 -489.5 205.5t-190.5 531.5q0 324 188.5 530.5t485.5 206.5q184 0 335.5 -86t244.5 -246l-41 -8q-88 147 -229.5 225t-309.5 78q-279 0 -456 -196.5t-177 -503.5q0 -309 180.5 -505t462.5 -196q270 0 435 179.5 t157 463.5h-555v37h596zM834 -143h40l-81 -250h-29z" glyph-name="Gcommaaccent" horiz-adv-x="1628" unicode="Ģ"/><glyph d="M670 1563h28l-80 -377h-36zM600 -12q-225 0 -359.5 146.5t-134.5 375.5q0 211 140.5 366.5t349.5 155.5q156 0 279.5 -85t171.5 -240v305h36v-994q0 -229 -119.5 -359t-347.5 -130q-158 0 -277.5 64.5t-166.5 203.5l35 8q80 -242 409 -241q213 0 322 121.5t109 341.5v286 q-45 -154 -164 -239.5t-283 -85.5zM1049 510q0 209 -124 348t-329 139q-195 0 -324 -146t-129 -341q0 -215 123 -351t334 -136q209 0 329 136t120 351z" glyph-name="gcommaaccent" horiz-adv-x="1243" unicode="ģ"/><glyph d="M543 1569h-47l204 241h37l205 -241h-47l-176 211zM1151 1434h41v-1434h-41v678h-926v-678h-41v1434h41v-719h926v719z" glyph-name="Hcircumflex" horiz-adv-x="1376" unicode="Ĥ"/><glyph d="M23 1610h-48l205 241h37l205 -241h-47l-176 211zM600 1032q158 0 258 -103.5t100 -262.5v-666h-36v672q0 135 -89.5 230t-234.5 95q-180 0 -286.5 -147.5t-106.5 -343.5v-506h-37v1475h37v-777q39 150 143.5 242t251.5 92z" glyph-name="hcircumflex" horiz-adv-x="1114" unicode="ĥ"/><glyph d="M254 1759v37h631v-37h-631zM1032 1434h41v-1434h-41v678h-926v-678h-40v1434h40v-719h926v719z" glyph-name="Hbar" horiz-adv-x="1138" unicode="Ħ"/><glyph d="M449 1032q158 0 258 -103.5t100 -262.5v-666h-37v672q0 135 -89 230t-235 95q-180 0 -286.5 -147.5t-106.5 -343.5v-506h-37v1315h-90v37h90v123h37v-123h238v-37h-238v-617q39 150 144 242t252 92z" glyph-name="hbar" horiz-adv-x="962" unicode="ħ"/><glyph d="M-33 1606q0 49 16.5 80.5t42 44t41 15.5t29.5 3q55 0 123 -66.5t115 -66.5q80 0 80 110h32q2 -80 -35.5 -111.5t-82.5 -31.5q-53 0 -123 66.5t-115 66.5q-37 0 -63.5 -27.5t-26.5 -82.5h-33zM225 0h-41v1434h41v-1434z" glyph-name="Itilde" horiz-adv-x="409" unicode="Ĩ"/><glyph d="M-53 1249q0 49 16.5 81t42 44t40.5 15.5t30 3.5q55 0 122.5 -66.5t114.5 -66.5q80 0 80 110h33q2 -80 -36 -111.5t-83 -31.5q-53 0 -122.5 66.5t-114.5 66.5q-37 0 -63.5 -27.5t-26.5 -83.5h-33zM203 0h-35v1012h35v-1012z" glyph-name="itilde" horiz-adv-x="370" unicode="ĩ"/><glyph d="M-111 1522v37h631v-37h-631zM225 0h-41v1434h41v-1434z" glyph-name="Imacron" horiz-adv-x="409" unicode="Ī"/><glyph d="M-131 1165v37h631v-37h-631zM203 0h-35v1012h35v-1012z" glyph-name="imacron" horiz-adv-x="370" unicode="ī"/><glyph d="M225 0q-248 -104 -248 -258q0 -63 48.5 -103t146.5 -38q66 0 102 22l17 -31q-37 -29 -129 -28q-109 0 -165 47t-56 131q0 158 243 278v1414h41v-1434z" glyph-name="Iogonek" horiz-adv-x="409" unicode="Į"/><glyph d="M188 1372q-41 0 -41 41t41 41q16 0 28.5 -11t12.5 -29.5t-12.5 -30t-28.5 -11.5zM207 0q-248 -104 -248 -258q0 -63 48 -103t147 -38q66 0 102 22l16 -31q-37 -29 -129 -28q-109 0 -165 47t-56 131q0 160 248 281v989h37v-1012z" glyph-name="iogonek" horiz-adv-x="376" unicode="į"/><glyph d="M204.5 1505q-16.5 0 -28.5 12.5t-12 29t12 28.5t28.5 12t29 -12t12.5 -28.5t-12.5 -29t-29 -12.5zM225 0h-41v1434h41v-1434z" glyph-name="Idotaccent" horiz-adv-x="409" unicode="İ"/><glyph d="M203 0h-35v1012h35v-1012z" glyph-name="dotlessi" horiz-adv-x="370" unicode="ı"/><glyph d="M711 1569h-47l204 241h37l205 -241h-47l-176 211zM858 1434h41v-1041q0 -188 -103.5 -300.5t-283.5 -112.5q-188 0 -302 116.5t-124 302.5l39 9q12 -176 113.5 -284t269.5 -108q164 0 257 102.5t93 262.5v1053z" glyph-name="Jcircumflex" horiz-adv-x="1083" unicode="Ĵ"/><glyph d="M127 1147h-47l205 242h37l204 -242h-47l-176 211zM-84 -434q86 0 141.5 5t97.5 25.5t63.5 44t33.5 77t15 107.5t3 150v1037h37v-1075q0 -131 -12 -203t-55 -122t-117 -66.5t-207 -16.5v37z" glyph-name="jcircumflex" horiz-adv-x="485" unicode="ĵ"/><glyph d="M500 786l651 -786h-51l-629 758l-246 -262v-496h-41v1434h41v-881l830 881h55zM623 -143h41l-82 -250h-29z" glyph-name="Kcommaaccent" horiz-adv-x="1212" unicode="Ķ"/><glyph d="M446 629l443 -629h-43l-426 606l-215 -207v-399h-37v1475h37v-1031l594 568h47zM494 -143h41l-82 -250h-29z" glyph-name="kcommaaccent" horiz-adv-x="946" unicode="ķ"/><glyph d="M324 1808h49l-154 -221h-33zM225 37h738v-37h-779v1434h41v-1397z" glyph-name="Lacute" horiz-adv-x="1064" unicode="Ĺ"/><glyph d="M307 1849h49l-153 -221h-33zM205 0h-37v1475h37v-1475z" glyph-name="lacute" horiz-adv-x="372" unicode="ĺ"/><glyph d="M225 37h738v-37h-779v1434h41v-1397zM547 -143h41l-82 -250h-29z" glyph-name="Lcommaaccent" horiz-adv-x="1064" unicode="Ļ"/><glyph d="M205 0h-37v1475h37v-1475zM154 -143h41l-82 -250h-29z" glyph-name="lcommaaccent" horiz-adv-x="372" unicode="ļ"/><glyph d="M225 37h738v-37h-779v1434h41v-1397zM471 934h-37l109 500h43z" glyph-name="Lcaron" horiz-adv-x="1064" unicode="Ľ"/><glyph d="M205 0h-37v1475h37v-1475zM393 934h-37l109 500h43z" glyph-name="lcaron" horiz-adv-x="577" unicode="ľ"/><glyph d="M225 37h738v-37h-779v1434h41v-1397zM594 682q-16 0 -28.5 11.5t-12.5 29.5q0 16 12.5 28.5t28.5 12.5t28.5 -12.5t12.5 -28.5q0 -18 -12.5 -29.5t-28.5 -11.5z" glyph-name="Ldot" horiz-adv-x="1064" unicode="Ŀ"/><glyph d="M205 0h-37v1475h37v-1475zM471 629q-16 0 -28.5 11t-12.5 30q0 16 12.5 28.5t28.5 12.5t28.5 -12.5t12.5 -28.5q0 -18 -12.5 -29.5t-28.5 -11.5z" glyph-name="ldot" horiz-adv-x="581" unicode="ŀ"/><glyph d="M98 684v43l138 72v635h40v-613l306 158v-43l-306 -158v-741h738v-37h-778v756z" glyph-name="Lslash" horiz-adv-x="1120" unicode="Ł"/><glyph d="M274 705v43l238 120v607h37v-588l209 108v-43l-209 -108v-844h-37v825z" glyph-name="lslash" horiz-adv-x="1024" unicode="ł"/><glyph d="M811 1808h49l-153 -221h-33zM1163 1434h41v-1434h-39l-940 1362v-1362h-41v1434h39l940 -1360v1360z" glyph-name="Nacute" horiz-adv-x="1388" unicode="Ń"/><glyph d="M713 1407h49l-154 -221h-33zM596 1032q164 0 259 -99t95 -267v-666h-37v672q0 143 -86 234t-231 91q-186 0 -292.5 -145t-106.5 -346v-506h-37v1012h37v-314q43 154 145 244t254 90z" glyph-name="nacute" unicode="ń"/><glyph d="M1163 1434h41v-1434h-39l-940 1362v-1362h-41v1434h39l940 -1360v1360zM709 -143h41l-82 -250h-29z" glyph-name="Ncommaaccent" horiz-adv-x="1388" unicode="Ņ"/><glyph d="M596 1032q164 0 259 -99t95 -267v-666h-37v672q0 143 -86 234t-231 91q-186 0 -292.5 -145t-106.5 -346v-506h-37v1012h37v-314q43 154 145 244t254 90zM563 -143h41l-82 -250h-28z" glyph-name="ncommaaccent" unicode="ņ"/><glyph d="M467 1849h47l176 -211l176 211h47l-204 -241h-37zM1163 1434h41v-1434h-39l-940 1362v-1362h-41v1434h39l940 -1360v1360z" glyph-name="Ncaron" horiz-adv-x="1388" unicode="Ň"/><glyph d="M369 1448h47l176 -211l176 211h47l-205 -242h-37zM596 1032q164 0 259 -99t95 -267v-666h-37v672q0 143 -86 234t-231 91q-186 0 -292.5 -145t-106.5 -346v-506h-37v1012h37v-314q43 154 145 244t254 90z" glyph-name="ncaron" unicode="ň"/><glyph d="M498 1608v37h630v-37h-630zM815 1454q301 0 493.5 -216t192.5 -521t-192.5 -521t-493.5 -216t-492.5 216t-191.5 521t191.5 521t492.5 216zM815.5 16q280.5 0 462.5 205t182 496t-182 495.5t-462.5 204.5t-462 -204.5t-181.5 -495.5t181.5 -496t462 -205z" glyph-name="Omacron" horiz-adv-x="1632" unicode="Ō"/><glyph d="M293 1186v37h631v-37h-631zM612 1032q221 0 358.5 -151.5t137.5 -374.5q0 -221 -138.5 -373.5t-357.5 -152.5q-223 0 -364.5 152.5t-141.5 373.5q0 223 141.5 374.5t364.5 151.5zM610 14q201 0 331 139.5t130 352.5t-131 352t-330 139q-203 0 -334 -139t-131 -352 q0 -215 131 -353.5t334 -138.5z" glyph-name="omacron" horiz-adv-x="1214" unicode="ō"/><glyph d="M981 1815h41q0 -94 -58.5 -156t-150.5 -62t-151.5 61.5t-59.5 156.5h41q0 -78 45 -129.5t125 -51.5q78 0 123 51.5t45 129.5zM815 1454q301 0 493.5 -216t192.5 -521t-192.5 -521t-493.5 -216t-492.5 216t-191.5 521t191.5 521t492.5 216zM815.5 16q280.5 0 462.5 205 t182 496t-182 495.5t-462.5 204.5t-462 -204.5t-181.5 -495.5t181.5 -496t462 -205z" glyph-name="Obreve" horiz-adv-x="1632" unicode="Ŏ"/><glyph d="M776 1393h41q0 -94 -58.5 -155.5t-150.5 -61.5t-151.5 61t-59.5 156h41q0 -78 45 -129.5t125 -51.5q78 0 123 51.5t45 129.5zM612 1032q221 0 358.5 -151.5t137.5 -374.5q0 -221 -138.5 -373.5t-357.5 -152.5q-223 0 -364.5 152.5t-141.5 373.5q0 223 141.5 374.5 t364.5 151.5zM610 14q201 0 331 139.5t130 352.5t-131 352t-330 139q-203 0 -334 -139t-131 -352q0 -215 131 -353.5t334 -138.5z" glyph-name="obreve" horiz-adv-x="1214" unicode="ŏ"/><glyph d="M827 1829h45l-131 -221h-36zM1012 1829h49l-127 -221h-37zM815 1454q301 0 493.5 -216t192.5 -521t-192.5 -521t-493.5 -216t-492.5 216t-191.5 521t191.5 521t492.5 216zM815.5 16q280.5 0 462.5 205t182 496t-182 495.5t-462.5 204.5t-462 -204.5t-181.5 -495.5 t181.5 -496t462 -205z" glyph-name="Ohungarumlaut" horiz-adv-x="1632" unicode="Ő"/><glyph d="M623 1407h45l-131 -221h-37zM807 1407h49l-127 -221h-37zM612 1032q221 0 358.5 -151.5t137.5 -374.5q0 -221 -138.5 -373.5t-357.5 -152.5q-223 0 -364.5 152.5t-141.5 373.5q0 223 141.5 374.5t364.5 151.5zM610 14q201 0 331 139.5t130 352.5t-131 352t-330 139 q-203 0 -334 -139t-131 -352q0 -215 131 -353.5t334 -138.5z" glyph-name="ohungarumlaut" horiz-adv-x="1214" unicode="ő"/><glyph d="M127 719q0 322 178 528.5t488 206.5q223 0 389 -129t215 -346v455h721v-37h-680v-668h598v-37h-598v-655h680v-37h-721v444q-61 -229 -226 -346.5t-378 -117.5q-317 0 -491.5 204.5t-174.5 534.5zM168 719q0 -319 164 -511t461 -192q285 0 444.5 196t159.5 505 t-160 504.5t-444 195.5q-291 0 -458 -193.5t-167 -504.5z" glyph-name="OE" horiz-adv-x="2260" unicode="Œ"/><glyph d="M623 -20q-225 0 -371 151.5t-146 374.5t145.5 374.5t371.5 151.5q166 0 292.5 -107.5t163.5 -271.5q45 162 168 270.5t283 108.5q225 0 350 -143.5t125 -376.5l-2 -6v-2h-909q8 -211 133 -350.5t315 -139.5q137 0 245.5 71t166.5 200l41 -6q-139 -299 -455 -299 q-168 0 -296 108.5t-163 278.5q-41 -182 -164.5 -284.5t-293.5 -102.5zM608 997q-199 0 -331 -142t-132 -349q0 -203 133.5 -347.5t329.5 -144.5q205 0 328 138.5t123 353.5t-123 353t-328 138zM1096 539h870q-6 211 -121.5 334.5t-314.5 123.5q-170 0 -292 -137t-142 -321z " glyph-name="oe" horiz-adv-x="2111" unicode="œ"/><glyph d="M758 1808h49l-154 -221h-32zM633 1434q190 0 313 -121t123 -309q0 -164 -96 -276t-252 -136l366 -592h-45l-360 586q-16 -2 -49 -2h-408v-584h-41v1434h449zM633 621q170 0 281.5 106.5t111.5 276.5q0 172 -111.5 282.5t-281.5 110.5h-408v-776h408z" glyph-name="Racute" horiz-adv-x="1173" unicode="Ŕ"/><glyph d="M479 1407h49l-153 -221h-33zM557 1030v-35q-199 14 -280.5 -93t-81.5 -290v-612h-35v1012h35v-209q49 229 329 229z" glyph-name="racute" horiz-adv-x="630" unicode="ŕ"/><glyph d="M633 1434q190 0 313 -121t123 -309q0 -164 -96 -276t-252 -136l366 -592h-45l-360 586q-16 -2 -49 -2h-408v-584h-41v1434h449zM633 621q170 0 281.5 106.5t111.5 276.5q0 172 -111.5 282.5t-281.5 110.5h-408v-776h408zM586 -143h41l-82 -250h-29z" glyph-name="Rcommaaccent" horiz-adv-x="1173" unicode="Ŗ"/><glyph d="M557 1030v-35q-199 14 -280.5 -93t-81.5 -290v-612h-35v1012h35v-209q49 229 329 229zM143 -143h41l-82 -250h-28z" glyph-name="rcommaaccent" horiz-adv-x="630" unicode="ŗ"/><glyph d="M414 1849h47l176 -211l176 211h47l-205 -241h-37zM633 1434q190 0 313 -121t123 -309q0 -164 -96 -276t-252 -136l366 -592h-45l-360 586q-16 -2 -49 -2h-408v-584h-41v1434h449zM633 621q170 0 281.5 106.5t111.5 276.5q0 172 -111.5 282.5t-281.5 110.5h-408v-776h408z " glyph-name="Rcaron" horiz-adv-x="1173" unicode="Ř"/><glyph d="M135 1448h47l176 -211l177 211h47l-205 -242h-37zM557 1030v-35q-199 14 -280.5 -93t-81.5 -290v-612h-35v1012h35v-209q49 229 329 229z" glyph-name="rcaron" horiz-adv-x="630" unicode="ř"/><glyph d="M686 1829h49l-153 -221h-33zM178 1096q0 -129 79 -199t220 -115q43 -14 130 -37.5t138.5 -38t119 -46t105.5 -66.5t65.5 -93.5t27.5 -131.5q0 -184 -139.5 -286.5t-325.5 -102.5q-182 0 -315 104t-168 285l39 8q25 -164 151.5 -262.5t294.5 -98.5q164 0 293 91.5 t129 254.5q0 125 -78 194t-217 114q-43 14 -131 37.5t-139 38t-120 47t-106.5 68.5t-65.5 95.5t-28 135.5q0 174 121 268t295 94q168 0 291 -89t160 -251l-43 -8q-33 145 -141.5 228t-264.5 83q-158 0 -267.5 -83.5t-109.5 -237.5z" glyph-name="Sacute" horiz-adv-x="1177" unicode="Ś"/><glyph d="M567 1411h49l-153 -221h-33zM160 764q0 -90 64.5 -137t187.5 -80q18 -4 68 -16.5t71.5 -18.5t64.5 -20.5t63.5 -26.5t51.5 -33.5t44 -44t24.5 -55.5t11.5 -72q0 -127 -95 -203.5t-235 -76.5q-141 0 -248.5 80.5t-121.5 220.5l36 6q10 -119 106.5 -196t223.5 -77 q117 0 206 64.5t89 179.5q0 98 -68.5 147.5t-197.5 81.5q-16 4 -59.5 15.5t-61.5 16.5t-56 16.5t-56.5 21.5t-47 25.5t-43 32t-31 39t-22.5 49t-6 59.5q0 119 92 196.5t225 77.5q131 0 227.5 -75.5t112.5 -198.5l-37 -6q-14 113 -99 179t-200 66q-117 0 -200.5 -65.5 t-83.5 -171.5z" glyph-name="sacute" horiz-adv-x="921" unicode="ś"/><glyph d="M399 1589h-47l205 242h37l205 -242h-47l-177 211zM178 1096q0 -129 79 -199t220 -115q43 -14 130 -37.5t138.5 -38t119 -46t105.5 -66.5t65.5 -93.5t27.5 -131.5q0 -184 -139.5 -286.5t-325.5 -102.5q-182 0 -315 104t-168 285l39 8q25 -164 151.5 -262.5t294.5 -98.5 q164 0 293 91.5t129 254.5q0 125 -78 194t-217 114q-43 14 -131 37.5t-139 38t-120 47t-106.5 68.5t-65.5 95.5t-28 135.5q0 174 121 268t295 94q168 0 291 -89t160 -251l-43 -8q-33 145 -141.5 228t-264.5 83q-158 0 -267.5 -83.5t-109.5 -237.5z" glyph-name="Scircumflex" horiz-adv-x="1177" unicode="Ŝ"/><glyph d="M281 1171h-48l205 242h37l205 -242h-47l-176 211zM160 764q0 -90 64.5 -137t187.5 -80q18 -4 68 -16.5t71.5 -18.5t64.5 -20.5t63.5 -26.5t51.5 -33.5t44 -44t24.5 -55.5t11.5 -72q0 -127 -95 -203.5t-235 -76.5q-141 0 -248.5 80.5t-121.5 220.5l36 6 q10 -119 106.5 -196t223.5 -77q117 0 206 64.5t89 179.5q0 98 -68.5 147.5t-197.5 81.5q-16 4 -59.5 15.5t-61.5 16.5t-56 16.5t-56.5 21.5t-47 25.5t-43 32t-31 39t-22.5 49t-6 59.5q0 119 92 196.5t225 77.5q131 0 227.5 -75.5t112.5 -198.5l-37 -6q-14 113 -99 179 t-200 66q-117 0 -200.5 -65.5t-83.5 -171.5z" glyph-name="scircumflex" horiz-adv-x="921" unicode="ŝ"/><glyph d="M178 1096q0 -129 79 -199t220 -115q43 -14 130 -37.5t138.5 -38t119 -46t105.5 -66.5t65.5 -93.5t27.5 -131.5q0 -180 -133 -282.5t-314 -106.5l-41 -123q84 -8 144.5 -51.5t60.5 -114.5q0 -84 -55 -123t-133 -39q-72 0 -127 20l12 27q49 -14 119 -14q147 0 147 131 q0 66 -67.5 99.5t-143.5 33.5l43 154q-176 8 -302 111.5t-158 277.5l39 8q25 -164 151.5 -262.5t294.5 -98.5q164 0 293 91.5t129 254.5q0 125 -78 194t-217 114q-43 14 -131 37.5t-139 38t-120 47t-106.5 68.5t-65.5 95.5t-28 135.5q0 174 121 268t295 94q168 0 291 -89 t160 -251l-43 -8q-33 145 -141.5 228t-264.5 83q-158 0 -267.5 -83.5t-109.5 -237.5z" glyph-name="Scedilla" horiz-adv-x="1177" unicode="Ş"/><glyph d="M160 764q0 -90 64.5 -137t187.5 -80q18 -4 68 -16.5t71.5 -18.5t64.5 -20.5t63.5 -26.5t51.5 -33.5t44 -44t24.5 -55.5t11.5 -72q0 -123 -89 -198.5t-222 -81.5l-41 -123q84 -8 144.5 -51.5t60.5 -114.5q0 -84 -55.5 -123t-133.5 -39q-72 0 -127 20l12 27q49 -14 119 -14 q147 0 148 131q0 66 -67.5 99.5t-143.5 33.5l43 154q-135 6 -234.5 86.5t-113.5 214.5l36 6q10 -119 106.5 -196t223.5 -77q117 0 206 64.5t89 179.5q0 98 -68.5 147.5t-197.5 81.5q-16 4 -59.5 15.5t-61.5 16.5t-56 16.5t-56.5 21.5t-47 25.5t-43 32t-31 39t-22.5 49 t-6 59.5q0 119 92 196.5t225 77.5q131 0 227.5 -75.5t112.5 -198.5l-37 -6q-14 113 -99 179t-200 66q-117 0 -200.5 -65.5t-83.5 -171.5z" glyph-name="scedilla" horiz-adv-x="921" unicode="ş"/><glyph d="M342 1870h47l176 -211l176 211h47l-204 -242h-37zM178 1096q0 -129 79 -199t220 -115q43 -14 130 -37.5t138.5 -38t119 -46t105.5 -66.5t65.5 -93.5t27.5 -131.5q0 -184 -139.5 -286.5t-325.5 -102.5q-182 0 -315 104t-168 285l39 8q25 -164 151.5 -262.5t294.5 -98.5 q164 0 293 91.5t129 254.5q0 125 -78 194t-217 114q-43 14 -131 37.5t-139 38t-120 47t-106.5 68.5t-65.5 95.5t-28 135.5q0 174 121 268t295 94q168 0 291 -89t160 -251l-43 -8q-33 145 -141.5 228t-264.5 83q-158 0 -267.5 -83.5t-109.5 -237.5z" glyph-name="Scaron" horiz-adv-x="1177" unicode="Š"/><glyph d="M223 1452h47l176 -211l177 211h47l-205 -242h-37zM160 764q0 -90 64.5 -137t187.5 -80q18 -4 68 -16.5t71.5 -18.5t64.5 -20.5t63.5 -26.5t51.5 -33.5t44 -44t24.5 -55.5t11.5 -72q0 -127 -95 -203.5t-235 -76.5q-141 0 -248.5 80.5t-121.5 220.5l36 6 q10 -119 106.5 -196t223.5 -77q117 0 206 64.5t89 179.5q0 98 -68.5 147.5t-197.5 81.5q-16 4 -59.5 15.5t-61.5 16.5t-56 16.5t-56.5 21.5t-47 25.5t-43 32t-31 39t-22.5 49t-6 59.5q0 119 92 196.5t225 77.5q131 0 227.5 -75.5t112.5 -198.5l-37 -6q-14 113 -99 179 t-200 66q-117 0 -200.5 -65.5t-83.5 -171.5z" glyph-name="scaron" horiz-adv-x="921" unicode="š"/><glyph d="M94 1434h1016v-37h-487v-1397h-41v1397h-488v37zM571 -143h41l-82 -250h-28z" glyph-name="Tcommaaccent" horiz-adv-x="1204" unicode="Ţ"/><glyph d="M477 977h-215v-772q0 -106 27.5 -148.5t107.5 -42.5q61 0 95 13v-35q-47 -12 -95 -12q-92 0 -133 49t-41 176v772h-162v35h164v243l37 7v-250h215v-35zM391 -143h41l-82 -250h-28z" glyph-name="tcommaaccent" horiz-adv-x="606" unicode="ţ"/><glyph d="M379 1849h47l176 -211l176 211h47l-204 -241h-37zM94 1434h1016v-37h-487v-1397h-41v1397h-488v37z" glyph-name="Tcaron" horiz-adv-x="1204" unicode="Ť"/><glyph d="M811 934h-37l109 500h43zM477 977h-215v-772q0 -106 27.5 -148.5t107.5 -42.5q61 0 95 13v-35q-47 -12 -95 -12q-92 0 -133 49t-41 176v772h-162v35h164v243l37 7v-250h215v-35z" glyph-name="tcaron" horiz-adv-x="1046" unicode="ť"/><glyph d="M94 1434h1016v-37h-487v-611h295v-36h-295v-750h-41v750h-295v36h295v611h-488v37z" glyph-name="Tbar" horiz-adv-x="1204" unicode="Ŧ"/><glyph d="M477 977h-215v-315h215v-37h-215v-420q0 -106 27.5 -148.5t107.5 -42.5q61 0 95 13v-35q-47 -12 -95 -12q-92 0 -133 49t-41 176v420h-162v37h162v315h-162v35h164v243l37 7v-250h215v-35z" glyph-name="tbar" horiz-adv-x="610" unicode="ŧ"/><glyph d="M418 1671q0 49 16.5 81t42 44t40.5 15.5t30 3.5q55 0 122.5 -67t114.5 -67q80 0 80 111h33q2 -80 -36 -111.5t-83 -31.5q-53 0 -122.5 66.5t-114.5 66.5q-37 0 -63.5 -28t-26.5 -83h-33zM1083 1434h41v-873q0 -256 -115.5 -418.5t-353 -162.5t-354.5 163.5t-117 417.5 v873h41v-887q0 -143 39 -258t138.5 -194t252.5 -79q152 0 251.5 80t138 195t38.5 256v887z" glyph-name="Utilde" horiz-adv-x="1308" unicode="Ũ"/><glyph d="M354 1249q0 49 16.5 81t42 44t41 15.5t29.5 3.5q55 0 123 -66.5t115 -66.5q80 0 80 110h33q2 -80 -36 -111.5t-83 -31.5q-53 0 -123 66.5t-115 66.5q-37 0 -63.5 -27.5t-26.5 -83.5h-33zM510 -20q-164 0 -259 99t-95 267v666h37v-672q0 -143 86 -234.5t231 -91.5 q186 0 292.5 145.5t106.5 346.5v506h37v-1012h-37v313q-43 -154 -145 -243.5t-254 -89.5z" glyph-name="utilde" unicode="ũ"/><glyph d="M340 1587v37h631v-37h-631zM1083 1434h41v-873q0 -256 -115.5 -418.5t-353 -162.5t-354.5 163.5t-117 417.5v873h41v-887q0 -143 39 -258t138.5 -194t252.5 -79q152 0 251.5 80t138 195t38.5 256v887z" glyph-name="Umacron" horiz-adv-x="1308" unicode="Ū"/><glyph d="M276 1165v37h631v-37h-631zM510 -20q-164 0 -259 99t-95 267v666h37v-672q0 -143 86 -234.5t231 -91.5q186 0 292.5 145.5t106.5 346.5v506h37v-1012h-37v313q-43 -154 -145 -243.5t-254 -89.5z" glyph-name="umacron" unicode="ū"/><glyph d="M823 1794h41q0 -94 -58 -155.5t-150.5 -61.5t-152 61.5t-59.5 155.5h41q0 -78 45 -129t125 -51q78 0 123 51t45 129zM1083 1434h41v-873q0 -256 -115.5 -418.5t-353 -162.5t-354.5 163.5t-117 417.5v873h41v-887q0 -143 39 -258t138.5 -194t252.5 -79q152 0 251.5 80 t138 195t38.5 256v887z" glyph-name="Ubreve" horiz-adv-x="1308" unicode="Ŭ"/><glyph d="M760 1372h41q0 -94 -58.5 -155.5t-150.5 -61.5t-151.5 61.5t-59.5 155.5h41q0 -78 45 -129t125 -51q78 0 123 51t45 129zM510 -20q-164 0 -259 99t-95 267v666h37v-672q0 -143 86 -234.5t231 -91.5q186 0 292.5 145.5t106.5 346.5v506h37v-1012h-37v313 q-43 -154 -145 -243.5t-254 -89.5z" glyph-name="ubreve" unicode="ŭ"/><glyph d="M655 1577q-74 0 -127 49t-53 127q0 80 52.5 130t128 50t125.5 -50t50 -130q0 -78 -50 -127t-126 -49zM653.5 1610q61.5 0 101.5 40t40 101q0 66 -40 108t-102 42q-59 0 -100 -43t-41 -107q0 -61 40 -101t101.5 -40zM1083 1434h41v-873q0 -256 -115.5 -418.5t-353 -162.5 t-354.5 163.5t-117 417.5v873h41v-887q0 -143 39 -258t138.5 -194t252.5 -79q152 0 251.5 80t138 195t38.5 256v887z" glyph-name="Uring" horiz-adv-x="1308" unicode="Ů"/><glyph d="M592 1155q-74 0 -127 49t-53 127q0 80 52 130t128 50t126 -50t50 -130q0 -78 -50 -127t-126 -49zM589.5 1188q61.5 0 101.5 40t40 101q0 66 -40 108t-101 42q-59 0 -100 -43t-41 -107q0 -61 39.5 -101t101 -40zM510 -20q-164 0 -259 99t-95 267v666h37v-672 q0 -143 86 -234.5t231 -91.5q186 0 292.5 145.5t106.5 346.5v506h37v-1012h-37v313q-43 -154 -145 -243.5t-254 -89.5z" glyph-name="uring" unicode="ů"/><glyph d="M670 1808h45l-131 -221h-37zM854 1808h49l-127 -221h-37zM1083 1434h41v-873q0 -256 -115.5 -418.5t-353 -162.5t-354.5 163.5t-117 417.5v873h41v-887q0 -143 39 -258t138.5 -194t252.5 -79q152 0 251.5 80t138 195t38.5 256v887z" glyph-name="Uhungarumlaut" horiz-adv-x="1308" unicode="Ű"/><glyph d="M606 1386h45l-131 -221h-37zM791 1386h49l-127 -221h-37zM510 -20q-164 0 -259 99t-95 267v666h37v-672q0 -143 86 -234.5t231 -91.5q186 0 292.5 145.5t106.5 346.5v506h37v-1012h-37v313q-43 -154 -145 -243.5t-254 -89.5z" glyph-name="uhungarumlaut" unicode="ű"/><glyph d="M1083 1434h41v-873q0 -205 -74.5 -353.5t-228.5 -201.5q-219 -102 -219 -246q0 -63 48 -103t147 -38q66 0 102 23l16 -31q-37 -29 -129 -29q-109 0 -165 47t-56 131q0 125 144 222q-16 -2 -54 -2q-238 0 -354.5 163.5t-116.5 417.5v873h41v-887q0 -143 39 -258 t138.5 -194t252.5 -79q152 0 251.5 80t138 195t38.5 256v887z" glyph-name="Uogonek" horiz-adv-x="1308" unicode="Ų"/><glyph d="M510 -20q-164 0 -259 99t-95 267v666h37v-672q0 -143 86 -234.5t231 -91.5q186 0 292.5 145.5t106.5 346.5v506h37v-1012q-248 -104 -248 -258q0 -63 48.5 -103t146.5 -38q66 0 102 22l17 -31q-37 -29 -129 -28q-109 0 -165 47t-56 131q0 160 247 281v290 q-43 -154 -145 -243.5t-254 -89.5z" glyph-name="uogonek" unicode="ų"/><glyph d="M786 1569h-47l205 241h37l205 -241h-47l-176 211zM1774 1434h41l-408 -1434h-55l-398 1350l-397 -1350h-59l-408 1434h45l393 -1393l408 1393h33l411 -1393z" glyph-name="Wcircumflex" horiz-adv-x="1904" unicode="Ŵ"/><glyph d="M559 1147h-47l205 242h37l204 -242h-47l-176 211zM1335 1012h41l-297 -1012h-45l-311 950l-309 -950h-45l-295 1012h37l280 -971l316 971h30l318 -971z" glyph-name="wcircumflex" horiz-adv-x="1449" unicode="ŵ"/><glyph d="M440 1569h-47l205 241h37l205 -241h-47l-177 211zM1100 1434h45l-518 -840v-594h-41v594l-516 840h45l491 -801z" glyph-name="Ycircumflex" horiz-adv-x="1214" unicode="Ŷ"/><glyph d="M326 1147h-47l204 242h37l205 -242h-47l-176 211zM877 1012h38l-555 -1463h-36l176 467l-430 996h41l405 -953z" glyph-name="ycircumflex" horiz-adv-x="985" unicode="ŷ"/><glyph d="M442 1642.5q0 16.5 12.5 28.5t29 12t28.5 -12t12 -28.5t-12 -28.5t-28.5 -12t-29 12t-12.5 28.5zM688 1642.5q0 16.5 12.5 28.5t28.5 12t28.5 -12t12.5 -28.5t-12.5 -28.5t-28.5 -12t-28.5 12t-12.5 28.5zM1100 1434h45l-518 -840v-594h-41v594l-516 840h45l491 -801z " glyph-name="Ydieresis" horiz-adv-x="1214" unicode="Ÿ"/><glyph d="M745 1808h50l-154 -221h-33zM190 37h936v-37h-983v37l916 1360h-895v37h942v-37z" glyph-name="Zacute" horiz-adv-x="1269" unicode="Ź"/><glyph d="M684 1386h49l-153 -221h-33zM180 35h742v-35h-787v35l721 942h-702v35h747v-35z" glyph-name="zacute" horiz-adv-x="1056" unicode="ź"/><glyph d="M624.5 1571q-16.5 0 -28.5 12t-12 28.5t12 29t28.5 12.5t29 -12.5t12.5 -29t-12.5 -28.5t-29 -12zM190 37h936v-37h-983v37l916 1360h-895v37h942v-37z" glyph-name="Zdotaccent" horiz-adv-x="1269" unicode="Ż"/><glyph d="M563.5 1149q-16.5 0 -29 12.5t-12.5 28.5t12.5 28.5t29 12.5t28.5 -12.5t12 -28.5t-12 -28.5t-28.5 -12.5zM180 35h742v-35h-787v35l721 942h-702v35h747v-35z" glyph-name="zdotaccent" horiz-adv-x="1056" unicode="ż"/><glyph d="M401 1849h48l176 -211l176 211h47l-205 -241h-37zM190 37h936v-37h-983v37l916 1360h-895v37h942v-37z" glyph-name="Zcaron" horiz-adv-x="1269" unicode="Ž"/><glyph d="M340 1427h47l176 -210l176 210h47l-204 -241h-37zM180 35h742v-35h-787v35l721 942h-702v35h747v-35z" glyph-name="zcaron" horiz-adv-x="1056" unicode="ž"/><glyph d="M221 1233v-1233h-37v1194q0 68 5.5 110t22.5 91t59 73.5t108 24.5l72 -4v-35q-100 16 -154 -12q-76 -41 -76 -209z" glyph-name="longs" horiz-adv-x="569" unicode="ſ"/><glyph d="M82 -430q86 4 121 10q109 16 159 99t50 251v1049h-215v33h215v-25q0 180 34.5 281.5t145.5 142.5q70 18 143 19h29h14v-46q-90 -4 -123 -10q-109 -16 -159 -99t-50 -251v-12h299v-33h-299v-1012q0 -180 -34.5 -280.5t-145.5 -141.5q-68 -18 -141 -18l-29 -2h-14v45z" glyph-name="florin" horiz-adv-x="860" unicode="ƒ"/><glyph d="M178 1096q0 -129 79 -199t220 -115q43 -14 130 -37.5t138.5 -38t119 -46t105.5 -66.5t65.5 -93.5t27.5 -131.5q0 -184 -139.5 -286.5t-325.5 -102.5q-182 0 -315 104t-168 285l39 8q25 -164 151.5 -262.5t294.5 -98.5q164 0 293 91.5t129 254.5q0 125 -78 194t-217 114 q-43 14 -131 37.5t-139 38t-120 47t-106.5 68.5t-65.5 95.5t-28 135.5q0 174 121 268t295 94q168 0 291 -89t160 -251l-43 -8q-33 145 -141.5 228t-264.5 83q-158 0 -267.5 -83.5t-109.5 -237.5zM571 -143h41l-82 -250h-28z" glyph-name="Scommaaccent" horiz-adv-x="1177" unicode="Ș"/><glyph d="M160 764q0 -90 64.5 -137t187.5 -80q18 -4 68 -16.5t71.5 -18.5t64.5 -20.5t63.5 -26.5t51.5 -33.5t44 -44t24.5 -55.5t11.5 -72q0 -127 -95 -203.5t-235 -76.5q-141 0 -248.5 80.5t-121.5 220.5l36 6q10 -119 106.5 -196t223.5 -77q117 0 206 64.5t89 179.5 q0 98 -68.5 147.5t-197.5 81.5q-16 4 -59.5 15.5t-61.5 16.5t-56 16.5t-56.5 21.5t-47 25.5t-43 32t-31 39t-22.5 49t-6 59.5q0 119 92 196.5t225 77.5q131 0 227.5 -75.5t112.5 -198.5l-37 -6q-14 113 -99 179t-200 66q-117 0 -200.5 -65.5t-83.5 -171.5zM455 -143h41 l-82 -250h-29z" glyph-name="scommaaccent" horiz-adv-x="921" unicode="ș"/><glyph d="M94 1434h1016v-37h-487v-1397h-41v1397h-488v37zM571 -143h41l-82 -250h-28z" glyph-name="uni021A" horiz-adv-x="1204" unicode="Ț"/><glyph d="M477 977h-215v-772q0 -106 27.5 -148.5t107.5 -42.5q61 0 95 13v-35q-47 -12 -95 -12q-92 0 -133 49t-41 176v772h-162v35h164v243l37 7v-250h215v-35zM391 -143h41l-82 -250h-28z" glyph-name="uni021B" horiz-adv-x="606" unicode="ț"/><glyph d="M-84 -434q86 0 141.5 5t97.5 25.5t63.5 44t33.5 77t15 107.5t3 150v1037h37v-1075q0 -131 -12 -203t-55 -122t-117 -66.5t-207 -16.5v37z" glyph-name="uni0237" horiz-adv-x="485" unicode="ȷ"/><glyph d="M256 1167h-47l205 242h37l204 -242h-47l-176 211z" glyph-name="circumflex" horiz-adv-x="864" unicode="ˆ"/><glyph d="M211 1462h47l176 -211l176 211h47l-204 -241h-37z" glyph-name="caron" horiz-adv-x="866" unicode="ˇ"/><glyph d="M588 1395h41q0 -94 -58.5 -155.5t-150.5 -61.5t-151.5 61t-59.5 156h41q0 -78 45 -129.5t125 -51.5q78 0 123 51.5t45 129.5z" glyph-name="breve" horiz-adv-x="837" unicode="˘"/><glyph d="M249.5 1178q-16.5 0 -28.5 12t-12 28.5t12 29t28.5 12.5t29 -12.5t12.5 -29t-12.5 -28.5t-29 -12z" glyph-name="dotaccent" horiz-adv-x="499" unicode="˙"/><glyph d="M389 1190q-74 0 -127 49t-53 127q0 80 52 130t128 50t126 -50t50 -130q0 -78 -50 -127t-126 -49zM387.5 1223q61.5 0 101 40t39.5 101q0 66 -39.5 107.5t-101.5 41.5q-59 0 -100 -43t-41 -106q0 -61 40 -101t101.5 -40z" glyph-name="ring" horiz-adv-x="774" unicode="˚"/><glyph d="M430 -436q-109 0 -165 47t-56 131q0 164 260 287l25 -29q-248 -104 -248 -258q0 -63 48 -103t146 -38q66 0 103 22l16 -31q-37 -28 -129 -28z" glyph-name="ogonek" horiz-adv-x="768" unicode="˛"/><glyph d="M209 1120q0 49 16.5 81t42 44t41 15.5t29.5 3.5q55 0 122.5 -67t114.5 -67q80 0 80 111h33q2 -80 -36 -111.5t-83 -31.5q-53 0 -122.5 66.5t-114.5 66.5q-37 0 -63.5 -27.5t-26.5 -83.5h-33z" glyph-name="tilde" horiz-adv-x="897" unicode="˜"/><glyph d="M332 1434h45l-131 -222h-37zM516 1434h49l-127 -222h-37z" glyph-name="hungarumlaut" horiz-adv-x="774" unicode="˝"/><glyph d="M322 -143h40l-81 -250h-29z" glyph-name="uni0326" horiz-adv-x="612" unicode="̦"/><glyph d="M102 0l506 1434h58l505 -1434h-1069zM158 37h958l-479 1362z" glyph-name="Delta" horiz-adv-x="1273" unicode="Δ"/><glyph d="M676 0h-508v37h426q-33 8 -81 32.5t-113.5 80t-120 128t-93.5 185t-39 244.5q0 330 184.5 538.5t487.5 208.5q307 0 489.5 -208t182.5 -539q0 -160 -55.5 -293t-136 -209t-145 -117t-110.5 -51h447v-37h-528v37q92 35 173 87t154.5 132t116.5 195.5t43 255.5 q0 195 -69.5 352.5t-215 257.5t-346.5 100t-346 -100t-215 -258t-70 -352q0 -139 43 -255t118 -196t155 -132t172 -87v-37z" glyph-name="Omega" horiz-adv-x="1638" unicode="Ω"/><glyph d="M952 1012v-1012h-37v289q-39 -131 -136 -220t-244 -89q-111 0 -201 53t-137 155v-639h-37v1463h35v-676q0 -135 99 -229.5t241 -94.5q166 0 273 135.5t107 339.5v525h37z" glyph-name="mu" horiz-adv-x="1112" unicode="μ"/><glyph d="M106 977v35h914v-35h-139v-977h-35v977h-561v-977h-39v977h-140z" glyph-name="pi" horiz-adv-x="1146" unicode="π"/><glyph d="M819 1808l156 -221h-41l-172 221h57zM1774 1434h41l-408 -1434h-55l-398 1350l-397 -1350h-59l-408 1434h45l393 -1393l408 1393h33l411 -1393z" glyph-name="Wgrave" horiz-adv-x="1904" unicode="Ẁ"/><glyph d="M592 1386l156 -221h-41l-172 221h57zM1335 1012h41l-297 -1012h-45l-311 950l-309 -950h-45l-295 1012h37l280 -971l316 971h30l318 -971z" glyph-name="wgrave" horiz-adv-x="1449" unicode="ẁ"/><glyph d="M1073 1808h49l-153 -221h-33zM1774 1434h41l-408 -1434h-55l-398 1350l-397 -1350h-59l-408 1434h45l393 -1393l408 1393h33l411 -1393z" glyph-name="Wacute" horiz-adv-x="1904" unicode="Ẃ"/><glyph d="M846 1386h49l-154 -221h-32zM1335 1012h41l-297 -1012h-45l-311 950l-309 -950h-45l-295 1012h37l280 -971l316 971h30l318 -971z" glyph-name="wacute" horiz-adv-x="1449" unicode="ẃ"/><glyph d="M788 1642.5q0 16.5 12.5 28.5t29 12t28.5 -12t12 -28.5t-12 -28.5t-28.5 -12t-29 12t-12.5 28.5zM1034 1642.5q0 16.5 12.5 28.5t29 12t28.5 -12t12 -28.5t-12 -28.5t-28.5 -12t-29 12t-12.5 28.5zM1774 1434h41l-408 -1434h-55l-398 1350l-397 -1350h-59l-408 1434h45 l393 -1393l408 1393h33l411 -1393z" glyph-name="Wdieresis" horiz-adv-x="1904" unicode="Ẅ"/><glyph d="M561 1220.5q0 16.5 12.5 29t28.5 12.5t28.5 -12.5t12.5 -29t-12.5 -28.5t-28.5 -12t-28.5 12t-12.5 28.5zM807 1220.5q0 16.5 12 29t28.5 12.5t29 -12.5t12.5 -29t-12.5 -28.5t-29 -12t-28.5 12t-12 28.5zM1335 1012h41l-297 -1012h-45l-311 950l-309 -950h-45l-295 1012 h37l280 -971l316 971h30l318 -971z" glyph-name="wdieresis" horiz-adv-x="1449" unicode="ẅ"/><glyph d="M1057 614h-1012v37h1012v-37z" glyph-name="endash" horiz-adv-x="1101" unicode="–"/><glyph d="M2093 608h-2048v37h2048v-37z" glyph-name="emdash" horiz-adv-x="2138" unicode="—"/><glyph d="M295 1434h33l-105 -500h-47z" glyph-name="quoteleft" horiz-adv-x="503" unicode="‘"/><glyph d="M213 934h-37l109 500h43z" glyph-name="quoteright" horiz-adv-x="505" unicode="’"/><glyph d="M211 -311h-35l96 504h43z" glyph-name="quotesinglbase" horiz-adv-x="491" unicode="‚"/><glyph d="M582 1434h32l-104 -500h-47zM315 1434h33l-125 -500h-47z" glyph-name="quotedblleft" horiz-adv-x="790" unicode="“"/><glyph d="M209 934h-33l105 500h47zM475 934h-33l125 500h47z" glyph-name="quotedblright" horiz-adv-x="790" unicode="”"/><glyph d="M211 -346h-35l107 500h45zM477 -346h-35l127 500h45z" glyph-name="quotedblbase" horiz-adv-x="790" unicode="„"/><glyph d="M209 975v37h287v422h41v-422h286v-37h-286v-975h-41v975h-287z" glyph-name="dagger" horiz-adv-x="1032" unicode="†"/><glyph d="M209 975v37h358v422h41v-422h359v-37h-359v-938h359v-37h-359v-422h-41v422h-358v37h358v938h-358z" glyph-name="daggerdbl" horiz-adv-x="1175" unicode="‡"/><glyph d="M291 655q-25 0 -43.5 18.5t-18.5 43t18.5 43t43.5 18.5q27 0 44 -18.5t17 -43t-17 -43t-44 -18.5z" glyph-name="bullet" horiz-adv-x="581" unicode="•"/><glyph d="M233.5 -4q-16.5 0 -28.5 11t-12 30q0 16 12 28.5t28.5 12.5t28.5 -12.5t12 -28.5q0 -18 -12 -29.5t-28.5 -11.5zM473 -4q-16 0 -28.5 11t-12.5 30q0 16 12.5 28.5t28.5 12.5t28.5 -12.5t12.5 -28.5q0 -18 -12.5 -29.5t-28.5 -11.5zM712.5 -4q-16.5 0 -28.5 11t-12 30 q0 16 12 28.5t28.5 12.5t29 -12.5t12.5 -28.5q0 -18 -12.5 -29.5t-29 -11.5z" glyph-name="ellipsis" horiz-adv-x="946" unicode="…"/><glyph d="M365 877q-127 0 -199 79.5t-72 208.5t72 209t199 80t198.5 -80t71.5 -209t-71.5 -208.5t-198.5 -79.5zM207 -18l-35 18l1032 1452l35 -18zM364.5 1417q-106.5 0 -168 -69.5t-61.5 -182t61.5 -182.5t168 -70t168 70t61.5 182.5t-61.5 182t-168 69.5zM1044 -20 q-127 0 -198.5 79.5t-71.5 208.5t72 209t198 80q188 0 250 -166q61 166 250 166q127 0 199 -80t72 -209t-72 -208.5t-199 -79.5q-92 0 -156.5 44t-93.5 119q-29 -76 -93.5 -119.5t-156.5 -43.5zM815 266q0 -111 61.5 -180.5t168 -69.5t168 70t61.5 180q0 115 -61.5 184.5 t-168 69.5t-168 -69.5t-61.5 -184.5zM1315 266q0 -111 61.5 -180.5t168 -69.5t168 70t61.5 180q0 115 -61.5 184.5t-168 69.5t-168 -69.5t-61.5 -184.5z" glyph-name="perthousand" horiz-adv-x="1908" unicode="‰"/><glyph d="M535 1065h55l-369 -422l369 -420h-55l-359 420z" glyph-name="guilsinglleft" horiz-adv-x="765" unicode="‹"/><glyph d="M176 1065h55l359 -422l-359 -420h-55l367 420z" glyph-name="guilsinglright" horiz-adv-x="765" unicode="›"/><glyph d="M-430 0l1057 1452l37 -18l-1059 -1452z" glyph-name="fraction" horiz-adv-x="235" unicode="⁄"/><glyph d="M223 504h-119v37h113q-10 86 -10 176q0 111 10 182h-113v37h121q37 229 155 373.5t335 144.5q319 0 442 -315l-43 -6q-119 285 -399 284q-379 0 -453 -481h662v-37h-668q-10 -76 -10 -182q0 -84 10 -176h668v-37h-662q76 -487 453 -488q283 0 399 285l41 -8 q-123 -313 -440 -313q-221 0 -339 146.5t-153 377.5z" glyph-name="Euro" horiz-adv-x="1284" unicode="€"/><glyph d="M707 1434v-35h-263v-760h-36v760h-261v35h560zM1546 1434h47v-795h-34v739l-320 -739h-41l-315 739v-739h-37v795h49l324 -756z" glyph-name="trademark" horiz-adv-x="1802" unicode="™"/><glyph d="M616 1024q160 0 282 -90t169 -227q-8 172 -45 302t-86 205.5t-116.5 122.5t-128 63.5t-126.5 16.5q-164 0 -262 -55l-16 33q104 59 262 59q66 0 128 -12t144 -62.5t141.5 -131.5t101.5 -235.5t42 -361.5v-73q0 -276 -136 -437t-352 -161q-211 0 -351 150.5t-140 375.5 t141 371.5t348 146.5zM616 16q188 0 317.5 141.5t129.5 352.5q0 207 -128 342t-314 135q-193 0 -323 -140t-130 -347q0 -205 127.5 -344.5t320.5 -139.5z" glyph-name="partialdiff" horiz-adv-x="1232" unicode="∂"/><glyph d="M127 -328v1762h1024v-1762h-41v1725h-942v-1725h-41z" glyph-name="product" horiz-adv-x="1277" unicode="∏"/><glyph d="M209 1434h999v-37h-952l545 -832l-545 -856h952v-37h-999v37l545 856l-545 832v37z" glyph-name="summation" horiz-adv-x="1396" unicode="∑"/><glyph d="M930 614h-770v37h770v-37z" glyph-name="minus" horiz-adv-x="1089" unicode="−"/><glyph d="M127 844v37h291l256 -820l399 1381l41 -8l-420 -1434h-41l-264 844h-262z" glyph-name="radical" horiz-adv-x="1175" unicode="√"/><glyph d="M106 520q0 172 114 268.5t257 96.5q244 0 451 -334q207 334 446 334q143 0 257 -96.5t114 -268.5t-113.5 -268t-257.5 -96q-244 0 -450 333q-207 -334 -447 -333q-143 0 -257 96t-114 268zM1374 848q-221 0 -426 -330q201 -326 426 -325q150 0 240 96t90 231t-90 231.5 t-240 96.5zM147 520q0 -135 89.5 -231t240.5 -96q221 0 426 329q-201 326 -426 326q-152 0 -241 -96.5t-89 -231.5z" glyph-name="infinity" horiz-adv-x="1853" unicode="∞"/><glyph d="M129 -432q84 -8 139 4q102 23 146.5 105.5t44.5 254.5v1080q0 88 5 147.5t23.5 119.5t51 95t90 57.5t139.5 22.5q8 0 21.5 -1t25.5 -3h10v-37q-76 10 -139 -4q-102 -23 -144 -105.5t-42 -254.5v-1080q0 -109 -9.5 -178.5t-40 -135t-96 -96t-168.5 -30.5h-13t-15 1 t-14.5 2t-10.5 1h-4v35z" glyph-name="integral" horiz-adv-x="952" unicode="∫"/><glyph d="M209 692q0 61 16.5 106.5t39 68t53 34.5t50 15.5t40.5 3.5q57 0 105 -24t81 -57.5t63.5 -67.5t69.5 -57.5t84 -23.5q66 0 111 47t45 144h37q0 -59 -18.5 -104.5t-42 -67t-55.5 -34.5t-52.5 -16.5t-38.5 -3.5q-59 0 -109.5 37t-83.5 80t-87 79t-118 34q-154 -4 -153 -193 h-37zM209 377q0 61 16.5 106t39 67.5t53 35t50 15.5t40.5 3q57 0 105 -23.5t81 -57.5t63.5 -67.5t69.5 -57t84 -23.5q66 0 111 47t45 143h37q0 -59 -18.5 -104t-42 -66.5t-55.5 -35t-52.5 -16.5t-38.5 -3q-59 0 -109.5 37t-83.5 80t-87 78.5t-118 33.5q-154 -4 -153 -192 h-37z" glyph-name="approxequal" horiz-adv-x="1212" unicode="≈"/><glyph d="M958 815h-266l-223 -305h489v-37h-516l-127 -172l-34 12l116 160h-221v37h248l225 305h-473v37h500l143 197l35 -13l-135 -184h239v-37z" glyph-name="notequal" horiz-adv-x="1134" unicode="≠"/><glyph d="M930 1348v-45l-721 -412l721 -412v-45l-770 445v24zM930 176h-770v35h770v-35z" glyph-name="lessequal" horiz-adv-x="1089" unicode="≤"/><glyph d="M160 1303v45l770 -445v-24l-770 -445v45l721 412zM930 176h-770v35h770v-35z" glyph-name="greaterequal" horiz-adv-x="1089" unicode="≥"/><glyph d="M127 729l444 705h41l445 -705l-445 -729h-41zM1012 729l-420 666l-420 -666l420 -688z" glyph-name="lozenge" horiz-adv-x="1183" unicode="◊"/><glyph d="M881 1434h43l-598 -1434h-43l237 569l-409 865h45l385 -818z" glyph-name="Y.aalt" horiz-adv-x="1034"/><glyph d="M1026 1012h39v-1012h-39v291q-55 -154 -174 -232.5t-256 -78.5q-215 0 -352.5 151.5t-137.5 372.5q0 219 136.5 373.5t351.5 154.5q135 0 258 -79t174 -232v291zM1028 506q0 209 -116.5 350t-317.5 141q-205 0 -329 -144t-124 -349q0 -207 125 -348.5t330 -141.5 q201 0 316.5 141.5t115.5 350.5z" glyph-name="a.aalt" horiz-adv-x="1232"/><glyph d="M115 0l223 1434h43l416 -1364l422 1364h36l224 -1434h-41l-207 1350l-416 -1350h-37l-411 1350l-209 -1350h-43z" glyph-name="M.aalt" horiz-adv-x="1593"/><glyph d="M1430 0h-25l-578 954l-579 -954h-23v1434h41v-1332l553 910h17l553 -910v1332h41v-1434z" glyph-name="W.aalt" horiz-adv-x="1654"/><glyph d="M70 1012h39l399 -963l369 963h38l-387 -1012q-90 -236 -173 -353.5t-203 -117.5l-74 6v35q33 -6 74 -6q98 0 173.5 107.5t161.5 328.5z" glyph-name="y.aalt" horiz-adv-x="985"/><glyph d="M995 1155v-43l-731 -364l731 -365v-43l-770 387v41z" glyph-name="less.aalt" horiz-adv-x="1220"/><glyph d="M225 1112v43l770 -387v-41l-770 -387v43l731 365z" glyph-name="greater.aalt" horiz-adv-x="1220"/><glyph d="M958 918h-782v36h782v-36zM958 575h-782v37h782v-37z" glyph-name="equal.aalt" horiz-adv-x="1134"/><glyph d="M688 717h-532v37h532v-37z" glyph-name="hyphen.aalt" horiz-adv-x="843"/><glyph d="M578 1651h-287v-1866h287v-39h-328v1942h328v-37z" glyph-name="bracketleft.aalt" horiz-adv-x="643"/><glyph d="M92 1628l535 -1734l-39 -7l-535 1735z" glyph-name="backslash.aalt" horiz-adv-x="679"/><glyph d="M352 1651h-286v37h327v-1942h-327v39h286v1866z" glyph-name="bracketright.aalt" horiz-adv-x="643"/><glyph d="M340 995q0 -264 -188 -317q88 -23 138 -104.5t50 -206.5v-433q0 -143 44 -184t189 -41l45 2v-37q-25 -2 -57 -2q-174 0 -218 61.5t-44 270.5v377q0 123 -59.5 196.5t-173.5 73.5v54q115 0 174 74.5t59 197.5v383q0 207 44 267.5t218 60.5l57 -2v-37q-27 2 -45 2 q-145 0 -189 -39t-44 -182v-435z" glyph-name="braceleft.aalt" horiz-adv-x="684"/><glyph d="M344 995v435q0 143 -44 182t-189 39l-45 -2v37q27 2 57 2q174 0 218 -60.5t44 -267.5v-383q0 -123 59.5 -197.5t173.5 -74.5v-54q-115 0 -174 -73.5t-59 -196.5v-377q0 -209 -44 -270.5t-218 -61.5l-57 2v37q27 -2 45 -2q145 0 189 41t44 184v433q0 125 50 206.5 t138 104.5q-188 53 -188 317z" glyph-name="braceright.aalt" horiz-adv-x="684"/><glyph d="M332 -328h-41v2089h41v-2089z" glyph-name="bar.aalt" horiz-adv-x="622"/><glyph d="M279 399l-29 27l299 299l-299 299l29 29l299 -299l299 299l28 -29l-299 -299l299 -299l-28 -27l-299 299z" glyph-name="multiply.aalt" horiz-adv-x="1155"/><glyph d="M930 717h-770v37h770v-37z" glyph-name="minus.aalt" horiz-adv-x="1089"/><glyph d="M520.5 1004q-16.5 0 -29 12t-12.5 28.5t12.5 28.5t29 12t28.5 -12t12 -28.5t-12 -28.5t-28.5 -12zM881 717h-721v37h721v-37zM520.5 385q-16.5 0 -29 12.5t-12.5 28.5t12.5 28.5t29 12.5t28.5 -12.5t12 -28.5t-12 -28.5t-28.5 -12.5z" glyph-name="divide.aalt" horiz-adv-x="1040"/><glyph d="M524 1786q-106 -170 -180 -462t-74 -607.5t74 -600t180 -444.5h-32q-111 158 -187 447t-76 598q0 307 76 604t187 465h32z" glyph-name="parenleft.aalt" horiz-adv-x="610"/><glyph d="M86 1786h33q111 -168 186.5 -465t75.5 -604q0 -309 -76 -598t-186 -447h-33q106 160 180 444.5t74 600t-74 607.5t-180 462z" glyph-name="parenright.aalt" horiz-adv-x="610"/><glyph d="M94 -92l535 1734l39 -8l-535 -1734z" glyph-name="slash.aalt" horiz-adv-x="761"/><glyph d="M635 1454q141 0 244.5 -65.5t158 -177t79 -233.5t24.5 -261t-24.5 -261t-79 -233.5t-158 -177t-244.5 -65.5q-115 0 -205 45t-146.5 116.5t-92 170t-50 197.5t-14.5 207.5t14.5 208t50 198t92 170t146.5 116.5t205 45zM635 16q119 0 207 53.5t136 128t76.5 177t37 181.5 t8.5 161t-8.5 160.5t-37 181t-76.5 177.5t-136 128t-207 53t-207 -53t-136 -128t-78 -177.5t-38 -182t-8 -159.5t8 -160t38 -182.5t78 -177t136 -128t207 -53.5z" glyph-name="zero.aalt" horiz-adv-x="1267"/><glyph d="M360 1397v37h277v-1434h-41v1397h-236z" glyph-name="one.tnum" horiz-adv-x="1228"/><glyph d="M168 1044q10 174 139 292t322 118q190 0 322 -121t132 -315q0 -254 -237 -455l-627 -526h866v-37h-925v39l655 549q229 190 229 430q0 176 -121.5 287.5t-291.5 111.5q-178 0 -295 -108.5t-127 -270.5z" glyph-name="two.tnum" horiz-adv-x="1228"/><glyph d="M150 408l38 6q0 -178 120 -288t296 -110q172 0 297 106.5t125 276.5q0 154 -125 247t-287 93h-88v37h88q135 0 242 90t107 219q0 147 -105.5 239.5t-253.5 92.5q-150 0 -246 -98t-92 -246l-41 6q0 172 110.5 273.5t268.5 101.5q160 0 278.5 -99.5t118.5 -271.5 q0 -104 -68.5 -194t-195.5 -129q137 -27 233.5 -126t96.5 -235q0 -197 -140.5 -308t-322.5 -111q-180 0 -316 113.5t-138 314.5z" glyph-name="three.tnum" horiz-adv-x="1228"/><glyph d="M862 1434h41v-988h193v-36h-193v-410h-41v410h-717v36zM862 1368l-667 -922h667v922z" glyph-name="four.aalt" horiz-adv-x="1228"/><glyph d="M266 1434h723v-37h-690l-33 -660q61 84 167 133.5t216 49.5q188 0 316.5 -140.5t128.5 -339.5q0 -201 -132.5 -330.5t-330.5 -129.5q-168 0 -291 97t-166 261l41 8q43 -156 152.5 -243t259.5 -87q178 0 302 119t124 307q0 186 -120 313.5t-294 127.5q-109 0 -207 -52.5 t-164 -148.5l-43 14z" glyph-name="five.aalt" horiz-adv-x="1228"/><glyph d="M621 946q215 0 352 -146.5t137 -342.5q0 -207 -139.5 -342t-347.5 -135q-203 0 -346.5 139t-143.5 338q0 182 160 407l418 600l43 -10l-435 -614q53 49 137.5 77.5t164.5 28.5zM620.5 16q188.5 0 318.5 126t130 315q0 190 -130 321t-318 131q-186 0 -317.5 -130 t-131.5 -322q0 -190 130 -315.5t318.5 -125.5z" glyph-name="six.aalt" horiz-adv-x="1228"/><glyph d="M238 1434h735v-37l-537 -1405l-39 8l537 1397h-696v37z" glyph-name="seven.aalt" horiz-adv-x="1228"/><glyph d="M737 760q117 -23 216.5 -124t99.5 -261q0 -178 -128 -286.5t-310.5 -108.5t-310.5 108.5t-128 286.5q0 160 98.5 261t214.5 124q-109 23 -188.5 115t-79.5 223q0 156 115 256t278.5 100t278.5 -100.5t115 -255.5q0 -131 -81 -222t-190 -116zM262 1100 q0 -143 107.5 -233.5t244.5 -90.5q139 0 247 90t108 234q0 137 -103.5 227t-251 90t-250 -90t-102.5 -227zM614.5 16q163.5 0 281.5 98.5t118 260.5q0 166 -122 265t-277.5 99t-276.5 -98t-121 -266q0 -162 117 -260.5t280.5 -98.5z" glyph-name="eight.aalt" horiz-adv-x="1228"/><glyph d="M606 481q-215 0 -352 146.5t-137 343.5q0 207 139 342t348 135q203 0 346.5 -139.5t143.5 -337.5q0 -182 -160 -408l-418 -600l-43 10l434 615q-53 -49 -137 -78t-164 -29zM606.5 1411q-188.5 0 -318.5 -126t-130 -314q0 -190 130 -321.5t318 -131.5q186 0 317.5 130 t131.5 323q0 190 -130 315t-318.5 125z" glyph-name="nine.aalt" horiz-adv-x="1228"/><glyph d="M1040 893v-37h-419v-344h-41v344h-420v37h420v360h41v-360h419zM1040 367h-880v36h880v-36z" glyph-name="plusminus.aalt" horiz-adv-x="1200"/><glyph d="M1098 717h-1012v37h1012v-37z" glyph-name="endash.aalt" horiz-adv-x="1183"/><glyph d="M2134 711h-2048v37h2048v-37z" glyph-name="emdash.aalt" horiz-adv-x="2220"/><glyph d="M106 623q0 172 114 268t257 96q244 0 451 -334q207 334 446 334q143 0 257 -96t114 -268t-113.5 -268.5t-257.5 -96.5q-244 0 -450 334q-207 -334 -447 -334q-143 0 -257 96.5t-114 268.5zM1374 950q-221 0 -426 -329q201 -326 426 -326q150 0 240 96t90 231.5t-90 231.5 t-240 96zM147 622.5q0 -135.5 89.5 -231.5t240.5 -96q221 0 426 330q-201 326 -426 325q-152 0 -241 -96t-89 -231.5z" glyph-name="infinity.aalt" horiz-adv-x="1853"/><glyph d="M209 795q0 61 16.5 106t39 67.5t53 35t50 15.5t40.5 3q57 0 105 -23.5t81 -57.5t63.5 -67.5t69.5 -57t84 -23.5q66 0 111 47t45 143h37q0 -59 -18.5 -104t-42 -66.5t-55.5 -35t-52.5 -16.5t-38.5 -3q-59 0 -109.5 36.5t-83.5 80t-87 79t-118 33.5q-154 -4 -153 -192h-37z M209 479q0 61 16.5 106.5t39 68t53 34.5t50 15.5t40.5 3.5q57 0 105 -24t81 -57.5t63.5 -67.5t69.5 -57.5t84 -23.5q66 0 111 47t45 144h37q0 -59 -18.5 -104.5t-42 -67t-55.5 -34.5t-52.5 -16.5t-38.5 -3.5q-59 0 -109.5 37t-83.5 80t-87 79t-118 34q-154 -4 -153 -193h-37 z" glyph-name="approxequal.aalt" horiz-adv-x="1212"/><glyph d="M958 918h-266l-223 -306h489v-37h-516l-127 -172l-34 13l116 159h-221v37h248l225 306h-473v36h500l143 197l35 -12l-135 -185h239v-36z" glyph-name="notequal.aalt" horiz-adv-x="1134"/><glyph d="M930 1450v-45l-721 -412l721 -411v-45l-770 444v25zM930 279h-770v34h770v-34z" glyph-name="lessequal.aalt" horiz-adv-x="1089"/><glyph d="M160 1405v45l770 -444v-25l-770 -444v45l721 411zM930 279h-770v34h770v-34z" glyph-name="greaterequal.aalt" horiz-adv-x="1089"/><glyph d="M535 1155h55l-369 -422l369 -420h-55l-359 420z" glyph-name="guilsinglleft.aalt" horiz-adv-x="765"/><glyph d="M176 1155h55l359 -422l-359 -420h-55l367 420z" glyph-name="guilsinglright.aalt" horiz-adv-x="765"/><glyph d="M176 723l303 440h45l-305 -440l305 -440h-45zM430 723l303 440h47l-305 -440l305 -440h-47z" glyph-name="guillemotleft.aalt" horiz-adv-x="956"/><glyph d="M477 1163l303 -440l-303 -440h-45l305 440l-305 440h45zM223 1163l303 -440l-303 -440h-47l305 440l-305 440h47z" glyph-name="guillemotright.aalt" horiz-adv-x="956"/><glyph d="M453 1407l155 -221h-41l-172 221h58zM1026 1012h39v-1012h-39v291q-55 -154 -174 -232.5t-256 -78.5q-215 0 -352.5 151.5t-137.5 372.5q0 219 136.5 373.5t351.5 154.5q135 0 258 -79t174 -232v291zM1028 506q0 209 -116.5 350t-317.5 141q-205 0 -329 -144t-124 -349 q0 -207 125 -348.5t330 -141.5q201 0 316.5 141.5t115.5 350.5z" glyph-name="agrave.aalt" horiz-adv-x="1232"/><glyph d="M707 1407h49l-154 -221h-33zM1026 1012h39v-1012h-39v291q-55 -154 -174 -232.5t-256 -78.5q-215 0 -352.5 151.5t-137.5 372.5q0 219 136.5 373.5t351.5 154.5q135 0 258 -79t174 -232v291zM1028 506q0 209 -116.5 350t-317.5 141q-205 0 -329 -144t-124 -349 q0 -207 125 -348.5t330 -141.5q201 0 316.5 141.5t115.5 350.5z" glyph-name="aacute.aalt" horiz-adv-x="1232"/><glyph d="M420 1167h-47l205 242h36l205 -242h-47l-176 211zM1026 1012h39v-1012h-39v291q-55 -154 -174 -232.5t-256 -78.5q-215 0 -352.5 151.5t-137.5 372.5q0 219 136.5 373.5t351.5 154.5q135 0 258 -79t174 -232v291zM1028 506q0 209 -116.5 350t-317.5 141q-205 0 -329 -144 t-124 -349q0 -207 125 -348.5t330 -141.5q201 0 316.5 141.5t115.5 350.5z" glyph-name="acircumflex.aalt" horiz-adv-x="1232"/><glyph d="M422 1241q0 16 12 28.5t28.5 12.5t29 -12.5t12.5 -28.5t-12.5 -28.5t-29 -12.5t-28.5 12.5t-12 28.5zM668 1241q0 16 12 28.5t28.5 12.5t29 -12.5t12.5 -28.5t-12.5 -28.5t-29 -12.5t-28.5 12.5t-12 28.5zM1026 1012h39v-1012h-39v291q-55 -154 -174 -232.5t-256 -78.5 q-215 0 -352.5 151.5t-137.5 372.5q0 219 136.5 373.5t351.5 154.5q135 0 258 -79t174 -232v291zM1028 506q0 209 -116.5 350t-317.5 141q-205 0 -329 -144t-124 -349q0 -207 125 -348.5t330 -141.5q201 0 316.5 141.5t115.5 350.5z" glyph-name="adieresis.aalt" horiz-adv-x="1232"/><glyph d="M586 1176q-74 0 -127 49t-53 127q0 80 52 130t128 50t126 -50t50 -130q0 -78 -50 -127t-126 -49zM583.5 1208q61.5 0 101.5 40t40 102q0 66 -40 107.5t-101 41.5q-59 0 -100.5 -43t-41.5 -106q0 -61 40 -101.5t101.5 -40.5zM1026 1012h39v-1012h-39v291 q-55 -154 -174 -232.5t-256 -78.5q-215 0 -352.5 151.5t-137.5 372.5q0 219 136.5 373.5t351.5 154.5q135 0 258 -79t174 -232v291zM1028 506q0 209 -116.5 350t-317.5 141q-205 0 -329 -144t-124 -349q0 -207 125 -348.5t330 -141.5q201 0 316.5 141.5t115.5 350.5z" glyph-name="aring.aalt" horiz-adv-x="1232"/><glyph d="M270 1186v37h631v-37h-631zM1026 1012h39v-1012h-39v291q-55 -154 -174 -232.5t-256 -78.5q-215 0 -352.5 151.5t-137.5 372.5q0 219 136.5 373.5t351.5 154.5q135 0 258 -79t174 -232v291zM1028 506q0 209 -116.5 350t-317.5 141q-205 0 -329 -144t-124 -349 q0 -207 125 -348.5t330 -141.5q201 0 316.5 141.5t115.5 350.5z" glyph-name="amacron.aalt" horiz-adv-x="1232"/><glyph d="M754 1393h41q0 -94 -58.5 -155.5t-150.5 -61.5t-151.5 61t-59.5 156h41q0 -78 45 -129.5t125 -51.5q78 0 123 51.5t45 129.5zM1026 1012h39v-1012h-39v291q-55 -154 -174 -232.5t-256 -78.5q-215 0 -352.5 151.5t-137.5 372.5q0 219 136.5 373.5t351.5 154.5 q135 0 258 -79t174 -232v291zM1028 506q0 209 -116.5 350t-317.5 141q-205 0 -329 -144t-124 -349q0 -207 125 -348.5t330 -141.5q201 0 316.5 141.5t115.5 350.5z" glyph-name="abreve.aalt" horiz-adv-x="1232"/><glyph d="M1026 1012h39v-1012q-248 -104 -248 -258q0 -63 48 -103t147 -38q66 0 102 22l16 -31q-37 -29 -129 -28q-109 0 -165 47t-56 131q0 160 246 281v268q-55 -154 -174 -232.5t-256 -78.5q-215 0 -352.5 151.5t-137.5 372.5q0 219 136.5 373.5t351.5 154.5q135 0 258 -79 t174 -232v291zM1028 506q0 209 -116.5 350t-317.5 141q-205 0 -329 -144t-124 -349q0 -207 125 -348.5t330 -141.5q201 0 316.5 141.5t115.5 350.5z" glyph-name="aogonek.aalt" horiz-adv-x="1232"/><glyph d="M987 754v-37h-395v-414h-41v414h-395v37h395v413h41v-413h395z" glyph-name="plus.aalt" horiz-adv-x="1142"/><glyph d="M542.5 1450q16.5 0 29 -12.5t12.5 -28.5t-12.5 -28.5t-29 -12.5t-28.5 12.5t-12 28.5t12 28.5t28.5 12.5zM506 -10q-147 0 -261 101.5t-114 252.5q0 78 41 139.5t98.5 102.5t114.5 84t97 107.5t38 146.5v180h43v-184q0 -74 -28.5 -135.5t-72.5 -99.5t-94.5 -78 t-94.5 -72.5t-72.5 -82t-28.5 -108.5q0 -133 98.5 -225t233.5 -92q121 0 214 72.5t128 191.5l37 -4q-35 -135 -138.5 -216t-238.5 -81z" glyph-name="questiondown.aalt" horiz-adv-x="985"/><glyph d="M245.5 1368q-16.5 0 -28.5 12.5t-12 28.5t11 28.5t29.5 12.5t30 -12.5t11.5 -28.5t-12.5 -28.5t-29 -12.5zM233 1081h25l8 -1081h-41z" glyph-name="exclamdown.aalt" horiz-adv-x="491"/><glyph d="M662 1569h-48l205 241h37l205 -241h-47l-176 211zM1430 0h-25l-578 954l-579 -954h-23v1434h41v-1332l553 910h17l553 -910v1332h41v-1434z" glyph-name="Wcircumflex.aalt" horiz-adv-x="1654"/><glyph d="M694 1808l156 -221h-41l-172 221h57zM1430 0h-25l-578 954l-579 -954h-23v1434h41v-1332l553 910h17l553 -910v1332h41v-1434z" glyph-name="Wgrave.aalt" horiz-adv-x="1654"/><glyph d="M948 1808h49l-153 -221h-33zM1430 0h-25l-578 954l-579 -954h-23v1434h41v-1332l553 910h17l553 -910v1332h41v-1434z" glyph-name="Wacute.aalt" horiz-adv-x="1654"/><glyph d="M664 1642.5q0 16.5 12 28.5t28.5 12t28.5 -12t12 -28.5t-12 -28.5t-28.5 -12t-28.5 12t-12 28.5zM909 1642.5q0 16.5 12.5 28.5t29 12t28.5 -12t12 -28.5t-12 -28.5t-28.5 -12t-29 12t-12.5 28.5zM1430 0h-25l-578 954l-579 -954h-23v1434h41v-1332l553 910h17l553 -910 v1332h41v-1434z" glyph-name="Wdieresis.aalt" horiz-adv-x="1654"/><glyph d="M635 1808h49l-154 -221h-32zM881 1434h43l-598 -1434h-43l237 569l-409 865h45l385 -818z" glyph-name="Yacute.aalt" horiz-adv-x="1034"/><glyph d="M348 1569h-47l205 241h37l205 -241h-48l-176 211zM881 1434h43l-598 -1434h-43l237 569l-409 865h45l385 -818z" glyph-name="Ycircumflex.aalt" horiz-adv-x="1034"/><glyph d="M350 1642.5q0 16.5 12.5 28.5t29 12t28.5 -12t12 -28.5t-12 -28.5t-28.5 -12t-29 12t-12.5 28.5zM596 1642.5q0 16.5 12.5 28.5t28.5 12t28.5 -12t12.5 -28.5t-12.5 -28.5t-28.5 -12t-28.5 12t-12.5 28.5zM881 1434h43l-598 -1434h-43l237 569l-409 865h45l385 -818z" glyph-name="Ydieresis.aalt" horiz-adv-x="1034"/></font>
</defs>
</svg>
