<svg xmlns="http://www.w3.org/2000/svg" width="33.5" height="22.5"><path data-name="Path 223" d="M32.751 22.5h-32a.75.75 0 01-.75-.75v-13A.75.75 0 01.751 8h4a.75.75 0 01.75.75.75.75 0 01-.75.75h-3.25V21h30.5V9.5h-3.25a.75.75 0 01-.75-.75.75.75 0 01.75-.75h4a.75.75 0 01.75.75v13a.75.75 0 01-.75.75z"/><g data-name="Group 221"><path data-name="Path 225" d="M16.75 16.502a.75.75 0 01-.75-.75v-15a.75.75 0 01.75-.75.75.75 0 01.75.75v15a.75.75 0 01-.75.75z"/><path data-name="Path 224" d="M10.751 7.503a.748.748 0 01-.53-.219.75.75 0 010-1.061l6-6a.75.75 0 01.53-.22.75.75 0 01.531.22l6 6a.75.75 0 010 1.061.75.75 0 01-1.061 0l-5.473-5.473-5.466 5.472a.748.748 0 01-.531.22z"/></g></svg>