<svg xmlns="http://www.w3.org/2000/svg" width="33.5" height="22.5"><path data-name="Path 223" d="M32.751 22.5h-32a.75.75 0 01-.75-.75v-13A.75.75 0 01.751 8h4a.75.75 0 01.75.75.75.75 0 01-.75.75h-3.25V21h30.5V9.5h-3.25a.75.75 0 01-.75-.75.75.75 0 01.75-.75h4a.75.75 0 01.75.75v13a.75.75 0 01-.75.75z"/><g data-name="Group 222"><path data-name="Path 225" d="M16.75 16.5a.75.75 0 01-.75-.75v-15a.75.75 0 01.75-.75.75.75 0 01.75.75v15a.75.75 0 01-.75.75z"/><path data-name="Path 224" d="M16.748 16.502a.75.75 0 01-.53-.22l-6-6a.75.75 0 010-1.061.75.75 0 011.061 0l5.466 5.472 5.474-5.475a.75.75 0 011.061 0 .75.75 0 010 1.061l-6 6a.75.75 0 01-.532.223z"/></g></svg>