<svg xmlns="http://www.w3.org/2000/svg" viewBox="0 0 240 234"><linearGradient id="a" gradientUnits="userSpaceOnUse" x1="120" y1="234" x2="120" y2="0"><stop offset="0" stop-color="#201f21"/><stop offset="1" stop-color="#313131"/></linearGradient><path fill="url(#a)" d="M0 0h240v234H0z"/><path d="M132.25 97.959c-5.604 18.78-10.281 36.912-15.884 54.63-3.181 9.997-6.664 19.538-11.056 25.596-4.847 6.815-13.934 13.327-24.837 13.327-7.725 0-15.297-3.635-15.297-11.661 0-4.998 5.149-9.693 9.238-9.693 2.424 0 3.635 1.363 4.24 2.423 3.787 6.815 7.422 10.753 9.088 10.753s3.029-2.272 5.754-12.115l19.824-73.26H99.083c-1.06-3.181.455-7.119 2.272-7.876h14.236c2.726-8.784 5.924-17.609 10.467-25.635 6.815-12.267 17.72-21.96 32.712-21.96 11.359 0 16.054 5.452 16.054 12.42-.152 7.42-6.663 11.206-9.693 11.206-2.423 0-3.634-1.817-4.392-4.392-2.574-9.693-5.906-12.57-7.875-12.57-1.968 0-4.998 3.634-8.33 11.206-4.392 9.542-7.286 19.73-10.012 29.725h17.265c1.06 2.12.151 6.664-2.423 7.876H132.25z" fill="#fff"/></svg>