<svg xmlns="http://www.w3.org/2000/svg" width="19.126" height="20"><g data-name="Group 207"><g data-name="Group 206"><path data-name="Union 8" d="M0 10A10.012 10.012 0 0110 0a10.029 10.029 0 019.124 5.908l-3.651 1.638A6.014 6.014 0 0010 4a6.007 6.007 0 00-6 6 6.007 6.007 0 006 6 6.014 6.014 0 005.474-3.543h.011l2.635-1 1 2.635v.007A10.025 10.025 0 0110 20 10.011 10.011 0 010 10z" fill="#fff"/></g><path data-name="Path 207" d="M10.001 6.5a3.5 3.5 0 11-3.5 3.5 3.5 3.5 0 013.5-3.5z" fill="#fff"/></g></svg>