<svg xmlns="http://www.w3.org/2000/svg" viewBox="0 0 27 27"><g data-name="custom fonts icon" transform="translate(-273 101)"><rect data-name="Rectangle 881" width="27" height="27" rx="6" transform="translate(273 -101)" fill="#145bd5"/><path data-name="Path 461" d="M280.145-83l.9-2.535h4.1l.88 2.535h2.025l-3.96-10.965h-1.965L278.165-83zm2.73-7.7a4.256 4.256 0 00.24-.84 5.437 5.437 0 00.225.84l1.26 3.56h-3zm7.74 7.9a2.427 2.427 0 002.37-1.29l.135 1.09h1.6v-4.5a2.892 2.892 0 00-3.22-3.135c-1.92 0-3.24 1.065-3.225 2.655h1.56c-.015-.765.57-1.23 1.575-1.23.9 0 1.53.39 1.53 1.41v.165l-2.115.165c-1.665.135-2.745.915-2.745 2.355a2.264 2.264 0 002.535 2.315zm.6-1.38c-.825 0-1.275-.36-1.275-1 0-.6.39-.96 1.47-1.065l1.545-.135v.38a1.656 1.656 0 01-1.74 1.815z" fill="#fff"/></g></svg>