<svg height="1952" viewBox="0 0 509.581 397.881" width="2500" xmlns="http://www.w3.org/2000/svg"><path d="M0 387.4L245.52 2.01l131.6 83.84L185.01 387.4z" fill="#fbbc04"/><path d="M240.33 0h151.13v387.4H240.33z" fill="#1a73e8"/><circle cx="83.72" cy="81.35" fill="#ea4335" r="74.91"/><path d="M499.1 279.76A107.64 107.64 0 01391.46 387.4V172.13A107.64 107.64 0 01499.1 279.76z" fill="#34a853"/><path d="M391.46 172.13V387.4a107.64 107.64 0 010-215.27z" fill="#0d652d"/><path d="M474.3 89.29a82.85 82.85 0 01-82.84 82.84V6.44a82.85 82.85 0 0182.84 82.85z" fill="#1a73e8"/><path d="M391.46 6.44v165.69a82.85 82.85 0 010-165.69z" fill="#174ea6"/></svg>