<svg data-name="new logo" xmlns="http://www.w3.org/2000/svg" viewBox="0 0 83 31.001"><path data-name="Path 505" d="M10.259 16.086a2.989 2.989 0 01-2.972 2.37 3.172 3.172 0 01-3.236-3.37 3.187 3.187 0 013.236-3.368 2.875 2.875 0 012.894 2.394l3.92-.947a6.769 6.769 0 00-6.814-5.078 7 7 0 00-7.287 7 6.98 6.98 0 007.287 7 6.754 6.754 0 006.837-5.159zm18.9 2c-.5.026-.789.053-.973.053-.289 0-.474-.263-.474-.737v-4.21c0-3.368-2.341-5.236-5.893-5.236-3.183 0-5.367 1.526-5.972 4.157l3.893.816a1.9 1.9 0 012-1.71 1.775 1.775 0 011.92 1.895v.158l-3.236.262c-3.525.263-5.446 1.684-5.446 4.342 0 2.42 1.894 4.08 4.709 4.08a5.731 5.731 0 004.393-1.763 3.1 3.1 0 003 1.605 4.421 4.421 0 002.368-.684zm-8.182.71c-.973 0-1.631-.447-1.631-1.263 0-.789.552-1.316 1.763-1.447l2.552-.289v.553a2.487 2.487 0 01-2.685 2.446zM36.83 8.587a3.39 3.39 0 00-2.163 2.157V8.456h-4.209v13.207h4.207v-4.131c0-4.863 2.321-4.836 2.321-4.836a7.089 7.089 0 011.3-.1l.232-4.281a5.121 5.121 0 00-1.688.272zm9.594 2.991h4.683V8.236h-4.683V2.5l-4.209 1.237v4.5h-2.5v3.342h2.5v5.263c0 3.131 1.868 5 5 5a7.168 7.168 0 003.6-.974l-.971-3.317a4.3 4.3 0 01-1.92.526c-.947 0-1.5-.605-1.5-1.658zm7.764-9.972a2.37 2.37 0 00-2.42 2.368 2.323 2.323 0 002.42 2.368 2.345 2.345 0 002.447-2.368 2.393 2.393 0 00-2.448-2.369zm2.1 19.84V8.236h-4.205v13.209zm12.1-9.867V8.236h-4.42V5.421a1.667 1.667 0 011.684-1.816 2.878 2.878 0 011.21.263L68.024.816A5.068 5.068 0 0065.183 0a5.144 5.144 0 00-5.393 5.42v2.815h-2.286v3.342h2.289v9.868h4.183v-9.867zm14.6-3.391h-4.197v6.131c0 2.552-1.079 3.684-2.736 3.684a2.329 2.329 0 01-2.262-2.6v-7.21h-4.184v8.1c0 3.315 2.052 5.5 5.13 5.5a5.445 5.445 0 004.051-1.658v2.421a2.824 2.824 0 01-3.052 2.763 4.088 4.088 0 01-3.6-2.026l-3.055 2.55c1.263 2.131 3.6 3.184 6.656 3.184 4.341 0 7.261-2.552 7.261-6.131z"/><path data-name="Path 503" d="M20.397 28.001h39.21c.215 0 .39.269.39.6v1.8c0 .331-.175.6-.39.6h-39.21c-.215 0-.39-.269-.39-.6v-1.8c0-.331.175-.6.39-.6z"/></svg>